<?xml version="1.0" encoding="utf-8" standalone="no"?>
<!DOCTYPE svg PUBLIC "-//W3C//DTD SVG 1.1//EN"
  "http://www.w3.org/Graphics/SVG/1.1/DTD/svg11.dtd">
<svg height="188.39952pt" version="1.1" viewBox="0 0 339.59952 188.39952" width="339.59952pt" xmlns="http://www.w3.org/2000/svg" xmlns:xlink="http://www.w3.org/1999/xlink">
 <metadata>
  <rdf:RDF xmlns:cc="http://creativecommons.org/ns#" xmlns:dc="http://purl.org/dc/elements/1.1/" xmlns:rdf="http://www.w3.org/1999/02/22-rdf-syntax-ns#">
   <cc:Work>
    <dc:type rdf:resource="http://purl.org/dc/dcmitype/StillImage"/>
    <dc:date>2021-08-12T14:03:12.790323</dc:date>
    <dc:format>image/svg+xml</dc:format>
    <dc:creator>
     <cc:Agent>
      <dc:title>Matplotlib v3.4.2, https://matplotlib.org/</dc:title>
     </cc:Agent>
    </dc:creator>
   </cc:Work>
  </rdf:RDF>
 </metadata>
 <defs>
  <style type="text/css">*{stroke-linecap:butt;stroke-linejoin:round;}</style>
 </defs>
 <g id="figure_1">
  <g id="patch_1">
   <path d="M 0 188.39952 
L 339.59952 188.39952 
L 339.59952 0 
L 0 0 
z
"/>
  </g>
  <g id="axes_1">
   <g id="patch_2">
    <path d="M 43.33125 151.088583 
L 332.39952 151.088583 
L 332.39952 10.95 
L 43.33125 10.95 
z
"/>
   </g>
   <g id="matplotlib.axis_1">
    <g id="xtick_1">
     <g id="line2d_1">
      <defs>
       <path d="M 0 0 
L 0 3.5 
" id="m7d1b7c0cca" style="stroke:#ffffff;stroke-width:0.8;"/>
      </defs>
      <g>
       <use style="fill:#ffffff;stroke:#ffffff;stroke-width:0.8;" x="86.691491" xlink:href="#m7d1b7c0cca" y="151.088583"/>
      </g>
     </g>
     <g id="text_1">
      <!-- 8 -->
      <g style="fill:#ffffff;" transform="translate(83.883678 165.588583)scale(0.1 -0.1)">
       <defs>
        <path d="M 3138 3363 
Q 3138 3022 2958 2756 
Q 2778 2491 2472 2341 
Q 2828 2188 3036 1894 
Q 3244 1600 3244 1228 
Q 3244 638 2845 287 
Q 2447 -63 1797 -63 
Q 1141 -63 745 289 
Q 350 641 350 1228 
Q 350 1597 551 1894 
Q 753 2191 1109 2344 
Q 806 2494 631 2759 
Q 456 3025 456 3363 
Q 456 3938 825 4275 
Q 1194 4613 1797 4613 
Q 2397 4613 2767 4275 
Q 3138 3938 3138 3363 
z
M 2666 1241 
Q 2666 1622 2423 1862 
Q 2181 2103 1790 2103 
Q 1400 2103 1164 1865 
Q 928 1628 928 1240 
Q 928 853 1158 631 
Q 1388 409 1797 409 
Q 2203 409 2434 632 
Q 2666 856 2666 1241 
z
M 1797 4138 
Q 1456 4138 1245 3927 
Q 1034 3716 1034 3353 
Q 1034 3006 1242 2792 
Q 1450 2578 1797 2578 
Q 2144 2578 2351 2792 
Q 2559 3006 2559 3353 
Q 2559 3700 2343 3919 
Q 2128 4138 1797 4138 
z
" id="Roboto-Regular-38" transform="scale(0.015625)"/>
       </defs>
       <use xlink:href="#Roboto-Regular-38"/>
      </g>
     </g>
    </g>
    <g id="xtick_2">
     <g id="line2d_2">
      <g>
       <use style="fill:#ffffff;stroke:#ffffff;stroke-width:0.8;" x="144.505145" xlink:href="#m7d1b7c0cca" y="151.088583"/>
      </g>
     </g>
     <g id="text_2">
      <!-- 10 -->
      <g style="fill:#ffffff;" transform="translate(138.88952 165.588583)scale(0.1 -0.1)">
       <defs>
        <path d="M 2278 0 
L 1697 0 
L 1697 3853 
L 531 3425 
L 531 3950 
L 2188 4572 
L 2278 4572 
L 2278 0 
z
" id="Roboto-Regular-31" transform="scale(0.015625)"/>
        <path d="M 3231 1941 
Q 3231 925 2884 431 
Q 2538 -63 1800 -63 
Q 1072 -63 722 420 
Q 372 903 359 1863 
L 359 2634 
Q 359 3638 706 4125 
Q 1053 4613 1794 4613 
Q 2528 4613 2875 4142 
Q 3222 3672 3231 2691 
L 3231 1941 
z
M 2653 2731 
Q 2653 3466 2447 3802 
Q 2241 4138 1794 4138 
Q 1350 4138 1147 3803 
Q 944 3469 938 2775 
L 938 1850 
Q 938 1113 1152 761 
Q 1366 409 1800 409 
Q 2228 409 2436 740 
Q 2644 1072 2653 1784 
L 2653 2731 
z
" id="Roboto-Regular-30" transform="scale(0.015625)"/>
       </defs>
       <use xlink:href="#Roboto-Regular-31"/>
       <use x="56.152344" xlink:href="#Roboto-Regular-30"/>
      </g>
     </g>
    </g>
    <g id="xtick_3">
     <g id="line2d_3">
      <g>
       <use style="fill:#ffffff;stroke:#ffffff;stroke-width:0.8;" x="202.318799" xlink:href="#m7d1b7c0cca" y="151.088583"/>
      </g>
     </g>
     <g id="text_3">
      <!-- 12 -->
      <g style="fill:#ffffff;" transform="translate(196.703174 165.588583)scale(0.1 -0.1)">
       <defs>
        <path d="M 3359 0 
L 378 0 
L 378 416 
L 1953 2166 
Q 2303 2563 2436 2811 
Q 2569 3059 2569 3325 
Q 2569 3681 2353 3909 
Q 2138 4138 1778 4138 
Q 1347 4138 1108 3892 
Q 869 3647 869 3209 
L 291 3209 
Q 291 3838 695 4225 
Q 1100 4613 1778 4613 
Q 2413 4613 2781 4280 
Q 3150 3947 3150 3394 
Q 3150 2722 2294 1794 
L 1075 472 
L 3359 472 
L 3359 0 
z
" id="Roboto-Regular-32" transform="scale(0.015625)"/>
       </defs>
       <use xlink:href="#Roboto-Regular-31"/>
       <use x="56.152344" xlink:href="#Roboto-Regular-32"/>
      </g>
     </g>
    </g>
    <g id="xtick_4">
     <g id="line2d_4">
      <g>
       <use style="fill:#ffffff;stroke:#ffffff;stroke-width:0.8;" x="260.132452" xlink:href="#m7d1b7c0cca" y="151.088583"/>
      </g>
     </g>
     <g id="text_4">
      <!-- 14 -->
      <g style="fill:#ffffff;" transform="translate(254.516828 165.588583)scale(0.1 -0.1)">
       <defs>
        <path d="M 2819 1528 
L 3450 1528 
L 3450 1056 
L 2819 1056 
L 2819 0 
L 2238 0 
L 2238 1056 
L 166 1056 
L 166 1397 
L 2203 4550 
L 2819 4550 
L 2819 1528 
z
M 822 1528 
L 2238 1528 
L 2238 3759 
L 2169 3634 
L 822 1528 
z
" id="Roboto-Regular-34" transform="scale(0.015625)"/>
       </defs>
       <use xlink:href="#Roboto-Regular-31"/>
       <use x="56.152344" xlink:href="#Roboto-Regular-34"/>
      </g>
     </g>
    </g>
    <g id="xtick_5">
     <g id="line2d_5">
      <g>
       <use style="fill:#ffffff;stroke:#ffffff;stroke-width:0.8;" x="317.946107" xlink:href="#m7d1b7c0cca" y="151.088583"/>
      </g>
     </g>
     <g id="text_5">
      <!-- 16 -->
      <g style="fill:#ffffff;" transform="translate(312.330482 165.588583)scale(0.1 -0.1)">
       <defs>
        <path d="M 2647 4553 
L 2647 4063 
L 2541 4063 
Q 1866 4050 1466 3662 
Q 1066 3275 1003 2572 
Q 1363 2984 1984 2984 
Q 2578 2984 2933 2565 
Q 3288 2147 3288 1484 
Q 3288 781 2905 359 
Q 2522 -63 1878 -63 
Q 1225 -63 819 439 
Q 413 941 413 1731 
L 413 1953 
Q 413 3209 948 3873 
Q 1484 4538 2544 4553 
L 2647 4553 
z
M 1888 2503 
Q 1591 2503 1341 2325 
Q 1091 2147 994 1878 
L 994 1666 
Q 994 1103 1247 759 
Q 1500 416 1878 416 
Q 2269 416 2492 703 
Q 2716 991 2716 1456 
Q 2716 1925 2489 2214 
Q 2263 2503 1888 2503 
z
" id="Roboto-Regular-36" transform="scale(0.015625)"/>
       </defs>
       <use xlink:href="#Roboto-Regular-31"/>
       <use x="56.152344" xlink:href="#Roboto-Regular-36"/>
      </g>
     </g>
    </g>
    <g id="text_6">
     <!-- V magnitude -->
     <g style="fill:#ffffff;" transform="translate(159.709135 179.119833)scale(0.1 -0.1)">
      <defs>
       <path d="M 2034 797 
L 3334 4550 
L 3991 4550 
L 2303 0 
L 1772 0 
L 88 4550 
L 741 4550 
L 2034 797 
z
" id="Roboto-Regular-56" transform="scale(0.015625)"/>
       <path id="Roboto-Regular-20" transform="scale(0.015625)"/>
       <path d="M 981 3381 
L 997 3006 
Q 1369 3444 2000 3444 
Q 2709 3444 2966 2900 
Q 3134 3144 3404 3294 
Q 3675 3444 4044 3444 
Q 5156 3444 5175 2266 
L 5175 0 
L 4597 0 
L 4597 2231 
Q 4597 2594 4431 2773 
Q 4266 2953 3875 2953 
Q 3553 2953 3340 2761 
Q 3128 2569 3094 2244 
L 3094 0 
L 2513 0 
L 2513 2216 
Q 2513 2953 1791 2953 
Q 1222 2953 1013 2469 
L 1013 0 
L 434 0 
L 434 3381 
L 981 3381 
z
" id="Roboto-Regular-6d" transform="scale(0.015625)"/>
       <path d="M 2525 0 
Q 2475 100 2444 356 
Q 2041 -63 1481 -63 
Q 981 -63 661 220 
Q 341 503 341 938 
Q 341 1466 742 1758 
Q 1144 2050 1872 2050 
L 2434 2050 
L 2434 2316 
Q 2434 2619 2253 2798 
Q 2072 2978 1719 2978 
Q 1409 2978 1200 2822 
Q 991 2666 991 2444 
L 409 2444 
Q 409 2697 589 2933 
Q 769 3169 1076 3306 
Q 1384 3444 1753 3444 
Q 2338 3444 2669 3151 
Q 3000 2859 3013 2347 
L 3013 791 
Q 3013 325 3131 50 
L 3131 0 
L 2525 0 
z
M 1566 441 
Q 1838 441 2081 581 
Q 2325 722 2434 947 
L 2434 1641 
L 1981 1641 
Q 919 1641 919 1019 
Q 919 747 1100 594 
Q 1281 441 1566 441 
z
" id="Roboto-Regular-61" transform="scale(0.015625)"/>
       <path d="M 300 1719 
Q 300 2509 665 2976 
Q 1031 3444 1634 3444 
Q 2253 3444 2600 3006 
L 2628 3381 
L 3156 3381 
L 3156 81 
Q 3156 -575 2767 -953 
Q 2378 -1331 1722 -1331 
Q 1356 -1331 1006 -1175 
Q 656 -1019 472 -747 
L 772 -400 
Q 1144 -859 1681 -859 
Q 2103 -859 2339 -621 
Q 2575 -384 2575 47 
L 2575 338 
Q 2228 -63 1628 -63 
Q 1034 -63 667 415 
Q 300 894 300 1719 
z
M 881 1653 
Q 881 1081 1115 754 
Q 1350 428 1772 428 
Q 2319 428 2575 925 
L 2575 2469 
Q 2309 2953 1778 2953 
Q 1356 2953 1118 2625 
Q 881 2297 881 1653 
z
" id="Roboto-Regular-67" transform="scale(0.015625)"/>
       <path d="M 984 3381 
L 1003 2956 
Q 1391 3444 2016 3444 
Q 3088 3444 3097 2234 
L 3097 0 
L 2519 0 
L 2519 2238 
Q 2516 2603 2352 2778 
Q 2188 2953 1841 2953 
Q 1559 2953 1346 2803 
Q 1134 2653 1016 2409 
L 1016 0 
L 438 0 
L 438 3381 
L 984 3381 
z
" id="Roboto-Regular-6e" transform="scale(0.015625)"/>
       <path d="M 1066 0 
L 488 0 
L 488 3381 
L 1066 3381 
L 1066 0 
z
M 441 4278 
Q 441 4419 527 4516 
Q 613 4613 781 4613 
Q 950 4613 1037 4516 
Q 1125 4419 1125 4278 
Q 1125 4138 1037 4044 
Q 950 3950 781 3950 
Q 613 3950 527 4044 
Q 441 4138 441 4278 
z
" id="Roboto-Regular-69" transform="scale(0.015625)"/>
       <path d="M 1222 4200 
L 1222 3381 
L 1853 3381 
L 1853 2934 
L 1222 2934 
L 1222 838 
Q 1222 634 1306 532 
Q 1391 431 1594 431 
Q 1694 431 1869 469 
L 1869 0 
Q 1641 -63 1425 -63 
Q 1038 -63 841 171 
Q 644 406 644 838 
L 644 2934 
L 28 2934 
L 28 3381 
L 644 3381 
L 644 4200 
L 1222 4200 
z
" id="Roboto-Regular-74" transform="scale(0.015625)"/>
       <path d="M 2525 334 
Q 2188 -63 1534 -63 
Q 994 -63 711 251 
Q 428 566 425 1181 
L 425 3381 
L 1003 3381 
L 1003 1197 
Q 1003 428 1628 428 
Q 2291 428 2509 922 
L 2509 3381 
L 3088 3381 
L 3088 0 
L 2538 0 
L 2525 334 
z
" id="Roboto-Regular-75" transform="scale(0.015625)"/>
       <path d="M 297 1719 
Q 297 2497 665 2970 
Q 1034 3444 1631 3444 
Q 2225 3444 2572 3038 
L 2572 4800 
L 3150 4800 
L 3150 0 
L 2619 0 
L 2591 363 
Q 2244 -63 1625 -63 
Q 1038 -63 667 418 
Q 297 900 297 1675 
L 297 1719 
z
M 875 1653 
Q 875 1078 1112 753 
Q 1350 428 1769 428 
Q 2319 428 2572 922 
L 2572 2475 
Q 2313 2953 1775 2953 
Q 1350 2953 1112 2625 
Q 875 2297 875 1653 
z
" id="Roboto-Regular-64" transform="scale(0.015625)"/>
       <path d="M 1841 -63 
Q 1153 -63 722 389 
Q 291 841 291 1597 
L 291 1703 
Q 291 2206 483 2601 
Q 675 2997 1020 3220 
Q 1366 3444 1769 3444 
Q 2428 3444 2793 3009 
Q 3159 2575 3159 1766 
L 3159 1525 
L 869 1525 
Q 881 1025 1161 717 
Q 1441 409 1872 409 
Q 2178 409 2390 534 
Q 2603 659 2763 866 
L 3116 591 
Q 2691 -63 1841 -63 
z
M 1769 2969 
Q 1419 2969 1181 2714 
Q 944 2459 888 2000 
L 2581 2000 
L 2581 2044 
Q 2556 2484 2343 2726 
Q 2131 2969 1769 2969 
z
" id="Roboto-Regular-65" transform="scale(0.015625)"/>
      </defs>
      <use xlink:href="#Roboto-Regular-56"/>
      <use x="63.623047" xlink:href="#Roboto-Regular-20"/>
      <use x="88.378906" xlink:href="#Roboto-Regular-6d"/>
      <use x="176.025391" xlink:href="#Roboto-Regular-61"/>
      <use x="230.419922" xlink:href="#Roboto-Regular-67"/>
      <use x="286.523438" xlink:href="#Roboto-Regular-6e"/>
      <use x="341.699219" xlink:href="#Roboto-Regular-69"/>
      <use x="365.966797" xlink:href="#Roboto-Regular-74"/>
      <use x="398.632812" xlink:href="#Roboto-Regular-75"/>
      <use x="453.759766" xlink:href="#Roboto-Regular-64"/>
      <use x="510.15625" xlink:href="#Roboto-Regular-65"/>
     </g>
    </g>
   </g>
   <g id="matplotlib.axis_2">
    <g id="ytick_1">
     <g id="line2d_6">
      <defs>
       <path d="M 0 0 
L -3.5 0 
" id="m317d554f4a" style="stroke:#ffffff;stroke-width:0.8;"/>
      </defs>
      <g>
       <use style="fill:#ffffff;stroke:#ffffff;stroke-width:0.8;" x="43.33125" xlink:href="#m317d554f4a" y="151.088583"/>
      </g>
     </g>
     <g id="text_7">
      <!-- $\mathdefault{10^{0}}$ -->
      <g style="fill:#ffffff;" transform="translate(20.73125 154.838583)scale(0.1 -0.1)">
       <use transform="translate(0 0.565625)" xlink:href="#Roboto-Regular-31"/>
       <use transform="translate(56.152344 0.565625)" xlink:href="#Roboto-Regular-30"/>
       <use transform="translate(113.22918 37.545313)scale(0.7)" xlink:href="#Roboto-Regular-30"/>
      </g>
     </g>
    </g>
    <g id="ytick_2">
     <g id="line2d_7">
      <g>
       <use style="fill:#ffffff;stroke:#ffffff;stroke-width:0.8;" x="43.33125" xlink:href="#m317d554f4a" y="127.732152"/>
      </g>
     </g>
     <g id="text_8">
      <!-- $\mathdefault{10^{1}}$ -->
      <g style="fill:#ffffff;" transform="translate(20.73125 131.482152)scale(0.1 -0.1)">
       <use transform="translate(0 0.014063)" xlink:href="#Roboto-Regular-31"/>
       <use transform="translate(56.152344 0.014063)" xlink:href="#Roboto-Regular-30"/>
       <use transform="translate(113.22918 36.99375)scale(0.7)" xlink:href="#Roboto-Regular-31"/>
      </g>
     </g>
    </g>
    <g id="ytick_3">
     <g id="line2d_8">
      <g>
       <use style="fill:#ffffff;stroke:#ffffff;stroke-width:0.8;" x="43.33125" xlink:href="#m317d554f4a" y="104.375722"/>
      </g>
     </g>
     <g id="text_9">
      <!-- $\mathdefault{10^{2}}$ -->
      <g style="fill:#ffffff;" transform="translate(20.73125 108.125722)scale(0.1 -0.1)">
       <use transform="translate(0 0.565625)" xlink:href="#Roboto-Regular-31"/>
       <use transform="translate(56.152344 0.565625)" xlink:href="#Roboto-Regular-30"/>
       <use transform="translate(113.22918 37.545313)scale(0.7)" xlink:href="#Roboto-Regular-32"/>
      </g>
     </g>
    </g>
    <g id="ytick_4">
     <g id="line2d_9">
      <g>
       <use style="fill:#ffffff;stroke:#ffffff;stroke-width:0.8;" x="43.33125" xlink:href="#m317d554f4a" y="81.019291"/>
      </g>
     </g>
     <g id="text_10">
      <!-- $\mathdefault{10^{3}}$ -->
      <g style="fill:#ffffff;" transform="translate(20.73125 84.769291)scale(0.1 -0.1)">
       <defs>
        <path d="M 1219 2556 
L 1653 2556 
Q 2063 2563 2297 2772 
Q 2531 2981 2531 3338 
Q 2531 4138 1734 4138 
Q 1359 4138 1136 3923 
Q 913 3709 913 3356 
L 334 3356 
Q 334 3897 729 4255 
Q 1125 4613 1734 4613 
Q 2378 4613 2743 4272 
Q 3109 3931 3109 3325 
Q 3109 3028 2917 2750 
Q 2725 2472 2394 2334 
Q 2769 2216 2973 1941 
Q 3178 1666 3178 1269 
Q 3178 656 2778 296 
Q 2378 -63 1737 -63 
Q 1097 -63 695 284 
Q 294 631 294 1200 
L 875 1200 
Q 875 841 1109 625 
Q 1344 409 1738 409 
Q 2156 409 2378 628 
Q 2600 847 2600 1256 
Q 2600 1653 2356 1865 
Q 2113 2078 1653 2084 
L 1219 2084 
L 1219 2556 
z
" id="Roboto-Regular-33" transform="scale(0.015625)"/>
       </defs>
       <use transform="translate(0 0.565625)" xlink:href="#Roboto-Regular-31"/>
       <use transform="translate(56.152344 0.565625)" xlink:href="#Roboto-Regular-30"/>
       <use transform="translate(113.22918 37.545313)scale(0.7)" xlink:href="#Roboto-Regular-33"/>
      </g>
     </g>
    </g>
    <g id="ytick_5">
     <g id="line2d_10">
      <g>
       <use style="fill:#ffffff;stroke:#ffffff;stroke-width:0.8;" x="43.33125" xlink:href="#m317d554f4a" y="57.662861"/>
      </g>
     </g>
     <g id="text_11">
      <!-- $\mathdefault{10^{4}}$ -->
      <g style="fill:#ffffff;" transform="translate(20.73125 61.412861)scale(0.1 -0.1)">
       <use transform="translate(0 0.254688)" xlink:href="#Roboto-Regular-31"/>
       <use transform="translate(56.152344 0.254688)" xlink:href="#Roboto-Regular-30"/>
       <use transform="translate(113.22918 37.234375)scale(0.7)" xlink:href="#Roboto-Regular-34"/>
      </g>
     </g>
    </g>
    <g id="ytick_6">
     <g id="line2d_11">
      <g>
       <use style="fill:#ffffff;stroke:#ffffff;stroke-width:0.8;" x="43.33125" xlink:href="#m317d554f4a" y="34.30643"/>
      </g>
     </g>
     <g id="text_12">
      <!-- $\mathdefault{10^{5}}$ -->
      <g style="fill:#ffffff;" transform="translate(20.73125 38.05643)scale(0.1 -0.1)">
       <defs>
        <path d="M 644 2281 
L 875 4550 
L 3206 4550 
L 3206 4016 
L 1366 4016 
L 1228 2775 
Q 1563 2972 1988 2972 
Q 2609 2972 2975 2561 
Q 3341 2150 3341 1450 
Q 3341 747 2961 342 
Q 2581 -63 1900 -63 
Q 1297 -63 915 271 
Q 534 606 481 1197 
L 1028 1197 
Q 1081 806 1306 607 
Q 1531 409 1900 409 
Q 2303 409 2533 684 
Q 2763 959 2763 1444 
Q 2763 1900 2514 2176 
Q 2266 2453 1853 2453 
Q 1475 2453 1259 2288 
L 1106 2163 
L 644 2281 
z
" id="Roboto-Regular-35" transform="scale(0.015625)"/>
       </defs>
       <use transform="translate(0 0.254688)" xlink:href="#Roboto-Regular-31"/>
       <use transform="translate(56.152344 0.254688)" xlink:href="#Roboto-Regular-30"/>
       <use transform="translate(113.22918 37.234375)scale(0.7)" xlink:href="#Roboto-Regular-35"/>
      </g>
     </g>
    </g>
    <g id="ytick_7">
     <g id="line2d_12">
      <g>
       <use style="fill:#ffffff;stroke:#ffffff;stroke-width:0.8;" x="43.33125" xlink:href="#m317d554f4a" y="10.95"/>
      </g>
     </g>
     <g id="text_13">
      <!-- $\mathdefault{10^{6}}$ -->
      <g style="fill:#ffffff;" transform="translate(20.73125 14.7)scale(0.1 -0.1)">
       <use transform="translate(0 0.221875)" xlink:href="#Roboto-Regular-31"/>
       <use transform="translate(56.152344 0.221875)" xlink:href="#Roboto-Regular-30"/>
       <use transform="translate(113.22918 37.201563)scale(0.7)" xlink:href="#Roboto-Regular-36"/>
      </g>
     </g>
    </g>
    <g id="ytick_8">
     <g id="line2d_13">
      <defs>
       <path d="M 0 0 
L -2 0 
" id="m5e5bae7a2c" style="stroke:#ffffff;stroke-width:0.6;"/>
      </defs>
      <g>
       <use style="fill:#ffffff;stroke:#ffffff;stroke-width:0.6;" x="43.33125" xlink:href="#m5e5bae7a2c" y="144.057596"/>
      </g>
     </g>
    </g>
    <g id="ytick_9">
     <g id="line2d_14">
      <g>
       <use style="fill:#ffffff;stroke:#ffffff;stroke-width:0.6;" x="43.33125" xlink:href="#m5e5bae7a2c" y="139.944733"/>
      </g>
     </g>
    </g>
    <g id="ytick_10">
     <g id="line2d_15">
      <g>
       <use style="fill:#ffffff;stroke:#ffffff;stroke-width:0.6;" x="43.33125" xlink:href="#m5e5bae7a2c" y="137.02661"/>
      </g>
     </g>
    </g>
    <g id="ytick_11">
     <g id="line2d_16">
      <g>
       <use style="fill:#ffffff;stroke:#ffffff;stroke-width:0.6;" x="43.33125" xlink:href="#m5e5bae7a2c" y="134.763138"/>
      </g>
     </g>
    </g>
    <g id="ytick_12">
     <g id="line2d_17">
      <g>
       <use style="fill:#ffffff;stroke:#ffffff;stroke-width:0.6;" x="43.33125" xlink:href="#m5e5bae7a2c" y="132.913747"/>
      </g>
     </g>
    </g>
    <g id="ytick_13">
     <g id="line2d_18">
      <g>
       <use style="fill:#ffffff;stroke:#ffffff;stroke-width:0.6;" x="43.33125" xlink:href="#m5e5bae7a2c" y="131.350109"/>
      </g>
     </g>
    </g>
    <g id="ytick_14">
     <g id="line2d_19">
      <g>
       <use style="fill:#ffffff;stroke:#ffffff;stroke-width:0.6;" x="43.33125" xlink:href="#m5e5bae7a2c" y="129.995624"/>
      </g>
     </g>
    </g>
    <g id="ytick_15">
     <g id="line2d_20">
      <g>
       <use style="fill:#ffffff;stroke:#ffffff;stroke-width:0.6;" x="43.33125" xlink:href="#m5e5bae7a2c" y="128.800884"/>
      </g>
     </g>
    </g>
    <g id="ytick_16">
     <g id="line2d_21">
      <g>
       <use style="fill:#ffffff;stroke:#ffffff;stroke-width:0.6;" x="43.33125" xlink:href="#m5e5bae7a2c" y="120.701166"/>
      </g>
     </g>
    </g>
    <g id="ytick_17">
     <g id="line2d_22">
      <g>
       <use style="fill:#ffffff;stroke:#ffffff;stroke-width:0.6;" x="43.33125" xlink:href="#m5e5bae7a2c" y="116.588303"/>
      </g>
     </g>
    </g>
    <g id="ytick_18">
     <g id="line2d_23">
      <g>
       <use style="fill:#ffffff;stroke:#ffffff;stroke-width:0.6;" x="43.33125" xlink:href="#m5e5bae7a2c" y="113.67018"/>
      </g>
     </g>
    </g>
    <g id="ytick_19">
     <g id="line2d_24">
      <g>
       <use style="fill:#ffffff;stroke:#ffffff;stroke-width:0.6;" x="43.33125" xlink:href="#m5e5bae7a2c" y="111.406708"/>
      </g>
     </g>
    </g>
    <g id="ytick_20">
     <g id="line2d_25">
      <g>
       <use style="fill:#ffffff;stroke:#ffffff;stroke-width:0.6;" x="43.33125" xlink:href="#m5e5bae7a2c" y="109.557317"/>
      </g>
     </g>
    </g>
    <g id="ytick_21">
     <g id="line2d_26">
      <g>
       <use style="fill:#ffffff;stroke:#ffffff;stroke-width:0.6;" x="43.33125" xlink:href="#m5e5bae7a2c" y="107.993679"/>
      </g>
     </g>
    </g>
    <g id="ytick_22">
     <g id="line2d_27">
      <g>
       <use style="fill:#ffffff;stroke:#ffffff;stroke-width:0.6;" x="43.33125" xlink:href="#m5e5bae7a2c" y="106.639194"/>
      </g>
     </g>
    </g>
    <g id="ytick_23">
     <g id="line2d_28">
      <g>
       <use style="fill:#ffffff;stroke:#ffffff;stroke-width:0.6;" x="43.33125" xlink:href="#m5e5bae7a2c" y="105.444453"/>
      </g>
     </g>
    </g>
    <g id="ytick_24">
     <g id="line2d_29">
      <g>
       <use style="fill:#ffffff;stroke:#ffffff;stroke-width:0.6;" x="43.33125" xlink:href="#m5e5bae7a2c" y="97.344736"/>
      </g>
     </g>
    </g>
    <g id="ytick_25">
     <g id="line2d_30">
      <g>
       <use style="fill:#ffffff;stroke:#ffffff;stroke-width:0.6;" x="43.33125" xlink:href="#m5e5bae7a2c" y="93.231872"/>
      </g>
     </g>
    </g>
    <g id="ytick_26">
     <g id="line2d_31">
      <g>
       <use style="fill:#ffffff;stroke:#ffffff;stroke-width:0.6;" x="43.33125" xlink:href="#m5e5bae7a2c" y="90.313749"/>
      </g>
     </g>
    </g>
    <g id="ytick_27">
     <g id="line2d_32">
      <g>
       <use style="fill:#ffffff;stroke:#ffffff;stroke-width:0.6;" x="43.33125" xlink:href="#m5e5bae7a2c" y="88.050277"/>
      </g>
     </g>
    </g>
    <g id="ytick_28">
     <g id="line2d_33">
      <g>
       <use style="fill:#ffffff;stroke:#ffffff;stroke-width:0.6;" x="43.33125" xlink:href="#m5e5bae7a2c" y="86.200886"/>
      </g>
     </g>
    </g>
    <g id="ytick_29">
     <g id="line2d_34">
      <g>
       <use style="fill:#ffffff;stroke:#ffffff;stroke-width:0.6;" x="43.33125" xlink:href="#m5e5bae7a2c" y="84.637248"/>
      </g>
     </g>
    </g>
    <g id="ytick_30">
     <g id="line2d_35">
      <g>
       <use style="fill:#ffffff;stroke:#ffffff;stroke-width:0.6;" x="43.33125" xlink:href="#m5e5bae7a2c" y="83.282763"/>
      </g>
     </g>
    </g>
    <g id="ytick_31">
     <g id="line2d_36">
      <g>
       <use style="fill:#ffffff;stroke:#ffffff;stroke-width:0.6;" x="43.33125" xlink:href="#m5e5bae7a2c" y="82.088023"/>
      </g>
     </g>
    </g>
    <g id="ytick_32">
     <g id="line2d_37">
      <g>
       <use style="fill:#ffffff;stroke:#ffffff;stroke-width:0.6;" x="43.33125" xlink:href="#m5e5bae7a2c" y="73.988305"/>
      </g>
     </g>
    </g>
    <g id="ytick_33">
     <g id="line2d_38">
      <g>
       <use style="fill:#ffffff;stroke:#ffffff;stroke-width:0.6;" x="43.33125" xlink:href="#m5e5bae7a2c" y="69.875442"/>
      </g>
     </g>
    </g>
    <g id="ytick_34">
     <g id="line2d_39">
      <g>
       <use style="fill:#ffffff;stroke:#ffffff;stroke-width:0.6;" x="43.33125" xlink:href="#m5e5bae7a2c" y="66.957319"/>
      </g>
     </g>
    </g>
    <g id="ytick_35">
     <g id="line2d_40">
      <g>
       <use style="fill:#ffffff;stroke:#ffffff;stroke-width:0.6;" x="43.33125" xlink:href="#m5e5bae7a2c" y="64.693847"/>
      </g>
     </g>
    </g>
    <g id="ytick_36">
     <g id="line2d_41">
      <g>
       <use style="fill:#ffffff;stroke:#ffffff;stroke-width:0.6;" x="43.33125" xlink:href="#m5e5bae7a2c" y="62.844456"/>
      </g>
     </g>
    </g>
    <g id="ytick_37">
     <g id="line2d_42">
      <g>
       <use style="fill:#ffffff;stroke:#ffffff;stroke-width:0.6;" x="43.33125" xlink:href="#m5e5bae7a2c" y="61.280818"/>
      </g>
     </g>
    </g>
    <g id="ytick_38">
     <g id="line2d_43">
      <g>
       <use style="fill:#ffffff;stroke:#ffffff;stroke-width:0.6;" x="43.33125" xlink:href="#m5e5bae7a2c" y="59.926333"/>
      </g>
     </g>
    </g>
    <g id="ytick_39">
     <g id="line2d_44">
      <g>
       <use style="fill:#ffffff;stroke:#ffffff;stroke-width:0.6;" x="43.33125" xlink:href="#m5e5bae7a2c" y="58.731592"/>
      </g>
     </g>
    </g>
    <g id="ytick_40">
     <g id="line2d_45">
      <g>
       <use style="fill:#ffffff;stroke:#ffffff;stroke-width:0.6;" x="43.33125" xlink:href="#m5e5bae7a2c" y="50.631875"/>
      </g>
     </g>
    </g>
    <g id="ytick_41">
     <g id="line2d_46">
      <g>
       <use style="fill:#ffffff;stroke:#ffffff;stroke-width:0.6;" x="43.33125" xlink:href="#m5e5bae7a2c" y="46.519011"/>
      </g>
     </g>
    </g>
    <g id="ytick_42">
     <g id="line2d_47">
      <g>
       <use style="fill:#ffffff;stroke:#ffffff;stroke-width:0.6;" x="43.33125" xlink:href="#m5e5bae7a2c" y="43.600889"/>
      </g>
     </g>
    </g>
    <g id="ytick_43">
     <g id="line2d_48">
      <g>
       <use style="fill:#ffffff;stroke:#ffffff;stroke-width:0.6;" x="43.33125" xlink:href="#m5e5bae7a2c" y="41.337417"/>
      </g>
     </g>
    </g>
    <g id="ytick_44">
     <g id="line2d_49">
      <g>
       <use style="fill:#ffffff;stroke:#ffffff;stroke-width:0.6;" x="43.33125" xlink:href="#m5e5bae7a2c" y="39.488025"/>
      </g>
     </g>
    </g>
    <g id="ytick_45">
     <g id="line2d_50">
      <g>
       <use style="fill:#ffffff;stroke:#ffffff;stroke-width:0.6;" x="43.33125" xlink:href="#m5e5bae7a2c" y="37.924387"/>
      </g>
     </g>
    </g>
    <g id="ytick_46">
     <g id="line2d_51">
      <g>
       <use style="fill:#ffffff;stroke:#ffffff;stroke-width:0.6;" x="43.33125" xlink:href="#m5e5bae7a2c" y="36.569902"/>
      </g>
     </g>
    </g>
    <g id="ytick_47">
     <g id="line2d_52">
      <g>
       <use style="fill:#ffffff;stroke:#ffffff;stroke-width:0.6;" x="43.33125" xlink:href="#m5e5bae7a2c" y="35.375162"/>
      </g>
     </g>
    </g>
    <g id="ytick_48">
     <g id="line2d_53">
      <g>
       <use style="fill:#ffffff;stroke:#ffffff;stroke-width:0.6;" x="43.33125" xlink:href="#m5e5bae7a2c" y="27.275444"/>
      </g>
     </g>
    </g>
    <g id="ytick_49">
     <g id="line2d_54">
      <g>
       <use style="fill:#ffffff;stroke:#ffffff;stroke-width:0.6;" x="43.33125" xlink:href="#m5e5bae7a2c" y="23.162581"/>
      </g>
     </g>
    </g>
    <g id="ytick_50">
     <g id="line2d_55">
      <g>
       <use style="fill:#ffffff;stroke:#ffffff;stroke-width:0.6;" x="43.33125" xlink:href="#m5e5bae7a2c" y="20.244458"/>
      </g>
     </g>
    </g>
    <g id="ytick_51">
     <g id="line2d_56">
      <g>
       <use style="fill:#ffffff;stroke:#ffffff;stroke-width:0.6;" x="43.33125" xlink:href="#m5e5bae7a2c" y="17.980986"/>
      </g>
     </g>
    </g>
    <g id="ytick_52">
     <g id="line2d_57">
      <g>
       <use style="fill:#ffffff;stroke:#ffffff;stroke-width:0.6;" x="43.33125" xlink:href="#m5e5bae7a2c" y="16.131595"/>
      </g>
     </g>
    </g>
    <g id="ytick_53">
     <g id="line2d_58">
      <g>
       <use style="fill:#ffffff;stroke:#ffffff;stroke-width:0.6;" x="43.33125" xlink:href="#m5e5bae7a2c" y="14.567957"/>
      </g>
     </g>
    </g>
    <g id="ytick_54">
     <g id="line2d_59">
      <g>
       <use style="fill:#ffffff;stroke:#ffffff;stroke-width:0.6;" x="43.33125" xlink:href="#m5e5bae7a2c" y="13.213472"/>
      </g>
     </g>
    </g>
    <g id="ytick_55">
     <g id="line2d_60">
      <g>
       <use style="fill:#ffffff;stroke:#ffffff;stroke-width:0.6;" x="43.33125" xlink:href="#m5e5bae7a2c" y="12.018732"/>
      </g>
     </g>
    </g>
    <g id="text_14">
     <!-- Number of stars observed -->
     <g style="fill:#ffffff;" transform="translate(14.7 138.838041)rotate(-90)scale(0.1 -0.1)">
      <defs>
       <path d="M 4025 0 
L 3422 0 
L 1131 3506 
L 1131 0 
L 528 0 
L 528 4550 
L 1131 4550 
L 3428 1028 
L 3428 4550 
L 4025 4550 
L 4025 0 
z
" id="Roboto-Regular-4e" transform="scale(0.015625)"/>
       <path d="M 3300 1653 
Q 3300 878 2944 407 
Q 2588 -63 1988 -63 
Q 1347 -63 997 391 
L 969 0 
L 438 0 
L 438 4800 
L 1016 4800 
L 1016 3009 
Q 1366 3444 1981 3444 
Q 2597 3444 2948 2978 
Q 3300 2513 3300 1703 
L 3300 1653 
z
M 2722 1719 
Q 2722 2309 2494 2631 
Q 2266 2953 1838 2953 
Q 1266 2953 1016 2422 
L 1016 959 
Q 1281 428 1844 428 
Q 2259 428 2490 750 
Q 2722 1072 2722 1719 
z
" id="Roboto-Regular-62" transform="scale(0.015625)"/>
       <path d="M 2072 2863 
Q 1941 2884 1788 2884 
Q 1219 2884 1016 2400 
L 1016 0 
L 438 0 
L 438 3381 
L 1000 3381 
L 1009 2991 
Q 1294 3444 1816 3444 
Q 1984 3444 2072 3400 
L 2072 2863 
z
" id="Roboto-Regular-72" transform="scale(0.015625)"/>
       <path d="M 284 1722 
Q 284 2219 479 2616 
Q 675 3013 1023 3228 
Q 1372 3444 1819 3444 
Q 2509 3444 2936 2966 
Q 3363 2488 3363 1694 
L 3363 1653 
Q 3363 1159 3173 767 
Q 2984 375 2632 156 
Q 2281 -63 1825 -63 
Q 1138 -63 711 415 
Q 284 894 284 1681 
L 284 1722 
z
M 866 1653 
Q 866 1091 1127 750 
Q 1388 409 1825 409 
Q 2266 409 2525 754 
Q 2784 1100 2784 1722 
Q 2784 2278 2520 2623 
Q 2256 2969 1819 2969 
Q 1391 2969 1128 2628 
Q 866 2288 866 1653 
z
" id="Roboto-Regular-6f" transform="scale(0.015625)"/>
       <path d="M 722 0 
L 722 2934 
L 188 2934 
L 188 3381 
L 722 3381 
L 722 3728 
Q 722 4272 1012 4569 
Q 1303 4866 1834 4866 
Q 2034 4866 2231 4813 
L 2200 4344 
Q 2053 4372 1888 4372 
Q 1606 4372 1453 4208 
Q 1300 4044 1300 3738 
L 1300 3381 
L 2022 3381 
L 2022 2934 
L 1300 2934 
L 1300 0 
L 722 0 
z
" id="Roboto-Regular-66" transform="scale(0.015625)"/>
       <path d="M 2406 897 
Q 2406 1131 2229 1261 
Q 2053 1391 1614 1484 
Q 1175 1578 917 1709 
Q 659 1841 536 2022 
Q 413 2203 413 2453 
Q 413 2869 764 3156 
Q 1116 3444 1663 3444 
Q 2238 3444 2595 3147 
Q 2953 2850 2953 2388 
L 2372 2388 
Q 2372 2625 2170 2797 
Q 1969 2969 1663 2969 
Q 1347 2969 1169 2831 
Q 991 2694 991 2472 
Q 991 2263 1156 2156 
Q 1322 2050 1755 1953 
Q 2188 1856 2456 1722 
Q 2725 1588 2854 1398 
Q 2984 1209 2984 938 
Q 2984 484 2621 210 
Q 2259 -63 1681 -63 
Q 1275 -63 962 81 
Q 650 225 473 483 
Q 297 741 297 1041 
L 875 1041 
Q 891 750 1108 579 
Q 1325 409 1681 409 
Q 2009 409 2207 542 
Q 2406 675 2406 897 
z
" id="Roboto-Regular-73" transform="scale(0.015625)"/>
       <path d="M 1553 784 
L 2391 3381 
L 2981 3381 
L 1769 0 
L 1328 0 
L 103 3381 
L 694 3381 
L 1553 784 
z
" id="Roboto-Regular-76" transform="scale(0.015625)"/>
      </defs>
      <use xlink:href="#Roboto-Regular-4e"/>
      <use x="71.289062" xlink:href="#Roboto-Regular-75"/>
      <use x="126.416016" xlink:href="#Roboto-Regular-6d"/>
      <use x="214.0625" xlink:href="#Roboto-Regular-62"/>
      <use x="270.166016" xlink:href="#Roboto-Regular-65"/>
      <use x="323.144531" xlink:href="#Roboto-Regular-72"/>
      <use x="356.982422" xlink:href="#Roboto-Regular-20"/>
      <use x="381.738281" xlink:href="#Roboto-Regular-6f"/>
      <use x="438.769531" xlink:href="#Roboto-Regular-66"/>
      <use x="473.486328" xlink:href="#Roboto-Regular-20"/>
      <use x="498.242188" xlink:href="#Roboto-Regular-73"/>
      <use x="549.804688" xlink:href="#Roboto-Regular-74"/>
      <use x="582.470703" xlink:href="#Roboto-Regular-61"/>
      <use x="636.865234" xlink:href="#Roboto-Regular-72"/>
      <use x="670.703125" xlink:href="#Roboto-Regular-73"/>
      <use x="722.265625" xlink:href="#Roboto-Regular-20"/>
      <use x="747.021484" xlink:href="#Roboto-Regular-6f"/>
      <use x="804.052734" xlink:href="#Roboto-Regular-62"/>
      <use x="860.15625" xlink:href="#Roboto-Regular-73"/>
      <use x="911.71875" xlink:href="#Roboto-Regular-65"/>
      <use x="964.697266" xlink:href="#Roboto-Regular-72"/>
      <use x="998.535156" xlink:href="#Roboto-Regular-76"/>
      <use x="1046.972656" xlink:href="#Roboto-Regular-65"/>
      <use x="1099.951172" xlink:href="#Roboto-Regular-64"/>
     </g>
    </g>
   </g>
   <g id="patch_3">
    <path clip-path="url(#pd81f853db2)" d="M 115.598318 189.39952 
L 115.598318 96.149995 
L 118.489 96.149995 
L 118.489 93.575755 
L 121.379683 93.575755 
L 121.379683 91.755554 
L 124.270366 91.755554 
L 124.270366 90.675136 
L 127.161048 90.675136 
L 127.161048 89.53309 
L 130.051731 89.53309 
L 130.051731 89.393176 
L 132.942414 89.393176 
L 132.942414 88.050277 
L 135.833096 88.050277 
L 135.833096 86.792617 
L 138.723779 86.792617 
L 138.723779 85.188098 
L 141.614462 85.188098 
L 141.614462 84.521979 
L 144.505144 84.521979 
L 144.505144 83.736545 
L 147.395827 83.736545 
L 147.395827 82.679754 
L 150.28651 82.679754 
L 150.28651 81.496968 
L 153.177193 81.496968 
L 153.177193 80.107986 
L 156.067875 80.107986 
L 156.067875 79.052243 
L 158.958558 79.052243 
L 158.958558 77.476676 
L 161.849241 77.476676 
L 161.849241 76.482614 
L 164.739923 76.482614 
L 164.739923 76.194879 
L 167.630606 76.194879 
L 167.630606 74.276377 
L 170.521289 74.276377 
L 170.521289 73.927626 
L 173.411971 73.927626 
L 173.411971 72.619249 
L 176.302654 72.619249 
L 176.302654 71.409257 
L 179.193337 71.409257 
L 179.193337 70.560795 
L 182.08402 70.560795 
L 182.08402 69.198626 
L 184.974702 69.198626 
L 184.974702 68.396201 
L 187.865385 68.396201 
L 187.865385 67.206332 
L 190.756068 67.206332 
L 190.756068 66.325676 
L 193.64675 66.325676 
L 193.64675 65.246227 
L 196.537433 65.246227 
L 196.537433 63.892546 
L 199.428116 63.892546 
L 199.428116 62.902099 
L 202.318798 62.902099 
L 202.318798 57.596133 
L 205.209481 57.596133 
L 205.209481 56.257532 
L 208.100164 56.257532 
L 208.100164 55.504614 
L 210.990847 55.504614 
L 210.990847 54.660894 
L 213.881529 54.660894 
L 213.881529 53.951407 
L 216.772212 53.951407 
L 216.772212 53.203005 
L 219.662895 53.203005 
L 219.662895 52.27145 
L 222.553577 52.27145 
L 222.553577 51.337507 
L 225.44426 51.337507 
L 225.44426 50.566659 
L 228.334943 50.566659 
L 228.334943 49.849337 
L 231.225625 49.849337 
L 231.225625 49.179848 
L 234.116308 49.179848 
L 234.116308 48.249409 
L 237.006991 48.249409 
L 237.006991 47.382455 
L 239.897674 47.382455 
L 239.897674 46.584479 
L 242.788356 46.584479 
L 242.788356 46.030225 
L 245.679039 46.030225 
L 245.679039 45.206243 
L 248.569722 45.206243 
L 248.569722 44.400473 
L 251.460404 44.400473 
L 251.460404 43.614084 
L 254.351087 43.614084 
L 254.351087 42.981643 
L 257.24177 42.981643 
L 257.24177 42.260012 
L 260.132452 42.260012 
L 260.132452 73.440404 
L 263.023135 73.440404 
L 263.023135 189.39952 
L 263.023135 189.39952 
" style="fill:none;stroke:#8dd3c7;stroke-linejoin:miter;"/>
   </g>
   <g id="patch_4">
    <path clip-path="url(#pd81f853db2)" d="M 202.318798 189.39952 
L 202.318798 90.088049 
L 205.209481 90.088049 
L 205.209481 89.006924 
L 208.100164 89.006924 
L 208.100164 87.065066 
L 210.990847 87.065066 
L 210.990847 87.326128 
L 213.881529 87.326128 
L 213.881529 87.083492 
L 216.772212 87.083492 
L 216.772212 86.597372 
L 219.662895 86.597372 
L 219.662895 85.218743 
L 222.553577 85.218743 
L 222.553577 84.637248 
L 225.44426 84.637248 
L 225.44426 84.101024 
L 231.225625 84.183829 
L 231.225625 83.244796 
L 234.116308 83.244796 
L 234.116308 82.315978 
L 237.006991 82.315978 
L 237.006991 81.412262 
L 239.897674 81.412262 
L 239.897674 81.182901 
L 242.788356 81.182901 
L 242.788356 80.332991 
L 245.679039 80.332991 
L 245.679039 80.572803 
L 248.569722 80.572803 
L 248.569722 78.878278 
L 251.460404 78.878278 
L 251.460404 78.459928 
L 254.351087 78.459928 
L 254.351087 77.825987 
L 257.24177 77.825987 
L 257.24177 77.180595 
L 263.023135 77.125166 
L 263.023135 76.758736 
L 265.913818 76.758736 
L 265.913818 75.577334 
L 268.804501 75.577334 
L 268.804501 108.437993 
L 271.695183 108.437993 
L 271.695183 189.39952 
L 271.695183 189.39952 
" style="fill:none;stroke:#feffb3;stroke-linejoin:miter;"/>
   </g>
   <g id="patch_5">
    <path clip-path="url(#pd81f853db2)" d="M 144.505144 189.39952 
L 144.505144 91.022644 
L 147.395827 91.022644 
L 147.395827 89.746646 
L 150.28651 89.746646 
L 150.28651 88.527954 
L 153.177193 88.527954 
L 153.177193 88.050277 
L 156.067875 88.050277 
L 156.067875 86.37137 
L 158.958558 86.37137 
L 158.958558 85.562097 
L 161.849241 85.562097 
L 161.849241 84.436379 
L 164.739923 84.436379 
L 164.739923 83.657298 
L 167.630606 83.657298 
L 167.630606 82.247052 
L 170.521289 82.247052 
L 170.521289 81.593117 
L 173.411971 81.593117 
L 173.411971 80.778721 
L 176.302654 80.778721 
L 176.302654 80.399569 
L 179.193337 80.399569 
L 179.193337 78.812783 
L 182.08402 78.812783 
L 182.08402 78.04301 
L 184.974702 78.04301 
L 184.974702 76.659256 
L 187.865385 76.659256 
L 187.865385 76.107001 
L 190.756068 76.107001 
L 190.756068 75.124887 
L 193.64675 75.124887 
L 193.64675 73.942761 
L 196.537433 73.942761 
L 196.537433 73.430799 
L 199.428116 73.430799 
L 199.428116 72.417424 
L 202.318798 72.417424 
L 202.318798 71.393536 
L 208.100164 71.319195 
L 208.100164 70.699202 
L 210.990847 70.699202 
L 210.990847 70.374406 
L 213.881529 70.374406 
L 213.881529 70.52829 
L 216.772212 70.52829 
L 216.772212 70.146136 
L 219.662895 70.146136 
L 219.662895 69.902528 
L 222.553577 69.902528 
L 222.553577 69.195464 
L 225.44426 69.195464 
L 225.44426 69.319536 
L 228.334943 69.319536 
L 228.334943 69.506906 
L 231.225625 69.506906 
L 231.225625 71.264764 
L 234.116308 71.264764 
L 234.116308 70.835805 
L 237.006991 70.835805 
L 237.006991 69.851801 
L 239.897674 69.851801 
L 239.897674 69.364447 
L 242.788356 69.364447 
L 242.788356 68.692731 
L 245.679039 68.692731 
L 245.679039 68.306009 
L 248.569722 68.306009 
L 248.569722 68.116619 
L 251.460404 68.116619 
L 251.460404 67.811379 
L 257.24177 67.863929 
L 257.24177 67.09005 
L 260.132452 67.09005 
L 260.132452 68.750065 
L 263.023135 68.750065 
L 263.023135 68.914806 
L 265.913818 68.914806 
L 265.913818 68.528568 
L 271.695183 68.446003 
L 271.695183 69.041699 
L 274.585866 69.041699 
L 274.585866 70.618842 
L 277.476549 70.618842 
L 277.476549 71.237658 
L 280.367231 71.237658 
L 280.367231 71.700518 
L 283.257914 71.700518 
L 283.257914 72.279356 
L 286.148597 72.279356 
L 286.148597 72.579445 
L 289.039279 72.579445 
L 289.039279 93.787823 
L 291.929962 93.787823 
L 291.929962 96.753681 
L 294.820645 96.753681 
L 294.820645 98.026472 
L 297.711328 98.026472 
L 297.711328 97.758816 
L 300.60201 97.758816 
L 300.60201 97.294144 
L 303.492693 97.294144 
L 303.492693 97.094264 
L 306.383376 97.094264 
L 306.383376 95.203723 
L 309.274058 95.203723 
L 309.274058 95.708901 
L 312.164741 95.708901 
L 312.164741 116.932185 
L 315.055424 116.932185 
L 315.055424 189.39952 
L 315.055424 189.39952 
" style="fill:none;stroke:#bfbbd9;stroke-linejoin:miter;"/>
   </g>
   <g id="patch_6">
    <path clip-path="url(#pd81f853db2)" d="M 144.505144 189.39952 
L 144.505144 95.327678 
L 147.395827 95.327678 
L 147.395827 95.453167 
L 150.28651 95.453167 
L 150.28651 93.198117 
L 153.177193 93.198117 
L 153.177193 91.467365 
L 158.958558 91.552965 
L 158.958558 90.212818 
L 161.849241 90.212818 
L 161.849241 88.464358 
L 164.739923 88.464358 
L 164.739923 88.338349 
L 167.630606 88.338349 
L 167.630606 87.101952 
L 170.521289 87.101952 
L 170.521289 86.756837 
L 173.411971 86.756837 
L 173.411971 85.738233 
L 176.302654 85.738233 
L 176.302654 84.436379 
L 179.193337 84.436379 
L 179.193337 83.71006 
L 182.08402 83.71006 
L 182.08402 83.270092 
L 184.974702 83.270092 
L 184.974702 82.144533 
L 187.865385 82.144533 
L 187.865385 81.328256 
L 190.756068 81.328256 
L 190.756068 79.654668 
L 193.64675 79.654668 
L 193.64675 78.985619 
L 196.537433 78.985619 
L 196.537433 78.845478 
L 199.428116 78.845478 
L 199.428116 77.132078 
L 202.318798 77.132078 
L 202.318798 78.829117 
L 205.209481 78.829117 
L 205.209481 78.187757 
L 208.100164 78.187757 
L 208.100164 76.892912 
L 210.990847 76.892912 
L 210.990847 76.379371 
L 213.881529 76.379371 
L 213.881529 74.96727 
L 216.772212 74.96727 
L 216.772212 74.439435 
L 219.662895 74.439435 
L 219.662895 73.837281 
L 222.553577 73.837281 
L 222.553577 73.058473 
L 225.44426 73.058473 
L 225.44426 72.382731 
L 228.334943 72.382731 
L 228.334943 71.559828 
L 231.225625 71.559828 
L 231.225625 70.739622 
L 234.116308 70.739622 
L 234.116308 102.442151 
L 237.006991 102.442151 
L 237.006991 189.39952 
L 237.006991 189.39952 
" style="fill:none;stroke:#fa8174;stroke-linejoin:miter;"/>
   </g>
   <g id="patch_7">
    <path d="M 43.33125 151.088583 
L 43.33125 10.95 
" style="fill:none;stroke:#ffffff;stroke-linecap:square;stroke-linejoin:miter;stroke-width:0.8;"/>
   </g>
   <g id="patch_8">
    <path d="M 332.39952 151.088583 
L 332.39952 10.95 
" style="fill:none;stroke:#ffffff;stroke-linecap:square;stroke-linejoin:miter;stroke-width:0.8;"/>
   </g>
   <g id="patch_9">
    <path d="M 43.33125 151.088583 
L 332.39952 151.088583 
" style="fill:none;stroke:#ffffff;stroke-linecap:square;stroke-linejoin:miter;stroke-width:0.8;"/>
   </g>
   <g id="patch_10">
    <path d="M 43.33125 10.95 
L 332.39952 10.95 
" style="fill:none;stroke:#ffffff;stroke-linecap:square;stroke-linejoin:miter;stroke-width:0.8;"/>
   </g>
   <g id="legend_1">
    <g id="patch_11">
     <path d="M 50.33125 77.075 
L 147.928125 77.075 
Q 149.928125 77.075 149.928125 75.075 
L 149.928125 17.95 
Q 149.928125 15.95 147.928125 15.95 
L 50.33125 15.95 
Q 48.33125 15.95 48.33125 17.95 
L 48.33125 75.075 
Q 48.33125 77.075 50.33125 77.075 
z
" style="opacity:0.8;stroke:#cccccc;stroke-linejoin:miter;"/>
    </g>
    <g id="patch_12">
     <path d="M 52.33125 27.45 
L 72.33125 27.45 
L 72.33125 20.45 
L 52.33125 20.45 
z
" style="fill:none;stroke:#8dd3c7;stroke-linejoin:miter;"/>
    </g>
    <g id="text_15">
     <!-- GALAH -->
     <g style="fill:#ffffff;" transform="translate(80.33125 27.45)scale(0.1 -0.1)">
      <defs>
       <path d="M 3888 597 
Q 3656 266 3242 101 
Q 2828 -63 2278 -63 
Q 1722 -63 1290 198 
Q 859 459 623 940 
Q 388 1422 381 2056 
L 381 2453 
Q 381 3481 861 4047 
Q 1341 4613 2209 4613 
Q 2922 4613 3356 4248 
Q 3791 3884 3888 3216 
L 3288 3216 
Q 3119 4119 2213 4119 
Q 1609 4119 1298 3695 
Q 988 3272 984 2469 
L 984 2097 
Q 984 1331 1334 879 
Q 1684 428 2281 428 
Q 2619 428 2872 503 
Q 3125 578 3291 756 
L 3291 1778 
L 2238 1778 
L 2238 2266 
L 3888 2266 
L 3888 597 
z
" id="Roboto-Regular-47" transform="scale(0.015625)"/>
       <path d="M 3041 1188 
L 1134 1188 
L 706 0 
L 88 0 
L 1825 4550 
L 2350 4550 
L 4091 0 
L 3475 0 
L 3041 1188 
z
M 1316 1681 
L 2863 1681 
L 2088 3809 
L 1316 1681 
z
" id="Roboto-Regular-41" transform="scale(0.015625)"/>
       <path d="M 1131 491 
L 3288 491 
L 3288 0 
L 528 0 
L 528 4550 
L 1131 4550 
L 1131 491 
z
" id="Roboto-Regular-4c" transform="scale(0.015625)"/>
       <path d="M 4025 0 
L 3422 0 
L 3422 2103 
L 1128 2103 
L 1128 0 
L 528 0 
L 528 4550 
L 1128 4550 
L 1128 2594 
L 3422 2594 
L 3422 4550 
L 4025 4550 
L 4025 0 
z
" id="Roboto-Regular-48" transform="scale(0.015625)"/>
      </defs>
      <use xlink:href="#Roboto-Regular-47"/>
      <use x="68.115234" xlink:href="#Roboto-Regular-41"/>
      <use x="133.349609" xlink:href="#Roboto-Regular-4c"/>
      <use x="187.158203" xlink:href="#Roboto-Regular-41"/>
      <use x="252.392578" xlink:href="#Roboto-Regular-48"/>
     </g>
    </g>
    <g id="patch_13">
     <path d="M 52.33125 41.98125 
L 72.33125 41.98125 
L 72.33125 34.98125 
L 52.33125 34.98125 
z
" style="fill:none;stroke:#feffb3;stroke-linejoin:miter;"/>
    </g>
    <g id="text_16">
     <!-- GALAH-faint -->
     <g style="fill:#ffffff;" transform="translate(80.33125 41.98125)scale(0.1 -0.1)">
      <defs>
       <path d="M 1641 1697 
L 116 1697 
L 116 2169 
L 1641 2169 
L 1641 1697 
z
" id="Roboto-Regular-2d" transform="scale(0.015625)"/>
      </defs>
      <use xlink:href="#Roboto-Regular-47"/>
      <use x="68.115234" xlink:href="#Roboto-Regular-41"/>
      <use x="133.349609" xlink:href="#Roboto-Regular-4c"/>
      <use x="187.158203" xlink:href="#Roboto-Regular-41"/>
      <use x="252.392578" xlink:href="#Roboto-Regular-48"/>
      <use x="323.681641" xlink:href="#Roboto-Regular-2d"/>
      <use x="351.269531" xlink:href="#Roboto-Regular-66"/>
      <use x="385.986328" xlink:href="#Roboto-Regular-61"/>
      <use x="440.380859" xlink:href="#Roboto-Regular-69"/>
      <use x="464.648438" xlink:href="#Roboto-Regular-6e"/>
      <use x="519.824219" xlink:href="#Roboto-Regular-74"/>
     </g>
    </g>
    <g id="patch_14">
     <path d="M 52.33125 56.5125 
L 72.33125 56.5125 
L 72.33125 49.5125 
L 52.33125 49.5125 
z
" style="fill:none;stroke:#bfbbd9;stroke-linejoin:miter;"/>
    </g>
    <g id="text_17">
     <!-- K2-HERMES -->
     <g style="fill:#ffffff;" transform="translate(80.33125 56.5125)scale(0.1 -0.1)">
      <defs>
       <path d="M 1684 2116 
L 1128 1538 
L 1128 0 
L 528 0 
L 528 4550 
L 1128 4550 
L 1128 2300 
L 3150 4550 
L 3875 4550 
L 2084 2541 
L 4016 0 
L 3297 0 
L 1684 2116 
z
" id="Roboto-Regular-4b" transform="scale(0.015625)"/>
       <path d="M 3100 2103 
L 1128 2103 
L 1128 491 
L 3419 491 
L 3419 0 
L 528 0 
L 528 4550 
L 3388 4550 
L 3388 4056 
L 1128 4056 
L 1128 2594 
L 3100 2594 
L 3100 2103 
z
" id="Roboto-Regular-45" transform="scale(0.015625)"/>
       <path d="M 2197 1841 
L 1128 1841 
L 1128 0 
L 525 0 
L 525 4550 
L 2031 4550 
Q 2800 4550 3214 4200 
Q 3628 3850 3628 3181 
Q 3628 2756 3398 2440 
Q 3169 2125 2759 1969 
L 3828 38 
L 3828 0 
L 3184 0 
L 2197 1841 
z
M 1128 2331 
L 2050 2331 
Q 2497 2331 2761 2562 
Q 3025 2794 3025 3181 
Q 3025 3603 2773 3828 
Q 2522 4053 2047 4056 
L 1128 4056 
L 1128 2331 
z
" id="Roboto-Regular-52" transform="scale(0.015625)"/>
       <path d="M 1303 4550 
L 2791 838 
L 4278 4550 
L 5056 4550 
L 5056 0 
L 4456 0 
L 4456 1772 
L 4513 3684 
L 3019 0 
L 2559 0 
L 1069 3675 
L 1128 1772 
L 1128 0 
L 528 0 
L 528 4550 
L 1303 4550 
z
" id="Roboto-Regular-4d" transform="scale(0.015625)"/>
       <path d="M 1869 2028 
Q 1097 2250 745 2573 
Q 394 2897 394 3372 
Q 394 3909 823 4261 
Q 1253 4613 1941 4613 
Q 2409 4613 2776 4431 
Q 3144 4250 3345 3931 
Q 3547 3613 3547 3234 
L 2944 3234 
Q 2944 3647 2681 3883 
Q 2419 4119 1941 4119 
Q 1497 4119 1248 3923 
Q 1000 3728 1000 3381 
Q 1000 3103 1236 2911 
Q 1472 2719 2039 2559 
Q 2606 2400 2926 2208 
Q 3247 2016 3401 1759 
Q 3556 1503 3556 1156 
Q 3556 603 3125 270 
Q 2694 -63 1972 -63 
Q 1503 -63 1097 117 
Q 691 297 470 609 
Q 250 922 250 1319 
L 853 1319 
Q 853 906 1158 667 
Q 1463 428 1972 428 
Q 2447 428 2700 622 
Q 2953 816 2953 1150 
Q 2953 1484 2718 1667 
Q 2484 1850 1869 2028 
z
" id="Roboto-Regular-53" transform="scale(0.015625)"/>
      </defs>
      <use xlink:href="#Roboto-Regular-4b"/>
      <use x="62.695312" xlink:href="#Roboto-Regular-32"/>
      <use x="118.847656" xlink:href="#Roboto-Regular-2d"/>
      <use x="146.435547" xlink:href="#Roboto-Regular-48"/>
      <use x="217.724609" xlink:href="#Roboto-Regular-45"/>
      <use x="274.560547" xlink:href="#Roboto-Regular-52"/>
      <use x="336.132812" xlink:href="#Roboto-Regular-4d"/>
      <use x="423.4375" xlink:href="#Roboto-Regular-45"/>
      <use x="480.273438" xlink:href="#Roboto-Regular-53"/>
     </g>
    </g>
    <g id="patch_15">
     <path d="M 52.33125 71.04375 
L 72.33125 71.04375 
L 72.33125 64.04375 
L 52.33125 64.04375 
z
" style="fill:none;stroke:#fa8174;stroke-linejoin:miter;"/>
    </g>
    <g id="text_18">
     <!-- TESS-HERMES -->
     <g style="fill:#ffffff;" transform="translate(80.33125 71.04375)scale(0.1 -0.1)">
      <defs>
       <path d="M 3672 4056 
L 2209 4056 
L 2209 0 
L 1613 0 
L 1613 4056 
L 153 4056 
L 153 4550 
L 3672 4550 
L 3672 4056 
z
" id="Roboto-Regular-54" transform="scale(0.015625)"/>
      </defs>
      <use xlink:href="#Roboto-Regular-54"/>
      <use x="59.667969" xlink:href="#Roboto-Regular-45"/>
      <use x="116.503906" xlink:href="#Roboto-Regular-53"/>
      <use x="175.830078" xlink:href="#Roboto-Regular-53"/>
      <use x="235.15625" xlink:href="#Roboto-Regular-2d"/>
      <use x="262.744141" xlink:href="#Roboto-Regular-48"/>
      <use x="334.033203" xlink:href="#Roboto-Regular-45"/>
      <use x="390.869141" xlink:href="#Roboto-Regular-52"/>
      <use x="452.441406" xlink:href="#Roboto-Regular-4d"/>
      <use x="539.746094" xlink:href="#Roboto-Regular-45"/>
      <use x="596.582031" xlink:href="#Roboto-Regular-53"/>
     </g>
    </g>
   </g>
  </g>
 </g>
 <defs>
  <clipPath id="pd81f853db2">
   <rect height="140.138582" width="289.06827" x="43.33125" y="10.95"/>
  </clipPath>
 </defs>
</svg>
