<?xml version="1.0" encoding="utf-8" standalone="no"?>
<!DOCTYPE svg PUBLIC "-//W3C//DTD SVG 1.1//EN"
  "http://www.w3.org/Graphics/SVG/1.1/DTD/svg11.dtd">
<!-- Created with matplotlib (https://matplotlib.org/) -->
<svg height="188.39952pt" version="1.1" viewBox="0 0 339.59952 188.39952" width="339.59952pt" xmlns="http://www.w3.org/2000/svg" xmlns:xlink="http://www.w3.org/1999/xlink">
 <metadata>
  <rdf:RDF xmlns:cc="http://creativecommons.org/ns#" xmlns:dc="http://purl.org/dc/elements/1.1/" xmlns:rdf="http://www.w3.org/1999/02/22-rdf-syntax-ns#">
   <cc:Work>
    <dc:type rdf:resource="http://purl.org/dc/dcmitype/StillImage"/>
    <dc:date>2021-07-28T09:57:09.421108</dc:date>
    <dc:format>image/svg+xml</dc:format>
    <dc:creator>
     <cc:Agent>
      <dc:title>Matplotlib v3.3.4, https://matplotlib.org/</dc:title>
     </cc:Agent>
    </dc:creator>
   </cc:Work>
  </rdf:RDF>
 </metadata>
 <defs>
  <style type="text/css">*{stroke-linecap:butt;stroke-linejoin:round;}</style>
 </defs>
 <g id="figure_1">
  <g id="patch_1">
   <path d="M 0 188.39952 
L 339.59952 188.39952 
L 339.59952 0 
L 0 0 
z
"/>
  </g>
  <g id="axes_1">
   <g id="patch_2">
    <path d="M 43.33125 151.088583 
L 332.39952 151.088583 
L 332.39952 10.95 
L 43.33125 10.95 
z
"/>
   </g>
   <g id="matplotlib.axis_1">
    <g id="xtick_1">
     <g id="line2d_1">
      <defs>
       <path d="M 0 0 
L 0 3.5 
" id="m8c9ac4d622" style="stroke:#ffffff;stroke-width:0.8;"/>
      </defs>
      <g>
       <use style="fill:#ffffff;stroke:#ffffff;stroke-width:0.8;" x="86.691491" xlink:href="#m8c9ac4d622" y="151.088583"/>
      </g>
     </g>
     <g id="text_1">
      <!-- 8 -->
      <g style="fill:#ffffff;" transform="translate(83.883678 165.588583)scale(0.1 -0.1)">
       <defs>
        <path d="M 49.03125 52.546875 
Q 49.03125 47.21875 46.21875 43.0625 
Q 43.40625 38.921875 38.625 36.578125 
Q 44.1875 34.1875 47.4375 29.59375 
Q 50.6875 25 50.6875 19.1875 
Q 50.6875 9.96875 44.453125 4.484375 
Q 38.234375 -0.984375 28.078125 -0.984375 
Q 17.828125 -0.984375 11.640625 4.515625 
Q 5.46875 10.015625 5.46875 19.1875 
Q 5.46875 24.953125 8.609375 29.59375 
Q 11.765625 34.234375 17.328125 36.625 
Q 12.59375 38.96875 9.859375 43.109375 
Q 7.125 47.265625 7.125 52.546875 
Q 7.125 61.53125 12.890625 66.796875 
Q 18.65625 72.078125 28.078125 72.078125 
Q 37.453125 72.078125 43.234375 66.796875 
Q 49.03125 61.53125 49.03125 52.546875 
z
M 41.65625 19.390625 
Q 41.65625 25.34375 37.859375 29.09375 
Q 34.078125 32.859375 27.96875 32.859375 
Q 21.875 32.859375 18.1875 29.140625 
Q 14.5 25.4375 14.5 19.375 
Q 14.5 13.328125 18.09375 9.859375 
Q 21.6875 6.390625 28.078125 6.390625 
Q 34.421875 6.390625 38.03125 9.875 
Q 41.65625 13.375 41.65625 19.390625 
z
M 28.078125 64.65625 
Q 22.75 64.65625 19.453125 61.359375 
Q 16.15625 58.0625 16.15625 52.390625 
Q 16.15625 46.96875 19.40625 43.625 
Q 22.65625 40.28125 28.078125 40.28125 
Q 33.5 40.28125 36.734375 43.625 
Q 39.984375 46.96875 39.984375 52.390625 
Q 39.984375 57.8125 36.609375 61.234375 
Q 33.25 64.65625 28.078125 64.65625 
z
" id="Roboto-Regular-56"/>
       </defs>
       <use xlink:href="#Roboto-Regular-56"/>
      </g>
     </g>
    </g>
    <g id="xtick_2">
     <g id="line2d_2">
      <g>
       <use style="fill:#ffffff;stroke:#ffffff;stroke-width:0.8;" x="144.505145" xlink:href="#m8c9ac4d622" y="151.088583"/>
      </g>
     </g>
     <g id="text_2">
      <!-- 10 -->
      <g style="fill:#ffffff;" transform="translate(138.88952 165.588583)scale(0.1 -0.1)">
       <defs>
        <path d="M 35.59375 0 
L 26.515625 0 
L 26.515625 60.203125 
L 8.296875 53.515625 
L 8.296875 61.71875 
L 34.1875 71.4375 
L 35.59375 71.4375 
z
" id="Roboto-Regular-49"/>
        <path d="M 50.484375 30.328125 
Q 50.484375 14.453125 45.0625 6.734375 
Q 39.65625 -0.984375 28.125 -0.984375 
Q 16.75 -0.984375 11.28125 6.5625 
Q 5.8125 14.109375 5.609375 29.109375 
L 5.609375 41.15625 
Q 5.609375 56.84375 11.03125 64.453125 
Q 16.453125 72.078125 28.03125 72.078125 
Q 39.5 72.078125 44.921875 64.71875 
Q 50.34375 57.375 50.484375 42.046875 
z
M 41.453125 42.671875 
Q 41.453125 54.15625 38.234375 59.40625 
Q 35.015625 64.65625 28.03125 64.65625 
Q 21.09375 64.65625 17.921875 59.421875 
Q 14.75 54.203125 14.65625 43.359375 
L 14.65625 28.90625 
Q 14.65625 17.390625 18 11.890625 
Q 21.34375 6.390625 28.125 6.390625 
Q 34.8125 6.390625 38.0625 11.5625 
Q 41.3125 16.75 41.453125 27.875 
z
" id="Roboto-Regular-48"/>
       </defs>
       <use xlink:href="#Roboto-Regular-49"/>
       <use x="56.152344" xlink:href="#Roboto-Regular-48"/>
      </g>
     </g>
    </g>
    <g id="xtick_3">
     <g id="line2d_3">
      <g>
       <use style="fill:#ffffff;stroke:#ffffff;stroke-width:0.8;" x="202.318799" xlink:href="#m8c9ac4d622" y="151.088583"/>
      </g>
     </g>
     <g id="text_3">
      <!-- 12 -->
      <g style="fill:#ffffff;" transform="translate(196.703174 165.588583)scale(0.1 -0.1)">
       <defs>
        <path d="M 52.484375 0 
L 5.90625 0 
L 5.90625 6.5 
L 30.515625 33.84375 
Q 35.984375 40.046875 38.0625 43.921875 
Q 40.140625 47.796875 40.140625 51.953125 
Q 40.140625 57.515625 36.765625 61.078125 
Q 33.40625 64.65625 27.78125 64.65625 
Q 21.046875 64.65625 17.3125 60.8125 
Q 13.578125 56.984375 13.578125 50.140625 
L 4.546875 50.140625 
Q 4.546875 59.96875 10.859375 66.015625 
Q 17.1875 72.078125 27.78125 72.078125 
Q 37.703125 72.078125 43.453125 66.875 
Q 49.21875 61.671875 49.21875 53.03125 
Q 49.21875 42.53125 35.84375 28.03125 
L 16.796875 7.375 
L 52.484375 7.375 
z
" id="Roboto-Regular-50"/>
       </defs>
       <use xlink:href="#Roboto-Regular-49"/>
       <use x="56.152344" xlink:href="#Roboto-Regular-50"/>
      </g>
     </g>
    </g>
    <g id="xtick_4">
     <g id="line2d_4">
      <g>
       <use style="fill:#ffffff;stroke:#ffffff;stroke-width:0.8;" x="260.132452" xlink:href="#m8c9ac4d622" y="151.088583"/>
      </g>
     </g>
     <g id="text_4">
      <!-- 14 -->
      <g style="fill:#ffffff;" transform="translate(254.516828 165.588583)scale(0.1 -0.1)">
       <defs>
        <path d="M 44.046875 23.875 
L 53.90625 23.875 
L 53.90625 16.5 
L 44.046875 16.5 
L 44.046875 0 
L 34.96875 0 
L 34.96875 16.5 
L 2.59375 16.5 
L 2.59375 21.828125 
L 34.421875 71.09375 
L 44.046875 71.09375 
z
M 12.84375 23.875 
L 34.96875 23.875 
L 34.96875 58.734375 
L 33.890625 56.78125 
z
" id="Roboto-Regular-52"/>
       </defs>
       <use xlink:href="#Roboto-Regular-49"/>
       <use x="56.152344" xlink:href="#Roboto-Regular-52"/>
      </g>
     </g>
    </g>
    <g id="xtick_5">
     <g id="line2d_5">
      <g>
       <use style="fill:#ffffff;stroke:#ffffff;stroke-width:0.8;" x="317.946107" xlink:href="#m8c9ac4d622" y="151.088583"/>
      </g>
     </g>
     <g id="text_5">
      <!-- 16 -->
      <g style="fill:#ffffff;" transform="translate(312.330482 165.588583)scale(0.1 -0.1)">
       <defs>
        <path d="M 41.359375 71.140625 
L 41.359375 63.484375 
L 39.703125 63.484375 
Q 29.15625 63.28125 22.90625 57.21875 
Q 16.65625 51.171875 15.671875 40.1875 
Q 21.296875 46.625 31 46.625 
Q 40.28125 46.625 45.828125 40.078125 
Q 51.375 33.546875 51.375 23.1875 
Q 51.375 12.203125 45.390625 5.609375 
Q 39.40625 -0.984375 29.34375 -0.984375 
Q 19.140625 -0.984375 12.796875 6.859375 
Q 6.453125 14.703125 6.453125 27.046875 
L 6.453125 30.515625 
Q 6.453125 50.140625 14.8125 60.515625 
Q 23.1875 70.90625 39.75 71.140625 
z
M 29.5 39.109375 
Q 24.859375 39.109375 20.953125 36.328125 
Q 17.046875 33.546875 15.53125 29.34375 
L 15.53125 26.03125 
Q 15.53125 17.234375 19.484375 11.859375 
Q 23.4375 6.5 29.34375 6.5 
Q 35.453125 6.5 38.9375 10.984375 
Q 42.4375 15.484375 42.4375 22.75 
Q 42.4375 30.078125 38.890625 34.59375 
Q 35.359375 39.109375 29.5 39.109375 
z
" id="Roboto-Regular-54"/>
       </defs>
       <use xlink:href="#Roboto-Regular-49"/>
       <use x="56.152344" xlink:href="#Roboto-Regular-54"/>
      </g>
     </g>
    </g>
    <g id="text_6">
     <!-- V magnitude -->
     <g style="fill:#ffffff;" transform="translate(159.709135 179.119833)scale(0.1 -0.1)">
      <defs>
       <path d="M 31.78125 12.453125 
L 52.09375 71.09375 
L 62.359375 71.09375 
L 35.984375 0 
L 27.6875 0 
L 1.375 71.09375 
L 11.578125 71.09375 
z
" id="Roboto-Regular-86"/>
       <path id="Roboto-Regular-32"/>
       <path d="M 15.328125 52.828125 
L 15.578125 46.96875 
Q 21.390625 53.8125 31.25 53.8125 
Q 42.328125 53.8125 46.34375 45.3125 
Q 48.96875 49.125 53.1875 51.46875 
Q 57.421875 53.8125 63.1875 53.8125 
Q 80.5625 53.8125 80.859375 35.40625 
L 80.859375 0 
L 71.828125 0 
L 71.828125 34.859375 
Q 71.828125 40.53125 69.234375 43.328125 
Q 66.65625 46.140625 60.546875 46.140625 
Q 55.515625 46.140625 52.1875 43.140625 
Q 48.875 40.140625 48.34375 35.0625 
L 48.34375 0 
L 39.265625 0 
L 39.265625 34.625 
Q 39.265625 46.140625 27.984375 46.140625 
Q 19.09375 46.140625 15.828125 38.578125 
L 15.828125 0 
L 6.78125 0 
L 6.78125 52.828125 
z
" id="Roboto-Regular-109"/>
       <path d="M 39.453125 0 
Q 38.671875 1.5625 38.1875 5.5625 
Q 31.890625 -0.984375 23.140625 -0.984375 
Q 15.328125 -0.984375 10.328125 3.4375 
Q 5.328125 7.859375 5.328125 14.65625 
Q 5.328125 22.90625 11.59375 27.46875 
Q 17.875 32.03125 29.25 32.03125 
L 38.03125 32.03125 
L 38.03125 36.1875 
Q 38.03125 40.921875 35.203125 43.71875 
Q 32.375 46.53125 26.859375 46.53125 
Q 22.015625 46.53125 18.75 44.09375 
Q 15.484375 41.65625 15.484375 38.1875 
L 6.390625 38.1875 
Q 6.390625 42.140625 9.203125 45.828125 
Q 12.015625 49.515625 16.8125 51.65625 
Q 21.625 53.8125 27.390625 53.8125 
Q 36.53125 53.8125 41.703125 49.234375 
Q 46.875 44.671875 47.078125 36.671875 
L 47.078125 12.359375 
Q 47.078125 5.078125 48.921875 0.78125 
L 48.921875 0 
z
M 24.46875 6.890625 
Q 28.71875 6.890625 32.515625 9.078125 
Q 36.328125 11.28125 38.03125 14.796875 
L 38.03125 25.640625 
L 30.953125 25.640625 
Q 14.359375 25.640625 14.359375 15.921875 
Q 14.359375 11.671875 17.1875 9.28125 
Q 20.015625 6.890625 24.46875 6.890625 
z
" id="Roboto-Regular-97"/>
       <path d="M 4.6875 26.859375 
Q 4.6875 39.203125 10.390625 46.5 
Q 16.109375 53.8125 25.53125 53.8125 
Q 35.203125 53.8125 40.625 46.96875 
L 41.0625 52.828125 
L 49.3125 52.828125 
L 49.3125 1.265625 
Q 49.3125 -8.984375 43.234375 -14.890625 
Q 37.15625 -20.796875 26.90625 -20.796875 
Q 21.1875 -20.796875 15.71875 -18.359375 
Q 10.25 -15.921875 7.375 -11.671875 
L 12.0625 -6.25 
Q 17.875 -13.421875 26.265625 -13.421875 
Q 32.859375 -13.421875 36.546875 -9.703125 
Q 40.234375 -6 40.234375 0.734375 
L 40.234375 5.28125 
Q 34.8125 -0.984375 25.4375 -0.984375 
Q 16.15625 -0.984375 10.421875 6.484375 
Q 4.6875 13.96875 4.6875 26.859375 
z
M 13.765625 25.828125 
Q 13.765625 16.890625 17.421875 11.78125 
Q 21.09375 6.6875 27.6875 6.6875 
Q 36.234375 6.6875 40.234375 14.453125 
L 40.234375 38.578125 
Q 36.078125 46.140625 27.78125 46.140625 
Q 21.1875 46.140625 17.46875 41.015625 
Q 13.765625 35.890625 13.765625 25.828125 
z
" id="Roboto-Regular-103"/>
       <path d="M 15.375 52.828125 
L 15.671875 46.1875 
Q 21.734375 53.8125 31.5 53.8125 
Q 48.25 53.8125 48.390625 34.90625 
L 48.390625 0 
L 39.359375 0 
L 39.359375 34.96875 
Q 39.3125 40.671875 36.75 43.40625 
Q 34.1875 46.140625 28.765625 46.140625 
Q 24.359375 46.140625 21.03125 43.796875 
Q 17.71875 41.453125 15.875 37.640625 
L 15.875 0 
L 6.84375 0 
L 6.84375 52.828125 
z
" id="Roboto-Regular-110"/>
       <path d="M 16.65625 0 
L 7.625 0 
L 7.625 52.828125 
L 16.65625 52.828125 
z
M 6.890625 66.84375 
Q 6.890625 69.046875 8.234375 70.5625 
Q 9.578125 72.078125 12.203125 72.078125 
Q 14.84375 72.078125 16.203125 70.5625 
Q 17.578125 69.046875 17.578125 66.84375 
Q 17.578125 64.65625 16.203125 63.1875 
Q 14.84375 61.71875 12.203125 61.71875 
Q 9.578125 61.71875 8.234375 63.1875 
Q 6.890625 64.65625 6.890625 66.84375 
z
" id="Roboto-Regular-105"/>
       <path d="M 19.09375 65.625 
L 19.09375 52.828125 
L 28.953125 52.828125 
L 28.953125 45.84375 
L 19.09375 45.84375 
L 19.09375 13.09375 
Q 19.09375 9.90625 20.40625 8.3125 
Q 21.734375 6.734375 24.90625 6.734375 
Q 26.46875 6.734375 29.203125 7.328125 
L 29.203125 0 
Q 25.640625 -0.984375 22.265625 -0.984375 
Q 16.21875 -0.984375 13.140625 2.671875 
Q 10.0625 6.34375 10.0625 13.09375 
L 10.0625 45.84375 
L 0.4375 45.84375 
L 0.4375 52.828125 
L 10.0625 52.828125 
L 10.0625 65.625 
z
" id="Roboto-Regular-116"/>
       <path d="M 39.453125 5.21875 
Q 34.1875 -0.984375 23.96875 -0.984375 
Q 15.53125 -0.984375 11.109375 3.921875 
Q 6.6875 8.84375 6.640625 18.453125 
L 6.640625 52.828125 
L 15.671875 52.828125 
L 15.671875 18.703125 
Q 15.671875 6.6875 25.4375 6.6875 
Q 35.796875 6.6875 39.203125 14.40625 
L 39.203125 52.828125 
L 48.25 52.828125 
L 48.25 0 
L 39.65625 0 
z
" id="Roboto-Regular-117"/>
       <path d="M 4.640625 26.859375 
Q 4.640625 39.015625 10.390625 46.40625 
Q 16.15625 53.8125 25.484375 53.8125 
Q 34.765625 53.8125 40.1875 47.46875 
L 40.1875 75 
L 49.21875 75 
L 49.21875 0 
L 40.921875 0 
L 40.484375 5.671875 
Q 35.0625 -0.984375 25.390625 -0.984375 
Q 16.21875 -0.984375 10.421875 6.53125 
Q 4.640625 14.0625 4.640625 26.171875 
z
M 13.671875 25.828125 
Q 13.671875 16.84375 17.375 11.765625 
Q 21.09375 6.6875 27.640625 6.6875 
Q 36.234375 6.6875 40.1875 14.40625 
L 40.1875 38.671875 
Q 36.140625 46.140625 27.734375 46.140625 
Q 21.09375 46.140625 17.375 41.015625 
Q 13.671875 35.890625 13.671875 25.828125 
z
" id="Roboto-Regular-100"/>
       <path d="M 28.765625 -0.984375 
Q 18.015625 -0.984375 11.28125 6.078125 
Q 4.546875 13.140625 4.546875 24.953125 
L 4.546875 26.609375 
Q 4.546875 34.46875 7.546875 40.640625 
Q 10.546875 46.828125 15.9375 50.3125 
Q 21.34375 53.8125 27.640625 53.8125 
Q 37.9375 53.8125 43.640625 47.015625 
Q 49.359375 40.234375 49.359375 27.59375 
L 49.359375 23.828125 
L 13.578125 23.828125 
Q 13.765625 16.015625 18.140625 11.203125 
Q 22.515625 6.390625 29.25 6.390625 
Q 34.03125 6.390625 37.34375 8.34375 
Q 40.671875 10.296875 43.171875 13.53125 
L 48.6875 9.234375 
Q 42.046875 -0.984375 28.765625 -0.984375 
z
M 27.640625 46.390625 
Q 22.171875 46.390625 18.453125 42.40625 
Q 14.75 38.421875 13.875 31.25 
L 40.328125 31.25 
L 40.328125 31.9375 
Q 39.9375 38.8125 36.609375 42.59375 
Q 33.296875 46.390625 27.640625 46.390625 
z
" id="Roboto-Regular-101"/>
      </defs>
      <use xlink:href="#Roboto-Regular-86"/>
      <use x="63.623047" xlink:href="#Roboto-Regular-32"/>
      <use x="88.378906" xlink:href="#Roboto-Regular-109"/>
      <use x="176.025391" xlink:href="#Roboto-Regular-97"/>
      <use x="230.419922" xlink:href="#Roboto-Regular-103"/>
      <use x="286.523438" xlink:href="#Roboto-Regular-110"/>
      <use x="341.699219" xlink:href="#Roboto-Regular-105"/>
      <use x="365.966797" xlink:href="#Roboto-Regular-116"/>
      <use x="398.632812" xlink:href="#Roboto-Regular-117"/>
      <use x="453.759766" xlink:href="#Roboto-Regular-100"/>
      <use x="510.15625" xlink:href="#Roboto-Regular-101"/>
     </g>
    </g>
   </g>
   <g id="matplotlib.axis_2">
    <g id="ytick_1">
     <g id="line2d_6">
      <defs>
       <path d="M 0 0 
L -3.5 0 
" id="m100fd4266e" style="stroke:#ffffff;stroke-width:0.8;"/>
      </defs>
      <g>
       <use style="fill:#ffffff;stroke:#ffffff;stroke-width:0.8;" x="43.33125" xlink:href="#m100fd4266e" y="151.088583"/>
      </g>
     </g>
     <g id="text_7">
      <!-- $\mathdefault{10^{0}}$ -->
      <g style="fill:#ffffff;" transform="translate(20.73125 154.838583)scale(0.1 -0.1)">
       <use transform="translate(0 0.565625)" xlink:href="#Roboto-Regular-49"/>
       <use transform="translate(56.152344 0.565625)" xlink:href="#Roboto-Regular-48"/>
       <use transform="translate(113.22918 37.545313)scale(0.7)" xlink:href="#Roboto-Regular-48"/>
      </g>
     </g>
    </g>
    <g id="ytick_2">
     <g id="line2d_7">
      <g>
       <use style="fill:#ffffff;stroke:#ffffff;stroke-width:0.8;" x="43.33125" xlink:href="#m100fd4266e" y="127.732152"/>
      </g>
     </g>
     <g id="text_8">
      <!-- $\mathdefault{10^{1}}$ -->
      <g style="fill:#ffffff;" transform="translate(20.73125 131.482152)scale(0.1 -0.1)">
       <use transform="translate(0 0.014063)" xlink:href="#Roboto-Regular-49"/>
       <use transform="translate(56.152344 0.014063)" xlink:href="#Roboto-Regular-48"/>
       <use transform="translate(113.22918 36.99375)scale(0.7)" xlink:href="#Roboto-Regular-49"/>
      </g>
     </g>
    </g>
    <g id="ytick_3">
     <g id="line2d_8">
      <g>
       <use style="fill:#ffffff;stroke:#ffffff;stroke-width:0.8;" x="43.33125" xlink:href="#m100fd4266e" y="104.375722"/>
      </g>
     </g>
     <g id="text_9">
      <!-- $\mathdefault{10^{2}}$ -->
      <g style="fill:#ffffff;" transform="translate(20.73125 108.125722)scale(0.1 -0.1)">
       <use transform="translate(0 0.565625)" xlink:href="#Roboto-Regular-49"/>
       <use transform="translate(56.152344 0.565625)" xlink:href="#Roboto-Regular-48"/>
       <use transform="translate(113.22918 37.545313)scale(0.7)" xlink:href="#Roboto-Regular-50"/>
      </g>
     </g>
    </g>
    <g id="ytick_4">
     <g id="line2d_9">
      <g>
       <use style="fill:#ffffff;stroke:#ffffff;stroke-width:0.8;" x="43.33125" xlink:href="#m100fd4266e" y="81.019291"/>
      </g>
     </g>
     <g id="text_10">
      <!-- $\mathdefault{10^{3}}$ -->
      <g style="fill:#ffffff;" transform="translate(20.73125 84.769291)scale(0.1 -0.1)">
       <defs>
        <path d="M 19.046875 39.9375 
L 25.828125 39.9375 
Q 32.234375 40.046875 35.890625 43.3125 
Q 39.546875 46.578125 39.546875 52.15625 
Q 39.546875 64.65625 27.09375 64.65625 
Q 21.234375 64.65625 17.75 61.296875 
Q 14.265625 57.953125 14.265625 52.4375 
L 5.21875 52.4375 
Q 5.21875 60.890625 11.390625 66.484375 
Q 17.578125 72.078125 27.09375 72.078125 
Q 37.15625 72.078125 42.859375 66.75 
Q 48.578125 61.421875 48.578125 51.953125 
Q 48.578125 47.3125 45.578125 42.96875 
Q 42.578125 38.625 37.40625 36.46875 
Q 43.265625 34.625 46.453125 30.328125 
Q 49.65625 26.03125 49.65625 19.828125 
Q 49.65625 10.25 43.40625 4.625 
Q 37.15625 -0.984375 27.140625 -0.984375 
Q 17.140625 -0.984375 10.859375 4.4375 
Q 4.59375 9.859375 4.59375 18.75 
L 13.671875 18.75 
Q 13.671875 13.140625 17.328125 9.765625 
Q 21 6.390625 27.15625 6.390625 
Q 33.6875 6.390625 37.15625 9.8125 
Q 40.625 13.234375 40.625 19.625 
Q 40.625 25.828125 36.8125 29.140625 
Q 33.015625 32.46875 25.828125 32.5625 
L 19.046875 32.5625 
z
" id="Roboto-Regular-51"/>
       </defs>
       <use transform="translate(0 0.565625)" xlink:href="#Roboto-Regular-49"/>
       <use transform="translate(56.152344 0.565625)" xlink:href="#Roboto-Regular-48"/>
       <use transform="translate(113.22918 37.545313)scale(0.7)" xlink:href="#Roboto-Regular-51"/>
      </g>
     </g>
    </g>
    <g id="ytick_5">
     <g id="line2d_10">
      <g>
       <use style="fill:#ffffff;stroke:#ffffff;stroke-width:0.8;" x="43.33125" xlink:href="#m100fd4266e" y="57.662861"/>
      </g>
     </g>
     <g id="text_11">
      <!-- $\mathdefault{10^{4}}$ -->
      <g style="fill:#ffffff;" transform="translate(20.73125 61.412861)scale(0.1 -0.1)">
       <use transform="translate(0 0.254688)" xlink:href="#Roboto-Regular-49"/>
       <use transform="translate(56.152344 0.254688)" xlink:href="#Roboto-Regular-48"/>
       <use transform="translate(113.22918 37.234375)scale(0.7)" xlink:href="#Roboto-Regular-52"/>
      </g>
     </g>
    </g>
    <g id="ytick_6">
     <g id="line2d_11">
      <g>
       <use style="fill:#ffffff;stroke:#ffffff;stroke-width:0.8;" x="43.33125" xlink:href="#m100fd4266e" y="34.30643"/>
      </g>
     </g>
     <g id="text_12">
      <!-- $\mathdefault{10^{5}}$ -->
      <g style="fill:#ffffff;" transform="translate(20.73125 38.05643)scale(0.1 -0.1)">
       <defs>
        <path d="M 10.0625 35.640625 
L 13.671875 71.09375 
L 50.09375 71.09375 
L 50.09375 62.75 
L 21.34375 62.75 
L 19.1875 43.359375 
Q 24.421875 46.4375 31.0625 46.4375 
Q 40.765625 46.4375 46.484375 40.015625 
Q 52.203125 33.59375 52.203125 22.65625 
Q 52.203125 11.671875 46.265625 5.34375 
Q 40.328125 -0.984375 29.6875 -0.984375 
Q 20.265625 -0.984375 14.296875 4.234375 
Q 8.34375 9.46875 7.515625 18.703125 
L 16.0625 18.703125 
Q 16.890625 12.59375 20.40625 9.484375 
Q 23.921875 6.390625 29.6875 6.390625 
Q 35.984375 6.390625 39.578125 10.6875 
Q 43.171875 14.984375 43.171875 22.5625 
Q 43.171875 29.6875 39.28125 34 
Q 35.40625 38.328125 28.953125 38.328125 
Q 23.046875 38.328125 19.671875 35.75 
L 17.28125 33.796875 
z
" id="Roboto-Regular-53"/>
       </defs>
       <use transform="translate(0 0.254688)" xlink:href="#Roboto-Regular-49"/>
       <use transform="translate(56.152344 0.254688)" xlink:href="#Roboto-Regular-48"/>
       <use transform="translate(113.22918 37.234375)scale(0.7)" xlink:href="#Roboto-Regular-53"/>
      </g>
     </g>
    </g>
    <g id="ytick_7">
     <g id="line2d_12">
      <g>
       <use style="fill:#ffffff;stroke:#ffffff;stroke-width:0.8;" x="43.33125" xlink:href="#m100fd4266e" y="10.95"/>
      </g>
     </g>
     <g id="text_13">
      <!-- $\mathdefault{10^{6}}$ -->
      <g style="fill:#ffffff;" transform="translate(20.73125 14.7)scale(0.1 -0.1)">
       <use transform="translate(0 0.221875)" xlink:href="#Roboto-Regular-49"/>
       <use transform="translate(56.152344 0.221875)" xlink:href="#Roboto-Regular-48"/>
       <use transform="translate(113.22918 37.201563)scale(0.7)" xlink:href="#Roboto-Regular-54"/>
      </g>
     </g>
    </g>
    <g id="ytick_8">
     <g id="line2d_13">
      <defs>
       <path d="M 0 0 
L -2 0 
" id="m6f531494f6" style="stroke:#ffffff;stroke-width:0.6;"/>
      </defs>
      <g>
       <use style="fill:#ffffff;stroke:#ffffff;stroke-width:0.6;" x="43.33125" xlink:href="#m6f531494f6" y="144.057596"/>
      </g>
     </g>
    </g>
    <g id="ytick_9">
     <g id="line2d_14">
      <g>
       <use style="fill:#ffffff;stroke:#ffffff;stroke-width:0.6;" x="43.33125" xlink:href="#m6f531494f6" y="139.944733"/>
      </g>
     </g>
    </g>
    <g id="ytick_10">
     <g id="line2d_15">
      <g>
       <use style="fill:#ffffff;stroke:#ffffff;stroke-width:0.6;" x="43.33125" xlink:href="#m6f531494f6" y="137.02661"/>
      </g>
     </g>
    </g>
    <g id="ytick_11">
     <g id="line2d_16">
      <g>
       <use style="fill:#ffffff;stroke:#ffffff;stroke-width:0.6;" x="43.33125" xlink:href="#m6f531494f6" y="134.763138"/>
      </g>
     </g>
    </g>
    <g id="ytick_12">
     <g id="line2d_17">
      <g>
       <use style="fill:#ffffff;stroke:#ffffff;stroke-width:0.6;" x="43.33125" xlink:href="#m6f531494f6" y="132.913747"/>
      </g>
     </g>
    </g>
    <g id="ytick_13">
     <g id="line2d_18">
      <g>
       <use style="fill:#ffffff;stroke:#ffffff;stroke-width:0.6;" x="43.33125" xlink:href="#m6f531494f6" y="131.350109"/>
      </g>
     </g>
    </g>
    <g id="ytick_14">
     <g id="line2d_19">
      <g>
       <use style="fill:#ffffff;stroke:#ffffff;stroke-width:0.6;" x="43.33125" xlink:href="#m6f531494f6" y="129.995624"/>
      </g>
     </g>
    </g>
    <g id="ytick_15">
     <g id="line2d_20">
      <g>
       <use style="fill:#ffffff;stroke:#ffffff;stroke-width:0.6;" x="43.33125" xlink:href="#m6f531494f6" y="128.800884"/>
      </g>
     </g>
    </g>
    <g id="ytick_16">
     <g id="line2d_21">
      <g>
       <use style="fill:#ffffff;stroke:#ffffff;stroke-width:0.6;" x="43.33125" xlink:href="#m6f531494f6" y="120.701166"/>
      </g>
     </g>
    </g>
    <g id="ytick_17">
     <g id="line2d_22">
      <g>
       <use style="fill:#ffffff;stroke:#ffffff;stroke-width:0.6;" x="43.33125" xlink:href="#m6f531494f6" y="116.588303"/>
      </g>
     </g>
    </g>
    <g id="ytick_18">
     <g id="line2d_23">
      <g>
       <use style="fill:#ffffff;stroke:#ffffff;stroke-width:0.6;" x="43.33125" xlink:href="#m6f531494f6" y="113.67018"/>
      </g>
     </g>
    </g>
    <g id="ytick_19">
     <g id="line2d_24">
      <g>
       <use style="fill:#ffffff;stroke:#ffffff;stroke-width:0.6;" x="43.33125" xlink:href="#m6f531494f6" y="111.406708"/>
      </g>
     </g>
    </g>
    <g id="ytick_20">
     <g id="line2d_25">
      <g>
       <use style="fill:#ffffff;stroke:#ffffff;stroke-width:0.6;" x="43.33125" xlink:href="#m6f531494f6" y="109.557317"/>
      </g>
     </g>
    </g>
    <g id="ytick_21">
     <g id="line2d_26">
      <g>
       <use style="fill:#ffffff;stroke:#ffffff;stroke-width:0.6;" x="43.33125" xlink:href="#m6f531494f6" y="107.993679"/>
      </g>
     </g>
    </g>
    <g id="ytick_22">
     <g id="line2d_27">
      <g>
       <use style="fill:#ffffff;stroke:#ffffff;stroke-width:0.6;" x="43.33125" xlink:href="#m6f531494f6" y="106.639194"/>
      </g>
     </g>
    </g>
    <g id="ytick_23">
     <g id="line2d_28">
      <g>
       <use style="fill:#ffffff;stroke:#ffffff;stroke-width:0.6;" x="43.33125" xlink:href="#m6f531494f6" y="105.444453"/>
      </g>
     </g>
    </g>
    <g id="ytick_24">
     <g id="line2d_29">
      <g>
       <use style="fill:#ffffff;stroke:#ffffff;stroke-width:0.6;" x="43.33125" xlink:href="#m6f531494f6" y="97.344736"/>
      </g>
     </g>
    </g>
    <g id="ytick_25">
     <g id="line2d_30">
      <g>
       <use style="fill:#ffffff;stroke:#ffffff;stroke-width:0.6;" x="43.33125" xlink:href="#m6f531494f6" y="93.231872"/>
      </g>
     </g>
    </g>
    <g id="ytick_26">
     <g id="line2d_31">
      <g>
       <use style="fill:#ffffff;stroke:#ffffff;stroke-width:0.6;" x="43.33125" xlink:href="#m6f531494f6" y="90.313749"/>
      </g>
     </g>
    </g>
    <g id="ytick_27">
     <g id="line2d_32">
      <g>
       <use style="fill:#ffffff;stroke:#ffffff;stroke-width:0.6;" x="43.33125" xlink:href="#m6f531494f6" y="88.050277"/>
      </g>
     </g>
    </g>
    <g id="ytick_28">
     <g id="line2d_33">
      <g>
       <use style="fill:#ffffff;stroke:#ffffff;stroke-width:0.6;" x="43.33125" xlink:href="#m6f531494f6" y="86.200886"/>
      </g>
     </g>
    </g>
    <g id="ytick_29">
     <g id="line2d_34">
      <g>
       <use style="fill:#ffffff;stroke:#ffffff;stroke-width:0.6;" x="43.33125" xlink:href="#m6f531494f6" y="84.637248"/>
      </g>
     </g>
    </g>
    <g id="ytick_30">
     <g id="line2d_35">
      <g>
       <use style="fill:#ffffff;stroke:#ffffff;stroke-width:0.6;" x="43.33125" xlink:href="#m6f531494f6" y="83.282763"/>
      </g>
     </g>
    </g>
    <g id="ytick_31">
     <g id="line2d_36">
      <g>
       <use style="fill:#ffffff;stroke:#ffffff;stroke-width:0.6;" x="43.33125" xlink:href="#m6f531494f6" y="82.088023"/>
      </g>
     </g>
    </g>
    <g id="ytick_32">
     <g id="line2d_37">
      <g>
       <use style="fill:#ffffff;stroke:#ffffff;stroke-width:0.6;" x="43.33125" xlink:href="#m6f531494f6" y="73.988305"/>
      </g>
     </g>
    </g>
    <g id="ytick_33">
     <g id="line2d_38">
      <g>
       <use style="fill:#ffffff;stroke:#ffffff;stroke-width:0.6;" x="43.33125" xlink:href="#m6f531494f6" y="69.875442"/>
      </g>
     </g>
    </g>
    <g id="ytick_34">
     <g id="line2d_39">
      <g>
       <use style="fill:#ffffff;stroke:#ffffff;stroke-width:0.6;" x="43.33125" xlink:href="#m6f531494f6" y="66.957319"/>
      </g>
     </g>
    </g>
    <g id="ytick_35">
     <g id="line2d_40">
      <g>
       <use style="fill:#ffffff;stroke:#ffffff;stroke-width:0.6;" x="43.33125" xlink:href="#m6f531494f6" y="64.693847"/>
      </g>
     </g>
    </g>
    <g id="ytick_36">
     <g id="line2d_41">
      <g>
       <use style="fill:#ffffff;stroke:#ffffff;stroke-width:0.6;" x="43.33125" xlink:href="#m6f531494f6" y="62.844456"/>
      </g>
     </g>
    </g>
    <g id="ytick_37">
     <g id="line2d_42">
      <g>
       <use style="fill:#ffffff;stroke:#ffffff;stroke-width:0.6;" x="43.33125" xlink:href="#m6f531494f6" y="61.280818"/>
      </g>
     </g>
    </g>
    <g id="ytick_38">
     <g id="line2d_43">
      <g>
       <use style="fill:#ffffff;stroke:#ffffff;stroke-width:0.6;" x="43.33125" xlink:href="#m6f531494f6" y="59.926333"/>
      </g>
     </g>
    </g>
    <g id="ytick_39">
     <g id="line2d_44">
      <g>
       <use style="fill:#ffffff;stroke:#ffffff;stroke-width:0.6;" x="43.33125" xlink:href="#m6f531494f6" y="58.731592"/>
      </g>
     </g>
    </g>
    <g id="ytick_40">
     <g id="line2d_45">
      <g>
       <use style="fill:#ffffff;stroke:#ffffff;stroke-width:0.6;" x="43.33125" xlink:href="#m6f531494f6" y="50.631875"/>
      </g>
     </g>
    </g>
    <g id="ytick_41">
     <g id="line2d_46">
      <g>
       <use style="fill:#ffffff;stroke:#ffffff;stroke-width:0.6;" x="43.33125" xlink:href="#m6f531494f6" y="46.519011"/>
      </g>
     </g>
    </g>
    <g id="ytick_42">
     <g id="line2d_47">
      <g>
       <use style="fill:#ffffff;stroke:#ffffff;stroke-width:0.6;" x="43.33125" xlink:href="#m6f531494f6" y="43.600889"/>
      </g>
     </g>
    </g>
    <g id="ytick_43">
     <g id="line2d_48">
      <g>
       <use style="fill:#ffffff;stroke:#ffffff;stroke-width:0.6;" x="43.33125" xlink:href="#m6f531494f6" y="41.337417"/>
      </g>
     </g>
    </g>
    <g id="ytick_44">
     <g id="line2d_49">
      <g>
       <use style="fill:#ffffff;stroke:#ffffff;stroke-width:0.6;" x="43.33125" xlink:href="#m6f531494f6" y="39.488025"/>
      </g>
     </g>
    </g>
    <g id="ytick_45">
     <g id="line2d_50">
      <g>
       <use style="fill:#ffffff;stroke:#ffffff;stroke-width:0.6;" x="43.33125" xlink:href="#m6f531494f6" y="37.924387"/>
      </g>
     </g>
    </g>
    <g id="ytick_46">
     <g id="line2d_51">
      <g>
       <use style="fill:#ffffff;stroke:#ffffff;stroke-width:0.6;" x="43.33125" xlink:href="#m6f531494f6" y="36.569902"/>
      </g>
     </g>
    </g>
    <g id="ytick_47">
     <g id="line2d_52">
      <g>
       <use style="fill:#ffffff;stroke:#ffffff;stroke-width:0.6;" x="43.33125" xlink:href="#m6f531494f6" y="35.375162"/>
      </g>
     </g>
    </g>
    <g id="ytick_48">
     <g id="line2d_53">
      <g>
       <use style="fill:#ffffff;stroke:#ffffff;stroke-width:0.6;" x="43.33125" xlink:href="#m6f531494f6" y="27.275444"/>
      </g>
     </g>
    </g>
    <g id="ytick_49">
     <g id="line2d_54">
      <g>
       <use style="fill:#ffffff;stroke:#ffffff;stroke-width:0.6;" x="43.33125" xlink:href="#m6f531494f6" y="23.162581"/>
      </g>
     </g>
    </g>
    <g id="ytick_50">
     <g id="line2d_55">
      <g>
       <use style="fill:#ffffff;stroke:#ffffff;stroke-width:0.6;" x="43.33125" xlink:href="#m6f531494f6" y="20.244458"/>
      </g>
     </g>
    </g>
    <g id="ytick_51">
     <g id="line2d_56">
      <g>
       <use style="fill:#ffffff;stroke:#ffffff;stroke-width:0.6;" x="43.33125" xlink:href="#m6f531494f6" y="17.980986"/>
      </g>
     </g>
    </g>
    <g id="ytick_52">
     <g id="line2d_57">
      <g>
       <use style="fill:#ffffff;stroke:#ffffff;stroke-width:0.6;" x="43.33125" xlink:href="#m6f531494f6" y="16.131595"/>
      </g>
     </g>
    </g>
    <g id="ytick_53">
     <g id="line2d_58">
      <g>
       <use style="fill:#ffffff;stroke:#ffffff;stroke-width:0.6;" x="43.33125" xlink:href="#m6f531494f6" y="14.567957"/>
      </g>
     </g>
    </g>
    <g id="ytick_54">
     <g id="line2d_59">
      <g>
       <use style="fill:#ffffff;stroke:#ffffff;stroke-width:0.6;" x="43.33125" xlink:href="#m6f531494f6" y="13.213472"/>
      </g>
     </g>
    </g>
    <g id="ytick_55">
     <g id="line2d_60">
      <g>
       <use style="fill:#ffffff;stroke:#ffffff;stroke-width:0.6;" x="43.33125" xlink:href="#m6f531494f6" y="12.018732"/>
      </g>
     </g>
    </g>
    <g id="text_14">
     <!-- Number of stars observed -->
     <g style="fill:#ffffff;" transform="translate(14.7 138.838041)rotate(-90)scale(0.1 -0.1)">
      <defs>
       <path d="M 62.890625 0 
L 53.46875 0 
L 17.671875 54.78125 
L 17.671875 0 
L 8.25 0 
L 8.25 71.09375 
L 17.671875 71.09375 
L 53.5625 16.0625 
L 53.5625 71.09375 
L 62.890625 71.09375 
z
" id="Roboto-Regular-78"/>
       <path d="M 51.5625 25.828125 
Q 51.5625 13.71875 46 6.359375 
Q 40.4375 -0.984375 31.0625 -0.984375 
Q 21.046875 -0.984375 15.578125 6.109375 
L 15.140625 0 
L 6.84375 0 
L 6.84375 75 
L 15.875 75 
L 15.875 47.015625 
Q 21.34375 53.8125 30.953125 53.8125 
Q 40.578125 53.8125 46.0625 46.53125 
Q 51.5625 39.265625 51.5625 26.609375 
z
M 42.53125 26.859375 
Q 42.53125 36.078125 38.96875 41.109375 
Q 35.40625 46.140625 28.71875 46.140625 
Q 19.78125 46.140625 15.875 37.84375 
L 15.875 14.984375 
Q 20.015625 6.6875 28.8125 6.6875 
Q 35.296875 6.6875 38.90625 11.71875 
Q 42.53125 16.75 42.53125 26.859375 
z
" id="Roboto-Regular-98"/>
       <path d="M 32.375 44.734375 
Q 30.328125 45.0625 27.9375 45.0625 
Q 19.046875 45.0625 15.875 37.5 
L 15.875 0 
L 6.84375 0 
L 6.84375 52.828125 
L 15.625 52.828125 
L 15.765625 46.734375 
Q 20.21875 53.8125 28.375 53.8125 
Q 31 53.8125 32.375 53.125 
z
" id="Roboto-Regular-114"/>
       <path d="M 4.4375 26.90625 
Q 4.4375 34.671875 7.484375 40.875 
Q 10.546875 47.078125 15.984375 50.4375 
Q 21.4375 53.8125 28.421875 53.8125 
Q 39.203125 53.8125 45.875 46.34375 
Q 52.546875 38.875 52.546875 26.46875 
L 52.546875 25.828125 
Q 52.546875 18.109375 49.578125 11.984375 
Q 46.625 5.859375 41.125 2.4375 
Q 35.640625 -0.984375 28.515625 -0.984375 
Q 17.78125 -0.984375 11.109375 6.484375 
Q 4.4375 13.96875 4.4375 26.265625 
z
M 13.53125 25.828125 
Q 13.53125 17.046875 17.609375 11.71875 
Q 21.6875 6.390625 28.515625 6.390625 
Q 35.40625 6.390625 39.453125 11.78125 
Q 43.5 17.1875 43.5 26.90625 
Q 43.5 35.59375 39.375 40.984375 
Q 35.25 46.390625 28.421875 46.390625 
Q 21.734375 46.390625 17.625 41.0625 
Q 13.53125 35.75 13.53125 25.828125 
z
" id="Roboto-Regular-111"/>
       <path d="M 11.28125 0 
L 11.28125 45.84375 
L 2.9375 45.84375 
L 2.9375 52.828125 
L 11.28125 52.828125 
L 11.28125 58.25 
Q 11.28125 66.75 15.8125 71.390625 
Q 20.359375 76.03125 28.65625 76.03125 
Q 31.78125 76.03125 34.859375 75.203125 
L 34.375 67.875 
Q 32.078125 68.3125 29.5 68.3125 
Q 25.09375 68.3125 22.703125 65.75 
Q 20.3125 63.1875 20.3125 58.40625 
L 20.3125 52.828125 
L 31.59375 52.828125 
L 31.59375 45.84375 
L 20.3125 45.84375 
L 20.3125 0 
z
" id="Roboto-Regular-102"/>
       <path d="M 37.59375 14.015625 
Q 37.59375 17.671875 34.828125 19.703125 
Q 32.078125 21.734375 25.21875 23.1875 
Q 18.359375 24.65625 14.328125 26.703125 
Q 10.296875 28.765625 8.375 31.59375 
Q 6.453125 34.421875 6.453125 38.328125 
Q 6.453125 44.828125 11.9375 49.3125 
Q 17.4375 53.8125 25.984375 53.8125 
Q 34.96875 53.8125 40.546875 49.171875 
Q 46.140625 44.53125 46.140625 37.3125 
L 37.0625 37.3125 
Q 37.0625 41.015625 33.90625 43.703125 
Q 30.765625 46.390625 25.984375 46.390625 
Q 21.046875 46.390625 18.265625 44.234375 
Q 15.484375 42.09375 15.484375 38.625 
Q 15.484375 35.359375 18.0625 33.6875 
Q 20.65625 32.03125 27.421875 30.515625 
Q 34.1875 29 38.375 26.90625 
Q 42.578125 24.8125 44.59375 21.84375 
Q 46.625 18.890625 46.625 14.65625 
Q 46.625 7.5625 40.953125 3.28125 
Q 35.296875 -0.984375 26.265625 -0.984375 
Q 19.921875 -0.984375 15.03125 1.265625 
Q 10.15625 3.515625 7.390625 7.546875 
Q 4.640625 11.578125 4.640625 16.265625 
L 13.671875 16.265625 
Q 13.921875 11.71875 17.3125 9.046875 
Q 20.703125 6.390625 26.265625 6.390625 
Q 31.390625 6.390625 34.484375 8.46875 
Q 37.59375 10.546875 37.59375 14.015625 
z
" id="Roboto-Regular-115"/>
       <path d="M 24.265625 12.25 
L 37.359375 52.828125 
L 46.578125 52.828125 
L 27.640625 0 
L 20.75 0 
L 1.609375 52.828125 
L 10.84375 52.828125 
z
" id="Roboto-Regular-118"/>
      </defs>
      <use xlink:href="#Roboto-Regular-78"/>
      <use x="71.289062" xlink:href="#Roboto-Regular-117"/>
      <use x="126.416016" xlink:href="#Roboto-Regular-109"/>
      <use x="214.0625" xlink:href="#Roboto-Regular-98"/>
      <use x="270.166016" xlink:href="#Roboto-Regular-101"/>
      <use x="323.144531" xlink:href="#Roboto-Regular-114"/>
      <use x="356.982422" xlink:href="#Roboto-Regular-32"/>
      <use x="381.738281" xlink:href="#Roboto-Regular-111"/>
      <use x="438.769531" xlink:href="#Roboto-Regular-102"/>
      <use x="473.486328" xlink:href="#Roboto-Regular-32"/>
      <use x="498.242188" xlink:href="#Roboto-Regular-115"/>
      <use x="549.804688" xlink:href="#Roboto-Regular-116"/>
      <use x="582.470703" xlink:href="#Roboto-Regular-97"/>
      <use x="636.865234" xlink:href="#Roboto-Regular-114"/>
      <use x="670.703125" xlink:href="#Roboto-Regular-115"/>
      <use x="722.265625" xlink:href="#Roboto-Regular-32"/>
      <use x="747.021484" xlink:href="#Roboto-Regular-111"/>
      <use x="804.052734" xlink:href="#Roboto-Regular-98"/>
      <use x="860.15625" xlink:href="#Roboto-Regular-115"/>
      <use x="911.71875" xlink:href="#Roboto-Regular-101"/>
      <use x="964.697266" xlink:href="#Roboto-Regular-114"/>
      <use x="998.535156" xlink:href="#Roboto-Regular-118"/>
      <use x="1046.972656" xlink:href="#Roboto-Regular-101"/>
      <use x="1099.951172" xlink:href="#Roboto-Regular-100"/>
     </g>
    </g>
   </g>
   <g id="patch_3">
    <path clip-path="url(#pafec1b8ce5)" d="M 115.598318 189.39952 
L 115.598318 96.517223 
L 118.489 96.517223 
L 118.489 93.71664 
L 121.379683 93.71664 
L 121.379683 92.142874 
L 124.270366 92.142874 
L 124.270366 91.104558 
L 127.161048 91.104558 
L 127.161048 89.818843 
L 132.942414 89.746646 
L 132.942414 88.275927 
L 135.833096 88.275927 
L 135.833096 87.083492 
L 138.723779 87.083492 
L 138.723779 85.498798 
L 141.614462 85.498798 
L 141.614462 84.797913 
L 144.505144 84.797913 
L 144.505144 84.087288 
L 147.395827 84.087288 
L 147.395827 83.007582 
L 150.28651 83.007582 
L 150.28651 81.821071 
L 153.177193 81.821071 
L 153.177193 80.43781 
L 156.067875 80.43781 
L 156.067875 79.374828 
L 158.958558 79.374828 
L 158.958558 77.766927 
L 161.849241 77.766927 
L 161.849241 76.812194 
L 164.739923 76.812194 
L 164.739923 76.547679 
L 167.630606 76.547679 
L 167.630606 74.583621 
L 170.521289 74.583621 
L 170.521289 74.23472 
L 173.411971 74.23472 
L 173.411971 72.961757 
L 176.302654 72.961757 
L 176.302654 71.732951 
L 179.193337 71.732951 
L 179.193337 70.95169 
L 182.08402 70.95169 
L 182.08402 69.562488 
L 184.974702 69.562488 
L 184.974702 68.747039 
L 187.865385 68.747039 
L 187.865385 67.531144 
L 190.756068 67.531144 
L 190.756068 66.664876 
L 193.64675 66.664876 
L 193.64675 65.550666 
L 196.537433 65.550666 
L 196.537433 64.21054 
L 199.428116 64.21054 
L 199.428116 63.253255 
L 202.318798 63.253255 
L 202.318798 57.754566 
L 205.209481 57.754566 
L 205.209481 56.446504 
L 208.100164 56.446504 
L 208.100164 55.694977 
L 210.990847 55.694977 
L 210.990847 54.824424 
L 213.881529 54.824424 
L 213.881529 54.107377 
L 216.772212 54.107377 
L 216.772212 53.375682 
L 219.662895 53.375682 
L 219.662895 52.448858 
L 222.553577 52.448858 
L 222.553577 51.520199 
L 225.44426 51.520199 
L 225.44426 50.743559 
L 228.334943 50.743559 
L 228.334943 50.025521 
L 231.225625 50.025521 
L 231.225625 49.332632 
L 234.116308 49.332632 
L 234.116308 48.442109 
L 237.006991 48.442109 
L 237.006991 47.548747 
L 239.897674 47.548747 
L 239.897674 46.747773 
L 242.788356 46.747773 
L 242.788356 46.193607 
L 245.679039 46.193607 
L 245.679039 45.386677 
L 248.569722 45.386677 
L 248.569722 44.568688 
L 251.460404 44.568688 
L 251.460404 43.798315 
L 254.351087 43.798315 
L 254.351087 43.162897 
L 257.24177 43.162897 
L 257.24177 42.434138 
L 260.132452 42.434138 
L 260.132452 73.649157 
L 263.023135 73.649157 
L 263.023135 189.39952 
L 263.023135 189.39952 
" style="fill:none;stroke:#8dd3c7;stroke-linejoin:miter;"/>
   </g>
   <g id="patch_4">
    <path clip-path="url(#pafec1b8ce5)" d="M 202.318798 189.39952 
L 202.318798 90.596605 
L 205.209481 90.596605 
L 205.209481 89.556597 
L 208.100164 89.556597 
L 208.100164 87.671965 
L 210.990847 87.671965 
L 210.990847 88.111322 
L 216.772212 88.030011 
L 216.772212 87.157533 
L 219.662895 87.157533 
L 219.662895 85.86828 
L 222.553577 85.86828 
L 222.553577 85.280313 
L 225.44426 85.280313 
L 225.44426 84.593869 
L 228.334943 84.593869 
L 228.334943 84.946213 
L 231.225625 84.946213 
L 231.225625 84.018889 
L 234.116308 84.018889 
L 234.116308 83.169285 
L 237.006991 83.169285 
L 237.006991 82.133206 
L 239.897674 82.133206 
L 239.897674 81.843051 
L 242.788356 81.843051 
L 242.788356 80.928407 
L 245.679039 80.928407 
L 245.679039 81.152022 
L 248.569722 81.152022 
L 248.569722 79.548821 
L 251.460404 79.548821 
L 251.460404 79.027208 
L 254.351087 79.027208 
L 254.351087 78.594807 
L 257.24177 78.594807 
L 257.24177 77.870509 
L 263.023135 77.766927 
L 263.023135 77.455238 
L 265.913818 77.455238 
L 265.913818 76.251777 
L 268.804501 76.251777 
L 268.804501 108.437993 
L 271.695183 108.437993 
L 271.695183 189.39952 
L 271.695183 189.39952 
" style="fill:none;stroke:#feffb3;stroke-linejoin:miter;"/>
   </g>
   <g id="patch_5">
    <path clip-path="url(#pafec1b8ce5)" d="M 144.505144 189.39952 
L 144.505144 91.438991 
L 147.395827 91.438991 
L 147.395827 90.013918 
L 150.28651 90.013918 
L 150.28651 88.786403 
L 153.177193 88.786403 
L 153.177193 88.152224 
L 156.067875 88.152224 
L 156.067875 86.738995 
L 158.958558 86.738995 
L 158.958558 85.917481 
L 161.849241 85.917481 
L 161.849241 84.622768 
L 164.739923 84.622768 
L 164.739923 83.896921 
L 167.630606 83.896921 
L 167.630606 82.513851 
L 170.521289 82.513851 
L 170.521289 81.964797 
L 173.411971 81.964797 
L 173.411971 81.059947 
L 176.302654 81.059947 
L 176.302654 80.680143 
L 179.193337 80.680143 
L 179.193337 79.102501 
L 182.08402 79.102501 
L 182.08402 78.280252 
L 184.974702 78.280252 
L 184.974702 76.987903 
L 187.865385 76.987903 
L 187.865385 76.430861 
L 190.756068 76.430861 
L 190.756068 75.471117 
L 193.64675 75.471117 
L 193.64675 74.250321 
L 196.537433 74.250321 
L 196.537433 73.68355 
L 199.428116 73.68355 
L 199.428116 72.766551 
L 202.318798 72.766551 
L 202.318798 71.708616 
L 208.100164 71.700518 
L 208.100164 71.012024 
L 210.990847 71.012024 
L 210.990847 70.787599 
L 213.881529 70.787599 
L 213.881529 70.925406 
L 216.772212 70.925406 
L 216.772212 70.513876 
L 219.662895 70.513876 
L 219.662895 70.346033 
L 222.553577 70.346033 
L 222.553577 69.588749 
L 225.44426 69.588749 
L 225.44426 69.861926 
L 228.334943 69.861926 
L 228.334943 70.08382 
L 231.225625 70.08382 
L 231.225625 71.983727 
L 234.116308 71.983727 
L 234.116308 71.488226 
L 237.006991 71.488226 
L 237.006991 70.597035 
L 239.897674 70.597035 
L 239.897674 70.11493 
L 242.788356 70.11493 
L 242.788356 69.529756 
L 245.679039 69.529756 
L 245.679039 69.091652 
L 248.569722 69.091652 
L 248.569722 68.905583 
L 251.460404 68.905583 
L 251.460404 68.629736 
L 257.24177 68.686714 
L 257.24177 68.034507 
L 260.132452 68.034507 
L 260.132452 69.101046 
L 263.023135 69.101046 
L 263.023135 69.217622 
L 265.913818 69.217622 
L 265.913818 68.804682 
L 271.695183 68.698751 
L 271.695183 69.348385 
L 274.585866 69.348385 
L 274.585866 70.887976 
L 277.476549 70.887976 
L 277.476549 71.504094 
L 280.367231 71.504094 
L 280.367231 71.925621 
L 283.257914 71.925621 
L 283.257914 72.513448 
L 286.148597 72.513448 
L 286.148597 72.825172 
L 289.039279 72.825172 
L 289.039279 94.801147 
L 291.929962 94.801147 
L 291.929962 98.641422 
L 294.820645 98.641422 
L 294.820645 99.800205 
L 297.711328 99.800205 
L 297.711328 98.641422 
L 300.60201 98.641422 
L 300.60201 98.080861 
L 303.492693 98.080861 
L 303.492693 98.301382 
L 306.383376 98.301382 
L 306.383376 95.708901 
L 309.274058 95.708901 
L 309.274058 96.37795 
L 312.164741 96.37795 
L 312.164741 125.882761 
L 315.055424 125.882761 
L 315.055424 189.39952 
L 315.055424 189.39952 
" style="fill:none;stroke:#bfbbd9;stroke-linejoin:miter;"/>
   </g>
   <g id="patch_6">
    <path clip-path="url(#pafec1b8ce5)" d="M 144.505144 189.39952 
L 144.505144 95.327678 
L 147.395827 95.327678 
L 147.395827 95.453167 
L 150.28651 95.453167 
L 150.28651 93.198117 
L 153.177193 93.198117 
L 153.177193 91.467365 
L 158.958558 91.552965 
L 158.958558 90.212818 
L 161.849241 90.212818 
L 161.849241 88.464358 
L 164.739923 88.464358 
L 164.739923 88.338349 
L 167.630606 88.338349 
L 167.630606 87.101952 
L 170.521289 87.101952 
L 170.521289 86.756837 
L 173.411971 86.756837 
L 173.411971 85.738233 
L 176.302654 85.738233 
L 176.302654 84.436379 
L 179.193337 84.436379 
L 179.193337 83.71006 
L 182.08402 83.71006 
L 182.08402 83.270092 
L 184.974702 83.270092 
L 184.974702 82.144533 
L 187.865385 82.144533 
L 187.865385 81.328256 
L 190.756068 81.328256 
L 190.756068 79.654668 
L 193.64675 79.654668 
L 193.64675 78.985619 
L 196.537433 78.985619 
L 196.537433 78.845478 
L 199.428116 78.845478 
L 199.428116 77.132078 
L 202.318798 77.132078 
L 202.318798 78.829117 
L 205.209481 78.829117 
L 205.209481 78.187757 
L 208.100164 78.187757 
L 208.100164 76.892912 
L 210.990847 76.892912 
L 210.990847 76.379371 
L 213.881529 76.379371 
L 213.881529 74.96727 
L 216.772212 74.96727 
L 216.772212 74.439435 
L 219.662895 74.439435 
L 219.662895 73.837281 
L 222.553577 73.837281 
L 222.553577 73.058473 
L 225.44426 73.058473 
L 225.44426 72.382731 
L 228.334943 72.382731 
L 228.334943 71.559828 
L 231.225625 71.559828 
L 231.225625 70.739622 
L 234.116308 70.739622 
L 234.116308 102.442151 
L 237.006991 102.442151 
L 237.006991 189.39952 
L 237.006991 189.39952 
" style="fill:none;stroke:#fa8174;stroke-linejoin:miter;"/>
   </g>
   <g id="patch_7">
    <path d="M 43.33125 151.088583 
L 43.33125 10.95 
" style="fill:none;stroke:#ffffff;stroke-linecap:square;stroke-linejoin:miter;stroke-width:0.8;"/>
   </g>
   <g id="patch_8">
    <path d="M 332.39952 151.088583 
L 332.39952 10.95 
" style="fill:none;stroke:#ffffff;stroke-linecap:square;stroke-linejoin:miter;stroke-width:0.8;"/>
   </g>
   <g id="patch_9">
    <path d="M 43.33125 151.088583 
L 332.39952 151.088583 
" style="fill:none;stroke:#ffffff;stroke-linecap:square;stroke-linejoin:miter;stroke-width:0.8;"/>
   </g>
   <g id="patch_10">
    <path d="M 43.33125 10.95 
L 332.39952 10.95 
" style="fill:none;stroke:#ffffff;stroke-linecap:square;stroke-linejoin:miter;stroke-width:0.8;"/>
   </g>
   <g id="legend_1">
    <g id="patch_11">
     <path d="M 50.33125 77.075 
L 147.928125 77.075 
Q 149.928125 77.075 149.928125 75.075 
L 149.928125 17.95 
Q 149.928125 15.95 147.928125 15.95 
L 50.33125 15.95 
Q 48.33125 15.95 48.33125 17.95 
L 48.33125 75.075 
Q 48.33125 77.075 50.33125 77.075 
z
" style="opacity:0.8;stroke:#cccccc;stroke-linejoin:miter;"/>
    </g>
    <g id="patch_12">
     <path d="M 52.33125 27.45 
L 72.33125 27.45 
L 72.33125 20.45 
L 52.33125 20.45 
z
" style="fill:none;stroke:#8dd3c7;stroke-linejoin:miter;"/>
    </g>
    <g id="text_15">
     <!-- GALAH -->
     <g style="fill:#ffffff;" transform="translate(80.33125 27.45)scale(0.1 -0.1)">
      <defs>
       <path d="M 60.75 9.328125 
Q 57.125 4.15625 50.65625 1.578125 
Q 44.1875 -0.984375 35.59375 -0.984375 
Q 26.90625 -0.984375 20.15625 3.09375 
Q 13.421875 7.171875 9.734375 14.6875 
Q 6.0625 22.21875 5.953125 32.125 
L 5.953125 38.328125 
Q 5.953125 54.390625 13.453125 63.234375 
Q 20.953125 72.078125 34.515625 72.078125 
Q 45.65625 72.078125 52.4375 66.375 
Q 59.234375 60.6875 60.75 50.25 
L 51.375 50.25 
Q 48.734375 64.359375 34.578125 64.359375 
Q 25.140625 64.359375 20.28125 57.734375 
Q 15.4375 51.125 15.375 38.578125 
L 15.375 32.765625 
Q 15.375 20.796875 20.84375 13.734375 
Q 26.3125 6.6875 35.640625 6.6875 
Q 40.921875 6.6875 44.875 7.859375 
Q 48.828125 9.03125 51.421875 11.8125 
L 51.421875 27.78125 
L 34.96875 27.78125 
L 34.96875 35.40625 
L 60.75 35.40625 
z
" id="Roboto-Regular-71"/>
       <path d="M 47.515625 18.5625 
L 17.71875 18.5625 
L 11.03125 0 
L 1.375 0 
L 28.515625 71.09375 
L 36.71875 71.09375 
L 63.921875 0 
L 54.296875 0 
z
M 20.5625 26.265625 
L 44.734375 26.265625 
L 32.625 59.515625 
z
" id="Roboto-Regular-65"/>
       <path d="M 17.671875 7.671875 
L 51.375 7.671875 
L 51.375 0 
L 8.25 0 
L 8.25 71.09375 
L 17.671875 71.09375 
z
" id="Roboto-Regular-76"/>
       <path d="M 62.890625 0 
L 53.46875 0 
L 53.46875 32.859375 
L 17.625 32.859375 
L 17.625 0 
L 8.25 0 
L 8.25 71.09375 
L 17.625 71.09375 
L 17.625 40.53125 
L 53.46875 40.53125 
L 53.46875 71.09375 
L 62.890625 71.09375 
z
" id="Roboto-Regular-72"/>
      </defs>
      <use xlink:href="#Roboto-Regular-71"/>
      <use x="68.115234" xlink:href="#Roboto-Regular-65"/>
      <use x="133.349609" xlink:href="#Roboto-Regular-76"/>
      <use x="187.158203" xlink:href="#Roboto-Regular-65"/>
      <use x="252.392578" xlink:href="#Roboto-Regular-72"/>
     </g>
    </g>
    <g id="patch_13">
     <path d="M 52.33125 41.98125 
L 72.33125 41.98125 
L 72.33125 34.98125 
L 52.33125 34.98125 
z
" style="fill:none;stroke:#feffb3;stroke-linejoin:miter;"/>
    </g>
    <g id="text_16">
     <!-- GALAH-faint -->
     <g style="fill:#ffffff;" transform="translate(80.33125 41.98125)scale(0.1 -0.1)">
      <defs>
       <path d="M 25.640625 26.515625 
L 1.8125 26.515625 
L 1.8125 33.890625 
L 25.640625 33.890625 
z
" id="Roboto-Regular-45"/>
      </defs>
      <use xlink:href="#Roboto-Regular-71"/>
      <use x="68.115234" xlink:href="#Roboto-Regular-65"/>
      <use x="133.349609" xlink:href="#Roboto-Regular-76"/>
      <use x="187.158203" xlink:href="#Roboto-Regular-65"/>
      <use x="252.392578" xlink:href="#Roboto-Regular-72"/>
      <use x="323.681641" xlink:href="#Roboto-Regular-45"/>
      <use x="351.269531" xlink:href="#Roboto-Regular-102"/>
      <use x="385.986328" xlink:href="#Roboto-Regular-97"/>
      <use x="440.380859" xlink:href="#Roboto-Regular-105"/>
      <use x="464.648438" xlink:href="#Roboto-Regular-110"/>
      <use x="519.824219" xlink:href="#Roboto-Regular-116"/>
     </g>
    </g>
    <g id="patch_14">
     <path d="M 52.33125 56.5125 
L 72.33125 56.5125 
L 72.33125 49.5125 
L 52.33125 49.5125 
z
" style="fill:none;stroke:#bfbbd9;stroke-linejoin:miter;"/>
    </g>
    <g id="text_17">
     <!-- K2-HERMES -->
     <g style="fill:#ffffff;" transform="translate(80.33125 56.5125)scale(0.1 -0.1)">
      <defs>
       <path d="M 26.3125 33.0625 
L 17.625 24.03125 
L 17.625 0 
L 8.25 0 
L 8.25 71.09375 
L 17.625 71.09375 
L 17.625 35.9375 
L 49.21875 71.09375 
L 60.546875 71.09375 
L 32.5625 39.703125 
L 62.75 0 
L 51.515625 0 
z
" id="Roboto-Regular-75"/>
       <path d="M 48.4375 32.859375 
L 17.625 32.859375 
L 17.625 7.671875 
L 53.421875 7.671875 
L 53.421875 0 
L 8.25 0 
L 8.25 71.09375 
L 52.9375 71.09375 
L 52.9375 63.375 
L 17.625 63.375 
L 17.625 40.53125 
L 48.4375 40.53125 
z
" id="Roboto-Regular-69"/>
       <path d="M 34.328125 28.765625 
L 17.625 28.765625 
L 17.625 0 
L 8.203125 0 
L 8.203125 71.09375 
L 31.734375 71.09375 
Q 43.75 71.09375 50.21875 65.625 
Q 56.6875 60.15625 56.6875 49.703125 
Q 56.6875 43.0625 53.09375 38.125 
Q 49.515625 33.203125 43.109375 30.765625 
L 59.8125 0.59375 
L 59.8125 0 
L 49.75 0 
z
M 17.625 36.421875 
L 32.03125 36.421875 
Q 39.015625 36.421875 43.140625 40.03125 
Q 47.265625 43.65625 47.265625 49.703125 
Q 47.265625 56.296875 43.328125 59.8125 
Q 39.40625 63.328125 31.984375 63.375 
L 17.625 63.375 
z
" id="Roboto-Regular-82"/>
       <path d="M 20.359375 71.09375 
L 43.609375 13.09375 
L 66.84375 71.09375 
L 79 71.09375 
L 79 0 
L 69.625 0 
L 69.625 27.6875 
L 70.515625 57.5625 
L 47.171875 0 
L 39.984375 0 
L 16.703125 57.421875 
L 17.625 27.6875 
L 17.625 0 
L 8.25 0 
L 8.25 71.09375 
z
" id="Roboto-Regular-77"/>
       <path d="M 29.203125 31.6875 
Q 17.140625 35.15625 11.640625 40.203125 
Q 6.15625 45.265625 6.15625 52.6875 
Q 6.15625 61.078125 12.859375 66.578125 
Q 19.578125 72.078125 30.328125 72.078125 
Q 37.640625 72.078125 43.375 69.234375 
Q 49.125 66.40625 52.265625 61.421875 
Q 55.421875 56.453125 55.421875 50.53125 
L 46 50.53125 
Q 46 56.984375 41.890625 60.671875 
Q 37.796875 64.359375 30.328125 64.359375 
Q 23.390625 64.359375 19.5 61.296875 
Q 15.625 58.25 15.625 52.828125 
Q 15.625 48.484375 19.3125 45.484375 
Q 23 42.484375 31.859375 39.984375 
Q 40.71875 37.5 45.71875 34.5 
Q 50.734375 31.5 53.140625 27.484375 
Q 55.5625 23.484375 55.5625 18.0625 
Q 55.5625 9.421875 48.828125 4.21875 
Q 42.09375 -0.984375 30.8125 -0.984375 
Q 23.484375 -0.984375 17.140625 1.828125 
Q 10.796875 4.640625 7.34375 9.515625 
Q 3.90625 14.40625 3.90625 20.609375 
L 13.328125 20.609375 
Q 13.328125 14.15625 18.09375 10.421875 
Q 22.859375 6.6875 30.8125 6.6875 
Q 38.234375 6.6875 42.1875 9.71875 
Q 46.140625 12.75 46.140625 17.96875 
Q 46.140625 23.1875 42.46875 26.046875 
Q 38.8125 28.90625 29.203125 31.6875 
z
" id="Roboto-Regular-83"/>
      </defs>
      <use xlink:href="#Roboto-Regular-75"/>
      <use x="62.695312" xlink:href="#Roboto-Regular-50"/>
      <use x="118.847656" xlink:href="#Roboto-Regular-45"/>
      <use x="146.435547" xlink:href="#Roboto-Regular-72"/>
      <use x="217.724609" xlink:href="#Roboto-Regular-69"/>
      <use x="274.560547" xlink:href="#Roboto-Regular-82"/>
      <use x="336.132812" xlink:href="#Roboto-Regular-77"/>
      <use x="423.4375" xlink:href="#Roboto-Regular-69"/>
      <use x="480.273438" xlink:href="#Roboto-Regular-83"/>
     </g>
    </g>
    <g id="patch_15">
     <path d="M 52.33125 71.04375 
L 72.33125 71.04375 
L 72.33125 64.04375 
L 52.33125 64.04375 
z
" style="fill:none;stroke:#fa8174;stroke-linejoin:miter;"/>
    </g>
    <g id="text_18">
     <!-- TESS-HERMES -->
     <g style="fill:#ffffff;" transform="translate(80.33125 71.04375)scale(0.1 -0.1)">
      <defs>
       <path d="M 57.375 63.375 
L 34.515625 63.375 
L 34.515625 0 
L 25.203125 0 
L 25.203125 63.375 
L 2.390625 63.375 
L 2.390625 71.09375 
L 57.375 71.09375 
z
" id="Roboto-Regular-84"/>
      </defs>
      <use xlink:href="#Roboto-Regular-84"/>
      <use x="59.667969" xlink:href="#Roboto-Regular-69"/>
      <use x="116.503906" xlink:href="#Roboto-Regular-83"/>
      <use x="175.830078" xlink:href="#Roboto-Regular-83"/>
      <use x="235.15625" xlink:href="#Roboto-Regular-45"/>
      <use x="262.744141" xlink:href="#Roboto-Regular-72"/>
      <use x="334.033203" xlink:href="#Roboto-Regular-69"/>
      <use x="390.869141" xlink:href="#Roboto-Regular-82"/>
      <use x="452.441406" xlink:href="#Roboto-Regular-77"/>
      <use x="539.746094" xlink:href="#Roboto-Regular-69"/>
      <use x="596.582031" xlink:href="#Roboto-Regular-83"/>
     </g>
    </g>
   </g>
  </g>
 </g>
 <defs>
  <clipPath id="pafec1b8ce5">
   <rect height="140.138582" width="289.06827" x="43.33125" y="10.95"/>
  </clipPath>
 </defs>
</svg>
