<?xml version="1.0" encoding="utf-8" standalone="no"?>
<!DOCTYPE svg PUBLIC "-//W3C//DTD SVG 1.1//EN"
  "http://www.w3.org/Graphics/SVG/1.1/DTD/svg11.dtd">
<!-- Created with matplotlib (https://matplotlib.org/) -->
<svg height="224.39952pt" version="1.1" viewBox="0 0 339.59952 224.39952" width="339.59952pt" xmlns="http://www.w3.org/2000/svg" xmlns:xlink="http://www.w3.org/1999/xlink">
 <metadata>
  <rdf:RDF xmlns:cc="http://creativecommons.org/ns#" xmlns:dc="http://purl.org/dc/elements/1.1/" xmlns:rdf="http://www.w3.org/1999/02/22-rdf-syntax-ns#">
   <cc:Work>
    <dc:type rdf:resource="http://purl.org/dc/dcmitype/StillImage"/>
    <dc:date>2021-06-09T21:08:35.486908</dc:date>
    <dc:format>image/svg+xml</dc:format>
    <dc:creator>
     <cc:Agent>
      <dc:title>Matplotlib v3.3.4, https://matplotlib.org/</dc:title>
     </cc:Agent>
    </dc:creator>
   </cc:Work>
  </rdf:RDF>
 </metadata>
 <defs>
  <style type="text/css">*{stroke-linecap:butt;stroke-linejoin:round;}</style>
 </defs>
 <g id="figure_1">
  <g id="patch_1">
   <path d="M 0 224.39952 
L 339.59952 224.39952 
L 339.59952 0 
L 0 0 
z
"/>
  </g>
  <g id="axes_1">
   <g id="patch_2">
    <path d="M 43.434375 187.088583 
L 332.39952 187.088583 
L 332.39952 7.2 
L 43.434375 7.2 
z
"/>
   </g>
   <g id="matplotlib.axis_1">
    <g id="xtick_1">
     <g id="line2d_1">
      <defs>
       <path d="M 0 0 
L 0 3.5 
" id="m5bfbf36dee" style="stroke:#ffffff;stroke-width:0.8;"/>
      </defs>
      <g>
       <use style="fill:#ffffff;stroke:#ffffff;stroke-width:0.8;" x="60.321948" xlink:href="#m5bfbf36dee" y="187.088583"/>
      </g>
     </g>
     <g id="text_1">
      <!-- 9 -->
      <g style="fill:#ffffff;" transform="translate(57.514136 201.588583)scale(0.1 -0.1)">
       <defs>
        <path d="M 40.53125 31.25 
Q 37.703125 27.875 33.765625 25.828125 
Q 29.828125 23.78125 25.140625 23.78125 
Q 19 23.78125 14.421875 26.796875 
Q 9.859375 29.828125 7.375 35.328125 
Q 4.890625 40.828125 4.890625 47.46875 
Q 4.890625 54.59375 7.59375 60.296875 
Q 10.296875 66.015625 15.28125 69.046875 
Q 20.265625 72.078125 26.90625 72.078125 
Q 37.453125 72.078125 43.53125 64.1875 
Q 49.609375 56.296875 49.609375 42.671875 
L 49.609375 40.046875 
Q 49.609375 19.28125 41.40625 9.734375 
Q 33.203125 0.203125 16.65625 -0.046875 
L 14.890625 -0.046875 
L 14.890625 7.5625 
L 16.796875 7.5625 
Q 27.984375 7.765625 33.984375 13.40625 
Q 39.984375 19.046875 40.53125 31.25 
z
M 26.609375 31.25 
Q 31.15625 31.25 34.984375 34.03125 
Q 38.8125 36.8125 40.578125 40.921875 
L 40.578125 44.53125 
Q 40.578125 53.421875 36.71875 58.984375 
Q 32.859375 64.546875 26.953125 64.546875 
Q 21 64.546875 17.375 59.984375 
Q 13.765625 55.421875 13.765625 47.953125 
Q 13.765625 40.671875 17.25 35.953125 
Q 20.75 31.25 26.609375 31.25 
z
" id="Roboto-Regular-57"/>
       </defs>
       <use xlink:href="#Roboto-Regular-57"/>
      </g>
     </g>
    </g>
    <g id="xtick_2">
     <g id="line2d_2">
      <g>
       <use style="fill:#ffffff;stroke:#ffffff;stroke-width:0.8;" x="97.849889" xlink:href="#m5bfbf36dee" y="187.088583"/>
      </g>
     </g>
     <g id="text_2">
      <!-- 10 -->
      <g style="fill:#ffffff;" transform="translate(92.234264 201.588583)scale(0.1 -0.1)">
       <defs>
        <path d="M 35.59375 0 
L 26.515625 0 
L 26.515625 60.203125 
L 8.296875 53.515625 
L 8.296875 61.71875 
L 34.1875 71.4375 
L 35.59375 71.4375 
z
" id="Roboto-Regular-49"/>
        <path d="M 50.484375 30.328125 
Q 50.484375 14.453125 45.0625 6.734375 
Q 39.65625 -0.984375 28.125 -0.984375 
Q 16.75 -0.984375 11.28125 6.5625 
Q 5.8125 14.109375 5.609375 29.109375 
L 5.609375 41.15625 
Q 5.609375 56.84375 11.03125 64.453125 
Q 16.453125 72.078125 28.03125 72.078125 
Q 39.5 72.078125 44.921875 64.71875 
Q 50.34375 57.375 50.484375 42.046875 
z
M 41.453125 42.671875 
Q 41.453125 54.15625 38.234375 59.40625 
Q 35.015625 64.65625 28.03125 64.65625 
Q 21.09375 64.65625 17.921875 59.421875 
Q 14.75 54.203125 14.65625 43.359375 
L 14.65625 28.90625 
Q 14.65625 17.390625 18 11.890625 
Q 21.34375 6.390625 28.125 6.390625 
Q 34.8125 6.390625 38.0625 11.5625 
Q 41.3125 16.75 41.453125 27.875 
z
" id="Roboto-Regular-48"/>
       </defs>
       <use xlink:href="#Roboto-Regular-49"/>
       <use x="56.152344" xlink:href="#Roboto-Regular-48"/>
      </g>
     </g>
    </g>
    <g id="xtick_3">
     <g id="line2d_3">
      <g>
       <use style="fill:#ffffff;stroke:#ffffff;stroke-width:0.8;" x="135.37783" xlink:href="#m5bfbf36dee" y="187.088583"/>
      </g>
     </g>
     <g id="text_3">
      <!-- 11 -->
      <g style="fill:#ffffff;" transform="translate(129.762205 201.588583)scale(0.1 -0.1)">
       <use xlink:href="#Roboto-Regular-49"/>
       <use x="56.152344" xlink:href="#Roboto-Regular-49"/>
      </g>
     </g>
    </g>
    <g id="xtick_4">
     <g id="line2d_4">
      <g>
       <use style="fill:#ffffff;stroke:#ffffff;stroke-width:0.8;" x="172.905771" xlink:href="#m5bfbf36dee" y="187.088583"/>
      </g>
     </g>
     <g id="text_4">
      <!-- 12 -->
      <g style="fill:#ffffff;" transform="translate(167.290146 201.588583)scale(0.1 -0.1)">
       <defs>
        <path d="M 52.484375 0 
L 5.90625 0 
L 5.90625 6.5 
L 30.515625 33.84375 
Q 35.984375 40.046875 38.0625 43.921875 
Q 40.140625 47.796875 40.140625 51.953125 
Q 40.140625 57.515625 36.765625 61.078125 
Q 33.40625 64.65625 27.78125 64.65625 
Q 21.046875 64.65625 17.3125 60.8125 
Q 13.578125 56.984375 13.578125 50.140625 
L 4.546875 50.140625 
Q 4.546875 59.96875 10.859375 66.015625 
Q 17.1875 72.078125 27.78125 72.078125 
Q 37.703125 72.078125 43.453125 66.875 
Q 49.21875 61.671875 49.21875 53.03125 
Q 49.21875 42.53125 35.84375 28.03125 
L 16.796875 7.375 
L 52.484375 7.375 
z
" id="Roboto-Regular-50"/>
       </defs>
       <use xlink:href="#Roboto-Regular-49"/>
       <use x="56.152344" xlink:href="#Roboto-Regular-50"/>
      </g>
     </g>
    </g>
    <g id="xtick_5">
     <g id="line2d_5">
      <g>
       <use style="fill:#ffffff;stroke:#ffffff;stroke-width:0.8;" x="210.433712" xlink:href="#m5bfbf36dee" y="187.088583"/>
      </g>
     </g>
     <g id="text_5">
      <!-- 13 -->
      <g style="fill:#ffffff;" transform="translate(204.818087 201.588583)scale(0.1 -0.1)">
       <defs>
        <path d="M 19.046875 39.9375 
L 25.828125 39.9375 
Q 32.234375 40.046875 35.890625 43.3125 
Q 39.546875 46.578125 39.546875 52.15625 
Q 39.546875 64.65625 27.09375 64.65625 
Q 21.234375 64.65625 17.75 61.296875 
Q 14.265625 57.953125 14.265625 52.4375 
L 5.21875 52.4375 
Q 5.21875 60.890625 11.390625 66.484375 
Q 17.578125 72.078125 27.09375 72.078125 
Q 37.15625 72.078125 42.859375 66.75 
Q 48.578125 61.421875 48.578125 51.953125 
Q 48.578125 47.3125 45.578125 42.96875 
Q 42.578125 38.625 37.40625 36.46875 
Q 43.265625 34.625 46.453125 30.328125 
Q 49.65625 26.03125 49.65625 19.828125 
Q 49.65625 10.25 43.40625 4.625 
Q 37.15625 -0.984375 27.140625 -0.984375 
Q 17.140625 -0.984375 10.859375 4.4375 
Q 4.59375 9.859375 4.59375 18.75 
L 13.671875 18.75 
Q 13.671875 13.140625 17.328125 9.765625 
Q 21 6.390625 27.15625 6.390625 
Q 33.6875 6.390625 37.15625 9.8125 
Q 40.625 13.234375 40.625 19.625 
Q 40.625 25.828125 36.8125 29.140625 
Q 33.015625 32.46875 25.828125 32.5625 
L 19.046875 32.5625 
z
" id="Roboto-Regular-51"/>
       </defs>
       <use xlink:href="#Roboto-Regular-49"/>
       <use x="56.152344" xlink:href="#Roboto-Regular-51"/>
      </g>
     </g>
    </g>
    <g id="xtick_6">
     <g id="line2d_6">
      <g>
       <use style="fill:#ffffff;stroke:#ffffff;stroke-width:0.8;" x="247.961653" xlink:href="#m5bfbf36dee" y="187.088583"/>
      </g>
     </g>
     <g id="text_6">
      <!-- 14 -->
      <g style="fill:#ffffff;" transform="translate(242.346028 201.588583)scale(0.1 -0.1)">
       <defs>
        <path d="M 44.046875 23.875 
L 53.90625 23.875 
L 53.90625 16.5 
L 44.046875 16.5 
L 44.046875 0 
L 34.96875 0 
L 34.96875 16.5 
L 2.59375 16.5 
L 2.59375 21.828125 
L 34.421875 71.09375 
L 44.046875 71.09375 
z
M 12.84375 23.875 
L 34.96875 23.875 
L 34.96875 58.734375 
L 33.890625 56.78125 
z
" id="Roboto-Regular-52"/>
       </defs>
       <use xlink:href="#Roboto-Regular-49"/>
       <use x="56.152344" xlink:href="#Roboto-Regular-52"/>
      </g>
     </g>
    </g>
    <g id="xtick_7">
     <g id="line2d_7">
      <g>
       <use style="fill:#ffffff;stroke:#ffffff;stroke-width:0.8;" x="285.489594" xlink:href="#m5bfbf36dee" y="187.088583"/>
      </g>
     </g>
     <g id="text_7">
      <!-- 15 -->
      <g style="fill:#ffffff;" transform="translate(279.873969 201.588583)scale(0.1 -0.1)">
       <defs>
        <path d="M 10.0625 35.640625 
L 13.671875 71.09375 
L 50.09375 71.09375 
L 50.09375 62.75 
L 21.34375 62.75 
L 19.1875 43.359375 
Q 24.421875 46.4375 31.0625 46.4375 
Q 40.765625 46.4375 46.484375 40.015625 
Q 52.203125 33.59375 52.203125 22.65625 
Q 52.203125 11.671875 46.265625 5.34375 
Q 40.328125 -0.984375 29.6875 -0.984375 
Q 20.265625 -0.984375 14.296875 4.234375 
Q 8.34375 9.46875 7.515625 18.703125 
L 16.0625 18.703125 
Q 16.890625 12.59375 20.40625 9.484375 
Q 23.921875 6.390625 29.6875 6.390625 
Q 35.984375 6.390625 39.578125 10.6875 
Q 43.171875 14.984375 43.171875 22.5625 
Q 43.171875 29.6875 39.28125 34 
Q 35.40625 38.328125 28.953125 38.328125 
Q 23.046875 38.328125 19.671875 35.75 
L 17.28125 33.796875 
z
" id="Roboto-Regular-53"/>
       </defs>
       <use xlink:href="#Roboto-Regular-49"/>
       <use x="56.152344" xlink:href="#Roboto-Regular-53"/>
      </g>
     </g>
    </g>
    <g id="xtick_8">
     <g id="line2d_8">
      <g>
       <use style="fill:#ffffff;stroke:#ffffff;stroke-width:0.8;" x="323.017535" xlink:href="#m5bfbf36dee" y="187.088583"/>
      </g>
     </g>
     <g id="text_8">
      <!-- 16 -->
      <g style="fill:#ffffff;" transform="translate(317.40191 201.588583)scale(0.1 -0.1)">
       <defs>
        <path d="M 41.359375 71.140625 
L 41.359375 63.484375 
L 39.703125 63.484375 
Q 29.15625 63.28125 22.90625 57.21875 
Q 16.65625 51.171875 15.671875 40.1875 
Q 21.296875 46.625 31 46.625 
Q 40.28125 46.625 45.828125 40.078125 
Q 51.375 33.546875 51.375 23.1875 
Q 51.375 12.203125 45.390625 5.609375 
Q 39.40625 -0.984375 29.34375 -0.984375 
Q 19.140625 -0.984375 12.796875 6.859375 
Q 6.453125 14.703125 6.453125 27.046875 
L 6.453125 30.515625 
Q 6.453125 50.140625 14.8125 60.515625 
Q 23.1875 70.90625 39.75 71.140625 
z
M 29.5 39.109375 
Q 24.859375 39.109375 20.953125 36.328125 
Q 17.046875 33.546875 15.53125 29.34375 
L 15.53125 26.03125 
Q 15.53125 17.234375 19.484375 11.859375 
Q 23.4375 6.5 29.34375 6.5 
Q 35.453125 6.5 38.9375 10.984375 
Q 42.4375 15.484375 42.4375 22.75 
Q 42.4375 30.078125 38.890625 34.59375 
Q 35.359375 39.109375 29.5 39.109375 
z
" id="Roboto-Regular-54"/>
       </defs>
       <use xlink:href="#Roboto-Regular-49"/>
       <use x="56.152344" xlink:href="#Roboto-Regular-54"/>
      </g>
     </g>
    </g>
    <g id="text_9">
     <!-- V magnitude -->
     <g style="fill:#ffffff;" transform="translate(159.760698 215.119833)scale(0.1 -0.1)">
      <defs>
       <path d="M 31.78125 12.453125 
L 52.09375 71.09375 
L 62.359375 71.09375 
L 35.984375 0 
L 27.6875 0 
L 1.375 71.09375 
L 11.578125 71.09375 
z
" id="Roboto-Regular-86"/>
       <path id="Roboto-Regular-32"/>
       <path d="M 15.328125 52.828125 
L 15.578125 46.96875 
Q 21.390625 53.8125 31.25 53.8125 
Q 42.328125 53.8125 46.34375 45.3125 
Q 48.96875 49.125 53.1875 51.46875 
Q 57.421875 53.8125 63.1875 53.8125 
Q 80.5625 53.8125 80.859375 35.40625 
L 80.859375 0 
L 71.828125 0 
L 71.828125 34.859375 
Q 71.828125 40.53125 69.234375 43.328125 
Q 66.65625 46.140625 60.546875 46.140625 
Q 55.515625 46.140625 52.1875 43.140625 
Q 48.875 40.140625 48.34375 35.0625 
L 48.34375 0 
L 39.265625 0 
L 39.265625 34.625 
Q 39.265625 46.140625 27.984375 46.140625 
Q 19.09375 46.140625 15.828125 38.578125 
L 15.828125 0 
L 6.78125 0 
L 6.78125 52.828125 
z
" id="Roboto-Regular-109"/>
       <path d="M 39.453125 0 
Q 38.671875 1.5625 38.1875 5.5625 
Q 31.890625 -0.984375 23.140625 -0.984375 
Q 15.328125 -0.984375 10.328125 3.4375 
Q 5.328125 7.859375 5.328125 14.65625 
Q 5.328125 22.90625 11.59375 27.46875 
Q 17.875 32.03125 29.25 32.03125 
L 38.03125 32.03125 
L 38.03125 36.1875 
Q 38.03125 40.921875 35.203125 43.71875 
Q 32.375 46.53125 26.859375 46.53125 
Q 22.015625 46.53125 18.75 44.09375 
Q 15.484375 41.65625 15.484375 38.1875 
L 6.390625 38.1875 
Q 6.390625 42.140625 9.203125 45.828125 
Q 12.015625 49.515625 16.8125 51.65625 
Q 21.625 53.8125 27.390625 53.8125 
Q 36.53125 53.8125 41.703125 49.234375 
Q 46.875 44.671875 47.078125 36.671875 
L 47.078125 12.359375 
Q 47.078125 5.078125 48.921875 0.78125 
L 48.921875 0 
z
M 24.46875 6.890625 
Q 28.71875 6.890625 32.515625 9.078125 
Q 36.328125 11.28125 38.03125 14.796875 
L 38.03125 25.640625 
L 30.953125 25.640625 
Q 14.359375 25.640625 14.359375 15.921875 
Q 14.359375 11.671875 17.1875 9.28125 
Q 20.015625 6.890625 24.46875 6.890625 
z
" id="Roboto-Regular-97"/>
       <path d="M 4.6875 26.859375 
Q 4.6875 39.203125 10.390625 46.5 
Q 16.109375 53.8125 25.53125 53.8125 
Q 35.203125 53.8125 40.625 46.96875 
L 41.0625 52.828125 
L 49.3125 52.828125 
L 49.3125 1.265625 
Q 49.3125 -8.984375 43.234375 -14.890625 
Q 37.15625 -20.796875 26.90625 -20.796875 
Q 21.1875 -20.796875 15.71875 -18.359375 
Q 10.25 -15.921875 7.375 -11.671875 
L 12.0625 -6.25 
Q 17.875 -13.421875 26.265625 -13.421875 
Q 32.859375 -13.421875 36.546875 -9.703125 
Q 40.234375 -6 40.234375 0.734375 
L 40.234375 5.28125 
Q 34.8125 -0.984375 25.4375 -0.984375 
Q 16.15625 -0.984375 10.421875 6.484375 
Q 4.6875 13.96875 4.6875 26.859375 
z
M 13.765625 25.828125 
Q 13.765625 16.890625 17.421875 11.78125 
Q 21.09375 6.6875 27.6875 6.6875 
Q 36.234375 6.6875 40.234375 14.453125 
L 40.234375 38.578125 
Q 36.078125 46.140625 27.78125 46.140625 
Q 21.1875 46.140625 17.46875 41.015625 
Q 13.765625 35.890625 13.765625 25.828125 
z
" id="Roboto-Regular-103"/>
       <path d="M 15.375 52.828125 
L 15.671875 46.1875 
Q 21.734375 53.8125 31.5 53.8125 
Q 48.25 53.8125 48.390625 34.90625 
L 48.390625 0 
L 39.359375 0 
L 39.359375 34.96875 
Q 39.3125 40.671875 36.75 43.40625 
Q 34.1875 46.140625 28.765625 46.140625 
Q 24.359375 46.140625 21.03125 43.796875 
Q 17.71875 41.453125 15.875 37.640625 
L 15.875 0 
L 6.84375 0 
L 6.84375 52.828125 
z
" id="Roboto-Regular-110"/>
       <path d="M 16.65625 0 
L 7.625 0 
L 7.625 52.828125 
L 16.65625 52.828125 
z
M 6.890625 66.84375 
Q 6.890625 69.046875 8.234375 70.5625 
Q 9.578125 72.078125 12.203125 72.078125 
Q 14.84375 72.078125 16.203125 70.5625 
Q 17.578125 69.046875 17.578125 66.84375 
Q 17.578125 64.65625 16.203125 63.1875 
Q 14.84375 61.71875 12.203125 61.71875 
Q 9.578125 61.71875 8.234375 63.1875 
Q 6.890625 64.65625 6.890625 66.84375 
z
" id="Roboto-Regular-105"/>
       <path d="M 19.09375 65.625 
L 19.09375 52.828125 
L 28.953125 52.828125 
L 28.953125 45.84375 
L 19.09375 45.84375 
L 19.09375 13.09375 
Q 19.09375 9.90625 20.40625 8.3125 
Q 21.734375 6.734375 24.90625 6.734375 
Q 26.46875 6.734375 29.203125 7.328125 
L 29.203125 0 
Q 25.640625 -0.984375 22.265625 -0.984375 
Q 16.21875 -0.984375 13.140625 2.671875 
Q 10.0625 6.34375 10.0625 13.09375 
L 10.0625 45.84375 
L 0.4375 45.84375 
L 0.4375 52.828125 
L 10.0625 52.828125 
L 10.0625 65.625 
z
" id="Roboto-Regular-116"/>
       <path d="M 39.453125 5.21875 
Q 34.1875 -0.984375 23.96875 -0.984375 
Q 15.53125 -0.984375 11.109375 3.921875 
Q 6.6875 8.84375 6.640625 18.453125 
L 6.640625 52.828125 
L 15.671875 52.828125 
L 15.671875 18.703125 
Q 15.671875 6.6875 25.4375 6.6875 
Q 35.796875 6.6875 39.203125 14.40625 
L 39.203125 52.828125 
L 48.25 52.828125 
L 48.25 0 
L 39.65625 0 
z
" id="Roboto-Regular-117"/>
       <path d="M 4.640625 26.859375 
Q 4.640625 39.015625 10.390625 46.40625 
Q 16.15625 53.8125 25.484375 53.8125 
Q 34.765625 53.8125 40.1875 47.46875 
L 40.1875 75 
L 49.21875 75 
L 49.21875 0 
L 40.921875 0 
L 40.484375 5.671875 
Q 35.0625 -0.984375 25.390625 -0.984375 
Q 16.21875 -0.984375 10.421875 6.53125 
Q 4.640625 14.0625 4.640625 26.171875 
z
M 13.671875 25.828125 
Q 13.671875 16.84375 17.375 11.765625 
Q 21.09375 6.6875 27.640625 6.6875 
Q 36.234375 6.6875 40.1875 14.40625 
L 40.1875 38.671875 
Q 36.140625 46.140625 27.734375 46.140625 
Q 21.09375 46.140625 17.375 41.015625 
Q 13.671875 35.890625 13.671875 25.828125 
z
" id="Roboto-Regular-100"/>
       <path d="M 28.765625 -0.984375 
Q 18.015625 -0.984375 11.28125 6.078125 
Q 4.546875 13.140625 4.546875 24.953125 
L 4.546875 26.609375 
Q 4.546875 34.46875 7.546875 40.640625 
Q 10.546875 46.828125 15.9375 50.3125 
Q 21.34375 53.8125 27.640625 53.8125 
Q 37.9375 53.8125 43.640625 47.015625 
Q 49.359375 40.234375 49.359375 27.59375 
L 49.359375 23.828125 
L 13.578125 23.828125 
Q 13.765625 16.015625 18.140625 11.203125 
Q 22.515625 6.390625 29.25 6.390625 
Q 34.03125 6.390625 37.34375 8.34375 
Q 40.671875 10.296875 43.171875 13.53125 
L 48.6875 9.234375 
Q 42.046875 -0.984375 28.765625 -0.984375 
z
M 27.640625 46.390625 
Q 22.171875 46.390625 18.453125 42.40625 
Q 14.75 38.421875 13.875 31.25 
L 40.328125 31.25 
L 40.328125 31.9375 
Q 39.9375 38.8125 36.609375 42.59375 
Q 33.296875 46.390625 27.640625 46.390625 
z
" id="Roboto-Regular-101"/>
      </defs>
      <use xlink:href="#Roboto-Regular-86"/>
      <use x="63.623047" xlink:href="#Roboto-Regular-32"/>
      <use x="88.378906" xlink:href="#Roboto-Regular-109"/>
      <use x="176.025391" xlink:href="#Roboto-Regular-97"/>
      <use x="230.419922" xlink:href="#Roboto-Regular-103"/>
      <use x="286.523438" xlink:href="#Roboto-Regular-110"/>
      <use x="341.699219" xlink:href="#Roboto-Regular-105"/>
      <use x="365.966797" xlink:href="#Roboto-Regular-116"/>
      <use x="398.632812" xlink:href="#Roboto-Regular-117"/>
      <use x="453.759766" xlink:href="#Roboto-Regular-100"/>
      <use x="510.15625" xlink:href="#Roboto-Regular-101"/>
     </g>
    </g>
   </g>
   <g id="matplotlib.axis_2">
    <g id="ytick_1">
     <g id="line2d_9">
      <defs>
       <path d="M 0 0 
L -3.5 0 
" id="m1a1f436343" style="stroke:#ffffff;stroke-width:0.8;"/>
      </defs>
      <g>
       <use style="fill:#ffffff;stroke:#ffffff;stroke-width:0.8;" x="43.434375" xlink:href="#m1a1f436343" y="149.118227"/>
      </g>
     </g>
     <g id="text_10">
      <!-- $\mathdefault{10^{2}}$ -->
      <g style="fill:#ffffff;" transform="translate(20.834375 152.868227)scale(0.1 -0.1)">
       <use transform="translate(0 0.565625)" xlink:href="#Roboto-Regular-49"/>
       <use transform="translate(56.152344 0.565625)" xlink:href="#Roboto-Regular-48"/>
       <use transform="translate(113.22918 37.545313)scale(0.7)" xlink:href="#Roboto-Regular-50"/>
      </g>
     </g>
    </g>
    <g id="ytick_2">
     <g id="line2d_10">
      <g>
       <use style="fill:#ffffff;stroke:#ffffff;stroke-width:0.8;" x="43.434375" xlink:href="#m1a1f436343" y="98.191313"/>
      </g>
     </g>
     <g id="text_11">
      <!-- $\mathdefault{10^{3}}$ -->
      <g style="fill:#ffffff;" transform="translate(20.834375 101.941313)scale(0.1 -0.1)">
       <use transform="translate(0 0.565625)" xlink:href="#Roboto-Regular-49"/>
       <use transform="translate(56.152344 0.565625)" xlink:href="#Roboto-Regular-48"/>
       <use transform="translate(113.22918 37.545313)scale(0.7)" xlink:href="#Roboto-Regular-51"/>
      </g>
     </g>
    </g>
    <g id="ytick_3">
     <g id="line2d_11">
      <g>
       <use style="fill:#ffffff;stroke:#ffffff;stroke-width:0.8;" x="43.434375" xlink:href="#m1a1f436343" y="47.264399"/>
      </g>
     </g>
     <g id="text_12">
      <!-- $\mathdefault{10^{4}}$ -->
      <g style="fill:#ffffff;" transform="translate(20.834375 51.014399)scale(0.1 -0.1)">
       <use transform="translate(0 0.254688)" xlink:href="#Roboto-Regular-49"/>
       <use transform="translate(56.152344 0.254688)" xlink:href="#Roboto-Regular-48"/>
       <use transform="translate(113.22918 37.234375)scale(0.7)" xlink:href="#Roboto-Regular-52"/>
      </g>
     </g>
    </g>
    <g id="ytick_4">
     <g id="line2d_12">
      <defs>
       <path d="M 0 0 
L -2 0 
" id="m6ec2d81bf2" style="stroke:#ffffff;stroke-width:0.6;"/>
      </defs>
      <g>
       <use style="fill:#ffffff;stroke:#ffffff;stroke-width:0.6;" x="43.434375" xlink:href="#m6ec2d81bf2" y="184.714612"/>
      </g>
     </g>
    </g>
    <g id="ytick_5">
     <g id="line2d_13">
      <g>
       <use style="fill:#ffffff;stroke:#ffffff;stroke-width:0.6;" x="43.434375" xlink:href="#m6ec2d81bf2" y="175.746828"/>
      </g>
     </g>
    </g>
    <g id="ytick_6">
     <g id="line2d_14">
      <g>
       <use style="fill:#ffffff;stroke:#ffffff;stroke-width:0.6;" x="43.434375" xlink:href="#m6ec2d81bf2" y="169.384083"/>
      </g>
     </g>
    </g>
    <g id="ytick_7">
     <g id="line2d_15">
      <g>
       <use style="fill:#ffffff;stroke:#ffffff;stroke-width:0.6;" x="43.434375" xlink:href="#m6ec2d81bf2" y="164.448755"/>
      </g>
     </g>
    </g>
    <g id="ytick_8">
     <g id="line2d_16">
      <g>
       <use style="fill:#ffffff;stroke:#ffffff;stroke-width:0.6;" x="43.434375" xlink:href="#m6ec2d81bf2" y="160.416299"/>
      </g>
     </g>
    </g>
    <g id="ytick_9">
     <g id="line2d_17">
      <g>
       <use style="fill:#ffffff;stroke:#ffffff;stroke-width:0.6;" x="43.434375" xlink:href="#m6ec2d81bf2" y="157.006906"/>
      </g>
     </g>
    </g>
    <g id="ytick_10">
     <g id="line2d_18">
      <g>
       <use style="fill:#ffffff;stroke:#ffffff;stroke-width:0.6;" x="43.434375" xlink:href="#m6ec2d81bf2" y="154.053555"/>
      </g>
     </g>
    </g>
    <g id="ytick_11">
     <g id="line2d_19">
      <g>
       <use style="fill:#ffffff;stroke:#ffffff;stroke-width:0.6;" x="43.434375" xlink:href="#m6ec2d81bf2" y="151.448515"/>
      </g>
     </g>
    </g>
    <g id="ytick_12">
     <g id="line2d_20">
      <g>
       <use style="fill:#ffffff;stroke:#ffffff;stroke-width:0.6;" x="43.434375" xlink:href="#m6ec2d81bf2" y="133.787698"/>
      </g>
     </g>
    </g>
    <g id="ytick_13">
     <g id="line2d_21">
      <g>
       <use style="fill:#ffffff;stroke:#ffffff;stroke-width:0.6;" x="43.434375" xlink:href="#m6ec2d81bf2" y="124.819914"/>
      </g>
     </g>
    </g>
    <g id="ytick_14">
     <g id="line2d_22">
      <g>
       <use style="fill:#ffffff;stroke:#ffffff;stroke-width:0.6;" x="43.434375" xlink:href="#m6ec2d81bf2" y="118.457169"/>
      </g>
     </g>
    </g>
    <g id="ytick_15">
     <g id="line2d_23">
      <g>
       <use style="fill:#ffffff;stroke:#ffffff;stroke-width:0.6;" x="43.434375" xlink:href="#m6ec2d81bf2" y="113.521842"/>
      </g>
     </g>
    </g>
    <g id="ytick_16">
     <g id="line2d_24">
      <g>
       <use style="fill:#ffffff;stroke:#ffffff;stroke-width:0.6;" x="43.434375" xlink:href="#m6ec2d81bf2" y="109.489385"/>
      </g>
     </g>
    </g>
    <g id="ytick_17">
     <g id="line2d_25">
      <g>
       <use style="fill:#ffffff;stroke:#ffffff;stroke-width:0.6;" x="43.434375" xlink:href="#m6ec2d81bf2" y="106.079992"/>
      </g>
     </g>
    </g>
    <g id="ytick_18">
     <g id="line2d_26">
      <g>
       <use style="fill:#ffffff;stroke:#ffffff;stroke-width:0.6;" x="43.434375" xlink:href="#m6ec2d81bf2" y="103.126641"/>
      </g>
     </g>
    </g>
    <g id="ytick_19">
     <g id="line2d_27">
      <g>
       <use style="fill:#ffffff;stroke:#ffffff;stroke-width:0.6;" x="43.434375" xlink:href="#m6ec2d81bf2" y="100.521601"/>
      </g>
     </g>
    </g>
    <g id="ytick_20">
     <g id="line2d_28">
      <g>
       <use style="fill:#ffffff;stroke:#ffffff;stroke-width:0.6;" x="43.434375" xlink:href="#m6ec2d81bf2" y="82.860784"/>
      </g>
     </g>
    </g>
    <g id="ytick_21">
     <g id="line2d_29">
      <g>
       <use style="fill:#ffffff;stroke:#ffffff;stroke-width:0.6;" x="43.434375" xlink:href="#m6ec2d81bf2" y="73.893"/>
      </g>
     </g>
    </g>
    <g id="ytick_22">
     <g id="line2d_30">
      <g>
       <use style="fill:#ffffff;stroke:#ffffff;stroke-width:0.6;" x="43.434375" xlink:href="#m6ec2d81bf2" y="67.530256"/>
      </g>
     </g>
    </g>
    <g id="ytick_23">
     <g id="line2d_31">
      <g>
       <use style="fill:#ffffff;stroke:#ffffff;stroke-width:0.6;" x="43.434375" xlink:href="#m6ec2d81bf2" y="62.594928"/>
      </g>
     </g>
    </g>
    <g id="ytick_24">
     <g id="line2d_32">
      <g>
       <use style="fill:#ffffff;stroke:#ffffff;stroke-width:0.6;" x="43.434375" xlink:href="#m6ec2d81bf2" y="58.562471"/>
      </g>
     </g>
    </g>
    <g id="ytick_25">
     <g id="line2d_33">
      <g>
       <use style="fill:#ffffff;stroke:#ffffff;stroke-width:0.6;" x="43.434375" xlink:href="#m6ec2d81bf2" y="55.153078"/>
      </g>
     </g>
    </g>
    <g id="ytick_26">
     <g id="line2d_34">
      <g>
       <use style="fill:#ffffff;stroke:#ffffff;stroke-width:0.6;" x="43.434375" xlink:href="#m6ec2d81bf2" y="52.199727"/>
      </g>
     </g>
    </g>
    <g id="ytick_27">
     <g id="line2d_35">
      <g>
       <use style="fill:#ffffff;stroke:#ffffff;stroke-width:0.6;" x="43.434375" xlink:href="#m6ec2d81bf2" y="49.594687"/>
      </g>
     </g>
    </g>
    <g id="ytick_28">
     <g id="line2d_36">
      <g>
       <use style="fill:#ffffff;stroke:#ffffff;stroke-width:0.6;" x="43.434375" xlink:href="#m6ec2d81bf2" y="31.93387"/>
      </g>
     </g>
    </g>
    <g id="ytick_29">
     <g id="line2d_37">
      <g>
       <use style="fill:#ffffff;stroke:#ffffff;stroke-width:0.6;" x="43.434375" xlink:href="#m6ec2d81bf2" y="22.966086"/>
      </g>
     </g>
    </g>
    <g id="ytick_30">
     <g id="line2d_38">
      <g>
       <use style="fill:#ffffff;stroke:#ffffff;stroke-width:0.6;" x="43.434375" xlink:href="#m6ec2d81bf2" y="16.603342"/>
      </g>
     </g>
    </g>
    <g id="ytick_31">
     <g id="line2d_39">
      <g>
       <use style="fill:#ffffff;stroke:#ffffff;stroke-width:0.6;" x="43.434375" xlink:href="#m6ec2d81bf2" y="11.668014"/>
      </g>
     </g>
    </g>
    <g id="ytick_32">
     <g id="line2d_40">
      <g>
       <use style="fill:#ffffff;stroke:#ffffff;stroke-width:0.6;" x="43.434375" xlink:href="#m6ec2d81bf2" y="7.635557"/>
      </g>
     </g>
    </g>
    <g id="text_13">
     <!-- Number of spectra -->
     <g style="fill:#ffffff;" transform="translate(14.803125 138.752104)rotate(-90)scale(0.1 -0.1)">
      <defs>
       <path d="M 62.890625 0 
L 53.46875 0 
L 17.671875 54.78125 
L 17.671875 0 
L 8.25 0 
L 8.25 71.09375 
L 17.671875 71.09375 
L 53.5625 16.0625 
L 53.5625 71.09375 
L 62.890625 71.09375 
z
" id="Roboto-Regular-78"/>
       <path d="M 51.5625 25.828125 
Q 51.5625 13.71875 46 6.359375 
Q 40.4375 -0.984375 31.0625 -0.984375 
Q 21.046875 -0.984375 15.578125 6.109375 
L 15.140625 0 
L 6.84375 0 
L 6.84375 75 
L 15.875 75 
L 15.875 47.015625 
Q 21.34375 53.8125 30.953125 53.8125 
Q 40.578125 53.8125 46.0625 46.53125 
Q 51.5625 39.265625 51.5625 26.609375 
z
M 42.53125 26.859375 
Q 42.53125 36.078125 38.96875 41.109375 
Q 35.40625 46.140625 28.71875 46.140625 
Q 19.78125 46.140625 15.875 37.84375 
L 15.875 14.984375 
Q 20.015625 6.6875 28.8125 6.6875 
Q 35.296875 6.6875 38.90625 11.71875 
Q 42.53125 16.75 42.53125 26.859375 
z
" id="Roboto-Regular-98"/>
       <path d="M 32.375 44.734375 
Q 30.328125 45.0625 27.9375 45.0625 
Q 19.046875 45.0625 15.875 37.5 
L 15.875 0 
L 6.84375 0 
L 6.84375 52.828125 
L 15.625 52.828125 
L 15.765625 46.734375 
Q 20.21875 53.8125 28.375 53.8125 
Q 31 53.8125 32.375 53.125 
z
" id="Roboto-Regular-114"/>
       <path d="M 4.4375 26.90625 
Q 4.4375 34.671875 7.484375 40.875 
Q 10.546875 47.078125 15.984375 50.4375 
Q 21.4375 53.8125 28.421875 53.8125 
Q 39.203125 53.8125 45.875 46.34375 
Q 52.546875 38.875 52.546875 26.46875 
L 52.546875 25.828125 
Q 52.546875 18.109375 49.578125 11.984375 
Q 46.625 5.859375 41.125 2.4375 
Q 35.640625 -0.984375 28.515625 -0.984375 
Q 17.78125 -0.984375 11.109375 6.484375 
Q 4.4375 13.96875 4.4375 26.265625 
z
M 13.53125 25.828125 
Q 13.53125 17.046875 17.609375 11.71875 
Q 21.6875 6.390625 28.515625 6.390625 
Q 35.40625 6.390625 39.453125 11.78125 
Q 43.5 17.1875 43.5 26.90625 
Q 43.5 35.59375 39.375 40.984375 
Q 35.25 46.390625 28.421875 46.390625 
Q 21.734375 46.390625 17.625 41.0625 
Q 13.53125 35.75 13.53125 25.828125 
z
" id="Roboto-Regular-111"/>
       <path d="M 11.28125 0 
L 11.28125 45.84375 
L 2.9375 45.84375 
L 2.9375 52.828125 
L 11.28125 52.828125 
L 11.28125 58.25 
Q 11.28125 66.75 15.8125 71.390625 
Q 20.359375 76.03125 28.65625 76.03125 
Q 31.78125 76.03125 34.859375 75.203125 
L 34.375 67.875 
Q 32.078125 68.3125 29.5 68.3125 
Q 25.09375 68.3125 22.703125 65.75 
Q 20.3125 63.1875 20.3125 58.40625 
L 20.3125 52.828125 
L 31.59375 52.828125 
L 31.59375 45.84375 
L 20.3125 45.84375 
L 20.3125 0 
z
" id="Roboto-Regular-102"/>
       <path d="M 37.59375 14.015625 
Q 37.59375 17.671875 34.828125 19.703125 
Q 32.078125 21.734375 25.21875 23.1875 
Q 18.359375 24.65625 14.328125 26.703125 
Q 10.296875 28.765625 8.375 31.59375 
Q 6.453125 34.421875 6.453125 38.328125 
Q 6.453125 44.828125 11.9375 49.3125 
Q 17.4375 53.8125 25.984375 53.8125 
Q 34.96875 53.8125 40.546875 49.171875 
Q 46.140625 44.53125 46.140625 37.3125 
L 37.0625 37.3125 
Q 37.0625 41.015625 33.90625 43.703125 
Q 30.765625 46.390625 25.984375 46.390625 
Q 21.046875 46.390625 18.265625 44.234375 
Q 15.484375 42.09375 15.484375 38.625 
Q 15.484375 35.359375 18.0625 33.6875 
Q 20.65625 32.03125 27.421875 30.515625 
Q 34.1875 29 38.375 26.90625 
Q 42.578125 24.8125 44.59375 21.84375 
Q 46.625 18.890625 46.625 14.65625 
Q 46.625 7.5625 40.953125 3.28125 
Q 35.296875 -0.984375 26.265625 -0.984375 
Q 19.921875 -0.984375 15.03125 1.265625 
Q 10.15625 3.515625 7.390625 7.546875 
Q 4.640625 11.578125 4.640625 16.265625 
L 13.671875 16.265625 
Q 13.921875 11.71875 17.3125 9.046875 
Q 20.703125 6.390625 26.265625 6.390625 
Q 31.390625 6.390625 34.484375 8.46875 
Q 37.59375 10.546875 37.59375 14.015625 
z
" id="Roboto-Regular-115"/>
       <path d="M 51.46875 25.828125 
Q 51.46875 13.765625 45.953125 6.390625 
Q 40.4375 -0.984375 31 -0.984375 
Q 21.390625 -0.984375 15.875 5.125 
L 15.875 -20.3125 
L 6.84375 -20.3125 
L 6.84375 52.828125 
L 15.09375 52.828125 
L 15.53125 46.96875 
Q 21.046875 53.8125 30.859375 53.8125 
Q 40.375 53.8125 45.921875 46.625 
Q 51.46875 39.453125 51.46875 26.65625 
z
M 42.4375 26.859375 
Q 42.4375 35.796875 38.625 40.96875 
Q 34.8125 46.140625 28.171875 46.140625 
Q 19.96875 46.140625 15.875 38.875 
L 15.875 13.625 
Q 19.921875 6.390625 28.265625 6.390625 
Q 34.765625 6.390625 38.59375 11.546875 
Q 42.4375 16.703125 42.4375 26.859375 
z
" id="Roboto-Regular-112"/>
       <path d="M 28.03125 6.390625 
Q 32.859375 6.390625 36.46875 9.3125 
Q 40.09375 12.25 40.484375 16.65625 
L 49.03125 16.65625 
Q 48.78125 12.109375 45.890625 8 
Q 43.015625 3.90625 38.203125 1.453125 
Q 33.40625 -0.984375 28.03125 -0.984375 
Q 17.234375 -0.984375 10.859375 6.21875 
Q 4.5 13.421875 4.5 25.921875 
L 4.5 27.4375 
Q 4.5 35.15625 7.328125 41.15625 
Q 10.15625 47.171875 15.453125 50.484375 
Q 20.75 53.8125 27.984375 53.8125 
Q 36.859375 53.8125 42.75 48.484375 
Q 48.640625 43.171875 49.03125 34.671875 
L 40.484375 34.671875 
Q 40.09375 39.796875 36.59375 43.09375 
Q 33.109375 46.390625 27.984375 46.390625 
Q 21.09375 46.390625 17.3125 41.421875 
Q 13.53125 36.46875 13.53125 27.09375 
L 13.53125 25.390625 
Q 13.53125 16.265625 17.28125 11.328125 
Q 21.046875 6.390625 28.03125 6.390625 
z
" id="Roboto-Regular-99"/>
      </defs>
      <use xlink:href="#Roboto-Regular-78"/>
      <use x="71.289062" xlink:href="#Roboto-Regular-117"/>
      <use x="126.416016" xlink:href="#Roboto-Regular-109"/>
      <use x="214.0625" xlink:href="#Roboto-Regular-98"/>
      <use x="270.166016" xlink:href="#Roboto-Regular-101"/>
      <use x="323.144531" xlink:href="#Roboto-Regular-114"/>
      <use x="356.982422" xlink:href="#Roboto-Regular-32"/>
      <use x="381.738281" xlink:href="#Roboto-Regular-111"/>
      <use x="438.769531" xlink:href="#Roboto-Regular-102"/>
      <use x="473.486328" xlink:href="#Roboto-Regular-32"/>
      <use x="498.242188" xlink:href="#Roboto-Regular-115"/>
      <use x="549.804688" xlink:href="#Roboto-Regular-112"/>
      <use x="605.908203" xlink:href="#Roboto-Regular-101"/>
      <use x="658.886719" xlink:href="#Roboto-Regular-99"/>
      <use x="711.230469" xlink:href="#Roboto-Regular-116"/>
      <use x="743.896484" xlink:href="#Roboto-Regular-114"/>
      <use x="777.734375" xlink:href="#Roboto-Regular-97"/>
     </g>
    </g>
   </g>
   <g id="patch_3">
    <path clip-path="url(#p46073dc16d)" d="M 60.321948 225.39952 
L 60.321948 130.600591 
L 64.074742 130.600591 
L 64.074742 123.186114 
L 67.827537 123.186114 
L 67.827537 120.726106 
L 71.580331 120.726106 
L 71.580331 118.960492 
L 75.333125 118.960492 
L 75.333125 114.843349 
L 82.838713 114.749632 
L 82.838713 112.611894 
L 86.591507 112.611894 
L 86.591507 109.123802 
L 90.344301 109.123802 
L 90.344301 105.426231 
L 94.097095 105.426231 
L 94.097095 104.116077 
L 97.849889 104.116077 
L 97.849889 102.126667 
L 101.602683 102.126667 
L 101.602683 100.843402 
L 105.355478 100.843402 
L 105.355478 97.905641 
L 109.108272 97.905641 
L 109.108272 95.080935 
L 112.861066 95.080935 
L 112.861066 92.286685 
L 116.61386 92.286685 
L 116.61386 89.38632 
L 120.366654 89.38632 
L 120.366654 87.236497 
L 124.119448 87.236497 
L 124.119448 86.559588 
L 127.872242 86.559588 
L 127.872242 82.564198 
L 131.625036 82.564198 
L 131.625036 81.281832 
L 135.37783 81.281832 
L 135.37783 79.426128 
L 139.130624 79.426128 
L 139.130624 76.570038 
L 142.883418 76.570038 
L 142.883418 75.011952 
L 146.636212 75.011952 
L 146.636212 72.163543 
L 150.389007 72.163543 
L 150.389007 70.033239 
L 154.141801 70.033239 
L 154.141801 67.591162 
L 157.894595 67.591162 
L 157.894595 65.619167 
L 161.647389 65.619167 
L 161.647389 63.132216 
L 165.400183 63.132216 
L 165.400183 60.199269 
L 169.152977 60.199269 
L 169.152977 58.012742 
L 172.905771 58.012742 
L 172.905771 48.128139 
L 176.658565 48.128139 
L 176.658565 45.354325 
L 180.411359 45.354325 
L 180.411359 43.658093 
L 184.164153 43.658093 
L 184.164153 42.033795 
L 187.916947 42.033795 
L 187.916947 40.421432 
L 191.669742 40.421432 
L 191.669742 38.873217 
L 195.422536 38.873217 
L 195.422536 36.687479 
L 199.17533 36.687479 
L 199.17533 34.805224 
L 202.928124 34.805224 
L 202.928124 32.982365 
L 206.680918 32.982365 
L 206.680918 31.613293 
L 210.433712 31.613293 
L 210.433712 30.07864 
L 214.186506 30.07864 
L 214.186506 28.118115 
L 217.9393 28.118115 
L 217.9393 26.222296 
L 221.692094 26.222296 
L 221.692094 24.623535 
L 225.444888 24.623535 
L 225.444888 23.25699 
L 229.197682 23.25699 
L 229.197682 21.572563 
L 232.950477 21.572563 
L 232.950477 19.903158 
L 236.703271 19.903158 
L 236.703271 18.153184 
L 240.456065 18.153184 
L 240.456065 16.893312 
L 244.208859 16.893312 
L 244.208859 15.376754 
L 247.961653 15.376754 
L 247.961653 83.729124 
L 251.714447 83.729124 
L 251.714447 225.39952 
L 251.714447 225.39952 
" style="fill:none;stroke:#8dd3c7;stroke-linejoin:miter;"/>
   </g>
   <g id="patch_4">
    <path clip-path="url(#p46073dc16d)" d="M 172.905771 225.39952 
L 172.905771 116.349168 
L 176.658565 116.349168 
L 176.658565 115.222241 
L 180.411359 115.222241 
L 180.411359 110.392256 
L 184.164153 110.392256 
L 184.164153 111.41384 
L 187.916947 111.41384 
L 187.916947 110.93647 
L 191.669742 110.93647 
L 191.669742 109.861113 
L 195.422536 109.861113 
L 195.422536 106.818909 
L 199.17533 106.818909 
L 199.17533 105.549276 
L 202.928124 105.549276 
L 202.928124 103.97199 
L 206.680918 103.97199 
L 206.680918 104.524587 
L 210.433712 104.524587 
L 210.433712 102.688661 
L 214.186506 102.688661 
L 214.186506 100.694296 
L 217.9393 100.694296 
L 217.9393 98.458326 
L 221.692094 98.458326 
L 221.692094 97.559036 
L 225.444888 97.559036 
L 225.444888 96.003031 
L 232.950477 95.92304 
L 232.950477 93.062204 
L 236.703271 93.062204 
L 236.703271 91.668797 
L 240.456065 91.668797 
L 240.456065 91.003687 
L 244.208859 91.003687 
L 244.208859 88.98886 
L 251.714447 88.98886 
L 251.714447 88.526864 
L 255.467241 88.526864 
L 255.467241 85.662991 
L 259.220035 85.662991 
L 259.220035 154.613516 
L 262.972829 154.613516 
L 262.972829 225.39952 
L 262.972829 225.39952 
" style="fill:none;stroke:#feffb3;stroke-linejoin:miter;"/>
   </g>
   <g id="patch_5">
    <path clip-path="url(#p46073dc16d)" d="M 97.849889 225.39952 
L 97.849889 119.417713 
L 101.602683 119.417713 
L 101.602683 116.298958 
L 105.355478 116.298958 
L 105.355478 113.654945 
L 109.108272 113.654945 
L 109.108272 112.825177 
L 112.861066 112.825177 
L 112.861066 109.452554 
L 116.61386 109.452554 
L 116.61386 107.515835 
L 120.366654 107.515835 
L 120.366654 104.940785 
L 124.119448 104.940785 
L 124.119448 102.8246 
L 127.872242 102.8246 
L 127.872242 100.252917 
L 131.625036 100.252917 
L 131.625036 98.956381 
L 135.37783 98.956381 
L 135.37783 97.38775 
L 139.130624 97.38775 
L 139.130624 96.550667 
L 142.883418 96.550667 
L 142.883418 92.957217 
L 146.636212 92.957217 
L 146.636212 90.955797 
L 150.389007 90.955797 
L 150.389007 88.441304 
L 154.141801 88.441304 
L 154.141801 87.07535 
L 157.894595 87.07535 
L 157.894595 85.044113 
L 161.647389 85.044113 
L 161.647389 82.217763 
L 165.400183 82.217763 
L 165.400183 80.762838 
L 169.152977 80.762838 
L 169.152977 78.763913 
L 172.905771 78.763913 
L 172.905771 76.545089 
L 176.658565 76.545089 
L 176.658565 76.174193 
L 180.411359 76.174193 
L 180.411359 75.011952 
L 184.164153 75.011952 
L 184.164153 74.279727 
L 187.916947 74.279727 
L 187.916947 74.872801 
L 191.669742 74.872801 
L 191.669742 73.702143 
L 195.422536 73.702143 
L 195.422536 73.382859 
L 199.17533 73.382859 
L 199.17533 72.115869 
L 202.928124 72.115869 
L 202.928124 72.355273 
L 206.680918 72.355273 
L 206.680918 72.898311 
L 210.433712 72.898311 
L 210.433712 78.372285 
L 214.186506 78.372285 
L 214.186506 77.092054 
L 217.9393 77.092054 
L 217.9393 75.206682 
L 221.692094 75.206682 
L 221.692094 73.893 
L 225.444888 73.893 
L 225.444888 72.673911 
L 229.197682 72.673911 
L 229.197682 71.838681 
L 232.950477 71.838681 
L 232.950477 71.170314 
L 236.703271 71.170314 
L 236.703271 70.872478 
L 240.456065 70.872478 
L 240.456065 70.439416 
L 244.208859 70.439416 
L 244.208859 68.804855 
L 247.961653 68.804855 
L 247.961653 72.109067 
L 251.714447 72.109067 
L 251.714447 72.389686 
L 255.467241 72.389686 
L 255.467241 71.485437 
L 259.220035 71.485437 
L 259.220035 71.014421 
L 262.972829 71.014421 
L 262.972829 72.403466 
L 266.725623 72.403466 
L 266.725623 75.995104 
L 270.478418 75.995104 
L 270.478418 76.922312 
L 274.231212 76.922312 
L 274.231212 77.872438 
L 277.984006 77.872438 
L 277.984006 79.125208 
L 281.7368 79.125208 
L 281.7368 79.827403 
L 285.489594 79.827403 
L 285.489594 119.708352 
L 289.242388 119.708352 
L 289.242388 124.59984 
L 292.995182 124.59984 
L 292.995182 125.799715 
L 296.747976 125.799715 
L 296.747976 124.309773 
L 300.50077 124.309773 
L 300.50077 123.740808 
L 304.253564 123.740808 
L 304.253564 122.644991 
L 308.006358 122.644991 
L 308.006358 117.325466 
L 311.759152 117.325466 
L 311.759152 118.457169 
L 315.511947 118.457169 
L 315.511947 178.911829 
L 319.264741 178.911829 
L 319.264741 225.39952 
L 319.264741 225.39952 
" style="fill:none;stroke:#bfbbd9;stroke-linejoin:miter;"/>
   </g>
   <g id="patch_6">
    <path clip-path="url(#p46073dc16d)" d="M 97.849889 225.39952 
L 97.849889 125.493589 
L 101.602683 125.493589 
L 101.602683 125.722785 
L 105.355478 125.722785 
L 105.355478 120.421874 
L 109.108272 120.421874 
L 109.108272 117.325466 
L 112.861066 117.325466 
L 112.861066 117.012481 
L 116.61386 117.012481 
L 116.61386 114.104499 
L 120.366654 114.104499 
L 120.366654 111.778753 
L 124.119448 111.778753 
L 124.119448 111.373663 
L 127.872242 111.373663 
L 127.872242 109.015295 
L 131.625036 109.015295 
L 131.625036 106.949975 
L 135.37783 106.949975 
L 135.37783 105.334395 
L 139.130624 105.334395 
L 139.130624 102.988838 
L 142.883418 102.988838 
L 142.883418 100.644817 
L 146.636212 100.644817 
L 146.636212 99.442495 
L 150.389007 99.442495 
L 150.389007 97.196624 
L 154.141801 97.196624 
L 154.141801 95.312734 
L 157.894595 95.312734 
L 157.894595 91.423138 
L 161.647389 91.423138 
L 161.647389 89.580267 
L 165.400183 89.580267 
L 165.400183 90.1264 
L 169.152977 90.1264 
L 169.152977 86.260964 
L 176.658565 86.338478 
L 176.658565 85.252594 
L 180.411359 85.252594 
L 180.411359 82.228508 
L 184.164153 82.228508 
L 184.164153 81.097264 
L 187.916947 81.097264 
L 187.916947 77.996345 
L 191.669742 77.996345 
L 191.669742 76.553402 
L 195.422536 76.553402 
L 195.422536 75.450553 
L 199.17533 75.450553 
L 199.17533 73.332486 
L 202.928124 73.332486 
L 202.928124 72.410359 
L 206.680918 72.410359 
L 206.680918 70.72505 
L 210.433712 70.72505 
L 210.433712 68.664724 
L 214.186506 68.664724 
L 214.186506 137.908801 
L 217.9393 137.908801 
L 217.9393 225.39952 
L 217.9393 225.39952 
" style="fill:none;stroke:#fa8174;stroke-linejoin:miter;"/>
   </g>
   <g id="patch_7">
    <path d="M 43.434375 187.088583 
L 43.434375 7.2 
" style="fill:none;stroke:#ffffff;stroke-linecap:square;stroke-linejoin:miter;stroke-width:0.8;"/>
   </g>
   <g id="patch_8">
    <path d="M 332.39952 187.088583 
L 332.39952 7.2 
" style="fill:none;stroke:#ffffff;stroke-linecap:square;stroke-linejoin:miter;stroke-width:0.8;"/>
   </g>
   <g id="patch_9">
    <path d="M 43.434375 187.088583 
L 332.39952 187.088583 
" style="fill:none;stroke:#ffffff;stroke-linecap:square;stroke-linejoin:miter;stroke-width:0.8;"/>
   </g>
   <g id="patch_10">
    <path d="M 43.434375 7.2 
L 332.39952 7.2 
" style="fill:none;stroke:#ffffff;stroke-linecap:square;stroke-linejoin:miter;stroke-width:0.8;"/>
   </g>
   <g id="legend_1">
    <g id="patch_11">
     <path d="M 50.434375 73.525 
L 131.492188 73.525 
Q 133.492188 73.525 133.492188 71.525 
L 133.492188 14.2 
Q 133.492188 12.2 131.492188 12.2 
L 50.434375 12.2 
Q 48.434375 12.2 48.434375 14.2 
L 48.434375 71.525 
Q 48.434375 73.525 50.434375 73.525 
z
" style="opacity:0.8;stroke:#cccccc;stroke-linejoin:miter;"/>
    </g>
    <g id="patch_12">
     <path d="M 52.434375 23.7 
L 72.434375 23.7 
L 72.434375 16.7 
L 52.434375 16.7 
z
" style="fill:none;stroke:#8dd3c7;stroke-linejoin:miter;"/>
    </g>
    <g id="text_14">
     <!-- galah -->
     <g style="fill:#ffffff;" transform="translate(80.434375 23.7)scale(0.1 -0.1)">
      <defs>
       <path d="M 16.65625 0 
L 7.625 0 
L 7.625 75 
L 16.65625 75 
z
" id="Roboto-Regular-108"/>
       <path d="M 15.875 46.4375 
Q 21.875 53.8125 31.5 53.8125 
Q 48.25 53.8125 48.390625 34.90625 
L 48.390625 0 
L 39.359375 0 
L 39.359375 34.96875 
Q 39.3125 40.671875 36.75 43.40625 
Q 34.1875 46.140625 28.765625 46.140625 
Q 24.359375 46.140625 21.03125 43.796875 
Q 17.71875 41.453125 15.875 37.640625 
L 15.875 0 
L 6.84375 0 
L 6.84375 75 
L 15.875 75 
z
" id="Roboto-Regular-104"/>
      </defs>
      <use xlink:href="#Roboto-Regular-103"/>
      <use x="56.103516" xlink:href="#Roboto-Regular-97"/>
      <use x="110.498047" xlink:href="#Roboto-Regular-108"/>
      <use x="134.765625" xlink:href="#Roboto-Regular-97"/>
      <use x="189.160156" xlink:href="#Roboto-Regular-104"/>
     </g>
    </g>
    <g id="patch_13">
     <path d="M 52.434375 38.382813 
L 72.434375 38.382813 
L 72.434375 31.382813 
L 52.434375 31.382813 
z
" style="fill:none;stroke:#feffb3;stroke-linejoin:miter;"/>
    </g>
    <g id="text_15">
     <!-- galah_faint -->
     <g style="fill:#ffffff;" transform="translate(80.434375 38.382813)scale(0.1 -0.1)">
      <defs>
       <path d="M 44.921875 -7.375 
L 0.203125 -7.375 
L 0.203125 0 
L 44.921875 0 
z
" id="Roboto-Regular-95"/>
      </defs>
      <use xlink:href="#Roboto-Regular-103"/>
      <use x="56.103516" xlink:href="#Roboto-Regular-97"/>
      <use x="110.498047" xlink:href="#Roboto-Regular-108"/>
      <use x="134.765625" xlink:href="#Roboto-Regular-97"/>
      <use x="189.160156" xlink:href="#Roboto-Regular-104"/>
      <use x="244.238281" xlink:href="#Roboto-Regular-95"/>
      <use x="289.355469" xlink:href="#Roboto-Regular-102"/>
      <use x="324.072266" xlink:href="#Roboto-Regular-97"/>
      <use x="378.466797" xlink:href="#Roboto-Regular-105"/>
      <use x="402.734375" xlink:href="#Roboto-Regular-110"/>
      <use x="457.910156" xlink:href="#Roboto-Regular-116"/>
     </g>
    </g>
    <g id="patch_14">
     <path d="M 52.434375 52.9625 
L 72.434375 52.9625 
L 72.434375 45.9625 
L 52.434375 45.9625 
z
" style="fill:none;stroke:#bfbbd9;stroke-linejoin:miter;"/>
    </g>
    <g id="text_16">
     <!-- k2 -->
     <g style="fill:#ffffff;" transform="translate(80.434375 52.9625)scale(0.1 -0.1)">
      <defs>
       <path d="M 21.578125 24.46875 
L 15.921875 18.5625 
L 15.921875 0 
L 6.890625 0 
L 6.890625 75 
L 15.921875 75 
L 15.921875 29.640625 
L 20.75 35.453125 
L 37.203125 52.828125 
L 48.1875 52.828125 
L 27.640625 30.765625 
L 50.59375 0 
L 39.984375 0 
z
" id="Roboto-Regular-107"/>
      </defs>
      <use xlink:href="#Roboto-Regular-107"/>
      <use x="50.683594" xlink:href="#Roboto-Regular-50"/>
     </g>
    </g>
    <g id="patch_15">
     <path d="M 52.434375 67.49375 
L 72.434375 67.49375 
L 72.434375 60.49375 
L 52.434375 60.49375 
z
" style="fill:none;stroke:#fa8174;stroke-linejoin:miter;"/>
    </g>
    <g id="text_17">
     <!-- tess -->
     <g style="fill:#ffffff;" transform="translate(80.434375 67.49375)scale(0.1 -0.1)">
      <use xlink:href="#Roboto-Regular-116"/>
      <use x="32.666016" xlink:href="#Roboto-Regular-101"/>
      <use x="85.644531" xlink:href="#Roboto-Regular-115"/>
      <use x="137.207031" xlink:href="#Roboto-Regular-115"/>
     </g>
    </g>
   </g>
  </g>
 </g>
 <defs>
  <clipPath id="p46073dc16d">
   <rect height="179.888583" width="288.965145" x="43.434375" y="7.2"/>
  </clipPath>
 </defs>
</svg>
