<?xml version="1.0" encoding="utf-8" standalone="no"?>
<!DOCTYPE svg PUBLIC "-//W3C//DTD SVG 1.1//EN"
  "http://www.w3.org/Graphics/SVG/1.1/DTD/svg11.dtd">
<svg height="224.396299pt" version="1.1" viewBox="0 0 339.59952 224.396299" width="339.59952pt" xmlns="http://www.w3.org/2000/svg" xmlns:xlink="http://www.w3.org/1999/xlink">
 <metadata>
  <rdf:RDF xmlns:cc="http://creativecommons.org/ns#" xmlns:dc="http://purl.org/dc/elements/1.1/" xmlns:rdf="http://www.w3.org/1999/02/22-rdf-syntax-ns#">
   <cc:Work>
    <dc:type rdf:resource="http://purl.org/dc/dcmitype/StillImage"/>
    <dc:date>2021-08-02T13:38:43.311455</dc:date>
    <dc:format>image/svg+xml</dc:format>
    <dc:creator>
     <cc:Agent>
      <dc:title>Matplotlib v3.4.2, https://matplotlib.org/</dc:title>
     </cc:Agent>
    </dc:creator>
   </cc:Work>
  </rdf:RDF>
 </metadata>
 <defs>
  <style type="text/css">*{stroke-linecap:butt;stroke-linejoin:round;}</style>
 </defs>
 <g id="figure_1">
  <g id="patch_1">
   <path d="M 0 224.396299 
L 339.59952 224.396299 
L 339.59952 0 
L 0 0 
z
"/>
  </g>
  <g id="axes_1">
   <g id="patch_2">
    <path d="M 43.434375 92.022081 
L 183.166707 92.022081 
L 183.166707 9.330783 
L 43.434375 9.330783 
z
"/>
   </g>
   <g id="patch_3">
    <path clip-path="url(#p14c9b4a5fa)" d="M 43.15435 15550.940434 
L 43.15435 29.072025 
L 44.554474 29.072025 
L 44.554474 22.227258 
L 45.954597 22.227258 
L 45.954597 17.517305 
L 47.354721 17.517305 
L 47.354721 14.794462 
L 48.754845 14.794462 
L 48.754845 13.448835 
L 50.154968 13.448835 
L 50.154968 13.089479 
L 51.555092 13.089479 
L 51.555092 13.711601 
L 52.955215 13.711601 
L 52.955215 14.844647 
L 54.355339 14.844647 
L 54.355339 16.459057 
L 55.755462 16.459057 
L 55.755462 18.241166 
L 57.155586 18.241166 
L 57.155586 20.095474 
L 58.55571 20.095474 
L 58.55571 21.890533 
L 59.955833 21.890533 
L 59.955833 23.947667 
L 61.355957 23.947667 
L 61.355957 25.799551 
L 62.75608 25.799551 
L 62.75608 28.088074 
L 64.156204 28.088074 
L 64.156204 30.208745 
L 65.556327 30.208745 
L 65.556327 32.716999 
L 66.956451 32.716999 
L 66.956451 35.00199 
L 68.356575 35.00199 
L 68.356575 37.217268 
L 69.756698 37.217268 
L 69.756698 39.27905 
L 71.156822 39.27905 
L 71.156822 41.096348 
L 72.556945 41.096348 
L 72.556945 43.240861 
L 73.957069 43.240861 
L 73.957069 44.861846 
L 75.357192 44.861846 
L 75.357192 45.769041 
L 76.757316 45.769041 
L 76.757316 47.637276 
L 78.15744 47.637276 
L 78.15744 48.426251 
L 79.557563 48.426251 
L 79.557563 49.041401 
L 80.957687 49.041401 
L 80.957687 49.915839 
L 82.35781 49.915839 
L 82.35781 51.657725 
L 83.757934 51.657725 
L 83.757934 52.750793 
L 85.158057 52.750793 
L 85.158057 53.735288 
L 86.558181 53.735288 
L 86.558181 54.351808 
L 87.958305 54.351808 
L 87.958305 55.126639 
L 89.358428 55.126639 
L 89.358428 55.893482 
L 90.758552 55.893482 
L 90.758552 57.405523 
L 92.158675 57.405523 
L 92.158675 58.508876 
L 93.558799 58.508876 
L 93.558799 58.508876 
L 94.958922 58.508876 
L 94.958922 61.859779 
L 96.359046 61.859779 
L 96.359046 61.352719 
L 97.75917 61.352719 
L 97.75917 62.128429 
L 99.159293 62.128429 
L 99.159293 63.661267 
L 100.559417 63.661267 
L 100.559417 64.38796 
L 101.95954 64.38796 
L 101.95954 67.818335 
L 103.359664 67.818335 
L 103.359664 65.423136 
L 104.759787 65.423136 
L 104.759787 70.541178 
L 106.159911 70.541178 
L 106.159911 69.237351 
L 107.560035 69.237351 
L 107.560035 70.077866 
L 108.960158 70.077866 
L 108.960158 68.490431 
L 110.360282 68.490431 
L 110.360282 71.038839 
L 111.760405 71.038839 
L 111.760405 76.231084 
L 113.160529 76.231084 
L 113.160529 77.455438 
L 114.560652 77.455438 
L 114.560652 77.455438 
L 115.960776 77.455438 
L 115.960776 76.231084 
L 117.3609 76.231084 
L 117.3609 72.160666 
L 118.761023 72.160666 
L 118.761023 76.231084 
L 120.161147 76.231084 
L 120.161147 83.608656 
L 121.56127 83.608656 
L 121.56127 76.231084 
L 122.961394 76.231084 
L 122.961394 88.263385 
L 124.361517 88.263385 
L 124.361517 83.608656 
L 125.761641 83.608656 
L 125.761641 88.263385 
L 127.161765 88.263385 
L 127.161765 88.263385 
L 128.561888 88.263385 
L 128.561888 80.885813 
L 129.962012 80.885813 
L 129.962012 88.263385 
L 131.362135 88.263385 
L 131.362135 15550.940434 
L 132.762259 15550.940434 
L 132.762259 88.263385 
L 134.162382 88.263385 
L 134.162382 88.263385 
L 135.562506 88.263385 
L 135.562506 88.263385 
L 136.96263 88.263385 
L 136.96263 80.885813 
L 138.362753 80.885813 
L 138.362753 88.263385 
L 139.762877 88.263385 
L 139.762877 88.263385 
L 141.163 88.263385 
L 141.163 88.263385 
L 142.563124 88.263385 
L 142.563124 83.608656 
L 143.963247 83.608656 
L 143.963247 88.263385 
L 145.363371 88.263385 
L 145.363371 15550.940434 
L 146.763495 15550.940434 
L 146.763495 88.263385 
L 148.163618 88.263385 
L 148.163618 15550.940434 
L 149.563742 15550.940434 
L 149.563742 15550.940434 
L 150.963865 15550.940434 
L 150.963865 15550.940434 
L 152.363989 15550.940434 
L 152.363989 15550.940434 
L 153.764112 15550.940434 
L 153.764112 15550.940434 
L 155.164236 15550.940434 
L 155.164236 15550.940434 
L 156.56436 15550.940434 
L 156.56436 15550.940434 
L 157.964483 15550.940434 
L 157.964483 15550.940434 
L 159.364607 15550.940434 
L 159.364607 15550.940434 
L 160.76473 15550.940434 
L 160.76473 83.608656 
L 162.164854 83.608656 
L 162.164854 15550.940434 
L 163.564977 15550.940434 
L 163.564977 15550.940434 
L 164.965101 15550.940434 
L 164.965101 15550.940434 
L 166.365225 15550.940434 
L 166.365225 15550.940434 
L 167.765348 15550.940434 
L 167.765348 15550.940434 
L 169.165472 15550.940434 
L 169.165472 15550.940434 
L 170.565595 15550.940434 
L 170.565595 15550.940434 
L 171.965719 15550.940434 
L 171.965719 83.608656 
L 173.365842 83.608656 
L 173.365842 15550.940434 
L 174.765966 15550.940434 
L 174.765966 15550.940434 
L 176.16609 15550.940434 
L 176.16609 15550.940434 
L 177.566213 15550.940434 
L 177.566213 15550.940434 
L 178.966337 15550.940434 
L 178.966337 88.263385 
L 180.36646 88.263385 
L 180.36646 15550.940434 
L 181.766584 15550.940434 
L 181.766584 88.263385 
L 183.166708 88.263385 
L 183.166708 15550.940434 
L 184.566831 15550.940434 
L 184.566831 15550.940434 
L 185.966955 15550.940434 
L 185.966955 15550.940434 
L 187.367078 15550.940434 
L 187.367078 88.263385 
L 188.767202 88.263385 
L 188.767202 15550.940434 
L 190.167325 15550.940434 
L 190.167325 15550.940434 
L 191.567449 15550.940434 
L 191.567449 15550.940434 
L 192.967573 15550.940434 
L 192.967573 88.263385 
L 194.367696 88.263385 
L 194.367696 88.263385 
L 195.76782 88.263385 
L 195.76782 15550.940434 
L 194.367696 15550.940434 
L 194.367696 15550.940434 
L 192.967573 15550.940434 
L 192.967573 15550.940434 
L 191.567449 15550.940434 
L 191.567449 15550.940434 
L 190.167325 15550.940434 
L 190.167325 15550.940434 
L 188.767202 15550.940434 
L 188.767202 15550.940434 
L 187.367078 15550.940434 
L 187.367078 15550.940434 
L 185.966955 15550.940434 
L 185.966955 15550.940434 
L 184.566831 15550.940434 
L 184.566831 15550.940434 
L 183.166708 15550.940434 
L 183.166708 15550.940434 
L 181.766584 15550.940434 
L 181.766584 15550.940434 
L 180.36646 15550.940434 
L 180.36646 15550.940434 
L 178.966337 15550.940434 
L 178.966337 15550.940434 
L 177.566213 15550.940434 
L 177.566213 15550.940434 
L 176.16609 15550.940434 
L 176.16609 15550.940434 
L 174.765966 15550.940434 
L 174.765966 15550.940434 
L 173.365842 15550.940434 
L 173.365842 15550.940434 
L 171.965719 15550.940434 
L 171.965719 15550.940434 
L 170.565595 15550.940434 
L 170.565595 15550.940434 
L 169.165472 15550.940434 
L 169.165472 15550.940434 
L 167.765348 15550.940434 
L 167.765348 15550.940434 
L 166.365225 15550.940434 
L 166.365225 15550.940434 
L 164.965101 15550.940434 
L 164.965101 15550.940434 
L 163.564977 15550.940434 
L 163.564977 15550.940434 
L 162.164854 15550.940434 
L 162.164854 15550.940434 
L 160.76473 15550.940434 
L 160.76473 15550.940434 
L 159.364607 15550.940434 
L 159.364607 15550.940434 
L 157.964483 15550.940434 
L 157.964483 15550.940434 
L 156.56436 15550.940434 
L 156.56436 15550.940434 
L 155.164236 15550.940434 
L 155.164236 15550.940434 
L 153.764112 15550.940434 
L 153.764112 15550.940434 
L 152.363989 15550.940434 
L 152.363989 15550.940434 
L 150.963865 15550.940434 
L 150.963865 15550.940434 
L 149.563742 15550.940434 
L 149.563742 15550.940434 
L 148.163618 15550.940434 
L 148.163618 15550.940434 
L 146.763495 15550.940434 
L 146.763495 15550.940434 
L 145.363371 15550.940434 
L 145.363371 15550.940434 
L 143.963247 15550.940434 
L 143.963247 15550.940434 
L 142.563124 15550.940434 
L 142.563124 15550.940434 
L 141.163 15550.940434 
L 141.163 15550.940434 
L 139.762877 15550.940434 
L 139.762877 15550.940434 
L 138.362753 15550.940434 
L 138.362753 15550.940434 
L 136.96263 15550.940434 
L 136.96263 15550.940434 
L 135.562506 15550.940434 
L 135.562506 15550.940434 
L 134.162382 15550.940434 
L 134.162382 15550.940434 
L 132.762259 15550.940434 
L 132.762259 15550.940434 
L 131.362135 15550.940434 
L 131.362135 15550.940434 
L 129.962012 15550.940434 
L 129.962012 15550.940434 
L 128.561888 15550.940434 
L 128.561888 15550.940434 
L 127.161765 15550.940434 
L 127.161765 15550.940434 
L 125.761641 15550.940434 
L 125.761641 15550.940434 
L 124.361517 15550.940434 
L 124.361517 15550.940434 
L 122.961394 15550.940434 
L 122.961394 15550.940434 
L 121.56127 15550.940434 
L 121.56127 15550.940434 
L 120.161147 15550.940434 
L 120.161147 15550.940434 
L 118.761023 15550.940434 
L 118.761023 15550.940434 
L 117.3609 15550.940434 
L 117.3609 15550.940434 
L 115.960776 15550.940434 
L 115.960776 15550.940434 
L 114.560652 15550.940434 
L 114.560652 15550.940434 
L 113.160529 15550.940434 
L 113.160529 15550.940434 
L 111.760405 15550.940434 
L 111.760405 15550.940434 
L 110.360282 15550.940434 
L 110.360282 15550.940434 
L 108.960158 15550.940434 
L 108.960158 15550.940434 
L 107.560035 15550.940434 
L 107.560035 15550.940434 
L 106.159911 15550.940434 
L 106.159911 15550.940434 
L 104.759787 15550.940434 
L 104.759787 15550.940434 
L 103.359664 15550.940434 
L 103.359664 15550.940434 
L 101.95954 15550.940434 
L 101.95954 15550.940434 
L 100.559417 15550.940434 
L 100.559417 15550.940434 
L 99.159293 15550.940434 
L 99.159293 15550.940434 
L 97.75917 15550.940434 
L 97.75917 15550.940434 
L 96.359046 15550.940434 
L 96.359046 15550.940434 
L 94.958922 15550.940434 
L 94.958922 15550.940434 
L 93.558799 15550.940434 
L 93.558799 15550.940434 
L 92.158675 15550.940434 
L 92.158675 15550.940434 
L 90.758552 15550.940434 
L 90.758552 15550.940434 
L 89.358428 15550.940434 
L 89.358428 15550.940434 
L 87.958305 15550.940434 
L 87.958305 15550.940434 
L 86.558181 15550.940434 
L 86.558181 15550.940434 
L 85.158057 15550.940434 
L 85.158057 15550.940434 
L 83.757934 15550.940434 
L 83.757934 15550.940434 
L 82.35781 15550.940434 
L 82.35781 15550.940434 
L 80.957687 15550.940434 
L 80.957687 15550.940434 
L 79.557563 15550.940434 
L 79.557563 15550.940434 
L 78.15744 15550.940434 
L 78.15744 15550.940434 
L 76.757316 15550.940434 
L 76.757316 15550.940434 
L 75.357192 15550.940434 
L 75.357192 15550.940434 
L 73.957069 15550.940434 
L 73.957069 15550.940434 
L 72.556945 15550.940434 
L 72.556945 15550.940434 
L 71.156822 15550.940434 
L 71.156822 15550.940434 
L 69.756698 15550.940434 
L 69.756698 15550.940434 
L 68.356575 15550.940434 
L 68.356575 15550.940434 
L 66.956451 15550.940434 
L 66.956451 15550.940434 
L 65.556327 15550.940434 
L 65.556327 15550.940434 
L 64.156204 15550.940434 
L 64.156204 15550.940434 
L 62.75608 15550.940434 
L 62.75608 15550.940434 
L 61.355957 15550.940434 
L 61.355957 15550.940434 
L 59.955833 15550.940434 
L 59.955833 15550.940434 
L 58.55571 15550.940434 
L 58.55571 15550.940434 
L 57.155586 15550.940434 
L 57.155586 15550.940434 
L 55.755462 15550.940434 
L 55.755462 15550.940434 
L 54.355339 15550.940434 
L 54.355339 15550.940434 
L 52.955215 15550.940434 
L 52.955215 15550.940434 
L 51.555092 15550.940434 
L 51.555092 15550.940434 
L 50.154968 15550.940434 
L 50.154968 15550.940434 
L 48.754845 15550.940434 
L 48.754845 15550.940434 
L 47.354721 15550.940434 
L 47.354721 15550.940434 
L 45.954597 15550.940434 
L 45.954597 15550.940434 
L 44.554474 15550.940434 
L 44.554474 15550.940434 
z
" style="fill:#81b1d2;opacity:0.8;"/>
   </g>
   <g id="matplotlib.axis_1">
    <g id="xtick_1">
     <g id="line2d_1">
      <defs>
       <path d="M 0 0 
L 0 3.5 
" id="m7af841ef2f" style="stroke:#ffffff;stroke-width:0.8;"/>
      </defs>
      <g>
       <use style="fill:#ffffff;stroke:#ffffff;stroke-width:0.8;" x="99.159293" xlink:href="#m7af841ef2f" y="92.022081"/>
      </g>
     </g>
    </g>
    <g id="xtick_2">
     <g id="line2d_2">
      <g>
       <use style="fill:#ffffff;stroke:#ffffff;stroke-width:0.8;" x="155.164236" xlink:href="#m7af841ef2f" y="92.022081"/>
      </g>
     </g>
    </g>
   </g>
   <g id="matplotlib.axis_2">
    <g id="ytick_1">
     <g id="line2d_3">
      <defs>
       <path d="M 0 0 
L -3.5 0 
" id="m7f6bc72d42" style="stroke:#ffffff;stroke-width:0.8;"/>
      </defs>
      <g>
       <use style="fill:#ffffff;stroke:#ffffff;stroke-width:0.8;" x="43.434375" xlink:href="#m7f6bc72d42" y="72.800708"/>
      </g>
     </g>
     <g id="text_1">
      <!-- $\mathdefault{10^{1}}$ -->
      <g style="fill:#ffffff;" transform="translate(20.834375 76.550708)scale(0.1 -0.1)">
       <defs>
        <path d="M 2278 0 
L 1697 0 
L 1697 3853 
L 531 3425 
L 531 3950 
L 2188 4572 
L 2278 4572 
L 2278 0 
z
" id="Roboto-Regular-31" transform="scale(0.015625)"/>
        <path d="M 3231 1941 
Q 3231 925 2884 431 
Q 2538 -63 1800 -63 
Q 1072 -63 722 420 
Q 372 903 359 1863 
L 359 2634 
Q 359 3638 706 4125 
Q 1053 4613 1794 4613 
Q 2528 4613 2875 4142 
Q 3222 3672 3231 2691 
L 3231 1941 
z
M 2653 2731 
Q 2653 3466 2447 3802 
Q 2241 4138 1794 4138 
Q 1350 4138 1147 3803 
Q 944 3469 938 2775 
L 938 1850 
Q 938 1113 1152 761 
Q 1366 409 1800 409 
Q 2228 409 2436 740 
Q 2644 1072 2653 1784 
L 2653 2731 
z
" id="Roboto-Regular-30" transform="scale(0.015625)"/>
       </defs>
       <use transform="translate(0 0.014063)" xlink:href="#Roboto-Regular-31"/>
       <use transform="translate(56.152344 0.014063)" xlink:href="#Roboto-Regular-30"/>
       <use transform="translate(113.22918 36.99375)scale(0.7)" xlink:href="#Roboto-Regular-31"/>
      </g>
     </g>
    </g>
    <g id="ytick_2">
     <g id="line2d_4">
      <g>
       <use style="fill:#ffffff;stroke:#ffffff;stroke-width:0.8;" x="43.434375" xlink:href="#m7f6bc72d42" y="41.875354"/>
      </g>
     </g>
     <g id="text_2">
      <!-- $\mathdefault{10^{3}}$ -->
      <g style="fill:#ffffff;" transform="translate(20.834375 45.625354)scale(0.1 -0.1)">
       <defs>
        <path d="M 1219 2556 
L 1653 2556 
Q 2063 2563 2297 2772 
Q 2531 2981 2531 3338 
Q 2531 4138 1734 4138 
Q 1359 4138 1136 3923 
Q 913 3709 913 3356 
L 334 3356 
Q 334 3897 729 4255 
Q 1125 4613 1734 4613 
Q 2378 4613 2743 4272 
Q 3109 3931 3109 3325 
Q 3109 3028 2917 2750 
Q 2725 2472 2394 2334 
Q 2769 2216 2973 1941 
Q 3178 1666 3178 1269 
Q 3178 656 2778 296 
Q 2378 -63 1737 -63 
Q 1097 -63 695 284 
Q 294 631 294 1200 
L 875 1200 
Q 875 841 1109 625 
Q 1344 409 1738 409 
Q 2156 409 2378 628 
Q 2600 847 2600 1256 
Q 2600 1653 2356 1865 
Q 2113 2078 1653 2084 
L 1219 2084 
L 1219 2556 
z
" id="Roboto-Regular-33" transform="scale(0.015625)"/>
       </defs>
       <use transform="translate(0 0.565625)" xlink:href="#Roboto-Regular-31"/>
       <use transform="translate(56.152344 0.565625)" xlink:href="#Roboto-Regular-30"/>
       <use transform="translate(113.22918 37.545313)scale(0.7)" xlink:href="#Roboto-Regular-33"/>
      </g>
     </g>
    </g>
    <g id="ytick_3">
     <g id="line2d_5">
      <g>
       <use style="fill:#ffffff;stroke:#ffffff;stroke-width:0.8;" x="43.434375" xlink:href="#m7f6bc72d42" y="10.95"/>
      </g>
     </g>
     <g id="text_3">
      <!-- $\mathdefault{10^{5}}$ -->
      <g style="fill:#ffffff;" transform="translate(20.834375 14.7)scale(0.1 -0.1)">
       <defs>
        <path d="M 644 2281 
L 875 4550 
L 3206 4550 
L 3206 4016 
L 1366 4016 
L 1228 2775 
Q 1563 2972 1988 2972 
Q 2609 2972 2975 2561 
Q 3341 2150 3341 1450 
Q 3341 747 2961 342 
Q 2581 -63 1900 -63 
Q 1297 -63 915 271 
Q 534 606 481 1197 
L 1028 1197 
Q 1081 806 1306 607 
Q 1531 409 1900 409 
Q 2303 409 2533 684 
Q 2763 959 2763 1444 
Q 2763 1900 2514 2176 
Q 2266 2453 1853 2453 
Q 1475 2453 1259 2288 
L 1106 2163 
L 644 2281 
z
" id="Roboto-Regular-35" transform="scale(0.015625)"/>
       </defs>
       <use transform="translate(0 0.254688)" xlink:href="#Roboto-Regular-31"/>
       <use transform="translate(56.152344 0.254688)" xlink:href="#Roboto-Regular-30"/>
       <use transform="translate(113.22918 37.234375)scale(0.7)" xlink:href="#Roboto-Regular-35"/>
      </g>
     </g>
    </g>
    <g id="text_4">
     <!-- Number of spectra -->
     <g style="fill:#ffffff;" transform="translate(14.803125 92.284244)rotate(-90)scale(0.1 -0.1)">
      <defs>
       <path d="M 4025 0 
L 3422 0 
L 1131 3506 
L 1131 0 
L 528 0 
L 528 4550 
L 1131 4550 
L 3428 1028 
L 3428 4550 
L 4025 4550 
L 4025 0 
z
" id="Roboto-Regular-4e" transform="scale(0.015625)"/>
       <path d="M 2525 334 
Q 2188 -63 1534 -63 
Q 994 -63 711 251 
Q 428 566 425 1181 
L 425 3381 
L 1003 3381 
L 1003 1197 
Q 1003 428 1628 428 
Q 2291 428 2509 922 
L 2509 3381 
L 3088 3381 
L 3088 0 
L 2538 0 
L 2525 334 
z
" id="Roboto-Regular-75" transform="scale(0.015625)"/>
       <path d="M 981 3381 
L 997 3006 
Q 1369 3444 2000 3444 
Q 2709 3444 2966 2900 
Q 3134 3144 3404 3294 
Q 3675 3444 4044 3444 
Q 5156 3444 5175 2266 
L 5175 0 
L 4597 0 
L 4597 2231 
Q 4597 2594 4431 2773 
Q 4266 2953 3875 2953 
Q 3553 2953 3340 2761 
Q 3128 2569 3094 2244 
L 3094 0 
L 2513 0 
L 2513 2216 
Q 2513 2953 1791 2953 
Q 1222 2953 1013 2469 
L 1013 0 
L 434 0 
L 434 3381 
L 981 3381 
z
" id="Roboto-Regular-6d" transform="scale(0.015625)"/>
       <path d="M 3300 1653 
Q 3300 878 2944 407 
Q 2588 -63 1988 -63 
Q 1347 -63 997 391 
L 969 0 
L 438 0 
L 438 4800 
L 1016 4800 
L 1016 3009 
Q 1366 3444 1981 3444 
Q 2597 3444 2948 2978 
Q 3300 2513 3300 1703 
L 3300 1653 
z
M 2722 1719 
Q 2722 2309 2494 2631 
Q 2266 2953 1838 2953 
Q 1266 2953 1016 2422 
L 1016 959 
Q 1281 428 1844 428 
Q 2259 428 2490 750 
Q 2722 1072 2722 1719 
z
" id="Roboto-Regular-62" transform="scale(0.015625)"/>
       <path d="M 1841 -63 
Q 1153 -63 722 389 
Q 291 841 291 1597 
L 291 1703 
Q 291 2206 483 2601 
Q 675 2997 1020 3220 
Q 1366 3444 1769 3444 
Q 2428 3444 2793 3009 
Q 3159 2575 3159 1766 
L 3159 1525 
L 869 1525 
Q 881 1025 1161 717 
Q 1441 409 1872 409 
Q 2178 409 2390 534 
Q 2603 659 2763 866 
L 3116 591 
Q 2691 -63 1841 -63 
z
M 1769 2969 
Q 1419 2969 1181 2714 
Q 944 2459 888 2000 
L 2581 2000 
L 2581 2044 
Q 2556 2484 2343 2726 
Q 2131 2969 1769 2969 
z
" id="Roboto-Regular-65" transform="scale(0.015625)"/>
       <path d="M 2072 2863 
Q 1941 2884 1788 2884 
Q 1219 2884 1016 2400 
L 1016 0 
L 438 0 
L 438 3381 
L 1000 3381 
L 1009 2991 
Q 1294 3444 1816 3444 
Q 1984 3444 2072 3400 
L 2072 2863 
z
" id="Roboto-Regular-72" transform="scale(0.015625)"/>
       <path id="Roboto-Regular-20" transform="scale(0.015625)"/>
       <path d="M 284 1722 
Q 284 2219 479 2616 
Q 675 3013 1023 3228 
Q 1372 3444 1819 3444 
Q 2509 3444 2936 2966 
Q 3363 2488 3363 1694 
L 3363 1653 
Q 3363 1159 3173 767 
Q 2984 375 2632 156 
Q 2281 -63 1825 -63 
Q 1138 -63 711 415 
Q 284 894 284 1681 
L 284 1722 
z
M 866 1653 
Q 866 1091 1127 750 
Q 1388 409 1825 409 
Q 2266 409 2525 754 
Q 2784 1100 2784 1722 
Q 2784 2278 2520 2623 
Q 2256 2969 1819 2969 
Q 1391 2969 1128 2628 
Q 866 2288 866 1653 
z
" id="Roboto-Regular-6f" transform="scale(0.015625)"/>
       <path d="M 722 0 
L 722 2934 
L 188 2934 
L 188 3381 
L 722 3381 
L 722 3728 
Q 722 4272 1012 4569 
Q 1303 4866 1834 4866 
Q 2034 4866 2231 4813 
L 2200 4344 
Q 2053 4372 1888 4372 
Q 1606 4372 1453 4208 
Q 1300 4044 1300 3738 
L 1300 3381 
L 2022 3381 
L 2022 2934 
L 1300 2934 
L 1300 0 
L 722 0 
z
" id="Roboto-Regular-66" transform="scale(0.015625)"/>
       <path d="M 2406 897 
Q 2406 1131 2229 1261 
Q 2053 1391 1614 1484 
Q 1175 1578 917 1709 
Q 659 1841 536 2022 
Q 413 2203 413 2453 
Q 413 2869 764 3156 
Q 1116 3444 1663 3444 
Q 2238 3444 2595 3147 
Q 2953 2850 2953 2388 
L 2372 2388 
Q 2372 2625 2170 2797 
Q 1969 2969 1663 2969 
Q 1347 2969 1169 2831 
Q 991 2694 991 2472 
Q 991 2263 1156 2156 
Q 1322 2050 1755 1953 
Q 2188 1856 2456 1722 
Q 2725 1588 2854 1398 
Q 2984 1209 2984 938 
Q 2984 484 2621 210 
Q 2259 -63 1681 -63 
Q 1275 -63 962 81 
Q 650 225 473 483 
Q 297 741 297 1041 
L 875 1041 
Q 891 750 1108 579 
Q 1325 409 1681 409 
Q 2009 409 2207 542 
Q 2406 675 2406 897 
z
" id="Roboto-Regular-73" transform="scale(0.015625)"/>
       <path d="M 3294 1653 
Q 3294 881 2941 409 
Q 2588 -63 1984 -63 
Q 1369 -63 1016 328 
L 1016 -1300 
L 438 -1300 
L 438 3381 
L 966 3381 
L 994 3006 
Q 1347 3444 1975 3444 
Q 2584 3444 2939 2984 
Q 3294 2525 3294 1706 
L 3294 1653 
z
M 2716 1719 
Q 2716 2291 2472 2622 
Q 2228 2953 1803 2953 
Q 1278 2953 1016 2488 
L 1016 872 
Q 1275 409 1809 409 
Q 2225 409 2470 739 
Q 2716 1069 2716 1719 
z
" id="Roboto-Regular-70" transform="scale(0.015625)"/>
       <path d="M 1794 409 
Q 2103 409 2334 596 
Q 2566 784 2591 1066 
L 3138 1066 
Q 3122 775 2937 512 
Q 2753 250 2445 93 
Q 2138 -63 1794 -63 
Q 1103 -63 695 398 
Q 288 859 288 1659 
L 288 1756 
Q 288 2250 469 2634 
Q 650 3019 989 3231 
Q 1328 3444 1791 3444 
Q 2359 3444 2736 3103 
Q 3113 2763 3138 2219 
L 2591 2219 
Q 2566 2547 2342 2758 
Q 2119 2969 1791 2969 
Q 1350 2969 1108 2651 
Q 866 2334 866 1734 
L 866 1625 
Q 866 1041 1106 725 
Q 1347 409 1794 409 
z
" id="Roboto-Regular-63" transform="scale(0.015625)"/>
       <path d="M 1222 4200 
L 1222 3381 
L 1853 3381 
L 1853 2934 
L 1222 2934 
L 1222 838 
Q 1222 634 1306 532 
Q 1391 431 1594 431 
Q 1694 431 1869 469 
L 1869 0 
Q 1641 -63 1425 -63 
Q 1038 -63 841 171 
Q 644 406 644 838 
L 644 2934 
L 28 2934 
L 28 3381 
L 644 3381 
L 644 4200 
L 1222 4200 
z
" id="Roboto-Regular-74" transform="scale(0.015625)"/>
       <path d="M 2525 0 
Q 2475 100 2444 356 
Q 2041 -63 1481 -63 
Q 981 -63 661 220 
Q 341 503 341 938 
Q 341 1466 742 1758 
Q 1144 2050 1872 2050 
L 2434 2050 
L 2434 2316 
Q 2434 2619 2253 2798 
Q 2072 2978 1719 2978 
Q 1409 2978 1200 2822 
Q 991 2666 991 2444 
L 409 2444 
Q 409 2697 589 2933 
Q 769 3169 1076 3306 
Q 1384 3444 1753 3444 
Q 2338 3444 2669 3151 
Q 3000 2859 3013 2347 
L 3013 791 
Q 3013 325 3131 50 
L 3131 0 
L 2525 0 
z
M 1566 441 
Q 1838 441 2081 581 
Q 2325 722 2434 947 
L 2434 1641 
L 1981 1641 
Q 919 1641 919 1019 
Q 919 747 1100 594 
Q 1281 441 1566 441 
z
" id="Roboto-Regular-61" transform="scale(0.015625)"/>
      </defs>
      <use xlink:href="#Roboto-Regular-4e"/>
      <use x="71.289062" xlink:href="#Roboto-Regular-75"/>
      <use x="126.416016" xlink:href="#Roboto-Regular-6d"/>
      <use x="214.0625" xlink:href="#Roboto-Regular-62"/>
      <use x="270.166016" xlink:href="#Roboto-Regular-65"/>
      <use x="323.144531" xlink:href="#Roboto-Regular-72"/>
      <use x="356.982422" xlink:href="#Roboto-Regular-20"/>
      <use x="381.738281" xlink:href="#Roboto-Regular-6f"/>
      <use x="438.769531" xlink:href="#Roboto-Regular-66"/>
      <use x="473.486328" xlink:href="#Roboto-Regular-20"/>
      <use x="498.242188" xlink:href="#Roboto-Regular-73"/>
      <use x="549.804688" xlink:href="#Roboto-Regular-70"/>
      <use x="605.908203" xlink:href="#Roboto-Regular-65"/>
      <use x="658.886719" xlink:href="#Roboto-Regular-63"/>
      <use x="711.230469" xlink:href="#Roboto-Regular-74"/>
      <use x="743.896484" xlink:href="#Roboto-Regular-72"/>
      <use x="777.734375" xlink:href="#Roboto-Regular-61"/>
     </g>
    </g>
   </g>
   <g id="patch_4">
    <path clip-path="url(#p14c9b4a5fa)" d="M 43.15435 225.396299 
L 43.15435 33.88629 
L 44.554474 33.88629 
L 44.554474 38.427541 
L 45.954597 38.427541 
L 45.954597 41.446153 
L 47.354721 41.446153 
L 47.354721 43.282135 
L 48.754845 43.282135 
L 48.754845 44.376918 
L 50.154968 44.376918 
L 50.154968 45.339391 
L 51.555092 45.339391 
L 51.555092 46.530084 
L 52.955215 46.530084 
L 52.955215 48.570286 
L 54.355339 48.570286 
L 54.355339 50.818906 
L 55.755462 50.818906 
L 55.755462 52.135463 
L 57.155586 52.135463 
L 57.155586 54.796696 
L 58.55571 54.796696 
L 58.55571 56.576989 
L 59.955833 56.576989 
L 59.955833 59.360059 
L 61.355957 59.360059 
L 61.355957 61.231718 
L 62.75608 61.231718 
L 62.75608 63.491249 
L 64.156204 63.491249 
L 64.156204 67.207427 
L 65.556327 67.207427 
L 65.556327 67.818335 
L 66.956451 67.818335 
L 66.956451 71.576354 
L 68.356575 71.576354 
L 68.356575 71.038839 
L 69.756698 71.038839 
L 69.756698 77.455438 
L 71.156822 77.455438 
L 71.156822 83.608656 
L 73.957069 83.608656 
L 73.957069 88.263385 
L 75.357192 88.263385 
L 75.357192 225.396299 
M 79.557563 225.396299 
L 79.557563 83.608656 
L 80.957687 83.608656 
L 80.957687 225.396299 
M 82.35781 225.396299 
L 82.35781 88.263385 
L 83.757934 88.263385 
L 83.757934 225.396299 
M 97.75917 225.396299 
L 97.75917 88.263385 
L 99.159293 88.263385 
L 99.159293 225.396299 
L 99.159293 225.396299 
" style="fill:none;stroke:#ffffff;stroke-linejoin:miter;"/>
   </g>
   <g id="line2d_6">
    <path clip-path="url(#p14c9b4a5fa)" d="M 52.755931 92.022081 
L 52.755931 9.330783 
" style="fill:none;stroke:#ffffff;stroke-dasharray:5.55,2.4;stroke-dashoffset:0;stroke-width:1.5;"/>
   </g>
   <g id="patch_5">
    <path d="M 43.434375 92.022081 
L 43.434375 9.330783 
" style="fill:none;stroke:#ffffff;stroke-linecap:square;stroke-linejoin:miter;stroke-width:0.8;"/>
   </g>
   <g id="patch_6">
    <path d="M 183.166707 92.022081 
L 183.166707 9.330783 
" style="fill:none;stroke:#ffffff;stroke-linecap:square;stroke-linejoin:miter;stroke-width:0.8;"/>
   </g>
   <g id="patch_7">
    <path d="M 43.434375 92.022081 
L 183.166708 92.022081 
" style="fill:none;stroke:#ffffff;stroke-linecap:square;stroke-linejoin:miter;stroke-width:0.8;"/>
   </g>
   <g id="patch_8">
    <path d="M 43.434375 9.330783 
L 183.166708 9.330783 
" style="fill:none;stroke:#ffffff;stroke-linecap:square;stroke-linejoin:miter;stroke-width:0.8;"/>
   </g>
   <g id="patch_9">
    <path d="M 123.647957 36.180783 
L 179.166707 36.180783 
L 179.166707 13.330783 
L 123.647957 13.330783 
z
" style="fill:#ffffff;stroke:#000000;stroke-linejoin:miter;"/>
   </g>
   <g id="text_5">
    <g id="patch_10">
     <path d="M 122.847957 36.980783 
L 179.966707 36.980783 
L 179.966707 12.530783 
L 122.847957 12.530783 
z
" style="stroke:#000000;stroke-linejoin:miter;"/>
    </g>
    <!-- CCD 1 -->
    <g style="fill:#ffffff;" transform="translate(126.847957 22.530783)scale(0.08 -0.08)">
     <defs>
      <path d="M 3875 1444 
Q 3791 722 3342 329 
Q 2894 -63 2150 -63 
Q 1344 -63 858 515 
Q 372 1094 372 2063 
L 372 2500 
Q 372 3134 598 3615 
Q 825 4097 1240 4355 
Q 1656 4613 2203 4613 
Q 2928 4613 3365 4208 
Q 3803 3803 3875 3088 
L 3272 3088 
Q 3194 3631 2933 3875 
Q 2672 4119 2203 4119 
Q 1628 4119 1301 3694 
Q 975 3269 975 2484 
L 975 2044 
Q 975 1303 1284 865 
Q 1594 428 2150 428 
Q 2650 428 2917 654 
Q 3184 881 3272 1444 
L 3875 1444 
z
" id="Roboto-Regular-43" transform="scale(0.015625)"/>
      <path d="M 528 0 
L 528 4550 
L 1813 4550 
Q 2406 4550 2862 4287 
Q 3319 4025 3567 3540 
Q 3816 3056 3819 2428 
L 3819 2138 
Q 3819 1494 3570 1009 
Q 3322 525 2861 265 
Q 2400 6 1788 0 
L 528 0 
z
M 1128 4056 
L 1128 491 
L 1759 491 
Q 2453 491 2839 922 
Q 3225 1353 3225 2150 
L 3225 2416 
Q 3225 3191 2861 3620 
Q 2497 4050 1828 4056 
L 1128 4056 
z
" id="Roboto-Regular-44" transform="scale(0.015625)"/>
     </defs>
     <use xlink:href="#Roboto-Regular-43"/>
     <use x="65.087891" xlink:href="#Roboto-Regular-43"/>
     <use x="130.175781" xlink:href="#Roboto-Regular-44"/>
     <use x="195.751953" xlink:href="#Roboto-Regular-20"/>
     <use x="220.507812" xlink:href="#Roboto-Regular-31"/>
    </g>
    <!-- mean S/N=34 -->
    <g style="fill:#ffffff;" transform="translate(126.847957 31.355783)scale(0.08 -0.08)">
     <defs>
      <path d="M 984 3381 
L 1003 2956 
Q 1391 3444 2016 3444 
Q 3088 3444 3097 2234 
L 3097 0 
L 2519 0 
L 2519 2238 
Q 2516 2603 2352 2778 
Q 2188 2953 1841 2953 
Q 1559 2953 1346 2803 
Q 1134 2653 1016 2409 
L 1016 0 
L 438 0 
L 438 3381 
L 984 3381 
z
" id="Roboto-Regular-6e" transform="scale(0.015625)"/>
      <path d="M 1869 2028 
Q 1097 2250 745 2573 
Q 394 2897 394 3372 
Q 394 3909 823 4261 
Q 1253 4613 1941 4613 
Q 2409 4613 2776 4431 
Q 3144 4250 3345 3931 
Q 3547 3613 3547 3234 
L 2944 3234 
Q 2944 3647 2681 3883 
Q 2419 4119 1941 4119 
Q 1497 4119 1248 3923 
Q 1000 3728 1000 3381 
Q 1000 3103 1236 2911 
Q 1472 2719 2039 2559 
Q 2606 2400 2926 2208 
Q 3247 2016 3401 1759 
Q 3556 1503 3556 1156 
Q 3556 603 3125 270 
Q 2694 -63 1972 -63 
Q 1503 -63 1097 117 
Q 691 297 470 609 
Q 250 922 250 1319 
L 853 1319 
Q 853 906 1158 667 
Q 1463 428 1972 428 
Q 2447 428 2700 622 
Q 2953 816 2953 1150 
Q 2953 1484 2718 1667 
Q 2484 1850 1869 2028 
z
" id="Roboto-Regular-53" transform="scale(0.015625)"/>
      <path d="M 553 -391 
L 56 -391 
L 1956 4550 
L 2450 4550 
L 553 -391 
z
" id="Roboto-Regular-2f" transform="scale(0.015625)"/>
      <path d="M 3081 2544 
L 475 2544 
L 475 3047 
L 3081 3047 
L 3081 2544 
z
M 3081 1247 
L 475 1247 
L 475 1747 
L 3081 1747 
L 3081 1247 
z
" id="Roboto-Regular-3d" transform="scale(0.015625)"/>
      <path d="M 2819 1528 
L 3450 1528 
L 3450 1056 
L 2819 1056 
L 2819 0 
L 2238 0 
L 2238 1056 
L 166 1056 
L 166 1397 
L 2203 4550 
L 2819 4550 
L 2819 1528 
z
M 822 1528 
L 2238 1528 
L 2238 3759 
L 2169 3634 
L 822 1528 
z
" id="Roboto-Regular-34" transform="scale(0.015625)"/>
     </defs>
     <use xlink:href="#Roboto-Regular-6d"/>
     <use x="87.646484" xlink:href="#Roboto-Regular-65"/>
     <use x="140.625" xlink:href="#Roboto-Regular-61"/>
     <use x="195.019531" xlink:href="#Roboto-Regular-6e"/>
     <use x="250.195312" xlink:href="#Roboto-Regular-20"/>
     <use x="274.951172" xlink:href="#Roboto-Regular-53"/>
     <use x="334.277344" xlink:href="#Roboto-Regular-2f"/>
     <use x="375.488281" xlink:href="#Roboto-Regular-4e"/>
     <use x="446.777344" xlink:href="#Roboto-Regular-3d"/>
     <use x="501.660156" xlink:href="#Roboto-Regular-33"/>
     <use x="557.8125" xlink:href="#Roboto-Regular-34"/>
    </g>
   </g>
  </g>
  <g id="axes_2">
   <g id="patch_11">
    <path d="M 192.667188 92.022081 
L 332.39952 92.022081 
L 332.39952 9.330783 
L 192.667188 9.330783 
z
"/>
   </g>
   <g id="patch_12">
    <path clip-path="url(#p5364c65934)" d="M 192.387163 15550.940434 
L 192.387163 41.515809 
L 193.787286 41.515809 
L 193.787286 33.04241 
L 195.18741 33.04241 
L 195.18741 26.88703 
L 196.587534 26.88703 
L 196.587534 22.258657 
L 197.987657 22.258657 
L 197.987657 19.054384 
L 199.387781 19.054384 
L 199.387781 16.934942 
L 200.787904 16.934942 
L 200.787904 15.652849 
L 202.188028 15.652849 
L 202.188028 15.044524 
L 203.588151 15.044524 
L 203.588151 15.189529 
L 204.988275 15.189529 
L 204.988275 15.889785 
L 206.388399 15.889785 
L 206.388399 16.823391 
L 207.788522 16.823391 
L 207.788522 17.977709 
L 209.188646 17.977709 
L 209.188646 19.237804 
L 210.588769 19.237804 
L 210.588769 20.526881 
L 211.988893 20.526881 
L 211.988893 21.903559 
L 213.389016 21.903559 
L 213.389016 23.21543 
L 214.78914 23.21543 
L 214.78914 24.724564 
L 216.189264 24.724564 
L 216.189264 26.146068 
L 217.589387 26.146068 
L 217.589387 27.667993 
L 218.989511 27.667993 
L 218.989511 29.168505 
L 220.389634 29.168505 
L 220.389634 30.904208 
L 221.789758 30.904208 
L 221.789758 32.73247 
L 223.189881 32.73247 
L 223.189881 34.502261 
L 224.590005 34.502261 
L 224.590005 36.001869 
L 225.990129 36.001869 
L 225.990129 37.961819 
L 227.390252 37.961819 
L 227.390252 39.487546 
L 228.790376 39.487546 
L 228.790376 41.278183 
L 230.190499 41.278183 
L 230.190499 42.406157 
L 231.590623 42.406157 
L 231.590623 44.062748 
L 232.990746 44.062748 
L 232.990746 44.788909 
L 234.39087 44.788909 
L 234.39087 46.974236 
L 235.790994 46.974236 
L 235.790994 47.558548 
L 237.191117 47.558548 
L 237.191117 48.408462 
L 238.591241 48.408462 
L 238.591241 49.119944 
L 239.991364 49.119944 
L 239.991364 50.119008 
L 241.391488 50.119008 
L 241.391488 51.458948 
L 242.791611 51.458948 
L 242.791611 52.166481 
L 244.191735 52.166481 
L 244.191735 52.55032 
L 245.591859 52.55032 
L 245.591859 52.22895 
L 246.991982 52.22895 
L 246.991982 53.696131 
L 248.392106 53.696131 
L 248.392106 55.223965 
L 249.792229 55.223965 
L 249.792229 56.002677 
L 251.192353 56.002677 
L 251.192353 56.759317 
L 252.592476 56.759317 
L 252.592476 58.120597 
L 253.9926 58.120597 
L 253.9926 57.971361 
L 255.392724 57.971361 
L 255.392724 58.836519 
L 256.792847 58.836519 
L 256.792847 60.657407 
L 258.192971 60.657407 
L 258.192971 59.180972 
L 259.593094 59.180972 
L 259.593094 60.768407 
L 260.993218 60.768407 
L 260.993218 61.352719 
L 262.393341 61.352719 
L 262.393341 62.851207 
L 263.793465 62.851207 
L 263.793465 65.650797 
L 265.193589 65.650797 
L 265.193589 65.202941 
L 266.593712 65.202941 
L 266.593712 64.783095 
L 267.993836 64.783095 
L 267.993836 64.38796 
L 269.393959 64.38796 
L 269.393959 68.490431 
L 270.794083 68.490431 
L 270.794083 66.384109 
L 272.194206 66.384109 
L 272.194206 72.160666 
L 273.59433 72.160666 
L 273.59433 69.644467 
L 274.994454 69.644467 
L 274.994454 70.541178 
L 276.394577 70.541178 
L 276.394577 71.038839 
L 277.794701 71.038839 
L 277.794701 71.038839 
L 279.194824 71.038839 
L 279.194824 73.508241 
L 280.594948 73.508241 
L 280.594948 75.195907 
L 281.995071 75.195907 
L 281.995071 73.508241 
L 283.395195 73.508241 
L 283.395195 77.455438 
L 284.795319 77.455438 
L 284.795319 88.263385 
L 286.195442 88.263385 
L 286.195442 77.455438 
L 287.595566 77.455438 
L 287.595566 80.885813 
L 288.995689 80.885813 
L 288.995689 80.885813 
L 290.395813 80.885813 
L 290.395813 83.608656 
L 291.795936 83.608656 
L 291.795936 83.608656 
L 293.19606 83.608656 
L 293.19606 83.608656 
L 294.596184 83.608656 
L 294.596184 88.263385 
L 295.996307 88.263385 
L 295.996307 88.263385 
L 297.396431 88.263385 
L 297.396431 88.263385 
L 298.796554 88.263385 
L 298.796554 88.263385 
L 300.196678 88.263385 
L 300.196678 15550.940434 
L 301.596801 15550.940434 
L 301.596801 88.263385 
L 302.996925 88.263385 
L 302.996925 15550.940434 
L 304.397049 15550.940434 
L 304.397049 83.608656 
L 305.797172 83.608656 
L 305.797172 15550.940434 
L 307.197296 15550.940434 
L 307.197296 15550.940434 
L 308.597419 15550.940434 
L 308.597419 15550.940434 
L 309.997543 15550.940434 
L 309.997543 15550.940434 
L 311.397666 15550.940434 
L 311.397666 15550.940434 
L 312.79779 15550.940434 
L 312.79779 83.608656 
L 314.197914 83.608656 
L 314.197914 15550.940434 
L 315.598037 15550.940434 
L 315.598037 15550.940434 
L 316.998161 15550.940434 
L 316.998161 15550.940434 
L 318.398284 15550.940434 
L 318.398284 88.263385 
L 319.798408 88.263385 
L 319.798408 15550.940434 
L 321.198531 15550.940434 
L 321.198531 15550.940434 
L 322.598655 15550.940434 
L 322.598655 15550.940434 
L 323.998779 15550.940434 
L 323.998779 88.263385 
L 325.398902 88.263385 
L 325.398902 15550.940434 
L 326.799026 15550.940434 
L 326.799026 15550.940434 
L 328.199149 15550.940434 
L 328.199149 15550.940434 
L 329.599273 15550.940434 
L 329.599273 15550.940434 
L 330.999396 15550.940434 
L 330.999396 15550.940434 
L 332.39952 15550.940434 
L 332.39952 15550.940434 
L 333.799644 15550.940434 
L 333.799644 15550.940434 
L 335.199767 15550.940434 
L 335.199767 15550.940434 
L 336.599891 15550.940434 
L 336.599891 15550.940434 
L 338.000014 15550.940434 
L 338.000014 15550.940434 
L 339.400138 15550.940434 
L 339.400138 15550.940434 
L 340.800261 15550.940434 
L 340.800261 15550.940434 
L 342.200385 15550.940434 
L 342.200385 15550.940434 
L 343.600509 15550.940434 
L 343.600509 15550.940434 
L 345.000632 15550.940434 
L 345.000632 15550.940434 
L 343.600509 15550.940434 
L 343.600509 15550.940434 
L 342.200385 15550.940434 
L 342.200385 15550.940434 
L 340.800261 15550.940434 
L 340.800261 15550.940434 
L 339.400138 15550.940434 
L 339.400138 15550.940434 
L 338.000014 15550.940434 
L 338.000014 15550.940434 
L 336.599891 15550.940434 
L 336.599891 15550.940434 
L 335.199767 15550.940434 
L 335.199767 15550.940434 
L 333.799644 15550.940434 
L 333.799644 15550.940434 
L 332.39952 15550.940434 
L 332.39952 15550.940434 
L 330.999396 15550.940434 
L 330.999396 15550.940434 
L 329.599273 15550.940434 
L 329.599273 15550.940434 
L 328.199149 15550.940434 
L 328.199149 15550.940434 
L 326.799026 15550.940434 
L 326.799026 15550.940434 
L 325.398902 15550.940434 
L 325.398902 15550.940434 
L 323.998779 15550.940434 
L 323.998779 15550.940434 
L 322.598655 15550.940434 
L 322.598655 15550.940434 
L 321.198531 15550.940434 
L 321.198531 15550.940434 
L 319.798408 15550.940434 
L 319.798408 15550.940434 
L 318.398284 15550.940434 
L 318.398284 15550.940434 
L 316.998161 15550.940434 
L 316.998161 15550.940434 
L 315.598037 15550.940434 
L 315.598037 15550.940434 
L 314.197914 15550.940434 
L 314.197914 15550.940434 
L 312.79779 15550.940434 
L 312.79779 15550.940434 
L 311.397666 15550.940434 
L 311.397666 15550.940434 
L 309.997543 15550.940434 
L 309.997543 15550.940434 
L 308.597419 15550.940434 
L 308.597419 15550.940434 
L 307.197296 15550.940434 
L 307.197296 15550.940434 
L 305.797172 15550.940434 
L 305.797172 15550.940434 
L 304.397049 15550.940434 
L 304.397049 15550.940434 
L 302.996925 15550.940434 
L 302.996925 15550.940434 
L 301.596801 15550.940434 
L 301.596801 15550.940434 
L 300.196678 15550.940434 
L 300.196678 15550.940434 
L 298.796554 15550.940434 
L 298.796554 15550.940434 
L 297.396431 15550.940434 
L 297.396431 15550.940434 
L 295.996307 15550.940434 
L 295.996307 15550.940434 
L 294.596184 15550.940434 
L 294.596184 15550.940434 
L 293.19606 15550.940434 
L 293.19606 15550.940434 
L 291.795936 15550.940434 
L 291.795936 15550.940434 
L 290.395813 15550.940434 
L 290.395813 15550.940434 
L 288.995689 15550.940434 
L 288.995689 15550.940434 
L 287.595566 15550.940434 
L 287.595566 15550.940434 
L 286.195442 15550.940434 
L 286.195442 15550.940434 
L 284.795319 15550.940434 
L 284.795319 15550.940434 
L 283.395195 15550.940434 
L 283.395195 15550.940434 
L 281.995071 15550.940434 
L 281.995071 15550.940434 
L 280.594948 15550.940434 
L 280.594948 15550.940434 
L 279.194824 15550.940434 
L 279.194824 15550.940434 
L 277.794701 15550.940434 
L 277.794701 15550.940434 
L 276.394577 15550.940434 
L 276.394577 15550.940434 
L 274.994454 15550.940434 
L 274.994454 15550.940434 
L 273.59433 15550.940434 
L 273.59433 15550.940434 
L 272.194206 15550.940434 
L 272.194206 15550.940434 
L 270.794083 15550.940434 
L 270.794083 15550.940434 
L 269.393959 15550.940434 
L 269.393959 15550.940434 
L 267.993836 15550.940434 
L 267.993836 15550.940434 
L 266.593712 15550.940434 
L 266.593712 15550.940434 
L 265.193589 15550.940434 
L 265.193589 15550.940434 
L 263.793465 15550.940434 
L 263.793465 15550.940434 
L 262.393341 15550.940434 
L 262.393341 15550.940434 
L 260.993218 15550.940434 
L 260.993218 15550.940434 
L 259.593094 15550.940434 
L 259.593094 15550.940434 
L 258.192971 15550.940434 
L 258.192971 15550.940434 
L 256.792847 15550.940434 
L 256.792847 15550.940434 
L 255.392724 15550.940434 
L 255.392724 15550.940434 
L 253.9926 15550.940434 
L 253.9926 15550.940434 
L 252.592476 15550.940434 
L 252.592476 15550.940434 
L 251.192353 15550.940434 
L 251.192353 15550.940434 
L 249.792229 15550.940434 
L 249.792229 15550.940434 
L 248.392106 15550.940434 
L 248.392106 15550.940434 
L 246.991982 15550.940434 
L 246.991982 15550.940434 
L 245.591859 15550.940434 
L 245.591859 15550.940434 
L 244.191735 15550.940434 
L 244.191735 15550.940434 
L 242.791611 15550.940434 
L 242.791611 15550.940434 
L 241.391488 15550.940434 
L 241.391488 15550.940434 
L 239.991364 15550.940434 
L 239.991364 15550.940434 
L 238.591241 15550.940434 
L 238.591241 15550.940434 
L 237.191117 15550.940434 
L 237.191117 15550.940434 
L 235.790994 15550.940434 
L 235.790994 15550.940434 
L 234.39087 15550.940434 
L 234.39087 15550.940434 
L 232.990746 15550.940434 
L 232.990746 15550.940434 
L 231.590623 15550.940434 
L 231.590623 15550.940434 
L 230.190499 15550.940434 
L 230.190499 15550.940434 
L 228.790376 15550.940434 
L 228.790376 15550.940434 
L 227.390252 15550.940434 
L 227.390252 15550.940434 
L 225.990129 15550.940434 
L 225.990129 15550.940434 
L 224.590005 15550.940434 
L 224.590005 15550.940434 
L 223.189881 15550.940434 
L 223.189881 15550.940434 
L 221.789758 15550.940434 
L 221.789758 15550.940434 
L 220.389634 15550.940434 
L 220.389634 15550.940434 
L 218.989511 15550.940434 
L 218.989511 15550.940434 
L 217.589387 15550.940434 
L 217.589387 15550.940434 
L 216.189264 15550.940434 
L 216.189264 15550.940434 
L 214.78914 15550.940434 
L 214.78914 15550.940434 
L 213.389016 15550.940434 
L 213.389016 15550.940434 
L 211.988893 15550.940434 
L 211.988893 15550.940434 
L 210.588769 15550.940434 
L 210.588769 15550.940434 
L 209.188646 15550.940434 
L 209.188646 15550.940434 
L 207.788522 15550.940434 
L 207.788522 15550.940434 
L 206.388399 15550.940434 
L 206.388399 15550.940434 
L 204.988275 15550.940434 
L 204.988275 15550.940434 
L 203.588151 15550.940434 
L 203.588151 15550.940434 
L 202.188028 15550.940434 
L 202.188028 15550.940434 
L 200.787904 15550.940434 
L 200.787904 15550.940434 
L 199.387781 15550.940434 
L 199.387781 15550.940434 
L 197.987657 15550.940434 
L 197.987657 15550.940434 
L 196.587534 15550.940434 
L 196.587534 15550.940434 
L 195.18741 15550.940434 
L 195.18741 15550.940434 
L 193.787286 15550.940434 
L 193.787286 15550.940434 
z
" style="fill:#8dd3c7;opacity:0.8;"/>
   </g>
   <g id="matplotlib.axis_3">
    <g id="xtick_3">
     <g id="line2d_7">
      <g>
       <use style="fill:#ffffff;stroke:#ffffff;stroke-width:0.8;" x="248.392106" xlink:href="#m7af841ef2f" y="92.022081"/>
      </g>
     </g>
    </g>
    <g id="xtick_4">
     <g id="line2d_8">
      <g>
       <use style="fill:#ffffff;stroke:#ffffff;stroke-width:0.8;" x="304.397049" xlink:href="#m7af841ef2f" y="92.022081"/>
      </g>
     </g>
    </g>
   </g>
   <g id="matplotlib.axis_4">
    <g id="ytick_4">
     <g id="line2d_9">
      <g>
       <use style="fill:#ffffff;stroke:#ffffff;stroke-width:0.8;" x="192.667188" xlink:href="#m7f6bc72d42" y="72.800708"/>
      </g>
     </g>
    </g>
    <g id="ytick_5">
     <g id="line2d_10">
      <g>
       <use style="fill:#ffffff;stroke:#ffffff;stroke-width:0.8;" x="192.667188" xlink:href="#m7f6bc72d42" y="41.875354"/>
      </g>
     </g>
    </g>
    <g id="ytick_6">
     <g id="line2d_11">
      <g>
       <use style="fill:#ffffff;stroke:#ffffff;stroke-width:0.8;" x="192.667188" xlink:href="#m7f6bc72d42" y="10.95"/>
      </g>
     </g>
    </g>
   </g>
   <g id="patch_13">
    <path clip-path="url(#p5364c65934)" d="M 192.387163 225.396299 
L 192.387163 35.68998 
L 193.787286 35.68998 
L 193.787286 36.744342 
L 195.18741 36.744342 
L 195.18741 35.655316 
L 196.587534 35.655316 
L 196.587534 34.949113 
L 197.987657 34.949113 
L 197.987657 34.266764 
L 199.387781 34.266764 
L 199.387781 34.500021 
L 202.188028 34.455386 
L 202.188028 34.961094 
L 203.588151 34.961094 
L 203.588151 36.343669 
L 204.988275 36.343669 
L 204.988275 37.477294 
L 206.388399 37.477294 
L 206.388399 38.451697 
L 207.788522 38.451697 
L 207.788522 40.067154 
L 209.188646 40.067154 
L 209.188646 41.821845 
L 210.588769 41.821845 
L 210.588769 43.126623 
L 211.988893 43.126623 
L 211.988893 44.396439 
L 213.389016 44.396439 
L 213.389016 45.914506 
L 214.78914 45.914506 
L 214.78914 47.046367 
L 216.189264 47.046367 
L 216.189264 48.848971 
L 217.589387 48.848971 
L 217.589387 50.520396 
L 218.989511 50.520396 
L 218.989511 53.17064 
L 220.389634 53.17064 
L 220.389634 53.503701 
L 221.789758 53.503701 
L 221.789758 55.473635 
L 224.590005 55.524703 
L 224.590005 56.576989 
L 225.990129 56.576989 
L 225.990129 59.73323 
L 227.390252 59.73323 
L 227.390252 60.440763 
L 228.790376 60.440763 
L 228.790376 61.352719 
L 230.190499 61.352719 
L 230.190499 62.128429 
L 232.990746 62.128429 
L 232.990746 63.163606 
L 234.39087 63.163606 
L 234.39087 64.989737 
L 235.790994 64.989737 
L 235.790994 67.207427 
L 237.191117 67.207427 
L 237.191117 67.505937 
L 238.591241 67.505937 
L 238.591241 66.64749 
L 239.991364 66.64749 
L 239.991364 69.644467 
L 241.391488 69.644467 
L 241.391488 64.783095 
L 242.791611 64.783095 
L 242.791611 68.145979 
L 244.191735 68.145979 
L 244.191735 70.077866 
L 245.591859 70.077866 
L 245.591859 72.800708 
L 248.392106 72.800708 
L 248.392106 75.195907 
L 251.192353 75.195907 
L 251.192353 80.885813 
L 252.592476 80.885813 
L 252.592476 77.455438 
L 253.9926 77.455438 
L 253.9926 83.608656 
L 256.792847 83.608656 
L 256.792847 76.231084 
L 258.192971 76.231084 
L 258.192971 83.608656 
L 259.593094 83.608656 
L 259.593094 78.953926 
L 260.993218 78.953926 
L 260.993218 83.608656 
L 262.393341 83.608656 
L 262.393341 80.885813 
L 263.793465 80.885813 
L 263.793465 88.263385 
L 265.193589 88.263385 
L 265.193589 83.608656 
L 266.593712 83.608656 
L 266.593712 88.263385 
L 270.794083 88.263385 
L 270.794083 83.608656 
L 272.194206 83.608656 
L 272.194206 80.885813 
L 273.59433 80.885813 
L 273.59433 83.608656 
L 274.994454 83.608656 
L 274.994454 225.396299 
M 276.394577 225.396299 
L 276.394577 88.263385 
L 277.794701 88.263385 
L 277.794701 225.396299 
M 281.995071 225.396299 
L 281.995071 88.263385 
L 283.395195 88.263385 
L 283.395195 225.396299 
M 284.795319 225.396299 
L 284.795319 88.263385 
L 286.195442 88.263385 
L 286.195442 225.396299 
M 293.19606 225.396299 
L 293.19606 83.608656 
L 294.596184 83.608656 
L 294.596184 225.396299 
M 300.196678 225.396299 
L 300.196678 88.263385 
L 301.596801 88.263385 
L 301.596801 225.396299 
L 301.596801 225.396299 
" style="fill:none;stroke:#ffffff;stroke-linejoin:miter;"/>
   </g>
   <g id="line2d_12">
    <path clip-path="url(#p5364c65934)" d="M 206.267566 92.022081 
L 206.267566 9.330783 
" style="fill:none;stroke:#ffffff;stroke-dasharray:5.55,2.4;stroke-dashoffset:0;stroke-width:1.5;"/>
   </g>
   <g id="patch_14">
    <path d="M 192.667188 92.022081 
L 192.667188 9.330783 
" style="fill:none;stroke:#ffffff;stroke-linecap:square;stroke-linejoin:miter;stroke-width:0.8;"/>
   </g>
   <g id="patch_15">
    <path d="M 332.39952 92.022081 
L 332.39952 9.330783 
" style="fill:none;stroke:#ffffff;stroke-linecap:square;stroke-linejoin:miter;stroke-width:0.8;"/>
   </g>
   <g id="patch_16">
    <path d="M 192.667188 92.022081 
L 332.39952 92.022081 
" style="fill:none;stroke:#ffffff;stroke-linecap:square;stroke-linejoin:miter;stroke-width:0.8;"/>
   </g>
   <g id="patch_17">
    <path d="M 192.667188 9.330783 
L 332.39952 9.330783 
" style="fill:none;stroke:#ffffff;stroke-linecap:square;stroke-linejoin:miter;stroke-width:0.8;"/>
   </g>
   <g id="patch_18">
    <path d="M 272.88077 36.180783 
L 328.39952 36.180783 
L 328.39952 13.330783 
L 272.88077 13.330783 
z
" style="fill:#ffffff;stroke:#000000;stroke-linejoin:miter;"/>
   </g>
   <g id="text_6">
    <g id="patch_19">
     <path d="M 272.08077 36.980783 
L 329.19952 36.980783 
L 329.19952 12.530783 
L 272.08077 12.530783 
z
" style="stroke:#000000;stroke-linejoin:miter;"/>
    </g>
    <!-- CCD 2 -->
    <g style="fill:#ffffff;" transform="translate(276.08077 22.530783)scale(0.08 -0.08)">
     <defs>
      <path d="M 3359 0 
L 378 0 
L 378 416 
L 1953 2166 
Q 2303 2563 2436 2811 
Q 2569 3059 2569 3325 
Q 2569 3681 2353 3909 
Q 2138 4138 1778 4138 
Q 1347 4138 1108 3892 
Q 869 3647 869 3209 
L 291 3209 
Q 291 3838 695 4225 
Q 1100 4613 1778 4613 
Q 2413 4613 2781 4280 
Q 3150 3947 3150 3394 
Q 3150 2722 2294 1794 
L 1075 472 
L 3359 472 
L 3359 0 
z
" id="Roboto-Regular-32" transform="scale(0.015625)"/>
     </defs>
     <use xlink:href="#Roboto-Regular-43"/>
     <use x="65.087891" xlink:href="#Roboto-Regular-43"/>
     <use x="130.175781" xlink:href="#Roboto-Regular-44"/>
     <use x="195.751953" xlink:href="#Roboto-Regular-20"/>
     <use x="220.507812" xlink:href="#Roboto-Regular-32"/>
    </g>
    <!-- mean S/N=50 -->
    <g style="fill:#ffffff;" transform="translate(276.08077 31.355783)scale(0.08 -0.08)">
     <use xlink:href="#Roboto-Regular-6d"/>
     <use x="87.646484" xlink:href="#Roboto-Regular-65"/>
     <use x="140.625" xlink:href="#Roboto-Regular-61"/>
     <use x="195.019531" xlink:href="#Roboto-Regular-6e"/>
     <use x="250.195312" xlink:href="#Roboto-Regular-20"/>
     <use x="274.951172" xlink:href="#Roboto-Regular-53"/>
     <use x="334.277344" xlink:href="#Roboto-Regular-2f"/>
     <use x="375.488281" xlink:href="#Roboto-Regular-4e"/>
     <use x="446.777344" xlink:href="#Roboto-Regular-3d"/>
     <use x="501.660156" xlink:href="#Roboto-Regular-35"/>
     <use x="557.8125" xlink:href="#Roboto-Regular-30"/>
    </g>
   </g>
  </g>
  <g id="axes_3">
   <g id="patch_20">
    <path d="M 43.434375 186.347862 
L 183.166707 186.347862 
L 183.166707 103.656564 
L 43.434375 103.656564 
z
"/>
   </g>
   <g id="patch_21">
    <path clip-path="url(#p4c0976558c)" d="M 43.15435 15645.266216 
L 43.15435 136.228051 
L 44.554474 136.228051 
L 44.554474 131.983387 
L 45.954597 131.983387 
L 45.954597 127.046215 
L 47.354721 127.046215 
L 47.354721 122.937954 
L 48.754845 122.937954 
L 48.754845 119.47004 
L 50.154968 119.47004 
L 50.154968 116.635277 
L 51.555092 116.635277 
L 51.555092 114.224422 
L 52.955215 114.224422 
L 52.955215 112.704179 
L 54.355339 112.704179 
L 54.355339 111.601773 
L 55.755462 111.601773 
L 55.755462 111.130679 
L 57.155586 111.130679 
L 57.155586 111.035486 
L 58.55571 111.035486 
L 58.55571 111.361016 
L 59.955833 111.361016 
L 59.955833 111.88482 
L 61.355957 111.88482 
L 61.355957 112.744696 
L 62.75608 112.744696 
L 62.75608 113.645055 
L 64.156204 113.645055 
L 64.156204 114.615663 
L 65.556327 114.615663 
L 65.556327 115.487787 
L 66.956451 115.487787 
L 66.956451 116.368714 
L 68.356575 116.368714 
L 68.356575 117.308351 
L 69.756698 117.308351 
L 69.756698 118.305157 
L 71.156822 118.305157 
L 71.156822 119.334649 
L 72.556945 119.334649 
L 72.556945 120.285362 
L 73.957069 120.285362 
L 73.957069 121.408787 
L 75.357192 121.408787 
L 75.357192 122.588472 
L 76.757316 122.588472 
L 76.757316 123.728094 
L 78.15744 123.728094 
L 78.15744 124.930055 
L 79.557563 124.930055 
L 79.557563 126.090283 
L 80.957687 126.090283 
L 80.957687 127.058251 
L 82.35781 127.058251 
L 82.35781 128.438605 
L 83.757934 128.438605 
L 83.757934 129.538562 
L 85.158057 129.538562 
L 85.158057 130.803375 
L 86.558181 130.803375 
L 86.558181 132.019318 
L 87.958305 132.019318 
L 87.958305 133.057497 
L 89.358428 133.057497 
L 89.358428 134.210744 
L 90.758552 134.210744 
L 90.758552 135.066922 
L 92.158675 135.066922 
L 92.158675 136.101153 
L 93.558799 136.101153 
L 93.558799 136.938581 
L 94.958922 136.938581 
L 94.958922 138.026428 
L 96.359046 138.026428 
L 96.359046 138.663826 
L 97.75917 138.663826 
L 97.75917 139.631511 
L 99.159293 139.631511 
L 99.159293 140.74927 
L 100.559417 140.74927 
L 100.559417 141.430417 
L 101.95954 141.430417 
L 101.95954 141.822006 
L 103.359664 141.822006 
L 103.359664 142.932563 
L 104.759787 142.932563 
L 104.759787 143.585426 
L 106.159911 143.585426 
L 106.159911 144.286241 
L 107.560035 144.286241 
L 107.560035 145.221435 
L 108.960158 145.221435 
L 108.960158 145.170172 
L 110.360282 145.170172 
L 110.360282 147.076574 
L 111.760405 147.076574 
L 111.760405 147.532622 
L 113.160529 147.532622 
L 113.160529 148.260352 
L 114.560652 148.260352 
L 114.560652 148.852024 
L 115.960776 148.852024 
L 115.960776 149.309027 
L 117.3609 149.309027 
L 117.3609 149.122477 
L 118.761023 149.122477 
L 118.761023 149.748734 
L 120.161147 149.748734 
L 120.161147 150.273639 
L 121.56127 150.273639 
L 121.56127 150.552324 
L 122.961394 150.552324 
L 122.961394 152.15115 
L 124.361517 152.15115 
L 124.361517 152.079328 
L 125.761641 152.079328 
L 125.761641 153.246772 
L 127.161765 153.246772 
L 127.161765 153.5957 
L 128.561888 153.5957 
L 128.561888 154.873993 
L 129.962012 154.873993 
L 129.962012 154.454146 
L 131.362135 154.454146 
L 131.362135 154.983188 
L 132.762259 154.983188 
L 132.762259 155.094188 
L 134.162382 155.094188 
L 134.162382 157.651211 
L 135.562506 157.651211 
L 135.562506 157.026075 
L 136.96263 157.026075 
L 136.96263 156.734057 
L 138.362753 156.734057 
L 138.362753 157.81703 
L 139.762877 157.81703 
L 139.762877 160.456451 
L 141.163 160.456451 
L 141.163 158.908403 
L 142.563124 158.908403 
L 142.563124 160.973272 
L 143.963247 160.973272 
L 143.963247 160.456451 
L 145.363371 160.456451 
L 145.363371 162.816213 
L 146.763495 162.816213 
L 146.763495 161.831718 
L 148.163618 161.831718 
L 148.163618 160.973272 
L 149.563742 160.973272 
L 149.563742 160.973272 
L 150.963865 160.973272 
L 150.963865 164.866959 
L 152.363989 164.866959 
L 152.363989 165.902135 
L 153.764112 165.902135 
L 153.764112 165.902135 
L 155.164236 165.902135 
L 155.164236 164.403647 
L 156.56436 164.403647 
L 156.56436 168.624978 
L 157.964483 168.624978 
L 157.964483 164.866959 
L 159.364607 164.866959 
L 159.364607 168.624978 
L 160.76473 168.624978 
L 160.76473 165.36462 
L 162.164854 165.36462 
L 162.164854 165.36462 
L 163.564977 165.36462 
L 163.564977 168.624978 
L 164.965101 168.624978 
L 164.965101 167.126489 
L 166.365225 167.126489 
L 166.365225 167.834023 
L 167.765348 167.834023 
L 167.765348 170.556865 
L 169.165472 170.556865 
L 169.165472 167.126489 
L 170.565595 167.126489 
L 170.565595 170.556865 
L 171.965719 170.556865 
L 171.965719 173.279707 
L 173.365842 173.279707 
L 173.365842 173.279707 
L 174.765966 173.279707 
L 174.765966 171.781219 
L 176.16609 171.781219 
L 176.16609 182.589166 
L 177.566213 182.589166 
L 177.566213 170.556865 
L 178.966337 170.556865 
L 178.966337 177.934437 
L 180.36646 177.934437 
L 180.36646 15645.266216 
L 181.766584 15645.266216 
L 181.766584 175.211595 
L 183.166708 175.211595 
L 183.166708 177.934437 
L 184.566831 177.934437 
L 184.566831 175.211595 
L 185.966955 175.211595 
L 185.966955 175.211595 
L 187.367078 175.211595 
L 187.367078 177.934437 
L 188.767202 177.934437 
L 188.767202 15645.266216 
L 190.167325 15645.266216 
L 190.167325 177.934437 
L 191.567449 177.934437 
L 191.567449 177.934437 
L 192.967573 177.934437 
L 192.967573 15645.266216 
L 194.367696 15645.266216 
L 194.367696 182.589166 
L 195.76782 182.589166 
L 195.76782 15645.266216 
L 194.367696 15645.266216 
L 194.367696 15645.266216 
L 192.967573 15645.266216 
L 192.967573 15645.266216 
L 191.567449 15645.266216 
L 191.567449 15645.266216 
L 190.167325 15645.266216 
L 190.167325 15645.266216 
L 188.767202 15645.266216 
L 188.767202 15645.266216 
L 187.367078 15645.266216 
L 187.367078 15645.266216 
L 185.966955 15645.266216 
L 185.966955 15645.266216 
L 184.566831 15645.266216 
L 184.566831 15645.266216 
L 183.166708 15645.266216 
L 183.166708 15645.266216 
L 181.766584 15645.266216 
L 181.766584 15645.266216 
L 180.36646 15645.266216 
L 180.36646 15645.266216 
L 178.966337 15645.266216 
L 178.966337 15645.266216 
L 177.566213 15645.266216 
L 177.566213 15645.266216 
L 176.16609 15645.266216 
L 176.16609 15645.266216 
L 174.765966 15645.266216 
L 174.765966 15645.266216 
L 173.365842 15645.266216 
L 173.365842 15645.266216 
L 171.965719 15645.266216 
L 171.965719 15645.266216 
L 170.565595 15645.266216 
L 170.565595 15645.266216 
L 169.165472 15645.266216 
L 169.165472 15645.266216 
L 167.765348 15645.266216 
L 167.765348 15645.266216 
L 166.365225 15645.266216 
L 166.365225 15645.266216 
L 164.965101 15645.266216 
L 164.965101 15645.266216 
L 163.564977 15645.266216 
L 163.564977 15645.266216 
L 162.164854 15645.266216 
L 162.164854 15645.266216 
L 160.76473 15645.266216 
L 160.76473 15645.266216 
L 159.364607 15645.266216 
L 159.364607 15645.266216 
L 157.964483 15645.266216 
L 157.964483 15645.266216 
L 156.56436 15645.266216 
L 156.56436 15645.266216 
L 155.164236 15645.266216 
L 155.164236 15645.266216 
L 153.764112 15645.266216 
L 153.764112 15645.266216 
L 152.363989 15645.266216 
L 152.363989 15645.266216 
L 150.963865 15645.266216 
L 150.963865 15645.266216 
L 149.563742 15645.266216 
L 149.563742 15645.266216 
L 148.163618 15645.266216 
L 148.163618 15645.266216 
L 146.763495 15645.266216 
L 146.763495 15645.266216 
L 145.363371 15645.266216 
L 145.363371 15645.266216 
L 143.963247 15645.266216 
L 143.963247 15645.266216 
L 142.563124 15645.266216 
L 142.563124 15645.266216 
L 141.163 15645.266216 
L 141.163 15645.266216 
L 139.762877 15645.266216 
L 139.762877 15645.266216 
L 138.362753 15645.266216 
L 138.362753 15645.266216 
L 136.96263 15645.266216 
L 136.96263 15645.266216 
L 135.562506 15645.266216 
L 135.562506 15645.266216 
L 134.162382 15645.266216 
L 134.162382 15645.266216 
L 132.762259 15645.266216 
L 132.762259 15645.266216 
L 131.362135 15645.266216 
L 131.362135 15645.266216 
L 129.962012 15645.266216 
L 129.962012 15645.266216 
L 128.561888 15645.266216 
L 128.561888 15645.266216 
L 127.161765 15645.266216 
L 127.161765 15645.266216 
L 125.761641 15645.266216 
L 125.761641 15645.266216 
L 124.361517 15645.266216 
L 124.361517 15645.266216 
L 122.961394 15645.266216 
L 122.961394 15645.266216 
L 121.56127 15645.266216 
L 121.56127 15645.266216 
L 120.161147 15645.266216 
L 120.161147 15645.266216 
L 118.761023 15645.266216 
L 118.761023 15645.266216 
L 117.3609 15645.266216 
L 117.3609 15645.266216 
L 115.960776 15645.266216 
L 115.960776 15645.266216 
L 114.560652 15645.266216 
L 114.560652 15645.266216 
L 113.160529 15645.266216 
L 113.160529 15645.266216 
L 111.760405 15645.266216 
L 111.760405 15645.266216 
L 110.360282 15645.266216 
L 110.360282 15645.266216 
L 108.960158 15645.266216 
L 108.960158 15645.266216 
L 107.560035 15645.266216 
L 107.560035 15645.266216 
L 106.159911 15645.266216 
L 106.159911 15645.266216 
L 104.759787 15645.266216 
L 104.759787 15645.266216 
L 103.359664 15645.266216 
L 103.359664 15645.266216 
L 101.95954 15645.266216 
L 101.95954 15645.266216 
L 100.559417 15645.266216 
L 100.559417 15645.266216 
L 99.159293 15645.266216 
L 99.159293 15645.266216 
L 97.75917 15645.266216 
L 97.75917 15645.266216 
L 96.359046 15645.266216 
L 96.359046 15645.266216 
L 94.958922 15645.266216 
L 94.958922 15645.266216 
L 93.558799 15645.266216 
L 93.558799 15645.266216 
L 92.158675 15645.266216 
L 92.158675 15645.266216 
L 90.758552 15645.266216 
L 90.758552 15645.266216 
L 89.358428 15645.266216 
L 89.358428 15645.266216 
L 87.958305 15645.266216 
L 87.958305 15645.266216 
L 86.558181 15645.266216 
L 86.558181 15645.266216 
L 85.158057 15645.266216 
L 85.158057 15645.266216 
L 83.757934 15645.266216 
L 83.757934 15645.266216 
L 82.35781 15645.266216 
L 82.35781 15645.266216 
L 80.957687 15645.266216 
L 80.957687 15645.266216 
L 79.557563 15645.266216 
L 79.557563 15645.266216 
L 78.15744 15645.266216 
L 78.15744 15645.266216 
L 76.757316 15645.266216 
L 76.757316 15645.266216 
L 75.357192 15645.266216 
L 75.357192 15645.266216 
L 73.957069 15645.266216 
L 73.957069 15645.266216 
L 72.556945 15645.266216 
L 72.556945 15645.266216 
L 71.156822 15645.266216 
L 71.156822 15645.266216 
L 69.756698 15645.266216 
L 69.756698 15645.266216 
L 68.356575 15645.266216 
L 68.356575 15645.266216 
L 66.956451 15645.266216 
L 66.956451 15645.266216 
L 65.556327 15645.266216 
L 65.556327 15645.266216 
L 64.156204 15645.266216 
L 64.156204 15645.266216 
L 62.75608 15645.266216 
L 62.75608 15645.266216 
L 61.355957 15645.266216 
L 61.355957 15645.266216 
L 59.955833 15645.266216 
L 59.955833 15645.266216 
L 58.55571 15645.266216 
L 58.55571 15645.266216 
L 57.155586 15645.266216 
L 57.155586 15645.266216 
L 55.755462 15645.266216 
L 55.755462 15645.266216 
L 54.355339 15645.266216 
L 54.355339 15645.266216 
L 52.955215 15645.266216 
L 52.955215 15645.266216 
L 51.555092 15645.266216 
L 51.555092 15645.266216 
L 50.154968 15645.266216 
L 50.154968 15645.266216 
L 48.754845 15645.266216 
L 48.754845 15645.266216 
L 47.354721 15645.266216 
L 47.354721 15645.266216 
L 45.954597 15645.266216 
L 45.954597 15645.266216 
L 44.554474 15645.266216 
L 44.554474 15645.266216 
z
" style="fill:#fa8174;opacity:0.8;"/>
   </g>
   <g id="matplotlib.axis_5">
    <g id="xtick_5">
     <g id="line2d_13">
      <g>
       <use style="fill:#ffffff;stroke:#ffffff;stroke-width:0.8;" x="99.159293" xlink:href="#m7af841ef2f" y="186.347862"/>
      </g>
     </g>
     <g id="text_7">
      <!-- 200 -->
      <g style="fill:#ffffff;" transform="translate(90.735856 200.847862)scale(0.1 -0.1)">
       <use xlink:href="#Roboto-Regular-32"/>
       <use x="56.152344" xlink:href="#Roboto-Regular-30"/>
       <use x="112.304688" xlink:href="#Roboto-Regular-30"/>
      </g>
     </g>
    </g>
    <g id="xtick_6">
     <g id="line2d_14">
      <g>
       <use style="fill:#ffffff;stroke:#ffffff;stroke-width:0.8;" x="155.164236" xlink:href="#m7af841ef2f" y="186.347862"/>
      </g>
     </g>
     <g id="text_8">
      <!-- 400 -->
      <g style="fill:#ffffff;" transform="translate(146.740799 200.847862)scale(0.1 -0.1)">
       <use xlink:href="#Roboto-Regular-34"/>
       <use x="56.152344" xlink:href="#Roboto-Regular-30"/>
       <use x="112.304688" xlink:href="#Roboto-Regular-30"/>
      </g>
     </g>
    </g>
    <g id="text_9">
     <!-- S/N (per pixel) -->
     <g style="fill:#ffffff;" transform="translate(81.279448 214.900987)scale(0.1 -0.1)">
      <defs>
       <path d="M 416 1847 
Q 416 2553 605 3203 
Q 794 3853 1169 4384 
Q 1544 4916 1947 5134 
L 2066 4753 
Q 1609 4403 1317 3684 
Q 1025 2966 997 2075 
L 994 1809 
Q 994 603 1434 -284 
Q 1700 -816 2066 -1116 
L 1947 -1469 
Q 1531 -1238 1153 -694 
Q 416 369 416 1847 
z
" id="Roboto-Regular-28" transform="scale(0.015625)"/>
       <path d="M 1066 0 
L 488 0 
L 488 3381 
L 1066 3381 
L 1066 0 
z
M 441 4278 
Q 441 4419 527 4516 
Q 613 4613 781 4613 
Q 950 4613 1037 4516 
Q 1125 4419 1125 4278 
Q 1125 4138 1037 4044 
Q 950 3950 781 3950 
Q 613 3950 527 4044 
Q 441 4138 441 4278 
z
" id="Roboto-Regular-69" transform="scale(0.015625)"/>
       <path d="M 1572 2147 
L 2322 3381 
L 2997 3381 
L 1891 1709 
L 3031 0 
L 2363 0 
L 1581 1266 
L 800 0 
L 128 0 
L 1269 1709 
L 163 3381 
L 831 3381 
L 1572 2147 
z
" id="Roboto-Regular-78" transform="scale(0.015625)"/>
       <path d="M 1066 0 
L 488 0 
L 488 4800 
L 1066 4800 
L 1066 0 
z
" id="Roboto-Regular-6c" transform="scale(0.015625)"/>
       <path d="M 1772 1816 
Q 1772 1119 1589 480 
Q 1406 -159 1029 -700 
Q 653 -1241 241 -1469 
L 119 -1116 
Q 600 -747 892 29 
Q 1184 806 1191 1753 
L 1191 1853 
Q 1191 2509 1053 3073 
Q 916 3638 670 4084 
Q 425 4531 119 4781 
L 241 5134 
Q 653 4906 1026 4372 
Q 1400 3838 1586 3194 
Q 1772 2550 1772 1816 
z
" id="Roboto-Regular-29" transform="scale(0.015625)"/>
      </defs>
      <use xlink:href="#Roboto-Regular-53"/>
      <use x="59.326172" xlink:href="#Roboto-Regular-2f"/>
      <use x="100.537109" xlink:href="#Roboto-Regular-4e"/>
      <use x="171.826172" xlink:href="#Roboto-Regular-20"/>
      <use x="196.582031" xlink:href="#Roboto-Regular-28"/>
      <use x="230.761719" xlink:href="#Roboto-Regular-70"/>
      <use x="286.865234" xlink:href="#Roboto-Regular-65"/>
      <use x="339.84375" xlink:href="#Roboto-Regular-72"/>
      <use x="373.681641" xlink:href="#Roboto-Regular-20"/>
      <use x="398.4375" xlink:href="#Roboto-Regular-70"/>
      <use x="454.541016" xlink:href="#Roboto-Regular-69"/>
      <use x="478.808594" xlink:href="#Roboto-Regular-78"/>
      <use x="528.369141" xlink:href="#Roboto-Regular-65"/>
      <use x="581.347656" xlink:href="#Roboto-Regular-6c"/>
      <use x="605.615234" xlink:href="#Roboto-Regular-29"/>
     </g>
    </g>
   </g>
   <g id="matplotlib.axis_6">
    <g id="ytick_7">
     <g id="line2d_15">
      <g>
       <use style="fill:#ffffff;stroke:#ffffff;stroke-width:0.8;" x="43.434375" xlink:href="#m7f6bc72d42" y="167.126489"/>
      </g>
     </g>
     <g id="text_10">
      <!-- $\mathdefault{10^{1}}$ -->
      <g style="fill:#ffffff;" transform="translate(20.834375 170.876489)scale(0.1 -0.1)">
       <use transform="translate(0 0.014063)" xlink:href="#Roboto-Regular-31"/>
       <use transform="translate(56.152344 0.014063)" xlink:href="#Roboto-Regular-30"/>
       <use transform="translate(113.22918 36.99375)scale(0.7)" xlink:href="#Roboto-Regular-31"/>
      </g>
     </g>
    </g>
    <g id="ytick_8">
     <g id="line2d_16">
      <g>
       <use style="fill:#ffffff;stroke:#ffffff;stroke-width:0.8;" x="43.434375" xlink:href="#m7f6bc72d42" y="136.201135"/>
      </g>
     </g>
     <g id="text_11">
      <!-- $\mathdefault{10^{3}}$ -->
      <g style="fill:#ffffff;" transform="translate(20.834375 139.951135)scale(0.1 -0.1)">
       <use transform="translate(0 0.565625)" xlink:href="#Roboto-Regular-31"/>
       <use transform="translate(56.152344 0.565625)" xlink:href="#Roboto-Regular-30"/>
       <use transform="translate(113.22918 37.545313)scale(0.7)" xlink:href="#Roboto-Regular-33"/>
      </g>
     </g>
    </g>
    <g id="ytick_9">
     <g id="line2d_17">
      <g>
       <use style="fill:#ffffff;stroke:#ffffff;stroke-width:0.8;" x="43.434375" xlink:href="#m7f6bc72d42" y="105.275781"/>
      </g>
     </g>
     <g id="text_12">
      <!-- $\mathdefault{10^{5}}$ -->
      <g style="fill:#ffffff;" transform="translate(20.834375 109.025781)scale(0.1 -0.1)">
       <use transform="translate(0 0.254688)" xlink:href="#Roboto-Regular-31"/>
       <use transform="translate(56.152344 0.254688)" xlink:href="#Roboto-Regular-30"/>
       <use transform="translate(113.22918 37.234375)scale(0.7)" xlink:href="#Roboto-Regular-35"/>
      </g>
     </g>
    </g>
    <g id="text_13">
     <!-- Number of spectra -->
     <g style="fill:#ffffff;" transform="translate(14.803125 186.610026)rotate(-90)scale(0.1 -0.1)">
      <use xlink:href="#Roboto-Regular-4e"/>
      <use x="71.289062" xlink:href="#Roboto-Regular-75"/>
      <use x="126.416016" xlink:href="#Roboto-Regular-6d"/>
      <use x="214.0625" xlink:href="#Roboto-Regular-62"/>
      <use x="270.166016" xlink:href="#Roboto-Regular-65"/>
      <use x="323.144531" xlink:href="#Roboto-Regular-72"/>
      <use x="356.982422" xlink:href="#Roboto-Regular-20"/>
      <use x="381.738281" xlink:href="#Roboto-Regular-6f"/>
      <use x="438.769531" xlink:href="#Roboto-Regular-66"/>
      <use x="473.486328" xlink:href="#Roboto-Regular-20"/>
      <use x="498.242188" xlink:href="#Roboto-Regular-73"/>
      <use x="549.804688" xlink:href="#Roboto-Regular-70"/>
      <use x="605.908203" xlink:href="#Roboto-Regular-65"/>
      <use x="658.886719" xlink:href="#Roboto-Regular-63"/>
      <use x="711.230469" xlink:href="#Roboto-Regular-74"/>
      <use x="743.896484" xlink:href="#Roboto-Regular-72"/>
      <use x="777.734375" xlink:href="#Roboto-Regular-61"/>
     </g>
    </g>
   </g>
   <g id="patch_22">
    <path clip-path="url(#p4c0976558c)" d="M 43.15435 225.396299 
L 43.15435 133.455946 
L 44.554474 133.455946 
L 44.554474 136.573923 
L 45.954597 136.573923 
L 45.954597 138.781128 
L 47.354721 138.781128 
L 47.354721 137.818183 
L 48.754845 137.818183 
L 48.754845 135.957154 
L 50.154968 135.957154 
L 50.154968 134.751173 
L 51.555092 134.751173 
L 51.555092 133.874785 
L 52.955215 133.874785 
L 52.955215 132.895473 
L 54.355339 132.895473 
L 54.355339 132.567048 
L 57.155586 132.649639 
L 57.155586 132.830116 
L 58.55571 132.830116 
L 58.55571 133.743107 
L 59.955833 133.743107 
L 59.955833 134.740359 
L 61.355957 134.740359 
L 61.355957 135.8671 
L 62.75608 135.8671 
L 62.75608 136.517372 
L 64.156204 136.517372 
L 64.156204 137.708023 
L 65.556327 137.708023 
L 65.556327 138.870469 
L 66.956451 138.870469 
L 66.956451 140.03513 
L 68.356575 140.03513 
L 68.356575 141.018999 
L 69.756698 141.018999 
L 69.756698 141.699067 
L 71.156822 141.699067 
L 71.156822 142.787752 
L 72.556945 142.787752 
L 72.556945 144.467748 
L 73.957069 144.467748 
L 73.957069 145.618909 
L 75.357192 145.618909 
L 75.357192 145.92611 
L 76.757316 145.92611 
L 76.757316 148.22002 
L 78.15744 148.22002 
L 78.15744 148.94097 
L 79.557563 148.94097 
L 79.557563 150.552324 
L 80.957687 150.552324 
L 80.957687 151.465315 
L 82.35781 151.465315 
L 82.35781 154.353162 
L 83.757934 154.353162 
L 83.757934 152.15115 
L 85.158057 152.15115 
L 85.158057 154.353162 
L 86.558181 154.353162 
L 86.558181 159.315518 
L 87.958305 159.315518 
L 87.958305 160.456451 
L 89.358428 160.456451 
L 89.358428 159.528722 
L 92.158675 159.528722 
L 92.158675 162.816213 
L 93.558799 162.816213 
L 93.558799 162.47176 
L 94.958922 162.47176 
L 94.958922 169.521688 
L 96.359046 169.521688 
L 96.359046 166.486448 
L 99.159293 166.486448 
L 99.159293 173.279707 
L 100.559417 173.279707 
L 100.559417 171.781219 
L 101.95954 171.781219 
L 101.95954 173.279707 
L 104.759787 173.279707 
L 104.759787 170.556865 
L 107.560035 170.556865 
L 107.560035 175.211595 
L 108.960158 175.211595 
L 108.960158 171.781219 
L 110.360282 171.781219 
L 110.360282 175.211595 
L 111.760405 175.211595 
L 111.760405 171.781219 
L 113.160529 171.781219 
L 113.160529 177.934437 
L 114.560652 177.934437 
L 114.560652 171.781219 
L 115.960776 171.781219 
L 115.960776 177.934437 
L 117.3609 177.934437 
L 117.3609 173.279707 
L 120.161147 173.279707 
L 120.161147 177.934437 
L 121.56127 177.934437 
L 121.56127 182.589166 
L 122.961394 182.589166 
L 122.961394 177.934437 
L 124.361517 177.934437 
L 124.361517 175.211595 
L 125.761641 175.211595 
L 125.761641 173.279707 
L 127.161765 173.279707 
L 127.161765 177.934437 
L 128.561888 177.934437 
L 128.561888 182.589166 
L 129.962012 182.589166 
L 129.962012 173.279707 
L 131.362135 173.279707 
L 131.362135 225.396299 
M 132.762259 225.396299 
L 132.762259 175.211595 
L 134.162382 175.211595 
L 134.162382 182.589166 
L 136.96263 182.589166 
L 136.96263 225.396299 
M 138.362753 225.396299 
L 138.362753 177.934437 
L 139.762877 177.934437 
L 139.762877 225.396299 
M 145.363371 225.396299 
L 145.363371 177.934437 
L 146.763495 177.934437 
L 146.763495 225.396299 
M 148.163618 225.396299 
L 148.163618 182.589166 
L 149.563742 182.589166 
L 149.563742 225.396299 
M 150.963865 225.396299 
L 150.963865 182.589166 
L 152.363989 182.589166 
L 152.363989 225.396299 
M 153.764112 225.396299 
L 153.764112 182.589166 
L 155.164236 182.589166 
L 155.164236 225.396299 
M 159.364607 225.396299 
L 159.364607 182.589166 
L 160.76473 182.589166 
L 160.76473 225.396299 
M 162.164854 225.396299 
L 162.164854 182.589166 
L 163.564977 182.589166 
L 163.564977 225.396299 
M 174.765966 225.396299 
L 174.765966 182.589166 
L 176.16609 182.589166 
L 176.16609 225.396299 
L 176.16609 225.396299 
" style="fill:none;stroke:#ffffff;stroke-linejoin:miter;"/>
   </g>
   <g id="line2d_18">
    <path clip-path="url(#p4c0976558c)" d="M 61.827036 186.347862 
L 61.827036 103.656564 
" style="fill:none;stroke:#ffffff;stroke-dasharray:5.55,2.4;stroke-dashoffset:0;stroke-width:1.5;"/>
   </g>
   <g id="patch_23">
    <path d="M 43.434375 186.347862 
L 43.434375 103.656564 
" style="fill:none;stroke:#ffffff;stroke-linecap:square;stroke-linejoin:miter;stroke-width:0.8;"/>
   </g>
   <g id="patch_24">
    <path d="M 183.166707 186.347862 
L 183.166707 103.656564 
" style="fill:none;stroke:#ffffff;stroke-linecap:square;stroke-linejoin:miter;stroke-width:0.8;"/>
   </g>
   <g id="patch_25">
    <path d="M 43.434375 186.347862 
L 183.166708 186.347862 
" style="fill:none;stroke:#ffffff;stroke-linecap:square;stroke-linejoin:miter;stroke-width:0.8;"/>
   </g>
   <g id="patch_26">
    <path d="M 43.434375 103.656564 
L 183.166708 103.656564 
" style="fill:none;stroke:#ffffff;stroke-linecap:square;stroke-linejoin:miter;stroke-width:0.8;"/>
   </g>
   <g id="patch_27">
    <path d="M 123.647957 130.506564 
L 179.166707 130.506564 
L 179.166707 107.656564 
L 123.647957 107.656564 
z
" style="fill:#ffffff;stroke:#000000;stroke-linejoin:miter;"/>
   </g>
   <g id="text_14">
    <g id="patch_28">
     <path d="M 122.847957 131.306564 
L 179.966707 131.306564 
L 179.966707 106.856564 
L 122.847957 106.856564 
z
" style="stroke:#000000;stroke-linejoin:miter;"/>
    </g>
    <!-- CCD 3 -->
    <g style="fill:#ffffff;" transform="translate(126.847957 116.856564)scale(0.08 -0.08)">
     <use xlink:href="#Roboto-Regular-43"/>
     <use x="65.087891" xlink:href="#Roboto-Regular-43"/>
     <use x="130.175781" xlink:href="#Roboto-Regular-44"/>
     <use x="195.751953" xlink:href="#Roboto-Regular-20"/>
     <use x="220.507812" xlink:href="#Roboto-Regular-33"/>
    </g>
    <!-- mean S/N=67 -->
    <g style="fill:#ffffff;" transform="translate(126.847957 125.681564)scale(0.08 -0.08)">
     <defs>
      <path d="M 2647 4553 
L 2647 4063 
L 2541 4063 
Q 1866 4050 1466 3662 
Q 1066 3275 1003 2572 
Q 1363 2984 1984 2984 
Q 2578 2984 2933 2565 
Q 3288 2147 3288 1484 
Q 3288 781 2905 359 
Q 2522 -63 1878 -63 
Q 1225 -63 819 439 
Q 413 941 413 1731 
L 413 1953 
Q 413 3209 948 3873 
Q 1484 4538 2544 4553 
L 2647 4553 
z
M 1888 2503 
Q 1591 2503 1341 2325 
Q 1091 2147 994 1878 
L 994 1666 
Q 994 1103 1247 759 
Q 1500 416 1878 416 
Q 2269 416 2492 703 
Q 2716 991 2716 1456 
Q 2716 1925 2489 2214 
Q 2263 2503 1888 2503 
z
" id="Roboto-Regular-36" transform="scale(0.015625)"/>
      <path d="M 3316 4225 
L 1431 0 
L 825 0 
L 2703 4075 
L 241 4075 
L 241 4550 
L 3316 4550 
L 3316 4225 
z
" id="Roboto-Regular-37" transform="scale(0.015625)"/>
     </defs>
     <use xlink:href="#Roboto-Regular-6d"/>
     <use x="87.646484" xlink:href="#Roboto-Regular-65"/>
     <use x="140.625" xlink:href="#Roboto-Regular-61"/>
     <use x="195.019531" xlink:href="#Roboto-Regular-6e"/>
     <use x="250.195312" xlink:href="#Roboto-Regular-20"/>
     <use x="274.951172" xlink:href="#Roboto-Regular-53"/>
     <use x="334.277344" xlink:href="#Roboto-Regular-2f"/>
     <use x="375.488281" xlink:href="#Roboto-Regular-4e"/>
     <use x="446.777344" xlink:href="#Roboto-Regular-3d"/>
     <use x="501.660156" xlink:href="#Roboto-Regular-36"/>
     <use x="557.8125" xlink:href="#Roboto-Regular-37"/>
    </g>
   </g>
  </g>
  <g id="axes_4">
   <g id="patch_29">
    <path d="M 192.667188 186.347862 
L 332.39952 186.347862 
L 332.39952 103.656564 
L 192.667188 103.656564 
z
"/>
   </g>
   <g id="patch_30">
    <path clip-path="url(#p24ddabf4c7)" d="M 192.387163 15645.266216 
L 192.387163 142.01074 
L 193.787286 142.01074 
L 193.787286 135.530638 
L 195.18741 135.530638 
L 195.18741 128.807913 
L 196.587534 128.807913 
L 196.587534 123.12024 
L 197.987657 123.12024 
L 197.987657 118.52755 
L 199.387781 118.52755 
L 199.387781 115.113137 
L 200.787904 115.113137 
L 200.787904 112.846968 
L 202.188028 112.846968 
L 202.188028 111.321743 
L 203.588151 111.321743 
L 203.588151 110.539532 
L 204.988275 110.539532 
L 204.988275 110.39435 
L 206.388399 110.39435 
L 206.388399 110.777368 
L 207.788522 110.777368 
L 207.788522 111.496491 
L 209.188646 111.496491 
L 209.188646 112.393589 
L 210.588769 112.393589 
L 210.588769 113.439693 
L 211.988893 113.439693 
L 211.988893 114.520814 
L 213.389016 114.520814 
L 213.389016 115.481337 
L 214.78914 115.481337 
L 214.78914 116.647682 
L 216.189264 116.647682 
L 216.189264 117.798021 
L 217.589387 117.798021 
L 217.589387 118.892402 
L 218.989511 118.892402 
L 218.989511 120.20487 
L 220.389634 120.20487 
L 220.389634 121.172574 
L 221.789758 121.172574 
L 221.789758 122.601753 
L 223.189881 122.601753 
L 223.189881 123.876459 
L 224.590005 123.876459 
L 224.590005 124.856499 
L 225.990129 124.856499 
L 225.990129 126.201457 
L 227.390252 126.201457 
L 227.390252 127.549032 
L 228.790376 127.549032 
L 228.790376 128.538693 
L 230.190499 128.538693 
L 230.190499 129.646492 
L 231.590623 129.646492 
L 231.590623 130.827466 
L 232.990746 130.827466 
L 232.990746 131.969069 
L 234.39087 131.969069 
L 234.39087 132.753323 
L 235.790994 132.753323 
L 235.790994 133.577514 
L 237.191117 133.577514 
L 237.191117 134.585485 
L 238.591241 134.585485 
L 238.591241 135.616263 
L 239.991364 135.616263 
L 239.991364 136.659652 
L 241.391488 136.659652 
L 241.391488 137.476721 
L 242.791611 137.476721 
L 242.791611 138.223163 
L 244.191735 138.223163 
L 244.191735 138.654143 
L 245.591859 138.654143 
L 245.591859 139.520511 
L 246.991982 139.520511 
L 246.991982 140.464569 
L 248.392106 140.464569 
L 248.392106 141.172102 
L 249.792229 141.172102 
L 249.792229 142.472912 
L 251.192353 142.472912 
L 251.192353 143.505242 
L 252.592476 143.505242 
L 252.592476 144.044418 
L 253.9926 144.044418 
L 253.9926 143.790178 
L 255.392724 143.790178 
L 255.392724 144.467748 
L 256.792847 144.467748 
L 256.792847 145.195755 
L 258.192971 145.195755 
L 258.192971 146.24804 
L 259.593094 146.24804 
L 259.593094 146.461244 
L 260.993218 146.461244 
L 260.993218 147.905794 
L 262.393341 147.905794 
L 262.393341 148.424149 
L 263.793465 148.424149 
L 263.793465 148.807988 
L 265.193589 148.807988 
L 265.193589 149.953799 
L 266.593712 149.953799 
L 266.593712 150.609476 
L 267.993836 150.609476 
L 267.993836 152.008265 
L 269.393959 152.008265 
L 269.393959 151.209461 
L 270.794083 151.209461 
L 270.794083 151.799481 
L 272.194206 151.799481 
L 272.194206 152.996481 
L 273.59433 152.996481 
L 273.59433 152.755185 
L 274.994454 152.755185 
L 274.994454 153.162301 
L 276.394577 153.162301 
L 276.394577 154.253673 
L 277.794701 154.253673 
L 277.794701 154.155637 
L 279.194824 154.155637 
L 279.194824 155.5575 
L 280.594948 155.5575 
L 280.594948 156.318542 
L 281.995071 156.318542 
L 281.995071 157.331371 
L 283.395195 157.331371 
L 283.395195 156.45421 
L 284.795319 156.45421 
L 284.795319 157.987048 
L 286.195442 157.987048 
L 286.195442 157.987048 
L 287.595566 157.987048 
L 287.595566 157.81703 
L 288.995689 157.81703 
L 288.995689 162.816213 
L 290.395813 162.816213 
L 290.395813 161.533209 
L 291.795936 161.533209 
L 291.795936 159.315518 
L 293.19606 159.315518 
L 293.19606 162.816213 
L 294.596184 162.816213 
L 294.596184 163.179293 
L 295.996307 163.179293 
L 295.996307 165.902135 
L 297.396431 165.902135 
L 297.396431 161.247406 
L 298.796554 161.247406 
L 298.796554 162.144117 
L 300.196678 162.144117 
L 300.196678 166.486448 
L 301.596801 166.486448 
L 301.596801 163.970248 
L 302.996925 163.970248 
L 302.996925 165.36462 
L 304.397049 165.36462 
L 304.397049 163.179293 
L 305.797172 163.179293 
L 305.797172 167.126489 
L 307.197296 167.126489 
L 307.197296 169.521688 
L 308.597419 169.521688 
L 308.597419 164.866959 
L 309.997543 164.866959 
L 309.997543 167.126489 
L 311.397666 167.126489 
L 311.397666 170.556865 
L 312.79779 170.556865 
L 312.79779 171.781219 
L 314.197914 171.781219 
L 314.197914 167.834023 
L 315.598037 167.834023 
L 315.598037 170.556865 
L 316.998161 170.556865 
L 316.998161 171.781219 
L 318.398284 171.781219 
L 318.398284 169.521688 
L 319.798408 169.521688 
L 319.798408 165.902135 
L 321.198531 165.902135 
L 321.198531 171.781219 
L 322.598655 171.781219 
L 322.598655 182.589166 
L 323.998779 182.589166 
L 323.998779 177.934437 
L 325.398902 177.934437 
L 325.398902 173.279707 
L 326.799026 173.279707 
L 326.799026 173.279707 
L 328.199149 173.279707 
L 328.199149 169.521688 
L 329.599273 169.521688 
L 329.599273 173.279707 
L 330.999396 173.279707 
L 330.999396 177.934437 
L 332.39952 177.934437 
L 332.39952 177.934437 
L 333.799644 177.934437 
L 333.799644 173.279707 
L 335.199767 173.279707 
L 335.199767 177.934437 
L 336.599891 177.934437 
L 336.599891 175.211595 
L 338.000014 175.211595 
L 338.000014 177.934437 
L 339.400138 177.934437 
L 339.400138 177.934437 
L 340.800261 177.934437 
L 340.800261 177.934437 
L 342.200385 177.934437 
L 342.200385 15645.266216 
L 343.600509 15645.266216 
L 343.600509 15645.266216 
L 345.000632 15645.266216 
L 345.000632 15645.266216 
L 343.600509 15645.266216 
L 343.600509 15645.266216 
L 342.200385 15645.266216 
L 342.200385 15645.266216 
L 340.800261 15645.266216 
L 340.800261 15645.266216 
L 339.400138 15645.266216 
L 339.400138 15645.266216 
L 338.000014 15645.266216 
L 338.000014 15645.266216 
L 336.599891 15645.266216 
L 336.599891 15645.266216 
L 335.199767 15645.266216 
L 335.199767 15645.266216 
L 333.799644 15645.266216 
L 333.799644 15645.266216 
L 332.39952 15645.266216 
L 332.39952 15645.266216 
L 330.999396 15645.266216 
L 330.999396 15645.266216 
L 329.599273 15645.266216 
L 329.599273 15645.266216 
L 328.199149 15645.266216 
L 328.199149 15645.266216 
L 326.799026 15645.266216 
L 326.799026 15645.266216 
L 325.398902 15645.266216 
L 325.398902 15645.266216 
L 323.998779 15645.266216 
L 323.998779 15645.266216 
L 322.598655 15645.266216 
L 322.598655 15645.266216 
L 321.198531 15645.266216 
L 321.198531 15645.266216 
L 319.798408 15645.266216 
L 319.798408 15645.266216 
L 318.398284 15645.266216 
L 318.398284 15645.266216 
L 316.998161 15645.266216 
L 316.998161 15645.266216 
L 315.598037 15645.266216 
L 315.598037 15645.266216 
L 314.197914 15645.266216 
L 314.197914 15645.266216 
L 312.79779 15645.266216 
L 312.79779 15645.266216 
L 311.397666 15645.266216 
L 311.397666 15645.266216 
L 309.997543 15645.266216 
L 309.997543 15645.266216 
L 308.597419 15645.266216 
L 308.597419 15645.266216 
L 307.197296 15645.266216 
L 307.197296 15645.266216 
L 305.797172 15645.266216 
L 305.797172 15645.266216 
L 304.397049 15645.266216 
L 304.397049 15645.266216 
L 302.996925 15645.266216 
L 302.996925 15645.266216 
L 301.596801 15645.266216 
L 301.596801 15645.266216 
L 300.196678 15645.266216 
L 300.196678 15645.266216 
L 298.796554 15645.266216 
L 298.796554 15645.266216 
L 297.396431 15645.266216 
L 297.396431 15645.266216 
L 295.996307 15645.266216 
L 295.996307 15645.266216 
L 294.596184 15645.266216 
L 294.596184 15645.266216 
L 293.19606 15645.266216 
L 293.19606 15645.266216 
L 291.795936 15645.266216 
L 291.795936 15645.266216 
L 290.395813 15645.266216 
L 290.395813 15645.266216 
L 288.995689 15645.266216 
L 288.995689 15645.266216 
L 287.595566 15645.266216 
L 287.595566 15645.266216 
L 286.195442 15645.266216 
L 286.195442 15645.266216 
L 284.795319 15645.266216 
L 284.795319 15645.266216 
L 283.395195 15645.266216 
L 283.395195 15645.266216 
L 281.995071 15645.266216 
L 281.995071 15645.266216 
L 280.594948 15645.266216 
L 280.594948 15645.266216 
L 279.194824 15645.266216 
L 279.194824 15645.266216 
L 277.794701 15645.266216 
L 277.794701 15645.266216 
L 276.394577 15645.266216 
L 276.394577 15645.266216 
L 274.994454 15645.266216 
L 274.994454 15645.266216 
L 273.59433 15645.266216 
L 273.59433 15645.266216 
L 272.194206 15645.266216 
L 272.194206 15645.266216 
L 270.794083 15645.266216 
L 270.794083 15645.266216 
L 269.393959 15645.266216 
L 269.393959 15645.266216 
L 267.993836 15645.266216 
L 267.993836 15645.266216 
L 266.593712 15645.266216 
L 266.593712 15645.266216 
L 265.193589 15645.266216 
L 265.193589 15645.266216 
L 263.793465 15645.266216 
L 263.793465 15645.266216 
L 262.393341 15645.266216 
L 262.393341 15645.266216 
L 260.993218 15645.266216 
L 260.993218 15645.266216 
L 259.593094 15645.266216 
L 259.593094 15645.266216 
L 258.192971 15645.266216 
L 258.192971 15645.266216 
L 256.792847 15645.266216 
L 256.792847 15645.266216 
L 255.392724 15645.266216 
L 255.392724 15645.266216 
L 253.9926 15645.266216 
L 253.9926 15645.266216 
L 252.592476 15645.266216 
L 252.592476 15645.266216 
L 251.192353 15645.266216 
L 251.192353 15645.266216 
L 249.792229 15645.266216 
L 249.792229 15645.266216 
L 248.392106 15645.266216 
L 248.392106 15645.266216 
L 246.991982 15645.266216 
L 246.991982 15645.266216 
L 245.591859 15645.266216 
L 245.591859 15645.266216 
L 244.191735 15645.266216 
L 244.191735 15645.266216 
L 242.791611 15645.266216 
L 242.791611 15645.266216 
L 241.391488 15645.266216 
L 241.391488 15645.266216 
L 239.991364 15645.266216 
L 239.991364 15645.266216 
L 238.591241 15645.266216 
L 238.591241 15645.266216 
L 237.191117 15645.266216 
L 237.191117 15645.266216 
L 235.790994 15645.266216 
L 235.790994 15645.266216 
L 234.39087 15645.266216 
L 234.39087 15645.266216 
L 232.990746 15645.266216 
L 232.990746 15645.266216 
L 231.590623 15645.266216 
L 231.590623 15645.266216 
L 230.190499 15645.266216 
L 230.190499 15645.266216 
L 228.790376 15645.266216 
L 228.790376 15645.266216 
L 227.390252 15645.266216 
L 227.390252 15645.266216 
L 225.990129 15645.266216 
L 225.990129 15645.266216 
L 224.590005 15645.266216 
L 224.590005 15645.266216 
L 223.189881 15645.266216 
L 223.189881 15645.266216 
L 221.789758 15645.266216 
L 221.789758 15645.266216 
L 220.389634 15645.266216 
L 220.389634 15645.266216 
L 218.989511 15645.266216 
L 218.989511 15645.266216 
L 217.589387 15645.266216 
L 217.589387 15645.266216 
L 216.189264 15645.266216 
L 216.189264 15645.266216 
L 214.78914 15645.266216 
L 214.78914 15645.266216 
L 213.389016 15645.266216 
L 213.389016 15645.266216 
L 211.988893 15645.266216 
L 211.988893 15645.266216 
L 210.588769 15645.266216 
L 210.588769 15645.266216 
L 209.188646 15645.266216 
L 209.188646 15645.266216 
L 207.788522 15645.266216 
L 207.788522 15645.266216 
L 206.388399 15645.266216 
L 206.388399 15645.266216 
L 204.988275 15645.266216 
L 204.988275 15645.266216 
L 203.588151 15645.266216 
L 203.588151 15645.266216 
L 202.188028 15645.266216 
L 202.188028 15645.266216 
L 200.787904 15645.266216 
L 200.787904 15645.266216 
L 199.387781 15645.266216 
L 199.387781 15645.266216 
L 197.987657 15645.266216 
L 197.987657 15645.266216 
L 196.587534 15645.266216 
L 196.587534 15645.266216 
L 195.18741 15645.266216 
L 195.18741 15645.266216 
L 193.787286 15645.266216 
L 193.787286 15645.266216 
z
" style="fill:#bfbbd9;opacity:0.8;"/>
   </g>
   <g id="matplotlib.axis_7">
    <g id="xtick_7">
     <g id="line2d_19">
      <g>
       <use style="fill:#ffffff;stroke:#ffffff;stroke-width:0.8;" x="248.392106" xlink:href="#m7af841ef2f" y="186.347862"/>
      </g>
     </g>
     <g id="text_15">
      <!-- 200 -->
      <g style="fill:#ffffff;" transform="translate(239.968668 200.847862)scale(0.1 -0.1)">
       <use xlink:href="#Roboto-Regular-32"/>
       <use x="56.152344" xlink:href="#Roboto-Regular-30"/>
       <use x="112.304688" xlink:href="#Roboto-Regular-30"/>
      </g>
     </g>
    </g>
    <g id="xtick_8">
     <g id="line2d_20">
      <g>
       <use style="fill:#ffffff;stroke:#ffffff;stroke-width:0.8;" x="304.397049" xlink:href="#m7af841ef2f" y="186.347862"/>
      </g>
     </g>
     <g id="text_16">
      <!-- 400 -->
      <g style="fill:#ffffff;" transform="translate(295.973611 200.847862)scale(0.1 -0.1)">
       <use xlink:href="#Roboto-Regular-34"/>
       <use x="56.152344" xlink:href="#Roboto-Regular-30"/>
       <use x="112.304688" xlink:href="#Roboto-Regular-30"/>
      </g>
     </g>
    </g>
    <g id="text_17">
     <!-- S/N (per pixel) -->
     <g style="fill:#ffffff;" transform="translate(230.51226 214.900987)scale(0.1 -0.1)">
      <use xlink:href="#Roboto-Regular-53"/>
      <use x="59.326172" xlink:href="#Roboto-Regular-2f"/>
      <use x="100.537109" xlink:href="#Roboto-Regular-4e"/>
      <use x="171.826172" xlink:href="#Roboto-Regular-20"/>
      <use x="196.582031" xlink:href="#Roboto-Regular-28"/>
      <use x="230.761719" xlink:href="#Roboto-Regular-70"/>
      <use x="286.865234" xlink:href="#Roboto-Regular-65"/>
      <use x="339.84375" xlink:href="#Roboto-Regular-72"/>
      <use x="373.681641" xlink:href="#Roboto-Regular-20"/>
      <use x="398.4375" xlink:href="#Roboto-Regular-70"/>
      <use x="454.541016" xlink:href="#Roboto-Regular-69"/>
      <use x="478.808594" xlink:href="#Roboto-Regular-78"/>
      <use x="528.369141" xlink:href="#Roboto-Regular-65"/>
      <use x="581.347656" xlink:href="#Roboto-Regular-6c"/>
      <use x="605.615234" xlink:href="#Roboto-Regular-29"/>
     </g>
    </g>
   </g>
   <g id="matplotlib.axis_8">
    <g id="ytick_10">
     <g id="line2d_21">
      <g>
       <use style="fill:#ffffff;stroke:#ffffff;stroke-width:0.8;" x="192.667188" xlink:href="#m7f6bc72d42" y="167.126489"/>
      </g>
     </g>
    </g>
    <g id="ytick_11">
     <g id="line2d_22">
      <g>
       <use style="fill:#ffffff;stroke:#ffffff;stroke-width:0.8;" x="192.667188" xlink:href="#m7f6bc72d42" y="136.201135"/>
      </g>
     </g>
    </g>
    <g id="ytick_12">
     <g id="line2d_23">
      <g>
       <use style="fill:#ffffff;stroke:#ffffff;stroke-width:0.8;" x="192.667188" xlink:href="#m7f6bc72d42" y="105.275781"/>
      </g>
     </g>
    </g>
   </g>
   <g id="patch_31">
    <path clip-path="url(#p24ddabf4c7)" d="M 192.387163 225.396299 
L 192.387163 130.949235 
L 193.787286 130.949235 
L 193.787286 130.66356 
L 195.18741 130.66356 
L 195.18741 129.19162 
L 196.587534 129.19162 
L 196.587534 128.054531 
L 197.987657 128.054531 
L 197.987657 127.700703 
L 199.387781 127.700703 
L 199.387781 128.014725 
L 200.787904 128.014725 
L 200.787904 129.22243 
L 202.188028 129.22243 
L 202.188028 130.355713 
L 203.588151 130.355713 
L 203.588151 131.439811 
L 204.988275 131.439811 
L 204.988275 132.887269 
L 206.388399 132.887269 
L 206.388399 134.151096 
L 207.788522 134.151096 
L 207.788522 135.803507 
L 209.188646 135.803507 
L 209.188646 136.938581 
L 210.588769 136.938581 
L 210.588769 139.250782 
L 211.988893 139.250782 
L 211.988893 140.047026 
L 213.389016 140.047026 
L 213.389016 141.285683 
L 214.78914 141.285683 
L 214.78914 142.805684 
L 216.189264 142.805684 
L 216.189264 144.944214 
L 217.589387 144.944214 
L 217.589387 146.099793 
L 218.989511 146.099793 
L 218.989511 147.944277 
L 220.389634 147.944277 
L 220.389634 148.720775 
L 221.789758 148.720775 
L 221.789758 151.085099 
L 223.189881 151.085099 
L 223.189881 153.963757 
L 224.590005 153.963757 
L 224.590005 154.766545 
L 225.990129 154.766545 
L 225.990129 153.68584 
L 227.390252 153.68584 
L 227.390252 154.983188 
L 228.790376 154.983188 
L 228.790376 156.592676 
L 230.190499 156.592676 
L 230.190499 158.161483 
L 231.590623 158.161483 
L 231.590623 162.47176 
L 232.990746 162.47176 
L 232.990746 159.108876 
L 234.39087 159.108876 
L 234.39087 163.970248 
L 235.790994 163.970248 
L 235.790994 162.816213 
L 237.191117 162.816213 
L 237.191117 164.866959 
L 238.591241 164.866959 
L 238.591241 167.126489 
L 239.991364 167.126489 
L 239.991364 168.624978 
L 241.391488 168.624978 
L 241.391488 167.834023 
L 242.791611 167.834023 
L 242.791611 165.902135 
L 244.191735 165.902135 
L 244.191735 170.556865 
L 246.991982 170.556865 
L 246.991982 171.781219 
L 248.392106 171.781219 
L 248.392106 175.211595 
L 249.792229 175.211595 
L 249.792229 182.589166 
L 251.192353 182.589166 
L 251.192353 173.279707 
L 252.592476 173.279707 
L 252.592476 182.589166 
L 253.9926 182.589166 
L 253.9926 170.556865 
L 255.392724 170.556865 
L 255.392724 175.211595 
L 256.792847 175.211595 
L 256.792847 182.589166 
L 260.993218 182.589166 
L 260.993218 175.211595 
L 262.393341 175.211595 
L 262.393341 182.589166 
L 265.193589 182.589166 
L 265.193589 225.396299 
M 269.393959 225.396299 
L 269.393959 171.781219 
L 270.794083 171.781219 
L 270.794083 225.396299 
M 272.194206 225.396299 
L 272.194206 177.934437 
L 273.59433 177.934437 
L 273.59433 225.396299 
M 283.395195 225.396299 
L 283.395195 182.589166 
L 286.195442 182.589166 
L 286.195442 225.396299 
M 288.995689 225.396299 
L 288.995689 182.589166 
L 290.395813 182.589166 
L 290.395813 225.396299 
M 295.996307 225.396299 
L 295.996307 182.589166 
L 298.796554 182.589166 
L 298.796554 225.396299 
M 304.397049 225.396299 
L 304.397049 182.589166 
L 305.797172 182.589166 
L 305.797172 225.396299 
L 305.797172 225.396299 
" style="fill:none;stroke:#ffffff;stroke-linejoin:miter;"/>
   </g>
   <g id="line2d_24">
    <path clip-path="url(#p24ddabf4c7)" d="M 209.940272 186.347862 
L 209.940272 103.656564 
" style="fill:none;stroke:#ffffff;stroke-dasharray:5.55,2.4;stroke-dashoffset:0;stroke-width:1.5;"/>
   </g>
   <g id="patch_32">
    <path d="M 192.667188 186.347862 
L 192.667188 103.656564 
" style="fill:none;stroke:#ffffff;stroke-linecap:square;stroke-linejoin:miter;stroke-width:0.8;"/>
   </g>
   <g id="patch_33">
    <path d="M 332.39952 186.347862 
L 332.39952 103.656564 
" style="fill:none;stroke:#ffffff;stroke-linecap:square;stroke-linejoin:miter;stroke-width:0.8;"/>
   </g>
   <g id="patch_34">
    <path d="M 192.667188 186.347862 
L 332.39952 186.347862 
" style="fill:none;stroke:#ffffff;stroke-linecap:square;stroke-linejoin:miter;stroke-width:0.8;"/>
   </g>
   <g id="patch_35">
    <path d="M 192.667188 103.656564 
L 332.39952 103.656564 
" style="fill:none;stroke:#ffffff;stroke-linecap:square;stroke-linejoin:miter;stroke-width:0.8;"/>
   </g>
   <g id="patch_36">
    <path d="M 272.88077 130.506564 
L 328.39952 130.506564 
L 328.39952 107.656564 
L 272.88077 107.656564 
z
" style="fill:#ffffff;stroke:#000000;stroke-linejoin:miter;"/>
   </g>
   <g id="text_18">
    <g id="patch_37">
     <path d="M 272.08077 131.306564 
L 329.19952 131.306564 
L 329.19952 106.856564 
L 272.08077 106.856564 
z
" style="stroke:#000000;stroke-linejoin:miter;"/>
    </g>
    <!-- CCD 4 -->
    <g style="fill:#ffffff;" transform="translate(276.08077 116.856564)scale(0.08 -0.08)">
     <use xlink:href="#Roboto-Regular-43"/>
     <use x="65.087891" xlink:href="#Roboto-Regular-43"/>
     <use x="130.175781" xlink:href="#Roboto-Regular-44"/>
     <use x="195.751953" xlink:href="#Roboto-Regular-20"/>
     <use x="220.507812" xlink:href="#Roboto-Regular-34"/>
    </g>
    <!-- mean S/N=63 -->
    <g style="fill:#ffffff;" transform="translate(276.08077 125.681564)scale(0.08 -0.08)">
     <use xlink:href="#Roboto-Regular-6d"/>
     <use x="87.646484" xlink:href="#Roboto-Regular-65"/>
     <use x="140.625" xlink:href="#Roboto-Regular-61"/>
     <use x="195.019531" xlink:href="#Roboto-Regular-6e"/>
     <use x="250.195312" xlink:href="#Roboto-Regular-20"/>
     <use x="274.951172" xlink:href="#Roboto-Regular-53"/>
     <use x="334.277344" xlink:href="#Roboto-Regular-2f"/>
     <use x="375.488281" xlink:href="#Roboto-Regular-4e"/>
     <use x="446.777344" xlink:href="#Roboto-Regular-3d"/>
     <use x="501.660156" xlink:href="#Roboto-Regular-36"/>
     <use x="557.8125" xlink:href="#Roboto-Regular-33"/>
    </g>
   </g>
  </g>
 </g>
 <defs>
  <clipPath id="p14c9b4a5fa">
   <rect height="82.691297" width="139.732332" x="43.434375" y="9.330783"/>
  </clipPath>
  <clipPath id="p5364c65934">
   <rect height="82.691297" width="139.732333" x="192.667188" y="9.330783"/>
  </clipPath>
  <clipPath id="p4c0976558c">
   <rect height="82.691297" width="139.732332" x="43.434375" y="103.656564"/>
  </clipPath>
  <clipPath id="p24ddabf4c7">
   <rect height="82.691297" width="139.732333" x="192.667188" y="103.656564"/>
  </clipPath>
 </defs>
</svg>
