<?xml version="1.0" encoding="utf-8" standalone="no"?>
<!DOCTYPE svg PUBLIC "-//W3C//DTD SVG 1.1//EN"
  "http://www.w3.org/Graphics/SVG/1.1/DTD/svg11.dtd">
<svg height="224.380806pt" version="1.1" viewBox="0 0 338.87952 224.380806" width="338.87952pt" xmlns="http://www.w3.org/2000/svg" xmlns:xlink="http://www.w3.org/1999/xlink">
 <metadata>
  <rdf:RDF xmlns:cc="http://creativecommons.org/ns#" xmlns:dc="http://purl.org/dc/elements/1.1/" xmlns:rdf="http://www.w3.org/1999/02/22-rdf-syntax-ns#">
   <cc:Work>
    <dc:type rdf:resource="http://purl.org/dc/dcmitype/StillImage"/>
    <dc:date>2021-10-19T09:51:45.074291</dc:date>
    <dc:format>image/svg+xml</dc:format>
    <dc:creator>
     <cc:Agent>
      <dc:title>Matplotlib v3.4.3, https://matplotlib.org/</dc:title>
     </cc:Agent>
    </dc:creator>
   </cc:Work>
  </rdf:RDF>
 </metadata>
 <defs>
  <style type="text/css">*{stroke-linecap:butt;stroke-linejoin:round;}</style>
 </defs>
 <g id="figure_1">
  <g id="patch_1">
   <path d="M 0 224.380806 
L 338.87952 224.380806 
L 338.87952 0 
L 0 0 
z
"/>
  </g>
  <g id="axes_1">
   <g id="patch_2">
    <path d="M 43.434375 92.006587 
L 182.806708 92.006587 
L 182.806708 9.270915 
L 43.434375 9.270915 
z
"/>
   </g>
   <g id="patch_3">
    <path clip-path="url(#p9c15d10d6c)" d="M 43.155072 15547.420753 
L 43.155072 29.053968 
L 44.551588 29.053968 
L 44.551588 22.190949 
L 45.948104 22.190949 
L 45.948104 17.463713 
L 47.344621 17.463713 
L 47.344621 14.741428 
L 48.741137 14.741428 
L 48.741137 13.393074 
L 50.137654 13.393074 
L 50.137654 13.031627 
L 51.53417 13.031627 
L 51.53417 13.652683 
L 52.930686 13.652683 
L 52.930686 14.784196 
L 54.327203 14.784196 
L 54.327203 16.399203 
L 55.723719 16.399203 
L 55.723719 18.180718 
L 57.120235 18.180718 
L 57.120235 20.035473 
L 58.516752 20.035473 
L 58.516752 21.830779 
L 59.913268 21.830779 
L 59.913268 23.891909 
L 61.309784 23.891909 
L 61.309784 25.740653 
L 62.706301 25.740653 
L 62.706301 28.033548 
L 64.102817 28.033548 
L 64.102817 30.157285 
L 65.499333 30.157285 
L 65.499333 32.657359 
L 66.89585 32.657359 
L 66.89585 34.958054 
L 68.292366 34.958054 
L 68.292366 37.157848 
L 69.688883 37.157848 
L 69.688883 39.209081 
L 71.085399 39.209081 
L 71.085399 41.047801 
L 72.481915 41.047801 
L 72.481915 43.119336 
L 73.878432 43.119336 
L 73.878432 44.750234 
L 75.274948 44.750234 
L 75.274948 45.677752 
L 76.671464 45.677752 
L 76.671464 47.550257 
L 78.067981 47.550257 
L 78.067981 48.329305 
L 79.464497 48.329305 
L 79.464497 48.85938 
L 80.861013 48.85938 
L 80.861013 49.774934 
L 82.25753 49.774934 
L 82.25753 51.534224 
L 83.654046 51.534224 
L 83.654046 52.673849 
L 85.050562 52.673849 
L 85.050562 53.647528 
L 86.447079 53.647528 
L 86.447079 54.299078 
L 87.843595 54.299078 
L 87.843595 55.116634 
L 89.240112 55.116634 
L 89.240112 55.829376 
L 90.636628 55.829376 
L 90.636628 57.327525 
L 92.033144 57.327525 
L 92.033144 58.340125 
L 93.429661 58.340125 
L 93.429661 58.498104 
L 94.826177 58.498104 
L 94.826177 61.848248 
L 96.222693 61.848248 
L 96.222693 61.341303 
L 97.61921 61.341303 
L 97.61921 61.9812 
L 99.015726 61.9812 
L 99.015726 63.649328 
L 100.412242 63.649328 
L 100.412242 64.375856 
L 101.808759 64.375856 
L 101.808759 67.805455 
L 103.205275 67.805455 
L 103.205275 65.410799 
L 104.601791 65.410799 
L 104.601791 70.064474 
L 105.998308 70.064474 
L 105.998308 68.840397 
L 107.394824 68.840397 
L 107.394824 70.064474 
L 108.791341 70.064474 
L 108.791341 68.477399 
L 110.187857 68.477399 
L 110.187857 71.025229 
L 111.584373 71.025229 
L 111.584373 75.181356 
L 112.98089 75.181356 
L 112.98089 77.440375 
L 114.377406 77.440375 
L 114.377406 77.440375 
L 115.773922 77.440375 
L 115.773922 76.216298 
L 117.170439 76.216298 
L 117.170439 72.146803 
L 118.566955 72.146803 
L 118.566955 76.216298 
L 119.963471 76.216298 
L 119.963471 83.592199 
L 121.359988 83.592199 
L 121.359988 76.216298 
L 122.756504 76.216298 
L 122.756504 88.245874 
L 124.15302 88.245874 
L 124.15302 83.592199 
L 125.549537 83.592199 
L 125.549537 88.245874 
L 126.946053 88.245874 
L 126.946053 88.245874 
L 128.34257 88.245874 
L 128.34257 80.869973 
L 129.739086 80.869973 
L 129.739086 88.245874 
L 131.135602 88.245874 
L 131.135602 15547.420753 
L 132.532119 15547.420753 
L 132.532119 88.245874 
L 133.928635 88.245874 
L 133.928635 88.245874 
L 135.325151 88.245874 
L 135.325151 88.245874 
L 136.721668 88.245874 
L 136.721668 80.869973 
L 138.118184 80.869973 
L 138.118184 88.245874 
L 139.5147 88.245874 
L 139.5147 88.245874 
L 140.911217 88.245874 
L 140.911217 88.245874 
L 142.307733 88.245874 
L 142.307733 83.592199 
L 143.704249 83.592199 
L 143.704249 88.245874 
L 145.100766 88.245874 
L 145.100766 15547.420753 
L 146.497282 15547.420753 
L 146.497282 88.245874 
L 147.893799 88.245874 
L 147.893799 15547.420753 
L 149.290315 15547.420753 
L 149.290315 15547.420753 
L 150.686831 15547.420753 
L 150.686831 15547.420753 
L 152.083348 15547.420753 
L 152.083348 15547.420753 
L 153.479864 15547.420753 
L 153.479864 15547.420753 
L 154.87638 15547.420753 
L 154.87638 15547.420753 
L 156.272897 15547.420753 
L 156.272897 15547.420753 
L 157.669413 15547.420753 
L 157.669413 15547.420753 
L 159.065929 15547.420753 
L 159.065929 15547.420753 
L 160.462446 15547.420753 
L 160.462446 83.592199 
L 161.858962 83.592199 
L 161.858962 15547.420753 
L 163.255478 15547.420753 
L 163.255478 15547.420753 
L 164.651995 15547.420753 
L 164.651995 15547.420753 
L 166.048511 15547.420753 
L 166.048511 15547.420753 
L 167.445028 15547.420753 
L 167.445028 15547.420753 
L 168.841544 15547.420753 
L 168.841544 15547.420753 
L 170.23806 15547.420753 
L 170.23806 15547.420753 
L 171.634577 15547.420753 
L 171.634577 83.592199 
L 173.031093 83.592199 
L 173.031093 15547.420753 
L 174.427609 15547.420753 
L 174.427609 15547.420753 
L 175.824126 15547.420753 
L 175.824126 15547.420753 
L 177.220642 15547.420753 
L 177.220642 15547.420753 
L 178.617158 15547.420753 
L 178.617158 88.245874 
L 180.013675 88.245874 
L 180.013675 15547.420753 
L 181.410191 15547.420753 
L 181.410191 88.245874 
L 182.806708 88.245874 
L 182.806708 15547.420753 
L 184.203224 15547.420753 
L 184.203224 15547.420753 
L 185.59974 15547.420753 
L 185.59974 15547.420753 
L 186.996257 15547.420753 
L 186.996257 88.245874 
L 188.392773 88.245874 
L 188.392773 15547.420753 
L 189.789289 15547.420753 
L 189.789289 15547.420753 
L 191.185806 15547.420753 
L 191.185806 15547.420753 
L 192.582322 15547.420753 
L 192.582322 88.245874 
L 193.978838 88.245874 
L 193.978838 88.245874 
L 195.375355 88.245874 
L 195.375355 15547.420753 
L 193.978838 15547.420753 
L 193.978838 15547.420753 
L 192.582322 15547.420753 
L 192.582322 15547.420753 
L 191.185806 15547.420753 
L 191.185806 15547.420753 
L 189.789289 15547.420753 
L 189.789289 15547.420753 
L 188.392773 15547.420753 
L 188.392773 15547.420753 
L 186.996257 15547.420753 
L 186.996257 15547.420753 
L 185.59974 15547.420753 
L 185.59974 15547.420753 
L 184.203224 15547.420753 
L 184.203224 15547.420753 
L 182.806708 15547.420753 
L 182.806708 15547.420753 
L 181.410191 15547.420753 
L 181.410191 15547.420753 
L 180.013675 15547.420753 
L 180.013675 15547.420753 
L 178.617158 15547.420753 
L 178.617158 15547.420753 
L 177.220642 15547.420753 
L 177.220642 15547.420753 
L 175.824126 15547.420753 
L 175.824126 15547.420753 
L 174.427609 15547.420753 
L 174.427609 15547.420753 
L 173.031093 15547.420753 
L 173.031093 15547.420753 
L 171.634577 15547.420753 
L 171.634577 15547.420753 
L 170.23806 15547.420753 
L 170.23806 15547.420753 
L 168.841544 15547.420753 
L 168.841544 15547.420753 
L 167.445028 15547.420753 
L 167.445028 15547.420753 
L 166.048511 15547.420753 
L 166.048511 15547.420753 
L 164.651995 15547.420753 
L 164.651995 15547.420753 
L 163.255478 15547.420753 
L 163.255478 15547.420753 
L 161.858962 15547.420753 
L 161.858962 15547.420753 
L 160.462446 15547.420753 
L 160.462446 15547.420753 
L 159.065929 15547.420753 
L 159.065929 15547.420753 
L 157.669413 15547.420753 
L 157.669413 15547.420753 
L 156.272897 15547.420753 
L 156.272897 15547.420753 
L 154.87638 15547.420753 
L 154.87638 15547.420753 
L 153.479864 15547.420753 
L 153.479864 15547.420753 
L 152.083348 15547.420753 
L 152.083348 15547.420753 
L 150.686831 15547.420753 
L 150.686831 15547.420753 
L 149.290315 15547.420753 
L 149.290315 15547.420753 
L 147.893799 15547.420753 
L 147.893799 15547.420753 
L 146.497282 15547.420753 
L 146.497282 15547.420753 
L 145.100766 15547.420753 
L 145.100766 15547.420753 
L 143.704249 15547.420753 
L 143.704249 15547.420753 
L 142.307733 15547.420753 
L 142.307733 15547.420753 
L 140.911217 15547.420753 
L 140.911217 15547.420753 
L 139.5147 15547.420753 
L 139.5147 15547.420753 
L 138.118184 15547.420753 
L 138.118184 15547.420753 
L 136.721668 15547.420753 
L 136.721668 15547.420753 
L 135.325151 15547.420753 
L 135.325151 15547.420753 
L 133.928635 15547.420753 
L 133.928635 15547.420753 
L 132.532119 15547.420753 
L 132.532119 15547.420753 
L 131.135602 15547.420753 
L 131.135602 15547.420753 
L 129.739086 15547.420753 
L 129.739086 15547.420753 
L 128.34257 15547.420753 
L 128.34257 15547.420753 
L 126.946053 15547.420753 
L 126.946053 15547.420753 
L 125.549537 15547.420753 
L 125.549537 15547.420753 
L 124.15302 15547.420753 
L 124.15302 15547.420753 
L 122.756504 15547.420753 
L 122.756504 15547.420753 
L 121.359988 15547.420753 
L 121.359988 15547.420753 
L 119.963471 15547.420753 
L 119.963471 15547.420753 
L 118.566955 15547.420753 
L 118.566955 15547.420753 
L 117.170439 15547.420753 
L 117.170439 15547.420753 
L 115.773922 15547.420753 
L 115.773922 15547.420753 
L 114.377406 15547.420753 
L 114.377406 15547.420753 
L 112.98089 15547.420753 
L 112.98089 15547.420753 
L 111.584373 15547.420753 
L 111.584373 15547.420753 
L 110.187857 15547.420753 
L 110.187857 15547.420753 
L 108.791341 15547.420753 
L 108.791341 15547.420753 
L 107.394824 15547.420753 
L 107.394824 15547.420753 
L 105.998308 15547.420753 
L 105.998308 15547.420753 
L 104.601791 15547.420753 
L 104.601791 15547.420753 
L 103.205275 15547.420753 
L 103.205275 15547.420753 
L 101.808759 15547.420753 
L 101.808759 15547.420753 
L 100.412242 15547.420753 
L 100.412242 15547.420753 
L 99.015726 15547.420753 
L 99.015726 15547.420753 
L 97.61921 15547.420753 
L 97.61921 15547.420753 
L 96.222693 15547.420753 
L 96.222693 15547.420753 
L 94.826177 15547.420753 
L 94.826177 15547.420753 
L 93.429661 15547.420753 
L 93.429661 15547.420753 
L 92.033144 15547.420753 
L 92.033144 15547.420753 
L 90.636628 15547.420753 
L 90.636628 15547.420753 
L 89.240112 15547.420753 
L 89.240112 15547.420753 
L 87.843595 15547.420753 
L 87.843595 15547.420753 
L 86.447079 15547.420753 
L 86.447079 15547.420753 
L 85.050562 15547.420753 
L 85.050562 15547.420753 
L 83.654046 15547.420753 
L 83.654046 15547.420753 
L 82.25753 15547.420753 
L 82.25753 15547.420753 
L 80.861013 15547.420753 
L 80.861013 15547.420753 
L 79.464497 15547.420753 
L 79.464497 15547.420753 
L 78.067981 15547.420753 
L 78.067981 15547.420753 
L 76.671464 15547.420753 
L 76.671464 15547.420753 
L 75.274948 15547.420753 
L 75.274948 15547.420753 
L 73.878432 15547.420753 
L 73.878432 15547.420753 
L 72.481915 15547.420753 
L 72.481915 15547.420753 
L 71.085399 15547.420753 
L 71.085399 15547.420753 
L 69.688883 15547.420753 
L 69.688883 15547.420753 
L 68.292366 15547.420753 
L 68.292366 15547.420753 
L 66.89585 15547.420753 
L 66.89585 15547.420753 
L 65.499333 15547.420753 
L 65.499333 15547.420753 
L 64.102817 15547.420753 
L 64.102817 15547.420753 
L 62.706301 15547.420753 
L 62.706301 15547.420753 
L 61.309784 15547.420753 
L 61.309784 15547.420753 
L 59.913268 15547.420753 
L 59.913268 15547.420753 
L 58.516752 15547.420753 
L 58.516752 15547.420753 
L 57.120235 15547.420753 
L 57.120235 15547.420753 
L 55.723719 15547.420753 
L 55.723719 15547.420753 
L 54.327203 15547.420753 
L 54.327203 15547.420753 
L 52.930686 15547.420753 
L 52.930686 15547.420753 
L 51.53417 15547.420753 
L 51.53417 15547.420753 
L 50.137654 15547.420753 
L 50.137654 15547.420753 
L 48.741137 15547.420753 
L 48.741137 15547.420753 
L 47.344621 15547.420753 
L 47.344621 15547.420753 
L 45.948104 15547.420753 
L 45.948104 15547.420753 
L 44.551588 15547.420753 
L 44.551588 15547.420753 
z
" style="fill:#81b1d2;opacity:0.8;"/>
   </g>
   <g id="matplotlib.axis_1">
    <g id="xtick_1">
     <g id="line2d_1">
      <defs>
       <path d="M 0 0 
L 0 3.5 
" id="mfc1b4fc21b" style="stroke:#ffffff;stroke-width:0.8;"/>
      </defs>
      <g>
       <use style="fill:#ffffff;stroke:#ffffff;stroke-width:0.8;" x="99.015726" xlink:href="#mfc1b4fc21b" y="92.006587"/>
      </g>
     </g>
    </g>
    <g id="xtick_2">
     <g id="line2d_2">
      <g>
       <use style="fill:#ffffff;stroke:#ffffff;stroke-width:0.8;" x="154.87638" xlink:href="#mfc1b4fc21b" y="92.006587"/>
      </g>
     </g>
    </g>
   </g>
   <g id="matplotlib.axis_2">
    <g id="ytick_1">
     <g id="line2d_3">
      <defs>
       <path d="M 0 0 
L -3.5 0 
" id="m2a0992cb4e" style="stroke:#ffffff;stroke-width:0.8;"/>
      </defs>
      <g>
       <use style="fill:#ffffff;stroke:#ffffff;stroke-width:0.8;" x="43.434375" xlink:href="#m2a0992cb4e" y="72.7867"/>
      </g>
     </g>
     <g id="text_1">
      <!-- $\mathdefault{10^{1}}$ -->
      <g style="fill:#ffffff;" transform="translate(20.834375 76.5367)scale(0.1 -0.1)">
       <defs>
        <path d="M 2278 0 
L 1697 0 
L 1697 3853 
L 531 3425 
L 531 3950 
L 2188 4572 
L 2278 4572 
L 2278 0 
z
" id="Roboto-Regular-31" transform="scale(0.015625)"/>
        <path d="M 3231 1941 
Q 3231 925 2884 431 
Q 2538 -63 1800 -63 
Q 1072 -63 722 420 
Q 372 903 359 1863 
L 359 2634 
Q 359 3638 706 4125 
Q 1053 4613 1794 4613 
Q 2528 4613 2875 4142 
Q 3222 3672 3231 2691 
L 3231 1941 
z
M 2653 2731 
Q 2653 3466 2447 3802 
Q 2241 4138 1794 4138 
Q 1350 4138 1147 3803 
Q 944 3469 938 2775 
L 938 1850 
Q 938 1113 1152 761 
Q 1366 409 1800 409 
Q 2228 409 2436 740 
Q 2644 1072 2653 1784 
L 2653 2731 
z
" id="Roboto-Regular-30" transform="scale(0.015625)"/>
       </defs>
       <use transform="translate(0 0.014063)" xlink:href="#Roboto-Regular-31"/>
       <use transform="translate(56.152344 0.014063)" xlink:href="#Roboto-Regular-30"/>
       <use transform="translate(113.22918 36.99375)scale(0.7)" xlink:href="#Roboto-Regular-31"/>
      </g>
     </g>
    </g>
    <g id="ytick_2">
     <g id="line2d_4">
      <g>
       <use style="fill:#ffffff;stroke:#ffffff;stroke-width:0.8;" x="43.434375" xlink:href="#m2a0992cb4e" y="41.86835"/>
      </g>
     </g>
     <g id="text_2">
      <!-- $\mathdefault{10^{3}}$ -->
      <g style="fill:#ffffff;" transform="translate(20.834375 45.61835)scale(0.1 -0.1)">
       <defs>
        <path d="M 1219 2556 
L 1653 2556 
Q 2063 2563 2297 2772 
Q 2531 2981 2531 3338 
Q 2531 4138 1734 4138 
Q 1359 4138 1136 3923 
Q 913 3709 913 3356 
L 334 3356 
Q 334 3897 729 4255 
Q 1125 4613 1734 4613 
Q 2378 4613 2743 4272 
Q 3109 3931 3109 3325 
Q 3109 3028 2917 2750 
Q 2725 2472 2394 2334 
Q 2769 2216 2973 1941 
Q 3178 1666 3178 1269 
Q 3178 656 2778 296 
Q 2378 -63 1737 -63 
Q 1097 -63 695 284 
Q 294 631 294 1200 
L 875 1200 
Q 875 841 1109 625 
Q 1344 409 1738 409 
Q 2156 409 2378 628 
Q 2600 847 2600 1256 
Q 2600 1653 2356 1865 
Q 2113 2078 1653 2084 
L 1219 2084 
L 1219 2556 
z
" id="Roboto-Regular-33" transform="scale(0.015625)"/>
       </defs>
       <use transform="translate(0 0.565625)" xlink:href="#Roboto-Regular-31"/>
       <use transform="translate(56.152344 0.565625)" xlink:href="#Roboto-Regular-30"/>
       <use transform="translate(113.22918 37.545313)scale(0.7)" xlink:href="#Roboto-Regular-33"/>
      </g>
     </g>
    </g>
    <g id="ytick_3">
     <g id="line2d_5">
      <g>
       <use style="fill:#ffffff;stroke:#ffffff;stroke-width:0.8;" x="43.434375" xlink:href="#m2a0992cb4e" y="10.95"/>
      </g>
     </g>
     <g id="text_3">
      <!-- $\mathdefault{10^{5}}$ -->
      <g style="fill:#ffffff;" transform="translate(20.834375 14.7)scale(0.1 -0.1)">
       <defs>
        <path d="M 644 2281 
L 875 4550 
L 3206 4550 
L 3206 4016 
L 1366 4016 
L 1228 2775 
Q 1563 2972 1988 2972 
Q 2609 2972 2975 2561 
Q 3341 2150 3341 1450 
Q 3341 747 2961 342 
Q 2581 -63 1900 -63 
Q 1297 -63 915 271 
Q 534 606 481 1197 
L 1028 1197 
Q 1081 806 1306 607 
Q 1531 409 1900 409 
Q 2303 409 2533 684 
Q 2763 959 2763 1444 
Q 2763 1900 2514 2176 
Q 2266 2453 1853 2453 
Q 1475 2453 1259 2288 
L 1106 2163 
L 644 2281 
z
" id="Roboto-Regular-35" transform="scale(0.015625)"/>
       </defs>
       <use transform="translate(0 0.254688)" xlink:href="#Roboto-Regular-31"/>
       <use transform="translate(56.152344 0.254688)" xlink:href="#Roboto-Regular-30"/>
       <use transform="translate(113.22918 37.234375)scale(0.7)" xlink:href="#Roboto-Regular-35"/>
      </g>
     </g>
    </g>
    <g id="text_4">
     <!-- Number of spectra -->
     <g style="fill:#ffffff;" transform="translate(14.803125 92.246563)rotate(-90)scale(0.1 -0.1)">
      <defs>
       <path d="M 4025 0 
L 3422 0 
L 1131 3506 
L 1131 0 
L 528 0 
L 528 4550 
L 1131 4550 
L 3428 1028 
L 3428 4550 
L 4025 4550 
L 4025 0 
z
" id="Roboto-Regular-4e" transform="scale(0.015625)"/>
       <path d="M 2525 334 
Q 2188 -63 1534 -63 
Q 994 -63 711 251 
Q 428 566 425 1181 
L 425 3381 
L 1003 3381 
L 1003 1197 
Q 1003 428 1628 428 
Q 2291 428 2509 922 
L 2509 3381 
L 3088 3381 
L 3088 0 
L 2538 0 
L 2525 334 
z
" id="Roboto-Regular-75" transform="scale(0.015625)"/>
       <path d="M 981 3381 
L 997 3006 
Q 1369 3444 2000 3444 
Q 2709 3444 2966 2900 
Q 3134 3144 3404 3294 
Q 3675 3444 4044 3444 
Q 5156 3444 5175 2266 
L 5175 0 
L 4597 0 
L 4597 2231 
Q 4597 2594 4431 2773 
Q 4266 2953 3875 2953 
Q 3553 2953 3340 2761 
Q 3128 2569 3094 2244 
L 3094 0 
L 2513 0 
L 2513 2216 
Q 2513 2953 1791 2953 
Q 1222 2953 1013 2469 
L 1013 0 
L 434 0 
L 434 3381 
L 981 3381 
z
" id="Roboto-Regular-6d" transform="scale(0.015625)"/>
       <path d="M 3300 1653 
Q 3300 878 2944 407 
Q 2588 -63 1988 -63 
Q 1347 -63 997 391 
L 969 0 
L 438 0 
L 438 4800 
L 1016 4800 
L 1016 3009 
Q 1366 3444 1981 3444 
Q 2597 3444 2948 2978 
Q 3300 2513 3300 1703 
L 3300 1653 
z
M 2722 1719 
Q 2722 2309 2494 2631 
Q 2266 2953 1838 2953 
Q 1266 2953 1016 2422 
L 1016 959 
Q 1281 428 1844 428 
Q 2259 428 2490 750 
Q 2722 1072 2722 1719 
z
" id="Roboto-Regular-62" transform="scale(0.015625)"/>
       <path d="M 1841 -63 
Q 1153 -63 722 389 
Q 291 841 291 1597 
L 291 1703 
Q 291 2206 483 2601 
Q 675 2997 1020 3220 
Q 1366 3444 1769 3444 
Q 2428 3444 2793 3009 
Q 3159 2575 3159 1766 
L 3159 1525 
L 869 1525 
Q 881 1025 1161 717 
Q 1441 409 1872 409 
Q 2178 409 2390 534 
Q 2603 659 2763 866 
L 3116 591 
Q 2691 -63 1841 -63 
z
M 1769 2969 
Q 1419 2969 1181 2714 
Q 944 2459 888 2000 
L 2581 2000 
L 2581 2044 
Q 2556 2484 2343 2726 
Q 2131 2969 1769 2969 
z
" id="Roboto-Regular-65" transform="scale(0.015625)"/>
       <path d="M 2072 2863 
Q 1941 2884 1788 2884 
Q 1219 2884 1016 2400 
L 1016 0 
L 438 0 
L 438 3381 
L 1000 3381 
L 1009 2991 
Q 1294 3444 1816 3444 
Q 1984 3444 2072 3400 
L 2072 2863 
z
" id="Roboto-Regular-72" transform="scale(0.015625)"/>
       <path id="Roboto-Regular-20" transform="scale(0.015625)"/>
       <path d="M 284 1722 
Q 284 2219 479 2616 
Q 675 3013 1023 3228 
Q 1372 3444 1819 3444 
Q 2509 3444 2936 2966 
Q 3363 2488 3363 1694 
L 3363 1653 
Q 3363 1159 3173 767 
Q 2984 375 2632 156 
Q 2281 -63 1825 -63 
Q 1138 -63 711 415 
Q 284 894 284 1681 
L 284 1722 
z
M 866 1653 
Q 866 1091 1127 750 
Q 1388 409 1825 409 
Q 2266 409 2525 754 
Q 2784 1100 2784 1722 
Q 2784 2278 2520 2623 
Q 2256 2969 1819 2969 
Q 1391 2969 1128 2628 
Q 866 2288 866 1653 
z
" id="Roboto-Regular-6f" transform="scale(0.015625)"/>
       <path d="M 722 0 
L 722 2934 
L 188 2934 
L 188 3381 
L 722 3381 
L 722 3728 
Q 722 4272 1012 4569 
Q 1303 4866 1834 4866 
Q 2034 4866 2231 4813 
L 2200 4344 
Q 2053 4372 1888 4372 
Q 1606 4372 1453 4208 
Q 1300 4044 1300 3738 
L 1300 3381 
L 2022 3381 
L 2022 2934 
L 1300 2934 
L 1300 0 
L 722 0 
z
" id="Roboto-Regular-66" transform="scale(0.015625)"/>
       <path d="M 2406 897 
Q 2406 1131 2229 1261 
Q 2053 1391 1614 1484 
Q 1175 1578 917 1709 
Q 659 1841 536 2022 
Q 413 2203 413 2453 
Q 413 2869 764 3156 
Q 1116 3444 1663 3444 
Q 2238 3444 2595 3147 
Q 2953 2850 2953 2388 
L 2372 2388 
Q 2372 2625 2170 2797 
Q 1969 2969 1663 2969 
Q 1347 2969 1169 2831 
Q 991 2694 991 2472 
Q 991 2263 1156 2156 
Q 1322 2050 1755 1953 
Q 2188 1856 2456 1722 
Q 2725 1588 2854 1398 
Q 2984 1209 2984 938 
Q 2984 484 2621 210 
Q 2259 -63 1681 -63 
Q 1275 -63 962 81 
Q 650 225 473 483 
Q 297 741 297 1041 
L 875 1041 
Q 891 750 1108 579 
Q 1325 409 1681 409 
Q 2009 409 2207 542 
Q 2406 675 2406 897 
z
" id="Roboto-Regular-73" transform="scale(0.015625)"/>
       <path d="M 3294 1653 
Q 3294 881 2941 409 
Q 2588 -63 1984 -63 
Q 1369 -63 1016 328 
L 1016 -1300 
L 438 -1300 
L 438 3381 
L 966 3381 
L 994 3006 
Q 1347 3444 1975 3444 
Q 2584 3444 2939 2984 
Q 3294 2525 3294 1706 
L 3294 1653 
z
M 2716 1719 
Q 2716 2291 2472 2622 
Q 2228 2953 1803 2953 
Q 1278 2953 1016 2488 
L 1016 872 
Q 1275 409 1809 409 
Q 2225 409 2470 739 
Q 2716 1069 2716 1719 
z
" id="Roboto-Regular-70" transform="scale(0.015625)"/>
       <path d="M 1794 409 
Q 2103 409 2334 596 
Q 2566 784 2591 1066 
L 3138 1066 
Q 3122 775 2937 512 
Q 2753 250 2445 93 
Q 2138 -63 1794 -63 
Q 1103 -63 695 398 
Q 288 859 288 1659 
L 288 1756 
Q 288 2250 469 2634 
Q 650 3019 989 3231 
Q 1328 3444 1791 3444 
Q 2359 3444 2736 3103 
Q 3113 2763 3138 2219 
L 2591 2219 
Q 2566 2547 2342 2758 
Q 2119 2969 1791 2969 
Q 1350 2969 1108 2651 
Q 866 2334 866 1734 
L 866 1625 
Q 866 1041 1106 725 
Q 1347 409 1794 409 
z
" id="Roboto-Regular-63" transform="scale(0.015625)"/>
       <path d="M 1222 4200 
L 1222 3381 
L 1853 3381 
L 1853 2934 
L 1222 2934 
L 1222 838 
Q 1222 634 1306 532 
Q 1391 431 1594 431 
Q 1694 431 1869 469 
L 1869 0 
Q 1641 -63 1425 -63 
Q 1038 -63 841 171 
Q 644 406 644 838 
L 644 2934 
L 28 2934 
L 28 3381 
L 644 3381 
L 644 4200 
L 1222 4200 
z
" id="Roboto-Regular-74" transform="scale(0.015625)"/>
       <path d="M 2525 0 
Q 2475 100 2444 356 
Q 2041 -63 1481 -63 
Q 981 -63 661 220 
Q 341 503 341 938 
Q 341 1466 742 1758 
Q 1144 2050 1872 2050 
L 2434 2050 
L 2434 2316 
Q 2434 2619 2253 2798 
Q 2072 2978 1719 2978 
Q 1409 2978 1200 2822 
Q 991 2666 991 2444 
L 409 2444 
Q 409 2697 589 2933 
Q 769 3169 1076 3306 
Q 1384 3444 1753 3444 
Q 2338 3444 2669 3151 
Q 3000 2859 3013 2347 
L 3013 791 
Q 3013 325 3131 50 
L 3131 0 
L 2525 0 
z
M 1566 441 
Q 1838 441 2081 581 
Q 2325 722 2434 947 
L 2434 1641 
L 1981 1641 
Q 919 1641 919 1019 
Q 919 747 1100 594 
Q 1281 441 1566 441 
z
" id="Roboto-Regular-61" transform="scale(0.015625)"/>
      </defs>
      <use xlink:href="#Roboto-Regular-4e"/>
      <use x="71.289062" xlink:href="#Roboto-Regular-75"/>
      <use x="126.416016" xlink:href="#Roboto-Regular-6d"/>
      <use x="214.0625" xlink:href="#Roboto-Regular-62"/>
      <use x="270.166016" xlink:href="#Roboto-Regular-65"/>
      <use x="323.144531" xlink:href="#Roboto-Regular-72"/>
      <use x="356.982422" xlink:href="#Roboto-Regular-20"/>
      <use x="381.738281" xlink:href="#Roboto-Regular-6f"/>
      <use x="438.769531" xlink:href="#Roboto-Regular-66"/>
      <use x="473.486328" xlink:href="#Roboto-Regular-20"/>
      <use x="498.242188" xlink:href="#Roboto-Regular-73"/>
      <use x="549.804688" xlink:href="#Roboto-Regular-70"/>
      <use x="605.908203" xlink:href="#Roboto-Regular-65"/>
      <use x="658.886719" xlink:href="#Roboto-Regular-63"/>
      <use x="711.230469" xlink:href="#Roboto-Regular-74"/>
      <use x="743.896484" xlink:href="#Roboto-Regular-72"/>
      <use x="777.734375" xlink:href="#Roboto-Regular-61"/>
     </g>
    </g>
   </g>
   <g id="patch_4">
    <path clip-path="url(#p9c15d10d6c)" d="M 43.155072 225.380806 
L 43.155072 33.818054 
L 44.551588 33.818054 
L 44.551588 38.317658 
L 45.948104 38.317658 
L 45.948104 41.395303 
L 47.344621 41.395303 
L 47.344621 43.225324 
L 48.741137 43.225324 
L 48.741137 44.301481 
L 50.137654 44.301481 
L 50.137654 45.309147 
L 51.53417 45.309147 
L 51.53417 46.522025 
L 52.930686 46.522025 
L 52.930686 48.561765 
L 54.327203 48.561765 
L 54.327203 50.759205 
L 55.723719 50.759205 
L 55.723719 52.126135 
L 57.120235 52.126135 
L 57.120235 54.786765 
L 58.516752 54.786765 
L 58.516752 56.506976 
L 59.913268 56.506976 
L 59.913268 59.349094 
L 61.309784 59.349094 
L 61.309784 61.22033 
L 62.706301 61.22033 
L 62.706301 63.313567 
L 64.102817 63.313567 
L 64.102817 67.194686 
L 65.499333 67.194686 
L 65.499333 67.805455 
L 66.89585 67.805455 
L 66.89585 71.562623 
L 68.292366 71.562623 
L 68.292366 71.025229 
L 69.688883 71.025229 
L 69.688883 77.440375 
L 71.085399 77.440375 
L 71.085399 83.592199 
L 73.878432 83.592199 
L 73.878432 88.245874 
L 75.274948 88.245874 
L 75.274948 225.380806 
M 79.464497 225.380806 
L 79.464497 83.592199 
L 80.861013 83.592199 
L 80.861013 225.380806 
M 82.25753 225.380806 
L 82.25753 88.245874 
L 83.654046 88.245874 
L 83.654046 225.380806 
M 97.61921 225.380806 
L 97.61921 88.245874 
L 99.015726 88.245874 
L 99.015726 225.380806 
L 99.015726 225.380806 
" style="fill:none;stroke:#ffffff;stroke-linejoin:miter;"/>
   </g>
   <g id="line2d_6">
    <path clip-path="url(#p9c15d10d6c)" d="M 52.726977 92.006587 
L 52.726977 9.270915 
" style="fill:none;stroke:#ffffff;stroke-dasharray:5.55,2.4;stroke-dashoffset:0;stroke-width:1.5;"/>
   </g>
   <g id="patch_5">
    <path d="M 43.434375 92.006587 
L 43.434375 9.270915 
" style="fill:none;stroke:#ffffff;stroke-linecap:square;stroke-linejoin:miter;stroke-width:0.8;"/>
   </g>
   <g id="patch_6">
    <path d="M 182.806708 92.006587 
L 182.806708 9.270915 
" style="fill:none;stroke:#ffffff;stroke-linecap:square;stroke-linejoin:miter;stroke-width:0.8;"/>
   </g>
   <g id="patch_7">
    <path d="M 43.434375 92.006587 
L 182.806708 92.006587 
" style="fill:none;stroke:#ffffff;stroke-linecap:square;stroke-linejoin:miter;stroke-width:0.8;"/>
   </g>
   <g id="patch_8">
    <path d="M 43.434375 9.270915 
L 182.806708 9.270915 
" style="fill:none;stroke:#ffffff;stroke-linecap:square;stroke-linejoin:miter;stroke-width:0.8;"/>
   </g>
   <g id="patch_9">
    <path d="M 123.287958 36.120915 
L 178.806708 36.120915 
L 178.806708 13.270915 
L 123.287958 13.270915 
z
" style="fill:#ffffff;stroke:#000000;stroke-linejoin:miter;"/>
   </g>
   <g id="text_5">
    <g id="patch_10">
     <path d="M 122.487958 36.920915 
L 179.606708 36.920915 
L 179.606708 12.470915 
L 122.487958 12.470915 
z
" style="stroke:#000000;stroke-linejoin:miter;"/>
    </g>
    <!-- CCD 1 -->
    <g style="fill:#ffffff;" transform="translate(126.487958 22.470915)scale(0.08 -0.08)">
     <defs>
      <path d="M 3875 1444 
Q 3791 722 3342 329 
Q 2894 -63 2150 -63 
Q 1344 -63 858 515 
Q 372 1094 372 2063 
L 372 2500 
Q 372 3134 598 3615 
Q 825 4097 1240 4355 
Q 1656 4613 2203 4613 
Q 2928 4613 3365 4208 
Q 3803 3803 3875 3088 
L 3272 3088 
Q 3194 3631 2933 3875 
Q 2672 4119 2203 4119 
Q 1628 4119 1301 3694 
Q 975 3269 975 2484 
L 975 2044 
Q 975 1303 1284 865 
Q 1594 428 2150 428 
Q 2650 428 2917 654 
Q 3184 881 3272 1444 
L 3875 1444 
z
" id="Roboto-Regular-43" transform="scale(0.015625)"/>
      <path d="M 528 0 
L 528 4550 
L 1813 4550 
Q 2406 4550 2862 4287 
Q 3319 4025 3567 3540 
Q 3816 3056 3819 2428 
L 3819 2138 
Q 3819 1494 3570 1009 
Q 3322 525 2861 265 
Q 2400 6 1788 0 
L 528 0 
z
M 1128 4056 
L 1128 491 
L 1759 491 
Q 2453 491 2839 922 
Q 3225 1353 3225 2150 
L 3225 2416 
Q 3225 3191 2861 3620 
Q 2497 4050 1828 4056 
L 1128 4056 
z
" id="Roboto-Regular-44" transform="scale(0.015625)"/>
     </defs>
     <use xlink:href="#Roboto-Regular-43"/>
     <use x="65.087891" xlink:href="#Roboto-Regular-43"/>
     <use x="130.175781" xlink:href="#Roboto-Regular-44"/>
     <use x="195.751953" xlink:href="#Roboto-Regular-20"/>
     <use x="220.507812" xlink:href="#Roboto-Regular-31"/>
    </g>
    <!-- mean S/N=34 -->
    <g style="fill:#ffffff;" transform="translate(126.487958 31.295915)scale(0.08 -0.08)">
     <defs>
      <path d="M 984 3381 
L 1003 2956 
Q 1391 3444 2016 3444 
Q 3088 3444 3097 2234 
L 3097 0 
L 2519 0 
L 2519 2238 
Q 2516 2603 2352 2778 
Q 2188 2953 1841 2953 
Q 1559 2953 1346 2803 
Q 1134 2653 1016 2409 
L 1016 0 
L 438 0 
L 438 3381 
L 984 3381 
z
" id="Roboto-Regular-6e" transform="scale(0.015625)"/>
      <path d="M 1869 2028 
Q 1097 2250 745 2573 
Q 394 2897 394 3372 
Q 394 3909 823 4261 
Q 1253 4613 1941 4613 
Q 2409 4613 2776 4431 
Q 3144 4250 3345 3931 
Q 3547 3613 3547 3234 
L 2944 3234 
Q 2944 3647 2681 3883 
Q 2419 4119 1941 4119 
Q 1497 4119 1248 3923 
Q 1000 3728 1000 3381 
Q 1000 3103 1236 2911 
Q 1472 2719 2039 2559 
Q 2606 2400 2926 2208 
Q 3247 2016 3401 1759 
Q 3556 1503 3556 1156 
Q 3556 603 3125 270 
Q 2694 -63 1972 -63 
Q 1503 -63 1097 117 
Q 691 297 470 609 
Q 250 922 250 1319 
L 853 1319 
Q 853 906 1158 667 
Q 1463 428 1972 428 
Q 2447 428 2700 622 
Q 2953 816 2953 1150 
Q 2953 1484 2718 1667 
Q 2484 1850 1869 2028 
z
" id="Roboto-Regular-53" transform="scale(0.015625)"/>
      <path d="M 553 -391 
L 56 -391 
L 1956 4550 
L 2450 4550 
L 553 -391 
z
" id="Roboto-Regular-2f" transform="scale(0.015625)"/>
      <path d="M 3081 2544 
L 475 2544 
L 475 3047 
L 3081 3047 
L 3081 2544 
z
M 3081 1247 
L 475 1247 
L 475 1747 
L 3081 1747 
L 3081 1247 
z
" id="Roboto-Regular-3d" transform="scale(0.015625)"/>
      <path d="M 2819 1528 
L 3450 1528 
L 3450 1056 
L 2819 1056 
L 2819 0 
L 2238 0 
L 2238 1056 
L 166 1056 
L 166 1397 
L 2203 4550 
L 2819 4550 
L 2819 1528 
z
M 822 1528 
L 2238 1528 
L 2238 3759 
L 2169 3634 
L 822 1528 
z
" id="Roboto-Regular-34" transform="scale(0.015625)"/>
     </defs>
     <use xlink:href="#Roboto-Regular-6d"/>
     <use x="87.646484" xlink:href="#Roboto-Regular-65"/>
     <use x="140.625" xlink:href="#Roboto-Regular-61"/>
     <use x="195.019531" xlink:href="#Roboto-Regular-6e"/>
     <use x="250.195312" xlink:href="#Roboto-Regular-20"/>
     <use x="274.951172" xlink:href="#Roboto-Regular-53"/>
     <use x="334.277344" xlink:href="#Roboto-Regular-2f"/>
     <use x="375.488281" xlink:href="#Roboto-Regular-4e"/>
     <use x="446.777344" xlink:href="#Roboto-Regular-3d"/>
     <use x="501.660156" xlink:href="#Roboto-Regular-33"/>
     <use x="557.8125" xlink:href="#Roboto-Regular-34"/>
    </g>
   </g>
  </g>
  <g id="axes_2">
   <g id="patch_11">
    <path d="M 192.307188 92.006587 
L 331.67952 92.006587 
L 331.67952 9.270915 
L 192.307188 9.270915 
z
"/>
   </g>
   <g id="patch_12">
    <path clip-path="url(#p35110c6106)" d="M 192.027884 15547.420753 
L 192.027884 41.508886 
L 193.424401 41.508886 
L 193.424401 33.017615 
L 194.820917 33.017615 
L 194.820917 26.860403 
L 196.217433 26.860403 
L 196.217433 22.227944 
L 197.61395 22.227944 
L 197.61395 19.01919 
L 199.010466 19.01919 
L 199.010466 16.893113 
L 200.406982 16.893113 
L 200.406982 15.607974 
L 201.803499 15.607974 
L 201.803499 14.995715 
L 203.200015 14.995715 
L 203.200015 15.132006 
L 204.596531 15.132006 
L 204.596531 15.833971 
L 205.993048 15.833971 
L 205.993048 16.759246 
L 207.389564 16.759246 
L 207.389564 17.919952 
L 208.786081 17.919952 
L 208.786081 19.173023 
L 210.182597 19.173023 
L 210.182597 20.460741 
L 211.579113 20.460741 
L 211.579113 21.837232 
L 212.97563 21.837232 
L 212.97563 23.145013 
L 214.372146 23.145013 
L 214.372146 24.664769 
L 215.768662 24.664769 
L 215.768662 26.088643 
L 217.165179 26.088643 
L 217.165179 27.602171 
L 218.561695 27.602171 
L 218.561695 29.115976 
L 219.958211 29.115976 
L 219.958211 30.812453 
L 221.354728 30.812453 
L 221.354728 32.665878 
L 222.751244 32.665878 
L 222.751244 34.423429 
L 224.14776 34.423429 
L 224.14776 35.915489 
L 225.544277 35.915489 
L 225.544277 37.892274 
L 226.940793 37.892274 
L 226.940793 39.396925 
L 228.33731 39.396925 
L 228.33731 41.222352 
L 229.733826 41.222352 
L 229.733826 42.305232 
L 231.130342 42.305232 
L 231.130342 44.018155 
L 232.526859 44.018155 
L 232.526859 44.739929 
L 233.923375 44.739929 
L 233.923375 46.782125 
L 235.319891 46.782125 
L 235.319891 47.457008 
L 236.716408 47.457008 
L 236.716408 48.241998 
L 238.112924 48.241998 
L 238.112924 49.032774 
L 239.50944 49.032774 
L 239.50944 50.041744 
L 240.905957 50.041744 
L 240.905957 51.36637 
L 242.302473 51.36637 
L 242.302473 52.126135 
L 243.698989 52.126135 
L 243.698989 52.475396 
L 245.095506 52.475396 
L 245.095506 52.126135 
L 246.492022 52.126135 
L 246.492022 53.608832 
L 247.888539 53.608832 
L 247.888539 55.165109 
L 249.285055 55.165109 
L 249.285055 55.883302 
L 250.681571 55.883302 
L 250.681571 56.687628 
L 252.078088 56.687628 
L 252.078088 57.960711 
L 253.474604 57.960711 
L 253.474604 57.960711 
L 254.87112 57.960711 
L 254.87112 58.659891 
L 256.267637 58.659891 
L 256.267637 60.646148 
L 257.664153 60.646148 
L 257.664153 59.170048 
L 259.060669 59.170048 
L 259.060669 60.646148 
L 260.457186 60.646148 
L 260.457186 61.22033 
L 261.853702 61.22033 
L 261.853702 62.839452 
L 263.250218 62.839452 
L 263.250218 65.638408 
L 264.646735 65.638408 
L 264.646735 65.190653 
L 266.043251 65.190653 
L 266.043251 64.570474 
L 267.439768 64.570474 
L 267.439768 64.186722 
L 268.836284 64.186722 
L 268.836284 68.133024 
L 270.2328 68.133024 
L 270.2328 66.371554 
L 271.629317 66.371554 
L 271.629317 72.146803 
L 273.025833 72.146803 
L 273.025833 69.631173 
L 274.422349 69.631173 
L 274.422349 70.527681 
L 275.818866 70.527681 
L 275.818866 71.025229 
L 277.215382 71.025229 
L 277.215382 71.025229 
L 278.611898 71.025229 
L 278.611898 73.494073 
L 280.008415 73.494073 
L 280.008415 75.181356 
L 281.404931 75.181356 
L 281.404931 73.494073 
L 282.801447 73.494073 
L 282.801447 77.440375 
L 284.197964 77.440375 
L 284.197964 88.245874 
L 285.59448 88.245874 
L 285.59448 77.440375 
L 286.990997 77.440375 
L 286.990997 80.869973 
L 288.387513 80.869973 
L 288.387513 80.869973 
L 289.784029 80.869973 
L 289.784029 83.592199 
L 291.180546 83.592199 
L 291.180546 83.592199 
L 292.577062 83.592199 
L 292.577062 83.592199 
L 293.973578 83.592199 
L 293.973578 88.245874 
L 295.370095 88.245874 
L 295.370095 88.245874 
L 296.766611 88.245874 
L 296.766611 88.245874 
L 298.163127 88.245874 
L 298.163127 88.245874 
L 299.559644 88.245874 
L 299.559644 15547.420753 
L 300.95616 15547.420753 
L 300.95616 88.245874 
L 302.352676 88.245874 
L 302.352676 15547.420753 
L 303.749193 15547.420753 
L 303.749193 83.592199 
L 305.145709 83.592199 
L 305.145709 15547.420753 
L 306.542226 15547.420753 
L 306.542226 15547.420753 
L 307.938742 15547.420753 
L 307.938742 15547.420753 
L 309.335258 15547.420753 
L 309.335258 15547.420753 
L 310.731775 15547.420753 
L 310.731775 15547.420753 
L 312.128291 15547.420753 
L 312.128291 83.592199 
L 313.524807 83.592199 
L 313.524807 15547.420753 
L 314.921324 15547.420753 
L 314.921324 15547.420753 
L 316.31784 15547.420753 
L 316.31784 15547.420753 
L 317.714356 15547.420753 
L 317.714356 88.245874 
L 319.110873 88.245874 
L 319.110873 15547.420753 
L 320.507389 15547.420753 
L 320.507389 15547.420753 
L 321.903905 15547.420753 
L 321.903905 15547.420753 
L 323.300422 15547.420753 
L 323.300422 88.245874 
L 324.696938 88.245874 
L 324.696938 15547.420753 
L 326.093455 15547.420753 
L 326.093455 15547.420753 
L 327.489971 15547.420753 
L 327.489971 15547.420753 
L 328.886487 15547.420753 
L 328.886487 15547.420753 
L 330.283004 15547.420753 
L 330.283004 15547.420753 
L 331.67952 15547.420753 
L 331.67952 15547.420753 
L 333.076036 15547.420753 
L 333.076036 15547.420753 
L 334.472553 15547.420753 
L 334.472553 15547.420753 
L 335.869069 15547.420753 
L 335.869069 15547.420753 
L 337.265585 15547.420753 
L 337.265585 15547.420753 
L 338.662102 15547.420753 
L 338.662102 15547.420753 
L 340.058618 15547.420753 
L 340.058618 15547.420753 
L 341.455135 15547.420753 
L 341.455135 15547.420753 
L 342.851651 15547.420753 
L 342.851651 15547.420753 
L 344.248167 15547.420753 
L 344.248167 15547.420753 
L 342.851651 15547.420753 
L 342.851651 15547.420753 
L 341.455135 15547.420753 
L 341.455135 15547.420753 
L 340.058618 15547.420753 
L 340.058618 15547.420753 
L 338.662102 15547.420753 
L 338.662102 15547.420753 
L 337.265585 15547.420753 
L 337.265585 15547.420753 
L 335.869069 15547.420753 
L 335.869069 15547.420753 
L 334.472553 15547.420753 
L 334.472553 15547.420753 
L 333.076036 15547.420753 
L 333.076036 15547.420753 
L 331.67952 15547.420753 
L 331.67952 15547.420753 
L 330.283004 15547.420753 
L 330.283004 15547.420753 
L 328.886487 15547.420753 
L 328.886487 15547.420753 
L 327.489971 15547.420753 
L 327.489971 15547.420753 
L 326.093455 15547.420753 
L 326.093455 15547.420753 
L 324.696938 15547.420753 
L 324.696938 15547.420753 
L 323.300422 15547.420753 
L 323.300422 15547.420753 
L 321.903905 15547.420753 
L 321.903905 15547.420753 
L 320.507389 15547.420753 
L 320.507389 15547.420753 
L 319.110873 15547.420753 
L 319.110873 15547.420753 
L 317.714356 15547.420753 
L 317.714356 15547.420753 
L 316.31784 15547.420753 
L 316.31784 15547.420753 
L 314.921324 15547.420753 
L 314.921324 15547.420753 
L 313.524807 15547.420753 
L 313.524807 15547.420753 
L 312.128291 15547.420753 
L 312.128291 15547.420753 
L 310.731775 15547.420753 
L 310.731775 15547.420753 
L 309.335258 15547.420753 
L 309.335258 15547.420753 
L 307.938742 15547.420753 
L 307.938742 15547.420753 
L 306.542226 15547.420753 
L 306.542226 15547.420753 
L 305.145709 15547.420753 
L 305.145709 15547.420753 
L 303.749193 15547.420753 
L 303.749193 15547.420753 
L 302.352676 15547.420753 
L 302.352676 15547.420753 
L 300.95616 15547.420753 
L 300.95616 15547.420753 
L 299.559644 15547.420753 
L 299.559644 15547.420753 
L 298.163127 15547.420753 
L 298.163127 15547.420753 
L 296.766611 15547.420753 
L 296.766611 15547.420753 
L 295.370095 15547.420753 
L 295.370095 15547.420753 
L 293.973578 15547.420753 
L 293.973578 15547.420753 
L 292.577062 15547.420753 
L 292.577062 15547.420753 
L 291.180546 15547.420753 
L 291.180546 15547.420753 
L 289.784029 15547.420753 
L 289.784029 15547.420753 
L 288.387513 15547.420753 
L 288.387513 15547.420753 
L 286.990997 15547.420753 
L 286.990997 15547.420753 
L 285.59448 15547.420753 
L 285.59448 15547.420753 
L 284.197964 15547.420753 
L 284.197964 15547.420753 
L 282.801447 15547.420753 
L 282.801447 15547.420753 
L 281.404931 15547.420753 
L 281.404931 15547.420753 
L 280.008415 15547.420753 
L 280.008415 15547.420753 
L 278.611898 15547.420753 
L 278.611898 15547.420753 
L 277.215382 15547.420753 
L 277.215382 15547.420753 
L 275.818866 15547.420753 
L 275.818866 15547.420753 
L 274.422349 15547.420753 
L 274.422349 15547.420753 
L 273.025833 15547.420753 
L 273.025833 15547.420753 
L 271.629317 15547.420753 
L 271.629317 15547.420753 
L 270.2328 15547.420753 
L 270.2328 15547.420753 
L 268.836284 15547.420753 
L 268.836284 15547.420753 
L 267.439768 15547.420753 
L 267.439768 15547.420753 
L 266.043251 15547.420753 
L 266.043251 15547.420753 
L 264.646735 15547.420753 
L 264.646735 15547.420753 
L 263.250218 15547.420753 
L 263.250218 15547.420753 
L 261.853702 15547.420753 
L 261.853702 15547.420753 
L 260.457186 15547.420753 
L 260.457186 15547.420753 
L 259.060669 15547.420753 
L 259.060669 15547.420753 
L 257.664153 15547.420753 
L 257.664153 15547.420753 
L 256.267637 15547.420753 
L 256.267637 15547.420753 
L 254.87112 15547.420753 
L 254.87112 15547.420753 
L 253.474604 15547.420753 
L 253.474604 15547.420753 
L 252.078088 15547.420753 
L 252.078088 15547.420753 
L 250.681571 15547.420753 
L 250.681571 15547.420753 
L 249.285055 15547.420753 
L 249.285055 15547.420753 
L 247.888539 15547.420753 
L 247.888539 15547.420753 
L 246.492022 15547.420753 
L 246.492022 15547.420753 
L 245.095506 15547.420753 
L 245.095506 15547.420753 
L 243.698989 15547.420753 
L 243.698989 15547.420753 
L 242.302473 15547.420753 
L 242.302473 15547.420753 
L 240.905957 15547.420753 
L 240.905957 15547.420753 
L 239.50944 15547.420753 
L 239.50944 15547.420753 
L 238.112924 15547.420753 
L 238.112924 15547.420753 
L 236.716408 15547.420753 
L 236.716408 15547.420753 
L 235.319891 15547.420753 
L 235.319891 15547.420753 
L 233.923375 15547.420753 
L 233.923375 15547.420753 
L 232.526859 15547.420753 
L 232.526859 15547.420753 
L 231.130342 15547.420753 
L 231.130342 15547.420753 
L 229.733826 15547.420753 
L 229.733826 15547.420753 
L 228.33731 15547.420753 
L 228.33731 15547.420753 
L 226.940793 15547.420753 
L 226.940793 15547.420753 
L 225.544277 15547.420753 
L 225.544277 15547.420753 
L 224.14776 15547.420753 
L 224.14776 15547.420753 
L 222.751244 15547.420753 
L 222.751244 15547.420753 
L 221.354728 15547.420753 
L 221.354728 15547.420753 
L 219.958211 15547.420753 
L 219.958211 15547.420753 
L 218.561695 15547.420753 
L 218.561695 15547.420753 
L 217.165179 15547.420753 
L 217.165179 15547.420753 
L 215.768662 15547.420753 
L 215.768662 15547.420753 
L 214.372146 15547.420753 
L 214.372146 15547.420753 
L 212.97563 15547.420753 
L 212.97563 15547.420753 
L 211.579113 15547.420753 
L 211.579113 15547.420753 
L 210.182597 15547.420753 
L 210.182597 15547.420753 
L 208.786081 15547.420753 
L 208.786081 15547.420753 
L 207.389564 15547.420753 
L 207.389564 15547.420753 
L 205.993048 15547.420753 
L 205.993048 15547.420753 
L 204.596531 15547.420753 
L 204.596531 15547.420753 
L 203.200015 15547.420753 
L 203.200015 15547.420753 
L 201.803499 15547.420753 
L 201.803499 15547.420753 
L 200.406982 15547.420753 
L 200.406982 15547.420753 
L 199.010466 15547.420753 
L 199.010466 15547.420753 
L 197.61395 15547.420753 
L 197.61395 15547.420753 
L 196.217433 15547.420753 
L 196.217433 15547.420753 
L 194.820917 15547.420753 
L 194.820917 15547.420753 
L 193.424401 15547.420753 
L 193.424401 15547.420753 
z
" style="fill:#8dd3c7;opacity:0.8;"/>
   </g>
   <g id="matplotlib.axis_3">
    <g id="xtick_3">
     <g id="line2d_7">
      <g>
       <use style="fill:#ffffff;stroke:#ffffff;stroke-width:0.8;" x="247.888539" xlink:href="#mfc1b4fc21b" y="92.006587"/>
      </g>
     </g>
    </g>
    <g id="xtick_4">
     <g id="line2d_8">
      <g>
       <use style="fill:#ffffff;stroke:#ffffff;stroke-width:0.8;" x="303.749193" xlink:href="#mfc1b4fc21b" y="92.006587"/>
      </g>
     </g>
    </g>
   </g>
   <g id="matplotlib.axis_4">
    <g id="ytick_4">
     <g id="line2d_9">
      <g>
       <use style="fill:#ffffff;stroke:#ffffff;stroke-width:0.8;" x="192.307188" xlink:href="#m2a0992cb4e" y="72.7867"/>
      </g>
     </g>
    </g>
    <g id="ytick_5">
     <g id="line2d_10">
      <g>
       <use style="fill:#ffffff;stroke:#ffffff;stroke-width:0.8;" x="192.307188" xlink:href="#m2a0992cb4e" y="41.86835"/>
      </g>
     </g>
    </g>
    <g id="ytick_6">
     <g id="line2d_11">
      <g>
       <use style="fill:#ffffff;stroke:#ffffff;stroke-width:0.8;" x="192.307188" xlink:href="#m2a0992cb4e" y="10.95"/>
      </g>
     </g>
    </g>
   </g>
   <g id="patch_13">
    <path clip-path="url(#p35110c6106)" d="M 192.027884 225.380806 
L 192.027884 35.663029 
L 193.424401 35.663029 
L 193.424401 36.66696 
L 194.820917 36.66696 
L 194.820917 35.565169 
L 196.217433 35.565169 
L 196.217433 34.83918 
L 197.61395 34.83918 
L 197.61395 34.167011 
L 199.010466 34.167011 
L 199.010466 34.341968 
L 201.803499 34.313579 
L 201.803499 34.860422 
L 203.200015 34.860422 
L 203.200015 36.223997 
L 204.596531 36.223997 
L 204.596531 37.340044 
L 205.993048 37.340044 
L 205.993048 38.361319 
L 207.389564 38.361319 
L 207.389564 39.948659 
L 208.786081 39.948659 
L 208.786081 41.728819 
L 210.182597 41.728819 
L 210.182597 43.054934 
L 211.579113 43.054934 
L 211.579113 44.282216 
L 212.97563 44.282216 
L 212.97563 45.821369 
L 214.372146 45.821369 
L 214.372146 46.980438 
L 215.768662 46.980438 
L 215.768662 48.78373 
L 217.165179 48.78373 
L 217.165179 50.390895 
L 218.561695 50.390895 
L 218.561695 53.053653 
L 219.958211 53.053653 
L 219.958211 53.494063 
L 221.354728 53.494063 
L 221.354728 55.362589 
L 224.14776 55.463551 
L 224.14776 56.506976 
L 225.544277 56.506976 
L 225.544277 59.533047 
L 226.940793 59.533047 
L 226.940793 60.323822 
L 228.33731 60.323822 
L 228.33731 61.101498 
L 229.733826 61.101498 
L 229.733826 61.848248 
L 231.130342 61.848248 
L 231.130342 62.116838 
L 232.526859 62.116838 
L 232.526859 62.9938 
L 233.923375 62.9938 
L 233.923375 64.375856 
L 235.319891 64.375856 
L 235.319891 66.908947 
L 236.716408 66.908947 
L 236.716408 67.194686 
L 238.112924 67.194686 
L 238.112924 66.371554 
L 239.50944 66.371554 
L 239.50944 69.224149 
L 240.905957 69.224149 
L 240.905957 64.570474 
L 242.302473 64.570474 
L 242.302473 68.133024 
L 243.698989 68.133024 
L 243.698989 70.064474 
L 245.095506 70.064474 
L 245.095506 72.7867 
L 246.492022 72.7867 
L 246.492022 72.146803 
L 247.888539 72.146803 
L 247.888539 75.181356 
L 250.681571 75.181356 
L 250.681571 80.869973 
L 252.078088 80.869973 
L 252.078088 77.440375 
L 253.474604 77.440375 
L 253.474604 83.592199 
L 256.267637 83.592199 
L 256.267637 76.216298 
L 257.664153 76.216298 
L 257.664153 83.592199 
L 259.060669 83.592199 
L 259.060669 78.938524 
L 260.457186 78.938524 
L 260.457186 83.592199 
L 261.853702 83.592199 
L 261.853702 80.869973 
L 263.250218 80.869973 
L 263.250218 88.245874 
L 264.646735 88.245874 
L 264.646735 83.592199 
L 266.043251 83.592199 
L 266.043251 88.245874 
L 270.2328 88.245874 
L 270.2328 83.592199 
L 271.629317 83.592199 
L 271.629317 80.869973 
L 273.025833 80.869973 
L 273.025833 83.592199 
L 274.422349 83.592199 
L 274.422349 225.380806 
M 275.818866 225.380806 
L 275.818866 88.245874 
L 277.215382 88.245874 
L 277.215382 225.380806 
M 281.404931 225.380806 
L 281.404931 88.245874 
L 282.801447 88.245874 
L 282.801447 225.380806 
M 284.197964 225.380806 
L 284.197964 88.245874 
L 285.59448 88.245874 
L 285.59448 225.380806 
M 292.577062 225.380806 
L 292.577062 83.592199 
L 293.973578 83.592199 
L 293.973578 225.380806 
M 299.559644 225.380806 
L 299.559644 88.245874 
L 300.95616 88.245874 
L 300.95616 225.380806 
L 300.95616 225.380806 
" style="fill:none;stroke:#ffffff;stroke-linejoin:miter;"/>
   </g>
   <g id="line2d_12">
    <path clip-path="url(#p35110c6106)" d="M 205.871398 92.006587 
L 205.871398 9.270915 
" style="fill:none;stroke:#ffffff;stroke-dasharray:5.55,2.4;stroke-dashoffset:0;stroke-width:1.5;"/>
   </g>
   <g id="patch_14">
    <path d="M 192.307188 92.006587 
L 192.307188 9.270915 
" style="fill:none;stroke:#ffffff;stroke-linecap:square;stroke-linejoin:miter;stroke-width:0.8;"/>
   </g>
   <g id="patch_15">
    <path d="M 331.67952 92.006587 
L 331.67952 9.270915 
" style="fill:none;stroke:#ffffff;stroke-linecap:square;stroke-linejoin:miter;stroke-width:0.8;"/>
   </g>
   <g id="patch_16">
    <path d="M 192.307188 92.006587 
L 331.67952 92.006587 
" style="fill:none;stroke:#ffffff;stroke-linecap:square;stroke-linejoin:miter;stroke-width:0.8;"/>
   </g>
   <g id="patch_17">
    <path d="M 192.307188 9.270915 
L 331.67952 9.270915 
" style="fill:none;stroke:#ffffff;stroke-linecap:square;stroke-linejoin:miter;stroke-width:0.8;"/>
   </g>
   <g id="patch_18">
    <path d="M 272.16077 36.120915 
L 327.67952 36.120915 
L 327.67952 13.270915 
L 272.16077 13.270915 
z
" style="fill:#ffffff;stroke:#000000;stroke-linejoin:miter;"/>
   </g>
   <g id="text_6">
    <g id="patch_19">
     <path d="M 271.36077 36.920915 
L 328.47952 36.920915 
L 328.47952 12.470915 
L 271.36077 12.470915 
z
" style="stroke:#000000;stroke-linejoin:miter;"/>
    </g>
    <!-- CCD 2 -->
    <g style="fill:#ffffff;" transform="translate(275.36077 22.470915)scale(0.08 -0.08)">
     <defs>
      <path d="M 3359 0 
L 378 0 
L 378 416 
L 1953 2166 
Q 2303 2563 2436 2811 
Q 2569 3059 2569 3325 
Q 2569 3681 2353 3909 
Q 2138 4138 1778 4138 
Q 1347 4138 1108 3892 
Q 869 3647 869 3209 
L 291 3209 
Q 291 3838 695 4225 
Q 1100 4613 1778 4613 
Q 2413 4613 2781 4280 
Q 3150 3947 3150 3394 
Q 3150 2722 2294 1794 
L 1075 472 
L 3359 472 
L 3359 0 
z
" id="Roboto-Regular-32" transform="scale(0.015625)"/>
     </defs>
     <use xlink:href="#Roboto-Regular-43"/>
     <use x="65.087891" xlink:href="#Roboto-Regular-43"/>
     <use x="130.175781" xlink:href="#Roboto-Regular-44"/>
     <use x="195.751953" xlink:href="#Roboto-Regular-20"/>
     <use x="220.507812" xlink:href="#Roboto-Regular-32"/>
    </g>
    <!-- mean S/N=50 -->
    <g style="fill:#ffffff;" transform="translate(275.36077 31.295915)scale(0.08 -0.08)">
     <use xlink:href="#Roboto-Regular-6d"/>
     <use x="87.646484" xlink:href="#Roboto-Regular-65"/>
     <use x="140.625" xlink:href="#Roboto-Regular-61"/>
     <use x="195.019531" xlink:href="#Roboto-Regular-6e"/>
     <use x="250.195312" xlink:href="#Roboto-Regular-20"/>
     <use x="274.951172" xlink:href="#Roboto-Regular-53"/>
     <use x="334.277344" xlink:href="#Roboto-Regular-2f"/>
     <use x="375.488281" xlink:href="#Roboto-Regular-4e"/>
     <use x="446.777344" xlink:href="#Roboto-Regular-3d"/>
     <use x="501.660156" xlink:href="#Roboto-Regular-35"/>
     <use x="557.8125" xlink:href="#Roboto-Regular-30"/>
    </g>
   </g>
  </g>
  <g id="axes_3">
   <g id="patch_20">
    <path d="M 43.434375 186.332368 
L 182.806708 186.332368 
L 182.806708 103.596696 
L 43.434375 103.596696 
z
"/>
   </g>
   <g id="patch_21">
    <path clip-path="url(#pde0eca7b64)" d="M 43.155072 15641.746534 
L 43.155072 136.22104 
L 44.551588 136.22104 
L 44.551588 131.970177 
L 45.948104 131.970177 
L 45.948104 127.017282 
L 47.344621 127.017282 
L 47.344621 122.918136 
L 48.741137 122.918136 
L 48.741137 119.440198 
L 50.137654 119.440198 
L 50.137654 116.607243 
L 51.53417 116.607243 
L 51.53417 114.190911 
L 52.930686 114.190911 
L 52.930686 112.666671 
L 54.327203 112.666671 
L 54.327203 111.562216 
L 55.723719 111.562216 
L 55.723719 111.082475 
L 57.120235 111.082475 
L 57.120235 110.98089 
L 58.516752 110.98089 
L 58.516752 111.306018 
L 59.913268 111.306018 
L 59.913268 111.818431 
L 61.309784 111.818431 
L 61.309784 112.679603 
L 62.706301 112.679603 
L 62.706301 113.582036 
L 64.102817 113.582036 
L 64.102817 114.550983 
L 65.499333 114.550983 
L 65.499333 115.414886 
L 66.89585 115.414886 
L 66.89585 116.296169 
L 68.292366 116.296169 
L 68.292366 117.235894 
L 69.688883 117.235894 
L 69.688883 118.224616 
L 71.085399 118.224616 
L 71.085399 119.263177 
L 72.481915 119.263177 
L 72.481915 120.214524 
L 73.878432 120.214524 
L 73.878432 121.325487 
L 75.274948 121.325487 
L 75.274948 122.515049 
L 76.671464 122.515049 
L 76.671464 123.646815 
L 78.067981 123.646815 
L 78.067981 124.838442 
L 79.464497 124.838442 
L 79.464497 126.01297 
L 80.861013 126.01297 
L 80.861013 126.978034 
L 82.25753 126.978034 
L 82.25753 128.32228 
L 83.654046 128.32228 
L 83.654046 129.434223 
L 85.050562 129.434223 
L 85.050562 130.699144 
L 86.447079 130.699144 
L 86.447079 131.902522 
L 87.843595 131.902522 
L 87.843595 132.984275 
L 89.240112 132.984275 
L 89.240112 134.164375 
L 90.636628 134.164375 
L 90.636628 134.925444 
L 92.033144 134.925444 
L 92.033144 135.995678 
L 93.429661 135.995678 
L 93.429661 136.812578 
L 94.826177 136.812578 
L 94.826177 137.870872 
L 96.222693 137.870872 
L 96.222693 138.541002 
L 97.61921 138.541002 
L 97.61921 139.568013 
L 99.015726 139.568013 
L 99.015726 140.597409 
L 100.412242 140.597409 
L 100.412242 141.363973 
L 101.808759 141.363973 
L 101.808759 141.690817 
L 103.205275 141.690817 
L 103.205275 142.797184 
L 104.601791 142.797184 
L 104.601791 143.47669 
L 105.998308 143.47669 
L 105.998308 144.188479 
L 107.394824 144.188479 
L 107.394824 145.135657 
L 108.791341 145.135657 
L 108.791341 145.059794 
L 110.187857 145.059794 
L 110.187857 146.932826 
L 111.584373 146.932826 
L 111.584373 147.486858 
L 112.98089 147.486858 
L 112.98089 148.130365 
L 114.377406 148.130365 
L 114.377406 148.667759 
L 115.773922 148.667759 
L 115.773922 149.15869 
L 117.170439 149.15869 
L 117.170439 148.975989 
L 118.566955 148.975989 
L 118.566955 149.738662 
L 119.963471 149.738662 
L 119.963471 150.155157 
L 121.359988 150.155157 
L 121.359988 150.485412 
L 122.756504 150.485412 
L 122.756504 152.140533 
L 124.15302 152.140533 
L 124.15302 151.997681 
L 125.549537 151.997681 
L 125.549537 153.151455 
L 126.946053 153.151455 
L 126.946053 153.495829 
L 128.34257 153.495829 
L 128.34257 154.862759 
L 129.739086 154.862759 
L 129.739086 154.443008 
L 131.135602 154.443008 
L 131.135602 154.755335 
L 132.532119 154.755335 
L 132.532119 155.082905 
L 133.928635 155.082905 
L 133.928635 157.477561 
L 135.325151 157.477561 
L 135.325151 156.442619 
L 136.721668 156.442619 
L 136.721668 156.722402 
L 138.118184 156.722402 
L 138.118184 157.80513 
L 139.5147 157.80513 
L 139.5147 160.199787 
L 140.911217 160.199787 
L 140.911217 158.896255 
L 142.307733 158.896255 
L 142.307733 160.443953 
L 143.704249 160.443953 
L 143.704249 160.443953 
L 145.100766 160.443953 
L 145.100766 162.80318 
L 146.497282 162.80318 
L 146.497282 161.520467 
L 147.893799 161.520467 
L 147.893799 160.960657 
L 149.290315 160.960657 
L 149.290315 160.960657 
L 150.686831 160.960657 
L 150.686831 164.853462 
L 152.083348 164.853462 
L 152.083348 165.888404 
L 153.479864 165.888404 
L 153.479864 165.888404 
L 154.87638 165.888404 
L 154.87638 164.390255 
L 156.272897 164.390255 
L 156.272897 167.112481 
L 157.669413 167.112481 
L 157.669413 164.853462 
L 159.065929 164.853462 
L 159.065929 168.61063 
L 160.462446 168.61063 
L 160.462446 165.351011 
L 161.858962 165.351011 
L 161.858962 165.351011 
L 163.255478 165.351011 
L 163.255478 168.61063 
L 164.651995 168.61063 
L 164.651995 167.112481 
L 166.048511 167.112481 
L 166.048511 167.819854 
L 167.445028 167.819854 
L 167.445028 170.542079 
L 168.841544 170.542079 
L 168.841544 167.112481 
L 170.23806 167.112481 
L 170.23806 170.542079 
L 171.634577 170.542079 
L 171.634577 173.264305 
L 173.031093 173.264305 
L 173.031093 173.264305 
L 174.427609 173.264305 
L 174.427609 171.766156 
L 175.824126 171.766156 
L 175.824126 182.571656 
L 177.220642 182.571656 
L 177.220642 170.542079 
L 178.617158 170.542079 
L 178.617158 177.91798 
L 180.013675 177.91798 
L 180.013675 15641.746534 
L 181.410191 15641.746534 
L 181.410191 175.195755 
L 182.806708 175.195755 
L 182.806708 177.91798 
L 184.203224 177.91798 
L 184.203224 175.195755 
L 185.59974 175.195755 
L 185.59974 175.195755 
L 186.996257 175.195755 
L 186.996257 177.91798 
L 188.392773 177.91798 
L 188.392773 15641.746534 
L 189.789289 15641.746534 
L 189.789289 177.91798 
L 191.185806 177.91798 
L 191.185806 177.91798 
L 192.582322 177.91798 
L 192.582322 15641.746534 
L 193.978838 15641.746534 
L 193.978838 182.571656 
L 195.375355 182.571656 
L 195.375355 15641.746534 
L 193.978838 15641.746534 
L 193.978838 15641.746534 
L 192.582322 15641.746534 
L 192.582322 15641.746534 
L 191.185806 15641.746534 
L 191.185806 15641.746534 
L 189.789289 15641.746534 
L 189.789289 15641.746534 
L 188.392773 15641.746534 
L 188.392773 15641.746534 
L 186.996257 15641.746534 
L 186.996257 15641.746534 
L 185.59974 15641.746534 
L 185.59974 15641.746534 
L 184.203224 15641.746534 
L 184.203224 15641.746534 
L 182.806708 15641.746534 
L 182.806708 15641.746534 
L 181.410191 15641.746534 
L 181.410191 15641.746534 
L 180.013675 15641.746534 
L 180.013675 15641.746534 
L 178.617158 15641.746534 
L 178.617158 15641.746534 
L 177.220642 15641.746534 
L 177.220642 15641.746534 
L 175.824126 15641.746534 
L 175.824126 15641.746534 
L 174.427609 15641.746534 
L 174.427609 15641.746534 
L 173.031093 15641.746534 
L 173.031093 15641.746534 
L 171.634577 15641.746534 
L 171.634577 15641.746534 
L 170.23806 15641.746534 
L 170.23806 15641.746534 
L 168.841544 15641.746534 
L 168.841544 15641.746534 
L 167.445028 15641.746534 
L 167.445028 15641.746534 
L 166.048511 15641.746534 
L 166.048511 15641.746534 
L 164.651995 15641.746534 
L 164.651995 15641.746534 
L 163.255478 15641.746534 
L 163.255478 15641.746534 
L 161.858962 15641.746534 
L 161.858962 15641.746534 
L 160.462446 15641.746534 
L 160.462446 15641.746534 
L 159.065929 15641.746534 
L 159.065929 15641.746534 
L 157.669413 15641.746534 
L 157.669413 15641.746534 
L 156.272897 15641.746534 
L 156.272897 15641.746534 
L 154.87638 15641.746534 
L 154.87638 15641.746534 
L 153.479864 15641.746534 
L 153.479864 15641.746534 
L 152.083348 15641.746534 
L 152.083348 15641.746534 
L 150.686831 15641.746534 
L 150.686831 15641.746534 
L 149.290315 15641.746534 
L 149.290315 15641.746534 
L 147.893799 15641.746534 
L 147.893799 15641.746534 
L 146.497282 15641.746534 
L 146.497282 15641.746534 
L 145.100766 15641.746534 
L 145.100766 15641.746534 
L 143.704249 15641.746534 
L 143.704249 15641.746534 
L 142.307733 15641.746534 
L 142.307733 15641.746534 
L 140.911217 15641.746534 
L 140.911217 15641.746534 
L 139.5147 15641.746534 
L 139.5147 15641.746534 
L 138.118184 15641.746534 
L 138.118184 15641.746534 
L 136.721668 15641.746534 
L 136.721668 15641.746534 
L 135.325151 15641.746534 
L 135.325151 15641.746534 
L 133.928635 15641.746534 
L 133.928635 15641.746534 
L 132.532119 15641.746534 
L 132.532119 15641.746534 
L 131.135602 15641.746534 
L 131.135602 15641.746534 
L 129.739086 15641.746534 
L 129.739086 15641.746534 
L 128.34257 15641.746534 
L 128.34257 15641.746534 
L 126.946053 15641.746534 
L 126.946053 15641.746534 
L 125.549537 15641.746534 
L 125.549537 15641.746534 
L 124.15302 15641.746534 
L 124.15302 15641.746534 
L 122.756504 15641.746534 
L 122.756504 15641.746534 
L 121.359988 15641.746534 
L 121.359988 15641.746534 
L 119.963471 15641.746534 
L 119.963471 15641.746534 
L 118.566955 15641.746534 
L 118.566955 15641.746534 
L 117.170439 15641.746534 
L 117.170439 15641.746534 
L 115.773922 15641.746534 
L 115.773922 15641.746534 
L 114.377406 15641.746534 
L 114.377406 15641.746534 
L 112.98089 15641.746534 
L 112.98089 15641.746534 
L 111.584373 15641.746534 
L 111.584373 15641.746534 
L 110.187857 15641.746534 
L 110.187857 15641.746534 
L 108.791341 15641.746534 
L 108.791341 15641.746534 
L 107.394824 15641.746534 
L 107.394824 15641.746534 
L 105.998308 15641.746534 
L 105.998308 15641.746534 
L 104.601791 15641.746534 
L 104.601791 15641.746534 
L 103.205275 15641.746534 
L 103.205275 15641.746534 
L 101.808759 15641.746534 
L 101.808759 15641.746534 
L 100.412242 15641.746534 
L 100.412242 15641.746534 
L 99.015726 15641.746534 
L 99.015726 15641.746534 
L 97.61921 15641.746534 
L 97.61921 15641.746534 
L 96.222693 15641.746534 
L 96.222693 15641.746534 
L 94.826177 15641.746534 
L 94.826177 15641.746534 
L 93.429661 15641.746534 
L 93.429661 15641.746534 
L 92.033144 15641.746534 
L 92.033144 15641.746534 
L 90.636628 15641.746534 
L 90.636628 15641.746534 
L 89.240112 15641.746534 
L 89.240112 15641.746534 
L 87.843595 15641.746534 
L 87.843595 15641.746534 
L 86.447079 15641.746534 
L 86.447079 15641.746534 
L 85.050562 15641.746534 
L 85.050562 15641.746534 
L 83.654046 15641.746534 
L 83.654046 15641.746534 
L 82.25753 15641.746534 
L 82.25753 15641.746534 
L 80.861013 15641.746534 
L 80.861013 15641.746534 
L 79.464497 15641.746534 
L 79.464497 15641.746534 
L 78.067981 15641.746534 
L 78.067981 15641.746534 
L 76.671464 15641.746534 
L 76.671464 15641.746534 
L 75.274948 15641.746534 
L 75.274948 15641.746534 
L 73.878432 15641.746534 
L 73.878432 15641.746534 
L 72.481915 15641.746534 
L 72.481915 15641.746534 
L 71.085399 15641.746534 
L 71.085399 15641.746534 
L 69.688883 15641.746534 
L 69.688883 15641.746534 
L 68.292366 15641.746534 
L 68.292366 15641.746534 
L 66.89585 15641.746534 
L 66.89585 15641.746534 
L 65.499333 15641.746534 
L 65.499333 15641.746534 
L 64.102817 15641.746534 
L 64.102817 15641.746534 
L 62.706301 15641.746534 
L 62.706301 15641.746534 
L 61.309784 15641.746534 
L 61.309784 15641.746534 
L 59.913268 15641.746534 
L 59.913268 15641.746534 
L 58.516752 15641.746534 
L 58.516752 15641.746534 
L 57.120235 15641.746534 
L 57.120235 15641.746534 
L 55.723719 15641.746534 
L 55.723719 15641.746534 
L 54.327203 15641.746534 
L 54.327203 15641.746534 
L 52.930686 15641.746534 
L 52.930686 15641.746534 
L 51.53417 15641.746534 
L 51.53417 15641.746534 
L 50.137654 15641.746534 
L 50.137654 15641.746534 
L 48.741137 15641.746534 
L 48.741137 15641.746534 
L 47.344621 15641.746534 
L 47.344621 15641.746534 
L 45.948104 15641.746534 
L 45.948104 15641.746534 
L 44.551588 15641.746534 
L 44.551588 15641.746534 
z
" style="fill:#fa8174;opacity:0.8;"/>
   </g>
   <g id="matplotlib.axis_5">
    <g id="xtick_5">
     <g id="line2d_13">
      <g>
       <use style="fill:#ffffff;stroke:#ffffff;stroke-width:0.8;" x="99.015726" xlink:href="#mfc1b4fc21b" y="186.332368"/>
      </g>
     </g>
     <g id="text_7">
      <!-- 200 -->
      <g style="fill:#ffffff;" transform="translate(90.592289 200.832368)scale(0.1 -0.1)">
       <use xlink:href="#Roboto-Regular-32"/>
       <use x="56.152344" xlink:href="#Roboto-Regular-30"/>
       <use x="112.304688" xlink:href="#Roboto-Regular-30"/>
      </g>
     </g>
    </g>
    <g id="xtick_6">
     <g id="line2d_14">
      <g>
       <use style="fill:#ffffff;stroke:#ffffff;stroke-width:0.8;" x="154.87638" xlink:href="#mfc1b4fc21b" y="186.332368"/>
      </g>
     </g>
     <g id="text_8">
      <!-- 400 -->
      <g style="fill:#ffffff;" transform="translate(146.452943 200.832368)scale(0.1 -0.1)">
       <use xlink:href="#Roboto-Regular-34"/>
       <use x="56.152344" xlink:href="#Roboto-Regular-30"/>
       <use x="112.304688" xlink:href="#Roboto-Regular-30"/>
      </g>
     </g>
    </g>
    <g id="text_9">
     <!-- S/N (per pixel) -->
     <g style="fill:#ffffff;" transform="translate(81.099448 214.885493)scale(0.1 -0.1)">
      <defs>
       <path d="M 416 1847 
Q 416 2553 605 3203 
Q 794 3853 1169 4384 
Q 1544 4916 1947 5134 
L 2066 4753 
Q 1609 4403 1317 3684 
Q 1025 2966 997 2075 
L 994 1809 
Q 994 603 1434 -284 
Q 1700 -816 2066 -1116 
L 1947 -1469 
Q 1531 -1238 1153 -694 
Q 416 369 416 1847 
z
" id="Roboto-Regular-28" transform="scale(0.015625)"/>
       <path d="M 1066 0 
L 488 0 
L 488 3381 
L 1066 3381 
L 1066 0 
z
M 441 4278 
Q 441 4419 527 4516 
Q 613 4613 781 4613 
Q 950 4613 1037 4516 
Q 1125 4419 1125 4278 
Q 1125 4138 1037 4044 
Q 950 3950 781 3950 
Q 613 3950 527 4044 
Q 441 4138 441 4278 
z
" id="Roboto-Regular-69" transform="scale(0.015625)"/>
       <path d="M 1572 2147 
L 2322 3381 
L 2997 3381 
L 1891 1709 
L 3031 0 
L 2363 0 
L 1581 1266 
L 800 0 
L 128 0 
L 1269 1709 
L 163 3381 
L 831 3381 
L 1572 2147 
z
" id="Roboto-Regular-78" transform="scale(0.015625)"/>
       <path d="M 1066 0 
L 488 0 
L 488 4800 
L 1066 4800 
L 1066 0 
z
" id="Roboto-Regular-6c" transform="scale(0.015625)"/>
       <path d="M 1772 1816 
Q 1772 1119 1589 480 
Q 1406 -159 1029 -700 
Q 653 -1241 241 -1469 
L 119 -1116 
Q 600 -747 892 29 
Q 1184 806 1191 1753 
L 1191 1853 
Q 1191 2509 1053 3073 
Q 916 3638 670 4084 
Q 425 4531 119 4781 
L 241 5134 
Q 653 4906 1026 4372 
Q 1400 3838 1586 3194 
Q 1772 2550 1772 1816 
z
" id="Roboto-Regular-29" transform="scale(0.015625)"/>
      </defs>
      <use xlink:href="#Roboto-Regular-53"/>
      <use x="59.326172" xlink:href="#Roboto-Regular-2f"/>
      <use x="100.537109" xlink:href="#Roboto-Regular-4e"/>
      <use x="171.826172" xlink:href="#Roboto-Regular-20"/>
      <use x="196.582031" xlink:href="#Roboto-Regular-28"/>
      <use x="230.761719" xlink:href="#Roboto-Regular-70"/>
      <use x="286.865234" xlink:href="#Roboto-Regular-65"/>
      <use x="339.84375" xlink:href="#Roboto-Regular-72"/>
      <use x="373.681641" xlink:href="#Roboto-Regular-20"/>
      <use x="398.4375" xlink:href="#Roboto-Regular-70"/>
      <use x="454.541016" xlink:href="#Roboto-Regular-69"/>
      <use x="478.808594" xlink:href="#Roboto-Regular-78"/>
      <use x="528.369141" xlink:href="#Roboto-Regular-65"/>
      <use x="581.347656" xlink:href="#Roboto-Regular-6c"/>
      <use x="605.615234" xlink:href="#Roboto-Regular-29"/>
     </g>
    </g>
   </g>
   <g id="matplotlib.axis_6">
    <g id="ytick_7">
     <g id="line2d_15">
      <g>
       <use style="fill:#ffffff;stroke:#ffffff;stroke-width:0.8;" x="43.434375" xlink:href="#m2a0992cb4e" y="167.112481"/>
      </g>
     </g>
     <g id="text_10">
      <!-- $\mathdefault{10^{1}}$ -->
      <g style="fill:#ffffff;" transform="translate(20.834375 170.862481)scale(0.1 -0.1)">
       <use transform="translate(0 0.014063)" xlink:href="#Roboto-Regular-31"/>
       <use transform="translate(56.152344 0.014063)" xlink:href="#Roboto-Regular-30"/>
       <use transform="translate(113.22918 36.99375)scale(0.7)" xlink:href="#Roboto-Regular-31"/>
      </g>
     </g>
    </g>
    <g id="ytick_8">
     <g id="line2d_16">
      <g>
       <use style="fill:#ffffff;stroke:#ffffff;stroke-width:0.8;" x="43.434375" xlink:href="#m2a0992cb4e" y="136.194131"/>
      </g>
     </g>
     <g id="text_11">
      <!-- $\mathdefault{10^{3}}$ -->
      <g style="fill:#ffffff;" transform="translate(20.834375 139.944131)scale(0.1 -0.1)">
       <use transform="translate(0 0.565625)" xlink:href="#Roboto-Regular-31"/>
       <use transform="translate(56.152344 0.565625)" xlink:href="#Roboto-Regular-30"/>
       <use transform="translate(113.22918 37.545313)scale(0.7)" xlink:href="#Roboto-Regular-33"/>
      </g>
     </g>
    </g>
    <g id="ytick_9">
     <g id="line2d_17">
      <g>
       <use style="fill:#ffffff;stroke:#ffffff;stroke-width:0.8;" x="43.434375" xlink:href="#m2a0992cb4e" y="105.275781"/>
      </g>
     </g>
     <g id="text_12">
      <!-- $\mathdefault{10^{5}}$ -->
      <g style="fill:#ffffff;" transform="translate(20.834375 109.025781)scale(0.1 -0.1)">
       <use transform="translate(0 0.254688)" xlink:href="#Roboto-Regular-31"/>
       <use transform="translate(56.152344 0.254688)" xlink:href="#Roboto-Regular-30"/>
       <use transform="translate(113.22918 37.234375)scale(0.7)" xlink:href="#Roboto-Regular-35"/>
      </g>
     </g>
    </g>
    <g id="text_13">
     <!-- Number of spectra -->
     <g style="fill:#ffffff;" transform="translate(14.803125 186.572344)rotate(-90)scale(0.1 -0.1)">
      <use xlink:href="#Roboto-Regular-4e"/>
      <use x="71.289062" xlink:href="#Roboto-Regular-75"/>
      <use x="126.416016" xlink:href="#Roboto-Regular-6d"/>
      <use x="214.0625" xlink:href="#Roboto-Regular-62"/>
      <use x="270.166016" xlink:href="#Roboto-Regular-65"/>
      <use x="323.144531" xlink:href="#Roboto-Regular-72"/>
      <use x="356.982422" xlink:href="#Roboto-Regular-20"/>
      <use x="381.738281" xlink:href="#Roboto-Regular-6f"/>
      <use x="438.769531" xlink:href="#Roboto-Regular-66"/>
      <use x="473.486328" xlink:href="#Roboto-Regular-20"/>
      <use x="498.242188" xlink:href="#Roboto-Regular-73"/>
      <use x="549.804688" xlink:href="#Roboto-Regular-70"/>
      <use x="605.908203" xlink:href="#Roboto-Regular-65"/>
      <use x="658.886719" xlink:href="#Roboto-Regular-63"/>
      <use x="711.230469" xlink:href="#Roboto-Regular-74"/>
      <use x="743.896484" xlink:href="#Roboto-Regular-72"/>
      <use x="777.734375" xlink:href="#Roboto-Regular-61"/>
     </g>
    </g>
   </g>
   <g id="patch_22">
    <path clip-path="url(#pde0eca7b64)" d="M 43.155072 225.380806 
L 43.155072 133.440647 
L 44.551588 133.440647 
L 44.551588 136.538506 
L 45.948104 136.538506 
L 45.948104 138.70488 
L 47.344621 138.70488 
L 47.344621 137.751284 
L 48.741137 137.751284 
L 48.741137 135.93081 
L 50.137654 135.93081 
L 50.137654 134.733685 
L 51.53417 134.733685 
L 51.53417 133.854078 
L 52.930686 133.854078 
L 52.930686 132.840152 
L 54.327203 132.840152 
L 54.327203 132.521901 
L 57.120235 132.627633 
L 57.120235 132.76319 
L 58.516752 132.76319 
L 58.516752 133.685638 
L 59.913268 133.685638 
L 59.913268 134.674532 
L 61.309784 134.674532 
L 61.309784 135.815603 
L 62.706301 135.815603 
L 62.706301 136.468203 
L 64.102817 136.468203 
L 64.102817 137.650449 
L 65.499333 137.650449 
L 65.499333 138.793286 
L 66.89585 138.793286 
L 66.89585 139.956336 
L 68.292366 139.956336 
L 68.292366 140.92886 
L 69.688883 140.92886 
L 69.688883 141.660438 
L 71.085399 141.660438 
L 71.085399 142.761376 
L 72.481915 142.761376 
L 72.481915 144.458871 
L 73.878432 144.458871 
L 73.878432 145.582535 
L 75.274948 145.582535 
L 75.274948 145.888394 
L 76.671464 145.888394 
L 76.671464 148.130365 
L 78.067981 148.130365 
L 78.067981 148.93108 
L 79.464497 148.93108 
L 79.464497 150.429229 
L 80.861013 150.429229 
L 80.861013 151.454853 
L 82.25753 151.454853 
L 82.25753 154.24258 
L 83.654046 154.24258 
L 83.654046 152.068727 
L 85.050562 152.068727 
L 85.050562 154.342046 
L 86.447079 154.342046 
L 86.447079 159.303279 
L 87.843595 159.303279 
L 87.843595 160.443953 
L 89.240112 160.443953 
L 89.240112 159.303279 
L 90.636628 159.303279 
L 90.636628 159.516434 
L 92.033144 159.516434 
L 92.033144 162.80318 
L 93.429661 162.80318 
L 93.429661 162.458805 
L 94.826177 162.458805 
L 94.826177 168.61063 
L 96.222693 168.61063 
L 96.222693 166.472584 
L 99.015726 166.472584 
L 99.015726 173.264305 
L 100.412242 173.264305 
L 100.412242 170.542079 
L 101.808759 170.542079 
L 101.808759 173.264305 
L 104.601791 173.264305 
L 104.601791 170.542079 
L 107.394824 170.542079 
L 107.394824 175.195755 
L 108.791341 175.195755 
L 108.791341 171.766156 
L 110.187857 171.766156 
L 110.187857 175.195755 
L 111.584373 175.195755 
L 111.584373 171.766156 
L 112.98089 171.766156 
L 112.98089 177.91798 
L 114.377406 177.91798 
L 114.377406 171.766156 
L 115.773922 171.766156 
L 115.773922 177.91798 
L 117.170439 177.91798 
L 117.170439 173.264305 
L 119.963471 173.264305 
L 119.963471 177.91798 
L 124.15302 177.91798 
L 124.15302 175.195755 
L 125.549537 175.195755 
L 125.549537 173.264305 
L 126.946053 173.264305 
L 126.946053 177.91798 
L 128.34257 177.91798 
L 128.34257 182.571656 
L 129.739086 182.571656 
L 129.739086 173.264305 
L 131.135602 173.264305 
L 131.135602 225.380806 
M 132.532119 225.380806 
L 132.532119 175.195755 
L 133.928635 175.195755 
L 133.928635 182.571656 
L 136.721668 182.571656 
L 136.721668 225.380806 
M 138.118184 225.380806 
L 138.118184 177.91798 
L 139.5147 177.91798 
L 139.5147 225.380806 
M 145.100766 225.380806 
L 145.100766 177.91798 
L 146.497282 177.91798 
L 146.497282 225.380806 
M 147.893799 225.380806 
L 147.893799 182.571656 
L 149.290315 182.571656 
L 149.290315 225.380806 
M 150.686831 225.380806 
L 150.686831 182.571656 
L 152.083348 182.571656 
L 152.083348 225.380806 
M 153.479864 225.380806 
L 153.479864 182.571656 
L 154.87638 182.571656 
L 154.87638 225.380806 
M 159.065929 225.380806 
L 159.065929 182.571656 
L 160.462446 182.571656 
L 160.462446 225.380806 
M 161.858962 225.380806 
L 161.858962 182.571656 
L 163.255478 182.571656 
L 163.255478 225.380806 
M 174.427609 225.380806 
L 174.427609 182.571656 
L 175.824126 182.571656 
L 175.824126 225.380806 
L 175.824126 225.380806 
" style="fill:none;stroke:#ffffff;stroke-linejoin:miter;"/>
   </g>
   <g id="line2d_18">
    <path clip-path="url(#pde0eca7b64)" d="M 61.784928 186.332368 
L 61.784928 103.596696 
" style="fill:none;stroke:#ffffff;stroke-dasharray:5.55,2.4;stroke-dashoffset:0;stroke-width:1.5;"/>
   </g>
   <g id="patch_23">
    <path d="M 43.434375 186.332368 
L 43.434375 103.596696 
" style="fill:none;stroke:#ffffff;stroke-linecap:square;stroke-linejoin:miter;stroke-width:0.8;"/>
   </g>
   <g id="patch_24">
    <path d="M 182.806708 186.332368 
L 182.806708 103.596696 
" style="fill:none;stroke:#ffffff;stroke-linecap:square;stroke-linejoin:miter;stroke-width:0.8;"/>
   </g>
   <g id="patch_25">
    <path d="M 43.434375 186.332368 
L 182.806708 186.332368 
" style="fill:none;stroke:#ffffff;stroke-linecap:square;stroke-linejoin:miter;stroke-width:0.8;"/>
   </g>
   <g id="patch_26">
    <path d="M 43.434375 103.596696 
L 182.806708 103.596696 
" style="fill:none;stroke:#ffffff;stroke-linecap:square;stroke-linejoin:miter;stroke-width:0.8;"/>
   </g>
   <g id="patch_27">
    <path d="M 123.287958 130.446696 
L 178.806708 130.446696 
L 178.806708 107.596696 
L 123.287958 107.596696 
z
" style="fill:#ffffff;stroke:#000000;stroke-linejoin:miter;"/>
   </g>
   <g id="text_14">
    <g id="patch_28">
     <path d="M 122.487958 131.246696 
L 179.606708 131.246696 
L 179.606708 106.796696 
L 122.487958 106.796696 
z
" style="stroke:#000000;stroke-linejoin:miter;"/>
    </g>
    <!-- CCD 3 -->
    <g style="fill:#ffffff;" transform="translate(126.487958 116.796696)scale(0.08 -0.08)">
     <use xlink:href="#Roboto-Regular-43"/>
     <use x="65.087891" xlink:href="#Roboto-Regular-43"/>
     <use x="130.175781" xlink:href="#Roboto-Regular-44"/>
     <use x="195.751953" xlink:href="#Roboto-Regular-20"/>
     <use x="220.507812" xlink:href="#Roboto-Regular-33"/>
    </g>
    <!-- mean S/N=67 -->
    <g style="fill:#ffffff;" transform="translate(126.487958 125.621696)scale(0.08 -0.08)">
     <defs>
      <path d="M 2647 4553 
L 2647 4063 
L 2541 4063 
Q 1866 4050 1466 3662 
Q 1066 3275 1003 2572 
Q 1363 2984 1984 2984 
Q 2578 2984 2933 2565 
Q 3288 2147 3288 1484 
Q 3288 781 2905 359 
Q 2522 -63 1878 -63 
Q 1225 -63 819 439 
Q 413 941 413 1731 
L 413 1953 
Q 413 3209 948 3873 
Q 1484 4538 2544 4553 
L 2647 4553 
z
M 1888 2503 
Q 1591 2503 1341 2325 
Q 1091 2147 994 1878 
L 994 1666 
Q 994 1103 1247 759 
Q 1500 416 1878 416 
Q 2269 416 2492 703 
Q 2716 991 2716 1456 
Q 2716 1925 2489 2214 
Q 2263 2503 1888 2503 
z
" id="Roboto-Regular-36" transform="scale(0.015625)"/>
      <path d="M 3316 4225 
L 1431 0 
L 825 0 
L 2703 4075 
L 241 4075 
L 241 4550 
L 3316 4550 
L 3316 4225 
z
" id="Roboto-Regular-37" transform="scale(0.015625)"/>
     </defs>
     <use xlink:href="#Roboto-Regular-6d"/>
     <use x="87.646484" xlink:href="#Roboto-Regular-65"/>
     <use x="140.625" xlink:href="#Roboto-Regular-61"/>
     <use x="195.019531" xlink:href="#Roboto-Regular-6e"/>
     <use x="250.195312" xlink:href="#Roboto-Regular-20"/>
     <use x="274.951172" xlink:href="#Roboto-Regular-53"/>
     <use x="334.277344" xlink:href="#Roboto-Regular-2f"/>
     <use x="375.488281" xlink:href="#Roboto-Regular-4e"/>
     <use x="446.777344" xlink:href="#Roboto-Regular-3d"/>
     <use x="501.660156" xlink:href="#Roboto-Regular-36"/>
     <use x="557.8125" xlink:href="#Roboto-Regular-37"/>
    </g>
   </g>
  </g>
  <g id="axes_4">
   <g id="patch_29">
    <path d="M 192.307188 186.332368 
L 331.67952 186.332368 
L 331.67952 103.596696 
L 192.307188 103.596696 
z
"/>
   </g>
   <g id="patch_30">
    <path clip-path="url(#p57c6542225)" d="M 192.027884 15641.746534 
L 192.027884 141.970601 
L 193.424401 141.970601 
L 193.424401 135.505583 
L 194.820917 135.505583 
L 194.820917 128.791428 
L 196.217433 128.791428 
L 196.217433 123.103766 
L 197.61395 123.103766 
L 197.61395 118.505736 
L 199.010466 118.505736 
L 199.010466 115.083367 
L 200.406982 115.083367 
L 200.406982 112.80866 
L 201.803499 112.80866 
L 201.803499 111.275593 
L 203.200015 111.275593 
L 203.200015 110.491457 
L 204.596531 110.491457 
L 204.596531 110.339452 
L 205.993048 110.339452 
L 205.993048 110.724984 
L 207.389564 110.724984 
L 207.389564 111.435667 
L 208.786081 111.435667 
L 208.786081 112.333135 
L 210.182597 112.333135 
L 210.182597 113.383044 
L 211.579113 113.383044 
L 211.579113 114.456502 
L 212.97563 114.456502 
L 212.97563 115.420056 
L 214.372146 115.420056 
L 214.372146 116.579707 
L 215.768662 116.579707 
L 215.768662 117.730499 
L 217.165179 117.730499 
L 217.165179 118.834461 
L 218.561695 118.834461 
L 218.561695 120.127486 
L 219.958211 120.127486 
L 219.958211 121.111209 
L 221.354728 121.111209 
L 221.354728 122.524684 
L 222.751244 122.524684 
L 222.751244 123.809335 
L 224.14776 123.809335 
L 224.14776 124.77687 
L 225.544277 124.77687 
L 225.544277 126.122914 
L 226.940793 126.122914 
L 226.940793 127.461202 
L 228.33731 127.461202 
L 228.33731 128.460888 
L 229.733826 128.460888 
L 229.733826 129.558007 
L 231.130342 129.558007 
L 231.130342 130.743715 
L 232.526859 130.743715 
L 232.526859 131.874238 
L 233.923375 131.874238 
L 233.923375 132.66325 
L 235.319891 132.66325 
L 235.319891 133.494322 
L 236.716408 133.494322 
L 236.716408 134.484505 
L 238.112924 134.484505 
L 238.112924 135.505583 
L 239.50944 135.505583 
L 239.50944 136.545577 
L 240.905957 136.545577 
L 240.905957 137.412839 
L 242.302473 137.412839 
L 242.302473 138.116635 
L 243.698989 138.116635 
L 243.698989 138.598386 
L 245.095506 138.598386 
L 245.095506 139.403584 
L 246.492022 139.403584 
L 246.492022 140.331103 
L 247.888539 140.331103 
L 247.888539 141.024675 
L 249.285055 141.024675 
L 249.285055 142.447426 
L 250.681571 142.447426 
L 250.681571 143.397703 
L 252.078088 143.397703 
L 252.078088 143.928556 
L 253.474604 143.928556 
L 253.474604 143.740011 
L 254.87112 143.740011 
L 254.87112 144.367525 
L 256.267637 144.367525 
L 256.267637 145.059794 
L 257.664153 145.059794 
L 257.664153 146.238761 
L 259.060669 146.238761 
L 259.060669 146.2688 
L 260.457186 146.2688 
L 260.457186 147.857883 
L 261.853702 147.857883 
L 261.853702 148.331997 
L 263.250218 148.331997 
L 263.250218 148.667759 
L 264.646735 148.667759 
L 264.646735 149.840388 
L 266.043251 149.840388 
L 266.043251 150.542069 
L 267.439768 150.542069 
L 267.439768 151.857804 
L 268.836284 151.857804 
L 268.836284 151.199057 
L 270.2328 151.199057 
L 270.2328 151.788944 
L 271.629317 151.788944 
L 271.629317 152.823886 
L 273.025833 152.823886 
L 273.025833 152.744431 
L 274.422349 152.744431 
L 274.422349 152.904292 
L 275.818866 152.904292 
L 275.818866 154.144566 
L 277.215382 154.144566 
L 277.215382 153.952729 
L 278.611898 153.952729 
L 278.611898 155.546111 
L 280.008415 155.546111 
L 280.008415 156.306981 
L 281.404931 156.306981 
L 281.404931 157.319581 
L 282.801447 157.319581 
L 282.801447 156.442619 
L 284.197964 156.442619 
L 284.197964 157.97511 
L 285.59448 157.97511 
L 285.59448 157.97511 
L 286.990997 157.97511 
L 286.990997 157.80513 
L 288.387513 157.80513 
L 288.387513 162.458805 
L 289.784029 162.458805 
L 289.784029 160.960657 
L 291.180546 160.960657 
L 291.180546 159.303279 
L 292.577062 159.303279 
L 292.577062 162.458805 
L 293.973578 162.458805 
L 293.973578 162.80318 
L 295.370095 162.80318 
L 295.370095 165.888404 
L 296.766611 165.888404 
L 296.766611 161.234729 
L 298.163127 161.234729 
L 298.163127 162.131236 
L 299.559644 162.131236 
L 299.559644 165.888404 
L 300.95616 165.888404 
L 300.95616 163.956954 
L 302.352676 163.956954 
L 302.352676 165.351011 
L 303.749193 165.351011 
L 303.749193 163.166178 
L 305.145709 163.166178 
L 305.145709 167.112481 
L 306.542226 167.112481 
L 306.542226 169.507137 
L 307.938742 169.507137 
L 307.938742 164.853462 
L 309.335258 164.853462 
L 309.335258 167.112481 
L 310.731775 167.112481 
L 310.731775 170.542079 
L 312.128291 170.542079 
L 312.128291 171.766156 
L 313.524807 171.766156 
L 313.524807 167.819854 
L 314.921324 167.819854 
L 314.921324 170.542079 
L 316.31784 170.542079 
L 316.31784 171.766156 
L 317.714356 171.766156 
L 317.714356 169.507137 
L 319.110873 169.507137 
L 319.110873 165.888404 
L 320.507389 165.888404 
L 320.507389 171.766156 
L 321.903905 171.766156 
L 321.903905 182.571656 
L 323.300422 182.571656 
L 323.300422 177.91798 
L 324.696938 177.91798 
L 324.696938 173.264305 
L 326.093455 173.264305 
L 326.093455 173.264305 
L 327.489971 173.264305 
L 327.489971 169.507137 
L 328.886487 169.507137 
L 328.886487 173.264305 
L 330.283004 173.264305 
L 330.283004 177.91798 
L 331.67952 177.91798 
L 331.67952 177.91798 
L 333.076036 177.91798 
L 333.076036 173.264305 
L 334.472553 173.264305 
L 334.472553 177.91798 
L 335.869069 177.91798 
L 335.869069 175.195755 
L 337.265585 175.195755 
L 337.265585 177.91798 
L 338.662102 177.91798 
L 338.662102 177.91798 
L 340.058618 177.91798 
L 340.058618 177.91798 
L 341.455135 177.91798 
L 341.455135 15641.746534 
L 342.851651 15641.746534 
L 342.851651 15641.746534 
L 344.248167 15641.746534 
L 344.248167 15641.746534 
L 342.851651 15641.746534 
L 342.851651 15641.746534 
L 341.455135 15641.746534 
L 341.455135 15641.746534 
L 340.058618 15641.746534 
L 340.058618 15641.746534 
L 338.662102 15641.746534 
L 338.662102 15641.746534 
L 337.265585 15641.746534 
L 337.265585 15641.746534 
L 335.869069 15641.746534 
L 335.869069 15641.746534 
L 334.472553 15641.746534 
L 334.472553 15641.746534 
L 333.076036 15641.746534 
L 333.076036 15641.746534 
L 331.67952 15641.746534 
L 331.67952 15641.746534 
L 330.283004 15641.746534 
L 330.283004 15641.746534 
L 328.886487 15641.746534 
L 328.886487 15641.746534 
L 327.489971 15641.746534 
L 327.489971 15641.746534 
L 326.093455 15641.746534 
L 326.093455 15641.746534 
L 324.696938 15641.746534 
L 324.696938 15641.746534 
L 323.300422 15641.746534 
L 323.300422 15641.746534 
L 321.903905 15641.746534 
L 321.903905 15641.746534 
L 320.507389 15641.746534 
L 320.507389 15641.746534 
L 319.110873 15641.746534 
L 319.110873 15641.746534 
L 317.714356 15641.746534 
L 317.714356 15641.746534 
L 316.31784 15641.746534 
L 316.31784 15641.746534 
L 314.921324 15641.746534 
L 314.921324 15641.746534 
L 313.524807 15641.746534 
L 313.524807 15641.746534 
L 312.128291 15641.746534 
L 312.128291 15641.746534 
L 310.731775 15641.746534 
L 310.731775 15641.746534 
L 309.335258 15641.746534 
L 309.335258 15641.746534 
L 307.938742 15641.746534 
L 307.938742 15641.746534 
L 306.542226 15641.746534 
L 306.542226 15641.746534 
L 305.145709 15641.746534 
L 305.145709 15641.746534 
L 303.749193 15641.746534 
L 303.749193 15641.746534 
L 302.352676 15641.746534 
L 302.352676 15641.746534 
L 300.95616 15641.746534 
L 300.95616 15641.746534 
L 299.559644 15641.746534 
L 299.559644 15641.746534 
L 298.163127 15641.746534 
L 298.163127 15641.746534 
L 296.766611 15641.746534 
L 296.766611 15641.746534 
L 295.370095 15641.746534 
L 295.370095 15641.746534 
L 293.973578 15641.746534 
L 293.973578 15641.746534 
L 292.577062 15641.746534 
L 292.577062 15641.746534 
L 291.180546 15641.746534 
L 291.180546 15641.746534 
L 289.784029 15641.746534 
L 289.784029 15641.746534 
L 288.387513 15641.746534 
L 288.387513 15641.746534 
L 286.990997 15641.746534 
L 286.990997 15641.746534 
L 285.59448 15641.746534 
L 285.59448 15641.746534 
L 284.197964 15641.746534 
L 284.197964 15641.746534 
L 282.801447 15641.746534 
L 282.801447 15641.746534 
L 281.404931 15641.746534 
L 281.404931 15641.746534 
L 280.008415 15641.746534 
L 280.008415 15641.746534 
L 278.611898 15641.746534 
L 278.611898 15641.746534 
L 277.215382 15641.746534 
L 277.215382 15641.746534 
L 275.818866 15641.746534 
L 275.818866 15641.746534 
L 274.422349 15641.746534 
L 274.422349 15641.746534 
L 273.025833 15641.746534 
L 273.025833 15641.746534 
L 271.629317 15641.746534 
L 271.629317 15641.746534 
L 270.2328 15641.746534 
L 270.2328 15641.746534 
L 268.836284 15641.746534 
L 268.836284 15641.746534 
L 267.439768 15641.746534 
L 267.439768 15641.746534 
L 266.043251 15641.746534 
L 266.043251 15641.746534 
L 264.646735 15641.746534 
L 264.646735 15641.746534 
L 263.250218 15641.746534 
L 263.250218 15641.746534 
L 261.853702 15641.746534 
L 261.853702 15641.746534 
L 260.457186 15641.746534 
L 260.457186 15641.746534 
L 259.060669 15641.746534 
L 259.060669 15641.746534 
L 257.664153 15641.746534 
L 257.664153 15641.746534 
L 256.267637 15641.746534 
L 256.267637 15641.746534 
L 254.87112 15641.746534 
L 254.87112 15641.746534 
L 253.474604 15641.746534 
L 253.474604 15641.746534 
L 252.078088 15641.746534 
L 252.078088 15641.746534 
L 250.681571 15641.746534 
L 250.681571 15641.746534 
L 249.285055 15641.746534 
L 249.285055 15641.746534 
L 247.888539 15641.746534 
L 247.888539 15641.746534 
L 246.492022 15641.746534 
L 246.492022 15641.746534 
L 245.095506 15641.746534 
L 245.095506 15641.746534 
L 243.698989 15641.746534 
L 243.698989 15641.746534 
L 242.302473 15641.746534 
L 242.302473 15641.746534 
L 240.905957 15641.746534 
L 240.905957 15641.746534 
L 239.50944 15641.746534 
L 239.50944 15641.746534 
L 238.112924 15641.746534 
L 238.112924 15641.746534 
L 236.716408 15641.746534 
L 236.716408 15641.746534 
L 235.319891 15641.746534 
L 235.319891 15641.746534 
L 233.923375 15641.746534 
L 233.923375 15641.746534 
L 232.526859 15641.746534 
L 232.526859 15641.746534 
L 231.130342 15641.746534 
L 231.130342 15641.746534 
L 229.733826 15641.746534 
L 229.733826 15641.746534 
L 228.33731 15641.746534 
L 228.33731 15641.746534 
L 226.940793 15641.746534 
L 226.940793 15641.746534 
L 225.544277 15641.746534 
L 225.544277 15641.746534 
L 224.14776 15641.746534 
L 224.14776 15641.746534 
L 222.751244 15641.746534 
L 222.751244 15641.746534 
L 221.354728 15641.746534 
L 221.354728 15641.746534 
L 219.958211 15641.746534 
L 219.958211 15641.746534 
L 218.561695 15641.746534 
L 218.561695 15641.746534 
L 217.165179 15641.746534 
L 217.165179 15641.746534 
L 215.768662 15641.746534 
L 215.768662 15641.746534 
L 214.372146 15641.746534 
L 214.372146 15641.746534 
L 212.97563 15641.746534 
L 212.97563 15641.746534 
L 211.579113 15641.746534 
L 211.579113 15641.746534 
L 210.182597 15641.746534 
L 210.182597 15641.746534 
L 208.786081 15641.746534 
L 208.786081 15641.746534 
L 207.389564 15641.746534 
L 207.389564 15641.746534 
L 205.993048 15641.746534 
L 205.993048 15641.746534 
L 204.596531 15641.746534 
L 204.596531 15641.746534 
L 203.200015 15641.746534 
L 203.200015 15641.746534 
L 201.803499 15641.746534 
L 201.803499 15641.746534 
L 200.406982 15641.746534 
L 200.406982 15641.746534 
L 199.010466 15641.746534 
L 199.010466 15641.746534 
L 197.61395 15641.746534 
L 197.61395 15641.746534 
L 196.217433 15641.746534 
L 196.217433 15641.746534 
L 194.820917 15641.746534 
L 194.820917 15641.746534 
L 193.424401 15641.746534 
L 193.424401 15641.746534 
z
" style="fill:#bfbbd9;opacity:0.8;"/>
   </g>
   <g id="matplotlib.axis_7">
    <g id="xtick_7">
     <g id="line2d_19">
      <g>
       <use style="fill:#ffffff;stroke:#ffffff;stroke-width:0.8;" x="247.888539" xlink:href="#mfc1b4fc21b" y="186.332368"/>
      </g>
     </g>
     <g id="text_15">
      <!-- 200 -->
      <g style="fill:#ffffff;" transform="translate(239.465101 200.832368)scale(0.1 -0.1)">
       <use xlink:href="#Roboto-Regular-32"/>
       <use x="56.152344" xlink:href="#Roboto-Regular-30"/>
       <use x="112.304688" xlink:href="#Roboto-Regular-30"/>
      </g>
     </g>
    </g>
    <g id="xtick_8">
     <g id="line2d_20">
      <g>
       <use style="fill:#ffffff;stroke:#ffffff;stroke-width:0.8;" x="303.749193" xlink:href="#mfc1b4fc21b" y="186.332368"/>
      </g>
     </g>
     <g id="text_16">
      <!-- 400 -->
      <g style="fill:#ffffff;" transform="translate(295.325755 200.832368)scale(0.1 -0.1)">
       <use xlink:href="#Roboto-Regular-34"/>
       <use x="56.152344" xlink:href="#Roboto-Regular-30"/>
       <use x="112.304688" xlink:href="#Roboto-Regular-30"/>
      </g>
     </g>
    </g>
    <g id="text_17">
     <!-- S/N (per pixel) -->
     <g style="fill:#ffffff;" transform="translate(229.97226 214.885493)scale(0.1 -0.1)">
      <use xlink:href="#Roboto-Regular-53"/>
      <use x="59.326172" xlink:href="#Roboto-Regular-2f"/>
      <use x="100.537109" xlink:href="#Roboto-Regular-4e"/>
      <use x="171.826172" xlink:href="#Roboto-Regular-20"/>
      <use x="196.582031" xlink:href="#Roboto-Regular-28"/>
      <use x="230.761719" xlink:href="#Roboto-Regular-70"/>
      <use x="286.865234" xlink:href="#Roboto-Regular-65"/>
      <use x="339.84375" xlink:href="#Roboto-Regular-72"/>
      <use x="373.681641" xlink:href="#Roboto-Regular-20"/>
      <use x="398.4375" xlink:href="#Roboto-Regular-70"/>
      <use x="454.541016" xlink:href="#Roboto-Regular-69"/>
      <use x="478.808594" xlink:href="#Roboto-Regular-78"/>
      <use x="528.369141" xlink:href="#Roboto-Regular-65"/>
      <use x="581.347656" xlink:href="#Roboto-Regular-6c"/>
      <use x="605.615234" xlink:href="#Roboto-Regular-29"/>
     </g>
    </g>
   </g>
   <g id="matplotlib.axis_8">
    <g id="ytick_10">
     <g id="line2d_21">
      <g>
       <use style="fill:#ffffff;stroke:#ffffff;stroke-width:0.8;" x="192.307188" xlink:href="#m2a0992cb4e" y="167.112481"/>
      </g>
     </g>
    </g>
    <g id="ytick_11">
     <g id="line2d_22">
      <g>
       <use style="fill:#ffffff;stroke:#ffffff;stroke-width:0.8;" x="192.307188" xlink:href="#m2a0992cb4e" y="136.194131"/>
      </g>
     </g>
    </g>
    <g id="ytick_12">
     <g id="line2d_23">
      <g>
       <use style="fill:#ffffff;stroke:#ffffff;stroke-width:0.8;" x="192.307188" xlink:href="#m2a0992cb4e" y="105.275781"/>
      </g>
     </g>
    </g>
   </g>
   <g id="patch_31">
    <path clip-path="url(#p57c6542225)" d="M 192.027884 225.380806 
L 192.027884 130.925017 
L 193.424401 130.925017 
L 193.424401 130.590451 
L 194.820917 130.590451 
L 194.820917 129.10864 
L 196.217433 129.10864 
L 196.217433 127.991742 
L 197.61395 127.991742 
L 197.61395 127.607221 
L 199.010466 127.607221 
L 199.010466 127.911101 
L 200.406982 127.911101 
L 200.406982 129.059745 
L 201.803499 129.059745 
L 201.803499 130.216419 
L 203.200015 130.216419 
L 203.200015 131.293293 
L 204.596531 131.293293 
L 204.596531 132.779319 
L 205.993048 132.779319 
L 205.993048 133.997746 
L 207.389564 133.997746 
L 207.389564 135.727345 
L 208.786081 135.727345 
L 208.786081 136.827317 
L 210.182597 136.827317 
L 210.182597 139.159031 
L 211.579113 139.159031 
L 211.579113 139.932861 
L 212.97563 139.932861 
L 212.97563 141.149911 
L 214.372146 141.149911 
L 214.372146 142.725759 
L 215.768662 142.725759 
L 215.768662 144.812934 
L 217.165179 144.812934 
L 217.165179 145.916903 
L 218.561695 145.916903 
L 218.561695 147.896138 
L 219.958211 147.896138 
L 219.958211 148.624859 
L 221.354728 148.624859 
L 221.354728 150.832757 
L 222.751244 150.832757 
L 222.751244 153.952729 
L 224.14776 153.952729 
L 224.14776 154.649604 
L 225.544277 154.649604 
L 225.544277 153.584756 
L 226.940793 153.584756 
L 226.940793 154.97193 
L 228.33731 154.97193 
L 228.33731 156.581053 
L 229.733826 156.581053 
L 229.733826 157.97511 
L 231.130342 157.97511 
L 231.130342 161.818909 
L 232.526859 161.818909 
L 232.526859 158.701638 
L 233.923375 158.701638 
L 233.923375 163.166178 
L 235.319891 163.166178 
L 235.319891 162.80318 
L 236.716408 162.80318 
L 236.716408 164.390255 
L 238.112924 164.390255 
L 238.112924 167.112481 
L 239.50944 167.112481 
L 239.50944 168.61063 
L 240.905957 168.61063 
L 240.905957 167.112481 
L 242.302473 167.112481 
L 242.302473 165.888404 
L 243.698989 165.888404 
L 243.698989 169.507137 
L 245.095506 169.507137 
L 245.095506 170.542079 
L 246.492022 170.542079 
L 246.492022 171.766156 
L 247.888539 171.766156 
L 247.888539 175.195755 
L 249.285055 175.195755 
L 249.285055 177.91798 
L 250.681571 177.91798 
L 250.681571 173.264305 
L 252.078088 173.264305 
L 252.078088 182.571656 
L 253.474604 182.571656 
L 253.474604 170.542079 
L 254.87112 170.542079 
L 254.87112 175.195755 
L 256.267637 175.195755 
L 256.267637 182.571656 
L 260.457186 182.571656 
L 260.457186 175.195755 
L 261.853702 175.195755 
L 261.853702 182.571656 
L 264.646735 182.571656 
L 264.646735 225.380806 
M 268.836284 225.380806 
L 268.836284 171.766156 
L 270.2328 171.766156 
L 270.2328 225.380806 
M 271.629317 225.380806 
L 271.629317 177.91798 
L 273.025833 177.91798 
L 273.025833 225.380806 
M 282.801447 225.380806 
L 282.801447 182.571656 
L 285.59448 182.571656 
L 285.59448 225.380806 
M 286.990997 225.380806 
L 286.990997 182.571656 
L 289.784029 182.571656 
L 289.784029 225.380806 
M 295.370095 225.380806 
L 295.370095 182.571656 
L 298.163127 182.571656 
L 298.163127 225.380806 
M 303.749193 225.380806 
L 303.749193 182.571656 
L 305.145709 182.571656 
L 305.145709 225.380806 
L 305.145709 225.380806 
" style="fill:none;stroke:#ffffff;stroke-linejoin:miter;"/>
   </g>
   <g id="line2d_24">
    <path clip-path="url(#p57c6542225)" d="M 209.537302 186.332368 
L 209.537302 103.596696 
" style="fill:none;stroke:#ffffff;stroke-dasharray:5.55,2.4;stroke-dashoffset:0;stroke-width:1.5;"/>
   </g>
   <g id="patch_32">
    <path d="M 192.307188 186.332368 
L 192.307188 103.596696 
" style="fill:none;stroke:#ffffff;stroke-linecap:square;stroke-linejoin:miter;stroke-width:0.8;"/>
   </g>
   <g id="patch_33">
    <path d="M 331.67952 186.332368 
L 331.67952 103.596696 
" style="fill:none;stroke:#ffffff;stroke-linecap:square;stroke-linejoin:miter;stroke-width:0.8;"/>
   </g>
   <g id="patch_34">
    <path d="M 192.307188 186.332368 
L 331.67952 186.332368 
" style="fill:none;stroke:#ffffff;stroke-linecap:square;stroke-linejoin:miter;stroke-width:0.8;"/>
   </g>
   <g id="patch_35">
    <path d="M 192.307188 103.596696 
L 331.67952 103.596696 
" style="fill:none;stroke:#ffffff;stroke-linecap:square;stroke-linejoin:miter;stroke-width:0.8;"/>
   </g>
   <g id="patch_36">
    <path d="M 272.16077 130.446696 
L 327.67952 130.446696 
L 327.67952 107.596696 
L 272.16077 107.596696 
z
" style="fill:#ffffff;stroke:#000000;stroke-linejoin:miter;"/>
   </g>
   <g id="text_18">
    <g id="patch_37">
     <path d="M 271.36077 131.246696 
L 328.47952 131.246696 
L 328.47952 106.796696 
L 271.36077 106.796696 
z
" style="stroke:#000000;stroke-linejoin:miter;"/>
    </g>
    <!-- CCD 4 -->
    <g style="fill:#ffffff;" transform="translate(275.36077 116.796696)scale(0.08 -0.08)">
     <use xlink:href="#Roboto-Regular-43"/>
     <use x="65.087891" xlink:href="#Roboto-Regular-43"/>
     <use x="130.175781" xlink:href="#Roboto-Regular-44"/>
     <use x="195.751953" xlink:href="#Roboto-Regular-20"/>
     <use x="220.507812" xlink:href="#Roboto-Regular-34"/>
    </g>
    <!-- mean S/N=63 -->
    <g style="fill:#ffffff;" transform="translate(275.36077 125.621696)scale(0.08 -0.08)">
     <use xlink:href="#Roboto-Regular-6d"/>
     <use x="87.646484" xlink:href="#Roboto-Regular-65"/>
     <use x="140.625" xlink:href="#Roboto-Regular-61"/>
     <use x="195.019531" xlink:href="#Roboto-Regular-6e"/>
     <use x="250.195312" xlink:href="#Roboto-Regular-20"/>
     <use x="274.951172" xlink:href="#Roboto-Regular-53"/>
     <use x="334.277344" xlink:href="#Roboto-Regular-2f"/>
     <use x="375.488281" xlink:href="#Roboto-Regular-4e"/>
     <use x="446.777344" xlink:href="#Roboto-Regular-3d"/>
     <use x="501.660156" xlink:href="#Roboto-Regular-36"/>
     <use x="557.8125" xlink:href="#Roboto-Regular-33"/>
    </g>
   </g>
  </g>
 </g>
 <defs>
  <clipPath id="p9c15d10d6c">
   <rect height="82.735672" width="139.372333" x="43.434375" y="9.270915"/>
  </clipPath>
  <clipPath id="p35110c6106">
   <rect height="82.735672" width="139.372332" x="192.307188" y="9.270915"/>
  </clipPath>
  <clipPath id="pde0eca7b64">
   <rect height="82.735672" width="139.372333" x="43.434375" y="103.596696"/>
  </clipPath>
  <clipPath id="p57c6542225">
   <rect height="82.735672" width="139.372332" x="192.307188" y="103.596696"/>
  </clipPath>
 </defs>
</svg>
