<?xml version="1.0" encoding="utf-8" standalone="no"?>
<!DOCTYPE svg PUBLIC "-//W3C//DTD SVG 1.1//EN"
  "http://www.w3.org/Graphics/SVG/1.1/DTD/svg11.dtd">
<svg height="224.37738pt" version="1.1" viewBox="0 0 338.87952 224.37738" width="338.87952pt" xmlns="http://www.w3.org/2000/svg" xmlns:xlink="http://www.w3.org/1999/xlink">
 <metadata>
  <rdf:RDF xmlns:cc="http://creativecommons.org/ns#" xmlns:dc="http://purl.org/dc/elements/1.1/" xmlns:rdf="http://www.w3.org/1999/02/22-rdf-syntax-ns#">
   <cc:Work>
    <dc:type rdf:resource="http://purl.org/dc/dcmitype/StillImage"/>
    <dc:date>2021-10-22T16:38:08.312394</dc:date>
    <dc:format>image/svg+xml</dc:format>
    <dc:creator>
     <cc:Agent>
      <dc:title>Matplotlib v3.4.3, https://matplotlib.org/</dc:title>
     </cc:Agent>
    </dc:creator>
   </cc:Work>
  </rdf:RDF>
 </metadata>
 <defs>
  <style type="text/css">*{stroke-linecap:butt;stroke-linejoin:round;}</style>
 </defs>
 <g id="figure_1">
  <g id="patch_1">
   <path d="M 0 224.37738 
L 338.87952 224.37738 
L 338.87952 0 
L 0 0 
z
"/>
  </g>
  <g id="axes_1">
   <g id="patch_2">
    <path d="M 43.434375 92.003162 
L 182.806708 92.003162 
L 182.806708 9.119487 
L 43.434375 9.119487 
z
"/>
   </g>
   <g id="patch_3">
    <path clip-path="url(#p8979e180b4)" d="M 43.155072 15545.380116 
L 43.155072 28.873799 
L 44.551588 28.873799 
L 44.551588 22.029165 
L 45.948104 22.029165 
L 45.948104 17.303757 
L 47.344621 17.303757 
L 47.344621 14.583158 
L 48.741137 14.583158 
L 48.741137 13.239767 
L 50.137654 13.239767 
L 50.137654 12.886927 
L 51.53417 12.886927 
L 51.53417 13.50958 
L 52.930686 13.50958 
L 52.930686 14.637004 
L 54.327203 14.637004 
L 54.327203 16.239709 
L 55.723719 16.239709 
L 55.723719 18.014113 
L 57.120235 18.014113 
L 57.120235 19.871054 
L 58.516752 19.871054 
L 58.516752 21.662075 
L 59.913268 21.662075 
L 59.913268 23.734686 
L 61.309784 23.734686 
L 61.309784 25.58908 
L 62.706301 25.58908 
L 62.706301 27.854937 
L 64.102817 27.854937 
L 64.102817 29.971912 
L 65.499333 29.971912 
L 65.499333 32.469798 
L 66.89585 32.469798 
L 66.89585 34.791422 
L 68.292366 34.791422 
L 68.292366 37.003029 
L 69.688883 37.003029 
L 69.688883 38.926637 
L 71.085399 38.926637 
L 71.085399 40.798865 
L 72.481915 40.798865 
L 72.481915 42.861162 
L 73.878432 42.861162 
L 73.878432 44.492827 
L 75.274948 44.492827 
L 75.274948 45.383545 
L 76.671464 45.383545 
L 76.671464 47.239567 
L 78.067981 47.239567 
L 78.067981 48.099746 
L 79.464497 48.099746 
L 79.464497 48.593308 
L 80.861013 48.593308 
L 80.861013 49.534268 
L 82.25753 49.534268 
L 82.25753 51.278693 
L 83.654046 51.278693 
L 83.654046 52.308952 
L 85.050562 52.308952 
L 85.050562 53.338458 
L 86.447079 53.338458 
L 86.447079 54.208409 
L 87.843595 54.208409 
L 87.843595 54.827145 
L 89.240112 54.827145 
L 89.240112 55.560194 
L 90.636628 55.560194 
L 90.636628 57.123006 
L 92.033144 57.123006 
L 92.033144 58.103719 
L 93.429661 58.103719 
L 93.429661 58.256293 
L 94.826177 58.256293 
L 94.826177 61.583341 
L 96.222693 61.583341 
L 96.222693 60.639621 
L 97.61921 60.639621 
L 97.61921 61.711211 
L 99.015726 61.711211 
L 99.015726 63.306689 
L 100.412242 63.306689 
L 100.412242 64.368839 
L 101.808759 64.368839 
L 101.808759 67.797987 
L 103.205275 67.797987 
L 103.205275 65.183529 
L 104.601791 65.183529 
L 104.601791 70.05671 
L 105.998308 70.05671 
L 105.998308 68.469843 
L 107.394824 68.469843 
L 107.394824 70.05671 
L 108.791341 70.05671 
L 108.791341 68.469843 
L 110.187857 68.469843 
L 110.187857 70.519855 
L 111.584373 70.519855 
L 111.584373 75.17292 
L 112.98089 75.17292 
L 112.98089 76.207726 
L 114.377406 76.207726 
L 114.377406 77.431642 
L 115.773922 77.431642 
L 115.773922 76.207726 
L 117.170439 76.207726 
L 117.170439 71.554662 
L 118.566955 71.554662 
L 118.566955 75.17292 
L 119.963471 75.17292 
L 119.963471 83.582658 
L 121.359988 83.582658 
L 121.359988 76.207726 
L 122.756504 76.207726 
L 122.756504 88.235722 
L 124.15302 88.235722 
L 124.15302 83.582658 
L 125.549537 83.582658 
L 125.549537 83.582658 
L 126.946053 83.582658 
L 126.946053 88.235722 
L 128.34257 88.235722 
L 128.34257 80.86079 
L 129.739086 80.86079 
L 129.739086 88.235722 
L 131.135602 88.235722 
L 131.135602 15545.380116 
L 132.532119 15545.380116 
L 132.532119 88.235722 
L 133.928635 88.235722 
L 133.928635 88.235722 
L 135.325151 88.235722 
L 135.325151 88.235722 
L 136.721668 88.235722 
L 136.721668 80.86079 
L 138.118184 80.86079 
L 138.118184 88.235722 
L 139.5147 88.235722 
L 139.5147 88.235722 
L 140.911217 88.235722 
L 140.911217 88.235722 
L 142.307733 88.235722 
L 142.307733 83.582658 
L 143.704249 83.582658 
L 143.704249 88.235722 
L 145.100766 88.235722 
L 145.100766 15545.380116 
L 146.497282 15545.380116 
L 146.497282 88.235722 
L 147.893799 88.235722 
L 147.893799 15545.380116 
L 149.290315 15545.380116 
L 149.290315 15545.380116 
L 150.686831 15545.380116 
L 150.686831 15545.380116 
L 152.083348 15545.380116 
L 152.083348 15545.380116 
L 153.479864 15545.380116 
L 153.479864 15545.380116 
L 154.87638 15545.380116 
L 154.87638 15545.380116 
L 156.272897 15545.380116 
L 156.272897 15545.380116 
L 157.669413 15545.380116 
L 157.669413 15545.380116 
L 159.065929 15545.380116 
L 159.065929 15545.380116 
L 160.462446 15545.380116 
L 160.462446 83.582658 
L 161.858962 83.582658 
L 161.858962 15545.380116 
L 163.255478 15545.380116 
L 163.255478 15545.380116 
L 164.651995 15545.380116 
L 164.651995 15545.380116 
L 166.048511 15545.380116 
L 166.048511 15545.380116 
L 167.445028 15545.380116 
L 167.445028 15545.380116 
L 168.841544 15545.380116 
L 168.841544 15545.380116 
L 170.23806 15545.380116 
L 170.23806 15545.380116 
L 171.634577 15545.380116 
L 171.634577 83.582658 
L 173.031093 83.582658 
L 173.031093 15545.380116 
L 174.427609 15545.380116 
L 174.427609 15545.380116 
L 175.824126 15545.380116 
L 175.824126 15545.380116 
L 177.220642 15545.380116 
L 177.220642 15545.380116 
L 178.617158 15545.380116 
L 178.617158 88.235722 
L 180.013675 88.235722 
L 180.013675 15545.380116 
L 181.410191 15545.380116 
L 181.410191 88.235722 
L 182.806708 88.235722 
L 182.806708 15545.380116 
L 184.203224 15545.380116 
L 184.203224 15545.380116 
L 185.59974 15545.380116 
L 185.59974 15545.380116 
L 186.996257 15545.380116 
L 186.996257 88.235722 
L 188.392773 88.235722 
L 188.392773 15545.380116 
L 189.789289 15545.380116 
L 189.789289 15545.380116 
L 191.185806 15545.380116 
L 191.185806 15545.380116 
L 192.582322 15545.380116 
L 192.582322 88.235722 
L 193.978838 88.235722 
L 193.978838 88.235722 
L 195.375355 88.235722 
L 195.375355 15545.380116 
L 193.978838 15545.380116 
L 193.978838 15545.380116 
L 192.582322 15545.380116 
L 192.582322 15545.380116 
L 191.185806 15545.380116 
L 191.185806 15545.380116 
L 189.789289 15545.380116 
L 189.789289 15545.380116 
L 188.392773 15545.380116 
L 188.392773 15545.380116 
L 186.996257 15545.380116 
L 186.996257 15545.380116 
L 185.59974 15545.380116 
L 185.59974 15545.380116 
L 184.203224 15545.380116 
L 184.203224 15545.380116 
L 182.806708 15545.380116 
L 182.806708 15545.380116 
L 181.410191 15545.380116 
L 181.410191 15545.380116 
L 180.013675 15545.380116 
L 180.013675 15545.380116 
L 178.617158 15545.380116 
L 178.617158 15545.380116 
L 177.220642 15545.380116 
L 177.220642 15545.380116 
L 175.824126 15545.380116 
L 175.824126 15545.380116 
L 174.427609 15545.380116 
L 174.427609 15545.380116 
L 173.031093 15545.380116 
L 173.031093 15545.380116 
L 171.634577 15545.380116 
L 171.634577 15545.380116 
L 170.23806 15545.380116 
L 170.23806 15545.380116 
L 168.841544 15545.380116 
L 168.841544 15545.380116 
L 167.445028 15545.380116 
L 167.445028 15545.380116 
L 166.048511 15545.380116 
L 166.048511 15545.380116 
L 164.651995 15545.380116 
L 164.651995 15545.380116 
L 163.255478 15545.380116 
L 163.255478 15545.380116 
L 161.858962 15545.380116 
L 161.858962 15545.380116 
L 160.462446 15545.380116 
L 160.462446 15545.380116 
L 159.065929 15545.380116 
L 159.065929 15545.380116 
L 157.669413 15545.380116 
L 157.669413 15545.380116 
L 156.272897 15545.380116 
L 156.272897 15545.380116 
L 154.87638 15545.380116 
L 154.87638 15545.380116 
L 153.479864 15545.380116 
L 153.479864 15545.380116 
L 152.083348 15545.380116 
L 152.083348 15545.380116 
L 150.686831 15545.380116 
L 150.686831 15545.380116 
L 149.290315 15545.380116 
L 149.290315 15545.380116 
L 147.893799 15545.380116 
L 147.893799 15545.380116 
L 146.497282 15545.380116 
L 146.497282 15545.380116 
L 145.100766 15545.380116 
L 145.100766 15545.380116 
L 143.704249 15545.380116 
L 143.704249 15545.380116 
L 142.307733 15545.380116 
L 142.307733 15545.380116 
L 140.911217 15545.380116 
L 140.911217 15545.380116 
L 139.5147 15545.380116 
L 139.5147 15545.380116 
L 138.118184 15545.380116 
L 138.118184 15545.380116 
L 136.721668 15545.380116 
L 136.721668 15545.380116 
L 135.325151 15545.380116 
L 135.325151 15545.380116 
L 133.928635 15545.380116 
L 133.928635 15545.380116 
L 132.532119 15545.380116 
L 132.532119 15545.380116 
L 131.135602 15545.380116 
L 131.135602 15545.380116 
L 129.739086 15545.380116 
L 129.739086 15545.380116 
L 128.34257 15545.380116 
L 128.34257 15545.380116 
L 126.946053 15545.380116 
L 126.946053 15545.380116 
L 125.549537 15545.380116 
L 125.549537 15545.380116 
L 124.15302 15545.380116 
L 124.15302 15545.380116 
L 122.756504 15545.380116 
L 122.756504 15545.380116 
L 121.359988 15545.380116 
L 121.359988 15545.380116 
L 119.963471 15545.380116 
L 119.963471 15545.380116 
L 118.566955 15545.380116 
L 118.566955 15545.380116 
L 117.170439 15545.380116 
L 117.170439 15545.380116 
L 115.773922 15545.380116 
L 115.773922 15545.380116 
L 114.377406 15545.380116 
L 114.377406 15545.380116 
L 112.98089 15545.380116 
L 112.98089 15545.380116 
L 111.584373 15545.380116 
L 111.584373 15545.380116 
L 110.187857 15545.380116 
L 110.187857 15545.380116 
L 108.791341 15545.380116 
L 108.791341 15545.380116 
L 107.394824 15545.380116 
L 107.394824 15545.380116 
L 105.998308 15545.380116 
L 105.998308 15545.380116 
L 104.601791 15545.380116 
L 104.601791 15545.380116 
L 103.205275 15545.380116 
L 103.205275 15545.380116 
L 101.808759 15545.380116 
L 101.808759 15545.380116 
L 100.412242 15545.380116 
L 100.412242 15545.380116 
L 99.015726 15545.380116 
L 99.015726 15545.380116 
L 97.61921 15545.380116 
L 97.61921 15545.380116 
L 96.222693 15545.380116 
L 96.222693 15545.380116 
L 94.826177 15545.380116 
L 94.826177 15545.380116 
L 93.429661 15545.380116 
L 93.429661 15545.380116 
L 92.033144 15545.380116 
L 92.033144 15545.380116 
L 90.636628 15545.380116 
L 90.636628 15545.380116 
L 89.240112 15545.380116 
L 89.240112 15545.380116 
L 87.843595 15545.380116 
L 87.843595 15545.380116 
L 86.447079 15545.380116 
L 86.447079 15545.380116 
L 85.050562 15545.380116 
L 85.050562 15545.380116 
L 83.654046 15545.380116 
L 83.654046 15545.380116 
L 82.25753 15545.380116 
L 82.25753 15545.380116 
L 80.861013 15545.380116 
L 80.861013 15545.380116 
L 79.464497 15545.380116 
L 79.464497 15545.380116 
L 78.067981 15545.380116 
L 78.067981 15545.380116 
L 76.671464 15545.380116 
L 76.671464 15545.380116 
L 75.274948 15545.380116 
L 75.274948 15545.380116 
L 73.878432 15545.380116 
L 73.878432 15545.380116 
L 72.481915 15545.380116 
L 72.481915 15545.380116 
L 71.085399 15545.380116 
L 71.085399 15545.380116 
L 69.688883 15545.380116 
L 69.688883 15545.380116 
L 68.292366 15545.380116 
L 68.292366 15545.380116 
L 66.89585 15545.380116 
L 66.89585 15545.380116 
L 65.499333 15545.380116 
L 65.499333 15545.380116 
L 64.102817 15545.380116 
L 64.102817 15545.380116 
L 62.706301 15545.380116 
L 62.706301 15545.380116 
L 61.309784 15545.380116 
L 61.309784 15545.380116 
L 59.913268 15545.380116 
L 59.913268 15545.380116 
L 58.516752 15545.380116 
L 58.516752 15545.380116 
L 57.120235 15545.380116 
L 57.120235 15545.380116 
L 55.723719 15545.380116 
L 55.723719 15545.380116 
L 54.327203 15545.380116 
L 54.327203 15545.380116 
L 52.930686 15545.380116 
L 52.930686 15545.380116 
L 51.53417 15545.380116 
L 51.53417 15545.380116 
L 50.137654 15545.380116 
L 50.137654 15545.380116 
L 48.741137 15545.380116 
L 48.741137 15545.380116 
L 47.344621 15545.380116 
L 47.344621 15545.380116 
L 45.948104 15545.380116 
L 45.948104 15545.380116 
L 44.551588 15545.380116 
L 44.551588 15545.380116 
z
" style="fill:#81b1d2;opacity:0.8;"/>
   </g>
   <g id="matplotlib.axis_1">
    <g id="xtick_1">
     <g id="line2d_1">
      <defs>
       <path d="M 0 0 
L 0 3.5 
" id="mbe42bd4469" style="stroke:#ffffff;stroke-width:0.8;"/>
      </defs>
      <g>
       <use style="fill:#ffffff;stroke:#ffffff;stroke-width:0.8;" x="99.015726" xlink:href="#mbe42bd4469" y="92.003162"/>
      </g>
     </g>
    </g>
    <g id="xtick_2">
     <g id="line2d_2">
      <g>
       <use style="fill:#ffffff;stroke:#ffffff;stroke-width:0.8;" x="154.87638" xlink:href="#mbe42bd4469" y="92.003162"/>
      </g>
     </g>
    </g>
   </g>
   <g id="matplotlib.axis_2">
    <g id="ytick_1">
     <g id="line2d_3">
      <defs>
       <path d="M 0 0 
L -3.5 0 
" id="mc9d5d6eea7" style="stroke:#ffffff;stroke-width:0.8;"/>
      </defs>
      <g>
       <use style="fill:#ffffff;stroke:#ffffff;stroke-width:0.8;" x="43.434375" xlink:href="#mc9d5d6eea7" y="72.778578"/>
      </g>
     </g>
     <g id="text_1">
      <!-- $\mathdefault{10^{1}}$ -->
      <g style="fill:#ffffff;" transform="translate(20.834375 76.528578)scale(0.1 -0.1)">
       <defs>
        <path d="M 2278 0 
L 1697 0 
L 1697 3853 
L 531 3425 
L 531 3950 
L 2188 4572 
L 2278 4572 
L 2278 0 
z
" id="Roboto-Regular-31" transform="scale(0.015625)"/>
        <path d="M 3231 1941 
Q 3231 925 2884 431 
Q 2538 -63 1800 -63 
Q 1072 -63 722 420 
Q 372 903 359 1863 
L 359 2634 
Q 359 3638 706 4125 
Q 1053 4613 1794 4613 
Q 2528 4613 2875 4142 
Q 3222 3672 3231 2691 
L 3231 1941 
z
M 2653 2731 
Q 2653 3466 2447 3802 
Q 2241 4138 1794 4138 
Q 1350 4138 1147 3803 
Q 944 3469 938 2775 
L 938 1850 
Q 938 1113 1152 761 
Q 1366 409 1800 409 
Q 2228 409 2436 740 
Q 2644 1072 2653 1784 
L 2653 2731 
z
" id="Roboto-Regular-30" transform="scale(0.015625)"/>
       </defs>
       <use transform="translate(0 0.014063)" xlink:href="#Roboto-Regular-31"/>
       <use transform="translate(56.152344 0.014063)" xlink:href="#Roboto-Regular-30"/>
       <use transform="translate(113.22918 36.99375)scale(0.7)" xlink:href="#Roboto-Regular-31"/>
      </g>
     </g>
    </g>
    <g id="ytick_2">
     <g id="line2d_4">
      <g>
       <use style="fill:#ffffff;stroke:#ffffff;stroke-width:0.8;" x="43.434375" xlink:href="#mc9d5d6eea7" y="41.864289"/>
      </g>
     </g>
     <g id="text_2">
      <!-- $\mathdefault{10^{3}}$ -->
      <g style="fill:#ffffff;" transform="translate(20.834375 45.614289)scale(0.1 -0.1)">
       <defs>
        <path d="M 1219 2556 
L 1653 2556 
Q 2063 2563 2297 2772 
Q 2531 2981 2531 3338 
Q 2531 4138 1734 4138 
Q 1359 4138 1136 3923 
Q 913 3709 913 3356 
L 334 3356 
Q 334 3897 729 4255 
Q 1125 4613 1734 4613 
Q 2378 4613 2743 4272 
Q 3109 3931 3109 3325 
Q 3109 3028 2917 2750 
Q 2725 2472 2394 2334 
Q 2769 2216 2973 1941 
Q 3178 1666 3178 1269 
Q 3178 656 2778 296 
Q 2378 -63 1737 -63 
Q 1097 -63 695 284 
Q 294 631 294 1200 
L 875 1200 
Q 875 841 1109 625 
Q 1344 409 1738 409 
Q 2156 409 2378 628 
Q 2600 847 2600 1256 
Q 2600 1653 2356 1865 
Q 2113 2078 1653 2084 
L 1219 2084 
L 1219 2556 
z
" id="Roboto-Regular-33" transform="scale(0.015625)"/>
       </defs>
       <use transform="translate(0 0.565625)" xlink:href="#Roboto-Regular-31"/>
       <use transform="translate(56.152344 0.565625)" xlink:href="#Roboto-Regular-30"/>
       <use transform="translate(113.22918 37.545313)scale(0.7)" xlink:href="#Roboto-Regular-33"/>
      </g>
     </g>
    </g>
    <g id="ytick_3">
     <g id="line2d_5">
      <g>
       <use style="fill:#ffffff;stroke:#ffffff;stroke-width:0.8;" x="43.434375" xlink:href="#mc9d5d6eea7" y="10.95"/>
      </g>
     </g>
     <g id="text_3">
      <!-- $\mathdefault{10^{5}}$ -->
      <g style="fill:#ffffff;" transform="translate(20.834375 14.7)scale(0.1 -0.1)">
       <defs>
        <path d="M 644 2281 
L 875 4550 
L 3206 4550 
L 3206 4016 
L 1366 4016 
L 1228 2775 
Q 1563 2972 1988 2972 
Q 2609 2972 2975 2561 
Q 3341 2150 3341 1450 
Q 3341 747 2961 342 
Q 2581 -63 1900 -63 
Q 1297 -63 915 271 
Q 534 606 481 1197 
L 1028 1197 
Q 1081 806 1306 607 
Q 1531 409 1900 409 
Q 2303 409 2533 684 
Q 2763 959 2763 1444 
Q 2763 1900 2514 2176 
Q 2266 2453 1853 2453 
Q 1475 2453 1259 2288 
L 1106 2163 
L 644 2281 
z
" id="Roboto-Regular-35" transform="scale(0.015625)"/>
       </defs>
       <use transform="translate(0 0.254688)" xlink:href="#Roboto-Regular-31"/>
       <use transform="translate(56.152344 0.254688)" xlink:href="#Roboto-Regular-30"/>
       <use transform="translate(113.22918 37.234375)scale(0.7)" xlink:href="#Roboto-Regular-35"/>
      </g>
     </g>
    </g>
    <g id="text_4">
     <!-- Number of spectra -->
     <g style="fill:#ffffff;" transform="translate(14.803125 92.169137)rotate(-90)scale(0.1 -0.1)">
      <defs>
       <path d="M 4025 0 
L 3422 0 
L 1131 3506 
L 1131 0 
L 528 0 
L 528 4550 
L 1131 4550 
L 3428 1028 
L 3428 4550 
L 4025 4550 
L 4025 0 
z
" id="Roboto-Regular-4e" transform="scale(0.015625)"/>
       <path d="M 2525 334 
Q 2188 -63 1534 -63 
Q 994 -63 711 251 
Q 428 566 425 1181 
L 425 3381 
L 1003 3381 
L 1003 1197 
Q 1003 428 1628 428 
Q 2291 428 2509 922 
L 2509 3381 
L 3088 3381 
L 3088 0 
L 2538 0 
L 2525 334 
z
" id="Roboto-Regular-75" transform="scale(0.015625)"/>
       <path d="M 981 3381 
L 997 3006 
Q 1369 3444 2000 3444 
Q 2709 3444 2966 2900 
Q 3134 3144 3404 3294 
Q 3675 3444 4044 3444 
Q 5156 3444 5175 2266 
L 5175 0 
L 4597 0 
L 4597 2231 
Q 4597 2594 4431 2773 
Q 4266 2953 3875 2953 
Q 3553 2953 3340 2761 
Q 3128 2569 3094 2244 
L 3094 0 
L 2513 0 
L 2513 2216 
Q 2513 2953 1791 2953 
Q 1222 2953 1013 2469 
L 1013 0 
L 434 0 
L 434 3381 
L 981 3381 
z
" id="Roboto-Regular-6d" transform="scale(0.015625)"/>
       <path d="M 3300 1653 
Q 3300 878 2944 407 
Q 2588 -63 1988 -63 
Q 1347 -63 997 391 
L 969 0 
L 438 0 
L 438 4800 
L 1016 4800 
L 1016 3009 
Q 1366 3444 1981 3444 
Q 2597 3444 2948 2978 
Q 3300 2513 3300 1703 
L 3300 1653 
z
M 2722 1719 
Q 2722 2309 2494 2631 
Q 2266 2953 1838 2953 
Q 1266 2953 1016 2422 
L 1016 959 
Q 1281 428 1844 428 
Q 2259 428 2490 750 
Q 2722 1072 2722 1719 
z
" id="Roboto-Regular-62" transform="scale(0.015625)"/>
       <path d="M 1841 -63 
Q 1153 -63 722 389 
Q 291 841 291 1597 
L 291 1703 
Q 291 2206 483 2601 
Q 675 2997 1020 3220 
Q 1366 3444 1769 3444 
Q 2428 3444 2793 3009 
Q 3159 2575 3159 1766 
L 3159 1525 
L 869 1525 
Q 881 1025 1161 717 
Q 1441 409 1872 409 
Q 2178 409 2390 534 
Q 2603 659 2763 866 
L 3116 591 
Q 2691 -63 1841 -63 
z
M 1769 2969 
Q 1419 2969 1181 2714 
Q 944 2459 888 2000 
L 2581 2000 
L 2581 2044 
Q 2556 2484 2343 2726 
Q 2131 2969 1769 2969 
z
" id="Roboto-Regular-65" transform="scale(0.015625)"/>
       <path d="M 2072 2863 
Q 1941 2884 1788 2884 
Q 1219 2884 1016 2400 
L 1016 0 
L 438 0 
L 438 3381 
L 1000 3381 
L 1009 2991 
Q 1294 3444 1816 3444 
Q 1984 3444 2072 3400 
L 2072 2863 
z
" id="Roboto-Regular-72" transform="scale(0.015625)"/>
       <path id="Roboto-Regular-20" transform="scale(0.015625)"/>
       <path d="M 284 1722 
Q 284 2219 479 2616 
Q 675 3013 1023 3228 
Q 1372 3444 1819 3444 
Q 2509 3444 2936 2966 
Q 3363 2488 3363 1694 
L 3363 1653 
Q 3363 1159 3173 767 
Q 2984 375 2632 156 
Q 2281 -63 1825 -63 
Q 1138 -63 711 415 
Q 284 894 284 1681 
L 284 1722 
z
M 866 1653 
Q 866 1091 1127 750 
Q 1388 409 1825 409 
Q 2266 409 2525 754 
Q 2784 1100 2784 1722 
Q 2784 2278 2520 2623 
Q 2256 2969 1819 2969 
Q 1391 2969 1128 2628 
Q 866 2288 866 1653 
z
" id="Roboto-Regular-6f" transform="scale(0.015625)"/>
       <path d="M 722 0 
L 722 2934 
L 188 2934 
L 188 3381 
L 722 3381 
L 722 3728 
Q 722 4272 1012 4569 
Q 1303 4866 1834 4866 
Q 2034 4866 2231 4813 
L 2200 4344 
Q 2053 4372 1888 4372 
Q 1606 4372 1453 4208 
Q 1300 4044 1300 3738 
L 1300 3381 
L 2022 3381 
L 2022 2934 
L 1300 2934 
L 1300 0 
L 722 0 
z
" id="Roboto-Regular-66" transform="scale(0.015625)"/>
       <path d="M 2406 897 
Q 2406 1131 2229 1261 
Q 2053 1391 1614 1484 
Q 1175 1578 917 1709 
Q 659 1841 536 2022 
Q 413 2203 413 2453 
Q 413 2869 764 3156 
Q 1116 3444 1663 3444 
Q 2238 3444 2595 3147 
Q 2953 2850 2953 2388 
L 2372 2388 
Q 2372 2625 2170 2797 
Q 1969 2969 1663 2969 
Q 1347 2969 1169 2831 
Q 991 2694 991 2472 
Q 991 2263 1156 2156 
Q 1322 2050 1755 1953 
Q 2188 1856 2456 1722 
Q 2725 1588 2854 1398 
Q 2984 1209 2984 938 
Q 2984 484 2621 210 
Q 2259 -63 1681 -63 
Q 1275 -63 962 81 
Q 650 225 473 483 
Q 297 741 297 1041 
L 875 1041 
Q 891 750 1108 579 
Q 1325 409 1681 409 
Q 2009 409 2207 542 
Q 2406 675 2406 897 
z
" id="Roboto-Regular-73" transform="scale(0.015625)"/>
       <path d="M 3294 1653 
Q 3294 881 2941 409 
Q 2588 -63 1984 -63 
Q 1369 -63 1016 328 
L 1016 -1300 
L 438 -1300 
L 438 3381 
L 966 3381 
L 994 3006 
Q 1347 3444 1975 3444 
Q 2584 3444 2939 2984 
Q 3294 2525 3294 1706 
L 3294 1653 
z
M 2716 1719 
Q 2716 2291 2472 2622 
Q 2228 2953 1803 2953 
Q 1278 2953 1016 2488 
L 1016 872 
Q 1275 409 1809 409 
Q 2225 409 2470 739 
Q 2716 1069 2716 1719 
z
" id="Roboto-Regular-70" transform="scale(0.015625)"/>
       <path d="M 1794 409 
Q 2103 409 2334 596 
Q 2566 784 2591 1066 
L 3138 1066 
Q 3122 775 2937 512 
Q 2753 250 2445 93 
Q 2138 -63 1794 -63 
Q 1103 -63 695 398 
Q 288 859 288 1659 
L 288 1756 
Q 288 2250 469 2634 
Q 650 3019 989 3231 
Q 1328 3444 1791 3444 
Q 2359 3444 2736 3103 
Q 3113 2763 3138 2219 
L 2591 2219 
Q 2566 2547 2342 2758 
Q 2119 2969 1791 2969 
Q 1350 2969 1108 2651 
Q 866 2334 866 1734 
L 866 1625 
Q 866 1041 1106 725 
Q 1347 409 1794 409 
z
" id="Roboto-Regular-63" transform="scale(0.015625)"/>
       <path d="M 1222 4200 
L 1222 3381 
L 1853 3381 
L 1853 2934 
L 1222 2934 
L 1222 838 
Q 1222 634 1306 532 
Q 1391 431 1594 431 
Q 1694 431 1869 469 
L 1869 0 
Q 1641 -63 1425 -63 
Q 1038 -63 841 171 
Q 644 406 644 838 
L 644 2934 
L 28 2934 
L 28 3381 
L 644 3381 
L 644 4200 
L 1222 4200 
z
" id="Roboto-Regular-74" transform="scale(0.015625)"/>
       <path d="M 2525 0 
Q 2475 100 2444 356 
Q 2041 -63 1481 -63 
Q 981 -63 661 220 
Q 341 503 341 938 
Q 341 1466 742 1758 
Q 1144 2050 1872 2050 
L 2434 2050 
L 2434 2316 
Q 2434 2619 2253 2798 
Q 2072 2978 1719 2978 
Q 1409 2978 1200 2822 
Q 991 2666 991 2444 
L 409 2444 
Q 409 2697 589 2933 
Q 769 3169 1076 3306 
Q 1384 3444 1753 3444 
Q 2338 3444 2669 3151 
Q 3000 2859 3013 2347 
L 3013 791 
Q 3013 325 3131 50 
L 3131 0 
L 2525 0 
z
M 1566 441 
Q 1838 441 2081 581 
Q 2325 722 2434 947 
L 2434 1641 
L 1981 1641 
Q 919 1641 919 1019 
Q 919 747 1100 594 
Q 1281 441 1566 441 
z
" id="Roboto-Regular-61" transform="scale(0.015625)"/>
      </defs>
      <use xlink:href="#Roboto-Regular-4e"/>
      <use x="71.289062" xlink:href="#Roboto-Regular-75"/>
      <use x="126.416016" xlink:href="#Roboto-Regular-6d"/>
      <use x="214.0625" xlink:href="#Roboto-Regular-62"/>
      <use x="270.166016" xlink:href="#Roboto-Regular-65"/>
      <use x="323.144531" xlink:href="#Roboto-Regular-72"/>
      <use x="356.982422" xlink:href="#Roboto-Regular-20"/>
      <use x="381.738281" xlink:href="#Roboto-Regular-6f"/>
      <use x="438.769531" xlink:href="#Roboto-Regular-66"/>
      <use x="473.486328" xlink:href="#Roboto-Regular-20"/>
      <use x="498.242188" xlink:href="#Roboto-Regular-73"/>
      <use x="549.804688" xlink:href="#Roboto-Regular-70"/>
      <use x="605.908203" xlink:href="#Roboto-Regular-65"/>
      <use x="658.886719" xlink:href="#Roboto-Regular-63"/>
      <use x="711.230469" xlink:href="#Roboto-Regular-74"/>
      <use x="743.896484" xlink:href="#Roboto-Regular-72"/>
      <use x="777.734375" xlink:href="#Roboto-Regular-61"/>
     </g>
    </g>
   </g>
   <g id="patch_4">
    <path clip-path="url(#p8979e180b4)" d="M 43.155072 225.37738 
L 43.155072 33.710629 
L 44.551588 33.710629 
L 44.551588 38.25891 
L 45.948104 38.25891 
L 45.948104 41.360096 
L 47.344621 41.360096 
L 47.344621 43.14754 
L 48.741137 43.14754 
L 48.741137 44.239478 
L 50.137654 44.239478 
L 50.137654 45.226641 
L 51.53417 45.226641 
L 51.53417 46.450557 
L 52.930686 46.450557 
L 52.930686 48.466474 
L 54.327203 48.466474 
L 54.327203 50.703692 
L 55.723719 50.703692 
L 55.723719 52.120726 
L 57.120235 52.120726 
L 57.120235 54.781007 
L 58.516752 54.781007 
L 58.516752 56.500992 
L 59.913268 56.500992 
L 59.913268 59.163715 
L 61.309784 59.163715 
L 61.309784 61.213727 
L 62.706301 61.213727 
L 62.706301 62.986964 
L 64.102817 62.986964 
L 64.102817 67.187298 
L 65.499333 67.187298 
L 65.499333 67.797987 
L 66.89585 67.797987 
L 66.89585 71.554662 
L 68.292366 71.554662 
L 68.292366 71.017339 
L 69.688883 71.017339 
L 69.688883 77.431642 
L 71.085399 77.431642 
L 71.085399 83.582658 
L 73.878432 83.582658 
L 73.878432 88.235722 
L 75.274948 88.235722 
L 75.274948 225.37738 
M 79.464497 225.37738 
L 79.464497 83.582658 
L 80.861013 83.582658 
L 80.861013 225.37738 
M 82.25753 225.37738 
L 82.25753 88.235722 
L 83.654046 88.235722 
L 83.654046 225.37738 
M 97.61921 225.37738 
L 97.61921 88.235722 
L 99.015726 88.235722 
L 99.015726 225.37738 
L 99.015726 225.37738 
" style="fill:none;stroke:#ffffff;stroke-linejoin:miter;"/>
   </g>
   <g id="line2d_6">
    <path clip-path="url(#p8979e180b4)" d="M 52.737054 92.003162 
L 52.737054 9.119487 
" style="fill:none;stroke:#ffffff;stroke-dasharray:5.55,2.4;stroke-dashoffset:0;stroke-width:1.5;"/>
   </g>
   <g id="patch_5">
    <path d="M 43.434375 92.003162 
L 43.434375 9.119487 
" style="fill:none;stroke:#ffffff;stroke-linecap:square;stroke-linejoin:miter;stroke-width:0.8;"/>
   </g>
   <g id="patch_6">
    <path d="M 182.806708 92.003162 
L 182.806708 9.119487 
" style="fill:none;stroke:#ffffff;stroke-linecap:square;stroke-linejoin:miter;stroke-width:0.8;"/>
   </g>
   <g id="patch_7">
    <path d="M 43.434375 92.003162 
L 182.806708 92.003162 
" style="fill:none;stroke:#ffffff;stroke-linecap:square;stroke-linejoin:miter;stroke-width:0.8;"/>
   </g>
   <g id="patch_8">
    <path d="M 43.434375 9.119487 
L 182.806708 9.119487 
" style="fill:none;stroke:#ffffff;stroke-linecap:square;stroke-linejoin:miter;stroke-width:0.8;"/>
   </g>
   <g id="patch_9">
    <path d="M 123.287958 35.969487 
L 178.806708 35.969487 
L 178.806708 13.119487 
L 123.287958 13.119487 
z
" style="fill:#ffffff;stroke:#000000;stroke-linejoin:miter;"/>
   </g>
   <g id="text_5">
    <g id="patch_10">
     <path d="M 122.487958 36.769487 
L 179.606708 36.769487 
L 179.606708 12.319487 
L 122.487958 12.319487 
z
" style="stroke:#000000;stroke-linejoin:miter;"/>
    </g>
    <!-- CCD 1 -->
    <g style="fill:#ffffff;" transform="translate(126.487958 22.319487)scale(0.08 -0.08)">
     <defs>
      <path d="M 3875 1444 
Q 3791 722 3342 329 
Q 2894 -63 2150 -63 
Q 1344 -63 858 515 
Q 372 1094 372 2063 
L 372 2500 
Q 372 3134 598 3615 
Q 825 4097 1240 4355 
Q 1656 4613 2203 4613 
Q 2928 4613 3365 4208 
Q 3803 3803 3875 3088 
L 3272 3088 
Q 3194 3631 2933 3875 
Q 2672 4119 2203 4119 
Q 1628 4119 1301 3694 
Q 975 3269 975 2484 
L 975 2044 
Q 975 1303 1284 865 
Q 1594 428 2150 428 
Q 2650 428 2917 654 
Q 3184 881 3272 1444 
L 3875 1444 
z
" id="Roboto-Regular-43" transform="scale(0.015625)"/>
      <path d="M 528 0 
L 528 4550 
L 1813 4550 
Q 2406 4550 2862 4287 
Q 3319 4025 3567 3540 
Q 3816 3056 3819 2428 
L 3819 2138 
Q 3819 1494 3570 1009 
Q 3322 525 2861 265 
Q 2400 6 1788 0 
L 528 0 
z
M 1128 4056 
L 1128 491 
L 1759 491 
Q 2453 491 2839 922 
Q 3225 1353 3225 2150 
L 3225 2416 
Q 3225 3191 2861 3620 
Q 2497 4050 1828 4056 
L 1128 4056 
z
" id="Roboto-Regular-44" transform="scale(0.015625)"/>
     </defs>
     <use xlink:href="#Roboto-Regular-43"/>
     <use x="65.087891" xlink:href="#Roboto-Regular-43"/>
     <use x="130.175781" xlink:href="#Roboto-Regular-44"/>
     <use x="195.751953" xlink:href="#Roboto-Regular-20"/>
     <use x="220.507812" xlink:href="#Roboto-Regular-31"/>
    </g>
    <!-- mean S/N=34 -->
    <g style="fill:#ffffff;" transform="translate(126.487958 31.144487)scale(0.08 -0.08)">
     <defs>
      <path d="M 984 3381 
L 1003 2956 
Q 1391 3444 2016 3444 
Q 3088 3444 3097 2234 
L 3097 0 
L 2519 0 
L 2519 2238 
Q 2516 2603 2352 2778 
Q 2188 2953 1841 2953 
Q 1559 2953 1346 2803 
Q 1134 2653 1016 2409 
L 1016 0 
L 438 0 
L 438 3381 
L 984 3381 
z
" id="Roboto-Regular-6e" transform="scale(0.015625)"/>
      <path d="M 1869 2028 
Q 1097 2250 745 2573 
Q 394 2897 394 3372 
Q 394 3909 823 4261 
Q 1253 4613 1941 4613 
Q 2409 4613 2776 4431 
Q 3144 4250 3345 3931 
Q 3547 3613 3547 3234 
L 2944 3234 
Q 2944 3647 2681 3883 
Q 2419 4119 1941 4119 
Q 1497 4119 1248 3923 
Q 1000 3728 1000 3381 
Q 1000 3103 1236 2911 
Q 1472 2719 2039 2559 
Q 2606 2400 2926 2208 
Q 3247 2016 3401 1759 
Q 3556 1503 3556 1156 
Q 3556 603 3125 270 
Q 2694 -63 1972 -63 
Q 1503 -63 1097 117 
Q 691 297 470 609 
Q 250 922 250 1319 
L 853 1319 
Q 853 906 1158 667 
Q 1463 428 1972 428 
Q 2447 428 2700 622 
Q 2953 816 2953 1150 
Q 2953 1484 2718 1667 
Q 2484 1850 1869 2028 
z
" id="Roboto-Regular-53" transform="scale(0.015625)"/>
      <path d="M 553 -391 
L 56 -391 
L 1956 4550 
L 2450 4550 
L 553 -391 
z
" id="Roboto-Regular-2f" transform="scale(0.015625)"/>
      <path d="M 3081 2544 
L 475 2544 
L 475 3047 
L 3081 3047 
L 3081 2544 
z
M 3081 1247 
L 475 1247 
L 475 1747 
L 3081 1747 
L 3081 1247 
z
" id="Roboto-Regular-3d" transform="scale(0.015625)"/>
      <path d="M 2819 1528 
L 3450 1528 
L 3450 1056 
L 2819 1056 
L 2819 0 
L 2238 0 
L 2238 1056 
L 166 1056 
L 166 1397 
L 2203 4550 
L 2819 4550 
L 2819 1528 
z
M 822 1528 
L 2238 1528 
L 2238 3759 
L 2169 3634 
L 822 1528 
z
" id="Roboto-Regular-34" transform="scale(0.015625)"/>
     </defs>
     <use xlink:href="#Roboto-Regular-6d"/>
     <use x="87.646484" xlink:href="#Roboto-Regular-65"/>
     <use x="140.625" xlink:href="#Roboto-Regular-61"/>
     <use x="195.019531" xlink:href="#Roboto-Regular-6e"/>
     <use x="250.195312" xlink:href="#Roboto-Regular-20"/>
     <use x="274.951172" xlink:href="#Roboto-Regular-53"/>
     <use x="334.277344" xlink:href="#Roboto-Regular-2f"/>
     <use x="375.488281" xlink:href="#Roboto-Regular-4e"/>
     <use x="446.777344" xlink:href="#Roboto-Regular-3d"/>
     <use x="501.660156" xlink:href="#Roboto-Regular-33"/>
     <use x="557.8125" xlink:href="#Roboto-Regular-34"/>
    </g>
   </g>
  </g>
  <g id="axes_2">
   <g id="patch_11">
    <path d="M 192.307188 92.003162 
L 331.67952 92.003162 
L 331.67952 9.119487 
L 192.307188 9.119487 
z
"/>
   </g>
   <g id="patch_12">
    <path clip-path="url(#pc76655652a)" d="M 192.027884 15545.380116 
L 192.027884 41.372562 
L 193.424401 41.372562 
L 193.424401 32.707494 
L 194.820917 32.707494 
L 194.820917 26.697984 
L 196.217433 26.697984 
L 196.217433 22.050179 
L 197.61395 22.050179 
L 197.61395 18.856417 
L 199.010466 18.856417 
L 199.010466 16.746851 
L 200.406982 16.746851 
L 200.406982 15.454222 
L 201.803499 15.454222 
L 201.803499 14.854052 
L 203.200015 14.854052 
L 203.200015 15.001563 
L 204.596531 15.001563 
L 204.596531 15.691585 
L 205.993048 15.691585 
L 205.993048 16.623029 
L 207.389564 16.623029 
L 207.389564 17.76851 
L 208.786081 17.76851 
L 208.786081 19.010542 
L 210.182597 19.010542 
L 210.182597 20.292476 
L 211.579113 20.292476 
L 211.579113 21.675663 
L 212.97563 21.675663 
L 212.97563 22.978668 
L 214.372146 22.978668 
L 214.372146 24.488211 
L 215.768662 24.488211 
L 215.768662 25.889266 
L 217.165179 25.889266 
L 217.165179 27.444636 
L 218.561695 27.444636 
L 218.561695 28.937106 
L 219.958211 28.937106 
L 219.958211 30.637462 
L 221.354728 30.637462 
L 221.354728 32.449952 
L 222.751244 32.449952 
L 222.751244 34.219618 
L 224.14776 34.219618 
L 224.14776 35.732095 
L 225.544277 35.732095 
L 225.544277 37.655218 
L 226.940793 37.655218 
L 226.940793 39.151377 
L 228.33731 39.151377 
L 228.33731 41.055739 
L 229.733826 41.055739 
L 229.733826 42.06876 
L 231.130342 42.06876 
L 231.130342 43.680124 
L 232.526859 43.680124 
L 232.526859 44.463102 
L 233.923375 44.463102 
L 233.923375 46.50394 
L 235.319891 46.50394 
L 235.319891 47.121013 
L 236.716408 47.121013 
L 236.716408 47.915358 
L 238.112924 47.915358 
L 238.112924 48.759983 
L 239.50944 48.759983 
L 239.50944 49.661733 
L 240.905957 49.661733 
L 240.905957 50.932999 
L 242.302473 50.932999 
L 242.302473 51.759404 
L 243.698989 51.759404 
L 243.698989 52.120726 
L 245.095506 52.120726 
L 245.095506 51.788783 
L 246.492022 51.788783 
L 246.492022 53.301472 
L 247.888539 53.301472 
L 247.888539 54.920382 
L 249.285055 54.920382 
L 249.285055 55.664273 
L 250.681571 55.664273 
L 250.681571 56.267474 
L 252.078088 56.267474 
L 252.078088 57.525904 
L 253.474604 57.525904 
L 253.474604 57.595469 
L 254.87112 57.595469 
L 254.87112 58.412415 
L 256.267637 58.412415 
L 256.267637 60.530465 
L 257.664153 60.530465 
L 257.664153 59.163715 
L 259.060669 59.163715 
L 259.060669 60.317337 
L 260.457186 60.317337 
L 260.457186 60.530465 
L 261.853702 60.530465 
L 261.853702 62.832637 
L 263.250218 62.832637 
L 263.250218 64.970401 
L 264.646735 64.970401 
L 264.646735 64.763833 
L 266.043251 64.763833 
L 266.043251 64.179729 
L 267.439768 64.179729 
L 267.439768 63.816779 
L 268.836284 63.816779 
L 268.836284 68.125513 
L 270.2328 68.125513 
L 270.2328 65.866791 
L 271.629317 65.866791 
L 271.629317 72.138765 
L 273.025833 72.138765 
L 273.025833 69.623466 
L 274.422349 69.623466 
L 274.422349 70.519855 
L 275.818866 70.519855 
L 275.818866 70.05671 
L 277.215382 70.05671 
L 277.215382 71.017339 
L 278.611898 71.017339 
L 278.611898 73.485858 
L 280.008415 73.485858 
L 280.008415 75.17292 
L 281.404931 75.17292 
L 281.404931 73.485858 
L 282.801447 73.485858 
L 282.801447 75.17292 
L 284.197964 75.17292 
L 284.197964 83.582658 
L 285.59448 83.582658 
L 285.59448 75.17292 
L 286.990997 75.17292 
L 286.990997 80.86079 
L 288.387513 80.86079 
L 288.387513 80.86079 
L 289.784029 80.86079 
L 289.784029 83.582658 
L 291.180546 83.582658 
L 291.180546 83.582658 
L 292.577062 83.582658 
L 292.577062 83.582658 
L 293.973578 83.582658 
L 293.973578 83.582658 
L 295.370095 83.582658 
L 295.370095 88.235722 
L 296.766611 88.235722 
L 296.766611 88.235722 
L 298.163127 88.235722 
L 298.163127 88.235722 
L 299.559644 88.235722 
L 299.559644 15545.380116 
L 300.95616 15545.380116 
L 300.95616 88.235722 
L 302.352676 88.235722 
L 302.352676 15545.380116 
L 303.749193 15545.380116 
L 303.749193 83.582658 
L 305.145709 83.582658 
L 305.145709 15545.380116 
L 306.542226 15545.380116 
L 306.542226 15545.380116 
L 307.938742 15545.380116 
L 307.938742 15545.380116 
L 309.335258 15545.380116 
L 309.335258 15545.380116 
L 310.731775 15545.380116 
L 310.731775 15545.380116 
L 312.128291 15545.380116 
L 312.128291 83.582658 
L 313.524807 83.582658 
L 313.524807 15545.380116 
L 314.921324 15545.380116 
L 314.921324 15545.380116 
L 316.31784 15545.380116 
L 316.31784 15545.380116 
L 317.714356 15545.380116 
L 317.714356 88.235722 
L 319.110873 88.235722 
L 319.110873 15545.380116 
L 320.507389 15545.380116 
L 320.507389 15545.380116 
L 321.903905 15545.380116 
L 321.903905 15545.380116 
L 323.300422 15545.380116 
L 323.300422 88.235722 
L 324.696938 88.235722 
L 324.696938 15545.380116 
L 326.093455 15545.380116 
L 326.093455 15545.380116 
L 327.489971 15545.380116 
L 327.489971 15545.380116 
L 328.886487 15545.380116 
L 328.886487 15545.380116 
L 330.283004 15545.380116 
L 330.283004 15545.380116 
L 331.67952 15545.380116 
L 331.67952 15545.380116 
L 333.076036 15545.380116 
L 333.076036 15545.380116 
L 334.472553 15545.380116 
L 334.472553 15545.380116 
L 335.869069 15545.380116 
L 335.869069 15545.380116 
L 337.265585 15545.380116 
L 337.265585 15545.380116 
L 338.662102 15545.380116 
L 338.662102 15545.380116 
L 340.058618 15545.380116 
L 340.058618 15545.380116 
L 341.455135 15545.380116 
L 341.455135 15545.380116 
L 342.851651 15545.380116 
L 342.851651 15545.380116 
L 344.248167 15545.380116 
L 344.248167 15545.380116 
L 342.851651 15545.380116 
L 342.851651 15545.380116 
L 341.455135 15545.380116 
L 341.455135 15545.380116 
L 340.058618 15545.380116 
L 340.058618 15545.380116 
L 338.662102 15545.380116 
L 338.662102 15545.380116 
L 337.265585 15545.380116 
L 337.265585 15545.380116 
L 335.869069 15545.380116 
L 335.869069 15545.380116 
L 334.472553 15545.380116 
L 334.472553 15545.380116 
L 333.076036 15545.380116 
L 333.076036 15545.380116 
L 331.67952 15545.380116 
L 331.67952 15545.380116 
L 330.283004 15545.380116 
L 330.283004 15545.380116 
L 328.886487 15545.380116 
L 328.886487 15545.380116 
L 327.489971 15545.380116 
L 327.489971 15545.380116 
L 326.093455 15545.380116 
L 326.093455 15545.380116 
L 324.696938 15545.380116 
L 324.696938 15545.380116 
L 323.300422 15545.380116 
L 323.300422 15545.380116 
L 321.903905 15545.380116 
L 321.903905 15545.380116 
L 320.507389 15545.380116 
L 320.507389 15545.380116 
L 319.110873 15545.380116 
L 319.110873 15545.380116 
L 317.714356 15545.380116 
L 317.714356 15545.380116 
L 316.31784 15545.380116 
L 316.31784 15545.380116 
L 314.921324 15545.380116 
L 314.921324 15545.380116 
L 313.524807 15545.380116 
L 313.524807 15545.380116 
L 312.128291 15545.380116 
L 312.128291 15545.380116 
L 310.731775 15545.380116 
L 310.731775 15545.380116 
L 309.335258 15545.380116 
L 309.335258 15545.380116 
L 307.938742 15545.380116 
L 307.938742 15545.380116 
L 306.542226 15545.380116 
L 306.542226 15545.380116 
L 305.145709 15545.380116 
L 305.145709 15545.380116 
L 303.749193 15545.380116 
L 303.749193 15545.380116 
L 302.352676 15545.380116 
L 302.352676 15545.380116 
L 300.95616 15545.380116 
L 300.95616 15545.380116 
L 299.559644 15545.380116 
L 299.559644 15545.380116 
L 298.163127 15545.380116 
L 298.163127 15545.380116 
L 296.766611 15545.380116 
L 296.766611 15545.380116 
L 295.370095 15545.380116 
L 295.370095 15545.380116 
L 293.973578 15545.380116 
L 293.973578 15545.380116 
L 292.577062 15545.380116 
L 292.577062 15545.380116 
L 291.180546 15545.380116 
L 291.180546 15545.380116 
L 289.784029 15545.380116 
L 289.784029 15545.380116 
L 288.387513 15545.380116 
L 288.387513 15545.380116 
L 286.990997 15545.380116 
L 286.990997 15545.380116 
L 285.59448 15545.380116 
L 285.59448 15545.380116 
L 284.197964 15545.380116 
L 284.197964 15545.380116 
L 282.801447 15545.380116 
L 282.801447 15545.380116 
L 281.404931 15545.380116 
L 281.404931 15545.380116 
L 280.008415 15545.380116 
L 280.008415 15545.380116 
L 278.611898 15545.380116 
L 278.611898 15545.380116 
L 277.215382 15545.380116 
L 277.215382 15545.380116 
L 275.818866 15545.380116 
L 275.818866 15545.380116 
L 274.422349 15545.380116 
L 274.422349 15545.380116 
L 273.025833 15545.380116 
L 273.025833 15545.380116 
L 271.629317 15545.380116 
L 271.629317 15545.380116 
L 270.2328 15545.380116 
L 270.2328 15545.380116 
L 268.836284 15545.380116 
L 268.836284 15545.380116 
L 267.439768 15545.380116 
L 267.439768 15545.380116 
L 266.043251 15545.380116 
L 266.043251 15545.380116 
L 264.646735 15545.380116 
L 264.646735 15545.380116 
L 263.250218 15545.380116 
L 263.250218 15545.380116 
L 261.853702 15545.380116 
L 261.853702 15545.380116 
L 260.457186 15545.380116 
L 260.457186 15545.380116 
L 259.060669 15545.380116 
L 259.060669 15545.380116 
L 257.664153 15545.380116 
L 257.664153 15545.380116 
L 256.267637 15545.380116 
L 256.267637 15545.380116 
L 254.87112 15545.380116 
L 254.87112 15545.380116 
L 253.474604 15545.380116 
L 253.474604 15545.380116 
L 252.078088 15545.380116 
L 252.078088 15545.380116 
L 250.681571 15545.380116 
L 250.681571 15545.380116 
L 249.285055 15545.380116 
L 249.285055 15545.380116 
L 247.888539 15545.380116 
L 247.888539 15545.380116 
L 246.492022 15545.380116 
L 246.492022 15545.380116 
L 245.095506 15545.380116 
L 245.095506 15545.380116 
L 243.698989 15545.380116 
L 243.698989 15545.380116 
L 242.302473 15545.380116 
L 242.302473 15545.380116 
L 240.905957 15545.380116 
L 240.905957 15545.380116 
L 239.50944 15545.380116 
L 239.50944 15545.380116 
L 238.112924 15545.380116 
L 238.112924 15545.380116 
L 236.716408 15545.380116 
L 236.716408 15545.380116 
L 235.319891 15545.380116 
L 235.319891 15545.380116 
L 233.923375 15545.380116 
L 233.923375 15545.380116 
L 232.526859 15545.380116 
L 232.526859 15545.380116 
L 231.130342 15545.380116 
L 231.130342 15545.380116 
L 229.733826 15545.380116 
L 229.733826 15545.380116 
L 228.33731 15545.380116 
L 228.33731 15545.380116 
L 226.940793 15545.380116 
L 226.940793 15545.380116 
L 225.544277 15545.380116 
L 225.544277 15545.380116 
L 224.14776 15545.380116 
L 224.14776 15545.380116 
L 222.751244 15545.380116 
L 222.751244 15545.380116 
L 221.354728 15545.380116 
L 221.354728 15545.380116 
L 219.958211 15545.380116 
L 219.958211 15545.380116 
L 218.561695 15545.380116 
L 218.561695 15545.380116 
L 217.165179 15545.380116 
L 217.165179 15545.380116 
L 215.768662 15545.380116 
L 215.768662 15545.380116 
L 214.372146 15545.380116 
L 214.372146 15545.380116 
L 212.97563 15545.380116 
L 212.97563 15545.380116 
L 211.579113 15545.380116 
L 211.579113 15545.380116 
L 210.182597 15545.380116 
L 210.182597 15545.380116 
L 208.786081 15545.380116 
L 208.786081 15545.380116 
L 207.389564 15545.380116 
L 207.389564 15545.380116 
L 205.993048 15545.380116 
L 205.993048 15545.380116 
L 204.596531 15545.380116 
L 204.596531 15545.380116 
L 203.200015 15545.380116 
L 203.200015 15545.380116 
L 201.803499 15545.380116 
L 201.803499 15545.380116 
L 200.406982 15545.380116 
L 200.406982 15545.380116 
L 199.010466 15545.380116 
L 199.010466 15545.380116 
L 197.61395 15545.380116 
L 197.61395 15545.380116 
L 196.217433 15545.380116 
L 196.217433 15545.380116 
L 194.820917 15545.380116 
L 194.820917 15545.380116 
L 193.424401 15545.380116 
L 193.424401 15545.380116 
z
" style="fill:#8dd3c7;opacity:0.8;"/>
   </g>
   <g id="matplotlib.axis_3">
    <g id="xtick_3">
     <g id="line2d_7">
      <g>
       <use style="fill:#ffffff;stroke:#ffffff;stroke-width:0.8;" x="247.888539" xlink:href="#mbe42bd4469" y="92.003162"/>
      </g>
     </g>
    </g>
    <g id="xtick_4">
     <g id="line2d_8">
      <g>
       <use style="fill:#ffffff;stroke:#ffffff;stroke-width:0.8;" x="303.749193" xlink:href="#mbe42bd4469" y="92.003162"/>
      </g>
     </g>
    </g>
   </g>
   <g id="matplotlib.axis_4">
    <g id="ytick_4">
     <g id="line2d_9">
      <g>
       <use style="fill:#ffffff;stroke:#ffffff;stroke-width:0.8;" x="192.307188" xlink:href="#mc9d5d6eea7" y="72.778578"/>
      </g>
     </g>
    </g>
    <g id="ytick_5">
     <g id="line2d_10">
      <g>
       <use style="fill:#ffffff;stroke:#ffffff;stroke-width:0.8;" x="192.307188" xlink:href="#mc9d5d6eea7" y="41.864289"/>
      </g>
     </g>
    </g>
    <g id="ytick_6">
     <g id="line2d_11">
      <g>
       <use style="fill:#ffffff;stroke:#ffffff;stroke-width:0.8;" x="192.307188" xlink:href="#mc9d5d6eea7" y="10.95"/>
      </g>
     </g>
    </g>
   </g>
   <g id="patch_13">
    <path clip-path="url(#pc76655652a)" d="M 192.027884 225.37738 
L 192.027884 35.588241 
L 193.424401 35.588241 
L 193.424401 36.519739 
L 194.820917 36.519739 
L 194.820917 35.462908 
L 196.217433 35.462908 
L 196.217433 34.703062 
L 197.61395 34.703062 
L 197.61395 34.028897 
L 199.010466 34.028897 
L 199.010466 34.221768 
L 201.803499 34.206733 
L 201.803499 34.747096 
L 203.200015 34.747096 
L 203.200015 36.074583 
L 204.596531 36.074583 
L 204.596531 37.221302 
L 205.993048 37.221302 
L 205.993048 38.21979 
L 207.389564 38.21979 
L 207.389564 39.760786 
L 208.786081 39.760786 
L 208.786081 41.530372 
L 210.182597 41.530372 
L 210.182597 42.868954 
L 211.579113 42.868954 
L 211.579113 44.078851 
L 212.97563 44.078851 
L 212.97563 45.649554 
L 214.372146 45.649554 
L 214.372146 46.763476 
L 215.768662 46.763476 
L 215.768662 48.575042 
L 217.165179 48.575042 
L 217.165179 50.220537 
L 218.561695 50.220537 
L 218.561695 52.702018 
L 219.958211 52.702018 
L 219.958211 53.155533 
L 221.354728 53.155533 
L 221.354728 54.96749 
L 224.14776 54.96749 
L 224.14776 56.441847 
L 225.544277 56.441847 
L 225.544277 59.163715 
L 226.940793 59.163715 
L 226.940793 59.620554 
L 228.33731 59.620554 
L 228.33731 60.750581 
L 229.733826 60.750581 
L 229.733826 61.583341 
L 231.130342 61.583341 
L 231.130342 61.974497 
L 232.526859 61.974497 
L 232.526859 62.832637 
L 233.923375 62.832637 
L 233.923375 64.368839 
L 235.319891 64.368839 
L 235.319891 65.866791 
L 236.716408 65.866791 
L 236.716408 66.627561 
L 238.112924 66.627561 
L 238.112924 66.110926 
L 239.50944 66.110926 
L 239.50944 69.216495 
L 240.905957 69.216495 
L 240.905957 64.179729 
L 242.302473 64.179729 
L 242.302473 67.797987 
L 243.698989 67.797987 
L 243.698989 70.05671 
L 245.095506 70.05671 
L 245.095506 72.138765 
L 247.888539 72.138765 
L 247.888539 75.17292 
L 250.681571 75.17292 
L 250.681571 80.86079 
L 252.078088 80.86079 
L 252.078088 76.207726 
L 253.474604 76.207726 
L 253.474604 83.582658 
L 256.267637 83.582658 
L 256.267637 76.207726 
L 257.664153 76.207726 
L 257.664153 80.86079 
L 259.060669 80.86079 
L 259.060669 78.929594 
L 260.457186 78.929594 
L 260.457186 83.582658 
L 261.853702 83.582658 
L 261.853702 80.86079 
L 263.250218 80.86079 
L 263.250218 88.235722 
L 264.646735 88.235722 
L 264.646735 83.582658 
L 266.043251 83.582658 
L 266.043251 88.235722 
L 270.2328 88.235722 
L 270.2328 83.582658 
L 271.629317 83.582658 
L 271.629317 80.86079 
L 273.025833 80.86079 
L 273.025833 83.582658 
L 274.422349 83.582658 
L 274.422349 225.37738 
M 275.818866 225.37738 
L 275.818866 88.235722 
L 277.215382 88.235722 
L 277.215382 225.37738 
M 281.404931 225.37738 
L 281.404931 88.235722 
L 282.801447 88.235722 
L 282.801447 225.37738 
M 284.197964 225.37738 
L 284.197964 88.235722 
L 285.59448 88.235722 
L 285.59448 225.37738 
M 292.577062 225.37738 
L 292.577062 83.582658 
L 293.973578 83.582658 
L 293.973578 225.37738 
M 299.559644 225.37738 
L 299.559644 88.235722 
L 300.95616 88.235722 
L 300.95616 225.37738 
L 300.95616 225.37738 
" style="fill:none;stroke:#ffffff;stroke-linejoin:miter;"/>
   </g>
   <g id="line2d_12">
    <path clip-path="url(#pc76655652a)" d="M 205.890429 92.003162 
L 205.890429 9.119487 
" style="fill:none;stroke:#ffffff;stroke-dasharray:5.55,2.4;stroke-dashoffset:0;stroke-width:1.5;"/>
   </g>
   <g id="patch_14">
    <path d="M 192.307188 92.003162 
L 192.307188 9.119487 
" style="fill:none;stroke:#ffffff;stroke-linecap:square;stroke-linejoin:miter;stroke-width:0.8;"/>
   </g>
   <g id="patch_15">
    <path d="M 331.67952 92.003162 
L 331.67952 9.119487 
" style="fill:none;stroke:#ffffff;stroke-linecap:square;stroke-linejoin:miter;stroke-width:0.8;"/>
   </g>
   <g id="patch_16">
    <path d="M 192.307188 92.003162 
L 331.67952 92.003162 
" style="fill:none;stroke:#ffffff;stroke-linecap:square;stroke-linejoin:miter;stroke-width:0.8;"/>
   </g>
   <g id="patch_17">
    <path d="M 192.307188 9.119487 
L 331.67952 9.119487 
" style="fill:none;stroke:#ffffff;stroke-linecap:square;stroke-linejoin:miter;stroke-width:0.8;"/>
   </g>
   <g id="patch_18">
    <path d="M 272.16077 35.969487 
L 327.67952 35.969487 
L 327.67952 13.119487 
L 272.16077 13.119487 
z
" style="fill:#ffffff;stroke:#000000;stroke-linejoin:miter;"/>
   </g>
   <g id="text_6">
    <g id="patch_19">
     <path d="M 271.36077 36.769487 
L 328.47952 36.769487 
L 328.47952 12.319487 
L 271.36077 12.319487 
z
" style="stroke:#000000;stroke-linejoin:miter;"/>
    </g>
    <!-- CCD 2 -->
    <g style="fill:#ffffff;" transform="translate(275.36077 22.319487)scale(0.08 -0.08)">
     <defs>
      <path d="M 3359 0 
L 378 0 
L 378 416 
L 1953 2166 
Q 2303 2563 2436 2811 
Q 2569 3059 2569 3325 
Q 2569 3681 2353 3909 
Q 2138 4138 1778 4138 
Q 1347 4138 1108 3892 
Q 869 3647 869 3209 
L 291 3209 
Q 291 3838 695 4225 
Q 1100 4613 1778 4613 
Q 2413 4613 2781 4280 
Q 3150 3947 3150 3394 
Q 3150 2722 2294 1794 
L 1075 472 
L 3359 472 
L 3359 0 
z
" id="Roboto-Regular-32" transform="scale(0.015625)"/>
     </defs>
     <use xlink:href="#Roboto-Regular-43"/>
     <use x="65.087891" xlink:href="#Roboto-Regular-43"/>
     <use x="130.175781" xlink:href="#Roboto-Regular-44"/>
     <use x="195.751953" xlink:href="#Roboto-Regular-20"/>
     <use x="220.507812" xlink:href="#Roboto-Regular-32"/>
    </g>
    <!-- mean S/N=50 -->
    <g style="fill:#ffffff;" transform="translate(275.36077 31.144487)scale(0.08 -0.08)">
     <use xlink:href="#Roboto-Regular-6d"/>
     <use x="87.646484" xlink:href="#Roboto-Regular-65"/>
     <use x="140.625" xlink:href="#Roboto-Regular-61"/>
     <use x="195.019531" xlink:href="#Roboto-Regular-6e"/>
     <use x="250.195312" xlink:href="#Roboto-Regular-20"/>
     <use x="274.951172" xlink:href="#Roboto-Regular-53"/>
     <use x="334.277344" xlink:href="#Roboto-Regular-2f"/>
     <use x="375.488281" xlink:href="#Roboto-Regular-4e"/>
     <use x="446.777344" xlink:href="#Roboto-Regular-3d"/>
     <use x="501.660156" xlink:href="#Roboto-Regular-35"/>
     <use x="557.8125" xlink:href="#Roboto-Regular-30"/>
    </g>
   </g>
  </g>
  <g id="axes_3">
   <g id="patch_20">
    <path d="M 43.434375 186.328943 
L 182.806708 186.328943 
L 182.806708 103.445268 
L 43.434375 103.445268 
z
"/>
   </g>
   <g id="patch_21">
    <path clip-path="url(#p0af7f51fdd)" d="M 43.155072 15639.705897 
L 43.155072 136.210239 
L 44.551588 136.210239 
L 44.551588 131.731104 
L 45.948104 131.731104 
L 45.948104 126.757592 
L 47.344621 126.757592 
L 47.344621 122.774217 
L 48.741137 122.774217 
L 48.741137 119.306239 
L 50.137654 119.306239 
L 50.137654 116.470991 
L 51.53417 116.470991 
L 51.53417 114.050373 
L 52.930686 114.050373 
L 52.930686 112.543099 
L 54.327203 112.543099 
L 54.327203 111.434186 
L 55.723719 111.434186 
L 55.723719 110.938347 
L 57.120235 110.938347 
L 57.120235 110.839982 
L 58.516752 110.839982 
L 58.516752 111.168838 
L 59.913268 111.168838 
L 59.913268 111.688084 
L 61.309784 111.688084 
L 61.309784 112.533197 
L 62.706301 112.533197 
L 62.706301 113.425913 
L 64.102817 113.425913 
L 64.102817 114.386612 
L 65.499333 114.386612 
L 65.499333 115.245474 
L 66.89585 115.245474 
L 66.89585 116.121611 
L 68.292366 116.121611 
L 68.292366 117.059624 
L 69.688883 117.059624 
L 69.688883 118.042458 
L 71.085399 118.042458 
L 71.085399 119.093621 
L 72.481915 119.093621 
L 72.481915 120.042045 
L 73.878432 120.042045 
L 73.878432 121.134737 
L 75.274948 121.134737 
L 75.274948 122.313619 
L 76.671464 122.313619 
L 76.671464 123.449425 
L 78.067981 123.449425 
L 78.067981 124.648034 
L 79.464497 124.648034 
L 79.464497 125.811362 
L 80.861013 125.811362 
L 80.861013 126.785649 
L 82.25753 126.785649 
L 82.25753 128.096455 
L 83.654046 128.096455 
L 83.654046 129.19726 
L 85.050562 129.19726 
L 85.050562 130.506037 
L 86.447079 130.506037 
L 86.447079 131.679479 
L 87.843595 131.679479 
L 87.843595 132.775707 
L 89.240112 132.775707 
L 89.240112 133.883569 
L 90.636628 133.883569 
L 90.636628 134.670671 
L 92.033144 134.670671 
L 92.033144 135.779942 
L 93.429661 135.779942 
L 93.429661 136.541469 
L 94.826177 136.541469 
L 94.826177 137.596348 
L 96.222693 137.596348 
L 96.222693 138.266025 
L 97.61921 138.266025 
L 97.61921 139.377482 
L 99.015726 139.377482 
L 99.015726 140.276956 
L 100.412242 140.276956 
L 100.412242 141.00621 
L 101.808759 141.00621 
L 101.808759 141.34475 
L 103.205275 141.34475 
L 103.205275 142.615122 
L 104.601791 142.615122 
L 104.601791 143.237476 
L 105.998308 143.237476 
L 105.998308 143.839038 
L 107.394824 143.839038 
L 107.394824 144.880841 
L 108.791341 144.880841 
L 108.791341 144.735428 
L 110.187857 144.735428 
L 110.187857 146.415644 
L 111.584373 146.415644 
L 111.584373 147.233314 
L 112.98089 147.233314 
L 112.98089 147.70143 
L 114.377406 147.70143 
L 114.377406 148.285534 
L 115.773922 148.285534 
L 115.773922 148.836432 
L 117.170439 148.836432 
L 117.170439 148.576543 
L 118.566955 148.576543 
L 118.566955 149.340713 
L 119.963471 149.340713 
L 119.963471 149.783486 
L 121.359988 149.783486 
L 121.359988 150.312338 
L 122.756504 150.312338 
L 122.756504 151.383928 
L 124.15302 151.383928 
L 124.15302 151.714682 
L 125.549537 151.714682 
L 125.549537 153.061775 
L 126.946053 153.061775 
L 126.946053 153.061775 
L 128.34257 153.061775 
L 128.34257 154.53904 
L 129.739086 154.53904 
L 129.739086 153.946336 
L 131.135602 153.946336 
L 131.135602 154.43655 
L 132.532119 154.43655 
L 132.532119 154.53904 
L 133.928635 154.53904 
L 133.928635 157.007559 
L 135.325151 157.007559 
L 135.325151 156.036992 
L 136.721668 156.036992 
L 136.721668 156.036992 
L 138.118184 156.036992 
L 138.118184 157.007559 
L 139.5147 157.007559 
L 139.5147 159.296183 
L 140.911217 159.296183 
L 140.911217 158.694621 
L 142.307733 158.694621 
L 142.307733 160.192573 
L 143.704249 160.192573 
L 143.704249 160.436707 
L 145.100766 160.436707 
L 145.100766 161.811482 
L 146.497282 161.811482 
L 146.497282 160.436707 
L 147.893799 160.436707 
L 147.893799 160.192573 
L 149.290315 160.192573 
L 149.290315 160.436707 
L 150.686831 160.436707 
L 150.686831 163.542277 
L 152.083348 163.542277 
L 152.083348 165.880443 
L 153.479864 165.880443 
L 153.479864 164.382491 
L 154.87638 164.382491 
L 154.87638 163.949247 
L 156.272897 163.949247 
L 156.272897 165.880443 
L 157.669413 165.880443 
L 157.669413 164.382491 
L 159.065929 164.382491 
L 159.065929 167.811639 
L 160.462446 167.811639 
L 160.462446 165.34312 
L 161.858962 165.34312 
L 161.858962 163.949247 
L 163.255478 163.949247 
L 163.255478 168.602311 
L 164.651995 168.602311 
L 164.651995 166.464546 
L 166.048511 166.464546 
L 166.048511 166.464546 
L 167.445028 166.464546 
L 167.445028 168.602311 
L 168.841544 168.602311 
L 168.841544 166.464546 
L 170.23806 166.464546 
L 170.23806 170.533507 
L 171.634577 170.533507 
L 171.634577 173.255375 
L 173.031093 173.255375 
L 173.031093 171.757423 
L 174.427609 171.757423 
L 174.427609 171.757423 
L 175.824126 171.757423 
L 175.824126 177.908439 
L 177.220642 177.908439 
L 177.220642 169.498701 
L 178.617158 169.498701 
L 178.617158 173.255375 
L 180.013675 173.255375 
L 180.013675 182.561503 
L 181.410191 182.561503 
L 181.410191 171.757423 
L 182.806708 171.757423 
L 182.806708 175.186571 
L 184.203224 175.186571 
L 184.203224 171.757423 
L 185.59974 171.757423 
L 185.59974 175.186571 
L 186.996257 175.186571 
L 186.996257 177.908439 
L 188.392773 177.908439 
L 188.392773 182.561503 
L 189.789289 182.561503 
L 189.789289 175.186571 
L 191.185806 175.186571 
L 191.185806 177.908439 
L 192.582322 177.908439 
L 192.582322 15639.705897 
L 193.978838 15639.705897 
L 193.978838 182.561503 
L 195.375355 182.561503 
L 195.375355 15639.705897 
L 193.978838 15639.705897 
L 193.978838 15639.705897 
L 192.582322 15639.705897 
L 192.582322 15639.705897 
L 191.185806 15639.705897 
L 191.185806 15639.705897 
L 189.789289 15639.705897 
L 189.789289 15639.705897 
L 188.392773 15639.705897 
L 188.392773 15639.705897 
L 186.996257 15639.705897 
L 186.996257 15639.705897 
L 185.59974 15639.705897 
L 185.59974 15639.705897 
L 184.203224 15639.705897 
L 184.203224 15639.705897 
L 182.806708 15639.705897 
L 182.806708 15639.705897 
L 181.410191 15639.705897 
L 181.410191 15639.705897 
L 180.013675 15639.705897 
L 180.013675 15639.705897 
L 178.617158 15639.705897 
L 178.617158 15639.705897 
L 177.220642 15639.705897 
L 177.220642 15639.705897 
L 175.824126 15639.705897 
L 175.824126 15639.705897 
L 174.427609 15639.705897 
L 174.427609 15639.705897 
L 173.031093 15639.705897 
L 173.031093 15639.705897 
L 171.634577 15639.705897 
L 171.634577 15639.705897 
L 170.23806 15639.705897 
L 170.23806 15639.705897 
L 168.841544 15639.705897 
L 168.841544 15639.705897 
L 167.445028 15639.705897 
L 167.445028 15639.705897 
L 166.048511 15639.705897 
L 166.048511 15639.705897 
L 164.651995 15639.705897 
L 164.651995 15639.705897 
L 163.255478 15639.705897 
L 163.255478 15639.705897 
L 161.858962 15639.705897 
L 161.858962 15639.705897 
L 160.462446 15639.705897 
L 160.462446 15639.705897 
L 159.065929 15639.705897 
L 159.065929 15639.705897 
L 157.669413 15639.705897 
L 157.669413 15639.705897 
L 156.272897 15639.705897 
L 156.272897 15639.705897 
L 154.87638 15639.705897 
L 154.87638 15639.705897 
L 153.479864 15639.705897 
L 153.479864 15639.705897 
L 152.083348 15639.705897 
L 152.083348 15639.705897 
L 150.686831 15639.705897 
L 150.686831 15639.705897 
L 149.290315 15639.705897 
L 149.290315 15639.705897 
L 147.893799 15639.705897 
L 147.893799 15639.705897 
L 146.497282 15639.705897 
L 146.497282 15639.705897 
L 145.100766 15639.705897 
L 145.100766 15639.705897 
L 143.704249 15639.705897 
L 143.704249 15639.705897 
L 142.307733 15639.705897 
L 142.307733 15639.705897 
L 140.911217 15639.705897 
L 140.911217 15639.705897 
L 139.5147 15639.705897 
L 139.5147 15639.705897 
L 138.118184 15639.705897 
L 138.118184 15639.705897 
L 136.721668 15639.705897 
L 136.721668 15639.705897 
L 135.325151 15639.705897 
L 135.325151 15639.705897 
L 133.928635 15639.705897 
L 133.928635 15639.705897 
L 132.532119 15639.705897 
L 132.532119 15639.705897 
L 131.135602 15639.705897 
L 131.135602 15639.705897 
L 129.739086 15639.705897 
L 129.739086 15639.705897 
L 128.34257 15639.705897 
L 128.34257 15639.705897 
L 126.946053 15639.705897 
L 126.946053 15639.705897 
L 125.549537 15639.705897 
L 125.549537 15639.705897 
L 124.15302 15639.705897 
L 124.15302 15639.705897 
L 122.756504 15639.705897 
L 122.756504 15639.705897 
L 121.359988 15639.705897 
L 121.359988 15639.705897 
L 119.963471 15639.705897 
L 119.963471 15639.705897 
L 118.566955 15639.705897 
L 118.566955 15639.705897 
L 117.170439 15639.705897 
L 117.170439 15639.705897 
L 115.773922 15639.705897 
L 115.773922 15639.705897 
L 114.377406 15639.705897 
L 114.377406 15639.705897 
L 112.98089 15639.705897 
L 112.98089 15639.705897 
L 111.584373 15639.705897 
L 111.584373 15639.705897 
L 110.187857 15639.705897 
L 110.187857 15639.705897 
L 108.791341 15639.705897 
L 108.791341 15639.705897 
L 107.394824 15639.705897 
L 107.394824 15639.705897 
L 105.998308 15639.705897 
L 105.998308 15639.705897 
L 104.601791 15639.705897 
L 104.601791 15639.705897 
L 103.205275 15639.705897 
L 103.205275 15639.705897 
L 101.808759 15639.705897 
L 101.808759 15639.705897 
L 100.412242 15639.705897 
L 100.412242 15639.705897 
L 99.015726 15639.705897 
L 99.015726 15639.705897 
L 97.61921 15639.705897 
L 97.61921 15639.705897 
L 96.222693 15639.705897 
L 96.222693 15639.705897 
L 94.826177 15639.705897 
L 94.826177 15639.705897 
L 93.429661 15639.705897 
L 93.429661 15639.705897 
L 92.033144 15639.705897 
L 92.033144 15639.705897 
L 90.636628 15639.705897 
L 90.636628 15639.705897 
L 89.240112 15639.705897 
L 89.240112 15639.705897 
L 87.843595 15639.705897 
L 87.843595 15639.705897 
L 86.447079 15639.705897 
L 86.447079 15639.705897 
L 85.050562 15639.705897 
L 85.050562 15639.705897 
L 83.654046 15639.705897 
L 83.654046 15639.705897 
L 82.25753 15639.705897 
L 82.25753 15639.705897 
L 80.861013 15639.705897 
L 80.861013 15639.705897 
L 79.464497 15639.705897 
L 79.464497 15639.705897 
L 78.067981 15639.705897 
L 78.067981 15639.705897 
L 76.671464 15639.705897 
L 76.671464 15639.705897 
L 75.274948 15639.705897 
L 75.274948 15639.705897 
L 73.878432 15639.705897 
L 73.878432 15639.705897 
L 72.481915 15639.705897 
L 72.481915 15639.705897 
L 71.085399 15639.705897 
L 71.085399 15639.705897 
L 69.688883 15639.705897 
L 69.688883 15639.705897 
L 68.292366 15639.705897 
L 68.292366 15639.705897 
L 66.89585 15639.705897 
L 66.89585 15639.705897 
L 65.499333 15639.705897 
L 65.499333 15639.705897 
L 64.102817 15639.705897 
L 64.102817 15639.705897 
L 62.706301 15639.705897 
L 62.706301 15639.705897 
L 61.309784 15639.705897 
L 61.309784 15639.705897 
L 59.913268 15639.705897 
L 59.913268 15639.705897 
L 58.516752 15639.705897 
L 58.516752 15639.705897 
L 57.120235 15639.705897 
L 57.120235 15639.705897 
L 55.723719 15639.705897 
L 55.723719 15639.705897 
L 54.327203 15639.705897 
L 54.327203 15639.705897 
L 52.930686 15639.705897 
L 52.930686 15639.705897 
L 51.53417 15639.705897 
L 51.53417 15639.705897 
L 50.137654 15639.705897 
L 50.137654 15639.705897 
L 48.741137 15639.705897 
L 48.741137 15639.705897 
L 47.344621 15639.705897 
L 47.344621 15639.705897 
L 45.948104 15639.705897 
L 45.948104 15639.705897 
L 44.551588 15639.705897 
L 44.551588 15639.705897 
z
" style="fill:#fa8174;opacity:0.8;"/>
   </g>
   <g id="matplotlib.axis_5">
    <g id="xtick_5">
     <g id="line2d_13">
      <g>
       <use style="fill:#ffffff;stroke:#ffffff;stroke-width:0.8;" x="99.015726" xlink:href="#mbe42bd4469" y="186.328943"/>
      </g>
     </g>
     <g id="text_7">
      <!-- 200 -->
      <g style="fill:#ffffff;" transform="translate(90.592289 200.828943)scale(0.1 -0.1)">
       <use xlink:href="#Roboto-Regular-32"/>
       <use x="56.152344" xlink:href="#Roboto-Regular-30"/>
       <use x="112.304688" xlink:href="#Roboto-Regular-30"/>
      </g>
     </g>
    </g>
    <g id="xtick_6">
     <g id="line2d_14">
      <g>
       <use style="fill:#ffffff;stroke:#ffffff;stroke-width:0.8;" x="154.87638" xlink:href="#mbe42bd4469" y="186.328943"/>
      </g>
     </g>
     <g id="text_8">
      <!-- 400 -->
      <g style="fill:#ffffff;" transform="translate(146.452943 200.828943)scale(0.1 -0.1)">
       <use xlink:href="#Roboto-Regular-34"/>
       <use x="56.152344" xlink:href="#Roboto-Regular-30"/>
       <use x="112.304688" xlink:href="#Roboto-Regular-30"/>
      </g>
     </g>
    </g>
    <g id="text_9">
     <!-- S/N (per pixel) -->
     <g style="fill:#ffffff;" transform="translate(81.099448 214.882068)scale(0.1 -0.1)">
      <defs>
       <path d="M 416 1847 
Q 416 2553 605 3203 
Q 794 3853 1169 4384 
Q 1544 4916 1947 5134 
L 2066 4753 
Q 1609 4403 1317 3684 
Q 1025 2966 997 2075 
L 994 1809 
Q 994 603 1434 -284 
Q 1700 -816 2066 -1116 
L 1947 -1469 
Q 1531 -1238 1153 -694 
Q 416 369 416 1847 
z
" id="Roboto-Regular-28" transform="scale(0.015625)"/>
       <path d="M 1066 0 
L 488 0 
L 488 3381 
L 1066 3381 
L 1066 0 
z
M 441 4278 
Q 441 4419 527 4516 
Q 613 4613 781 4613 
Q 950 4613 1037 4516 
Q 1125 4419 1125 4278 
Q 1125 4138 1037 4044 
Q 950 3950 781 3950 
Q 613 3950 527 4044 
Q 441 4138 441 4278 
z
" id="Roboto-Regular-69" transform="scale(0.015625)"/>
       <path d="M 1572 2147 
L 2322 3381 
L 2997 3381 
L 1891 1709 
L 3031 0 
L 2363 0 
L 1581 1266 
L 800 0 
L 128 0 
L 1269 1709 
L 163 3381 
L 831 3381 
L 1572 2147 
z
" id="Roboto-Regular-78" transform="scale(0.015625)"/>
       <path d="M 1066 0 
L 488 0 
L 488 4800 
L 1066 4800 
L 1066 0 
z
" id="Roboto-Regular-6c" transform="scale(0.015625)"/>
       <path d="M 1772 1816 
Q 1772 1119 1589 480 
Q 1406 -159 1029 -700 
Q 653 -1241 241 -1469 
L 119 -1116 
Q 600 -747 892 29 
Q 1184 806 1191 1753 
L 1191 1853 
Q 1191 2509 1053 3073 
Q 916 3638 670 4084 
Q 425 4531 119 4781 
L 241 5134 
Q 653 4906 1026 4372 
Q 1400 3838 1586 3194 
Q 1772 2550 1772 1816 
z
" id="Roboto-Regular-29" transform="scale(0.015625)"/>
      </defs>
      <use xlink:href="#Roboto-Regular-53"/>
      <use x="59.326172" xlink:href="#Roboto-Regular-2f"/>
      <use x="100.537109" xlink:href="#Roboto-Regular-4e"/>
      <use x="171.826172" xlink:href="#Roboto-Regular-20"/>
      <use x="196.582031" xlink:href="#Roboto-Regular-28"/>
      <use x="230.761719" xlink:href="#Roboto-Regular-70"/>
      <use x="286.865234" xlink:href="#Roboto-Regular-65"/>
      <use x="339.84375" xlink:href="#Roboto-Regular-72"/>
      <use x="373.681641" xlink:href="#Roboto-Regular-20"/>
      <use x="398.4375" xlink:href="#Roboto-Regular-70"/>
      <use x="454.541016" xlink:href="#Roboto-Regular-69"/>
      <use x="478.808594" xlink:href="#Roboto-Regular-78"/>
      <use x="528.369141" xlink:href="#Roboto-Regular-65"/>
      <use x="581.347656" xlink:href="#Roboto-Regular-6c"/>
      <use x="605.615234" xlink:href="#Roboto-Regular-29"/>
     </g>
    </g>
   </g>
   <g id="matplotlib.axis_6">
    <g id="ytick_7">
     <g id="line2d_15">
      <g>
       <use style="fill:#ffffff;stroke:#ffffff;stroke-width:0.8;" x="43.434375" xlink:href="#mc9d5d6eea7" y="167.104359"/>
      </g>
     </g>
     <g id="text_10">
      <!-- $\mathdefault{10^{1}}$ -->
      <g style="fill:#ffffff;" transform="translate(20.834375 170.854359)scale(0.1 -0.1)">
       <use transform="translate(0 0.014063)" xlink:href="#Roboto-Regular-31"/>
       <use transform="translate(56.152344 0.014063)" xlink:href="#Roboto-Regular-30"/>
       <use transform="translate(113.22918 36.99375)scale(0.7)" xlink:href="#Roboto-Regular-31"/>
      </g>
     </g>
    </g>
    <g id="ytick_8">
     <g id="line2d_16">
      <g>
       <use style="fill:#ffffff;stroke:#ffffff;stroke-width:0.8;" x="43.434375" xlink:href="#mc9d5d6eea7" y="136.19007"/>
      </g>
     </g>
     <g id="text_11">
      <!-- $\mathdefault{10^{3}}$ -->
      <g style="fill:#ffffff;" transform="translate(20.834375 139.94007)scale(0.1 -0.1)">
       <use transform="translate(0 0.565625)" xlink:href="#Roboto-Regular-31"/>
       <use transform="translate(56.152344 0.565625)" xlink:href="#Roboto-Regular-30"/>
       <use transform="translate(113.22918 37.545313)scale(0.7)" xlink:href="#Roboto-Regular-33"/>
      </g>
     </g>
    </g>
    <g id="ytick_9">
     <g id="line2d_17">
      <g>
       <use style="fill:#ffffff;stroke:#ffffff;stroke-width:0.8;" x="43.434375" xlink:href="#mc9d5d6eea7" y="105.275781"/>
      </g>
     </g>
     <g id="text_12">
      <!-- $\mathdefault{10^{5}}$ -->
      <g style="fill:#ffffff;" transform="translate(20.834375 109.025781)scale(0.1 -0.1)">
       <use transform="translate(0 0.254688)" xlink:href="#Roboto-Regular-31"/>
       <use transform="translate(56.152344 0.254688)" xlink:href="#Roboto-Regular-30"/>
       <use transform="translate(113.22918 37.234375)scale(0.7)" xlink:href="#Roboto-Regular-35"/>
      </g>
     </g>
    </g>
    <g id="text_13">
     <!-- Number of spectra -->
     <g style="fill:#ffffff;" transform="translate(14.803125 186.494918)rotate(-90)scale(0.1 -0.1)">
      <use xlink:href="#Roboto-Regular-4e"/>
      <use x="71.289062" xlink:href="#Roboto-Regular-75"/>
      <use x="126.416016" xlink:href="#Roboto-Regular-6d"/>
      <use x="214.0625" xlink:href="#Roboto-Regular-62"/>
      <use x="270.166016" xlink:href="#Roboto-Regular-65"/>
      <use x="323.144531" xlink:href="#Roboto-Regular-72"/>
      <use x="356.982422" xlink:href="#Roboto-Regular-20"/>
      <use x="381.738281" xlink:href="#Roboto-Regular-6f"/>
      <use x="438.769531" xlink:href="#Roboto-Regular-66"/>
      <use x="473.486328" xlink:href="#Roboto-Regular-20"/>
      <use x="498.242188" xlink:href="#Roboto-Regular-73"/>
      <use x="549.804688" xlink:href="#Roboto-Regular-70"/>
      <use x="605.908203" xlink:href="#Roboto-Regular-65"/>
      <use x="658.886719" xlink:href="#Roboto-Regular-63"/>
      <use x="711.230469" xlink:href="#Roboto-Regular-74"/>
      <use x="743.896484" xlink:href="#Roboto-Regular-72"/>
      <use x="777.734375" xlink:href="#Roboto-Regular-61"/>
     </g>
    </g>
   </g>
   <g id="patch_22">
    <path clip-path="url(#p0af7f51fdd)" d="M 43.155072 225.37738 
L 43.155072 133.396976 
L 44.551588 133.396976 
L 44.551588 136.471102 
L 45.948104 136.471102 
L 45.948104 138.555704 
L 47.344621 138.555704 
L 47.344621 137.662896 
L 48.741137 137.662896 
L 48.741137 135.78626 
L 50.137654 135.78626 
L 50.137654 134.569722 
L 51.53417 134.569722 
L 51.53417 133.714326 
L 52.930686 133.714326 
L 52.930686 132.723434 
L 54.327203 132.723434 
L 54.327203 132.456451 
L 57.120235 132.514438 
L 57.120235 132.643802 
L 58.516752 132.643802 
L 58.516752 133.612961 
L 59.913268 133.612961 
L 59.913268 134.569722 
L 61.309784 134.569722 
L 61.309784 135.692107 
L 62.706301 135.692107 
L 62.706301 136.373812 
L 64.102817 136.373812 
L 64.102817 137.481453 
L 65.499333 137.481453 
L 65.499333 138.6422 
L 66.89585 138.6422 
L 66.89585 139.846798 
L 68.292366 139.846798 
L 68.292366 140.802977 
L 69.688883 140.802977 
L 69.688883 141.565349 
L 71.085399 141.565349 
L 71.085399 142.667773 
L 72.481915 142.667773 
L 72.481915 144.407902 
L 73.878432 144.407902 
L 73.878432 145.496198 
L 75.274948 145.496198 
L 75.274948 145.770234 
L 76.671464 145.770234 
L 76.671464 148.04576 
L 78.067981 148.04576 
L 78.067981 148.925346 
L 79.464497 148.925346 
L 79.464497 150.312338 
L 80.861013 150.312338 
L 80.861013 151.193025 
L 82.25753 151.193025 
L 82.25753 154.138147 
L 83.654046 154.138147 
L 83.654046 152.062581 
L 85.050562 152.062581 
L 85.050562 154.335601 
L 86.447079 154.335601 
L 86.447079 159.089614 
L 87.843595 159.089614 
L 87.843595 160.436707 
L 89.240112 160.436707 
L 89.240112 159.089614 
L 90.636628 159.089614 
L 90.636628 159.296183 
L 92.033144 159.296183 
L 92.033144 162.451295 
L 93.429661 162.451295 
L 93.429661 162.123769 
L 94.826177 162.123769 
L 94.826177 168.602311 
L 96.222693 168.602311 
L 96.222693 166.464546 
L 99.015726 166.464546 
L 99.015726 173.255375 
L 100.412242 173.255375 
L 100.412242 170.533507 
L 101.808759 170.533507 
L 101.808759 173.255375 
L 104.601791 173.255375 
L 104.601791 170.533507 
L 107.394824 170.533507 
L 107.394824 175.186571 
L 108.791341 175.186571 
L 108.791341 169.498701 
L 110.187857 169.498701 
L 110.187857 175.186571 
L 111.584373 175.186571 
L 111.584373 171.757423 
L 112.98089 171.757423 
L 112.98089 177.908439 
L 114.377406 177.908439 
L 114.377406 171.757423 
L 115.773922 171.757423 
L 115.773922 177.908439 
L 117.170439 177.908439 
L 117.170439 173.255375 
L 119.963471 173.255375 
L 119.963471 177.908439 
L 124.15302 177.908439 
L 124.15302 175.186571 
L 125.549537 175.186571 
L 125.549537 173.255375 
L 126.946053 173.255375 
L 126.946053 177.908439 
L 128.34257 177.908439 
L 128.34257 182.561503 
L 129.739086 182.561503 
L 129.739086 173.255375 
L 131.135602 173.255375 
L 131.135602 225.37738 
M 132.532119 225.37738 
L 132.532119 175.186571 
L 133.928635 175.186571 
L 133.928635 182.561503 
L 136.721668 182.561503 
L 136.721668 225.37738 
M 138.118184 225.37738 
L 138.118184 177.908439 
L 139.5147 177.908439 
L 139.5147 225.37738 
M 145.100766 225.37738 
L 145.100766 177.908439 
L 146.497282 177.908439 
L 146.497282 225.37738 
M 147.893799 225.37738 
L 147.893799 182.561503 
L 150.686831 182.561503 
L 150.686831 177.908439 
L 152.083348 177.908439 
L 152.083348 225.37738 
M 153.479864 225.37738 
L 153.479864 182.561503 
L 154.87638 182.561503 
L 154.87638 225.37738 
M 159.065929 225.37738 
L 159.065929 182.561503 
L 160.462446 182.561503 
L 160.462446 225.37738 
M 161.858962 225.37738 
L 161.858962 182.561503 
L 163.255478 182.561503 
L 163.255478 225.37738 
M 174.427609 225.37738 
L 174.427609 182.561503 
L 175.824126 182.561503 
L 175.824126 225.37738 
L 175.824126 225.37738 
" style="fill:none;stroke:#ffffff;stroke-linejoin:miter;"/>
   </g>
   <g id="line2d_18">
    <path clip-path="url(#p0af7f51fdd)" d="M 61.813622 186.328943 
L 61.813622 103.445268 
" style="fill:none;stroke:#ffffff;stroke-dasharray:5.55,2.4;stroke-dashoffset:0;stroke-width:1.5;"/>
   </g>
   <g id="patch_23">
    <path d="M 43.434375 186.328943 
L 43.434375 103.445268 
" style="fill:none;stroke:#ffffff;stroke-linecap:square;stroke-linejoin:miter;stroke-width:0.8;"/>
   </g>
   <g id="patch_24">
    <path d="M 182.806708 186.328943 
L 182.806708 103.445268 
" style="fill:none;stroke:#ffffff;stroke-linecap:square;stroke-linejoin:miter;stroke-width:0.8;"/>
   </g>
   <g id="patch_25">
    <path d="M 43.434375 186.328943 
L 182.806708 186.328943 
" style="fill:none;stroke:#ffffff;stroke-linecap:square;stroke-linejoin:miter;stroke-width:0.8;"/>
   </g>
   <g id="patch_26">
    <path d="M 43.434375 103.445268 
L 182.806708 103.445268 
" style="fill:none;stroke:#ffffff;stroke-linecap:square;stroke-linejoin:miter;stroke-width:0.8;"/>
   </g>
   <g id="patch_27">
    <path d="M 123.287958 130.295268 
L 178.806708 130.295268 
L 178.806708 107.445268 
L 123.287958 107.445268 
z
" style="fill:#ffffff;stroke:#000000;stroke-linejoin:miter;"/>
   </g>
   <g id="text_14">
    <g id="patch_28">
     <path d="M 122.487958 131.095268 
L 179.606708 131.095268 
L 179.606708 106.645268 
L 122.487958 106.645268 
z
" style="stroke:#000000;stroke-linejoin:miter;"/>
    </g>
    <!-- CCD 3 -->
    <g style="fill:#ffffff;" transform="translate(126.487958 116.645268)scale(0.08 -0.08)">
     <use xlink:href="#Roboto-Regular-43"/>
     <use x="65.087891" xlink:href="#Roboto-Regular-43"/>
     <use x="130.175781" xlink:href="#Roboto-Regular-44"/>
     <use x="195.751953" xlink:href="#Roboto-Regular-20"/>
     <use x="220.507812" xlink:href="#Roboto-Regular-33"/>
    </g>
    <!-- mean S/N=67 -->
    <g style="fill:#ffffff;" transform="translate(126.487958 125.470268)scale(0.08 -0.08)">
     <defs>
      <path d="M 2647 4553 
L 2647 4063 
L 2541 4063 
Q 1866 4050 1466 3662 
Q 1066 3275 1003 2572 
Q 1363 2984 1984 2984 
Q 2578 2984 2933 2565 
Q 3288 2147 3288 1484 
Q 3288 781 2905 359 
Q 2522 -63 1878 -63 
Q 1225 -63 819 439 
Q 413 941 413 1731 
L 413 1953 
Q 413 3209 948 3873 
Q 1484 4538 2544 4553 
L 2647 4553 
z
M 1888 2503 
Q 1591 2503 1341 2325 
Q 1091 2147 994 1878 
L 994 1666 
Q 994 1103 1247 759 
Q 1500 416 1878 416 
Q 2269 416 2492 703 
Q 2716 991 2716 1456 
Q 2716 1925 2489 2214 
Q 2263 2503 1888 2503 
z
" id="Roboto-Regular-36" transform="scale(0.015625)"/>
      <path d="M 3316 4225 
L 1431 0 
L 825 0 
L 2703 4075 
L 241 4075 
L 241 4550 
L 3316 4550 
L 3316 4225 
z
" id="Roboto-Regular-37" transform="scale(0.015625)"/>
     </defs>
     <use xlink:href="#Roboto-Regular-6d"/>
     <use x="87.646484" xlink:href="#Roboto-Regular-65"/>
     <use x="140.625" xlink:href="#Roboto-Regular-61"/>
     <use x="195.019531" xlink:href="#Roboto-Regular-6e"/>
     <use x="250.195312" xlink:href="#Roboto-Regular-20"/>
     <use x="274.951172" xlink:href="#Roboto-Regular-53"/>
     <use x="334.277344" xlink:href="#Roboto-Regular-2f"/>
     <use x="375.488281" xlink:href="#Roboto-Regular-4e"/>
     <use x="446.777344" xlink:href="#Roboto-Regular-3d"/>
     <use x="501.660156" xlink:href="#Roboto-Regular-36"/>
     <use x="557.8125" xlink:href="#Roboto-Regular-37"/>
    </g>
   </g>
  </g>
  <g id="axes_4">
   <g id="patch_29">
    <path d="M 192.307188 186.328943 
L 331.67952 186.328943 
L 331.67952 103.445268 
L 192.307188 103.445268 
z
"/>
   </g>
   <g id="patch_30">
    <path clip-path="url(#p6bd5460aa8)" d="M 192.027884 15639.705897 
L 192.027884 141.965781 
L 193.424401 141.965781 
L 193.424401 135.164861 
L 194.820917 135.164861 
L 194.820917 128.483351 
L 196.217433 128.483351 
L 196.217433 122.890775 
L 197.61395 122.890775 
L 197.61395 118.300963 
L 199.010466 118.300963 
L 199.010466 114.909301 
L 200.406982 114.909301 
L 200.406982 112.641724 
L 201.803499 112.641724 
L 201.803499 111.118158 
L 203.200015 111.118158 
L 203.200015 110.349928 
L 204.596531 110.349928 
L 204.596531 110.196591 
L 205.993048 110.196591 
L 205.993048 110.588114 
L 207.389564 110.588114 
L 207.389564 111.299295 
L 208.786081 111.299295 
L 208.786081 112.190065 
L 210.182597 112.190065 
L 210.182597 113.223524 
L 211.579113 113.223524 
L 211.579113 114.292853 
L 212.97563 114.292853 
L 212.97563 115.276968 
L 214.372146 115.276968 
L 214.372146 116.41854 
L 215.768662 116.41854 
L 215.768662 117.563564 
L 217.165179 117.563564 
L 217.165179 118.687578 
L 218.561695 118.687578 
L 218.561695 119.947626 
L 219.958211 119.947626 
L 219.958211 120.954027 
L 221.354728 120.954027 
L 221.354728 122.364785 
L 222.751244 122.364785 
L 222.751244 123.639225 
L 224.14776 123.639225 
L 224.14776 124.616834 
L 225.544277 124.616834 
L 225.544277 125.934062 
L 226.940793 125.934062 
L 226.940793 127.286823 
L 228.33731 127.286823 
L 228.33731 128.273685 
L 229.733826 128.273685 
L 229.733826 129.409013 
L 231.130342 129.409013 
L 231.130342 130.563858 
L 232.526859 130.563858 
L 232.526859 131.65894 
L 233.923375 131.65894 
L 233.923375 132.510557 
L 235.319891 132.510557 
L 235.319891 133.248085 
L 236.716408 133.248085 
L 236.716408 134.316178 
L 238.112924 134.316178 
L 238.112924 135.234366 
L 239.50944 135.234366 
L 239.50944 136.203509 
L 240.905957 136.203509 
L 240.905957 137.171386 
L 242.302473 137.171386 
L 242.302473 137.83221 
L 243.698989 137.83221 
L 243.698989 138.413975 
L 245.095506 138.413975 
L 245.095506 139.238625 
L 246.492022 139.238625 
L 246.492022 140.022693 
L 247.888539 140.022693 
L 247.888539 140.683926 
L 249.285055 140.683926 
L 249.285055 142.24114 
L 250.681571 142.24114 
L 250.681571 143.123372 
L 252.078088 143.123372 
L 252.078088 143.673278 
L 253.474604 143.673278 
L 253.474604 143.63247 
L 254.87112 143.63247 
L 254.87112 144.161322 
L 256.267637 144.161322 
L 256.267637 144.78355 
L 257.664153 144.78355 
L 257.664153 146.055935 
L 259.060669 146.055935 
L 259.060669 146.114564 
L 260.457186 146.114564 
L 260.457186 147.664239 
L 261.853702 147.664239 
L 261.853702 148.085132 
L 263.250218 148.085132 
L 263.250218 148.085132 
L 264.646735 148.085132 
L 264.646735 149.632627 
L 266.043251 149.632627 
L 266.043251 150.257538 
L 267.439768 150.257538 
L 267.439768 151.51428 
L 268.836284 151.51428 
L 268.836284 150.826773 
L 270.2328 150.826773 
L 270.2328 151.647214 
L 271.629317 151.647214 
L 271.629317 152.582074 
L 273.025833 152.582074 
L 273.025833 152.582074 
L 274.422349 152.582074 
L 274.422349 152.81764 
L 275.818866 152.81764 
L 275.818866 153.852447 
L 277.215382 153.852447 
L 277.215382 153.852447 
L 278.611898 153.852447 
L 278.611898 155.539508 
L 280.008415 155.539508 
L 280.008415 156.300279 
L 281.404931 156.300279 
L 281.404931 156.715645 
L 282.801447 156.715645 
L 282.801447 156.300279 
L 284.197964 156.300279 
L 284.197964 157.798231 
L 285.59448 157.798231 
L 285.59448 157.798231 
L 286.990997 157.798231 
L 286.990997 157.312745 
L 288.387513 157.312745 
L 288.387513 162.123769 
L 289.784029 162.123769 
L 289.784029 160.436707 
L 291.180546 160.436707 
L 291.180546 158.889212 
L 292.577062 158.889212 
L 292.577062 162.451295 
L 293.973578 162.451295 
L 293.973578 162.795624 
L 295.370095 162.795624 
L 295.370095 165.880443 
L 296.766611 165.880443 
L 296.766611 161.227379 
L 298.163127 161.227379 
L 298.163127 161.811482 
L 299.559644 161.811482 
L 299.559644 165.34312 
L 300.95616 165.34312 
L 300.95616 163.949247 
L 302.352676 163.949247 
L 302.352676 165.34312 
L 303.749193 165.34312 
L 303.749193 163.158575 
L 305.145709 163.158575 
L 305.145709 166.464546 
L 306.542226 166.464546 
L 306.542226 168.602311 
L 307.938742 168.602311 
L 307.938742 164.845637 
L 309.335258 164.845637 
L 309.335258 167.104359 
L 310.731775 167.104359 
L 310.731775 169.498701 
L 312.128291 169.498701 
L 312.128291 171.757423 
L 313.524807 171.757423 
L 313.524807 167.104359 
L 314.921324 167.104359 
L 314.921324 170.533507 
L 316.31784 170.533507 
L 316.31784 170.533507 
L 317.714356 170.533507 
L 317.714356 169.498701 
L 319.110873 169.498701 
L 319.110873 165.880443 
L 320.507389 165.880443 
L 320.507389 170.533507 
L 321.903905 170.533507 
L 321.903905 182.561503 
L 323.300422 182.561503 
L 323.300422 177.908439 
L 324.696938 177.908439 
L 324.696938 173.255375 
L 326.093455 173.255375 
L 326.093455 171.757423 
L 327.489971 171.757423 
L 327.489971 167.811639 
L 328.886487 167.811639 
L 328.886487 173.255375 
L 330.283004 173.255375 
L 330.283004 177.908439 
L 331.67952 177.908439 
L 331.67952 177.908439 
L 333.076036 177.908439 
L 333.076036 173.255375 
L 334.472553 173.255375 
L 334.472553 177.908439 
L 335.869069 177.908439 
L 335.869069 175.186571 
L 337.265585 175.186571 
L 337.265585 177.908439 
L 338.662102 177.908439 
L 338.662102 177.908439 
L 340.058618 177.908439 
L 340.058618 177.908439 
L 341.455135 177.908439 
L 341.455135 15639.705897 
L 342.851651 15639.705897 
L 342.851651 15639.705897 
L 344.248167 15639.705897 
L 344.248167 15639.705897 
L 342.851651 15639.705897 
L 342.851651 15639.705897 
L 341.455135 15639.705897 
L 341.455135 15639.705897 
L 340.058618 15639.705897 
L 340.058618 15639.705897 
L 338.662102 15639.705897 
L 338.662102 15639.705897 
L 337.265585 15639.705897 
L 337.265585 15639.705897 
L 335.869069 15639.705897 
L 335.869069 15639.705897 
L 334.472553 15639.705897 
L 334.472553 15639.705897 
L 333.076036 15639.705897 
L 333.076036 15639.705897 
L 331.67952 15639.705897 
L 331.67952 15639.705897 
L 330.283004 15639.705897 
L 330.283004 15639.705897 
L 328.886487 15639.705897 
L 328.886487 15639.705897 
L 327.489971 15639.705897 
L 327.489971 15639.705897 
L 326.093455 15639.705897 
L 326.093455 15639.705897 
L 324.696938 15639.705897 
L 324.696938 15639.705897 
L 323.300422 15639.705897 
L 323.300422 15639.705897 
L 321.903905 15639.705897 
L 321.903905 15639.705897 
L 320.507389 15639.705897 
L 320.507389 15639.705897 
L 319.110873 15639.705897 
L 319.110873 15639.705897 
L 317.714356 15639.705897 
L 317.714356 15639.705897 
L 316.31784 15639.705897 
L 316.31784 15639.705897 
L 314.921324 15639.705897 
L 314.921324 15639.705897 
L 313.524807 15639.705897 
L 313.524807 15639.705897 
L 312.128291 15639.705897 
L 312.128291 15639.705897 
L 310.731775 15639.705897 
L 310.731775 15639.705897 
L 309.335258 15639.705897 
L 309.335258 15639.705897 
L 307.938742 15639.705897 
L 307.938742 15639.705897 
L 306.542226 15639.705897 
L 306.542226 15639.705897 
L 305.145709 15639.705897 
L 305.145709 15639.705897 
L 303.749193 15639.705897 
L 303.749193 15639.705897 
L 302.352676 15639.705897 
L 302.352676 15639.705897 
L 300.95616 15639.705897 
L 300.95616 15639.705897 
L 299.559644 15639.705897 
L 299.559644 15639.705897 
L 298.163127 15639.705897 
L 298.163127 15639.705897 
L 296.766611 15639.705897 
L 296.766611 15639.705897 
L 295.370095 15639.705897 
L 295.370095 15639.705897 
L 293.973578 15639.705897 
L 293.973578 15639.705897 
L 292.577062 15639.705897 
L 292.577062 15639.705897 
L 291.180546 15639.705897 
L 291.180546 15639.705897 
L 289.784029 15639.705897 
L 289.784029 15639.705897 
L 288.387513 15639.705897 
L 288.387513 15639.705897 
L 286.990997 15639.705897 
L 286.990997 15639.705897 
L 285.59448 15639.705897 
L 285.59448 15639.705897 
L 284.197964 15639.705897 
L 284.197964 15639.705897 
L 282.801447 15639.705897 
L 282.801447 15639.705897 
L 281.404931 15639.705897 
L 281.404931 15639.705897 
L 280.008415 15639.705897 
L 280.008415 15639.705897 
L 278.611898 15639.705897 
L 278.611898 15639.705897 
L 277.215382 15639.705897 
L 277.215382 15639.705897 
L 275.818866 15639.705897 
L 275.818866 15639.705897 
L 274.422349 15639.705897 
L 274.422349 15639.705897 
L 273.025833 15639.705897 
L 273.025833 15639.705897 
L 271.629317 15639.705897 
L 271.629317 15639.705897 
L 270.2328 15639.705897 
L 270.2328 15639.705897 
L 268.836284 15639.705897 
L 268.836284 15639.705897 
L 267.439768 15639.705897 
L 267.439768 15639.705897 
L 266.043251 15639.705897 
L 266.043251 15639.705897 
L 264.646735 15639.705897 
L 264.646735 15639.705897 
L 263.250218 15639.705897 
L 263.250218 15639.705897 
L 261.853702 15639.705897 
L 261.853702 15639.705897 
L 260.457186 15639.705897 
L 260.457186 15639.705897 
L 259.060669 15639.705897 
L 259.060669 15639.705897 
L 257.664153 15639.705897 
L 257.664153 15639.705897 
L 256.267637 15639.705897 
L 256.267637 15639.705897 
L 254.87112 15639.705897 
L 254.87112 15639.705897 
L 253.474604 15639.705897 
L 253.474604 15639.705897 
L 252.078088 15639.705897 
L 252.078088 15639.705897 
L 250.681571 15639.705897 
L 250.681571 15639.705897 
L 249.285055 15639.705897 
L 249.285055 15639.705897 
L 247.888539 15639.705897 
L 247.888539 15639.705897 
L 246.492022 15639.705897 
L 246.492022 15639.705897 
L 245.095506 15639.705897 
L 245.095506 15639.705897 
L 243.698989 15639.705897 
L 243.698989 15639.705897 
L 242.302473 15639.705897 
L 242.302473 15639.705897 
L 240.905957 15639.705897 
L 240.905957 15639.705897 
L 239.50944 15639.705897 
L 239.50944 15639.705897 
L 238.112924 15639.705897 
L 238.112924 15639.705897 
L 236.716408 15639.705897 
L 236.716408 15639.705897 
L 235.319891 15639.705897 
L 235.319891 15639.705897 
L 233.923375 15639.705897 
L 233.923375 15639.705897 
L 232.526859 15639.705897 
L 232.526859 15639.705897 
L 231.130342 15639.705897 
L 231.130342 15639.705897 
L 229.733826 15639.705897 
L 229.733826 15639.705897 
L 228.33731 15639.705897 
L 228.33731 15639.705897 
L 226.940793 15639.705897 
L 226.940793 15639.705897 
L 225.544277 15639.705897 
L 225.544277 15639.705897 
L 224.14776 15639.705897 
L 224.14776 15639.705897 
L 222.751244 15639.705897 
L 222.751244 15639.705897 
L 221.354728 15639.705897 
L 221.354728 15639.705897 
L 219.958211 15639.705897 
L 219.958211 15639.705897 
L 218.561695 15639.705897 
L 218.561695 15639.705897 
L 217.165179 15639.705897 
L 217.165179 15639.705897 
L 215.768662 15639.705897 
L 215.768662 15639.705897 
L 214.372146 15639.705897 
L 214.372146 15639.705897 
L 212.97563 15639.705897 
L 212.97563 15639.705897 
L 211.579113 15639.705897 
L 211.579113 15639.705897 
L 210.182597 15639.705897 
L 210.182597 15639.705897 
L 208.786081 15639.705897 
L 208.786081 15639.705897 
L 207.389564 15639.705897 
L 207.389564 15639.705897 
L 205.993048 15639.705897 
L 205.993048 15639.705897 
L 204.596531 15639.705897 
L 204.596531 15639.705897 
L 203.200015 15639.705897 
L 203.200015 15639.705897 
L 201.803499 15639.705897 
L 201.803499 15639.705897 
L 200.406982 15639.705897 
L 200.406982 15639.705897 
L 199.010466 15639.705897 
L 199.010466 15639.705897 
L 197.61395 15639.705897 
L 197.61395 15639.705897 
L 196.217433 15639.705897 
L 196.217433 15639.705897 
L 194.820917 15639.705897 
L 194.820917 15639.705897 
L 193.424401 15639.705897 
L 193.424401 15639.705897 
z
" style="fill:#bfbbd9;opacity:0.8;"/>
   </g>
   <g id="matplotlib.axis_7">
    <g id="xtick_7">
     <g id="line2d_19">
      <g>
       <use style="fill:#ffffff;stroke:#ffffff;stroke-width:0.8;" x="247.888539" xlink:href="#mbe42bd4469" y="186.328943"/>
      </g>
     </g>
     <g id="text_15">
      <!-- 200 -->
      <g style="fill:#ffffff;" transform="translate(239.465101 200.828943)scale(0.1 -0.1)">
       <use xlink:href="#Roboto-Regular-32"/>
       <use x="56.152344" xlink:href="#Roboto-Regular-30"/>
       <use x="112.304688" xlink:href="#Roboto-Regular-30"/>
      </g>
     </g>
    </g>
    <g id="xtick_8">
     <g id="line2d_20">
      <g>
       <use style="fill:#ffffff;stroke:#ffffff;stroke-width:0.8;" x="303.749193" xlink:href="#mbe42bd4469" y="186.328943"/>
      </g>
     </g>
     <g id="text_16">
      <!-- 400 -->
      <g style="fill:#ffffff;" transform="translate(295.325755 200.828943)scale(0.1 -0.1)">
       <use xlink:href="#Roboto-Regular-34"/>
       <use x="56.152344" xlink:href="#Roboto-Regular-30"/>
       <use x="112.304688" xlink:href="#Roboto-Regular-30"/>
      </g>
     </g>
    </g>
    <g id="text_17">
     <!-- S/N (per pixel) -->
     <g style="fill:#ffffff;" transform="translate(229.97226 214.882068)scale(0.1 -0.1)">
      <use xlink:href="#Roboto-Regular-53"/>
      <use x="59.326172" xlink:href="#Roboto-Regular-2f"/>
      <use x="100.537109" xlink:href="#Roboto-Regular-4e"/>
      <use x="171.826172" xlink:href="#Roboto-Regular-20"/>
      <use x="196.582031" xlink:href="#Roboto-Regular-28"/>
      <use x="230.761719" xlink:href="#Roboto-Regular-70"/>
      <use x="286.865234" xlink:href="#Roboto-Regular-65"/>
      <use x="339.84375" xlink:href="#Roboto-Regular-72"/>
      <use x="373.681641" xlink:href="#Roboto-Regular-20"/>
      <use x="398.4375" xlink:href="#Roboto-Regular-70"/>
      <use x="454.541016" xlink:href="#Roboto-Regular-69"/>
      <use x="478.808594" xlink:href="#Roboto-Regular-78"/>
      <use x="528.369141" xlink:href="#Roboto-Regular-65"/>
      <use x="581.347656" xlink:href="#Roboto-Regular-6c"/>
      <use x="605.615234" xlink:href="#Roboto-Regular-29"/>
     </g>
    </g>
   </g>
   <g id="matplotlib.axis_8">
    <g id="ytick_10">
     <g id="line2d_21">
      <g>
       <use style="fill:#ffffff;stroke:#ffffff;stroke-width:0.8;" x="192.307188" xlink:href="#mc9d5d6eea7" y="167.104359"/>
      </g>
     </g>
    </g>
    <g id="ytick_11">
     <g id="line2d_22">
      <g>
       <use style="fill:#ffffff;stroke:#ffffff;stroke-width:0.8;" x="192.307188" xlink:href="#mc9d5d6eea7" y="136.19007"/>
      </g>
     </g>
    </g>
    <g id="ytick_12">
     <g id="line2d_23">
      <g>
       <use style="fill:#ffffff;stroke:#ffffff;stroke-width:0.8;" x="192.307188" xlink:href="#mc9d5d6eea7" y="105.275781"/>
      </g>
     </g>
    </g>
   </g>
   <g id="patch_31">
    <path clip-path="url(#p6bd5460aa8)" d="M 192.027884 225.37738 
L 192.027884 130.815308 
L 193.424401 130.815308 
L 193.424401 130.400364 
L 194.820917 130.400364 
L 194.820917 128.943911 
L 196.217433 128.943911 
L 196.217433 127.865258 
L 197.61395 127.865258 
L 197.61395 127.429101 
L 199.010466 127.429101 
L 199.010466 127.740174 
L 200.406982 127.740174 
L 200.406982 128.887127 
L 201.803499 128.887127 
L 201.803499 130.111948 
L 203.200015 130.111948 
L 203.200015 131.142684 
L 204.596531 131.142684 
L 204.596531 132.62404 
L 205.993048 132.62404 
L 205.993048 133.878809 
L 207.389564 133.878809 
L 207.389564 135.56859 
L 208.786081 135.56859 
L 208.786081 136.677234 
L 210.182597 136.677234 
L 210.182597 138.969242 
L 211.579113 138.969242 
L 211.579113 139.766264 
L 212.97563 139.766264 
L 212.97563 141.047605 
L 214.372146 141.047605 
L 214.372146 142.632627 
L 215.768662 142.632627 
L 215.768662 144.616612 
L 217.165179 144.616612 
L 217.165179 145.798263 
L 218.561695 145.798263 
L 218.561695 147.664239 
L 219.958211 147.664239 
L 219.958211 148.492102 
L 221.354728 148.492102 
L 221.354728 150.536124 
L 222.751244 150.536124 
L 222.751244 153.852447 
L 224.14776 153.852447 
L 224.14776 154.43655 
L 225.544277 154.43655 
L 225.544277 153.145166 
L 226.940793 153.145166 
L 226.940793 154.856246 
L 228.33731 154.856246 
L 228.33731 156.574315 
L 229.733826 156.574315 
L 229.733826 157.63247 
L 231.130342 157.63247 
L 231.130342 161.227379 
L 232.526859 161.227379 
L 232.526859 158.694621 
L 233.923375 158.694621 
L 233.923375 162.795624 
L 236.716408 162.795624 
L 236.716408 163.949247 
L 238.112924 163.949247 
L 238.112924 167.104359 
L 239.50944 167.104359 
L 239.50944 167.811639 
L 240.905957 167.811639 
L 240.905957 167.104359 
L 242.302473 167.104359 
L 242.302473 165.880443 
L 243.698989 165.880443 
L 243.698989 168.602311 
L 246.492022 168.602311 
L 246.492022 171.757423 
L 247.888539 171.757423 
L 247.888539 175.186571 
L 250.681571 175.186571 
L 250.681571 173.255375 
L 252.078088 173.255375 
L 252.078088 182.561503 
L 253.474604 182.561503 
L 253.474604 170.533507 
L 254.87112 170.533507 
L 254.87112 175.186571 
L 256.267637 175.186571 
L 256.267637 182.561503 
L 260.457186 182.561503 
L 260.457186 175.186571 
L 261.853702 175.186571 
L 261.853702 182.561503 
L 264.646735 182.561503 
L 264.646735 225.37738 
M 268.836284 225.37738 
L 268.836284 171.757423 
L 270.2328 171.757423 
L 270.2328 225.37738 
M 271.629317 225.37738 
L 271.629317 177.908439 
L 273.025833 177.908439 
L 273.025833 225.37738 
M 282.801447 225.37738 
L 282.801447 182.561503 
L 285.59448 182.561503 
L 285.59448 225.37738 
M 286.990997 225.37738 
L 286.990997 182.561503 
L 289.784029 182.561503 
L 289.784029 225.37738 
M 295.370095 225.37738 
L 295.370095 182.561503 
L 298.163127 182.561503 
L 298.163127 225.37738 
M 303.749193 225.37738 
L 303.749193 182.561503 
L 305.145709 182.561503 
L 305.145709 225.37738 
L 305.145709 225.37738 
" style="fill:none;stroke:#ffffff;stroke-linejoin:miter;"/>
   </g>
   <g id="line2d_24">
    <path clip-path="url(#p6bd5460aa8)" d="M 209.549223 186.328943 
L 209.549223 103.445268 
" style="fill:none;stroke:#ffffff;stroke-dasharray:5.55,2.4;stroke-dashoffset:0;stroke-width:1.5;"/>
   </g>
   <g id="patch_32">
    <path d="M 192.307188 186.328943 
L 192.307188 103.445268 
" style="fill:none;stroke:#ffffff;stroke-linecap:square;stroke-linejoin:miter;stroke-width:0.8;"/>
   </g>
   <g id="patch_33">
    <path d="M 331.67952 186.328943 
L 331.67952 103.445268 
" style="fill:none;stroke:#ffffff;stroke-linecap:square;stroke-linejoin:miter;stroke-width:0.8;"/>
   </g>
   <g id="patch_34">
    <path d="M 192.307188 186.328943 
L 331.67952 186.328943 
" style="fill:none;stroke:#ffffff;stroke-linecap:square;stroke-linejoin:miter;stroke-width:0.8;"/>
   </g>
   <g id="patch_35">
    <path d="M 192.307188 103.445268 
L 331.67952 103.445268 
" style="fill:none;stroke:#ffffff;stroke-linecap:square;stroke-linejoin:miter;stroke-width:0.8;"/>
   </g>
   <g id="patch_36">
    <path d="M 272.16077 130.295268 
L 327.67952 130.295268 
L 327.67952 107.445268 
L 272.16077 107.445268 
z
" style="fill:#ffffff;stroke:#000000;stroke-linejoin:miter;"/>
   </g>
   <g id="text_18">
    <g id="patch_37">
     <path d="M 271.36077 131.095268 
L 328.47952 131.095268 
L 328.47952 106.645268 
L 271.36077 106.645268 
z
" style="stroke:#000000;stroke-linejoin:miter;"/>
    </g>
    <!-- CCD 4 -->
    <g style="fill:#ffffff;" transform="translate(275.36077 116.645268)scale(0.08 -0.08)">
     <use xlink:href="#Roboto-Regular-43"/>
     <use x="65.087891" xlink:href="#Roboto-Regular-43"/>
     <use x="130.175781" xlink:href="#Roboto-Regular-44"/>
     <use x="195.751953" xlink:href="#Roboto-Regular-20"/>
     <use x="220.507812" xlink:href="#Roboto-Regular-34"/>
    </g>
    <!-- mean S/N=63 -->
    <g style="fill:#ffffff;" transform="translate(275.36077 125.470268)scale(0.08 -0.08)">
     <use xlink:href="#Roboto-Regular-6d"/>
     <use x="87.646484" xlink:href="#Roboto-Regular-65"/>
     <use x="140.625" xlink:href="#Roboto-Regular-61"/>
     <use x="195.019531" xlink:href="#Roboto-Regular-6e"/>
     <use x="250.195312" xlink:href="#Roboto-Regular-20"/>
     <use x="274.951172" xlink:href="#Roboto-Regular-53"/>
     <use x="334.277344" xlink:href="#Roboto-Regular-2f"/>
     <use x="375.488281" xlink:href="#Roboto-Regular-4e"/>
     <use x="446.777344" xlink:href="#Roboto-Regular-3d"/>
     <use x="501.660156" xlink:href="#Roboto-Regular-36"/>
     <use x="557.8125" xlink:href="#Roboto-Regular-33"/>
    </g>
   </g>
  </g>
 </g>
 <defs>
  <clipPath id="p8979e180b4">
   <rect height="82.883675" width="139.372333" x="43.434375" y="9.119487"/>
  </clipPath>
  <clipPath id="pc76655652a">
   <rect height="82.883675" width="139.372332" x="192.307188" y="9.119487"/>
  </clipPath>
  <clipPath id="p0af7f51fdd">
   <rect height="82.883675" width="139.372333" x="43.434375" y="103.445268"/>
  </clipPath>
  <clipPath id="p6bd5460aa8">
   <rect height="82.883675" width="139.372332" x="192.307188" y="103.445268"/>
  </clipPath>
 </defs>
</svg>
