<?xml version="1.0" encoding="utf-8" standalone="no"?>
<!DOCTYPE svg PUBLIC "-//W3C//DTD SVG 1.1//EN"
  "http://www.w3.org/Graphics/SVG/1.1/DTD/svg11.dtd">
<svg height="224.396059pt" version="1.1" viewBox="0 0 339.59952 224.396059" width="339.59952pt" xmlns="http://www.w3.org/2000/svg" xmlns:xlink="http://www.w3.org/1999/xlink">
 <metadata>
  <rdf:RDF xmlns:cc="http://creativecommons.org/ns#" xmlns:dc="http://purl.org/dc/elements/1.1/" xmlns:rdf="http://www.w3.org/1999/02/22-rdf-syntax-ns#">
   <cc:Work>
    <dc:type rdf:resource="http://purl.org/dc/dcmitype/StillImage"/>
    <dc:date>2021-08-12T14:03:11.963172</dc:date>
    <dc:format>image/svg+xml</dc:format>
    <dc:creator>
     <cc:Agent>
      <dc:title>Matplotlib v3.4.2, https://matplotlib.org/</dc:title>
     </cc:Agent>
    </dc:creator>
   </cc:Work>
  </rdf:RDF>
 </metadata>
 <defs>
  <style type="text/css">*{stroke-linecap:butt;stroke-linejoin:round;}</style>
 </defs>
 <g id="figure_1">
  <g id="patch_1">
   <path d="M 0 224.396059 
L 339.59952 224.396059 
L 339.59952 0 
L 0 0 
z
"/>
  </g>
  <g id="axes_1">
   <g id="patch_2">
    <path d="M 43.434375 92.021841 
L 183.166707 92.021841 
L 183.166707 9.275306 
L 43.434375 9.275306 
z
"/>
   </g>
   <g id="patch_3">
    <path clip-path="url(#p26db9190a8)" d="M 43.15435 15550.387561 
L 43.15435 29.057425 
L 44.554474 29.057425 
L 44.554474 22.195246 
L 45.954597 22.195246 
L 45.954597 17.466552 
L 47.354721 17.466552 
L 47.354721 14.74357 
L 48.754845 14.74357 
L 48.754845 13.39673 
L 50.154968 13.39673 
L 50.154968 13.036512 
L 51.555092 13.036512 
L 51.555092 13.657519 
L 52.955215 13.657519 
L 52.955215 14.790874 
L 54.355339 14.790874 
L 54.355339 16.404781 
L 55.755462 16.404781 
L 55.755462 18.186832 
L 57.155586 18.186832 
L 57.155586 20.042667 
L 58.55571 20.042667 
L 58.55571 21.836593 
L 59.955833 21.836593 
L 59.955833 23.896688 
L 61.355957 23.896688 
L 61.355957 25.748342 
L 62.75608 25.748342 
L 62.75608 28.038521 
L 64.156204 28.038521 
L 64.156204 30.1633 
L 65.556327 30.1633 
L 65.556327 32.664912 
L 66.956451 32.664912 
L 66.956451 34.962638 
L 68.356575 34.962638 
L 68.356575 37.162853 
L 69.756698 37.162853 
L 69.756698 39.214477 
L 71.156822 39.214477 
L 71.156822 41.053548 
L 72.556945 41.053548 
L 72.556945 43.125479 
L 73.957069 43.125479 
L 73.957069 44.756688 
L 75.357192 44.756688 
L 75.357192 45.684384 
L 76.757316 45.684384 
L 76.757316 47.557246 
L 78.15744 47.557246 
L 78.15744 48.336443 
L 79.557563 48.336443 
L 79.557563 48.866619 
L 80.957687 48.866619 
L 80.957687 49.782348 
L 82.35781 49.782348 
L 82.35781 51.541974 
L 83.757934 51.541974 
L 83.757934 52.681817 
L 85.158057 52.681817 
L 85.158057 53.655682 
L 86.558181 53.655682 
L 86.558181 54.307355 
L 87.958305 54.307355 
L 87.958305 55.125068 
L 89.358428 55.125068 
L 89.358428 55.837946 
L 90.758552 55.837946 
L 90.758552 57.336381 
L 92.158675 57.336381 
L 92.158675 58.349174 
L 93.558799 58.349174 
L 93.558799 58.507184 
L 94.958922 58.507184 
L 94.958922 61.857968 
L 96.359046 61.857968 
L 96.359046 61.350926 
L 97.75917 61.350926 
L 97.75917 61.990945 
L 99.159293 61.990945 
L 99.159293 63.659392 
L 100.559417 63.659392 
L 100.559417 64.386059 
L 101.95954 64.386059 
L 101.95954 67.816312 
L 103.359664 67.816312 
L 103.359664 65.421198 
L 104.759787 65.421198 
L 104.759787 70.075762 
L 106.159911 70.075762 
L 106.159911 68.851452 
L 107.560035 68.851452 
L 107.560035 70.075762 
L 108.960158 70.075762 
L 108.960158 68.488384 
L 110.360282 68.488384 
L 110.360282 71.036701 
L 111.760405 71.036701 
L 111.760405 75.193621 
L 113.160529 75.193621 
L 113.160529 77.453072 
L 114.560652 77.453072 
L 114.560652 77.453072 
L 115.960776 77.453072 
L 115.960776 76.228761 
L 117.3609 76.228761 
L 117.3609 72.158489 
L 118.761023 72.158489 
L 118.761023 76.228761 
L 120.161147 76.228761 
L 120.161147 83.606071 
L 121.56127 83.606071 
L 121.56127 76.228761 
L 122.961394 76.228761 
L 122.961394 88.260635 
L 124.361517 88.260635 
L 124.361517 83.606071 
L 125.761641 83.606071 
L 125.761641 88.260635 
L 127.161765 88.260635 
L 127.161765 88.260635 
L 128.561888 88.260635 
L 128.561888 80.883325 
L 129.962012 80.883325 
L 129.962012 88.260635 
L 131.362135 88.260635 
L 131.362135 15550.387561 
L 132.762259 15550.387561 
L 132.762259 88.260635 
L 134.162382 88.260635 
L 134.162382 88.260635 
L 135.562506 88.260635 
L 135.562506 88.260635 
L 136.96263 88.260635 
L 136.96263 80.883325 
L 138.362753 80.883325 
L 138.362753 88.260635 
L 139.762877 88.260635 
L 139.762877 88.260635 
L 141.163 88.260635 
L 141.163 88.260635 
L 142.563124 88.260635 
L 142.563124 83.606071 
L 143.963247 83.606071 
L 143.963247 88.260635 
L 145.363371 88.260635 
L 145.363371 15550.387561 
L 146.763495 15550.387561 
L 146.763495 88.260635 
L 148.163618 88.260635 
L 148.163618 15550.387561 
L 149.563742 15550.387561 
L 149.563742 15550.387561 
L 150.963865 15550.387561 
L 150.963865 15550.387561 
L 152.363989 15550.387561 
L 152.363989 15550.387561 
L 153.764112 15550.387561 
L 153.764112 15550.387561 
L 155.164236 15550.387561 
L 155.164236 15550.387561 
L 156.56436 15550.387561 
L 156.56436 15550.387561 
L 157.964483 15550.387561 
L 157.964483 15550.387561 
L 159.364607 15550.387561 
L 159.364607 15550.387561 
L 160.76473 15550.387561 
L 160.76473 83.606071 
L 162.164854 83.606071 
L 162.164854 15550.387561 
L 163.564977 15550.387561 
L 163.564977 15550.387561 
L 164.965101 15550.387561 
L 164.965101 15550.387561 
L 166.365225 15550.387561 
L 166.365225 15550.387561 
L 167.765348 15550.387561 
L 167.765348 15550.387561 
L 169.165472 15550.387561 
L 169.165472 15550.387561 
L 170.565595 15550.387561 
L 170.565595 15550.387561 
L 171.965719 15550.387561 
L 171.965719 83.606071 
L 173.365842 83.606071 
L 173.365842 15550.387561 
L 174.765966 15550.387561 
L 174.765966 15550.387561 
L 176.16609 15550.387561 
L 176.16609 15550.387561 
L 177.566213 15550.387561 
L 177.566213 15550.387561 
L 178.966337 15550.387561 
L 178.966337 88.260635 
L 180.36646 88.260635 
L 180.36646 15550.387561 
L 181.766584 15550.387561 
L 181.766584 88.260635 
L 183.166708 88.260635 
L 183.166708 15550.387561 
L 184.566831 15550.387561 
L 184.566831 15550.387561 
L 185.966955 15550.387561 
L 185.966955 15550.387561 
L 187.367078 15550.387561 
L 187.367078 88.260635 
L 188.767202 88.260635 
L 188.767202 15550.387561 
L 190.167325 15550.387561 
L 190.167325 15550.387561 
L 191.567449 15550.387561 
L 191.567449 15550.387561 
L 192.967573 15550.387561 
L 192.967573 88.260635 
L 194.367696 88.260635 
L 194.367696 88.260635 
L 195.76782 88.260635 
L 195.76782 15550.387561 
L 194.367696 15550.387561 
L 194.367696 15550.387561 
L 192.967573 15550.387561 
L 192.967573 15550.387561 
L 191.567449 15550.387561 
L 191.567449 15550.387561 
L 190.167325 15550.387561 
L 190.167325 15550.387561 
L 188.767202 15550.387561 
L 188.767202 15550.387561 
L 187.367078 15550.387561 
L 187.367078 15550.387561 
L 185.966955 15550.387561 
L 185.966955 15550.387561 
L 184.566831 15550.387561 
L 184.566831 15550.387561 
L 183.166708 15550.387561 
L 183.166708 15550.387561 
L 181.766584 15550.387561 
L 181.766584 15550.387561 
L 180.36646 15550.387561 
L 180.36646 15550.387561 
L 178.966337 15550.387561 
L 178.966337 15550.387561 
L 177.566213 15550.387561 
L 177.566213 15550.387561 
L 176.16609 15550.387561 
L 176.16609 15550.387561 
L 174.765966 15550.387561 
L 174.765966 15550.387561 
L 173.365842 15550.387561 
L 173.365842 15550.387561 
L 171.965719 15550.387561 
L 171.965719 15550.387561 
L 170.565595 15550.387561 
L 170.565595 15550.387561 
L 169.165472 15550.387561 
L 169.165472 15550.387561 
L 167.765348 15550.387561 
L 167.765348 15550.387561 
L 166.365225 15550.387561 
L 166.365225 15550.387561 
L 164.965101 15550.387561 
L 164.965101 15550.387561 
L 163.564977 15550.387561 
L 163.564977 15550.387561 
L 162.164854 15550.387561 
L 162.164854 15550.387561 
L 160.76473 15550.387561 
L 160.76473 15550.387561 
L 159.364607 15550.387561 
L 159.364607 15550.387561 
L 157.964483 15550.387561 
L 157.964483 15550.387561 
L 156.56436 15550.387561 
L 156.56436 15550.387561 
L 155.164236 15550.387561 
L 155.164236 15550.387561 
L 153.764112 15550.387561 
L 153.764112 15550.387561 
L 152.363989 15550.387561 
L 152.363989 15550.387561 
L 150.963865 15550.387561 
L 150.963865 15550.387561 
L 149.563742 15550.387561 
L 149.563742 15550.387561 
L 148.163618 15550.387561 
L 148.163618 15550.387561 
L 146.763495 15550.387561 
L 146.763495 15550.387561 
L 145.363371 15550.387561 
L 145.363371 15550.387561 
L 143.963247 15550.387561 
L 143.963247 15550.387561 
L 142.563124 15550.387561 
L 142.563124 15550.387561 
L 141.163 15550.387561 
L 141.163 15550.387561 
L 139.762877 15550.387561 
L 139.762877 15550.387561 
L 138.362753 15550.387561 
L 138.362753 15550.387561 
L 136.96263 15550.387561 
L 136.96263 15550.387561 
L 135.562506 15550.387561 
L 135.562506 15550.387561 
L 134.162382 15550.387561 
L 134.162382 15550.387561 
L 132.762259 15550.387561 
L 132.762259 15550.387561 
L 131.362135 15550.387561 
L 131.362135 15550.387561 
L 129.962012 15550.387561 
L 129.962012 15550.387561 
L 128.561888 15550.387561 
L 128.561888 15550.387561 
L 127.161765 15550.387561 
L 127.161765 15550.387561 
L 125.761641 15550.387561 
L 125.761641 15550.387561 
L 124.361517 15550.387561 
L 124.361517 15550.387561 
L 122.961394 15550.387561 
L 122.961394 15550.387561 
L 121.56127 15550.387561 
L 121.56127 15550.387561 
L 120.161147 15550.387561 
L 120.161147 15550.387561 
L 118.761023 15550.387561 
L 118.761023 15550.387561 
L 117.3609 15550.387561 
L 117.3609 15550.387561 
L 115.960776 15550.387561 
L 115.960776 15550.387561 
L 114.560652 15550.387561 
L 114.560652 15550.387561 
L 113.160529 15550.387561 
L 113.160529 15550.387561 
L 111.760405 15550.387561 
L 111.760405 15550.387561 
L 110.360282 15550.387561 
L 110.360282 15550.387561 
L 108.960158 15550.387561 
L 108.960158 15550.387561 
L 107.560035 15550.387561 
L 107.560035 15550.387561 
L 106.159911 15550.387561 
L 106.159911 15550.387561 
L 104.759787 15550.387561 
L 104.759787 15550.387561 
L 103.359664 15550.387561 
L 103.359664 15550.387561 
L 101.95954 15550.387561 
L 101.95954 15550.387561 
L 100.559417 15550.387561 
L 100.559417 15550.387561 
L 99.159293 15550.387561 
L 99.159293 15550.387561 
L 97.75917 15550.387561 
L 97.75917 15550.387561 
L 96.359046 15550.387561 
L 96.359046 15550.387561 
L 94.958922 15550.387561 
L 94.958922 15550.387561 
L 93.558799 15550.387561 
L 93.558799 15550.387561 
L 92.158675 15550.387561 
L 92.158675 15550.387561 
L 90.758552 15550.387561 
L 90.758552 15550.387561 
L 89.358428 15550.387561 
L 89.358428 15550.387561 
L 87.958305 15550.387561 
L 87.958305 15550.387561 
L 86.558181 15550.387561 
L 86.558181 15550.387561 
L 85.158057 15550.387561 
L 85.158057 15550.387561 
L 83.757934 15550.387561 
L 83.757934 15550.387561 
L 82.35781 15550.387561 
L 82.35781 15550.387561 
L 80.957687 15550.387561 
L 80.957687 15550.387561 
L 79.557563 15550.387561 
L 79.557563 15550.387561 
L 78.15744 15550.387561 
L 78.15744 15550.387561 
L 76.757316 15550.387561 
L 76.757316 15550.387561 
L 75.357192 15550.387561 
L 75.357192 15550.387561 
L 73.957069 15550.387561 
L 73.957069 15550.387561 
L 72.556945 15550.387561 
L 72.556945 15550.387561 
L 71.156822 15550.387561 
L 71.156822 15550.387561 
L 69.756698 15550.387561 
L 69.756698 15550.387561 
L 68.356575 15550.387561 
L 68.356575 15550.387561 
L 66.956451 15550.387561 
L 66.956451 15550.387561 
L 65.556327 15550.387561 
L 65.556327 15550.387561 
L 64.156204 15550.387561 
L 64.156204 15550.387561 
L 62.75608 15550.387561 
L 62.75608 15550.387561 
L 61.355957 15550.387561 
L 61.355957 15550.387561 
L 59.955833 15550.387561 
L 59.955833 15550.387561 
L 58.55571 15550.387561 
L 58.55571 15550.387561 
L 57.155586 15550.387561 
L 57.155586 15550.387561 
L 55.755462 15550.387561 
L 55.755462 15550.387561 
L 54.355339 15550.387561 
L 54.355339 15550.387561 
L 52.955215 15550.387561 
L 52.955215 15550.387561 
L 51.555092 15550.387561 
L 51.555092 15550.387561 
L 50.154968 15550.387561 
L 50.154968 15550.387561 
L 48.754845 15550.387561 
L 48.754845 15550.387561 
L 47.354721 15550.387561 
L 47.354721 15550.387561 
L 45.954597 15550.387561 
L 45.954597 15550.387561 
L 44.554474 15550.387561 
L 44.554474 15550.387561 
z
" style="fill:#81b1d2;opacity:0.8;"/>
   </g>
   <g id="matplotlib.axis_1">
    <g id="xtick_1">
     <g id="line2d_1">
      <defs>
       <path d="M 0 0 
L 0 3.5 
" id="m11699e3bc0" style="stroke:#ffffff;stroke-width:0.8;"/>
      </defs>
      <g>
       <use style="fill:#ffffff;stroke:#ffffff;stroke-width:0.8;" x="99.159293" xlink:href="#m11699e3bc0" y="92.021841"/>
      </g>
     </g>
    </g>
    <g id="xtick_2">
     <g id="line2d_2">
      <g>
       <use style="fill:#ffffff;stroke:#ffffff;stroke-width:0.8;" x="155.164236" xlink:href="#m11699e3bc0" y="92.021841"/>
      </g>
     </g>
    </g>
   </g>
   <g id="matplotlib.axis_2">
    <g id="ytick_1">
     <g id="line2d_3">
      <defs>
       <path d="M 0 0 
L -3.5 0 
" id="m064ff01492" style="stroke:#ffffff;stroke-width:0.8;"/>
      </defs>
      <g>
       <use style="fill:#ffffff;stroke:#ffffff;stroke-width:0.8;" x="43.434375" xlink:href="#m064ff01492" y="72.798508"/>
      </g>
     </g>
     <g id="text_1">
      <!-- $\mathdefault{10^{1}}$ -->
      <g style="fill:#ffffff;" transform="translate(20.834375 76.548508)scale(0.1 -0.1)">
       <defs>
        <path d="M 2278 0 
L 1697 0 
L 1697 3853 
L 531 3425 
L 531 3950 
L 2188 4572 
L 2278 4572 
L 2278 0 
z
" id="Roboto-Regular-31" transform="scale(0.015625)"/>
        <path d="M 3231 1941 
Q 3231 925 2884 431 
Q 2538 -63 1800 -63 
Q 1072 -63 722 420 
Q 372 903 359 1863 
L 359 2634 
Q 359 3638 706 4125 
Q 1053 4613 1794 4613 
Q 2528 4613 2875 4142 
Q 3222 3672 3231 2691 
L 3231 1941 
z
M 2653 2731 
Q 2653 3466 2447 3802 
Q 2241 4138 1794 4138 
Q 1350 4138 1147 3803 
Q 944 3469 938 2775 
L 938 1850 
Q 938 1113 1152 761 
Q 1366 409 1800 409 
Q 2228 409 2436 740 
Q 2644 1072 2653 1784 
L 2653 2731 
z
" id="Roboto-Regular-30" transform="scale(0.015625)"/>
       </defs>
       <use transform="translate(0 0.014063)" xlink:href="#Roboto-Regular-31"/>
       <use transform="translate(56.152344 0.014063)" xlink:href="#Roboto-Regular-30"/>
       <use transform="translate(113.22918 36.99375)scale(0.7)" xlink:href="#Roboto-Regular-31"/>
      </g>
     </g>
    </g>
    <g id="ytick_2">
     <g id="line2d_4">
      <g>
       <use style="fill:#ffffff;stroke:#ffffff;stroke-width:0.8;" x="43.434375" xlink:href="#m064ff01492" y="41.874254"/>
      </g>
     </g>
     <g id="text_2">
      <!-- $\mathdefault{10^{3}}$ -->
      <g style="fill:#ffffff;" transform="translate(20.834375 45.624254)scale(0.1 -0.1)">
       <defs>
        <path d="M 1219 2556 
L 1653 2556 
Q 2063 2563 2297 2772 
Q 2531 2981 2531 3338 
Q 2531 4138 1734 4138 
Q 1359 4138 1136 3923 
Q 913 3709 913 3356 
L 334 3356 
Q 334 3897 729 4255 
Q 1125 4613 1734 4613 
Q 2378 4613 2743 4272 
Q 3109 3931 3109 3325 
Q 3109 3028 2917 2750 
Q 2725 2472 2394 2334 
Q 2769 2216 2973 1941 
Q 3178 1666 3178 1269 
Q 3178 656 2778 296 
Q 2378 -63 1737 -63 
Q 1097 -63 695 284 
Q 294 631 294 1200 
L 875 1200 
Q 875 841 1109 625 
Q 1344 409 1738 409 
Q 2156 409 2378 628 
Q 2600 847 2600 1256 
Q 2600 1653 2356 1865 
Q 2113 2078 1653 2084 
L 1219 2084 
L 1219 2556 
z
" id="Roboto-Regular-33" transform="scale(0.015625)"/>
       </defs>
       <use transform="translate(0 0.565625)" xlink:href="#Roboto-Regular-31"/>
       <use transform="translate(56.152344 0.565625)" xlink:href="#Roboto-Regular-30"/>
       <use transform="translate(113.22918 37.545313)scale(0.7)" xlink:href="#Roboto-Regular-33"/>
      </g>
     </g>
    </g>
    <g id="ytick_3">
     <g id="line2d_5">
      <g>
       <use style="fill:#ffffff;stroke:#ffffff;stroke-width:0.8;" x="43.434375" xlink:href="#m064ff01492" y="10.95"/>
      </g>
     </g>
     <g id="text_3">
      <!-- $\mathdefault{10^{5}}$ -->
      <g style="fill:#ffffff;" transform="translate(20.834375 14.7)scale(0.1 -0.1)">
       <defs>
        <path d="M 644 2281 
L 875 4550 
L 3206 4550 
L 3206 4016 
L 1366 4016 
L 1228 2775 
Q 1563 2972 1988 2972 
Q 2609 2972 2975 2561 
Q 3341 2150 3341 1450 
Q 3341 747 2961 342 
Q 2581 -63 1900 -63 
Q 1297 -63 915 271 
Q 534 606 481 1197 
L 1028 1197 
Q 1081 806 1306 607 
Q 1531 409 1900 409 
Q 2303 409 2533 684 
Q 2763 959 2763 1444 
Q 2763 1900 2514 2176 
Q 2266 2453 1853 2453 
Q 1475 2453 1259 2288 
L 1106 2163 
L 644 2281 
z
" id="Roboto-Regular-35" transform="scale(0.015625)"/>
       </defs>
       <use transform="translate(0 0.254688)" xlink:href="#Roboto-Regular-31"/>
       <use transform="translate(56.152344 0.254688)" xlink:href="#Roboto-Regular-30"/>
       <use transform="translate(113.22918 37.234375)scale(0.7)" xlink:href="#Roboto-Regular-35"/>
      </g>
     </g>
    </g>
    <g id="text_4">
     <!-- Number of spectra -->
     <g style="fill:#ffffff;" transform="translate(14.803125 92.256386)rotate(-90)scale(0.1 -0.1)">
      <defs>
       <path d="M 4025 0 
L 3422 0 
L 1131 3506 
L 1131 0 
L 528 0 
L 528 4550 
L 1131 4550 
L 3428 1028 
L 3428 4550 
L 4025 4550 
L 4025 0 
z
" id="Roboto-Regular-4e" transform="scale(0.015625)"/>
       <path d="M 2525 334 
Q 2188 -63 1534 -63 
Q 994 -63 711 251 
Q 428 566 425 1181 
L 425 3381 
L 1003 3381 
L 1003 1197 
Q 1003 428 1628 428 
Q 2291 428 2509 922 
L 2509 3381 
L 3088 3381 
L 3088 0 
L 2538 0 
L 2525 334 
z
" id="Roboto-Regular-75" transform="scale(0.015625)"/>
       <path d="M 981 3381 
L 997 3006 
Q 1369 3444 2000 3444 
Q 2709 3444 2966 2900 
Q 3134 3144 3404 3294 
Q 3675 3444 4044 3444 
Q 5156 3444 5175 2266 
L 5175 0 
L 4597 0 
L 4597 2231 
Q 4597 2594 4431 2773 
Q 4266 2953 3875 2953 
Q 3553 2953 3340 2761 
Q 3128 2569 3094 2244 
L 3094 0 
L 2513 0 
L 2513 2216 
Q 2513 2953 1791 2953 
Q 1222 2953 1013 2469 
L 1013 0 
L 434 0 
L 434 3381 
L 981 3381 
z
" id="Roboto-Regular-6d" transform="scale(0.015625)"/>
       <path d="M 3300 1653 
Q 3300 878 2944 407 
Q 2588 -63 1988 -63 
Q 1347 -63 997 391 
L 969 0 
L 438 0 
L 438 4800 
L 1016 4800 
L 1016 3009 
Q 1366 3444 1981 3444 
Q 2597 3444 2948 2978 
Q 3300 2513 3300 1703 
L 3300 1653 
z
M 2722 1719 
Q 2722 2309 2494 2631 
Q 2266 2953 1838 2953 
Q 1266 2953 1016 2422 
L 1016 959 
Q 1281 428 1844 428 
Q 2259 428 2490 750 
Q 2722 1072 2722 1719 
z
" id="Roboto-Regular-62" transform="scale(0.015625)"/>
       <path d="M 1841 -63 
Q 1153 -63 722 389 
Q 291 841 291 1597 
L 291 1703 
Q 291 2206 483 2601 
Q 675 2997 1020 3220 
Q 1366 3444 1769 3444 
Q 2428 3444 2793 3009 
Q 3159 2575 3159 1766 
L 3159 1525 
L 869 1525 
Q 881 1025 1161 717 
Q 1441 409 1872 409 
Q 2178 409 2390 534 
Q 2603 659 2763 866 
L 3116 591 
Q 2691 -63 1841 -63 
z
M 1769 2969 
Q 1419 2969 1181 2714 
Q 944 2459 888 2000 
L 2581 2000 
L 2581 2044 
Q 2556 2484 2343 2726 
Q 2131 2969 1769 2969 
z
" id="Roboto-Regular-65" transform="scale(0.015625)"/>
       <path d="M 2072 2863 
Q 1941 2884 1788 2884 
Q 1219 2884 1016 2400 
L 1016 0 
L 438 0 
L 438 3381 
L 1000 3381 
L 1009 2991 
Q 1294 3444 1816 3444 
Q 1984 3444 2072 3400 
L 2072 2863 
z
" id="Roboto-Regular-72" transform="scale(0.015625)"/>
       <path id="Roboto-Regular-20" transform="scale(0.015625)"/>
       <path d="M 284 1722 
Q 284 2219 479 2616 
Q 675 3013 1023 3228 
Q 1372 3444 1819 3444 
Q 2509 3444 2936 2966 
Q 3363 2488 3363 1694 
L 3363 1653 
Q 3363 1159 3173 767 
Q 2984 375 2632 156 
Q 2281 -63 1825 -63 
Q 1138 -63 711 415 
Q 284 894 284 1681 
L 284 1722 
z
M 866 1653 
Q 866 1091 1127 750 
Q 1388 409 1825 409 
Q 2266 409 2525 754 
Q 2784 1100 2784 1722 
Q 2784 2278 2520 2623 
Q 2256 2969 1819 2969 
Q 1391 2969 1128 2628 
Q 866 2288 866 1653 
z
" id="Roboto-Regular-6f" transform="scale(0.015625)"/>
       <path d="M 722 0 
L 722 2934 
L 188 2934 
L 188 3381 
L 722 3381 
L 722 3728 
Q 722 4272 1012 4569 
Q 1303 4866 1834 4866 
Q 2034 4866 2231 4813 
L 2200 4344 
Q 2053 4372 1888 4372 
Q 1606 4372 1453 4208 
Q 1300 4044 1300 3738 
L 1300 3381 
L 2022 3381 
L 2022 2934 
L 1300 2934 
L 1300 0 
L 722 0 
z
" id="Roboto-Regular-66" transform="scale(0.015625)"/>
       <path d="M 2406 897 
Q 2406 1131 2229 1261 
Q 2053 1391 1614 1484 
Q 1175 1578 917 1709 
Q 659 1841 536 2022 
Q 413 2203 413 2453 
Q 413 2869 764 3156 
Q 1116 3444 1663 3444 
Q 2238 3444 2595 3147 
Q 2953 2850 2953 2388 
L 2372 2388 
Q 2372 2625 2170 2797 
Q 1969 2969 1663 2969 
Q 1347 2969 1169 2831 
Q 991 2694 991 2472 
Q 991 2263 1156 2156 
Q 1322 2050 1755 1953 
Q 2188 1856 2456 1722 
Q 2725 1588 2854 1398 
Q 2984 1209 2984 938 
Q 2984 484 2621 210 
Q 2259 -63 1681 -63 
Q 1275 -63 962 81 
Q 650 225 473 483 
Q 297 741 297 1041 
L 875 1041 
Q 891 750 1108 579 
Q 1325 409 1681 409 
Q 2009 409 2207 542 
Q 2406 675 2406 897 
z
" id="Roboto-Regular-73" transform="scale(0.015625)"/>
       <path d="M 3294 1653 
Q 3294 881 2941 409 
Q 2588 -63 1984 -63 
Q 1369 -63 1016 328 
L 1016 -1300 
L 438 -1300 
L 438 3381 
L 966 3381 
L 994 3006 
Q 1347 3444 1975 3444 
Q 2584 3444 2939 2984 
Q 3294 2525 3294 1706 
L 3294 1653 
z
M 2716 1719 
Q 2716 2291 2472 2622 
Q 2228 2953 1803 2953 
Q 1278 2953 1016 2488 
L 1016 872 
Q 1275 409 1809 409 
Q 2225 409 2470 739 
Q 2716 1069 2716 1719 
z
" id="Roboto-Regular-70" transform="scale(0.015625)"/>
       <path d="M 1794 409 
Q 2103 409 2334 596 
Q 2566 784 2591 1066 
L 3138 1066 
Q 3122 775 2937 512 
Q 2753 250 2445 93 
Q 2138 -63 1794 -63 
Q 1103 -63 695 398 
Q 288 859 288 1659 
L 288 1756 
Q 288 2250 469 2634 
Q 650 3019 989 3231 
Q 1328 3444 1791 3444 
Q 2359 3444 2736 3103 
Q 3113 2763 3138 2219 
L 2591 2219 
Q 2566 2547 2342 2758 
Q 2119 2969 1791 2969 
Q 1350 2969 1108 2651 
Q 866 2334 866 1734 
L 866 1625 
Q 866 1041 1106 725 
Q 1347 409 1794 409 
z
" id="Roboto-Regular-63" transform="scale(0.015625)"/>
       <path d="M 1222 4200 
L 1222 3381 
L 1853 3381 
L 1853 2934 
L 1222 2934 
L 1222 838 
Q 1222 634 1306 532 
Q 1391 431 1594 431 
Q 1694 431 1869 469 
L 1869 0 
Q 1641 -63 1425 -63 
Q 1038 -63 841 171 
Q 644 406 644 838 
L 644 2934 
L 28 2934 
L 28 3381 
L 644 3381 
L 644 4200 
L 1222 4200 
z
" id="Roboto-Regular-74" transform="scale(0.015625)"/>
       <path d="M 2525 0 
Q 2475 100 2444 356 
Q 2041 -63 1481 -63 
Q 981 -63 661 220 
Q 341 503 341 938 
Q 341 1466 742 1758 
Q 1144 2050 1872 2050 
L 2434 2050 
L 2434 2316 
Q 2434 2619 2253 2798 
Q 2072 2978 1719 2978 
Q 1409 2978 1200 2822 
Q 991 2666 991 2444 
L 409 2444 
Q 409 2697 589 2933 
Q 769 3169 1076 3306 
Q 1384 3444 1753 3444 
Q 2338 3444 2669 3151 
Q 3000 2859 3013 2347 
L 3013 791 
Q 3013 325 3131 50 
L 3131 0 
L 2525 0 
z
M 1566 441 
Q 1838 441 2081 581 
Q 2325 722 2434 947 
L 2434 1641 
L 1981 1641 
Q 919 1641 919 1019 
Q 919 747 1100 594 
Q 1281 441 1566 441 
z
" id="Roboto-Regular-61" transform="scale(0.015625)"/>
      </defs>
      <use xlink:href="#Roboto-Regular-4e"/>
      <use x="71.289062" xlink:href="#Roboto-Regular-75"/>
      <use x="126.416016" xlink:href="#Roboto-Regular-6d"/>
      <use x="214.0625" xlink:href="#Roboto-Regular-62"/>
      <use x="270.166016" xlink:href="#Roboto-Regular-65"/>
      <use x="323.144531" xlink:href="#Roboto-Regular-72"/>
      <use x="356.982422" xlink:href="#Roboto-Regular-20"/>
      <use x="381.738281" xlink:href="#Roboto-Regular-6f"/>
      <use x="438.769531" xlink:href="#Roboto-Regular-66"/>
      <use x="473.486328" xlink:href="#Roboto-Regular-20"/>
      <use x="498.242188" xlink:href="#Roboto-Regular-73"/>
      <use x="549.804688" xlink:href="#Roboto-Regular-70"/>
      <use x="605.908203" xlink:href="#Roboto-Regular-65"/>
      <use x="658.886719" xlink:href="#Roboto-Regular-63"/>
      <use x="711.230469" xlink:href="#Roboto-Regular-74"/>
      <use x="743.896484" xlink:href="#Roboto-Regular-72"/>
      <use x="777.734375" xlink:href="#Roboto-Regular-61"/>
     </g>
    </g>
   </g>
   <g id="patch_4">
    <path clip-path="url(#p26db9190a8)" d="M 43.15435 225.396059 
L 43.15435 33.822421 
L 44.554474 33.822421 
L 44.554474 38.322884 
L 45.954597 38.322884 
L 45.954597 41.401117 
L 47.354721 41.401117 
L 47.354721 43.239712 
L 48.754845 43.239712 
L 48.754845 44.30785 
L 50.154968 44.30785 
L 50.154968 45.315709 
L 51.555092 45.315709 
L 51.555092 46.528818 
L 52.955215 46.528818 
L 52.955215 48.568947 
L 54.355339 48.568947 
L 54.355339 50.766807 
L 55.755462 50.766807 
L 55.755462 52.133998 
L 57.155586 52.133998 
L 57.155586 54.795136 
L 58.55571 54.795136 
L 58.55571 56.515675 
L 59.955833 56.515675 
L 59.955833 59.358337 
L 61.355957 59.358337 
L 61.355957 61.229929 
L 62.75608 61.229929 
L 62.75608 63.323566 
L 64.156204 63.323566 
L 64.156204 67.205426 
L 65.556327 67.205426 
L 65.556327 67.816312 
L 66.956451 67.816312 
L 66.956451 71.574197 
L 68.356575 71.574197 
L 68.356575 71.036701 
L 69.756698 71.036701 
L 69.756698 77.453072 
L 71.156822 77.453072 
L 71.156822 83.606071 
L 73.957069 83.606071 
L 73.957069 88.260635 
L 75.357192 88.260635 
L 75.357192 225.396059 
M 79.557563 225.396059 
L 79.557563 83.606071 
L 80.957687 83.606071 
L 80.957687 225.396059 
M 82.35781 225.396059 
L 82.35781 88.260635 
L 83.757934 88.260635 
L 83.757934 225.396059 
M 97.75917 225.396059 
L 97.75917 88.260635 
L 99.159293 88.260635 
L 99.159293 225.396059 
L 99.159293 225.396059 
" style="fill:none;stroke:#ffffff;stroke-linejoin:miter;"/>
   </g>
   <g id="line2d_6">
    <path clip-path="url(#p26db9190a8)" d="M 52.753571 92.021841 
L 52.753571 9.275306 
" style="fill:none;stroke:#ffffff;stroke-dasharray:5.55,2.4;stroke-dashoffset:0;stroke-width:1.5;"/>
   </g>
   <g id="patch_5">
    <path d="M 43.434375 92.021841 
L 43.434375 9.275306 
" style="fill:none;stroke:#ffffff;stroke-linecap:square;stroke-linejoin:miter;stroke-width:0.8;"/>
   </g>
   <g id="patch_6">
    <path d="M 183.166707 92.021841 
L 183.166707 9.275306 
" style="fill:none;stroke:#ffffff;stroke-linecap:square;stroke-linejoin:miter;stroke-width:0.8;"/>
   </g>
   <g id="patch_7">
    <path d="M 43.434375 92.021841 
L 183.166708 92.021841 
" style="fill:none;stroke:#ffffff;stroke-linecap:square;stroke-linejoin:miter;stroke-width:0.8;"/>
   </g>
   <g id="patch_8">
    <path d="M 43.434375 9.275306 
L 183.166708 9.275306 
" style="fill:none;stroke:#ffffff;stroke-linecap:square;stroke-linejoin:miter;stroke-width:0.8;"/>
   </g>
   <g id="patch_9">
    <path d="M 123.647957 36.125306 
L 179.166707 36.125306 
L 179.166707 13.275306 
L 123.647957 13.275306 
z
" style="fill:#ffffff;stroke:#000000;stroke-linejoin:miter;"/>
   </g>
   <g id="text_5">
    <g id="patch_10">
     <path d="M 122.847957 36.925306 
L 179.966707 36.925306 
L 179.966707 12.475306 
L 122.847957 12.475306 
z
" style="stroke:#000000;stroke-linejoin:miter;"/>
    </g>
    <!-- CCD 1 -->
    <g style="fill:#ffffff;" transform="translate(126.847957 22.475306)scale(0.08 -0.08)">
     <defs>
      <path d="M 3875 1444 
Q 3791 722 3342 329 
Q 2894 -63 2150 -63 
Q 1344 -63 858 515 
Q 372 1094 372 2063 
L 372 2500 
Q 372 3134 598 3615 
Q 825 4097 1240 4355 
Q 1656 4613 2203 4613 
Q 2928 4613 3365 4208 
Q 3803 3803 3875 3088 
L 3272 3088 
Q 3194 3631 2933 3875 
Q 2672 4119 2203 4119 
Q 1628 4119 1301 3694 
Q 975 3269 975 2484 
L 975 2044 
Q 975 1303 1284 865 
Q 1594 428 2150 428 
Q 2650 428 2917 654 
Q 3184 881 3272 1444 
L 3875 1444 
z
" id="Roboto-Regular-43" transform="scale(0.015625)"/>
      <path d="M 528 0 
L 528 4550 
L 1813 4550 
Q 2406 4550 2862 4287 
Q 3319 4025 3567 3540 
Q 3816 3056 3819 2428 
L 3819 2138 
Q 3819 1494 3570 1009 
Q 3322 525 2861 265 
Q 2400 6 1788 0 
L 528 0 
z
M 1128 4056 
L 1128 491 
L 1759 491 
Q 2453 491 2839 922 
Q 3225 1353 3225 2150 
L 3225 2416 
Q 3225 3191 2861 3620 
Q 2497 4050 1828 4056 
L 1128 4056 
z
" id="Roboto-Regular-44" transform="scale(0.015625)"/>
     </defs>
     <use xlink:href="#Roboto-Regular-43"/>
     <use x="65.087891" xlink:href="#Roboto-Regular-43"/>
     <use x="130.175781" xlink:href="#Roboto-Regular-44"/>
     <use x="195.751953" xlink:href="#Roboto-Regular-20"/>
     <use x="220.507812" xlink:href="#Roboto-Regular-31"/>
    </g>
    <!-- mean S/N=34 -->
    <g style="fill:#ffffff;" transform="translate(126.847957 31.300306)scale(0.08 -0.08)">
     <defs>
      <path d="M 984 3381 
L 1003 2956 
Q 1391 3444 2016 3444 
Q 3088 3444 3097 2234 
L 3097 0 
L 2519 0 
L 2519 2238 
Q 2516 2603 2352 2778 
Q 2188 2953 1841 2953 
Q 1559 2953 1346 2803 
Q 1134 2653 1016 2409 
L 1016 0 
L 438 0 
L 438 3381 
L 984 3381 
z
" id="Roboto-Regular-6e" transform="scale(0.015625)"/>
      <path d="M 1869 2028 
Q 1097 2250 745 2573 
Q 394 2897 394 3372 
Q 394 3909 823 4261 
Q 1253 4613 1941 4613 
Q 2409 4613 2776 4431 
Q 3144 4250 3345 3931 
Q 3547 3613 3547 3234 
L 2944 3234 
Q 2944 3647 2681 3883 
Q 2419 4119 1941 4119 
Q 1497 4119 1248 3923 
Q 1000 3728 1000 3381 
Q 1000 3103 1236 2911 
Q 1472 2719 2039 2559 
Q 2606 2400 2926 2208 
Q 3247 2016 3401 1759 
Q 3556 1503 3556 1156 
Q 3556 603 3125 270 
Q 2694 -63 1972 -63 
Q 1503 -63 1097 117 
Q 691 297 470 609 
Q 250 922 250 1319 
L 853 1319 
Q 853 906 1158 667 
Q 1463 428 1972 428 
Q 2447 428 2700 622 
Q 2953 816 2953 1150 
Q 2953 1484 2718 1667 
Q 2484 1850 1869 2028 
z
" id="Roboto-Regular-53" transform="scale(0.015625)"/>
      <path d="M 553 -391 
L 56 -391 
L 1956 4550 
L 2450 4550 
L 553 -391 
z
" id="Roboto-Regular-2f" transform="scale(0.015625)"/>
      <path d="M 3081 2544 
L 475 2544 
L 475 3047 
L 3081 3047 
L 3081 2544 
z
M 3081 1247 
L 475 1247 
L 475 1747 
L 3081 1747 
L 3081 1247 
z
" id="Roboto-Regular-3d" transform="scale(0.015625)"/>
      <path d="M 2819 1528 
L 3450 1528 
L 3450 1056 
L 2819 1056 
L 2819 0 
L 2238 0 
L 2238 1056 
L 166 1056 
L 166 1397 
L 2203 4550 
L 2819 4550 
L 2819 1528 
z
M 822 1528 
L 2238 1528 
L 2238 3759 
L 2169 3634 
L 822 1528 
z
" id="Roboto-Regular-34" transform="scale(0.015625)"/>
     </defs>
     <use xlink:href="#Roboto-Regular-6d"/>
     <use x="87.646484" xlink:href="#Roboto-Regular-65"/>
     <use x="140.625" xlink:href="#Roboto-Regular-61"/>
     <use x="195.019531" xlink:href="#Roboto-Regular-6e"/>
     <use x="250.195312" xlink:href="#Roboto-Regular-20"/>
     <use x="274.951172" xlink:href="#Roboto-Regular-53"/>
     <use x="334.277344" xlink:href="#Roboto-Regular-2f"/>
     <use x="375.488281" xlink:href="#Roboto-Regular-4e"/>
     <use x="446.777344" xlink:href="#Roboto-Regular-3d"/>
     <use x="501.660156" xlink:href="#Roboto-Regular-33"/>
     <use x="557.8125" xlink:href="#Roboto-Regular-34"/>
    </g>
   </g>
  </g>
  <g id="axes_2">
   <g id="patch_11">
    <path d="M 192.667188 92.021841 
L 332.39952 92.021841 
L 332.39952 9.275306 
L 192.667188 9.275306 
z
"/>
   </g>
   <g id="patch_12">
    <path clip-path="url(#p7035f6d7a3)" d="M 192.387163 15550.387561 
L 192.387163 41.514721 
L 193.787286 41.514721 
L 193.787286 33.023626 
L 195.18741 33.023626 
L 195.18741 26.865596 
L 196.587534 26.865596 
L 196.587534 22.231179 
L 197.987657 22.231179 
L 197.987657 19.022071 
L 199.387781 19.022071 
L 199.387781 16.89555 
L 200.787904 16.89555 
L 200.787904 15.611551 
L 202.188028 15.611551 
L 202.188028 14.999677 
L 203.588151 14.999677 
L 203.588151 15.13819 
L 204.988275 15.13819 
L 204.988275 15.840048 
L 206.388399 15.840048 
L 206.388399 16.764983 
L 207.788522 16.764983 
L 207.788522 17.926025 
L 209.188646 17.926025 
L 209.188646 19.179395 
L 210.588769 19.179395 
L 210.588769 20.465327 
L 211.988893 20.465327 
L 211.988893 21.846452 
L 213.389016 21.846452 
L 213.389016 23.151059 
L 214.78914 23.151059 
L 214.78914 24.672569 
L 216.189264 24.672569 
L 216.189264 26.094095 
L 217.589387 26.094095 
L 217.589387 27.610166 
L 218.989511 27.610166 
L 218.989511 29.123466 
L 220.389634 29.123466 
L 220.389634 30.821423 
L 221.789758 30.821423 
L 221.789758 32.671731 
L 223.189881 32.671731 
L 223.189881 34.427911 
L 224.590005 34.427911 
L 224.590005 35.920256 
L 225.990129 35.920256 
L 225.990129 37.897419 
L 227.390252 37.897419 
L 227.390252 39.402357 
L 228.790376 39.402357 
L 228.790376 41.228133 
L 230.190499 41.228133 
L 230.190499 42.31122 
L 231.590623 42.31122 
L 231.590623 44.024469 
L 232.990746 44.024469 
L 232.990746 44.746381 
L 234.39087 44.746381 
L 234.39087 46.788967 
L 235.790994 46.788967 
L 235.790994 47.463979 
L 237.191117 47.463979 
L 237.191117 48.249119 
L 238.591241 48.249119 
L 238.591241 49.040046 
L 239.991364 49.040046 
L 239.991364 50.049209 
L 241.391488 50.049209 
L 241.391488 51.374088 
L 242.791611 51.374088 
L 242.791611 52.133998 
L 244.191735 52.133998 
L 244.191735 52.483326 
L 245.591859 52.483326 
L 245.591859 52.133998 
L 246.991982 52.133998 
L 246.991982 53.616978 
L 248.392106 53.616978 
L 248.392106 55.173553 
L 249.792229 55.173553 
L 249.792229 55.891883 
L 251.192353 55.891883 
L 251.192353 56.696362 
L 252.592476 56.696362 
L 252.592476 57.969688 
L 253.9926 57.969688 
L 253.9926 57.969688 
L 255.392724 57.969688 
L 255.392724 58.669002 
L 256.792847 58.669002 
L 256.792847 60.655638 
L 258.192971 60.655638 
L 258.192971 59.179256 
L 259.593094 59.179256 
L 259.593094 60.655638 
L 260.993218 60.655638 
L 260.993218 61.229929 
L 262.393341 61.229929 
L 262.393341 62.849361 
L 263.793465 62.849361 
L 263.793465 65.648851 
L 265.193589 65.648851 
L 265.193589 65.201011 
L 266.593712 65.201011 
L 266.593712 64.580713 
L 267.993836 64.580713 
L 267.993836 64.196888 
L 269.393959 64.196888 
L 269.393959 68.143944 
L 270.794083 68.143944 
L 270.794083 66.382137 
L 272.194206 66.382137 
L 272.194206 72.158489 
L 273.59433 72.158489 
L 273.59433 69.642379 
L 274.994454 69.642379 
L 274.994454 70.539057 
L 276.394577 70.539057 
L 276.394577 71.036701 
L 277.794701 71.036701 
L 277.794701 71.036701 
L 279.194824 71.036701 
L 279.194824 73.506016 
L 280.594948 73.506016 
L 280.594948 75.193621 
L 281.995071 75.193621 
L 281.995071 73.506016 
L 283.395195 73.506016 
L 283.395195 77.453072 
L 284.795319 77.453072 
L 284.795319 88.260635 
L 286.195442 88.260635 
L 286.195442 77.453072 
L 287.595566 77.453072 
L 287.595566 80.883325 
L 288.995689 80.883325 
L 288.995689 80.883325 
L 290.395813 80.883325 
L 290.395813 83.606071 
L 291.795936 83.606071 
L 291.795936 83.606071 
L 293.19606 83.606071 
L 293.19606 83.606071 
L 294.596184 83.606071 
L 294.596184 88.260635 
L 295.996307 88.260635 
L 295.996307 88.260635 
L 297.396431 88.260635 
L 297.396431 88.260635 
L 298.796554 88.260635 
L 298.796554 88.260635 
L 300.196678 88.260635 
L 300.196678 15550.387561 
L 301.596801 15550.387561 
L 301.596801 88.260635 
L 302.996925 88.260635 
L 302.996925 15550.387561 
L 304.397049 15550.387561 
L 304.397049 83.606071 
L 305.797172 83.606071 
L 305.797172 15550.387561 
L 307.197296 15550.387561 
L 307.197296 15550.387561 
L 308.597419 15550.387561 
L 308.597419 15550.387561 
L 309.997543 15550.387561 
L 309.997543 15550.387561 
L 311.397666 15550.387561 
L 311.397666 15550.387561 
L 312.79779 15550.387561 
L 312.79779 83.606071 
L 314.197914 83.606071 
L 314.197914 15550.387561 
L 315.598037 15550.387561 
L 315.598037 15550.387561 
L 316.998161 15550.387561 
L 316.998161 15550.387561 
L 318.398284 15550.387561 
L 318.398284 88.260635 
L 319.798408 88.260635 
L 319.798408 15550.387561 
L 321.198531 15550.387561 
L 321.198531 15550.387561 
L 322.598655 15550.387561 
L 322.598655 15550.387561 
L 323.998779 15550.387561 
L 323.998779 88.260635 
L 325.398902 88.260635 
L 325.398902 15550.387561 
L 326.799026 15550.387561 
L 326.799026 15550.387561 
L 328.199149 15550.387561 
L 328.199149 15550.387561 
L 329.599273 15550.387561 
L 329.599273 15550.387561 
L 330.999396 15550.387561 
L 330.999396 15550.387561 
L 332.39952 15550.387561 
L 332.39952 15550.387561 
L 333.799644 15550.387561 
L 333.799644 15550.387561 
L 335.199767 15550.387561 
L 335.199767 15550.387561 
L 336.599891 15550.387561 
L 336.599891 15550.387561 
L 338.000014 15550.387561 
L 338.000014 15550.387561 
L 339.400138 15550.387561 
L 339.400138 15550.387561 
L 340.800261 15550.387561 
L 340.800261 15550.387561 
L 342.200385 15550.387561 
L 342.200385 15550.387561 
L 343.600509 15550.387561 
L 343.600509 15550.387561 
L 345.000632 15550.387561 
L 345.000632 15550.387561 
L 343.600509 15550.387561 
L 343.600509 15550.387561 
L 342.200385 15550.387561 
L 342.200385 15550.387561 
L 340.800261 15550.387561 
L 340.800261 15550.387561 
L 339.400138 15550.387561 
L 339.400138 15550.387561 
L 338.000014 15550.387561 
L 338.000014 15550.387561 
L 336.599891 15550.387561 
L 336.599891 15550.387561 
L 335.199767 15550.387561 
L 335.199767 15550.387561 
L 333.799644 15550.387561 
L 333.799644 15550.387561 
L 332.39952 15550.387561 
L 332.39952 15550.387561 
L 330.999396 15550.387561 
L 330.999396 15550.387561 
L 329.599273 15550.387561 
L 329.599273 15550.387561 
L 328.199149 15550.387561 
L 328.199149 15550.387561 
L 326.799026 15550.387561 
L 326.799026 15550.387561 
L 325.398902 15550.387561 
L 325.398902 15550.387561 
L 323.998779 15550.387561 
L 323.998779 15550.387561 
L 322.598655 15550.387561 
L 322.598655 15550.387561 
L 321.198531 15550.387561 
L 321.198531 15550.387561 
L 319.798408 15550.387561 
L 319.798408 15550.387561 
L 318.398284 15550.387561 
L 318.398284 15550.387561 
L 316.998161 15550.387561 
L 316.998161 15550.387561 
L 315.598037 15550.387561 
L 315.598037 15550.387561 
L 314.197914 15550.387561 
L 314.197914 15550.387561 
L 312.79779 15550.387561 
L 312.79779 15550.387561 
L 311.397666 15550.387561 
L 311.397666 15550.387561 
L 309.997543 15550.387561 
L 309.997543 15550.387561 
L 308.597419 15550.387561 
L 308.597419 15550.387561 
L 307.197296 15550.387561 
L 307.197296 15550.387561 
L 305.797172 15550.387561 
L 305.797172 15550.387561 
L 304.397049 15550.387561 
L 304.397049 15550.387561 
L 302.996925 15550.387561 
L 302.996925 15550.387561 
L 301.596801 15550.387561 
L 301.596801 15550.387561 
L 300.196678 15550.387561 
L 300.196678 15550.387561 
L 298.796554 15550.387561 
L 298.796554 15550.387561 
L 297.396431 15550.387561 
L 297.396431 15550.387561 
L 295.996307 15550.387561 
L 295.996307 15550.387561 
L 294.596184 15550.387561 
L 294.596184 15550.387561 
L 293.19606 15550.387561 
L 293.19606 15550.387561 
L 291.795936 15550.387561 
L 291.795936 15550.387561 
L 290.395813 15550.387561 
L 290.395813 15550.387561 
L 288.995689 15550.387561 
L 288.995689 15550.387561 
L 287.595566 15550.387561 
L 287.595566 15550.387561 
L 286.195442 15550.387561 
L 286.195442 15550.387561 
L 284.795319 15550.387561 
L 284.795319 15550.387561 
L 283.395195 15550.387561 
L 283.395195 15550.387561 
L 281.995071 15550.387561 
L 281.995071 15550.387561 
L 280.594948 15550.387561 
L 280.594948 15550.387561 
L 279.194824 15550.387561 
L 279.194824 15550.387561 
L 277.794701 15550.387561 
L 277.794701 15550.387561 
L 276.394577 15550.387561 
L 276.394577 15550.387561 
L 274.994454 15550.387561 
L 274.994454 15550.387561 
L 273.59433 15550.387561 
L 273.59433 15550.387561 
L 272.194206 15550.387561 
L 272.194206 15550.387561 
L 270.794083 15550.387561 
L 270.794083 15550.387561 
L 269.393959 15550.387561 
L 269.393959 15550.387561 
L 267.993836 15550.387561 
L 267.993836 15550.387561 
L 266.593712 15550.387561 
L 266.593712 15550.387561 
L 265.193589 15550.387561 
L 265.193589 15550.387561 
L 263.793465 15550.387561 
L 263.793465 15550.387561 
L 262.393341 15550.387561 
L 262.393341 15550.387561 
L 260.993218 15550.387561 
L 260.993218 15550.387561 
L 259.593094 15550.387561 
L 259.593094 15550.387561 
L 258.192971 15550.387561 
L 258.192971 15550.387561 
L 256.792847 15550.387561 
L 256.792847 15550.387561 
L 255.392724 15550.387561 
L 255.392724 15550.387561 
L 253.9926 15550.387561 
L 253.9926 15550.387561 
L 252.592476 15550.387561 
L 252.592476 15550.387561 
L 251.192353 15550.387561 
L 251.192353 15550.387561 
L 249.792229 15550.387561 
L 249.792229 15550.387561 
L 248.392106 15550.387561 
L 248.392106 15550.387561 
L 246.991982 15550.387561 
L 246.991982 15550.387561 
L 245.591859 15550.387561 
L 245.591859 15550.387561 
L 244.191735 15550.387561 
L 244.191735 15550.387561 
L 242.791611 15550.387561 
L 242.791611 15550.387561 
L 241.391488 15550.387561 
L 241.391488 15550.387561 
L 239.991364 15550.387561 
L 239.991364 15550.387561 
L 238.591241 15550.387561 
L 238.591241 15550.387561 
L 237.191117 15550.387561 
L 237.191117 15550.387561 
L 235.790994 15550.387561 
L 235.790994 15550.387561 
L 234.39087 15550.387561 
L 234.39087 15550.387561 
L 232.990746 15550.387561 
L 232.990746 15550.387561 
L 231.590623 15550.387561 
L 231.590623 15550.387561 
L 230.190499 15550.387561 
L 230.190499 15550.387561 
L 228.790376 15550.387561 
L 228.790376 15550.387561 
L 227.390252 15550.387561 
L 227.390252 15550.387561 
L 225.990129 15550.387561 
L 225.990129 15550.387561 
L 224.590005 15550.387561 
L 224.590005 15550.387561 
L 223.189881 15550.387561 
L 223.189881 15550.387561 
L 221.789758 15550.387561 
L 221.789758 15550.387561 
L 220.389634 15550.387561 
L 220.389634 15550.387561 
L 218.989511 15550.387561 
L 218.989511 15550.387561 
L 217.589387 15550.387561 
L 217.589387 15550.387561 
L 216.189264 15550.387561 
L 216.189264 15550.387561 
L 214.78914 15550.387561 
L 214.78914 15550.387561 
L 213.389016 15550.387561 
L 213.389016 15550.387561 
L 211.988893 15550.387561 
L 211.988893 15550.387561 
L 210.588769 15550.387561 
L 210.588769 15550.387561 
L 209.188646 15550.387561 
L 209.188646 15550.387561 
L 207.788522 15550.387561 
L 207.788522 15550.387561 
L 206.388399 15550.387561 
L 206.388399 15550.387561 
L 204.988275 15550.387561 
L 204.988275 15550.387561 
L 203.588151 15550.387561 
L 203.588151 15550.387561 
L 202.188028 15550.387561 
L 202.188028 15550.387561 
L 200.787904 15550.387561 
L 200.787904 15550.387561 
L 199.387781 15550.387561 
L 199.387781 15550.387561 
L 197.987657 15550.387561 
L 197.987657 15550.387561 
L 196.587534 15550.387561 
L 196.587534 15550.387561 
L 195.18741 15550.387561 
L 195.18741 15550.387561 
L 193.787286 15550.387561 
L 193.787286 15550.387561 
z
" style="fill:#8dd3c7;opacity:0.8;"/>
   </g>
   <g id="matplotlib.axis_3">
    <g id="xtick_3">
     <g id="line2d_7">
      <g>
       <use style="fill:#ffffff;stroke:#ffffff;stroke-width:0.8;" x="248.392106" xlink:href="#m11699e3bc0" y="92.021841"/>
      </g>
     </g>
    </g>
    <g id="xtick_4">
     <g id="line2d_8">
      <g>
       <use style="fill:#ffffff;stroke:#ffffff;stroke-width:0.8;" x="304.397049" xlink:href="#m11699e3bc0" y="92.021841"/>
      </g>
     </g>
    </g>
   </g>
   <g id="matplotlib.axis_4">
    <g id="ytick_4">
     <g id="line2d_9">
      <g>
       <use style="fill:#ffffff;stroke:#ffffff;stroke-width:0.8;" x="192.667188" xlink:href="#m064ff01492" y="72.798508"/>
      </g>
     </g>
    </g>
    <g id="ytick_5">
     <g id="line2d_10">
      <g>
       <use style="fill:#ffffff;stroke:#ffffff;stroke-width:0.8;" x="192.667188" xlink:href="#m064ff01492" y="41.874254"/>
      </g>
     </g>
    </g>
    <g id="ytick_6">
     <g id="line2d_11">
      <g>
       <use style="fill:#ffffff;stroke:#ffffff;stroke-width:0.8;" x="192.667188" xlink:href="#m064ff01492" y="10.95"/>
      </g>
     </g>
    </g>
   </g>
   <g id="patch_13">
    <path clip-path="url(#p7035f6d7a3)" d="M 192.387163 225.396059 
L 192.387163 35.667748 
L 193.787286 35.667748 
L 193.787286 36.671871 
L 195.18741 36.671871 
L 195.18741 35.572496 
L 196.587534 35.572496 
L 196.587534 34.850816 
L 197.987657 34.850816 
L 197.987657 34.173578 
L 199.387781 34.173578 
L 199.387781 34.348624 
L 202.188028 34.324583 
L 202.188028 34.867353 
L 203.588151 34.867353 
L 203.588151 36.228824 
L 204.988275 36.228824 
L 204.988275 37.348505 
L 206.388399 37.348505 
L 206.388399 38.366553 
L 207.788522 38.366553 
L 207.788522 39.959244 
L 209.188646 39.959244 
L 209.188646 41.734697 
L 210.588769 41.734697 
L 210.588769 43.061065 
L 211.988893 43.061065 
L 211.988893 44.288581 
L 213.389016 44.288581 
L 213.389016 45.852271 
L 214.78914 45.852271 
L 214.78914 47.001713 
L 216.189264 47.001713 
L 216.189264 48.809791 
L 217.589387 48.809791 
L 217.589387 50.422367 
L 218.989511 50.422367 
L 218.989511 53.061693 
L 220.389634 53.061693 
L 220.389634 53.502187 
L 221.789758 53.502187 
L 221.789758 55.37107 
L 224.590005 55.472051 
L 224.590005 56.515675 
L 225.990129 56.515675 
L 225.990129 59.542324 
L 227.390252 59.542324 
L 227.390252 60.333251 
L 228.790376 60.333251 
L 228.790376 61.111075 
L 230.190499 61.111075 
L 230.190499 61.857968 
L 231.590623 61.857968 
L 231.590623 62.126608 
L 232.990746 62.126608 
L 232.990746 63.003738 
L 234.39087 63.003738 
L 234.39087 64.386059 
L 235.790994 64.386059 
L 235.790994 66.919633 
L 237.191117 66.919633 
L 237.191117 67.205426 
L 238.591241 67.205426 
L 238.591241 66.382137 
L 239.991364 66.382137 
L 239.991364 69.235277 
L 241.391488 69.235277 
L 241.391488 64.580713 
L 242.791611 64.580713 
L 242.791611 68.143944 
L 244.191735 68.143944 
L 244.191735 70.075762 
L 245.591859 70.075762 
L 245.591859 72.798508 
L 246.991982 72.798508 
L 246.991982 72.158489 
L 248.392106 72.158489 
L 248.392106 75.193621 
L 251.192353 75.193621 
L 251.192353 80.883325 
L 252.592476 80.883325 
L 252.592476 77.453072 
L 253.9926 77.453072 
L 253.9926 83.606071 
L 256.792847 83.606071 
L 256.792847 76.228761 
L 258.192971 76.228761 
L 258.192971 83.606071 
L 259.593094 83.606071 
L 259.593094 78.951507 
L 260.993218 78.951507 
L 260.993218 83.606071 
L 262.393341 83.606071 
L 262.393341 80.883325 
L 263.793465 80.883325 
L 263.793465 88.260635 
L 265.193589 88.260635 
L 265.193589 83.606071 
L 266.593712 83.606071 
L 266.593712 88.260635 
L 270.794083 88.260635 
L 270.794083 83.606071 
L 272.194206 83.606071 
L 272.194206 80.883325 
L 273.59433 80.883325 
L 273.59433 83.606071 
L 274.994454 83.606071 
L 274.994454 225.396059 
M 276.394577 225.396059 
L 276.394577 88.260635 
L 277.794701 88.260635 
L 277.794701 225.396059 
M 281.995071 225.396059 
L 281.995071 88.260635 
L 283.395195 88.260635 
L 283.395195 225.396059 
M 284.795319 225.396059 
L 284.795319 88.260635 
L 286.195442 88.260635 
L 286.195442 225.396059 
M 293.19606 225.396059 
L 293.19606 83.606071 
L 294.596184 83.606071 
L 294.596184 225.396059 
M 300.196678 225.396059 
L 300.196678 88.260635 
L 301.596801 88.260635 
L 301.596801 225.396059 
L 301.596801 225.396059 
" style="fill:none;stroke:#ffffff;stroke-linejoin:miter;"/>
   </g>
   <g id="line2d_12">
    <path clip-path="url(#p7035f6d7a3)" d="M 206.270091 92.021841 
L 206.270091 9.275306 
" style="fill:none;stroke:#ffffff;stroke-dasharray:5.55,2.4;stroke-dashoffset:0;stroke-width:1.5;"/>
   </g>
   <g id="patch_14">
    <path d="M 192.667188 92.021841 
L 192.667188 9.275306 
" style="fill:none;stroke:#ffffff;stroke-linecap:square;stroke-linejoin:miter;stroke-width:0.8;"/>
   </g>
   <g id="patch_15">
    <path d="M 332.39952 92.021841 
L 332.39952 9.275306 
" style="fill:none;stroke:#ffffff;stroke-linecap:square;stroke-linejoin:miter;stroke-width:0.8;"/>
   </g>
   <g id="patch_16">
    <path d="M 192.667188 92.021841 
L 332.39952 92.021841 
" style="fill:none;stroke:#ffffff;stroke-linecap:square;stroke-linejoin:miter;stroke-width:0.8;"/>
   </g>
   <g id="patch_17">
    <path d="M 192.667188 9.275306 
L 332.39952 9.275306 
" style="fill:none;stroke:#ffffff;stroke-linecap:square;stroke-linejoin:miter;stroke-width:0.8;"/>
   </g>
   <g id="patch_18">
    <path d="M 272.88077 36.125306 
L 328.39952 36.125306 
L 328.39952 13.275306 
L 272.88077 13.275306 
z
" style="fill:#ffffff;stroke:#000000;stroke-linejoin:miter;"/>
   </g>
   <g id="text_6">
    <g id="patch_19">
     <path d="M 272.08077 36.925306 
L 329.19952 36.925306 
L 329.19952 12.475306 
L 272.08077 12.475306 
z
" style="stroke:#000000;stroke-linejoin:miter;"/>
    </g>
    <!-- CCD 2 -->
    <g style="fill:#ffffff;" transform="translate(276.08077 22.475306)scale(0.08 -0.08)">
     <defs>
      <path d="M 3359 0 
L 378 0 
L 378 416 
L 1953 2166 
Q 2303 2563 2436 2811 
Q 2569 3059 2569 3325 
Q 2569 3681 2353 3909 
Q 2138 4138 1778 4138 
Q 1347 4138 1108 3892 
Q 869 3647 869 3209 
L 291 3209 
Q 291 3838 695 4225 
Q 1100 4613 1778 4613 
Q 2413 4613 2781 4280 
Q 3150 3947 3150 3394 
Q 3150 2722 2294 1794 
L 1075 472 
L 3359 472 
L 3359 0 
z
" id="Roboto-Regular-32" transform="scale(0.015625)"/>
     </defs>
     <use xlink:href="#Roboto-Regular-43"/>
     <use x="65.087891" xlink:href="#Roboto-Regular-43"/>
     <use x="130.175781" xlink:href="#Roboto-Regular-44"/>
     <use x="195.751953" xlink:href="#Roboto-Regular-20"/>
     <use x="220.507812" xlink:href="#Roboto-Regular-32"/>
    </g>
    <!-- mean S/N=50 -->
    <g style="fill:#ffffff;" transform="translate(276.08077 31.300306)scale(0.08 -0.08)">
     <use xlink:href="#Roboto-Regular-6d"/>
     <use x="87.646484" xlink:href="#Roboto-Regular-65"/>
     <use x="140.625" xlink:href="#Roboto-Regular-61"/>
     <use x="195.019531" xlink:href="#Roboto-Regular-6e"/>
     <use x="250.195312" xlink:href="#Roboto-Regular-20"/>
     <use x="274.951172" xlink:href="#Roboto-Regular-53"/>
     <use x="334.277344" xlink:href="#Roboto-Regular-2f"/>
     <use x="375.488281" xlink:href="#Roboto-Regular-4e"/>
     <use x="446.777344" xlink:href="#Roboto-Regular-3d"/>
     <use x="501.660156" xlink:href="#Roboto-Regular-35"/>
     <use x="557.8125" xlink:href="#Roboto-Regular-30"/>
    </g>
   </g>
  </g>
  <g id="axes_3">
   <g id="patch_20">
    <path d="M 43.434375 186.347622 
L 183.166707 186.347622 
L 183.166707 103.601088 
L 43.434375 103.601088 
z
"/>
   </g>
   <g id="patch_21">
    <path clip-path="url(#p933b28d722)" d="M 43.15435 15644.713343 
L 43.15435 136.226949 
L 44.554474 136.226949 
L 44.554474 131.975274 
L 45.954597 131.975274 
L 45.954597 127.024858 
L 47.354721 127.024858 
L 47.354721 122.921505 
L 48.754845 122.921505 
L 48.754845 119.44401 
L 50.154968 119.44401 
L 50.154968 116.610859 
L 51.555092 116.610859 
L 51.555092 114.19388 
L 52.955215 114.19388 
L 52.955215 112.669294 
L 54.355339 112.669294 
L 54.355339 111.5653 
L 55.755462 111.5653 
L 55.755462 111.086934 
L 57.155586 111.086934 
L 57.155586 110.986065 
L 58.55571 110.986065 
L 58.55571 111.312282 
L 59.955833 111.312282 
L 59.955833 111.823952 
L 61.355957 111.823952 
L 61.355957 112.686683 
L 62.75608 112.686683 
L 62.75608 113.588483 
L 64.156204 113.588483 
L 64.156204 114.55623 
L 65.556327 114.55623 
L 65.556327 115.420168 
L 66.956451 115.420168 
L 66.956451 116.302435 
L 68.356575 116.302435 
L 68.356575 117.242566 
L 69.756698 117.242566 
L 69.756698 118.234022 
L 71.156822 118.234022 
L 71.156822 119.270704 
L 72.556945 119.270704 
L 72.556945 120.221106 
L 73.957069 120.221106 
L 73.957069 121.336622 
L 75.357192 121.336622 
L 75.357192 122.523596 
L 76.757316 122.523596 
L 76.757316 123.655506 
L 78.15744 123.655506 
L 78.15744 124.844653 
L 79.557563 124.844653 
L 79.557563 126.018404 
L 80.957687 126.018404 
L 80.957687 126.983881 
L 82.35781 126.983881 
L 82.35781 128.332921 
L 83.757934 128.332921 
L 83.757934 129.443745 
L 85.158057 129.443745 
L 85.158057 130.706961 
L 86.558181 130.706961 
L 86.558181 131.911151 
L 87.958305 131.911151 
L 87.958305 132.993731 
L 89.358428 132.993731 
L 89.358428 134.169892 
L 90.758552 134.169892 
L 90.758552 134.931106 
L 92.158675 134.931106 
L 92.158675 136.001544 
L 93.558799 136.001544 
L 93.558799 136.8186 
L 94.958922 136.8186 
L 94.958922 137.877097 
L 96.359046 137.877097 
L 96.359046 138.547354 
L 97.75917 138.547354 
L 97.75917 139.574561 
L 99.159293 139.574561 
L 99.159293 140.604154 
L 100.559417 140.604154 
L 100.559417 141.370864 
L 101.95954 141.370864 
L 101.95954 141.697771 
L 103.359664 141.697771 
L 103.359664 142.804349 
L 104.759787 142.804349 
L 104.759787 143.483985 
L 106.159911 143.483985 
L 106.159911 144.195909 
L 107.560035 144.195909 
L 107.560035 145.143269 
L 108.960158 145.143269 
L 108.960158 145.067391 
L 110.360282 145.067391 
L 110.360282 146.94078 
L 111.760405 146.94078 
L 111.760405 147.494919 
L 113.160529 147.494919 
L 113.160529 148.138549 
L 114.560652 148.138549 
L 114.560652 148.676045 
L 115.960776 148.676045 
L 115.960776 149.167069 
L 117.3609 149.167069 
L 117.3609 148.984334 
L 118.761023 148.984334 
L 118.761023 149.747152 
L 120.161147 149.747152 
L 120.161147 150.163727 
L 121.56127 150.163727 
L 121.56127 150.494045 
L 122.961394 150.494045 
L 122.961394 152.149483 
L 124.361517 152.149483 
L 124.361517 152.006602 
L 125.761641 152.006602 
L 125.761641 153.160597 
L 127.161765 153.160597 
L 127.161765 153.505037 
L 128.561888 153.505037 
L 128.561888 154.872228 
L 129.962012 154.872228 
L 129.962012 154.452397 
L 131.362135 154.452397 
L 131.362135 154.764784 
L 132.762259 154.764784 
L 132.762259 155.092416 
L 134.162382 155.092416 
L 134.162382 157.487529 
L 135.562506 157.487529 
L 135.562506 156.45239 
L 136.96263 156.45239 
L 136.96263 156.732227 
L 138.362753 156.732227 
L 138.362753 157.815161 
L 139.762877 157.815161 
L 139.762877 160.210275 
L 141.163 160.210275 
L 141.163 158.906494 
L 142.563124 158.906494 
L 142.563124 160.454488 
L 143.963247 160.454488 
L 143.963247 160.454488 
L 145.363371 160.454488 
L 145.363371 162.814165 
L 146.763495 162.814165 
L 146.763495 161.531207 
L 148.163618 161.531207 
L 148.163618 160.97129 
L 149.563742 160.97129 
L 149.563742 160.97129 
L 150.963865 160.97129 
L 150.963865 164.864839 
L 152.363989 164.864839 
L 152.363989 165.899978 
L 153.764112 165.899978 
L 153.764112 165.899978 
L 155.164236 165.899978 
L 155.164236 164.401544 
L 156.56436 164.401544 
L 156.56436 167.124289 
L 157.964483 167.124289 
L 157.964483 164.864839 
L 159.364607 164.864839 
L 159.364607 168.622724 
L 160.76473 168.622724 
L 160.76473 165.362482 
L 162.164854 165.362482 
L 162.164854 165.362482 
L 163.564977 165.362482 
L 163.564977 168.622724 
L 164.965101 168.622724 
L 164.965101 167.124289 
L 166.365225 167.124289 
L 166.365225 167.831797 
L 167.765348 167.831797 
L 167.765348 170.554542 
L 169.165472 170.554542 
L 169.165472 167.124289 
L 170.565595 167.124289 
L 170.565595 170.554542 
L 171.965719 170.554542 
L 171.965719 173.277288 
L 173.365842 173.277288 
L 173.365842 173.277288 
L 174.765966 173.277288 
L 174.765966 171.778853 
L 176.16609 171.778853 
L 176.16609 182.586416 
L 177.566213 182.586416 
L 177.566213 170.554542 
L 178.966337 170.554542 
L 178.966337 177.931852 
L 180.36646 177.931852 
L 180.36646 15644.713343 
L 181.766584 15644.713343 
L 181.766584 175.209106 
L 183.166708 175.209106 
L 183.166708 177.931852 
L 184.566831 177.931852 
L 184.566831 175.209106 
L 185.966955 175.209106 
L 185.966955 175.209106 
L 187.367078 175.209106 
L 187.367078 177.931852 
L 188.767202 177.931852 
L 188.767202 15644.713343 
L 190.167325 15644.713343 
L 190.167325 177.931852 
L 191.567449 177.931852 
L 191.567449 177.931852 
L 192.967573 177.931852 
L 192.967573 15644.713343 
L 194.367696 15644.713343 
L 194.367696 182.586416 
L 195.76782 182.586416 
L 195.76782 15644.713343 
L 194.367696 15644.713343 
L 194.367696 15644.713343 
L 192.967573 15644.713343 
L 192.967573 15644.713343 
L 191.567449 15644.713343 
L 191.567449 15644.713343 
L 190.167325 15644.713343 
L 190.167325 15644.713343 
L 188.767202 15644.713343 
L 188.767202 15644.713343 
L 187.367078 15644.713343 
L 187.367078 15644.713343 
L 185.966955 15644.713343 
L 185.966955 15644.713343 
L 184.566831 15644.713343 
L 184.566831 15644.713343 
L 183.166708 15644.713343 
L 183.166708 15644.713343 
L 181.766584 15644.713343 
L 181.766584 15644.713343 
L 180.36646 15644.713343 
L 180.36646 15644.713343 
L 178.966337 15644.713343 
L 178.966337 15644.713343 
L 177.566213 15644.713343 
L 177.566213 15644.713343 
L 176.16609 15644.713343 
L 176.16609 15644.713343 
L 174.765966 15644.713343 
L 174.765966 15644.713343 
L 173.365842 15644.713343 
L 173.365842 15644.713343 
L 171.965719 15644.713343 
L 171.965719 15644.713343 
L 170.565595 15644.713343 
L 170.565595 15644.713343 
L 169.165472 15644.713343 
L 169.165472 15644.713343 
L 167.765348 15644.713343 
L 167.765348 15644.713343 
L 166.365225 15644.713343 
L 166.365225 15644.713343 
L 164.965101 15644.713343 
L 164.965101 15644.713343 
L 163.564977 15644.713343 
L 163.564977 15644.713343 
L 162.164854 15644.713343 
L 162.164854 15644.713343 
L 160.76473 15644.713343 
L 160.76473 15644.713343 
L 159.364607 15644.713343 
L 159.364607 15644.713343 
L 157.964483 15644.713343 
L 157.964483 15644.713343 
L 156.56436 15644.713343 
L 156.56436 15644.713343 
L 155.164236 15644.713343 
L 155.164236 15644.713343 
L 153.764112 15644.713343 
L 153.764112 15644.713343 
L 152.363989 15644.713343 
L 152.363989 15644.713343 
L 150.963865 15644.713343 
L 150.963865 15644.713343 
L 149.563742 15644.713343 
L 149.563742 15644.713343 
L 148.163618 15644.713343 
L 148.163618 15644.713343 
L 146.763495 15644.713343 
L 146.763495 15644.713343 
L 145.363371 15644.713343 
L 145.363371 15644.713343 
L 143.963247 15644.713343 
L 143.963247 15644.713343 
L 142.563124 15644.713343 
L 142.563124 15644.713343 
L 141.163 15644.713343 
L 141.163 15644.713343 
L 139.762877 15644.713343 
L 139.762877 15644.713343 
L 138.362753 15644.713343 
L 138.362753 15644.713343 
L 136.96263 15644.713343 
L 136.96263 15644.713343 
L 135.562506 15644.713343 
L 135.562506 15644.713343 
L 134.162382 15644.713343 
L 134.162382 15644.713343 
L 132.762259 15644.713343 
L 132.762259 15644.713343 
L 131.362135 15644.713343 
L 131.362135 15644.713343 
L 129.962012 15644.713343 
L 129.962012 15644.713343 
L 128.561888 15644.713343 
L 128.561888 15644.713343 
L 127.161765 15644.713343 
L 127.161765 15644.713343 
L 125.761641 15644.713343 
L 125.761641 15644.713343 
L 124.361517 15644.713343 
L 124.361517 15644.713343 
L 122.961394 15644.713343 
L 122.961394 15644.713343 
L 121.56127 15644.713343 
L 121.56127 15644.713343 
L 120.161147 15644.713343 
L 120.161147 15644.713343 
L 118.761023 15644.713343 
L 118.761023 15644.713343 
L 117.3609 15644.713343 
L 117.3609 15644.713343 
L 115.960776 15644.713343 
L 115.960776 15644.713343 
L 114.560652 15644.713343 
L 114.560652 15644.713343 
L 113.160529 15644.713343 
L 113.160529 15644.713343 
L 111.760405 15644.713343 
L 111.760405 15644.713343 
L 110.360282 15644.713343 
L 110.360282 15644.713343 
L 108.960158 15644.713343 
L 108.960158 15644.713343 
L 107.560035 15644.713343 
L 107.560035 15644.713343 
L 106.159911 15644.713343 
L 106.159911 15644.713343 
L 104.759787 15644.713343 
L 104.759787 15644.713343 
L 103.359664 15644.713343 
L 103.359664 15644.713343 
L 101.95954 15644.713343 
L 101.95954 15644.713343 
L 100.559417 15644.713343 
L 100.559417 15644.713343 
L 99.159293 15644.713343 
L 99.159293 15644.713343 
L 97.75917 15644.713343 
L 97.75917 15644.713343 
L 96.359046 15644.713343 
L 96.359046 15644.713343 
L 94.958922 15644.713343 
L 94.958922 15644.713343 
L 93.558799 15644.713343 
L 93.558799 15644.713343 
L 92.158675 15644.713343 
L 92.158675 15644.713343 
L 90.758552 15644.713343 
L 90.758552 15644.713343 
L 89.358428 15644.713343 
L 89.358428 15644.713343 
L 87.958305 15644.713343 
L 87.958305 15644.713343 
L 86.558181 15644.713343 
L 86.558181 15644.713343 
L 85.158057 15644.713343 
L 85.158057 15644.713343 
L 83.757934 15644.713343 
L 83.757934 15644.713343 
L 82.35781 15644.713343 
L 82.35781 15644.713343 
L 80.957687 15644.713343 
L 80.957687 15644.713343 
L 79.557563 15644.713343 
L 79.557563 15644.713343 
L 78.15744 15644.713343 
L 78.15744 15644.713343 
L 76.757316 15644.713343 
L 76.757316 15644.713343 
L 75.357192 15644.713343 
L 75.357192 15644.713343 
L 73.957069 15644.713343 
L 73.957069 15644.713343 
L 72.556945 15644.713343 
L 72.556945 15644.713343 
L 71.156822 15644.713343 
L 71.156822 15644.713343 
L 69.756698 15644.713343 
L 69.756698 15644.713343 
L 68.356575 15644.713343 
L 68.356575 15644.713343 
L 66.956451 15644.713343 
L 66.956451 15644.713343 
L 65.556327 15644.713343 
L 65.556327 15644.713343 
L 64.156204 15644.713343 
L 64.156204 15644.713343 
L 62.75608 15644.713343 
L 62.75608 15644.713343 
L 61.355957 15644.713343 
L 61.355957 15644.713343 
L 59.955833 15644.713343 
L 59.955833 15644.713343 
L 58.55571 15644.713343 
L 58.55571 15644.713343 
L 57.155586 15644.713343 
L 57.155586 15644.713343 
L 55.755462 15644.713343 
L 55.755462 15644.713343 
L 54.355339 15644.713343 
L 54.355339 15644.713343 
L 52.955215 15644.713343 
L 52.955215 15644.713343 
L 51.555092 15644.713343 
L 51.555092 15644.713343 
L 50.154968 15644.713343 
L 50.154968 15644.713343 
L 48.754845 15644.713343 
L 48.754845 15644.713343 
L 47.354721 15644.713343 
L 47.354721 15644.713343 
L 45.954597 15644.713343 
L 45.954597 15644.713343 
L 44.554474 15644.713343 
L 44.554474 15644.713343 
z
" style="fill:#fa8174;opacity:0.8;"/>
   </g>
   <g id="matplotlib.axis_5">
    <g id="xtick_5">
     <g id="line2d_13">
      <g>
       <use style="fill:#ffffff;stroke:#ffffff;stroke-width:0.8;" x="99.159293" xlink:href="#m11699e3bc0" y="186.347622"/>
      </g>
     </g>
     <g id="text_7">
      <!-- 200 -->
      <g style="fill:#ffffff;" transform="translate(90.735856 200.847622)scale(0.1 -0.1)">
       <use xlink:href="#Roboto-Regular-32"/>
       <use x="56.152344" xlink:href="#Roboto-Regular-30"/>
       <use x="112.304688" xlink:href="#Roboto-Regular-30"/>
      </g>
     </g>
    </g>
    <g id="xtick_6">
     <g id="line2d_14">
      <g>
       <use style="fill:#ffffff;stroke:#ffffff;stroke-width:0.8;" x="155.164236" xlink:href="#m11699e3bc0" y="186.347622"/>
      </g>
     </g>
     <g id="text_8">
      <!-- 400 -->
      <g style="fill:#ffffff;" transform="translate(146.740799 200.847622)scale(0.1 -0.1)">
       <use xlink:href="#Roboto-Regular-34"/>
       <use x="56.152344" xlink:href="#Roboto-Regular-30"/>
       <use x="112.304688" xlink:href="#Roboto-Regular-30"/>
      </g>
     </g>
    </g>
    <g id="text_9">
     <!-- S/N (per pixel) -->
     <g style="fill:#ffffff;" transform="translate(81.279448 214.900747)scale(0.1 -0.1)">
      <defs>
       <path d="M 416 1847 
Q 416 2553 605 3203 
Q 794 3853 1169 4384 
Q 1544 4916 1947 5134 
L 2066 4753 
Q 1609 4403 1317 3684 
Q 1025 2966 997 2075 
L 994 1809 
Q 994 603 1434 -284 
Q 1700 -816 2066 -1116 
L 1947 -1469 
Q 1531 -1238 1153 -694 
Q 416 369 416 1847 
z
" id="Roboto-Regular-28" transform="scale(0.015625)"/>
       <path d="M 1066 0 
L 488 0 
L 488 3381 
L 1066 3381 
L 1066 0 
z
M 441 4278 
Q 441 4419 527 4516 
Q 613 4613 781 4613 
Q 950 4613 1037 4516 
Q 1125 4419 1125 4278 
Q 1125 4138 1037 4044 
Q 950 3950 781 3950 
Q 613 3950 527 4044 
Q 441 4138 441 4278 
z
" id="Roboto-Regular-69" transform="scale(0.015625)"/>
       <path d="M 1572 2147 
L 2322 3381 
L 2997 3381 
L 1891 1709 
L 3031 0 
L 2363 0 
L 1581 1266 
L 800 0 
L 128 0 
L 1269 1709 
L 163 3381 
L 831 3381 
L 1572 2147 
z
" id="Roboto-Regular-78" transform="scale(0.015625)"/>
       <path d="M 1066 0 
L 488 0 
L 488 4800 
L 1066 4800 
L 1066 0 
z
" id="Roboto-Regular-6c" transform="scale(0.015625)"/>
       <path d="M 1772 1816 
Q 1772 1119 1589 480 
Q 1406 -159 1029 -700 
Q 653 -1241 241 -1469 
L 119 -1116 
Q 600 -747 892 29 
Q 1184 806 1191 1753 
L 1191 1853 
Q 1191 2509 1053 3073 
Q 916 3638 670 4084 
Q 425 4531 119 4781 
L 241 5134 
Q 653 4906 1026 4372 
Q 1400 3838 1586 3194 
Q 1772 2550 1772 1816 
z
" id="Roboto-Regular-29" transform="scale(0.015625)"/>
      </defs>
      <use xlink:href="#Roboto-Regular-53"/>
      <use x="59.326172" xlink:href="#Roboto-Regular-2f"/>
      <use x="100.537109" xlink:href="#Roboto-Regular-4e"/>
      <use x="171.826172" xlink:href="#Roboto-Regular-20"/>
      <use x="196.582031" xlink:href="#Roboto-Regular-28"/>
      <use x="230.761719" xlink:href="#Roboto-Regular-70"/>
      <use x="286.865234" xlink:href="#Roboto-Regular-65"/>
      <use x="339.84375" xlink:href="#Roboto-Regular-72"/>
      <use x="373.681641" xlink:href="#Roboto-Regular-20"/>
      <use x="398.4375" xlink:href="#Roboto-Regular-70"/>
      <use x="454.541016" xlink:href="#Roboto-Regular-69"/>
      <use x="478.808594" xlink:href="#Roboto-Regular-78"/>
      <use x="528.369141" xlink:href="#Roboto-Regular-65"/>
      <use x="581.347656" xlink:href="#Roboto-Regular-6c"/>
      <use x="605.615234" xlink:href="#Roboto-Regular-29"/>
     </g>
    </g>
   </g>
   <g id="matplotlib.axis_6">
    <g id="ytick_7">
     <g id="line2d_15">
      <g>
       <use style="fill:#ffffff;stroke:#ffffff;stroke-width:0.8;" x="43.434375" xlink:href="#m064ff01492" y="167.124289"/>
      </g>
     </g>
     <g id="text_10">
      <!-- $\mathdefault{10^{1}}$ -->
      <g style="fill:#ffffff;" transform="translate(20.834375 170.874289)scale(0.1 -0.1)">
       <use transform="translate(0 0.014063)" xlink:href="#Roboto-Regular-31"/>
       <use transform="translate(56.152344 0.014063)" xlink:href="#Roboto-Regular-30"/>
       <use transform="translate(113.22918 36.99375)scale(0.7)" xlink:href="#Roboto-Regular-31"/>
      </g>
     </g>
    </g>
    <g id="ytick_8">
     <g id="line2d_16">
      <g>
       <use style="fill:#ffffff;stroke:#ffffff;stroke-width:0.8;" x="43.434375" xlink:href="#m064ff01492" y="136.200035"/>
      </g>
     </g>
     <g id="text_11">
      <!-- $\mathdefault{10^{3}}$ -->
      <g style="fill:#ffffff;" transform="translate(20.834375 139.950035)scale(0.1 -0.1)">
       <use transform="translate(0 0.565625)" xlink:href="#Roboto-Regular-31"/>
       <use transform="translate(56.152344 0.565625)" xlink:href="#Roboto-Regular-30"/>
       <use transform="translate(113.22918 37.545313)scale(0.7)" xlink:href="#Roboto-Regular-33"/>
      </g>
     </g>
    </g>
    <g id="ytick_9">
     <g id="line2d_17">
      <g>
       <use style="fill:#ffffff;stroke:#ffffff;stroke-width:0.8;" x="43.434375" xlink:href="#m064ff01492" y="105.275781"/>
      </g>
     </g>
     <g id="text_12">
      <!-- $\mathdefault{10^{5}}$ -->
      <g style="fill:#ffffff;" transform="translate(20.834375 109.025781)scale(0.1 -0.1)">
       <use transform="translate(0 0.254688)" xlink:href="#Roboto-Regular-31"/>
       <use transform="translate(56.152344 0.254688)" xlink:href="#Roboto-Regular-30"/>
       <use transform="translate(113.22918 37.234375)scale(0.7)" xlink:href="#Roboto-Regular-35"/>
      </g>
     </g>
    </g>
    <g id="text_13">
     <!-- Number of spectra -->
     <g style="fill:#ffffff;" transform="translate(14.803125 186.582167)rotate(-90)scale(0.1 -0.1)">
      <use xlink:href="#Roboto-Regular-4e"/>
      <use x="71.289062" xlink:href="#Roboto-Regular-75"/>
      <use x="126.416016" xlink:href="#Roboto-Regular-6d"/>
      <use x="214.0625" xlink:href="#Roboto-Regular-62"/>
      <use x="270.166016" xlink:href="#Roboto-Regular-65"/>
      <use x="323.144531" xlink:href="#Roboto-Regular-72"/>
      <use x="356.982422" xlink:href="#Roboto-Regular-20"/>
      <use x="381.738281" xlink:href="#Roboto-Regular-6f"/>
      <use x="438.769531" xlink:href="#Roboto-Regular-66"/>
      <use x="473.486328" xlink:href="#Roboto-Regular-20"/>
      <use x="498.242188" xlink:href="#Roboto-Regular-73"/>
      <use x="549.804688" xlink:href="#Roboto-Regular-70"/>
      <use x="605.908203" xlink:href="#Roboto-Regular-65"/>
      <use x="658.886719" xlink:href="#Roboto-Regular-63"/>
      <use x="711.230469" xlink:href="#Roboto-Regular-74"/>
      <use x="743.896484" xlink:href="#Roboto-Regular-72"/>
      <use x="777.734375" xlink:href="#Roboto-Regular-61"/>
     </g>
    </g>
   </g>
   <g id="patch_22">
    <path clip-path="url(#p933b28d722)" d="M 43.15435 225.396059 
L 43.15435 133.446025 
L 44.554474 133.446025 
L 44.554474 136.544476 
L 45.954597 136.544476 
L 45.954597 138.711263 
L 47.354721 138.711263 
L 47.354721 137.757486 
L 48.754845 137.757486 
L 48.754845 135.936663 
L 50.154968 135.936663 
L 50.154968 134.739311 
L 51.555092 134.739311 
L 51.555092 133.864276 
L 52.955215 133.864276 
L 52.955215 132.85765 
L 54.355339 132.85765 
L 54.355339 132.53488 
L 57.155586 132.632856 
L 57.155586 132.768439 
L 58.55571 132.768439 
L 58.55571 133.691064 
L 59.955833 133.691064 
L 59.955833 134.685503 
L 61.355957 134.685503 
L 61.355957 135.821435 
L 62.75608 135.821435 
L 62.75608 136.47416 
L 64.156204 136.47416 
L 64.156204 137.673335 
L 65.556327 137.673335 
L 65.556327 138.809583 
L 66.956451 138.809583 
L 66.956451 139.98652 
L 68.356575 139.98652 
L 68.356575 140.949275 
L 69.756698 140.949275 
L 69.756698 141.667386 
L 71.156822 141.667386 
L 71.156822 142.768535 
L 72.556945 142.768535 
L 72.556945 144.466353 
L 73.957069 144.466353 
L 73.957069 145.590232 
L 75.357192 145.590232 
L 75.357192 145.896149 
L 76.757316 145.896149 
L 76.757316 148.138549 
L 78.15744 148.138549 
L 78.15744 148.939417 
L 79.557563 148.939417 
L 79.557563 150.494045 
L 80.957687 150.494045 
L 80.957687 151.463671 
L 82.35781 151.463671 
L 82.35781 154.25193 
L 83.757934 154.25193 
L 83.757934 152.077663 
L 85.158057 152.077663 
L 85.158057 154.351416 
L 86.558181 154.351416 
L 86.558181 159.313596 
L 87.958305 159.313596 
L 87.958305 160.454488 
L 89.358428 160.454488 
L 89.358428 159.313596 
L 90.758552 159.313596 
L 90.758552 159.526792 
L 92.158675 159.526792 
L 92.158675 162.814165 
L 93.558799 162.814165 
L 93.558799 162.469725 
L 94.958922 162.469725 
L 94.958922 168.622724 
L 96.359046 168.622724 
L 96.359046 166.48427 
L 99.159293 166.48427 
L 99.159293 173.277288 
L 100.559417 173.277288 
L 100.559417 170.554542 
L 101.95954 170.554542 
L 101.95954 173.277288 
L 104.759787 173.277288 
L 104.759787 170.554542 
L 107.560035 170.554542 
L 107.560035 175.209106 
L 108.960158 175.209106 
L 108.960158 171.778853 
L 110.360282 171.778853 
L 110.360282 175.209106 
L 111.760405 175.209106 
L 111.760405 171.778853 
L 113.160529 171.778853 
L 113.160529 177.931852 
L 114.560652 177.931852 
L 114.560652 171.778853 
L 115.960776 171.778853 
L 115.960776 177.931852 
L 117.3609 177.931852 
L 117.3609 173.277288 
L 120.161147 173.277288 
L 120.161147 177.931852 
L 124.361517 177.931852 
L 124.361517 175.209106 
L 125.761641 175.209106 
L 125.761641 173.277288 
L 127.161765 173.277288 
L 127.161765 177.931852 
L 128.561888 177.931852 
L 128.561888 182.586416 
L 129.962012 182.586416 
L 129.962012 173.277288 
L 131.362135 173.277288 
L 131.362135 225.396059 
M 132.762259 225.396059 
L 132.762259 175.209106 
L 134.162382 175.209106 
L 134.162382 182.586416 
L 136.96263 182.586416 
L 136.96263 225.396059 
M 138.362753 225.396059 
L 138.362753 177.931852 
L 139.762877 177.931852 
L 139.762877 225.396059 
M 145.363371 225.396059 
L 145.363371 177.931852 
L 146.763495 177.931852 
L 146.763495 225.396059 
M 148.163618 225.396059 
L 148.163618 182.586416 
L 149.563742 182.586416 
L 149.563742 225.396059 
M 150.963865 225.396059 
L 150.963865 182.586416 
L 152.363989 182.586416 
L 152.363989 225.396059 
M 153.764112 225.396059 
L 153.764112 182.586416 
L 155.164236 182.586416 
L 155.164236 225.396059 
M 159.364607 225.396059 
L 159.364607 182.586416 
L 160.76473 182.586416 
L 160.76473 225.396059 
M 162.164854 225.396059 
L 162.164854 182.586416 
L 163.564977 182.586416 
L 163.564977 225.396059 
M 174.765966 225.396059 
L 174.765966 182.586416 
L 176.16609 182.586416 
L 176.16609 225.396059 
L 176.16609 225.396059 
" style="fill:none;stroke:#ffffff;stroke-linejoin:miter;"/>
   </g>
   <g id="line2d_18">
    <path clip-path="url(#p933b28d722)" d="M 61.836979 186.347622 
L 61.836979 103.601088 
" style="fill:none;stroke:#ffffff;stroke-dasharray:5.55,2.4;stroke-dashoffset:0;stroke-width:1.5;"/>
   </g>
   <g id="patch_23">
    <path d="M 43.434375 186.347622 
L 43.434375 103.601088 
" style="fill:none;stroke:#ffffff;stroke-linecap:square;stroke-linejoin:miter;stroke-width:0.8;"/>
   </g>
   <g id="patch_24">
    <path d="M 183.166707 186.347622 
L 183.166707 103.601088 
" style="fill:none;stroke:#ffffff;stroke-linecap:square;stroke-linejoin:miter;stroke-width:0.8;"/>
   </g>
   <g id="patch_25">
    <path d="M 43.434375 186.347622 
L 183.166708 186.347622 
" style="fill:none;stroke:#ffffff;stroke-linecap:square;stroke-linejoin:miter;stroke-width:0.8;"/>
   </g>
   <g id="patch_26">
    <path d="M 43.434375 103.601088 
L 183.166708 103.601088 
" style="fill:none;stroke:#ffffff;stroke-linecap:square;stroke-linejoin:miter;stroke-width:0.8;"/>
   </g>
   <g id="patch_27">
    <path d="M 123.647957 130.451088 
L 179.166707 130.451088 
L 179.166707 107.601088 
L 123.647957 107.601088 
z
" style="fill:#ffffff;stroke:#000000;stroke-linejoin:miter;"/>
   </g>
   <g id="text_14">
    <g id="patch_28">
     <path d="M 122.847957 131.251088 
L 179.966707 131.251088 
L 179.966707 106.801088 
L 122.847957 106.801088 
z
" style="stroke:#000000;stroke-linejoin:miter;"/>
    </g>
    <!-- CCD 3 -->
    <g style="fill:#ffffff;" transform="translate(126.847957 116.801088)scale(0.08 -0.08)">
     <use xlink:href="#Roboto-Regular-43"/>
     <use x="65.087891" xlink:href="#Roboto-Regular-43"/>
     <use x="130.175781" xlink:href="#Roboto-Regular-44"/>
     <use x="195.751953" xlink:href="#Roboto-Regular-20"/>
     <use x="220.507812" xlink:href="#Roboto-Regular-33"/>
    </g>
    <!-- mean S/N=67 -->
    <g style="fill:#ffffff;" transform="translate(126.847957 125.626088)scale(0.08 -0.08)">
     <defs>
      <path d="M 2647 4553 
L 2647 4063 
L 2541 4063 
Q 1866 4050 1466 3662 
Q 1066 3275 1003 2572 
Q 1363 2984 1984 2984 
Q 2578 2984 2933 2565 
Q 3288 2147 3288 1484 
Q 3288 781 2905 359 
Q 2522 -63 1878 -63 
Q 1225 -63 819 439 
Q 413 941 413 1731 
L 413 1953 
Q 413 3209 948 3873 
Q 1484 4538 2544 4553 
L 2647 4553 
z
M 1888 2503 
Q 1591 2503 1341 2325 
Q 1091 2147 994 1878 
L 994 1666 
Q 994 1103 1247 759 
Q 1500 416 1878 416 
Q 2269 416 2492 703 
Q 2716 991 2716 1456 
Q 2716 1925 2489 2214 
Q 2263 2503 1888 2503 
z
" id="Roboto-Regular-36" transform="scale(0.015625)"/>
      <path d="M 3316 4225 
L 1431 0 
L 825 0 
L 2703 4075 
L 241 4075 
L 241 4550 
L 3316 4550 
L 3316 4225 
z
" id="Roboto-Regular-37" transform="scale(0.015625)"/>
     </defs>
     <use xlink:href="#Roboto-Regular-6d"/>
     <use x="87.646484" xlink:href="#Roboto-Regular-65"/>
     <use x="140.625" xlink:href="#Roboto-Regular-61"/>
     <use x="195.019531" xlink:href="#Roboto-Regular-6e"/>
     <use x="250.195312" xlink:href="#Roboto-Regular-20"/>
     <use x="274.951172" xlink:href="#Roboto-Regular-53"/>
     <use x="334.277344" xlink:href="#Roboto-Regular-2f"/>
     <use x="375.488281" xlink:href="#Roboto-Regular-4e"/>
     <use x="446.777344" xlink:href="#Roboto-Regular-3d"/>
     <use x="501.660156" xlink:href="#Roboto-Regular-36"/>
     <use x="557.8125" xlink:href="#Roboto-Regular-37"/>
    </g>
   </g>
  </g>
  <g id="axes_4">
   <g id="patch_29">
    <path d="M 192.667188 186.347622 
L 332.39952 186.347622 
L 332.39952 103.601088 
L 192.667188 103.601088 
z
"/>
   </g>
   <g id="patch_30">
    <path clip-path="url(#pfd06e6a699)" d="M 192.387163 15644.713343 
L 192.387163 141.977608 
L 193.787286 141.977608 
L 193.787286 135.511356 
L 195.18741 135.511356 
L 195.18741 128.795919 
L 196.587534 128.795919 
L 196.587534 123.108126 
L 197.987657 123.108126 
L 197.987657 118.509226 
L 199.387781 118.509226 
L 199.387781 115.086108 
L 200.787904 115.086108 
L 200.787904 112.813399 
L 202.188028 112.813399 
L 202.188028 111.279693 
L 203.588151 111.279693 
L 203.588151 110.496689 
L 204.988275 110.496689 
L 204.988275 110.343989 
L 206.388399 110.343989 
L 206.388399 110.73026 
L 207.788522 110.73026 
L 207.788522 111.441383 
L 209.188646 111.441383 
L 209.188646 112.339095 
L 210.588769 112.339095 
L 210.588769 113.388412 
L 211.988893 113.388412 
L 211.988893 114.463529 
L 213.389016 114.463529 
L 213.389016 115.425645 
L 214.78914 115.425645 
L 214.78914 116.586569 
L 216.189264 116.586569 
L 216.189264 117.736313 
L 217.589387 117.736313 
L 217.589387 118.842618 
L 218.989511 118.842618 
L 218.989511 120.132776 
L 220.389634 120.132776 
L 220.389634 121.117785 
L 221.789758 121.117785 
L 221.789758 122.529731 
L 223.189881 122.529731 
L 223.189881 123.813936 
L 224.590005 123.813936 
L 224.590005 124.783046 
L 225.990129 124.783046 
L 225.990129 126.131391 
L 227.390252 126.131391 
L 227.390252 127.465438 
L 228.790376 127.465438 
L 228.790376 128.469561 
L 230.190499 128.469561 
L 230.190499 129.565144 
L 231.590623 129.565144 
L 231.590623 130.748578 
L 232.990746 130.748578 
L 232.990746 131.879317 
L 234.39087 131.879317 
L 234.39087 132.66848 
L 235.790994 132.66848 
L 235.790994 133.499711 
L 237.191117 133.499711 
L 237.191117 134.495291 
L 238.591241 134.495291 
L 238.591241 135.511356 
L 239.991364 135.511356 
L 239.991364 136.551548 
L 241.391488 136.551548 
L 241.391488 137.418976 
L 242.791611 137.418976 
L 242.791611 138.122906 
L 244.191735 138.122906 
L 244.191735 138.604749 
L 245.591859 138.604749 
L 245.591859 139.410101 
L 246.991982 139.410101 
L 246.991982 140.337797 
L 248.392106 140.337797 
L 248.392106 141.031502 
L 249.792229 141.031502 
L 249.792229 142.454524 
L 251.192353 142.454524 
L 251.192353 143.404983 
L 252.592476 143.404983 
L 252.592476 143.935937 
L 253.9926 143.935937 
L 253.9926 143.747357 
L 255.392724 143.747357 
L 255.392724 144.37499 
L 256.792847 144.37499 
L 256.792847 145.067391 
L 258.192971 145.067391 
L 258.192971 146.246583 
L 259.593094 146.246583 
L 259.593094 146.276628 
L 260.993218 146.276628 
L 260.993218 147.866014 
L 262.393341 147.866014 
L 262.393341 148.340219 
L 263.793465 148.340219 
L 263.793465 148.676045 
L 265.193589 148.676045 
L 265.193589 149.848898 
L 266.593712 149.848898 
L 266.593712 150.550713 
L 267.993836 150.550713 
L 267.993836 151.866699 
L 269.393959 151.866699 
L 269.393959 151.207826 
L 270.794083 151.207826 
L 270.794083 151.797826 
L 272.194206 151.797826 
L 272.194206 152.832965 
L 273.59433 152.832965 
L 273.59433 152.753496 
L 274.994454 152.753496 
L 274.994454 152.913387 
L 276.394577 152.913387 
L 276.394577 154.153898 
L 277.794701 154.153898 
L 277.794701 153.962024 
L 279.194824 153.962024 
L 279.194824 155.555711 
L 280.594948 155.555711 
L 280.594948 156.316726 
L 281.995071 156.316726 
L 281.995071 157.329519 
L 283.395195 157.329519 
L 283.395195 156.45239 
L 284.795319 156.45239 
L 284.795319 157.985173 
L 286.195442 157.985173 
L 286.195442 157.985173 
L 287.595566 157.985173 
L 287.595566 157.815161 
L 288.995689 157.815161 
L 288.995689 162.469725 
L 290.395813 162.469725 
L 290.395813 160.97129 
L 291.795936 160.97129 
L 291.795936 159.313596 
L 293.19606 159.313596 
L 293.19606 162.469725 
L 294.596184 162.469725 
L 294.596184 162.814165 
L 295.996307 162.814165 
L 295.996307 165.899978 
L 297.396431 165.899978 
L 297.396431 161.245414 
L 298.796554 161.245414 
L 298.796554 162.142093 
L 300.196678 162.142093 
L 300.196678 165.899978 
L 301.596801 165.899978 
L 301.596801 163.96816 
L 302.996925 163.96816 
L 302.996925 165.362482 
L 304.397049 165.362482 
L 304.397049 163.177233 
L 305.797172 163.177233 
L 305.797172 167.124289 
L 307.197296 167.124289 
L 307.197296 169.519403 
L 308.597419 169.519403 
L 308.597419 164.864839 
L 309.997543 164.864839 
L 309.997543 167.124289 
L 311.397666 167.124289 
L 311.397666 170.554542 
L 312.79779 170.554542 
L 312.79779 171.778853 
L 314.197914 171.778853 
L 314.197914 167.831797 
L 315.598037 167.831797 
L 315.598037 170.554542 
L 316.998161 170.554542 
L 316.998161 171.778853 
L 318.398284 171.778853 
L 318.398284 169.519403 
L 319.798408 169.519403 
L 319.798408 165.899978 
L 321.198531 165.899978 
L 321.198531 171.778853 
L 322.598655 171.778853 
L 322.598655 182.586416 
L 323.998779 182.586416 
L 323.998779 177.931852 
L 325.398902 177.931852 
L 325.398902 173.277288 
L 326.799026 173.277288 
L 326.799026 173.277288 
L 328.199149 173.277288 
L 328.199149 169.519403 
L 329.599273 169.519403 
L 329.599273 173.277288 
L 330.999396 173.277288 
L 330.999396 177.931852 
L 332.39952 177.931852 
L 332.39952 177.931852 
L 333.799644 177.931852 
L 333.799644 173.277288 
L 335.199767 173.277288 
L 335.199767 177.931852 
L 336.599891 177.931852 
L 336.599891 175.209106 
L 338.000014 175.209106 
L 338.000014 177.931852 
L 339.400138 177.931852 
L 339.400138 177.931852 
L 340.800261 177.931852 
L 340.800261 177.931852 
L 342.200385 177.931852 
L 342.200385 15644.713343 
L 343.600509 15644.713343 
L 343.600509 15644.713343 
L 345.000632 15644.713343 
L 345.000632 15644.713343 
L 343.600509 15644.713343 
L 343.600509 15644.713343 
L 342.200385 15644.713343 
L 342.200385 15644.713343 
L 340.800261 15644.713343 
L 340.800261 15644.713343 
L 339.400138 15644.713343 
L 339.400138 15644.713343 
L 338.000014 15644.713343 
L 338.000014 15644.713343 
L 336.599891 15644.713343 
L 336.599891 15644.713343 
L 335.199767 15644.713343 
L 335.199767 15644.713343 
L 333.799644 15644.713343 
L 333.799644 15644.713343 
L 332.39952 15644.713343 
L 332.39952 15644.713343 
L 330.999396 15644.713343 
L 330.999396 15644.713343 
L 329.599273 15644.713343 
L 329.599273 15644.713343 
L 328.199149 15644.713343 
L 328.199149 15644.713343 
L 326.799026 15644.713343 
L 326.799026 15644.713343 
L 325.398902 15644.713343 
L 325.398902 15644.713343 
L 323.998779 15644.713343 
L 323.998779 15644.713343 
L 322.598655 15644.713343 
L 322.598655 15644.713343 
L 321.198531 15644.713343 
L 321.198531 15644.713343 
L 319.798408 15644.713343 
L 319.798408 15644.713343 
L 318.398284 15644.713343 
L 318.398284 15644.713343 
L 316.998161 15644.713343 
L 316.998161 15644.713343 
L 315.598037 15644.713343 
L 315.598037 15644.713343 
L 314.197914 15644.713343 
L 314.197914 15644.713343 
L 312.79779 15644.713343 
L 312.79779 15644.713343 
L 311.397666 15644.713343 
L 311.397666 15644.713343 
L 309.997543 15644.713343 
L 309.997543 15644.713343 
L 308.597419 15644.713343 
L 308.597419 15644.713343 
L 307.197296 15644.713343 
L 307.197296 15644.713343 
L 305.797172 15644.713343 
L 305.797172 15644.713343 
L 304.397049 15644.713343 
L 304.397049 15644.713343 
L 302.996925 15644.713343 
L 302.996925 15644.713343 
L 301.596801 15644.713343 
L 301.596801 15644.713343 
L 300.196678 15644.713343 
L 300.196678 15644.713343 
L 298.796554 15644.713343 
L 298.796554 15644.713343 
L 297.396431 15644.713343 
L 297.396431 15644.713343 
L 295.996307 15644.713343 
L 295.996307 15644.713343 
L 294.596184 15644.713343 
L 294.596184 15644.713343 
L 293.19606 15644.713343 
L 293.19606 15644.713343 
L 291.795936 15644.713343 
L 291.795936 15644.713343 
L 290.395813 15644.713343 
L 290.395813 15644.713343 
L 288.995689 15644.713343 
L 288.995689 15644.713343 
L 287.595566 15644.713343 
L 287.595566 15644.713343 
L 286.195442 15644.713343 
L 286.195442 15644.713343 
L 284.795319 15644.713343 
L 284.795319 15644.713343 
L 283.395195 15644.713343 
L 283.395195 15644.713343 
L 281.995071 15644.713343 
L 281.995071 15644.713343 
L 280.594948 15644.713343 
L 280.594948 15644.713343 
L 279.194824 15644.713343 
L 279.194824 15644.713343 
L 277.794701 15644.713343 
L 277.794701 15644.713343 
L 276.394577 15644.713343 
L 276.394577 15644.713343 
L 274.994454 15644.713343 
L 274.994454 15644.713343 
L 273.59433 15644.713343 
L 273.59433 15644.713343 
L 272.194206 15644.713343 
L 272.194206 15644.713343 
L 270.794083 15644.713343 
L 270.794083 15644.713343 
L 269.393959 15644.713343 
L 269.393959 15644.713343 
L 267.993836 15644.713343 
L 267.993836 15644.713343 
L 266.593712 15644.713343 
L 266.593712 15644.713343 
L 265.193589 15644.713343 
L 265.193589 15644.713343 
L 263.793465 15644.713343 
L 263.793465 15644.713343 
L 262.393341 15644.713343 
L 262.393341 15644.713343 
L 260.993218 15644.713343 
L 260.993218 15644.713343 
L 259.593094 15644.713343 
L 259.593094 15644.713343 
L 258.192971 15644.713343 
L 258.192971 15644.713343 
L 256.792847 15644.713343 
L 256.792847 15644.713343 
L 255.392724 15644.713343 
L 255.392724 15644.713343 
L 253.9926 15644.713343 
L 253.9926 15644.713343 
L 252.592476 15644.713343 
L 252.592476 15644.713343 
L 251.192353 15644.713343 
L 251.192353 15644.713343 
L 249.792229 15644.713343 
L 249.792229 15644.713343 
L 248.392106 15644.713343 
L 248.392106 15644.713343 
L 246.991982 15644.713343 
L 246.991982 15644.713343 
L 245.591859 15644.713343 
L 245.591859 15644.713343 
L 244.191735 15644.713343 
L 244.191735 15644.713343 
L 242.791611 15644.713343 
L 242.791611 15644.713343 
L 241.391488 15644.713343 
L 241.391488 15644.713343 
L 239.991364 15644.713343 
L 239.991364 15644.713343 
L 238.591241 15644.713343 
L 238.591241 15644.713343 
L 237.191117 15644.713343 
L 237.191117 15644.713343 
L 235.790994 15644.713343 
L 235.790994 15644.713343 
L 234.39087 15644.713343 
L 234.39087 15644.713343 
L 232.990746 15644.713343 
L 232.990746 15644.713343 
L 231.590623 15644.713343 
L 231.590623 15644.713343 
L 230.190499 15644.713343 
L 230.190499 15644.713343 
L 228.790376 15644.713343 
L 228.790376 15644.713343 
L 227.390252 15644.713343 
L 227.390252 15644.713343 
L 225.990129 15644.713343 
L 225.990129 15644.713343 
L 224.590005 15644.713343 
L 224.590005 15644.713343 
L 223.189881 15644.713343 
L 223.189881 15644.713343 
L 221.789758 15644.713343 
L 221.789758 15644.713343 
L 220.389634 15644.713343 
L 220.389634 15644.713343 
L 218.989511 15644.713343 
L 218.989511 15644.713343 
L 217.589387 15644.713343 
L 217.589387 15644.713343 
L 216.189264 15644.713343 
L 216.189264 15644.713343 
L 214.78914 15644.713343 
L 214.78914 15644.713343 
L 213.389016 15644.713343 
L 213.389016 15644.713343 
L 211.988893 15644.713343 
L 211.988893 15644.713343 
L 210.588769 15644.713343 
L 210.588769 15644.713343 
L 209.188646 15644.713343 
L 209.188646 15644.713343 
L 207.788522 15644.713343 
L 207.788522 15644.713343 
L 206.388399 15644.713343 
L 206.388399 15644.713343 
L 204.988275 15644.713343 
L 204.988275 15644.713343 
L 203.588151 15644.713343 
L 203.588151 15644.713343 
L 202.188028 15644.713343 
L 202.188028 15644.713343 
L 200.787904 15644.713343 
L 200.787904 15644.713343 
L 199.387781 15644.713343 
L 199.387781 15644.713343 
L 197.987657 15644.713343 
L 197.987657 15644.713343 
L 196.587534 15644.713343 
L 196.587534 15644.713343 
L 195.18741 15644.713343 
L 195.18741 15644.713343 
L 193.787286 15644.713343 
L 193.787286 15644.713343 
z
" style="fill:#bfbbd9;opacity:0.8;"/>
   </g>
   <g id="matplotlib.axis_7">
    <g id="xtick_7">
     <g id="line2d_19">
      <g>
       <use style="fill:#ffffff;stroke:#ffffff;stroke-width:0.8;" x="248.392106" xlink:href="#m11699e3bc0" y="186.347622"/>
      </g>
     </g>
     <g id="text_15">
      <!-- 200 -->
      <g style="fill:#ffffff;" transform="translate(239.968668 200.847622)scale(0.1 -0.1)">
       <use xlink:href="#Roboto-Regular-32"/>
       <use x="56.152344" xlink:href="#Roboto-Regular-30"/>
       <use x="112.304688" xlink:href="#Roboto-Regular-30"/>
      </g>
     </g>
    </g>
    <g id="xtick_8">
     <g id="line2d_20">
      <g>
       <use style="fill:#ffffff;stroke:#ffffff;stroke-width:0.8;" x="304.397049" xlink:href="#m11699e3bc0" y="186.347622"/>
      </g>
     </g>
     <g id="text_16">
      <!-- 400 -->
      <g style="fill:#ffffff;" transform="translate(295.973611 200.847622)scale(0.1 -0.1)">
       <use xlink:href="#Roboto-Regular-34"/>
       <use x="56.152344" xlink:href="#Roboto-Regular-30"/>
       <use x="112.304688" xlink:href="#Roboto-Regular-30"/>
      </g>
     </g>
    </g>
    <g id="text_17">
     <!-- S/N (per pixel) -->
     <g style="fill:#ffffff;" transform="translate(230.51226 214.900747)scale(0.1 -0.1)">
      <use xlink:href="#Roboto-Regular-53"/>
      <use x="59.326172" xlink:href="#Roboto-Regular-2f"/>
      <use x="100.537109" xlink:href="#Roboto-Regular-4e"/>
      <use x="171.826172" xlink:href="#Roboto-Regular-20"/>
      <use x="196.582031" xlink:href="#Roboto-Regular-28"/>
      <use x="230.761719" xlink:href="#Roboto-Regular-70"/>
      <use x="286.865234" xlink:href="#Roboto-Regular-65"/>
      <use x="339.84375" xlink:href="#Roboto-Regular-72"/>
      <use x="373.681641" xlink:href="#Roboto-Regular-20"/>
      <use x="398.4375" xlink:href="#Roboto-Regular-70"/>
      <use x="454.541016" xlink:href="#Roboto-Regular-69"/>
      <use x="478.808594" xlink:href="#Roboto-Regular-78"/>
      <use x="528.369141" xlink:href="#Roboto-Regular-65"/>
      <use x="581.347656" xlink:href="#Roboto-Regular-6c"/>
      <use x="605.615234" xlink:href="#Roboto-Regular-29"/>
     </g>
    </g>
   </g>
   <g id="matplotlib.axis_8">
    <g id="ytick_10">
     <g id="line2d_21">
      <g>
       <use style="fill:#ffffff;stroke:#ffffff;stroke-width:0.8;" x="192.667188" xlink:href="#m064ff01492" y="167.124289"/>
      </g>
     </g>
    </g>
    <g id="ytick_11">
     <g id="line2d_22">
      <g>
       <use style="fill:#ffffff;stroke:#ffffff;stroke-width:0.8;" x="192.667188" xlink:href="#m064ff01492" y="136.200035"/>
      </g>
     </g>
    </g>
    <g id="ytick_12">
     <g id="line2d_23">
      <g>
       <use style="fill:#ffffff;stroke:#ffffff;stroke-width:0.8;" x="192.667188" xlink:href="#m064ff01492" y="105.275781"/>
      </g>
     </g>
    </g>
   </g>
   <g id="patch_31">
    <path clip-path="url(#pfd06e6a699)" d="M 192.387163 225.396059 
L 192.387163 130.929915 
L 193.787286 130.929915 
L 193.787286 130.595285 
L 195.18741 130.595285 
L 195.18741 129.117868 
L 196.587534 129.117868 
L 196.587534 128.00004 
L 197.987657 128.00004 
L 197.987657 127.617094 
L 199.387781 127.617094 
L 199.387781 127.919335 
L 200.787904 127.919335 
L 200.787904 129.075898 
L 202.188028 129.075898 
L 202.188028 130.226697 
L 203.588151 130.226697 
L 203.588151 131.304737 
L 204.988275 131.304737 
L 204.988275 132.792652 
L 206.388399 132.792652 
L 206.388399 134.012921 
L 207.788522 134.012921 
L 207.788522 135.733159 
L 209.188646 135.733159 
L 209.188646 136.833342 
L 210.588769 136.833342 
L 210.588769 139.165501 
L 211.988893 139.165501 
L 211.988893 139.962958 
L 213.389016 139.962958 
L 213.389016 141.156762 
L 214.78914 141.156762 
L 214.78914 142.750699 
L 216.189264 142.750699 
L 216.189264 144.820484 
L 217.589387 144.820484 
L 217.589387 145.9533 
L 218.989511 145.9533 
L 218.989511 147.904277 
L 220.389634 147.904277 
L 220.389634 148.676045 
L 221.789758 148.676045 
L 221.789758 150.841456 
L 223.189881 150.841456 
L 223.189881 153.962024 
L 224.590005 153.962024 
L 224.590005 154.659032 
L 225.990129 154.659032 
L 225.990129 153.593981 
L 227.390252 153.593981 
L 227.390252 154.981419 
L 228.790376 154.981419 
L 228.790376 156.59085 
L 230.190499 156.59085 
L 230.190499 157.985173 
L 231.590623 157.985173 
L 231.590623 161.829706 
L 232.990746 161.829706 
L 232.990746 158.71184 
L 234.39087 158.71184 
L 234.39087 163.177233 
L 235.790994 163.177233 
L 235.790994 162.814165 
L 237.191117 162.814165 
L 237.191117 164.401544 
L 238.591241 164.401544 
L 238.591241 167.124289 
L 239.991364 167.124289 
L 239.991364 168.622724 
L 241.391488 168.622724 
L 241.391488 167.124289 
L 242.791611 167.124289 
L 242.791611 165.899978 
L 244.191735 165.899978 
L 244.191735 169.519403 
L 245.591859 169.519403 
L 245.591859 170.554542 
L 246.991982 170.554542 
L 246.991982 171.778853 
L 248.392106 171.778853 
L 248.392106 175.209106 
L 249.792229 175.209106 
L 249.792229 177.931852 
L 251.192353 177.931852 
L 251.192353 173.277288 
L 252.592476 173.277288 
L 252.592476 182.586416 
L 253.9926 182.586416 
L 253.9926 170.554542 
L 255.392724 170.554542 
L 255.392724 175.209106 
L 256.792847 175.209106 
L 256.792847 182.586416 
L 260.993218 182.586416 
L 260.993218 175.209106 
L 262.393341 175.209106 
L 262.393341 182.586416 
L 265.193589 182.586416 
L 265.193589 225.396059 
M 269.393959 225.396059 
L 269.393959 171.778853 
L 270.794083 171.778853 
L 270.794083 225.396059 
M 272.194206 225.396059 
L 272.194206 177.931852 
L 273.59433 177.931852 
L 273.59433 225.396059 
M 283.395195 225.396059 
L 283.395195 182.586416 
L 286.195442 182.586416 
L 286.195442 225.396059 
M 287.595566 225.396059 
L 287.595566 182.586416 
L 290.395813 182.586416 
L 290.395813 225.396059 
M 295.996307 225.396059 
L 295.996307 182.586416 
L 298.796554 182.586416 
L 298.796554 225.396059 
M 304.397049 225.396059 
L 304.397049 182.586416 
L 305.797172 182.586416 
L 305.797172 225.396059 
L 305.797172 225.396059 
" style="fill:none;stroke:#ffffff;stroke-linejoin:miter;"/>
   </g>
   <g id="line2d_24">
    <path clip-path="url(#pfd06e6a699)" d="M 209.947165 186.347622 
L 209.947165 103.601088 
" style="fill:none;stroke:#ffffff;stroke-dasharray:5.55,2.4;stroke-dashoffset:0;stroke-width:1.5;"/>
   </g>
   <g id="patch_32">
    <path d="M 192.667188 186.347622 
L 192.667188 103.601088 
" style="fill:none;stroke:#ffffff;stroke-linecap:square;stroke-linejoin:miter;stroke-width:0.8;"/>
   </g>
   <g id="patch_33">
    <path d="M 332.39952 186.347622 
L 332.39952 103.601088 
" style="fill:none;stroke:#ffffff;stroke-linecap:square;stroke-linejoin:miter;stroke-width:0.8;"/>
   </g>
   <g id="patch_34">
    <path d="M 192.667188 186.347622 
L 332.39952 186.347622 
" style="fill:none;stroke:#ffffff;stroke-linecap:square;stroke-linejoin:miter;stroke-width:0.8;"/>
   </g>
   <g id="patch_35">
    <path d="M 192.667188 103.601088 
L 332.39952 103.601088 
" style="fill:none;stroke:#ffffff;stroke-linecap:square;stroke-linejoin:miter;stroke-width:0.8;"/>
   </g>
   <g id="patch_36">
    <path d="M 272.88077 130.451088 
L 328.39952 130.451088 
L 328.39952 107.601088 
L 272.88077 107.601088 
z
" style="fill:#ffffff;stroke:#000000;stroke-linejoin:miter;"/>
   </g>
   <g id="text_18">
    <g id="patch_37">
     <path d="M 272.08077 131.251088 
L 329.19952 131.251088 
L 329.19952 106.801088 
L 272.08077 106.801088 
z
" style="stroke:#000000;stroke-linejoin:miter;"/>
    </g>
    <!-- CCD 4 -->
    <g style="fill:#ffffff;" transform="translate(276.08077 116.801088)scale(0.08 -0.08)">
     <use xlink:href="#Roboto-Regular-43"/>
     <use x="65.087891" xlink:href="#Roboto-Regular-43"/>
     <use x="130.175781" xlink:href="#Roboto-Regular-44"/>
     <use x="195.751953" xlink:href="#Roboto-Regular-20"/>
     <use x="220.507812" xlink:href="#Roboto-Regular-34"/>
    </g>
    <!-- mean S/N=63 -->
    <g style="fill:#ffffff;" transform="translate(276.08077 125.626088)scale(0.08 -0.08)">
     <use xlink:href="#Roboto-Regular-6d"/>
     <use x="87.646484" xlink:href="#Roboto-Regular-65"/>
     <use x="140.625" xlink:href="#Roboto-Regular-61"/>
     <use x="195.019531" xlink:href="#Roboto-Regular-6e"/>
     <use x="250.195312" xlink:href="#Roboto-Regular-20"/>
     <use x="274.951172" xlink:href="#Roboto-Regular-53"/>
     <use x="334.277344" xlink:href="#Roboto-Regular-2f"/>
     <use x="375.488281" xlink:href="#Roboto-Regular-4e"/>
     <use x="446.777344" xlink:href="#Roboto-Regular-3d"/>
     <use x="501.660156" xlink:href="#Roboto-Regular-36"/>
     <use x="557.8125" xlink:href="#Roboto-Regular-33"/>
    </g>
   </g>
  </g>
 </g>
 <defs>
  <clipPath id="p26db9190a8">
   <rect height="82.746534" width="139.732332" x="43.434375" y="9.275306"/>
  </clipPath>
  <clipPath id="p7035f6d7a3">
   <rect height="82.746534" width="139.732333" x="192.667188" y="9.275306"/>
  </clipPath>
  <clipPath id="p933b28d722">
   <rect height="82.746534" width="139.732332" x="43.434375" y="103.601088"/>
  </clipPath>
  <clipPath id="pfd06e6a699">
   <rect height="82.746534" width="139.732333" x="192.667188" y="103.601088"/>
  </clipPath>
 </defs>
</svg>
