<?xml version="1.0" encoding="utf-8" standalone="no"?>
<!DOCTYPE svg PUBLIC "-//W3C//DTD SVG 1.1//EN"
  "http://www.w3.org/Graphics/SVG/1.1/DTD/svg11.dtd">
<svg height="224.39952pt" version="1.1" viewBox="0 0 339.59952 224.39952" width="339.59952pt" xmlns="http://www.w3.org/2000/svg" xmlns:xlink="http://www.w3.org/1999/xlink">
 <metadata>
  <rdf:RDF xmlns:cc="http://creativecommons.org/ns#" xmlns:dc="http://purl.org/dc/elements/1.1/" xmlns:rdf="http://www.w3.org/1999/02/22-rdf-syntax-ns#">
   <cc:Work>
    <dc:type rdf:resource="http://purl.org/dc/dcmitype/StillImage"/>
    <dc:date>2021-08-02T13:38:21.488589</dc:date>
    <dc:format>image/svg+xml</dc:format>
    <dc:creator>
     <cc:Agent>
      <dc:title>Matplotlib v3.4.2, https://matplotlib.org/</dc:title>
     </cc:Agent>
    </dc:creator>
   </cc:Work>
  </rdf:RDF>
 </metadata>
 <defs>
  <style type="text/css">*{stroke-linecap:butt;stroke-linejoin:round;}</style>
 </defs>
 <g id="figure_1">
  <g id="patch_1">
   <path d="M 0 224.39952 
L 339.59952 224.39952 
L 339.59952 0 
L 0 0 
z
"/>
  </g>
  <g id="axes_1">
   <g id="patch_2">
    <path d="M 50.296875 187.13702 
L 321.16827 187.13702 
L 321.16827 7.2 
L 50.296875 7.2 
z
"/>
   </g>
   <g id="patch_3">
    <path clip-path="url(#pfbadacd77c)" d="M 53.7268 187.13702 
L 53.7268 7.2 
L 53.819501 7.2 
L 53.819501 187.13702 
z
" style="fill:#bfbbd9;opacity:0.5;"/>
   </g>
   <g id="patch_4">
    <path clip-path="url(#pfbadacd77c)" d="M 53.7268 187.13702 
L 53.7268 7.2 
L 54.653807 7.2 
L 54.653807 187.13702 
z
" style="fill:#bfbbd9;opacity:0.5;"/>
   </g>
   <g id="patch_5">
    <path clip-path="url(#pfbadacd77c)" d="M 55.951617 187.13702 
L 55.951617 7.2 
L 57.249426 7.2 
L 57.249426 187.13702 
z
" style="fill:#bfbbd9;opacity:0.5;"/>
   </g>
   <g id="patch_6">
    <path clip-path="url(#pfbadacd77c)" d="M 59.381542 187.13702 
L 59.381542 7.2 
L 60.030447 7.2 
L 60.030447 187.13702 
z
" style="fill:#bfbbd9;opacity:0.5;"/>
   </g>
   <g id="patch_7">
    <path clip-path="url(#pfbadacd77c)" d="M 64.758182 187.13702 
L 64.758182 7.2 
L 65.314386 7.2 
L 65.314386 187.13702 
z
" style="fill:#bfbbd9;opacity:0.5;"/>
   </g>
   <g id="patch_8">
    <path clip-path="url(#pfbadacd77c)" d="M 67.631903 187.13702 
L 67.631903 7.2 
L 68.466209 7.2 
L 68.466209 187.13702 
z
" style="fill:#bfbbd9;opacity:0.5;"/>
   </g>
   <g id="patch_9">
    <path clip-path="url(#pfbadacd77c)" d="M 70.320222 187.13702 
L 70.320222 7.2 
L 71.432631 7.2 
L 71.432631 187.13702 
z
" style="fill:#bfbbd9;opacity:0.5;"/>
   </g>
   <g id="patch_10">
    <path clip-path="url(#pfbadacd77c)" d="M 71.988835 187.13702 
L 71.988835 7.2 
L 72.174236 7.2 
L 72.174236 187.13702 
z
" style="fill:#bfbbd9;opacity:0.5;"/>
   </g>
   <g id="patch_11">
    <path clip-path="url(#pfbadacd77c)" d="M 78.385182 187.13702 
L 78.385182 7.2 
L 78.848685 7.2 
L 78.848685 187.13702 
z
" style="fill:#bfbbd9;opacity:0.5;"/>
   </g>
   <g id="patch_12">
    <path clip-path="url(#pfbadacd77c)" d="M 81.166202 187.13702 
L 81.166202 7.2 
L 81.537005 7.2 
L 81.537005 187.13702 
z
" style="fill:#bfbbd9;opacity:0.5;"/>
   </g>
   <g id="patch_13">
    <path clip-path="url(#pfbadacd77c)" d="M 84.039924 187.13702 
L 84.039924 7.2 
L 85.245032 7.2 
L 85.245032 187.13702 
z
" style="fill:#bfbbd9;opacity:0.5;"/>
   </g>
   <g id="patch_14">
    <path clip-path="url(#pfbadacd77c)" d="M 87.284447 187.13702 
L 87.284447 7.2 
L 88.026053 7.2 
L 88.026053 187.13702 
z
" style="fill:#bfbbd9;opacity:0.5;"/>
   </g>
   <g id="patch_15">
    <path clip-path="url(#pfbadacd77c)" d="M 92.290284 187.13702 
L 92.290284 7.2 
L 93.680795 7.2 
L 93.680795 187.13702 
z
" style="fill:#bfbbd9;opacity:0.5;"/>
   </g>
   <g id="patch_16">
    <path clip-path="url(#pfbadacd77c)" d="M 94.793203 187.13702 
L 94.793203 7.2 
L 95.627509 7.2 
L 95.627509 187.13702 
z
" style="fill:#bfbbd9;opacity:0.5;"/>
   </g>
   <g id="patch_17">
    <path clip-path="url(#pfbadacd77c)" d="M 97.759625 187.13702 
L 97.759625 7.2 
L 98.779332 7.2 
L 98.779332 187.13702 
z
" style="fill:#bfbbd9;opacity:0.5;"/>
   </g>
   <g id="patch_18">
    <path clip-path="url(#pfbadacd77c)" d="M 101.096849 187.13702 
L 101.096849 7.2 
L 101.467652 7.2 
L 101.467652 187.13702 
z
" style="fill:#bfbbd9;opacity:0.5;"/>
   </g>
   <g id="patch_19">
    <path clip-path="url(#pfbadacd77c)" d="M 102.487359 187.13702 
L 102.487359 7.2 
L 102.672761 7.2 
L 102.672761 187.13702 
z
" style="fill:#bfbbd9;opacity:0.5;"/>
   </g>
   <g id="patch_20">
    <path clip-path="url(#pfbadacd77c)" d="M 105.824584 187.13702 
L 105.824584 7.2 
L 106.936992 7.2 
L 106.936992 187.13702 
z
" style="fill:#bfbbd9;opacity:0.5;"/>
   </g>
   <g id="patch_21">
    <path clip-path="url(#pfbadacd77c)" d="M 110.088815 187.13702 
L 110.088815 7.2 
L 110.274217 7.2 
L 110.274217 187.13702 
z
" style="fill:#bfbbd9;opacity:0.5;"/>
   </g>
   <g id="patch_22">
    <path clip-path="url(#pfbadacd77c)" d="M 113.055237 187.13702 
L 113.055237 7.2 
L 113.333339 7.2 
L 113.333339 187.13702 
z
" style="fill:#bfbbd9;opacity:0.5;"/>
   </g>
   <g id="patch_23">
    <path clip-path="url(#pfbadacd77c)" d="M 116.763265 187.13702 
L 116.763265 7.2 
L 118.061074 7.2 
L 118.061074 187.13702 
z
" style="fill:#bfbbd9;opacity:0.5;"/>
   </g>
   <g id="patch_24">
    <path clip-path="url(#pfbadacd77c)" d="M 118.339176 187.13702 
L 118.339176 7.2 
L 119.173482 7.2 
L 119.173482 187.13702 
z
" style="fill:#bfbbd9;opacity:0.5;"/>
   </g>
   <g id="patch_25">
    <path clip-path="url(#pfbadacd77c)" d="M 120.007788 187.13702 
L 120.007788 7.2 
L 120.749394 7.2 
L 120.749394 187.13702 
z
" style="fill:#bfbbd9;opacity:0.5;"/>
   </g>
   <g id="patch_26">
    <path clip-path="url(#pfbadacd77c)" d="M 125.755231 187.13702 
L 125.755231 7.2 
L 126.682238 7.2 
L 126.682238 187.13702 
z
" style="fill:#bfbbd9;opacity:0.5;"/>
   </g>
   <g id="patch_27">
    <path clip-path="url(#pfbadacd77c)" d="M 127.701945 187.13702 
L 127.701945 7.2 
L 128.814353 7.2 
L 128.814353 187.13702 
z
" style="fill:#bfbbd9;opacity:0.5;"/>
   </g>
   <g id="patch_28">
    <path clip-path="url(#pfbadacd77c)" d="M 129.926761 187.13702 
L 129.926761 7.2 
L 130.019462 7.2 
L 130.019462 187.13702 
z
" style="fill:#bfbbd9;opacity:0.5;"/>
   </g>
   <g id="patch_29">
    <path clip-path="url(#pfbadacd77c)" d="M 130.112163 187.13702 
L 130.112163 7.2 
L 133.263986 7.2 
L 133.263986 187.13702 
z
" style="fill:#bfbbd9;opacity:0.5;"/>
   </g>
   <g id="patch_30">
    <path clip-path="url(#pfbadacd77c)" d="M 136.786612 187.13702 
L 136.786612 7.2 
L 137.064714 7.2 
L 137.064714 187.13702 
z
" style="fill:#bfbbd9;opacity:0.5;"/>
   </g>
   <g id="patch_31">
    <path clip-path="url(#pfbadacd77c)" d="M 138.640626 187.13702 
L 138.640626 7.2 
L 139.28953 7.2 
L 139.28953 187.13702 
z
" style="fill:#bfbbd9;opacity:0.5;"/>
   </g>
   <g id="patch_32">
    <path clip-path="url(#pfbadacd77c)" d="M 141.88515 187.13702 
L 141.88515 7.2 
L 142.719456 7.2 
L 142.719456 187.13702 
z
" style="fill:#bfbbd9;opacity:0.5;"/>
   </g>
   <g id="patch_33">
    <path clip-path="url(#pfbadacd77c)" d="M 143.831864 187.13702 
L 143.831864 7.2 
L 144.573469 7.2 
L 144.573469 187.13702 
z
" style="fill:#bfbbd9;opacity:0.5;"/>
   </g>
   <g id="patch_34">
    <path clip-path="url(#pfbadacd77c)" d="M 146.520184 187.13702 
L 146.520184 7.2 
L 147.076388 7.2 
L 147.076388 187.13702 
z
" style="fill:#bfbbd9;opacity:0.5;"/>
   </g>
   <g id="patch_35">
    <path clip-path="url(#pfbadacd77c)" d="M 147.539891 187.13702 
L 147.539891 7.2 
L 148.003395 7.2 
L 148.003395 187.13702 
z
" style="fill:#bfbbd9;opacity:0.5;"/>
   </g>
   <g id="patch_36">
    <path clip-path="url(#pfbadacd77c)" d="M 149.672007 187.13702 
L 149.672007 7.2 
L 150.784415 7.2 
L 150.784415 187.13702 
z
" style="fill:#bfbbd9;opacity:0.5;"/>
   </g>
   <g id="patch_37">
    <path clip-path="url(#pfbadacd77c)" d="M 151.526021 187.13702 
L 151.526021 7.2 
L 153.936238 7.2 
L 153.936238 187.13702 
z
" style="fill:#bfbbd9;opacity:0.5;"/>
   </g>
   <g id="patch_38">
    <path clip-path="url(#pfbadacd77c)" d="M 154.307041 187.13702 
L 154.307041 7.2 
L 155.419449 7.2 
L 155.419449 187.13702 
z
" style="fill:#bfbbd9;opacity:0.5;"/>
   </g>
   <g id="patch_39">
    <path clip-path="url(#pfbadacd77c)" d="M 156.068354 187.13702 
L 156.068354 7.2 
L 156.624558 7.2 
L 156.624558 187.13702 
z
" style="fill:#bfbbd9;opacity:0.5;"/>
   </g>
   <g id="patch_40">
    <path clip-path="url(#pfbadacd77c)" d="M 158.385871 187.13702 
L 158.385871 7.2 
L 158.663973 7.2 
L 158.663973 187.13702 
z
" style="fill:#bfbbd9;opacity:0.5;"/>
   </g>
   <g id="patch_41">
    <path clip-path="url(#pfbadacd77c)" d="M 160.425286 187.13702 
L 160.425286 7.2 
L 161.908497 7.2 
L 161.908497 187.13702 
z
" style="fill:#bfbbd9;opacity:0.5;"/>
   </g>
   <g id="patch_42">
    <path clip-path="url(#pfbadacd77c)" d="M 163.484409 187.13702 
L 163.484409 7.2 
L 164.596817 7.2 
L 164.596817 187.13702 
z
" style="fill:#bfbbd9;opacity:0.5;"/>
   </g>
   <g id="patch_43">
    <path clip-path="url(#pfbadacd77c)" d="M 165.709225 187.13702 
L 165.709225 7.2 
L 166.265429 7.2 
L 166.265429 187.13702 
z
" style="fill:#bfbbd9;opacity:0.5;"/>
   </g>
   <g id="patch_44">
    <path clip-path="url(#pfbadacd77c)" d="M 167.099735 187.13702 
L 167.099735 7.2 
L 167.285137 7.2 
L 167.285137 187.13702 
z
" style="fill:#bfbbd9;opacity:0.5;"/>
   </g>
   <g id="patch_45">
    <path clip-path="url(#pfbadacd77c)" d="M 169.509953 187.13702 
L 169.509953 7.2 
L 169.973456 7.2 
L 169.973456 187.13702 
z
" style="fill:#bfbbd9;opacity:0.5;"/>
   </g>
   <g id="patch_46">
    <path clip-path="url(#pfbadacd77c)" d="M 170.715062 187.13702 
L 170.715062 7.2 
L 170.993164 7.2 
L 170.993164 187.13702 
z
" style="fill:#bfbbd9;opacity:0.5;"/>
   </g>
   <g id="patch_47">
    <path clip-path="url(#pfbadacd77c)" d="M 171.549368 187.13702 
L 171.549368 7.2 
L 172.105572 7.2 
L 172.105572 187.13702 
z
" style="fill:#bfbbd9;opacity:0.5;"/>
   </g>
   <g id="patch_48">
    <path clip-path="url(#pfbadacd77c)" d="M 174.052286 187.13702 
L 174.052286 7.2 
L 174.330389 7.2 
L 174.330389 187.13702 
z
" style="fill:#bfbbd9;opacity:0.5;"/>
   </g>
   <g id="patch_49">
    <path clip-path="url(#pfbadacd77c)" d="M 174.701191 187.13702 
L 174.701191 7.2 
L 175.535497 7.2 
L 175.535497 187.13702 
z
" style="fill:#bfbbd9;opacity:0.5;"/>
   </g>
   <g id="patch_50">
    <path clip-path="url(#pfbadacd77c)" d="M 176.926008 187.13702 
L 176.926008 7.2 
L 177.482212 7.2 
L 177.482212 187.13702 
z
" style="fill:#bfbbd9;opacity:0.5;"/>
   </g>
   <g id="patch_51">
    <path clip-path="url(#pfbadacd77c)" d="M 179.614327 187.13702 
L 179.614327 7.2 
L 180.634035 7.2 
L 180.634035 187.13702 
z
" style="fill:#bfbbd9;opacity:0.5;"/>
   </g>
   <g id="patch_52">
    <path clip-path="url(#pfbadacd77c)" d="M 183.229654 187.13702 
L 183.229654 7.2 
L 183.600457 7.2 
L 183.600457 187.13702 
z
" style="fill:#bfbbd9;opacity:0.5;"/>
   </g>
   <g id="patch_53">
    <path clip-path="url(#pfbadacd77c)" d="M 185.269069 187.13702 
L 185.269069 7.2 
L 186.010675 7.2 
L 186.010675 187.13702 
z
" style="fill:#bfbbd9;opacity:0.5;"/>
   </g>
   <g id="patch_54">
    <path clip-path="url(#pfbadacd77c)" d="M 187.957389 187.13702 
L 187.957389 7.2 
L 188.14279 7.2 
L 188.14279 187.13702 
z
" style="fill:#bfbbd9;opacity:0.5;"/>
   </g>
   <g id="patch_55">
    <path clip-path="url(#pfbadacd77c)" d="M 188.235491 187.13702 
L 188.235491 7.2 
L 188.606294 7.2 
L 188.606294 187.13702 
z
" style="fill:#bfbbd9;opacity:0.5;"/>
   </g>
   <g id="patch_56">
    <path clip-path="url(#pfbadacd77c)" d="M 199.823076 187.13702 
L 199.823076 7.2 
L 200.101178 7.2 
L 200.101178 187.13702 
z
" style="fill:#bfbbd9;opacity:0.5;"/>
   </g>
   <g id="patch_57">
    <path clip-path="url(#pfbadacd77c)" d="M 201.491689 187.13702 
L 201.491689 7.2 
L 201.862491 7.2 
L 201.862491 187.13702 
z
" style="fill:#bfbbd9;opacity:0.5;"/>
   </g>
   <g id="patch_58">
    <path clip-path="url(#pfbadacd77c)" d="M 201.955192 187.13702 
L 201.955192 7.2 
L 202.325995 7.2 
L 202.325995 187.13702 
z
" style="fill:#bfbbd9;opacity:0.5;"/>
   </g>
   <g id="patch_59">
    <path clip-path="url(#pfbadacd77c)" d="M 218.455914 187.13702 
L 218.455914 7.2 
L 219.104818 7.2 
L 219.104818 187.13702 
z
" style="fill:#bfbbd9;opacity:0.5;"/>
   </g>
   <g id="patch_60">
    <path clip-path="url(#pfbadacd77c)" d="M 222.720145 187.13702 
L 222.720145 7.2 
L 223.554451 7.2 
L 223.554451 187.13702 
z
" style="fill:#bfbbd9;opacity:0.5;"/>
   </g>
   <g id="patch_61">
    <path clip-path="url(#pfbadacd77c)" d="M 224.481458 187.13702 
L 224.481458 7.2 
L 224.75956 7.2 
L 224.75956 187.13702 
z
" style="fill:#bfbbd9;opacity:0.5;"/>
   </g>
   <g id="patch_62">
    <path clip-path="url(#pfbadacd77c)" d="M 233.102621 187.13702 
L 233.102621 7.2 
L 233.473424 7.2 
L 233.473424 187.13702 
z
" style="fill:#bfbbd9;opacity:0.5;"/>
   </g>
   <g id="patch_63">
    <path clip-path="url(#pfbadacd77c)" d="M 234.029628 187.13702 
L 234.029628 7.2 
L 234.956635 7.2 
L 234.956635 187.13702 
z
" style="fill:#bfbbd9;opacity:0.5;"/>
   </g>
   <g id="patch_64">
    <path clip-path="url(#pfbadacd77c)" d="M 241.538384 187.13702 
L 241.538384 7.2 
L 242.001887 7.2 
L 242.001887 187.13702 
z
" style="fill:#bfbbd9;opacity:0.5;"/>
   </g>
   <g id="patch_65">
    <path clip-path="url(#pfbadacd77c)" d="M 248.212833 187.13702 
L 248.212833 7.2 
L 248.676336 7.2 
L 248.676336 187.13702 
z
" style="fill:#bfbbd9;opacity:0.5;"/>
   </g>
   <g id="patch_66">
    <path clip-path="url(#pfbadacd77c)" d="M 248.861737 187.13702 
L 248.861737 7.2 
L 249.23254 7.2 
L 249.23254 187.13702 
z
" style="fill:#bfbbd9;opacity:0.5;"/>
   </g>
   <g id="patch_67">
    <path clip-path="url(#pfbadacd77c)" d="M 257.204799 187.13702 
L 257.204799 7.2 
L 257.761003 7.2 
L 257.761003 187.13702 
z
" style="fill:#bfbbd9;opacity:0.5;"/>
   </g>
   <g id="patch_68">
    <path clip-path="url(#pfbadacd77c)" d="M 265.54786 187.13702 
L 265.54786 7.2 
L 266.567568 7.2 
L 266.567568 187.13702 
z
" style="fill:#bfbbd9;opacity:0.5;"/>
   </g>
   <g id="patch_69">
    <path clip-path="url(#pfbadacd77c)" d="M 267.031071 187.13702 
L 267.031071 7.2 
L 267.587275 7.2 
L 267.587275 187.13702 
z
" style="fill:#bfbbd9;opacity:0.5;"/>
   </g>
   <g id="patch_70">
    <path clip-path="url(#pfbadacd77c)" d="M 270.9245 187.13702 
L 270.9245 7.2 
L 271.573405 7.2 
L 271.573405 187.13702 
z
" style="fill:#bfbbd9;opacity:0.5;"/>
   </g>
   <g id="patch_71">
    <path clip-path="url(#pfbadacd77c)" d="M 272.407711 187.13702 
L 272.407711 7.2 
L 272.871214 7.2 
L 272.871214 187.13702 
z
" style="fill:#bfbbd9;opacity:0.5;"/>
   </g>
   <g id="patch_72">
    <path clip-path="url(#pfbadacd77c)" d="M 273.149316 187.13702 
L 273.149316 7.2 
L 273.798221 7.2 
L 273.798221 187.13702 
z
" style="fill:#bfbbd9;opacity:0.5;"/>
   </g>
   <g id="patch_73">
    <path clip-path="url(#pfbadacd77c)" d="M 273.890922 187.13702 
L 273.890922 7.2 
L 274.076323 7.2 
L 274.076323 187.13702 
z
" style="fill:#bfbbd9;opacity:0.5;"/>
   </g>
   <g id="patch_74">
    <path clip-path="url(#pfbadacd77c)" d="M 275.281432 187.13702 
L 275.281432 7.2 
L 275.559534 7.2 
L 275.559534 187.13702 
z
" style="fill:#bfbbd9;opacity:0.5;"/>
   </g>
   <g id="patch_75">
    <path clip-path="url(#pfbadacd77c)" d="M 275.930337 187.13702 
L 275.930337 7.2 
L 276.671942 7.2 
L 276.671942 187.13702 
z
" style="fill:#bfbbd9;opacity:0.5;"/>
   </g>
   <g id="patch_76">
    <path clip-path="url(#pfbadacd77c)" d="M 278.247854 187.13702 
L 278.247854 7.2 
L 278.525956 7.2 
L 278.525956 187.13702 
z
" style="fill:#bfbbd9;opacity:0.5;"/>
   </g>
   <g id="patch_77">
    <path clip-path="url(#pfbadacd77c)" d="M 278.711357 187.13702 
L 278.711357 7.2 
L 279.452963 7.2 
L 279.452963 187.13702 
z
" style="fill:#bfbbd9;opacity:0.5;"/>
   </g>
   <g id="patch_78">
    <path clip-path="url(#pfbadacd77c)" d="M 284.366099 187.13702 
L 284.366099 7.2 
L 285.107704 7.2 
L 285.107704 187.13702 
z
" style="fill:#bfbbd9;opacity:0.5;"/>
   </g>
   <g id="patch_79">
    <path clip-path="url(#pfbadacd77c)" d="M 288.444929 187.13702 
L 288.444929 7.2 
L 288.908432 7.2 
L 288.908432 187.13702 
z
" style="fill:#bfbbd9;opacity:0.5;"/>
   </g>
   <g id="patch_80">
    <path clip-path="url(#pfbadacd77c)" d="M 289.279235 187.13702 
L 289.279235 7.2 
L 289.742739 7.2 
L 289.742739 187.13702 
z
" style="fill:#bfbbd9;opacity:0.5;"/>
   </g>
   <g id="patch_81">
    <path clip-path="url(#pfbadacd77c)" d="M 290.298943 187.13702 
L 290.298943 7.2 
L 290.577045 7.2 
L 290.577045 187.13702 
z
" style="fill:#bfbbd9;opacity:0.5;"/>
   </g>
   <g id="patch_82">
    <path clip-path="url(#pfbadacd77c)" d="M 294.933977 187.13702 
L 294.933977 7.2 
L 296.139086 7.2 
L 296.139086 187.13702 
z
" style="fill:#bfbbd9;opacity:0.5;"/>
   </g>
   <g id="patch_83">
    <path clip-path="url(#pfbadacd77c)" d="M 297.622297 187.13702 
L 297.622297 7.2 
L 297.993099 7.2 
L 297.993099 187.13702 
z
" style="fill:#bfbbd9;opacity:0.5;"/>
   </g>
   <g id="patch_84">
    <path clip-path="url(#pfbadacd77c)" d="M 299.38361 187.13702 
L 299.38361 7.2 
L 300.681419 7.2 
L 300.681419 187.13702 
z
" style="fill:#bfbbd9;opacity:0.5;"/>
   </g>
   <g id="patch_85">
    <path clip-path="url(#pfbadacd77c)" d="M 301.237623 187.13702 
L 301.237623 7.2 
L 302.720834 7.2 
L 302.720834 187.13702 
z
" style="fill:#bfbbd9;opacity:0.5;"/>
   </g>
   <g id="patch_86">
    <path clip-path="url(#pfbadacd77c)" d="M 304.574848 187.13702 
L 304.574848 7.2 
L 307.077766 7.2 
L 307.077766 187.13702 
z
" style="fill:#bfbbd9;opacity:0.5;"/>
   </g>
   <g id="matplotlib.axis_1">
    <g id="xtick_1">
     <g id="line2d_1">
      <defs>
       <path d="M 0 0 
L 0 3.5 
" id="m31ebdff94d" style="stroke:#ffffff;stroke-width:0.8;"/>
      </defs>
      <g>
       <use style="fill:#ffffff;stroke:#ffffff;stroke-width:0.8;" x="50.296875" xlink:href="#m31ebdff94d" y="187.13702"/>
      </g>
     </g>
     <g id="text_1">
      <!-- 2014 -->
      <g style="fill:#ffffff;" transform="translate(39.065625 201.63702)scale(0.1 -0.1)">
       <defs>
        <path d="M 3359 0 
L 378 0 
L 378 416 
L 1953 2166 
Q 2303 2563 2436 2811 
Q 2569 3059 2569 3325 
Q 2569 3681 2353 3909 
Q 2138 4138 1778 4138 
Q 1347 4138 1108 3892 
Q 869 3647 869 3209 
L 291 3209 
Q 291 3838 695 4225 
Q 1100 4613 1778 4613 
Q 2413 4613 2781 4280 
Q 3150 3947 3150 3394 
Q 3150 2722 2294 1794 
L 1075 472 
L 3359 472 
L 3359 0 
z
" id="Roboto-Regular-32" transform="scale(0.015625)"/>
        <path d="M 3231 1941 
Q 3231 925 2884 431 
Q 2538 -63 1800 -63 
Q 1072 -63 722 420 
Q 372 903 359 1863 
L 359 2634 
Q 359 3638 706 4125 
Q 1053 4613 1794 4613 
Q 2528 4613 2875 4142 
Q 3222 3672 3231 2691 
L 3231 1941 
z
M 2653 2731 
Q 2653 3466 2447 3802 
Q 2241 4138 1794 4138 
Q 1350 4138 1147 3803 
Q 944 3469 938 2775 
L 938 1850 
Q 938 1113 1152 761 
Q 1366 409 1800 409 
Q 2228 409 2436 740 
Q 2644 1072 2653 1784 
L 2653 2731 
z
" id="Roboto-Regular-30" transform="scale(0.015625)"/>
        <path d="M 2278 0 
L 1697 0 
L 1697 3853 
L 531 3425 
L 531 3950 
L 2188 4572 
L 2278 4572 
L 2278 0 
z
" id="Roboto-Regular-31" transform="scale(0.015625)"/>
        <path d="M 2819 1528 
L 3450 1528 
L 3450 1056 
L 2819 1056 
L 2819 0 
L 2238 0 
L 2238 1056 
L 166 1056 
L 166 1397 
L 2203 4550 
L 2819 4550 
L 2819 1528 
z
M 822 1528 
L 2238 1528 
L 2238 3759 
L 2169 3634 
L 822 1528 
z
" id="Roboto-Regular-34" transform="scale(0.015625)"/>
       </defs>
       <use xlink:href="#Roboto-Regular-32"/>
       <use x="56.152344" xlink:href="#Roboto-Regular-30"/>
       <use x="112.304688" xlink:href="#Roboto-Regular-31"/>
       <use x="168.457031" xlink:href="#Roboto-Regular-34"/>
      </g>
     </g>
    </g>
    <g id="xtick_2">
     <g id="line2d_2">
      <g>
       <use style="fill:#ffffff;stroke:#ffffff;stroke-width:0.8;" x="84.132624" xlink:href="#m31ebdff94d" y="187.13702"/>
      </g>
     </g>
     <g id="text_2">
      <!-- 2015 -->
      <g style="fill:#ffffff;" transform="translate(72.901374 201.63702)scale(0.1 -0.1)">
       <defs>
        <path d="M 644 2281 
L 875 4550 
L 3206 4550 
L 3206 4016 
L 1366 4016 
L 1228 2775 
Q 1563 2972 1988 2972 
Q 2609 2972 2975 2561 
Q 3341 2150 3341 1450 
Q 3341 747 2961 342 
Q 2581 -63 1900 -63 
Q 1297 -63 915 271 
Q 534 606 481 1197 
L 1028 1197 
Q 1081 806 1306 607 
Q 1531 409 1900 409 
Q 2303 409 2533 684 
Q 2763 959 2763 1444 
Q 2763 1900 2514 2176 
Q 2266 2453 1853 2453 
Q 1475 2453 1259 2288 
L 1106 2163 
L 644 2281 
z
" id="Roboto-Regular-35" transform="scale(0.015625)"/>
       </defs>
       <use xlink:href="#Roboto-Regular-32"/>
       <use x="56.152344" xlink:href="#Roboto-Regular-30"/>
       <use x="112.304688" xlink:href="#Roboto-Regular-31"/>
       <use x="168.457031" xlink:href="#Roboto-Regular-35"/>
      </g>
     </g>
    </g>
    <g id="xtick_3">
     <g id="line2d_3">
      <g>
       <use style="fill:#ffffff;stroke:#ffffff;stroke-width:0.8;" x="117.968373" xlink:href="#m31ebdff94d" y="187.13702"/>
      </g>
     </g>
     <g id="text_3">
      <!-- 2016 -->
      <g style="fill:#ffffff;" transform="translate(106.737123 201.63702)scale(0.1 -0.1)">
       <defs>
        <path d="M 2647 4553 
L 2647 4063 
L 2541 4063 
Q 1866 4050 1466 3662 
Q 1066 3275 1003 2572 
Q 1363 2984 1984 2984 
Q 2578 2984 2933 2565 
Q 3288 2147 3288 1484 
Q 3288 781 2905 359 
Q 2522 -63 1878 -63 
Q 1225 -63 819 439 
Q 413 941 413 1731 
L 413 1953 
Q 413 3209 948 3873 
Q 1484 4538 2544 4553 
L 2647 4553 
z
M 1888 2503 
Q 1591 2503 1341 2325 
Q 1091 2147 994 1878 
L 994 1666 
Q 994 1103 1247 759 
Q 1500 416 1878 416 
Q 2269 416 2492 703 
Q 2716 991 2716 1456 
Q 2716 1925 2489 2214 
Q 2263 2503 1888 2503 
z
" id="Roboto-Regular-36" transform="scale(0.015625)"/>
       </defs>
       <use xlink:href="#Roboto-Regular-32"/>
       <use x="56.152344" xlink:href="#Roboto-Regular-30"/>
       <use x="112.304688" xlink:href="#Roboto-Regular-31"/>
       <use x="168.457031" xlink:href="#Roboto-Regular-36"/>
      </g>
     </g>
    </g>
    <g id="xtick_4">
     <g id="line2d_4">
      <g>
       <use style="fill:#ffffff;stroke:#ffffff;stroke-width:0.8;" x="151.896823" xlink:href="#m31ebdff94d" y="187.13702"/>
      </g>
     </g>
     <g id="text_4">
      <!-- 2017 -->
      <g style="fill:#ffffff;" transform="translate(140.665573 201.63702)scale(0.1 -0.1)">
       <defs>
        <path d="M 3316 4225 
L 1431 0 
L 825 0 
L 2703 4075 
L 241 4075 
L 241 4550 
L 3316 4550 
L 3316 4225 
z
" id="Roboto-Regular-37" transform="scale(0.015625)"/>
       </defs>
       <use xlink:href="#Roboto-Regular-32"/>
       <use x="56.152344" xlink:href="#Roboto-Regular-30"/>
       <use x="112.304688" xlink:href="#Roboto-Regular-31"/>
       <use x="168.457031" xlink:href="#Roboto-Regular-37"/>
      </g>
     </g>
    </g>
    <g id="xtick_5">
     <g id="line2d_5">
      <g>
       <use style="fill:#ffffff;stroke:#ffffff;stroke-width:0.8;" x="185.732573" xlink:href="#m31ebdff94d" y="187.13702"/>
      </g>
     </g>
     <g id="text_5">
      <!-- 2018 -->
      <g style="fill:#ffffff;" transform="translate(174.501323 201.63702)scale(0.1 -0.1)">
       <defs>
        <path d="M 3138 3363 
Q 3138 3022 2958 2756 
Q 2778 2491 2472 2341 
Q 2828 2188 3036 1894 
Q 3244 1600 3244 1228 
Q 3244 638 2845 287 
Q 2447 -63 1797 -63 
Q 1141 -63 745 289 
Q 350 641 350 1228 
Q 350 1597 551 1894 
Q 753 2191 1109 2344 
Q 806 2494 631 2759 
Q 456 3025 456 3363 
Q 456 3938 825 4275 
Q 1194 4613 1797 4613 
Q 2397 4613 2767 4275 
Q 3138 3938 3138 3363 
z
M 2666 1241 
Q 2666 1622 2423 1862 
Q 2181 2103 1790 2103 
Q 1400 2103 1164 1865 
Q 928 1628 928 1240 
Q 928 853 1158 631 
Q 1388 409 1797 409 
Q 2203 409 2434 632 
Q 2666 856 2666 1241 
z
M 1797 4138 
Q 1456 4138 1245 3927 
Q 1034 3716 1034 3353 
Q 1034 3006 1242 2792 
Q 1450 2578 1797 2578 
Q 2144 2578 2351 2792 
Q 2559 3006 2559 3353 
Q 2559 3700 2343 3919 
Q 2128 4138 1797 4138 
z
" id="Roboto-Regular-38" transform="scale(0.015625)"/>
       </defs>
       <use xlink:href="#Roboto-Regular-32"/>
       <use x="56.152344" xlink:href="#Roboto-Regular-30"/>
       <use x="112.304688" xlink:href="#Roboto-Regular-31"/>
       <use x="168.457031" xlink:href="#Roboto-Regular-38"/>
      </g>
     </g>
    </g>
    <g id="xtick_6">
     <g id="line2d_6">
      <g>
       <use style="fill:#ffffff;stroke:#ffffff;stroke-width:0.8;" x="219.568322" xlink:href="#m31ebdff94d" y="187.13702"/>
      </g>
     </g>
     <g id="text_6">
      <!-- 2019 -->
      <g style="fill:#ffffff;" transform="translate(208.337072 201.63702)scale(0.1 -0.1)">
       <defs>
        <path d="M 2594 2000 
Q 2413 1784 2161 1653 
Q 1909 1522 1609 1522 
Q 1216 1522 923 1715 
Q 631 1909 472 2261 
Q 313 2613 313 3038 
Q 313 3494 486 3859 
Q 659 4225 978 4419 
Q 1297 4613 1722 4613 
Q 2397 4613 2786 4108 
Q 3175 3603 3175 2731 
L 3175 2563 
Q 3175 1234 2650 623 
Q 2125 13 1066 -3 
L 953 -3 
L 953 484 
L 1075 484 
Q 1791 497 2175 858 
Q 2559 1219 2594 2000 
z
M 1703 2000 
Q 1994 2000 2239 2178 
Q 2484 2356 2597 2619 
L 2597 2850 
Q 2597 3419 2350 3775 
Q 2103 4131 1725 4131 
Q 1344 4131 1112 3839 
Q 881 3547 881 3069 
Q 881 2603 1104 2301 
Q 1328 2000 1703 2000 
z
" id="Roboto-Regular-39" transform="scale(0.015625)"/>
       </defs>
       <use xlink:href="#Roboto-Regular-32"/>
       <use x="56.152344" xlink:href="#Roboto-Regular-30"/>
       <use x="112.304688" xlink:href="#Roboto-Regular-31"/>
       <use x="168.457031" xlink:href="#Roboto-Regular-39"/>
      </g>
     </g>
    </g>
    <g id="xtick_7">
     <g id="line2d_7">
      <g>
       <use style="fill:#ffffff;stroke:#ffffff;stroke-width:0.8;" x="253.404071" xlink:href="#m31ebdff94d" y="187.13702"/>
      </g>
     </g>
     <g id="text_7">
      <!-- 2020 -->
      <g style="fill:#ffffff;" transform="translate(242.172821 201.63702)scale(0.1 -0.1)">
       <use xlink:href="#Roboto-Regular-32"/>
       <use x="56.152344" xlink:href="#Roboto-Regular-30"/>
       <use x="112.304688" xlink:href="#Roboto-Regular-32"/>
       <use x="168.457031" xlink:href="#Roboto-Regular-30"/>
      </g>
     </g>
    </g>
    <g id="xtick_8">
     <g id="line2d_8">
      <g>
       <use style="fill:#ffffff;stroke:#ffffff;stroke-width:0.8;" x="287.332521" xlink:href="#m31ebdff94d" y="187.13702"/>
      </g>
     </g>
     <g id="text_8">
      <!-- 2021 -->
      <g style="fill:#ffffff;" transform="translate(276.101271 201.63702)scale(0.1 -0.1)">
       <use xlink:href="#Roboto-Regular-32"/>
       <use x="56.152344" xlink:href="#Roboto-Regular-30"/>
       <use x="112.304688" xlink:href="#Roboto-Regular-32"/>
       <use x="168.457031" xlink:href="#Roboto-Regular-31"/>
      </g>
     </g>
    </g>
    <g id="xtick_9">
     <g id="line2d_9">
      <g>
       <use style="fill:#ffffff;stroke:#ffffff;stroke-width:0.8;" x="321.16827" xlink:href="#m31ebdff94d" y="187.13702"/>
      </g>
     </g>
     <g id="text_9">
      <!-- 2022 -->
      <g style="fill:#ffffff;" transform="translate(309.93702 201.63702)scale(0.1 -0.1)">
       <use xlink:href="#Roboto-Regular-32"/>
       <use x="56.152344" xlink:href="#Roboto-Regular-30"/>
       <use x="112.304688" xlink:href="#Roboto-Regular-32"/>
       <use x="168.457031" xlink:href="#Roboto-Regular-32"/>
      </g>
     </g>
    </g>
    <g id="xtick_10">
     <g id="line2d_10">
      <defs>
       <path d="M 0 0 
L 0 2 
" id="m9ee2dd7507" style="stroke:#ffffff;stroke-width:0.6;"/>
      </defs>
      <g>
       <use style="fill:#ffffff;stroke:#ffffff;stroke-width:0.6;" x="58.639936" xlink:href="#m9ee2dd7507" y="187.13702"/>
      </g>
     </g>
    </g>
    <g id="xtick_11">
     <g id="line2d_11">
      <g>
       <use style="fill:#ffffff;stroke:#ffffff;stroke-width:0.6;" x="67.075699" xlink:href="#m9ee2dd7507" y="187.13702"/>
      </g>
     </g>
    </g>
    <g id="xtick_12">
     <g id="line2d_12">
      <g>
       <use style="fill:#ffffff;stroke:#ffffff;stroke-width:0.6;" x="75.604161" xlink:href="#m9ee2dd7507" y="187.13702"/>
      </g>
     </g>
    </g>
    <g id="xtick_13">
     <g id="line2d_13">
      <g>
       <use style="fill:#ffffff;stroke:#ffffff;stroke-width:0.6;" x="92.475686" xlink:href="#m9ee2dd7507" y="187.13702"/>
      </g>
     </g>
    </g>
    <g id="xtick_14">
     <g id="line2d_14">
      <g>
       <use style="fill:#ffffff;stroke:#ffffff;stroke-width:0.6;" x="100.911448" xlink:href="#m9ee2dd7507" y="187.13702"/>
      </g>
     </g>
    </g>
    <g id="xtick_15">
     <g id="line2d_15">
      <g>
       <use style="fill:#ffffff;stroke:#ffffff;stroke-width:0.6;" x="109.439911" xlink:href="#m9ee2dd7507" y="187.13702"/>
      </g>
     </g>
    </g>
    <g id="xtick_16">
     <g id="line2d_16">
      <g>
       <use style="fill:#ffffff;stroke:#ffffff;stroke-width:0.6;" x="126.404136" xlink:href="#m9ee2dd7507" y="187.13702"/>
      </g>
     </g>
    </g>
    <g id="xtick_17">
     <g id="line2d_17">
      <g>
       <use style="fill:#ffffff;stroke:#ffffff;stroke-width:0.6;" x="134.839898" xlink:href="#m9ee2dd7507" y="187.13702"/>
      </g>
     </g>
    </g>
    <g id="xtick_18">
     <g id="line2d_18">
      <g>
       <use style="fill:#ffffff;stroke:#ffffff;stroke-width:0.6;" x="143.36836" xlink:href="#m9ee2dd7507" y="187.13702"/>
      </g>
     </g>
    </g>
    <g id="xtick_19">
     <g id="line2d_19">
      <g>
       <use style="fill:#ffffff;stroke:#ffffff;stroke-width:0.6;" x="160.239885" xlink:href="#m9ee2dd7507" y="187.13702"/>
      </g>
     </g>
    </g>
    <g id="xtick_20">
     <g id="line2d_20">
      <g>
       <use style="fill:#ffffff;stroke:#ffffff;stroke-width:0.6;" x="168.675647" xlink:href="#m9ee2dd7507" y="187.13702"/>
      </g>
     </g>
    </g>
    <g id="xtick_21">
     <g id="line2d_21">
      <g>
       <use style="fill:#ffffff;stroke:#ffffff;stroke-width:0.6;" x="177.20411" xlink:href="#m9ee2dd7507" y="187.13702"/>
      </g>
     </g>
    </g>
    <g id="xtick_22">
     <g id="line2d_22">
      <g>
       <use style="fill:#ffffff;stroke:#ffffff;stroke-width:0.6;" x="194.075634" xlink:href="#m9ee2dd7507" y="187.13702"/>
      </g>
     </g>
    </g>
    <g id="xtick_23">
     <g id="line2d_23">
      <g>
       <use style="fill:#ffffff;stroke:#ffffff;stroke-width:0.6;" x="202.511396" xlink:href="#m9ee2dd7507" y="187.13702"/>
      </g>
     </g>
    </g>
    <g id="xtick_24">
     <g id="line2d_24">
      <g>
       <use style="fill:#ffffff;stroke:#ffffff;stroke-width:0.6;" x="211.039859" xlink:href="#m9ee2dd7507" y="187.13702"/>
      </g>
     </g>
    </g>
    <g id="xtick_25">
     <g id="line2d_25">
      <g>
       <use style="fill:#ffffff;stroke:#ffffff;stroke-width:0.6;" x="227.911383" xlink:href="#m9ee2dd7507" y="187.13702"/>
      </g>
     </g>
    </g>
    <g id="xtick_26">
     <g id="line2d_26">
      <g>
       <use style="fill:#ffffff;stroke:#ffffff;stroke-width:0.6;" x="236.347145" xlink:href="#m9ee2dd7507" y="187.13702"/>
      </g>
     </g>
    </g>
    <g id="xtick_27">
     <g id="line2d_27">
      <g>
       <use style="fill:#ffffff;stroke:#ffffff;stroke-width:0.6;" x="244.875608" xlink:href="#m9ee2dd7507" y="187.13702"/>
      </g>
     </g>
    </g>
    <g id="xtick_28">
     <g id="line2d_28">
      <g>
       <use style="fill:#ffffff;stroke:#ffffff;stroke-width:0.6;" x="261.839833" xlink:href="#m9ee2dd7507" y="187.13702"/>
      </g>
     </g>
    </g>
    <g id="xtick_29">
     <g id="line2d_29">
      <g>
       <use style="fill:#ffffff;stroke:#ffffff;stroke-width:0.6;" x="270.275595" xlink:href="#m9ee2dd7507" y="187.13702"/>
      </g>
     </g>
    </g>
    <g id="xtick_30">
     <g id="line2d_30">
      <g>
       <use style="fill:#ffffff;stroke:#ffffff;stroke-width:0.6;" x="278.804058" xlink:href="#m9ee2dd7507" y="187.13702"/>
      </g>
     </g>
    </g>
    <g id="xtick_31">
     <g id="line2d_31">
      <g>
       <use style="fill:#ffffff;stroke:#ffffff;stroke-width:0.6;" x="295.675582" xlink:href="#m9ee2dd7507" y="187.13702"/>
      </g>
     </g>
    </g>
    <g id="xtick_32">
     <g id="line2d_32">
      <g>
       <use style="fill:#ffffff;stroke:#ffffff;stroke-width:0.6;" x="304.111344" xlink:href="#m9ee2dd7507" y="187.13702"/>
      </g>
     </g>
    </g>
    <g id="xtick_33">
     <g id="line2d_33">
      <g>
       <use style="fill:#ffffff;stroke:#ffffff;stroke-width:0.6;" x="312.639807" xlink:href="#m9ee2dd7507" y="187.13702"/>
      </g>
     </g>
    </g>
    <g id="text_10">
     <!-- Year -->
     <g style="fill:#ffffff;" transform="translate(175.66851 215.16827)scale(0.1 -0.1)">
      <defs>
       <path d="M 1916 2266 
L 3103 4550 
L 3784 4550 
L 2216 1697 
L 2216 0 
L 1616 0 
L 1616 1697 
L 47 4550 
L 734 4550 
L 1916 2266 
z
" id="Roboto-Regular-59" transform="scale(0.015625)"/>
       <path d="M 1841 -63 
Q 1153 -63 722 389 
Q 291 841 291 1597 
L 291 1703 
Q 291 2206 483 2601 
Q 675 2997 1020 3220 
Q 1366 3444 1769 3444 
Q 2428 3444 2793 3009 
Q 3159 2575 3159 1766 
L 3159 1525 
L 869 1525 
Q 881 1025 1161 717 
Q 1441 409 1872 409 
Q 2178 409 2390 534 
Q 2603 659 2763 866 
L 3116 591 
Q 2691 -63 1841 -63 
z
M 1769 2969 
Q 1419 2969 1181 2714 
Q 944 2459 888 2000 
L 2581 2000 
L 2581 2044 
Q 2556 2484 2343 2726 
Q 2131 2969 1769 2969 
z
" id="Roboto-Regular-65" transform="scale(0.015625)"/>
       <path d="M 2525 0 
Q 2475 100 2444 356 
Q 2041 -63 1481 -63 
Q 981 -63 661 220 
Q 341 503 341 938 
Q 341 1466 742 1758 
Q 1144 2050 1872 2050 
L 2434 2050 
L 2434 2316 
Q 2434 2619 2253 2798 
Q 2072 2978 1719 2978 
Q 1409 2978 1200 2822 
Q 991 2666 991 2444 
L 409 2444 
Q 409 2697 589 2933 
Q 769 3169 1076 3306 
Q 1384 3444 1753 3444 
Q 2338 3444 2669 3151 
Q 3000 2859 3013 2347 
L 3013 791 
Q 3013 325 3131 50 
L 3131 0 
L 2525 0 
z
M 1566 441 
Q 1838 441 2081 581 
Q 2325 722 2434 947 
L 2434 1641 
L 1981 1641 
Q 919 1641 919 1019 
Q 919 747 1100 594 
Q 1281 441 1566 441 
z
" id="Roboto-Regular-61" transform="scale(0.015625)"/>
       <path d="M 2072 2863 
Q 1941 2884 1788 2884 
Q 1219 2884 1016 2400 
L 1016 0 
L 438 0 
L 438 3381 
L 1000 3381 
L 1009 2991 
Q 1294 3444 1816 3444 
Q 1984 3444 2072 3400 
L 2072 2863 
z
" id="Roboto-Regular-72" transform="scale(0.015625)"/>
      </defs>
      <use xlink:href="#Roboto-Regular-59"/>
      <use x="60.058594" xlink:href="#Roboto-Regular-65"/>
      <use x="113.037109" xlink:href="#Roboto-Regular-61"/>
      <use x="167.431641" xlink:href="#Roboto-Regular-72"/>
     </g>
    </g>
   </g>
   <g id="matplotlib.axis_2">
    <g id="ytick_1">
     <g id="line2d_34">
      <defs>
       <path d="M 0 0 
L -3.5 0 
" id="mdcab4546e5" style="stroke:#ffffff;stroke-width:0.8;"/>
      </defs>
      <g>
       <use style="fill:#ffffff;stroke:#ffffff;stroke-width:0.8;" x="50.296875" xlink:href="#mdcab4546e5" y="187.13702"/>
      </g>
     </g>
     <g id="text_11">
      <!-- 0 -->
      <g style="fill:#ffffff;" transform="translate(37.68125 190.88702)scale(0.1 -0.1)">
       <use xlink:href="#Roboto-Regular-30"/>
      </g>
     </g>
    </g>
    <g id="ytick_2">
     <g id="line2d_35">
      <g>
       <use style="fill:#ffffff;stroke:#ffffff;stroke-width:0.8;" x="50.296875" xlink:href="#mdcab4546e5" y="153.81535"/>
      </g>
     </g>
     <g id="text_12">
      <!-- 500 -->
      <g style="fill:#ffffff;" transform="translate(26.45 157.56535)scale(0.1 -0.1)">
       <use xlink:href="#Roboto-Regular-35"/>
       <use x="56.152344" xlink:href="#Roboto-Regular-30"/>
       <use x="112.304688" xlink:href="#Roboto-Regular-30"/>
      </g>
     </g>
    </g>
    <g id="ytick_3">
     <g id="line2d_36">
      <g>
       <use style="fill:#ffffff;stroke:#ffffff;stroke-width:0.8;" x="50.296875" xlink:href="#mdcab4546e5" y="120.493679"/>
      </g>
     </g>
     <g id="text_13">
      <!-- 1000 -->
      <g style="fill:#ffffff;" transform="translate(20.834375 124.243679)scale(0.1 -0.1)">
       <use xlink:href="#Roboto-Regular-31"/>
       <use x="56.152344" xlink:href="#Roboto-Regular-30"/>
       <use x="112.304688" xlink:href="#Roboto-Regular-30"/>
       <use x="168.457031" xlink:href="#Roboto-Regular-30"/>
      </g>
     </g>
    </g>
    <g id="ytick_4">
     <g id="line2d_37">
      <g>
       <use style="fill:#ffffff;stroke:#ffffff;stroke-width:0.8;" x="50.296875" xlink:href="#mdcab4546e5" y="87.172009"/>
      </g>
     </g>
     <g id="text_14">
      <!-- 1500 -->
      <g style="fill:#ffffff;" transform="translate(20.834375 90.922009)scale(0.1 -0.1)">
       <use xlink:href="#Roboto-Regular-31"/>
       <use x="56.152344" xlink:href="#Roboto-Regular-35"/>
       <use x="112.304688" xlink:href="#Roboto-Regular-30"/>
       <use x="168.457031" xlink:href="#Roboto-Regular-30"/>
      </g>
     </g>
    </g>
    <g id="ytick_5">
     <g id="line2d_38">
      <g>
       <use style="fill:#ffffff;stroke:#ffffff;stroke-width:0.8;" x="50.296875" xlink:href="#mdcab4546e5" y="53.850339"/>
      </g>
     </g>
     <g id="text_15">
      <!-- 2000 -->
      <g style="fill:#ffffff;" transform="translate(20.834375 57.600339)scale(0.1 -0.1)">
       <use xlink:href="#Roboto-Regular-32"/>
       <use x="56.152344" xlink:href="#Roboto-Regular-30"/>
       <use x="112.304688" xlink:href="#Roboto-Regular-30"/>
       <use x="168.457031" xlink:href="#Roboto-Regular-30"/>
      </g>
     </g>
    </g>
    <g id="ytick_6">
     <g id="line2d_39">
      <g>
       <use style="fill:#ffffff;stroke:#ffffff;stroke-width:0.8;" x="50.296875" xlink:href="#mdcab4546e5" y="20.528668"/>
      </g>
     </g>
     <g id="text_16">
      <!-- 2500 -->
      <g style="fill:#ffffff;" transform="translate(20.834375 24.278668)scale(0.1 -0.1)">
       <use xlink:href="#Roboto-Regular-32"/>
       <use x="56.152344" xlink:href="#Roboto-Regular-35"/>
       <use x="112.304688" xlink:href="#Roboto-Regular-30"/>
       <use x="168.457031" xlink:href="#Roboto-Regular-30"/>
      </g>
     </g>
    </g>
    <g id="text_17">
     <!-- Hours on sky -->
     <g style="fill:#ffffff;" transform="translate(14.7 126.17476)rotate(-90)scale(0.1 -0.1)">
      <defs>
       <path d="M 4025 0 
L 3422 0 
L 3422 2103 
L 1128 2103 
L 1128 0 
L 528 0 
L 528 4550 
L 1128 4550 
L 1128 2594 
L 3422 2594 
L 3422 4550 
L 4025 4550 
L 4025 0 
z
" id="Roboto-Regular-48" transform="scale(0.015625)"/>
       <path d="M 284 1722 
Q 284 2219 479 2616 
Q 675 3013 1023 3228 
Q 1372 3444 1819 3444 
Q 2509 3444 2936 2966 
Q 3363 2488 3363 1694 
L 3363 1653 
Q 3363 1159 3173 767 
Q 2984 375 2632 156 
Q 2281 -63 1825 -63 
Q 1138 -63 711 415 
Q 284 894 284 1681 
L 284 1722 
z
M 866 1653 
Q 866 1091 1127 750 
Q 1388 409 1825 409 
Q 2266 409 2525 754 
Q 2784 1100 2784 1722 
Q 2784 2278 2520 2623 
Q 2256 2969 1819 2969 
Q 1391 2969 1128 2628 
Q 866 2288 866 1653 
z
" id="Roboto-Regular-6f" transform="scale(0.015625)"/>
       <path d="M 2525 334 
Q 2188 -63 1534 -63 
Q 994 -63 711 251 
Q 428 566 425 1181 
L 425 3381 
L 1003 3381 
L 1003 1197 
Q 1003 428 1628 428 
Q 2291 428 2509 922 
L 2509 3381 
L 3088 3381 
L 3088 0 
L 2538 0 
L 2525 334 
z
" id="Roboto-Regular-75" transform="scale(0.015625)"/>
       <path d="M 2406 897 
Q 2406 1131 2229 1261 
Q 2053 1391 1614 1484 
Q 1175 1578 917 1709 
Q 659 1841 536 2022 
Q 413 2203 413 2453 
Q 413 2869 764 3156 
Q 1116 3444 1663 3444 
Q 2238 3444 2595 3147 
Q 2953 2850 2953 2388 
L 2372 2388 
Q 2372 2625 2170 2797 
Q 1969 2969 1663 2969 
Q 1347 2969 1169 2831 
Q 991 2694 991 2472 
Q 991 2263 1156 2156 
Q 1322 2050 1755 1953 
Q 2188 1856 2456 1722 
Q 2725 1588 2854 1398 
Q 2984 1209 2984 938 
Q 2984 484 2621 210 
Q 2259 -63 1681 -63 
Q 1275 -63 962 81 
Q 650 225 473 483 
Q 297 741 297 1041 
L 875 1041 
Q 891 750 1108 579 
Q 1325 409 1681 409 
Q 2009 409 2207 542 
Q 2406 675 2406 897 
z
" id="Roboto-Regular-73" transform="scale(0.015625)"/>
       <path id="Roboto-Regular-20" transform="scale(0.015625)"/>
       <path d="M 984 3381 
L 1003 2956 
Q 1391 3444 2016 3444 
Q 3088 3444 3097 2234 
L 3097 0 
L 2519 0 
L 2519 2238 
Q 2516 2603 2352 2778 
Q 2188 2953 1841 2953 
Q 1559 2953 1346 2803 
Q 1134 2653 1016 2409 
L 1016 0 
L 438 0 
L 438 3381 
L 984 3381 
z
" id="Roboto-Regular-6e" transform="scale(0.015625)"/>
       <path d="M 1381 1566 
L 1019 1188 
L 1019 0 
L 441 0 
L 441 4800 
L 1019 4800 
L 1019 1897 
L 1328 2269 
L 2381 3381 
L 3084 3381 
L 1769 1969 
L 3238 0 
L 2559 0 
L 1381 1566 
z
" id="Roboto-Regular-6b" transform="scale(0.015625)"/>
       <path d="M 1544 847 
L 2331 3381 
L 2950 3381 
L 1591 -522 
Q 1275 -1366 588 -1366 
L 478 -1356 
L 263 -1316 
L 263 -847 
L 419 -859 
Q 713 -859 877 -740 
Q 1041 -622 1147 -306 
L 1275 38 
L 69 3381 
L 700 3381 
L 1544 847 
z
" id="Roboto-Regular-79" transform="scale(0.015625)"/>
      </defs>
      <use xlink:href="#Roboto-Regular-48"/>
      <use x="71.289062" xlink:href="#Roboto-Regular-6f"/>
      <use x="128.320312" xlink:href="#Roboto-Regular-75"/>
      <use x="183.447266" xlink:href="#Roboto-Regular-72"/>
      <use x="217.285156" xlink:href="#Roboto-Regular-73"/>
      <use x="268.847656" xlink:href="#Roboto-Regular-20"/>
      <use x="293.603516" xlink:href="#Roboto-Regular-6f"/>
      <use x="350.634766" xlink:href="#Roboto-Regular-6e"/>
      <use x="405.810547" xlink:href="#Roboto-Regular-20"/>
      <use x="430.566406" xlink:href="#Roboto-Regular-73"/>
      <use x="482.128906" xlink:href="#Roboto-Regular-6b"/>
      <use x="532.8125" xlink:href="#Roboto-Regular-79"/>
     </g>
    </g>
   </g>
   <g id="line2d_40">
    <path clip-path="url(#pfbadacd77c)" d="M 53.7268 186.803803 
L 54.283004 185.059969 
L 55.858916 185.059969 
L 56.600521 183.342052 
L 56.693222 183.342052 
L 56.971324 182.669047 
L 57.064025 182.601108 
L 57.249426 182.11239 
L 59.288841 182.11239 
L 59.474243 181.690315 
L 59.566943 181.690315 
L 60.030447 180.258502 
L 64.758182 180.258502 
L 64.943583 179.320682 
L 65.221685 177.996016 
L 67.539202 177.996016 
L 67.910005 176.509869 
L 68.188107 175.454683 
L 70.227522 175.454683 
L 71.061828 170.395343 
L 71.247229 169.900423 
L 78.292481 169.811566 
L 78.570583 169.441325 
L 78.848685 168.621241 
L 83.947223 168.554598 
L 84.318026 167.199517 
L 84.410726 167.199517 
L 84.596128 166.742288 
L 84.87423 165.942568 
L 85.059631 165.942568 
L 85.245032 165.809281 
L 87.191747 165.809281 
L 87.65525 164.013613 
L 88.026053 162.727952 
L 92.197584 162.727952 
L 92.475686 162.461379 
L 92.753788 162.461379 
L 93.12459 161.387977 
L 93.680795 158.988021 
L 94.793203 158.888056 
L 95.164005 157.068322 
L 95.442108 157.068322 
L 95.627509 156.868392 
L 97.945026 156.868392 
L 98.037727 156.668462 
L 98.408529 154.626214 
L 98.50123 154.492927 
L 98.779332 153.248918 
L 101.004148 153.248918 
L 101.374951 151.456212 
L 102.487359 151.389569 
L 102.765461 151.327554 
L 105.824584 151.327554 
L 106.009985 151.140952 
L 106.102686 151.052095 
L 106.844291 147.87043 
L 109.996115 147.87043 
L 110.366917 147.068859 
L 112.962537 147.068859 
L 113.240639 146.275803 
L 116.670564 146.275803 
L 116.948666 145.550502 
L 117.226768 145.461644 
L 117.50487 144.669606 
L 117.690271 144.049823 
L 117.875673 143.527784 
L 118.339176 143.527784 
L 118.89538 141.554474 
L 119.080782 141.165685 
L 119.915088 141.165685 
L 120.378591 140.287103 
L 120.471292 140.287103 
L 120.749394 139.494788 
L 125.66253 139.494788 
L 126.126033 137.879798 
L 126.218734 137.879798 
L 126.589537 136.093201 
L 127.609244 136.093201 
L 127.794646 135.540061 
L 127.887346 135.473418 
L 128.536251 132.601645 
L 128.907054 131.737503 
L 130.204864 131.67086 
L 130.575666 130.833375 
L 130.668367 130.811161 
L 131.224571 128.092668 
L 131.502673 128.092668 
L 131.780775 127.322382 
L 132.058877 126.149459 
L 132.336979 126.087999 
L 132.985884 126.054677 
L 133.171285 125.862152 
L 136.786612 125.862152 
L 137.064714 125.558444 
L 138.547925 125.558444 
L 139.28953 123.271466 
L 141.88515 123.271466 
L 142.070551 122.838285 
L 142.163252 122.838285 
L 142.348653 122.420653 
L 142.534054 122.398438 
L 142.719456 121.964146 
L 143.739163 121.964146 
L 144.109966 120.551307 
L 144.202667 120.551307 
L 144.573469 119.476128 
L 146.427483 119.476128 
L 146.890986 117.675277 
L 147.447191 117.675277 
L 148.096095 115.617664 
L 149.672007 115.617664 
L 150.228211 113.831622 
L 150.413612 113.820515 
L 150.691714 113.041158 
L 151.43332 113.041158 
L 151.711422 112.408046 
L 151.989524 112.215521 
L 152.267626 111.271407 
L 152.360327 111.271407 
L 152.731129 110.438365 
L 152.82383 110.419298 
L 153.101932 109.775079 
L 153.287334 109.434828 
L 153.472735 109.279327 
L 153.658136 109.190469 
L 153.843538 108.490714 
L 154.21434 108.490714 
L 154.863245 106.6247 
L 155.048647 106.555558 
L 155.326749 105.567015 
L 155.975653 105.567015 
L 156.161055 105.037941 
L 156.624558 103.211913 
L 158.385871 103.123055 
L 158.663973 102.925347 
L 160.332585 102.925347 
L 160.88879 101.272962 
L 161.074191 100.495457 
L 161.815796 96.683846 
L 163.391708 96.683846 
L 164.596817 91.214279 
L 165.616524 91.214279 
L 165.894626 89.563376 
L 166.265429 87.795106 
L 167.007035 87.795106 
L 167.192436 87.18643 
L 169.417252 87.18643 
L 169.695354 85.569218 
L 169.880756 84.968132 
L 170.622361 84.968132 
L 170.993164 83.075461 
L 171.456667 83.075461 
L 171.734769 82.082475 
L 171.82747 82.082475 
L 172.105572 81.047282 
L 173.959586 81.047282 
L 174.237688 79.608897 
L 174.608491 79.608897 
L 174.886593 78.46128 
L 175.442797 75.843493 
L 177.111409 75.843493 
L 177.482212 75.134852 
L 179.521627 75.134852 
L 179.799729 74.151862 
L 179.892429 74.151862 
L 180.355933 72.642391 
L 180.448634 72.642391 
L 180.634035 72.189216 
L 183.229654 72.189216 
L 183.415055 71.868958 
L 185.176368 71.868958 
L 185.36177 71.311745 
L 185.45447 71.311745 
L 185.639872 70.958536 
L 185.825273 70.345417 
L 186.010675 69.958886 
L 187.864688 69.958886 
L 188.513593 68.732463 
L 199.730376 68.732463 
L 199.915777 68.106016 
L 200.101178 67.679498 
L 201.398988 67.679498 
L 201.584389 66.779813 
L 201.955192 64.860485 
L 202.140593 64.860485 
L 202.325995 64.36066 
L 218.363213 64.36066 
L 218.455914 64.227373 
L 219.104818 62.128108 
L 222.627444 62.128108 
L 222.812846 61.672712 
L 222.998247 61.091341 
L 223.090948 61.091341 
L 223.46175 59.395823 
L 224.388757 59.395823 
L 224.852261 58.113865 
L 234.678533 58.113865 
L 234.863934 57.385231 
L 248.120132 57.385231 
L 248.490935 56.212308 
L 248.861737 56.212308 
L 249.13984 55.329654 
L 257.3902 55.243018 
L 257.668302 54.489948 
L 265.45516 54.489948 
L 266.011364 51.857536 
L 266.196765 51.413247 
L 266.382166 51.160558 
L 266.84567 51.13279 
L 267.031071 51.13279 
L 267.401874 49.310279 
L 270.831799 49.310279 
L 271.017201 48.888205 
L 271.202602 48.888205 
L 271.573405 48.132914 
L 272.31501 48.132914 
L 272.500412 47.809694 
L 272.685813 47.809694 
L 272.871214 47.587549 
L 273.056616 47.587549 
L 273.427418 45.662575 
L 275.188731 45.662575 
L 275.281432 45.462645 
L 275.559534 44.291943 
L 275.837636 44.291943 
L 276.486541 40.901056 
L 276.671942 40.38457 
L 278.247854 40.38457 
L 278.525956 39.318277 
L 278.711357 39.318277 
L 279.360262 36.852473 
L 284.273398 36.852473 
L 284.5515 36.236022 
L 284.644201 36.236022 
L 284.829602 35.886145 
L 284.922303 35.886145 
L 285.107704 35.475177 
L 288.352228 35.475177 
L 288.723031 34.363955 
L 289.093834 34.330634 
L 289.186534 34.330634 
L 289.650038 32.573471 
L 290.206242 32.573471 
L 290.484344 31.907037 
L 294.841276 31.907037 
L 295.39748 29.445399 
L 296.139086 25.595598 
L 297.529596 25.595598 
L 297.714997 25.212399 
L 299.47631 25.212399 
L 299.847113 23.657388 
L 299.939814 23.524101 
L 300.217916 22.024626 
L 300.310616 21.791374 
L 300.681419 19.958682 
L 301.144923 19.958682 
L 301.330324 19.825396 
L 301.608426 19.792074 
L 302.071929 18.153759 
L 302.442732 18.096001 
L 302.628133 17.77167 
L 304.482147 17.77167 
L 304.667548 16.983057 
L 304.85295 16.983057 
L 305.131052 15.961008 
L 305.409154 15.851787 
L 305.872657 15.761078 
L 306.058059 15.277913 
L 306.24346 15.277913 
L 306.614263 13.678473 
L 306.614263 13.678473 
" style="fill:none;stroke:#8dd3c7;stroke-linecap:square;stroke-width:2;"/>
   </g>
   <g id="patch_87">
    <path d="M 50.296875 187.13702 
L 50.296875 7.2 
" style="fill:none;stroke:#ffffff;stroke-linecap:square;stroke-linejoin:miter;stroke-width:0.8;"/>
   </g>
   <g id="patch_88">
    <path d="M 321.16827 187.13702 
L 321.16827 7.2 
" style="fill:none;stroke:#ffffff;stroke-linecap:square;stroke-linejoin:miter;stroke-width:0.8;"/>
   </g>
   <g id="patch_89">
    <path d="M 50.296875 187.13702 
L 321.16827 187.13702 
" style="fill:none;stroke:#ffffff;stroke-linecap:square;stroke-linejoin:miter;stroke-width:0.8;"/>
   </g>
   <g id="patch_90">
    <path d="M 50.296875 7.2 
L 321.16827 7.2 
" style="fill:none;stroke:#ffffff;stroke-linecap:square;stroke-linejoin:miter;stroke-width:0.8;"/>
   </g>
  </g>
 </g>
 <defs>
  <clipPath id="pfbadacd77c">
   <rect height="179.93702" width="270.871395" x="50.296875" y="7.2"/>
  </clipPath>
 </defs>
</svg>
