<?xml version="1.0" encoding="utf-8" standalone="no"?>
<!DOCTYPE svg PUBLIC "-//W3C//DTD SVG 1.1//EN"
  "http://www.w3.org/Graphics/SVG/1.1/DTD/svg11.dtd">
<svg height="224.39952pt" version="1.1" viewBox="0 0 338.87952 224.39952" width="338.87952pt" xmlns="http://www.w3.org/2000/svg" xmlns:xlink="http://www.w3.org/1999/xlink">
 <metadata>
  <rdf:RDF xmlns:cc="http://creativecommons.org/ns#" xmlns:dc="http://purl.org/dc/elements/1.1/" xmlns:rdf="http://www.w3.org/1999/02/22-rdf-syntax-ns#">
   <cc:Work>
    <dc:type rdf:resource="http://purl.org/dc/dcmitype/StillImage"/>
    <dc:date>2021-10-22T16:37:43.023980</dc:date>
    <dc:format>image/svg+xml</dc:format>
    <dc:creator>
     <cc:Agent>
      <dc:title>Matplotlib v3.4.3, https://matplotlib.org/</dc:title>
     </cc:Agent>
    </dc:creator>
   </cc:Work>
  </rdf:RDF>
 </metadata>
 <defs>
  <style type="text/css">*{stroke-linecap:butt;stroke-linejoin:round;}</style>
 </defs>
 <g id="figure_1">
  <g id="patch_1">
   <path d="M 0 224.39952 
L 338.87952 224.39952 
L 338.87952 0 
L 0 0 
z
"/>
  </g>
  <g id="axes_1">
   <g id="patch_2">
    <path d="M 50.296875 187.13702 
L 320.44827 187.13702 
L 320.44827 7.2 
L 50.296875 7.2 
z
"/>
   </g>
   <g id="patch_3">
    <path clip-path="url(#p40268cdf40)" d="M 53.717683 187.13702 
L 53.717683 7.2 
L 53.810137 7.2 
L 53.810137 187.13702 
z
" style="fill:#bfbbd9;opacity:0.5;"/>
   </g>
   <g id="patch_4">
    <path clip-path="url(#p40268cdf40)" d="M 53.717683 187.13702 
L 53.717683 7.2 
L 54.642226 7.2 
L 54.642226 187.13702 
z
" style="fill:#bfbbd9;opacity:0.5;"/>
   </g>
   <g id="patch_5">
    <path clip-path="url(#p40268cdf40)" d="M 55.936586 187.13702 
L 55.936586 7.2 
L 57.230946 7.2 
L 57.230946 187.13702 
z
" style="fill:#bfbbd9;opacity:0.5;"/>
   </g>
   <g id="patch_6">
    <path clip-path="url(#p40268cdf40)" d="M 59.357394 187.13702 
L 59.357394 7.2 
L 60.004574 7.2 
L 60.004574 187.13702 
z
" style="fill:#bfbbd9;opacity:0.5;"/>
   </g>
   <g id="patch_7">
    <path clip-path="url(#p40268cdf40)" d="M 64.719742 187.13702 
L 64.719742 7.2 
L 65.274468 7.2 
L 65.274468 187.13702 
z
" style="fill:#bfbbd9;opacity:0.5;"/>
   </g>
   <g id="patch_8">
    <path clip-path="url(#p40268cdf40)" d="M 67.585825 187.13702 
L 67.585825 7.2 
L 68.417913 7.2 
L 68.417913 187.13702 
z
" style="fill:#bfbbd9;opacity:0.5;"/>
   </g>
   <g id="patch_9">
    <path clip-path="url(#p40268cdf40)" d="M 70.266999 187.13702 
L 70.266999 7.2 
L 71.37645 7.2 
L 71.37645 187.13702 
z
" style="fill:#bfbbd9;opacity:0.5;"/>
   </g>
   <g id="patch_10">
    <path clip-path="url(#p40268cdf40)" d="M 71.931176 187.13702 
L 71.931176 7.2 
L 72.116084 7.2 
L 72.116084 187.13702 
z
" style="fill:#bfbbd9;opacity:0.5;"/>
   </g>
   <g id="patch_11">
    <path clip-path="url(#p40268cdf40)" d="M 78.310521 187.13702 
L 78.310521 7.2 
L 78.772792 7.2 
L 78.772792 187.13702 
z
" style="fill:#bfbbd9;opacity:0.5;"/>
   </g>
   <g id="patch_12">
    <path clip-path="url(#p40268cdf40)" d="M 81.084149 187.13702 
L 81.084149 7.2 
L 81.453966 7.2 
L 81.453966 187.13702 
z
" style="fill:#bfbbd9;opacity:0.5;"/>
   </g>
   <g id="patch_13">
    <path clip-path="url(#p40268cdf40)" d="M 83.950232 187.13702 
L 83.950232 7.2 
L 85.152137 7.2 
L 85.152137 187.13702 
z
" style="fill:#bfbbd9;opacity:0.5;"/>
   </g>
   <g id="patch_14">
    <path clip-path="url(#p40268cdf40)" d="M 87.186131 187.13702 
L 87.186131 7.2 
L 87.925765 7.2 
L 87.925765 187.13702 
z
" style="fill:#bfbbd9;opacity:0.5;"/>
   </g>
   <g id="patch_15">
    <path clip-path="url(#p40268cdf40)" d="M 92.178662 187.13702 
L 92.178662 7.2 
L 93.565476 7.2 
L 93.565476 187.13702 
z
" style="fill:#bfbbd9;opacity:0.5;"/>
   </g>
   <g id="patch_16">
    <path clip-path="url(#p40268cdf40)" d="M 94.674928 187.13702 
L 94.674928 7.2 
L 95.507016 7.2 
L 95.507016 187.13702 
z
" style="fill:#bfbbd9;opacity:0.5;"/>
   </g>
   <g id="patch_17">
    <path clip-path="url(#p40268cdf40)" d="M 97.633464 187.13702 
L 97.633464 7.2 
L 98.650461 7.2 
L 98.650461 187.13702 
z
" style="fill:#bfbbd9;opacity:0.5;"/>
   </g>
   <g id="patch_18">
    <path clip-path="url(#p40268cdf40)" d="M 100.961818 187.13702 
L 100.961818 7.2 
L 101.331635 7.2 
L 101.331635 187.13702 
z
" style="fill:#bfbbd9;opacity:0.5;"/>
   </g>
   <g id="patch_19">
    <path clip-path="url(#p40268cdf40)" d="M 102.348632 187.13702 
L 102.348632 7.2 
L 102.533541 7.2 
L 102.533541 187.13702 
z
" style="fill:#bfbbd9;opacity:0.5;"/>
   </g>
   <g id="patch_20">
    <path clip-path="url(#p40268cdf40)" d="M 105.676986 187.13702 
L 105.676986 7.2 
L 106.786438 7.2 
L 106.786438 187.13702 
z
" style="fill:#bfbbd9;opacity:0.5;"/>
   </g>
   <g id="patch_21">
    <path clip-path="url(#p40268cdf40)" d="M 109.929883 187.13702 
L 109.929883 7.2 
L 110.114792 7.2 
L 110.114792 187.13702 
z
" style="fill:#bfbbd9;opacity:0.5;"/>
   </g>
   <g id="patch_22">
    <path clip-path="url(#p40268cdf40)" d="M 112.88842 187.13702 
L 112.88842 7.2 
L 113.165783 7.2 
L 113.165783 187.13702 
z
" style="fill:#bfbbd9;opacity:0.5;"/>
   </g>
   <g id="patch_23">
    <path clip-path="url(#p40268cdf40)" d="M 116.586591 187.13702 
L 116.586591 7.2 
L 117.880951 7.2 
L 117.880951 187.13702 
z
" style="fill:#bfbbd9;opacity:0.5;"/>
   </g>
   <g id="patch_24">
    <path clip-path="url(#p40268cdf40)" d="M 118.250768 187.13702 
L 118.250768 7.2 
L 118.990402 7.2 
L 118.990402 187.13702 
z
" style="fill:#bfbbd9;opacity:0.5;"/>
   </g>
   <g id="patch_25">
    <path clip-path="url(#p40268cdf40)" d="M 119.822491 187.13702 
L 119.822491 7.2 
L 120.562125 7.2 
L 120.562125 187.13702 
z
" style="fill:#bfbbd9;opacity:0.5;"/>
   </g>
   <g id="patch_26">
    <path clip-path="url(#p40268cdf40)" d="M 125.554656 187.13702 
L 125.554656 7.2 
L 126.479199 7.2 
L 126.479199 187.13702 
z
" style="fill:#bfbbd9;opacity:0.5;"/>
   </g>
   <g id="patch_27">
    <path clip-path="url(#p40268cdf40)" d="M 127.496196 187.13702 
L 127.496196 7.2 
L 128.605647 7.2 
L 128.605647 187.13702 
z
" style="fill:#bfbbd9;opacity:0.5;"/>
   </g>
   <g id="patch_28">
    <path clip-path="url(#p40268cdf40)" d="M 129.992461 187.13702 
L 129.992461 7.2 
L 133.043452 7.2 
L 133.043452 187.13702 
z
" style="fill:#bfbbd9;opacity:0.5;"/>
   </g>
   <g id="patch_29">
    <path clip-path="url(#p40268cdf40)" d="M 136.556715 187.13702 
L 136.556715 7.2 
L 136.834078 7.2 
L 136.834078 187.13702 
z
" style="fill:#bfbbd9;opacity:0.5;"/>
   </g>
   <g id="patch_30">
    <path clip-path="url(#p40268cdf40)" d="M 138.4058 187.13702 
L 138.4058 7.2 
L 139.05298 7.2 
L 139.05298 187.13702 
z
" style="fill:#bfbbd9;opacity:0.5;"/>
   </g>
   <g id="patch_31">
    <path clip-path="url(#p40268cdf40)" d="M 141.6417 187.13702 
L 141.6417 7.2 
L 142.473788 7.2 
L 142.473788 187.13702 
z
" style="fill:#bfbbd9;opacity:0.5;"/>
   </g>
   <g id="patch_32">
    <path clip-path="url(#p40268cdf40)" d="M 143.58324 187.13702 
L 143.58324 7.2 
L 144.322874 7.2 
L 144.322874 187.13702 
z
" style="fill:#bfbbd9;opacity:0.5;"/>
   </g>
   <g id="patch_33">
    <path clip-path="url(#p40268cdf40)" d="M 146.264414 187.13702 
L 146.264414 7.2 
L 146.819139 7.2 
L 146.819139 187.13702 
z
" style="fill:#bfbbd9;opacity:0.5;"/>
   </g>
   <g id="patch_34">
    <path clip-path="url(#p40268cdf40)" d="M 147.281411 187.13702 
L 147.281411 7.2 
L 147.743682 7.2 
L 147.743682 187.13702 
z
" style="fill:#bfbbd9;opacity:0.5;"/>
   </g>
   <g id="patch_35">
    <path clip-path="url(#p40268cdf40)" d="M 149.407859 187.13702 
L 149.407859 7.2 
L 150.51731 7.2 
L 150.51731 187.13702 
z
" style="fill:#bfbbd9;opacity:0.5;"/>
   </g>
   <g id="patch_36">
    <path clip-path="url(#p40268cdf40)" d="M 151.256945 187.13702 
L 151.256945 7.2 
L 153.660756 7.2 
L 153.660756 187.13702 
z
" style="fill:#bfbbd9;opacity:0.5;"/>
   </g>
   <g id="patch_37">
    <path clip-path="url(#p40268cdf40)" d="M 154.030573 187.13702 
L 154.030573 7.2 
L 155.140024 7.2 
L 155.140024 187.13702 
z
" style="fill:#bfbbd9;opacity:0.5;"/>
   </g>
   <g id="patch_38">
    <path clip-path="url(#p40268cdf40)" d="M 155.787204 187.13702 
L 155.787204 7.2 
L 156.34193 7.2 
L 156.34193 187.13702 
z
" style="fill:#bfbbd9;opacity:0.5;"/>
   </g>
   <g id="patch_39">
    <path clip-path="url(#p40268cdf40)" d="M 158.098561 187.13702 
L 158.098561 7.2 
L 158.375924 7.2 
L 158.375924 187.13702 
z
" style="fill:#bfbbd9;opacity:0.5;"/>
   </g>
   <g id="patch_40">
    <path clip-path="url(#p40268cdf40)" d="M 160.132555 187.13702 
L 160.132555 7.2 
L 161.611824 7.2 
L 161.611824 187.13702 
z
" style="fill:#bfbbd9;opacity:0.5;"/>
   </g>
   <g id="patch_41">
    <path clip-path="url(#p40268cdf40)" d="M 163.183546 187.13702 
L 163.183546 7.2 
L 164.292998 7.2 
L 164.292998 187.13702 
z
" style="fill:#bfbbd9;opacity:0.5;"/>
   </g>
   <g id="patch_42">
    <path clip-path="url(#p40268cdf40)" d="M 165.402449 187.13702 
L 165.402449 7.2 
L 165.957175 7.2 
L 165.957175 187.13702 
z
" style="fill:#bfbbd9;opacity:0.5;"/>
   </g>
   <g id="patch_43">
    <path clip-path="url(#p40268cdf40)" d="M 166.789263 187.13702 
L 166.789263 7.2 
L 166.974172 7.2 
L 166.974172 187.13702 
z
" style="fill:#bfbbd9;opacity:0.5;"/>
   </g>
   <g id="patch_44">
    <path clip-path="url(#p40268cdf40)" d="M 169.193074 187.13702 
L 169.193074 7.2 
L 169.655346 7.2 
L 169.655346 187.13702 
z
" style="fill:#bfbbd9;opacity:0.5;"/>
   </g>
   <g id="patch_45">
    <path clip-path="url(#p40268cdf40)" d="M 170.39498 187.13702 
L 170.39498 7.2 
L 170.672343 7.2 
L 170.672343 187.13702 
z
" style="fill:#bfbbd9;opacity:0.5;"/>
   </g>
   <g id="patch_46">
    <path clip-path="url(#p40268cdf40)" d="M 171.227068 187.13702 
L 171.227068 7.2 
L 171.781794 7.2 
L 171.781794 187.13702 
z
" style="fill:#bfbbd9;opacity:0.5;"/>
   </g>
   <g id="patch_47">
    <path clip-path="url(#p40268cdf40)" d="M 173.723334 187.13702 
L 173.723334 7.2 
L 174.000697 7.2 
L 174.000697 187.13702 
z
" style="fill:#bfbbd9;opacity:0.5;"/>
   </g>
   <g id="patch_48">
    <path clip-path="url(#p40268cdf40)" d="M 174.370514 187.13702 
L 174.370514 7.2 
L 175.202602 7.2 
L 175.202602 187.13702 
z
" style="fill:#bfbbd9;opacity:0.5;"/>
   </g>
   <g id="patch_49">
    <path clip-path="url(#p40268cdf40)" d="M 176.589416 187.13702 
L 176.589416 7.2 
L 177.144142 7.2 
L 177.144142 187.13702 
z
" style="fill:#bfbbd9;opacity:0.5;"/>
   </g>
   <g id="patch_50">
    <path clip-path="url(#p40268cdf40)" d="M 179.27059 187.13702 
L 179.27059 7.2 
L 180.287587 7.2 
L 180.287587 187.13702 
z
" style="fill:#bfbbd9;opacity:0.5;"/>
   </g>
   <g id="patch_51">
    <path clip-path="url(#p40268cdf40)" d="M 182.876307 187.13702 
L 182.876307 7.2 
L 183.246124 7.2 
L 183.246124 187.13702 
z
" style="fill:#bfbbd9;opacity:0.5;"/>
   </g>
   <g id="patch_52">
    <path clip-path="url(#p40268cdf40)" d="M 184.910301 187.13702 
L 184.910301 7.2 
L 185.649935 7.2 
L 185.649935 187.13702 
z
" style="fill:#bfbbd9;opacity:0.5;"/>
   </g>
   <g id="patch_53">
    <path clip-path="url(#p40268cdf40)" d="M 187.591475 187.13702 
L 187.591475 7.2 
L 187.776384 7.2 
L 187.776384 187.13702 
z
" style="fill:#bfbbd9;opacity:0.5;"/>
   </g>
   <g id="patch_54">
    <path clip-path="url(#p40268cdf40)" d="M 187.868838 187.13702 
L 187.868838 7.2 
L 188.238655 7.2 
L 188.238655 187.13702 
z
" style="fill:#bfbbd9;opacity:0.5;"/>
   </g>
   <g id="patch_55">
    <path clip-path="url(#p40268cdf40)" d="M 199.425622 187.13702 
L 199.425622 7.2 
L 199.702985 7.2 
L 199.702985 187.13702 
z
" style="fill:#bfbbd9;opacity:0.5;"/>
   </g>
   <g id="patch_56">
    <path clip-path="url(#p40268cdf40)" d="M 201.089799 187.13702 
L 201.089799 7.2 
L 201.459617 7.2 
L 201.459617 187.13702 
z
" style="fill:#bfbbd9;opacity:0.5;"/>
   </g>
   <g id="patch_57">
    <path clip-path="url(#p40268cdf40)" d="M 201.552071 187.13702 
L 201.552071 7.2 
L 201.921888 7.2 
L 201.921888 187.13702 
z
" style="fill:#bfbbd9;opacity:0.5;"/>
   </g>
   <g id="patch_58">
    <path clip-path="url(#p40268cdf40)" d="M 218.008932 187.13702 
L 218.008932 7.2 
L 218.656112 7.2 
L 218.656112 187.13702 
z
" style="fill:#bfbbd9;opacity:0.5;"/>
   </g>
   <g id="patch_59">
    <path clip-path="url(#p40268cdf40)" d="M 222.261829 187.13702 
L 222.261829 7.2 
L 223.093917 7.2 
L 223.093917 187.13702 
z
" style="fill:#bfbbd9;opacity:0.5;"/>
   </g>
   <g id="patch_60">
    <path clip-path="url(#p40268cdf40)" d="M 224.01846 187.13702 
L 224.01846 7.2 
L 224.295823 7.2 
L 224.295823 187.13702 
z
" style="fill:#bfbbd9;opacity:0.5;"/>
   </g>
   <g id="patch_61">
    <path clip-path="url(#p40268cdf40)" d="M 232.616708 187.13702 
L 232.616708 7.2 
L 232.986525 7.2 
L 232.986525 187.13702 
z
" style="fill:#bfbbd9;opacity:0.5;"/>
   </g>
   <g id="patch_62">
    <path clip-path="url(#p40268cdf40)" d="M 233.54125 187.13702 
L 233.54125 7.2 
L 234.465793 7.2 
L 234.465793 187.13702 
z
" style="fill:#bfbbd9;opacity:0.5;"/>
   </g>
   <g id="patch_63">
    <path clip-path="url(#p40268cdf40)" d="M 241.122501 187.13702 
L 241.122501 7.2 
L 241.492318 7.2 
L 241.492318 187.13702 
z
" style="fill:#bfbbd9;opacity:0.5;"/>
   </g>
   <g id="patch_64">
    <path clip-path="url(#p40268cdf40)" d="M 247.686755 187.13702 
L 247.686755 7.2 
L 248.149026 7.2 
L 248.149026 187.13702 
z
" style="fill:#bfbbd9;opacity:0.5;"/>
   </g>
   <g id="patch_65">
    <path clip-path="url(#p40268cdf40)" d="M 248.333935 187.13702 
L 248.333935 7.2 
L 248.703752 7.2 
L 248.703752 187.13702 
z
" style="fill:#bfbbd9;opacity:0.5;"/>
   </g>
   <g id="patch_66">
    <path clip-path="url(#p40268cdf40)" d="M 256.654819 187.13702 
L 256.654819 7.2 
L 257.209545 7.2 
L 257.209545 187.13702 
z
" style="fill:#bfbbd9;opacity:0.5;"/>
   </g>
   <g id="patch_67">
    <path clip-path="url(#p40268cdf40)" d="M 264.975704 187.13702 
L 264.975704 7.2 
L 265.992701 7.2 
L 265.992701 187.13702 
z
" style="fill:#bfbbd9;opacity:0.5;"/>
   </g>
   <g id="patch_68">
    <path clip-path="url(#p40268cdf40)" d="M 266.547427 187.13702 
L 266.547427 7.2 
L 267.009698 7.2 
L 267.009698 187.13702 
z
" style="fill:#bfbbd9;opacity:0.5;"/>
   </g>
   <g id="patch_69">
    <path clip-path="url(#p40268cdf40)" d="M 270.338052 187.13702 
L 270.338052 7.2 
L 270.985232 7.2 
L 270.985232 187.13702 
z
" style="fill:#bfbbd9;opacity:0.5;"/>
   </g>
   <g id="patch_70">
    <path clip-path="url(#p40268cdf40)" d="M 271.817321 187.13702 
L 271.817321 7.2 
L 272.279592 7.2 
L 272.279592 187.13702 
z
" style="fill:#bfbbd9;opacity:0.5;"/>
   </g>
   <g id="patch_71">
    <path clip-path="url(#p40268cdf40)" d="M 272.556955 187.13702 
L 272.556955 7.2 
L 273.204135 7.2 
L 273.204135 187.13702 
z
" style="fill:#bfbbd9;opacity:0.5;"/>
   </g>
   <g id="patch_72">
    <path clip-path="url(#p40268cdf40)" d="M 273.296589 187.13702 
L 273.296589 7.2 
L 273.481498 7.2 
L 273.481498 187.13702 
z
" style="fill:#bfbbd9;opacity:0.5;"/>
   </g>
   <g id="patch_73">
    <path clip-path="url(#p40268cdf40)" d="M 274.683403 187.13702 
L 274.683403 7.2 
L 274.960766 7.2 
L 274.960766 187.13702 
z
" style="fill:#bfbbd9;opacity:0.5;"/>
   </g>
   <g id="patch_74">
    <path clip-path="url(#p40268cdf40)" d="M 275.330583 187.13702 
L 275.330583 7.2 
L 276.070217 7.2 
L 276.070217 187.13702 
z
" style="fill:#bfbbd9;opacity:0.5;"/>
   </g>
   <g id="patch_75">
    <path clip-path="url(#p40268cdf40)" d="M 277.64194 187.13702 
L 277.64194 7.2 
L 277.919303 7.2 
L 277.919303 187.13702 
z
" style="fill:#bfbbd9;opacity:0.5;"/>
   </g>
   <g id="patch_76">
    <path clip-path="url(#p40268cdf40)" d="M 278.104212 187.13702 
L 278.104212 7.2 
L 278.843846 7.2 
L 278.843846 187.13702 
z
" style="fill:#bfbbd9;opacity:0.5;"/>
   </g>
   <g id="patch_77">
    <path clip-path="url(#p40268cdf40)" d="M 283.743922 187.13702 
L 283.743922 7.2 
L 284.483557 7.2 
L 284.483557 187.13702 
z
" style="fill:#bfbbd9;opacity:0.5;"/>
   </g>
   <g id="patch_78">
    <path clip-path="url(#p40268cdf40)" d="M 287.811911 187.13702 
L 287.811911 7.2 
L 288.274182 7.2 
L 288.274182 187.13702 
z
" style="fill:#bfbbd9;opacity:0.5;"/>
   </g>
   <g id="patch_79">
    <path clip-path="url(#p40268cdf40)" d="M 288.643999 187.13702 
L 288.643999 7.2 
L 289.10627 7.2 
L 289.10627 187.13702 
z
" style="fill:#bfbbd9;opacity:0.5;"/>
   </g>
   <g id="patch_80">
    <path clip-path="url(#p40268cdf40)" d="M 289.660996 187.13702 
L 289.660996 7.2 
L 289.938359 7.2 
L 289.938359 187.13702 
z
" style="fill:#bfbbd9;opacity:0.5;"/>
   </g>
   <g id="patch_81">
    <path clip-path="url(#p40268cdf40)" d="M 294.28371 187.13702 
L 294.28371 7.2 
L 295.485615 7.2 
L 295.485615 187.13702 
z
" style="fill:#bfbbd9;opacity:0.5;"/>
   </g>
   <g id="patch_82">
    <path clip-path="url(#p40268cdf40)" d="M 296.964884 187.13702 
L 296.964884 7.2 
L 297.334701 7.2 
L 297.334701 187.13702 
z
" style="fill:#bfbbd9;opacity:0.5;"/>
   </g>
   <g id="patch_83">
    <path clip-path="url(#p40268cdf40)" d="M 298.721515 187.13702 
L 298.721515 7.2 
L 300.015875 7.2 
L 300.015875 187.13702 
z
" style="fill:#bfbbd9;opacity:0.5;"/>
   </g>
   <g id="patch_84">
    <path clip-path="url(#p40268cdf40)" d="M 300.570601 187.13702 
L 300.570601 7.2 
L 302.049869 7.2 
L 302.049869 187.13702 
z
" style="fill:#bfbbd9;opacity:0.5;"/>
   </g>
   <g id="patch_85">
    <path clip-path="url(#p40268cdf40)" d="M 303.898955 187.13702 
L 303.898955 7.2 
L 306.672583 7.2 
L 306.672583 187.13702 
z
" style="fill:#bfbbd9;opacity:0.5;"/>
   </g>
   <g id="patch_86">
    <path clip-path="url(#p40268cdf40)" d="M 310.370754 187.13702 
L 310.370754 7.2 
L 311.665114 7.2 
L 311.665114 187.13702 
z
" style="fill:#bfbbd9;opacity:0.5;"/>
   </g>
   <g id="matplotlib.axis_1">
    <g id="xtick_1">
     <g id="line2d_1">
      <defs>
       <path d="M 0 0 
L 0 3.5 
" id="mdef099cf71" style="stroke:#ffffff;stroke-width:0.8;"/>
      </defs>
      <g>
       <use style="fill:#ffffff;stroke:#ffffff;stroke-width:0.8;" x="50.296875" xlink:href="#mdef099cf71" y="187.13702"/>
      </g>
     </g>
     <g id="text_1">
      <!-- 2014 -->
      <g style="fill:#ffffff;" transform="translate(39.065625 201.63702)scale(0.1 -0.1)">
       <defs>
        <path d="M 3359 0 
L 378 0 
L 378 416 
L 1953 2166 
Q 2303 2563 2436 2811 
Q 2569 3059 2569 3325 
Q 2569 3681 2353 3909 
Q 2138 4138 1778 4138 
Q 1347 4138 1108 3892 
Q 869 3647 869 3209 
L 291 3209 
Q 291 3838 695 4225 
Q 1100 4613 1778 4613 
Q 2413 4613 2781 4280 
Q 3150 3947 3150 3394 
Q 3150 2722 2294 1794 
L 1075 472 
L 3359 472 
L 3359 0 
z
" id="Roboto-Regular-32" transform="scale(0.015625)"/>
        <path d="M 3231 1941 
Q 3231 925 2884 431 
Q 2538 -63 1800 -63 
Q 1072 -63 722 420 
Q 372 903 359 1863 
L 359 2634 
Q 359 3638 706 4125 
Q 1053 4613 1794 4613 
Q 2528 4613 2875 4142 
Q 3222 3672 3231 2691 
L 3231 1941 
z
M 2653 2731 
Q 2653 3466 2447 3802 
Q 2241 4138 1794 4138 
Q 1350 4138 1147 3803 
Q 944 3469 938 2775 
L 938 1850 
Q 938 1113 1152 761 
Q 1366 409 1800 409 
Q 2228 409 2436 740 
Q 2644 1072 2653 1784 
L 2653 2731 
z
" id="Roboto-Regular-30" transform="scale(0.015625)"/>
        <path d="M 2278 0 
L 1697 0 
L 1697 3853 
L 531 3425 
L 531 3950 
L 2188 4572 
L 2278 4572 
L 2278 0 
z
" id="Roboto-Regular-31" transform="scale(0.015625)"/>
        <path d="M 2819 1528 
L 3450 1528 
L 3450 1056 
L 2819 1056 
L 2819 0 
L 2238 0 
L 2238 1056 
L 166 1056 
L 166 1397 
L 2203 4550 
L 2819 4550 
L 2819 1528 
z
M 822 1528 
L 2238 1528 
L 2238 3759 
L 2169 3634 
L 822 1528 
z
" id="Roboto-Regular-34" transform="scale(0.015625)"/>
       </defs>
       <use xlink:href="#Roboto-Regular-32"/>
       <use x="56.152344" xlink:href="#Roboto-Regular-30"/>
       <use x="112.304688" xlink:href="#Roboto-Regular-31"/>
       <use x="168.457031" xlink:href="#Roboto-Regular-34"/>
      </g>
     </g>
    </g>
    <g id="xtick_2">
     <g id="line2d_2">
      <g>
       <use style="fill:#ffffff;stroke:#ffffff;stroke-width:0.8;" x="84.042686" xlink:href="#mdef099cf71" y="187.13702"/>
      </g>
     </g>
     <g id="text_2">
      <!-- 2015 -->
      <g style="fill:#ffffff;" transform="translate(72.811436 201.63702)scale(0.1 -0.1)">
       <defs>
        <path d="M 644 2281 
L 875 4550 
L 3206 4550 
L 3206 4016 
L 1366 4016 
L 1228 2775 
Q 1563 2972 1988 2972 
Q 2609 2972 2975 2561 
Q 3341 2150 3341 1450 
Q 3341 747 2961 342 
Q 2581 -63 1900 -63 
Q 1297 -63 915 271 
Q 534 606 481 1197 
L 1028 1197 
Q 1081 806 1306 607 
Q 1531 409 1900 409 
Q 2303 409 2533 684 
Q 2763 959 2763 1444 
Q 2763 1900 2514 2176 
Q 2266 2453 1853 2453 
Q 1475 2453 1259 2288 
L 1106 2163 
L 644 2281 
z
" id="Roboto-Regular-35" transform="scale(0.015625)"/>
       </defs>
       <use xlink:href="#Roboto-Regular-32"/>
       <use x="56.152344" xlink:href="#Roboto-Regular-30"/>
       <use x="112.304688" xlink:href="#Roboto-Regular-31"/>
       <use x="168.457031" xlink:href="#Roboto-Regular-35"/>
      </g>
     </g>
    </g>
    <g id="xtick_3">
     <g id="line2d_3">
      <g>
       <use style="fill:#ffffff;stroke:#ffffff;stroke-width:0.8;" x="117.788497" xlink:href="#mdef099cf71" y="187.13702"/>
      </g>
     </g>
     <g id="text_3">
      <!-- 2016 -->
      <g style="fill:#ffffff;" transform="translate(106.557247 201.63702)scale(0.1 -0.1)">
       <defs>
        <path d="M 2647 4553 
L 2647 4063 
L 2541 4063 
Q 1866 4050 1466 3662 
Q 1066 3275 1003 2572 
Q 1363 2984 1984 2984 
Q 2578 2984 2933 2565 
Q 3288 2147 3288 1484 
Q 3288 781 2905 359 
Q 2522 -63 1878 -63 
Q 1225 -63 819 439 
Q 413 941 413 1731 
L 413 1953 
Q 413 3209 948 3873 
Q 1484 4538 2544 4553 
L 2647 4553 
z
M 1888 2503 
Q 1591 2503 1341 2325 
Q 1091 2147 994 1878 
L 994 1666 
Q 994 1103 1247 759 
Q 1500 416 1878 416 
Q 2269 416 2492 703 
Q 2716 991 2716 1456 
Q 2716 1925 2489 2214 
Q 2263 2503 1888 2503 
z
" id="Roboto-Regular-36" transform="scale(0.015625)"/>
       </defs>
       <use xlink:href="#Roboto-Regular-32"/>
       <use x="56.152344" xlink:href="#Roboto-Regular-30"/>
       <use x="112.304688" xlink:href="#Roboto-Regular-31"/>
       <use x="168.457031" xlink:href="#Roboto-Regular-36"/>
      </g>
     </g>
    </g>
    <g id="xtick_4">
     <g id="line2d_4">
      <g>
       <use style="fill:#ffffff;stroke:#ffffff;stroke-width:0.8;" x="151.626762" xlink:href="#mdef099cf71" y="187.13702"/>
      </g>
     </g>
     <g id="text_4">
      <!-- 2017 -->
      <g style="fill:#ffffff;" transform="translate(140.395512 201.63702)scale(0.1 -0.1)">
       <defs>
        <path d="M 3316 4225 
L 1431 0 
L 825 0 
L 2703 4075 
L 241 4075 
L 241 4550 
L 3316 4550 
L 3316 4225 
z
" id="Roboto-Regular-37" transform="scale(0.015625)"/>
       </defs>
       <use xlink:href="#Roboto-Regular-32"/>
       <use x="56.152344" xlink:href="#Roboto-Regular-30"/>
       <use x="112.304688" xlink:href="#Roboto-Regular-31"/>
       <use x="168.457031" xlink:href="#Roboto-Regular-37"/>
      </g>
     </g>
    </g>
    <g id="xtick_5">
     <g id="line2d_5">
      <g>
       <use style="fill:#ffffff;stroke:#ffffff;stroke-width:0.8;" x="185.372573" xlink:href="#mdef099cf71" y="187.13702"/>
      </g>
     </g>
     <g id="text_5">
      <!-- 2018 -->
      <g style="fill:#ffffff;" transform="translate(174.141323 201.63702)scale(0.1 -0.1)">
       <defs>
        <path d="M 3138 3363 
Q 3138 3022 2958 2756 
Q 2778 2491 2472 2341 
Q 2828 2188 3036 1894 
Q 3244 1600 3244 1228 
Q 3244 638 2845 287 
Q 2447 -63 1797 -63 
Q 1141 -63 745 289 
Q 350 641 350 1228 
Q 350 1597 551 1894 
Q 753 2191 1109 2344 
Q 806 2494 631 2759 
Q 456 3025 456 3363 
Q 456 3938 825 4275 
Q 1194 4613 1797 4613 
Q 2397 4613 2767 4275 
Q 3138 3938 3138 3363 
z
M 2666 1241 
Q 2666 1622 2423 1862 
Q 2181 2103 1790 2103 
Q 1400 2103 1164 1865 
Q 928 1628 928 1240 
Q 928 853 1158 631 
Q 1388 409 1797 409 
Q 2203 409 2434 632 
Q 2666 856 2666 1241 
z
M 1797 4138 
Q 1456 4138 1245 3927 
Q 1034 3716 1034 3353 
Q 1034 3006 1242 2792 
Q 1450 2578 1797 2578 
Q 2144 2578 2351 2792 
Q 2559 3006 2559 3353 
Q 2559 3700 2343 3919 
Q 2128 4138 1797 4138 
z
" id="Roboto-Regular-38" transform="scale(0.015625)"/>
       </defs>
       <use xlink:href="#Roboto-Regular-32"/>
       <use x="56.152344" xlink:href="#Roboto-Regular-30"/>
       <use x="112.304688" xlink:href="#Roboto-Regular-31"/>
       <use x="168.457031" xlink:href="#Roboto-Regular-38"/>
      </g>
     </g>
    </g>
    <g id="xtick_6">
     <g id="line2d_6">
      <g>
       <use style="fill:#ffffff;stroke:#ffffff;stroke-width:0.8;" x="219.118383" xlink:href="#mdef099cf71" y="187.13702"/>
      </g>
     </g>
     <g id="text_6">
      <!-- 2019 -->
      <g style="fill:#ffffff;" transform="translate(207.887133 201.63702)scale(0.1 -0.1)">
       <defs>
        <path d="M 2594 2000 
Q 2413 1784 2161 1653 
Q 1909 1522 1609 1522 
Q 1216 1522 923 1715 
Q 631 1909 472 2261 
Q 313 2613 313 3038 
Q 313 3494 486 3859 
Q 659 4225 978 4419 
Q 1297 4613 1722 4613 
Q 2397 4613 2786 4108 
Q 3175 3603 3175 2731 
L 3175 2563 
Q 3175 1234 2650 623 
Q 2125 13 1066 -3 
L 953 -3 
L 953 484 
L 1075 484 
Q 1791 497 2175 858 
Q 2559 1219 2594 2000 
z
M 1703 2000 
Q 1994 2000 2239 2178 
Q 2484 2356 2597 2619 
L 2597 2850 
Q 2597 3419 2350 3775 
Q 2103 4131 1725 4131 
Q 1344 4131 1112 3839 
Q 881 3547 881 3069 
Q 881 2603 1104 2301 
Q 1328 2000 1703 2000 
z
" id="Roboto-Regular-39" transform="scale(0.015625)"/>
       </defs>
       <use xlink:href="#Roboto-Regular-32"/>
       <use x="56.152344" xlink:href="#Roboto-Regular-30"/>
       <use x="112.304688" xlink:href="#Roboto-Regular-31"/>
       <use x="168.457031" xlink:href="#Roboto-Regular-39"/>
      </g>
     </g>
    </g>
    <g id="xtick_7">
     <g id="line2d_7">
      <g>
       <use style="fill:#ffffff;stroke:#ffffff;stroke-width:0.8;" x="252.864194" xlink:href="#mdef099cf71" y="187.13702"/>
      </g>
     </g>
     <g id="text_7">
      <!-- 2020 -->
      <g style="fill:#ffffff;" transform="translate(241.632944 201.63702)scale(0.1 -0.1)">
       <use xlink:href="#Roboto-Regular-32"/>
       <use x="56.152344" xlink:href="#Roboto-Regular-30"/>
       <use x="112.304688" xlink:href="#Roboto-Regular-32"/>
       <use x="168.457031" xlink:href="#Roboto-Regular-30"/>
      </g>
     </g>
    </g>
    <g id="xtick_8">
     <g id="line2d_8">
      <g>
       <use style="fill:#ffffff;stroke:#ffffff;stroke-width:0.8;" x="286.702459" xlink:href="#mdef099cf71" y="187.13702"/>
      </g>
     </g>
     <g id="text_8">
      <!-- 2021 -->
      <g style="fill:#ffffff;" transform="translate(275.471209 201.63702)scale(0.1 -0.1)">
       <use xlink:href="#Roboto-Regular-32"/>
       <use x="56.152344" xlink:href="#Roboto-Regular-30"/>
       <use x="112.304688" xlink:href="#Roboto-Regular-32"/>
       <use x="168.457031" xlink:href="#Roboto-Regular-31"/>
      </g>
     </g>
    </g>
    <g id="xtick_9">
     <g id="line2d_9">
      <g>
       <use style="fill:#ffffff;stroke:#ffffff;stroke-width:0.8;" x="320.44827" xlink:href="#mdef099cf71" y="187.13702"/>
      </g>
     </g>
     <g id="text_9">
      <!-- 2022 -->
      <g style="fill:#ffffff;" transform="translate(309.21702 201.63702)scale(0.1 -0.1)">
       <use xlink:href="#Roboto-Regular-32"/>
       <use x="56.152344" xlink:href="#Roboto-Regular-30"/>
       <use x="112.304688" xlink:href="#Roboto-Regular-32"/>
       <use x="168.457031" xlink:href="#Roboto-Regular-32"/>
      </g>
     </g>
    </g>
    <g id="xtick_10">
     <g id="line2d_10">
      <defs>
       <path d="M 0 0 
L 0 2 
" id="m06d0f1fc9d" style="stroke:#ffffff;stroke-width:0.6;"/>
      </defs>
      <g>
       <use style="fill:#ffffff;stroke:#ffffff;stroke-width:0.6;" x="58.61776" xlink:href="#m06d0f1fc9d" y="187.13702"/>
      </g>
     </g>
    </g>
    <g id="xtick_11">
     <g id="line2d_11">
      <g>
       <use style="fill:#ffffff;stroke:#ffffff;stroke-width:0.6;" x="67.031099" xlink:href="#m06d0f1fc9d" y="187.13702"/>
      </g>
     </g>
    </g>
    <g id="xtick_12">
     <g id="line2d_12">
      <g>
       <use style="fill:#ffffff;stroke:#ffffff;stroke-width:0.6;" x="75.536892" xlink:href="#m06d0f1fc9d" y="187.13702"/>
      </g>
     </g>
    </g>
    <g id="xtick_13">
     <g id="line2d_13">
      <g>
       <use style="fill:#ffffff;stroke:#ffffff;stroke-width:0.6;" x="92.363571" xlink:href="#m06d0f1fc9d" y="187.13702"/>
      </g>
     </g>
    </g>
    <g id="xtick_14">
     <g id="line2d_14">
      <g>
       <use style="fill:#ffffff;stroke:#ffffff;stroke-width:0.6;" x="100.77691" xlink:href="#m06d0f1fc9d" y="187.13702"/>
      </g>
     </g>
    </g>
    <g id="xtick_15">
     <g id="line2d_15">
      <g>
       <use style="fill:#ffffff;stroke:#ffffff;stroke-width:0.6;" x="109.282703" xlink:href="#m06d0f1fc9d" y="187.13702"/>
      </g>
     </g>
    </g>
    <g id="xtick_16">
     <g id="line2d_16">
      <g>
       <use style="fill:#ffffff;stroke:#ffffff;stroke-width:0.6;" x="126.201836" xlink:href="#m06d0f1fc9d" y="187.13702"/>
      </g>
     </g>
    </g>
    <g id="xtick_17">
     <g id="line2d_17">
      <g>
       <use style="fill:#ffffff;stroke:#ffffff;stroke-width:0.6;" x="134.615175" xlink:href="#m06d0f1fc9d" y="187.13702"/>
      </g>
     </g>
    </g>
    <g id="xtick_18">
     <g id="line2d_18">
      <g>
       <use style="fill:#ffffff;stroke:#ffffff;stroke-width:0.6;" x="143.120968" xlink:href="#m06d0f1fc9d" y="187.13702"/>
      </g>
     </g>
    </g>
    <g id="xtick_19">
     <g id="line2d_19">
      <g>
       <use style="fill:#ffffff;stroke:#ffffff;stroke-width:0.6;" x="159.947647" xlink:href="#m06d0f1fc9d" y="187.13702"/>
      </g>
     </g>
    </g>
    <g id="xtick_20">
     <g id="line2d_20">
      <g>
       <use style="fill:#ffffff;stroke:#ffffff;stroke-width:0.6;" x="168.360986" xlink:href="#m06d0f1fc9d" y="187.13702"/>
      </g>
     </g>
    </g>
    <g id="xtick_21">
     <g id="line2d_21">
      <g>
       <use style="fill:#ffffff;stroke:#ffffff;stroke-width:0.6;" x="176.866779" xlink:href="#m06d0f1fc9d" y="187.13702"/>
      </g>
     </g>
    </g>
    <g id="xtick_22">
     <g id="line2d_22">
      <g>
       <use style="fill:#ffffff;stroke:#ffffff;stroke-width:0.6;" x="193.693457" xlink:href="#m06d0f1fc9d" y="187.13702"/>
      </g>
     </g>
    </g>
    <g id="xtick_23">
     <g id="line2d_23">
      <g>
       <use style="fill:#ffffff;stroke:#ffffff;stroke-width:0.6;" x="202.106796" xlink:href="#m06d0f1fc9d" y="187.13702"/>
      </g>
     </g>
    </g>
    <g id="xtick_24">
     <g id="line2d_24">
      <g>
       <use style="fill:#ffffff;stroke:#ffffff;stroke-width:0.6;" x="210.61259" xlink:href="#m06d0f1fc9d" y="187.13702"/>
      </g>
     </g>
    </g>
    <g id="xtick_25">
     <g id="line2d_25">
      <g>
       <use style="fill:#ffffff;stroke:#ffffff;stroke-width:0.6;" x="227.439268" xlink:href="#m06d0f1fc9d" y="187.13702"/>
      </g>
     </g>
    </g>
    <g id="xtick_26">
     <g id="line2d_26">
      <g>
       <use style="fill:#ffffff;stroke:#ffffff;stroke-width:0.6;" x="235.852607" xlink:href="#m06d0f1fc9d" y="187.13702"/>
      </g>
     </g>
    </g>
    <g id="xtick_27">
     <g id="line2d_27">
      <g>
       <use style="fill:#ffffff;stroke:#ffffff;stroke-width:0.6;" x="244.358401" xlink:href="#m06d0f1fc9d" y="187.13702"/>
      </g>
     </g>
    </g>
    <g id="xtick_28">
     <g id="line2d_28">
      <g>
       <use style="fill:#ffffff;stroke:#ffffff;stroke-width:0.6;" x="261.277533" xlink:href="#m06d0f1fc9d" y="187.13702"/>
      </g>
     </g>
    </g>
    <g id="xtick_29">
     <g id="line2d_29">
      <g>
       <use style="fill:#ffffff;stroke:#ffffff;stroke-width:0.6;" x="269.690872" xlink:href="#m06d0f1fc9d" y="187.13702"/>
      </g>
     </g>
    </g>
    <g id="xtick_30">
     <g id="line2d_30">
      <g>
       <use style="fill:#ffffff;stroke:#ffffff;stroke-width:0.6;" x="278.196666" xlink:href="#m06d0f1fc9d" y="187.13702"/>
      </g>
     </g>
    </g>
    <g id="xtick_31">
     <g id="line2d_31">
      <g>
       <use style="fill:#ffffff;stroke:#ffffff;stroke-width:0.6;" x="295.023344" xlink:href="#m06d0f1fc9d" y="187.13702"/>
      </g>
     </g>
    </g>
    <g id="xtick_32">
     <g id="line2d_32">
      <g>
       <use style="fill:#ffffff;stroke:#ffffff;stroke-width:0.6;" x="303.436683" xlink:href="#m06d0f1fc9d" y="187.13702"/>
      </g>
     </g>
    </g>
    <g id="xtick_33">
     <g id="line2d_33">
      <g>
       <use style="fill:#ffffff;stroke:#ffffff;stroke-width:0.6;" x="311.942477" xlink:href="#m06d0f1fc9d" y="187.13702"/>
      </g>
     </g>
    </g>
    <g id="text_10">
     <!-- Year -->
     <g style="fill:#ffffff;" transform="translate(175.30851 215.16827)scale(0.1 -0.1)">
      <defs>
       <path d="M 1916 2266 
L 3103 4550 
L 3784 4550 
L 2216 1697 
L 2216 0 
L 1616 0 
L 1616 1697 
L 47 4550 
L 734 4550 
L 1916 2266 
z
" id="Roboto-Regular-59" transform="scale(0.015625)"/>
       <path d="M 1841 -63 
Q 1153 -63 722 389 
Q 291 841 291 1597 
L 291 1703 
Q 291 2206 483 2601 
Q 675 2997 1020 3220 
Q 1366 3444 1769 3444 
Q 2428 3444 2793 3009 
Q 3159 2575 3159 1766 
L 3159 1525 
L 869 1525 
Q 881 1025 1161 717 
Q 1441 409 1872 409 
Q 2178 409 2390 534 
Q 2603 659 2763 866 
L 3116 591 
Q 2691 -63 1841 -63 
z
M 1769 2969 
Q 1419 2969 1181 2714 
Q 944 2459 888 2000 
L 2581 2000 
L 2581 2044 
Q 2556 2484 2343 2726 
Q 2131 2969 1769 2969 
z
" id="Roboto-Regular-65" transform="scale(0.015625)"/>
       <path d="M 2525 0 
Q 2475 100 2444 356 
Q 2041 -63 1481 -63 
Q 981 -63 661 220 
Q 341 503 341 938 
Q 341 1466 742 1758 
Q 1144 2050 1872 2050 
L 2434 2050 
L 2434 2316 
Q 2434 2619 2253 2798 
Q 2072 2978 1719 2978 
Q 1409 2978 1200 2822 
Q 991 2666 991 2444 
L 409 2444 
Q 409 2697 589 2933 
Q 769 3169 1076 3306 
Q 1384 3444 1753 3444 
Q 2338 3444 2669 3151 
Q 3000 2859 3013 2347 
L 3013 791 
Q 3013 325 3131 50 
L 3131 0 
L 2525 0 
z
M 1566 441 
Q 1838 441 2081 581 
Q 2325 722 2434 947 
L 2434 1641 
L 1981 1641 
Q 919 1641 919 1019 
Q 919 747 1100 594 
Q 1281 441 1566 441 
z
" id="Roboto-Regular-61" transform="scale(0.015625)"/>
       <path d="M 2072 2863 
Q 1941 2884 1788 2884 
Q 1219 2884 1016 2400 
L 1016 0 
L 438 0 
L 438 3381 
L 1000 3381 
L 1009 2991 
Q 1294 3444 1816 3444 
Q 1984 3444 2072 3400 
L 2072 2863 
z
" id="Roboto-Regular-72" transform="scale(0.015625)"/>
      </defs>
      <use xlink:href="#Roboto-Regular-59"/>
      <use x="60.058594" xlink:href="#Roboto-Regular-65"/>
      <use x="113.037109" xlink:href="#Roboto-Regular-61"/>
      <use x="167.431641" xlink:href="#Roboto-Regular-72"/>
     </g>
    </g>
   </g>
   <g id="matplotlib.axis_2">
    <g id="ytick_1">
     <g id="line2d_34">
      <defs>
       <path d="M 0 0 
L -3.5 0 
" id="m21e7807799" style="stroke:#ffffff;stroke-width:0.8;"/>
      </defs>
      <g>
       <use style="fill:#ffffff;stroke:#ffffff;stroke-width:0.8;" x="50.296875" xlink:href="#m21e7807799" y="187.13702"/>
      </g>
     </g>
     <g id="text_11">
      <!-- 0 -->
      <g style="fill:#ffffff;" transform="translate(37.68125 190.88702)scale(0.1 -0.1)">
       <use xlink:href="#Roboto-Regular-30"/>
      </g>
     </g>
    </g>
    <g id="ytick_2">
     <g id="line2d_35">
      <g>
       <use style="fill:#ffffff;stroke:#ffffff;stroke-width:0.8;" x="50.296875" xlink:href="#m21e7807799" y="155.005409"/>
      </g>
     </g>
     <g id="text_12">
      <!-- 500 -->
      <g style="fill:#ffffff;" transform="translate(26.45 158.755409)scale(0.1 -0.1)">
       <use xlink:href="#Roboto-Regular-35"/>
       <use x="56.152344" xlink:href="#Roboto-Regular-30"/>
       <use x="112.304688" xlink:href="#Roboto-Regular-30"/>
      </g>
     </g>
    </g>
    <g id="ytick_3">
     <g id="line2d_36">
      <g>
       <use style="fill:#ffffff;stroke:#ffffff;stroke-width:0.8;" x="50.296875" xlink:href="#m21e7807799" y="122.873799"/>
      </g>
     </g>
     <g id="text_13">
      <!-- 1000 -->
      <g style="fill:#ffffff;" transform="translate(20.834375 126.623799)scale(0.1 -0.1)">
       <use xlink:href="#Roboto-Regular-31"/>
       <use x="56.152344" xlink:href="#Roboto-Regular-30"/>
       <use x="112.304688" xlink:href="#Roboto-Regular-30"/>
       <use x="168.457031" xlink:href="#Roboto-Regular-30"/>
      </g>
     </g>
    </g>
    <g id="ytick_4">
     <g id="line2d_37">
      <g>
       <use style="fill:#ffffff;stroke:#ffffff;stroke-width:0.8;" x="50.296875" xlink:href="#m21e7807799" y="90.742188"/>
      </g>
     </g>
     <g id="text_14">
      <!-- 1500 -->
      <g style="fill:#ffffff;" transform="translate(20.834375 94.492188)scale(0.1 -0.1)">
       <use xlink:href="#Roboto-Regular-31"/>
       <use x="56.152344" xlink:href="#Roboto-Regular-35"/>
       <use x="112.304688" xlink:href="#Roboto-Regular-30"/>
       <use x="168.457031" xlink:href="#Roboto-Regular-30"/>
      </g>
     </g>
    </g>
    <g id="ytick_5">
     <g id="line2d_38">
      <g>
       <use style="fill:#ffffff;stroke:#ffffff;stroke-width:0.8;" x="50.296875" xlink:href="#m21e7807799" y="58.610577"/>
      </g>
     </g>
     <g id="text_15">
      <!-- 2000 -->
      <g style="fill:#ffffff;" transform="translate(20.834375 62.360577)scale(0.1 -0.1)">
       <use xlink:href="#Roboto-Regular-32"/>
       <use x="56.152344" xlink:href="#Roboto-Regular-30"/>
       <use x="112.304688" xlink:href="#Roboto-Regular-30"/>
       <use x="168.457031" xlink:href="#Roboto-Regular-30"/>
      </g>
     </g>
    </g>
    <g id="ytick_6">
     <g id="line2d_39">
      <g>
       <use style="fill:#ffffff;stroke:#ffffff;stroke-width:0.8;" x="50.296875" xlink:href="#m21e7807799" y="26.478966"/>
      </g>
     </g>
     <g id="text_16">
      <!-- 2500 -->
      <g style="fill:#ffffff;" transform="translate(20.834375 30.228966)scale(0.1 -0.1)">
       <use xlink:href="#Roboto-Regular-32"/>
       <use x="56.152344" xlink:href="#Roboto-Regular-35"/>
       <use x="112.304688" xlink:href="#Roboto-Regular-30"/>
       <use x="168.457031" xlink:href="#Roboto-Regular-30"/>
      </g>
     </g>
    </g>
    <g id="text_17">
     <!-- Hours on sky -->
     <g style="fill:#ffffff;" transform="translate(14.7 126.17476)rotate(-90)scale(0.1 -0.1)">
      <defs>
       <path d="M 4025 0 
L 3422 0 
L 3422 2103 
L 1128 2103 
L 1128 0 
L 528 0 
L 528 4550 
L 1128 4550 
L 1128 2594 
L 3422 2594 
L 3422 4550 
L 4025 4550 
L 4025 0 
z
" id="Roboto-Regular-48" transform="scale(0.015625)"/>
       <path d="M 284 1722 
Q 284 2219 479 2616 
Q 675 3013 1023 3228 
Q 1372 3444 1819 3444 
Q 2509 3444 2936 2966 
Q 3363 2488 3363 1694 
L 3363 1653 
Q 3363 1159 3173 767 
Q 2984 375 2632 156 
Q 2281 -63 1825 -63 
Q 1138 -63 711 415 
Q 284 894 284 1681 
L 284 1722 
z
M 866 1653 
Q 866 1091 1127 750 
Q 1388 409 1825 409 
Q 2266 409 2525 754 
Q 2784 1100 2784 1722 
Q 2784 2278 2520 2623 
Q 2256 2969 1819 2969 
Q 1391 2969 1128 2628 
Q 866 2288 866 1653 
z
" id="Roboto-Regular-6f" transform="scale(0.015625)"/>
       <path d="M 2525 334 
Q 2188 -63 1534 -63 
Q 994 -63 711 251 
Q 428 566 425 1181 
L 425 3381 
L 1003 3381 
L 1003 1197 
Q 1003 428 1628 428 
Q 2291 428 2509 922 
L 2509 3381 
L 3088 3381 
L 3088 0 
L 2538 0 
L 2525 334 
z
" id="Roboto-Regular-75" transform="scale(0.015625)"/>
       <path d="M 2406 897 
Q 2406 1131 2229 1261 
Q 2053 1391 1614 1484 
Q 1175 1578 917 1709 
Q 659 1841 536 2022 
Q 413 2203 413 2453 
Q 413 2869 764 3156 
Q 1116 3444 1663 3444 
Q 2238 3444 2595 3147 
Q 2953 2850 2953 2388 
L 2372 2388 
Q 2372 2625 2170 2797 
Q 1969 2969 1663 2969 
Q 1347 2969 1169 2831 
Q 991 2694 991 2472 
Q 991 2263 1156 2156 
Q 1322 2050 1755 1953 
Q 2188 1856 2456 1722 
Q 2725 1588 2854 1398 
Q 2984 1209 2984 938 
Q 2984 484 2621 210 
Q 2259 -63 1681 -63 
Q 1275 -63 962 81 
Q 650 225 473 483 
Q 297 741 297 1041 
L 875 1041 
Q 891 750 1108 579 
Q 1325 409 1681 409 
Q 2009 409 2207 542 
Q 2406 675 2406 897 
z
" id="Roboto-Regular-73" transform="scale(0.015625)"/>
       <path id="Roboto-Regular-20" transform="scale(0.015625)"/>
       <path d="M 984 3381 
L 1003 2956 
Q 1391 3444 2016 3444 
Q 3088 3444 3097 2234 
L 3097 0 
L 2519 0 
L 2519 2238 
Q 2516 2603 2352 2778 
Q 2188 2953 1841 2953 
Q 1559 2953 1346 2803 
Q 1134 2653 1016 2409 
L 1016 0 
L 438 0 
L 438 3381 
L 984 3381 
z
" id="Roboto-Regular-6e" transform="scale(0.015625)"/>
       <path d="M 1381 1566 
L 1019 1188 
L 1019 0 
L 441 0 
L 441 4800 
L 1019 4800 
L 1019 1897 
L 1328 2269 
L 2381 3381 
L 3084 3381 
L 1769 1969 
L 3238 0 
L 2559 0 
L 1381 1566 
z
" id="Roboto-Regular-6b" transform="scale(0.015625)"/>
       <path d="M 1544 847 
L 2331 3381 
L 2950 3381 
L 1591 -522 
Q 1275 -1366 588 -1366 
L 478 -1356 
L 263 -1316 
L 263 -847 
L 419 -859 
Q 713 -859 877 -740 
Q 1041 -622 1147 -306 
L 1275 38 
L 69 3381 
L 700 3381 
L 1544 847 
z
" id="Roboto-Regular-79" transform="scale(0.015625)"/>
      </defs>
      <use xlink:href="#Roboto-Regular-48"/>
      <use x="71.289062" xlink:href="#Roboto-Regular-6f"/>
      <use x="128.320312" xlink:href="#Roboto-Regular-75"/>
      <use x="183.447266" xlink:href="#Roboto-Regular-72"/>
      <use x="217.285156" xlink:href="#Roboto-Regular-73"/>
      <use x="268.847656" xlink:href="#Roboto-Regular-20"/>
      <use x="293.603516" xlink:href="#Roboto-Regular-6f"/>
      <use x="350.634766" xlink:href="#Roboto-Regular-6e"/>
      <use x="405.810547" xlink:href="#Roboto-Regular-20"/>
      <use x="430.566406" xlink:href="#Roboto-Regular-73"/>
      <use x="482.128906" xlink:href="#Roboto-Regular-6b"/>
      <use x="532.8125" xlink:href="#Roboto-Regular-79"/>
     </g>
    </g>
   </g>
   <g id="line2d_40">
    <path clip-path="url(#p40268cdf40)" d="M 53.717683 186.815704 
L 54.272409 185.13415 
L 55.844132 185.13415 
L 56.583766 183.477587 
L 56.67622 183.477587 
L 56.953583 182.828617 
L 57.046037 182.763104 
L 57.230946 182.291841 
L 59.26494 182.291841 
L 59.449848 181.88484 
L 59.542303 181.88484 
L 60.004574 180.504163 
L 64.719742 180.504163 
L 64.904651 179.599837 
L 65.182013 178.32248 
L 67.49337 178.32248 
L 67.863187 176.88941 
L 68.14055 175.871909 
L 70.174544 175.871909 
L 71.006633 170.99326 
L 71.191541 170.516016 
L 78.218066 170.430332 
L 78.495429 170.073314 
L 78.772792 169.282519 
L 83.857777 169.218256 
L 84.227594 167.911571 
L 84.320049 167.911571 
L 84.504957 167.470671 
L 84.78232 166.699513 
L 84.967229 166.699513 
L 85.152137 166.570986 
L 87.093677 166.570986 
L 87.555948 164.839449 
L 87.925765 163.599705 
L 92.086208 163.599705 
L 92.363571 163.342652 
L 92.640933 163.342652 
L 93.010751 162.307586 
L 93.565476 159.993342 
L 94.674928 159.896947 
L 95.044745 158.142204 
L 95.322108 158.142204 
L 95.507016 157.949415 
L 97.818373 157.949415 
L 97.910827 157.756625 
L 98.280644 155.787314 
L 98.373099 155.658788 
L 98.650461 154.459208 
L 100.869364 154.459208 
L 101.239181 152.730527 
L 102.348632 152.666264 
L 102.625995 152.606463 
L 105.676986 152.606463 
L 105.861895 152.426526 
L 105.954349 152.340842 
L 106.693983 149.272809 
L 109.837429 149.272809 
L 110.207246 148.499865 
L 112.795966 148.499865 
L 113.073329 147.735133 
L 116.494137 147.735133 
L 116.7715 147.035734 
L 117.048862 146.95005 
L 117.326225 146.1863 
L 117.511134 145.588652 
L 117.696042 145.085256 
L 118.158314 145.085256 
L 118.713039 143.182422 
L 118.897948 142.807518 
L 119.730036 142.807518 
L 120.192308 141.960315 
L 120.284762 141.960315 
L 120.562125 141.196296 
L 125.462202 141.196296 
L 125.924473 139.638984 
L 126.016927 139.638984 
L 126.386744 137.916194 
L 127.403741 137.916194 
L 127.58865 137.38281 
L 127.681104 137.318546 
L 128.328284 134.549337 
L 128.698101 133.716057 
L 129.992461 133.651794 
L 130.362278 132.84422 
L 130.454732 132.822798 
L 131.009458 130.201395 
L 131.286821 130.201395 
L 131.564184 129.458619 
L 131.841547 128.327586 
L 132.118909 128.268321 
L 132.766089 128.23619 
L 132.950998 128.05054 
L 136.556715 128.05054 
L 136.834078 127.757678 
L 138.313346 127.757678 
L 139.05298 125.552379 
L 141.6417 125.552379 
L 141.826608 125.134668 
L 141.919063 125.134668 
L 142.103971 124.731952 
L 142.28888 124.710531 
L 142.473788 124.291749 
L 143.490785 124.291749 
L 143.860602 122.929368 
L 143.953057 122.929368 
L 144.322874 121.892588 
L 146.171959 121.892588 
L 146.634231 120.156053 
L 147.188956 120.156053 
L 147.836136 118.171926 
L 149.407859 118.171926 
L 150.055039 116.449672 
L 150.147493 116.438962 
L 150.424856 115.687439 
L 151.16449 115.687439 
L 151.441853 115.076938 
L 151.719216 114.891289 
L 151.996579 113.980893 
L 152.089033 113.980893 
L 152.45885 113.177603 
L 152.551304 113.159217 
L 152.828667 112.538006 
L 153.013576 112.209906 
L 153.198484 112.059959 
L 153.383393 111.974274 
L 153.568301 111.29951 
L 153.938119 111.29951 
L 154.585299 109.50014 
L 154.770207 109.433467 
L 155.04757 108.480229 
L 155.69475 108.480229 
L 155.879658 107.970051 
L 156.34193 106.209238 
L 158.098561 106.123554 
L 158.375924 105.932907 
L 160.040101 105.932907 
L 160.594826 104.339536 
L 160.779735 103.589798 
L 161.519369 99.914317 
L 163.091092 99.914317 
L 164.292998 94.640091 
L 165.309995 94.640091 
L 165.587357 93.048149 
L 165.957175 91.343031 
L 166.696809 91.343031 
L 166.881717 90.756094 
L 169.10062 90.756094 
L 169.377983 89.19664 
L 169.562891 88.617021 
L 170.302525 88.617021 
L 170.672343 86.791945 
L 171.134614 86.791945 
L 171.411977 85.834423 
L 171.504431 85.834423 
L 171.781794 84.836201 
L 173.630879 84.836201 
L 173.908242 83.449187 
L 174.278059 83.449187 
L 174.555422 82.342556 
L 175.110148 79.818261 
L 176.774325 79.818261 
L 177.144142 79.134929 
L 179.178136 79.134929 
L 179.455499 78.187047 
L 179.547953 78.187047 
L 180.010224 76.731485 
L 180.102679 76.731485 
L 180.287587 76.294495 
L 182.876307 76.294495 
L 183.061216 75.985674 
L 184.817847 75.985674 
L 185.002755 75.448362 
L 185.09521 75.448362 
L 185.280118 75.107767 
L 185.465027 74.516546 
L 185.649935 74.143819 
L 187.499021 74.143819 
L 188.146201 72.961197 
L 199.333168 72.961197 
L 199.518077 72.357123 
L 199.702985 71.945838 
L 200.997345 71.945838 
L 201.182254 71.078285 
L 201.552071 69.227504 
L 201.736979 69.227504 
L 201.921888 68.74553 
L 217.916478 68.74553 
L 218.008932 68.617003 
L 218.656112 66.592712 
L 222.169374 66.592712 
L 222.354283 66.15358 
L 222.539192 65.592973 
L 222.631646 65.592973 
L 223.001463 63.958009 
L 223.926006 63.958009 
L 224.388277 62.721835 
L 234.18843 62.721835 
L 234.373339 62.019223 
L 247.5943 62.019223 
L 247.964117 60.888191 
L 248.333935 60.888191 
L 248.611297 60.03706 
L 256.839728 59.953518 
L 257.117091 59.227343 
L 264.88325 59.227343 
L 265.437976 56.688946 
L 265.622884 56.260525 
L 265.807793 56.01686 
L 266.270064 55.990084 
L 266.454973 55.990084 
L 266.82479 54.232663 
L 270.245598 54.232663 
L 270.430507 53.825663 
L 270.615415 53.825663 
L 270.985232 53.097346 
L 271.724866 53.097346 
L 271.909775 52.785669 
L 272.094684 52.785669 
L 272.279592 52.571459 
L 272.464501 52.571459 
L 272.834318 50.715233 
L 274.590949 50.715233 
L 274.683403 50.522444 
L 274.960766 49.393553 
L 275.238129 49.393553 
L 275.885309 46.123769 
L 276.070217 45.625729 
L 277.64194 45.625729 
L 277.919303 44.597518 
L 278.104212 44.597518 
L 278.751391 42.219778 
L 283.651468 42.219778 
L 283.928831 41.625344 
L 284.021285 41.625344 
L 284.206194 41.287962 
L 284.298648 41.287962 
L 284.483557 40.891672 
L 287.719456 40.891672 
L 288.089273 39.820136 
L 288.45909 39.788005 
L 288.551545 39.788005 
L 289.013816 38.093598 
L 289.568542 38.093598 
L 289.845905 37.450965 
L 294.191256 37.450965 
L 294.745981 35.077243 
L 295.485615 31.364935 
L 296.87243 31.364935 
L 297.057338 30.995421 
L 298.813969 30.995421 
L 299.183786 29.495946 
L 299.276241 29.36742 
L 299.553604 27.921497 
L 299.646058 27.696576 
L 300.015875 25.929337 
L 300.478146 25.929337 
L 300.663055 25.800811 
L 300.940418 25.768679 
L 301.402689 24.188875 
L 301.772506 24.13318 
L 301.957415 23.820433 
L 303.8065 23.820433 
L 303.991409 23.059985 
L 304.176317 23.059985 
L 304.45368 22.074437 
L 304.731043 21.969116 
L 305.193314 21.866474 
L 305.378223 21.400565 
L 305.563132 21.400565 
L 306.025403 19.279879 
L 306.302766 18.337352 
L 306.949946 18.282014 
L 310.2783 18.282014 
L 310.463208 17.542987 
L 310.648117 17.004604 
L 311.480205 14.216651 
L 311.572659 14.055993 
L 311.572659 14.055993 
" style="fill:none;stroke:#8dd3c7;stroke-linecap:square;stroke-width:2;"/>
   </g>
   <g id="patch_87">
    <path d="M 50.296875 187.13702 
L 50.296875 7.2 
" style="fill:none;stroke:#ffffff;stroke-linecap:square;stroke-linejoin:miter;stroke-width:0.8;"/>
   </g>
   <g id="patch_88">
    <path d="M 320.44827 187.13702 
L 320.44827 7.2 
" style="fill:none;stroke:#ffffff;stroke-linecap:square;stroke-linejoin:miter;stroke-width:0.8;"/>
   </g>
   <g id="patch_89">
    <path d="M 50.296875 187.13702 
L 320.44827 187.13702 
" style="fill:none;stroke:#ffffff;stroke-linecap:square;stroke-linejoin:miter;stroke-width:0.8;"/>
   </g>
   <g id="patch_90">
    <path d="M 50.296875 7.2 
L 320.44827 7.2 
" style="fill:none;stroke:#ffffff;stroke-linecap:square;stroke-linejoin:miter;stroke-width:0.8;"/>
   </g>
  </g>
 </g>
 <defs>
  <clipPath id="p40268cdf40">
   <rect height="179.93702" width="270.151395" x="50.296875" y="7.2"/>
  </clipPath>
 </defs>
</svg>
