<?xml version="1.0" encoding="utf-8" standalone="no"?>
<!DOCTYPE svg PUBLIC "-//W3C//DTD SVG 1.1//EN"
  "http://www.w3.org/Graphics/SVG/1.1/DTD/svg11.dtd">
<!-- Created with matplotlib (https://matplotlib.org/) -->
<svg height="224.39952pt" version="1.1" viewBox="0 0 339.59952 224.39952" width="339.59952pt" xmlns="http://www.w3.org/2000/svg" xmlns:xlink="http://www.w3.org/1999/xlink">
 <metadata>
  <rdf:RDF xmlns:cc="http://creativecommons.org/ns#" xmlns:dc="http://purl.org/dc/elements/1.1/" xmlns:rdf="http://www.w3.org/1999/02/22-rdf-syntax-ns#">
   <cc:Work>
    <dc:type rdf:resource="http://purl.org/dc/dcmitype/StillImage"/>
    <dc:date>2021-06-19T14:37:58.824486</dc:date>
    <dc:format>image/svg+xml</dc:format>
    <dc:creator>
     <cc:Agent>
      <dc:title>Matplotlib v3.3.4, https://matplotlib.org/</dc:title>
     </cc:Agent>
    </dc:creator>
   </cc:Work>
  </rdf:RDF>
 </metadata>
 <defs>
  <style type="text/css">*{stroke-linecap:butt;stroke-linejoin:round;}</style>
 </defs>
 <g id="figure_1">
  <g id="patch_1">
   <path d="M 0 224.39952 
L 339.59952 224.39952 
L 339.59952 0 
L 0 0 
z
"/>
  </g>
  <g id="axes_1">
   <g id="patch_2">
    <path d="M 39.748438 187.13702 
L 321.16827 187.13702 
L 321.16827 7.2 
L 39.748438 7.2 
z
"/>
   </g>
   <g id="patch_3">
    <path clip-path="url(#pfaa9deede3)" d="M 43.311933 187.13702 
L 43.311933 7.2 
L 44.27504 7.2 
L 44.27504 187.13702 
z
" style="fill:#bfbbd9;opacity:0.5;"/>
   </g>
   <g id="patch_4">
    <path clip-path="url(#pfaa9deede3)" d="M 45.62339 187.13702 
L 45.62339 7.2 
L 46.971739 7.2 
L 46.971739 187.13702 
z
" style="fill:#bfbbd9;opacity:0.5;"/>
   </g>
   <g id="patch_5">
    <path clip-path="url(#pfaa9deede3)" d="M 49.186885 187.13702 
L 49.186885 7.2 
L 49.86106 7.2 
L 49.86106 187.13702 
z
" style="fill:#bfbbd9;opacity:0.5;"/>
   </g>
   <g id="patch_6">
    <path clip-path="url(#pfaa9deede3)" d="M 54.772905 187.13702 
L 54.772905 7.2 
L 55.350769 7.2 
L 55.350769 187.13702 
z
" style="fill:#bfbbd9;opacity:0.5;"/>
   </g>
   <g id="patch_7">
    <path clip-path="url(#pfaa9deede3)" d="M 57.758536 187.13702 
L 57.758536 7.2 
L 58.625332 7.2 
L 58.625332 187.13702 
z
" style="fill:#bfbbd9;opacity:0.5;"/>
   </g>
   <g id="patch_8">
    <path clip-path="url(#pfaa9deede3)" d="M 60.551546 187.13702 
L 60.551546 7.2 
L 61.707275 7.2 
L 61.707275 187.13702 
z
" style="fill:#bfbbd9;opacity:0.5;"/>
   </g>
   <g id="patch_9">
    <path clip-path="url(#pfaa9deede3)" d="M 62.285139 187.13702 
L 62.285139 7.2 
L 62.47776 7.2 
L 62.47776 187.13702 
z
" style="fill:#bfbbd9;opacity:0.5;"/>
   </g>
   <g id="patch_10">
    <path clip-path="url(#pfaa9deede3)" d="M 68.930576 187.13702 
L 68.930576 7.2 
L 69.41213 7.2 
L 69.41213 187.13702 
z
" style="fill:#bfbbd9;opacity:0.5;"/>
   </g>
   <g id="patch_11">
    <path clip-path="url(#pfaa9deede3)" d="M 71.819897 187.13702 
L 71.819897 7.2 
L 72.20514 7.2 
L 72.20514 187.13702 
z
" style="fill:#bfbbd9;opacity:0.5;"/>
   </g>
   <g id="patch_12">
    <path clip-path="url(#pfaa9deede3)" d="M 74.805528 187.13702 
L 74.805528 7.2 
L 76.057567 7.2 
L 76.057567 187.13702 
z
" style="fill:#bfbbd9;opacity:0.5;"/>
   </g>
   <g id="patch_13">
    <path clip-path="url(#pfaa9deede3)" d="M 78.176402 187.13702 
L 78.176402 7.2 
L 78.946888 7.2 
L 78.946888 187.13702 
z
" style="fill:#bfbbd9;opacity:0.5;"/>
   </g>
   <g id="patch_14">
    <path clip-path="url(#pfaa9deede3)" d="M 83.377179 187.13702 
L 83.377179 7.2 
L 84.82184 7.2 
L 84.82184 187.13702 
z
" style="fill:#bfbbd9;opacity:0.5;"/>
   </g>
   <g id="patch_15">
    <path clip-path="url(#pfaa9deede3)" d="M 85.977568 187.13702 
L 85.977568 7.2 
L 86.844364 7.2 
L 86.844364 187.13702 
z
" style="fill:#bfbbd9;opacity:0.5;"/>
   </g>
   <g id="patch_16">
    <path clip-path="url(#pfaa9deede3)" d="M 89.05951 187.13702 
L 89.05951 7.2 
L 90.118928 7.2 
L 90.118928 187.13702 
z
" style="fill:#bfbbd9;opacity:0.5;"/>
   </g>
   <g id="patch_17">
    <path clip-path="url(#pfaa9deede3)" d="M 92.526695 187.13702 
L 92.526695 7.2 
L 92.911938 7.2 
L 92.911938 187.13702 
z
" style="fill:#bfbbd9;opacity:0.5;"/>
   </g>
   <g id="patch_18">
    <path clip-path="url(#pfaa9deede3)" d="M 93.971355 187.13702 
L 93.971355 7.2 
L 94.163977 7.2 
L 94.163977 187.13702 
z
" style="fill:#bfbbd9;opacity:0.5;"/>
   </g>
   <g id="patch_19">
    <path clip-path="url(#pfaa9deede3)" d="M 97.43854 187.13702 
L 97.43854 7.2 
L 98.594268 7.2 
L 98.594268 187.13702 
z
" style="fill:#bfbbd9;opacity:0.5;"/>
   </g>
   <g id="patch_20">
    <path clip-path="url(#pfaa9deede3)" d="M 101.868832 187.13702 
L 101.868832 7.2 
L 102.061453 7.2 
L 102.061453 187.13702 
z
" style="fill:#bfbbd9;opacity:0.5;"/>
   </g>
   <g id="patch_21">
    <path clip-path="url(#pfaa9deede3)" d="M 104.950774 187.13702 
L 104.950774 7.2 
L 105.239706 7.2 
L 105.239706 187.13702 
z
" style="fill:#bfbbd9;opacity:0.5;"/>
   </g>
   <g id="patch_22">
    <path clip-path="url(#pfaa9deede3)" d="M 108.803201 187.13702 
L 108.803201 7.2 
L 110.151551 7.2 
L 110.151551 187.13702 
z
" style="fill:#bfbbd9;opacity:0.5;"/>
   </g>
   <g id="patch_23">
    <path clip-path="url(#pfaa9deede3)" d="M 110.440483 187.13702 
L 110.440483 7.2 
L 111.307279 7.2 
L 111.307279 187.13702 
z
" style="fill:#bfbbd9;opacity:0.5;"/>
   </g>
   <g id="patch_24">
    <path clip-path="url(#pfaa9deede3)" d="M 112.174075 187.13702 
L 112.174075 7.2 
L 112.944561 7.2 
L 112.944561 187.13702 
z
" style="fill:#bfbbd9;opacity:0.5;"/>
   </g>
   <g id="patch_25">
    <path clip-path="url(#pfaa9deede3)" d="M 118.145338 187.13702 
L 118.145338 7.2 
L 119.108445 7.2 
L 119.108445 187.13702 
z
" style="fill:#bfbbd9;opacity:0.5;"/>
   </g>
   <g id="patch_26">
    <path clip-path="url(#pfaa9deede3)" d="M 120.167863 187.13702 
L 120.167863 7.2 
L 121.323591 7.2 
L 121.323591 187.13702 
z
" style="fill:#bfbbd9;opacity:0.5;"/>
   </g>
   <g id="patch_27">
    <path clip-path="url(#pfaa9deede3)" d="M 122.479319 187.13702 
L 122.479319 7.2 
L 122.57563 7.2 
L 122.57563 187.13702 
z
" style="fill:#bfbbd9;opacity:0.5;"/>
   </g>
   <g id="patch_28">
    <path clip-path="url(#pfaa9deede3)" d="M 122.671941 187.13702 
L 122.671941 7.2 
L 125.946504 7.2 
L 125.946504 187.13702 
z
" style="fill:#bfbbd9;opacity:0.5;"/>
   </g>
   <g id="patch_29">
    <path clip-path="url(#pfaa9deede3)" d="M 129.60631 187.13702 
L 129.60631 7.2 
L 129.895242 7.2 
L 129.895242 187.13702 
z
" style="fill:#bfbbd9;opacity:0.5;"/>
   </g>
   <g id="patch_30">
    <path clip-path="url(#pfaa9deede3)" d="M 131.532524 187.13702 
L 131.532524 7.2 
L 132.206699 7.2 
L 132.206699 187.13702 
z
" style="fill:#bfbbd9;opacity:0.5;"/>
   </g>
   <g id="patch_31">
    <path clip-path="url(#pfaa9deede3)" d="M 134.903398 187.13702 
L 134.903398 7.2 
L 135.770194 7.2 
L 135.770194 187.13702 
z
" style="fill:#bfbbd9;opacity:0.5;"/>
   </g>
   <g id="patch_32">
    <path clip-path="url(#pfaa9deede3)" d="M 136.925922 187.13702 
L 136.925922 7.2 
L 137.696408 7.2 
L 137.696408 187.13702 
z
" style="fill:#bfbbd9;opacity:0.5;"/>
   </g>
   <g id="patch_33">
    <path clip-path="url(#pfaa9deede3)" d="M 139.718932 187.13702 
L 139.718932 7.2 
L 140.296797 7.2 
L 140.296797 187.13702 
z
" style="fill:#bfbbd9;opacity:0.5;"/>
   </g>
   <g id="patch_34">
    <path clip-path="url(#pfaa9deede3)" d="M 140.77835 187.13702 
L 140.77835 7.2 
L 141.259903 7.2 
L 141.259903 187.13702 
z
" style="fill:#bfbbd9;opacity:0.5;"/>
   </g>
   <g id="patch_35">
    <path clip-path="url(#pfaa9deede3)" d="M 142.993496 187.13702 
L 142.993496 7.2 
L 144.149224 7.2 
L 144.149224 187.13702 
z
" style="fill:#bfbbd9;opacity:0.5;"/>
   </g>
   <g id="patch_36">
    <path clip-path="url(#pfaa9deede3)" d="M 144.91971 187.13702 
L 144.91971 7.2 
L 147.423788 7.2 
L 147.423788 187.13702 
z
" style="fill:#bfbbd9;opacity:0.5;"/>
   </g>
   <g id="patch_37">
    <path clip-path="url(#pfaa9deede3)" d="M 147.80903 187.13702 
L 147.80903 7.2 
L 148.964759 7.2 
L 148.964759 187.13702 
z
" style="fill:#bfbbd9;opacity:0.5;"/>
   </g>
   <g id="patch_38">
    <path clip-path="url(#pfaa9deede3)" d="M 149.638933 187.13702 
L 149.638933 7.2 
L 150.216797 7.2 
L 150.216797 187.13702 
z
" style="fill:#bfbbd9;opacity:0.5;"/>
   </g>
   <g id="patch_39">
    <path clip-path="url(#pfaa9deede3)" d="M 152.046701 187.13702 
L 152.046701 7.2 
L 152.335633 7.2 
L 152.335633 187.13702 
z
" style="fill:#bfbbd9;opacity:0.5;"/>
   </g>
   <g id="patch_40">
    <path clip-path="url(#pfaa9deede3)" d="M 154.165536 187.13702 
L 154.165536 7.2 
L 155.706507 7.2 
L 155.706507 187.13702 
z
" style="fill:#bfbbd9;opacity:0.5;"/>
   </g>
   <g id="patch_41">
    <path clip-path="url(#pfaa9deede3)" d="M 157.343788 187.13702 
L 157.343788 7.2 
L 158.499517 7.2 
L 158.499517 187.13702 
z
" style="fill:#bfbbd9;opacity:0.5;"/>
   </g>
   <g id="patch_42">
    <path clip-path="url(#pfaa9deede3)" d="M 159.655245 187.13702 
L 159.655245 7.2 
L 160.233109 7.2 
L 160.233109 187.13702 
z
" style="fill:#bfbbd9;opacity:0.5;"/>
   </g>
   <g id="patch_43">
    <path clip-path="url(#pfaa9deede3)" d="M 161.099905 187.13702 
L 161.099905 7.2 
L 161.292527 7.2 
L 161.292527 187.13702 
z
" style="fill:#bfbbd9;opacity:0.5;"/>
   </g>
   <g id="patch_44">
    <path clip-path="url(#pfaa9deede3)" d="M 163.603983 187.13702 
L 163.603983 7.2 
L 164.085537 7.2 
L 164.085537 187.13702 
z
" style="fill:#bfbbd9;opacity:0.5;"/>
   </g>
   <g id="patch_45">
    <path clip-path="url(#pfaa9deede3)" d="M 164.856022 187.13702 
L 164.856022 7.2 
L 165.144954 7.2 
L 165.144954 187.13702 
z
" style="fill:#bfbbd9;opacity:0.5;"/>
   </g>
   <g id="patch_46">
    <path clip-path="url(#pfaa9deede3)" d="M 165.722818 187.13702 
L 165.722818 7.2 
L 166.300683 7.2 
L 166.300683 187.13702 
z
" style="fill:#bfbbd9;opacity:0.5;"/>
   </g>
   <g id="patch_47">
    <path clip-path="url(#pfaa9deede3)" d="M 168.323207 187.13702 
L 168.323207 7.2 
L 168.612139 7.2 
L 168.612139 187.13702 
z
" style="fill:#bfbbd9;opacity:0.5;"/>
   </g>
   <g id="patch_48">
    <path clip-path="url(#pfaa9deede3)" d="M 168.997382 187.13702 
L 168.997382 7.2 
L 169.864178 7.2 
L 169.864178 187.13702 
z
" style="fill:#bfbbd9;opacity:0.5;"/>
   </g>
   <g id="patch_49">
    <path clip-path="url(#pfaa9deede3)" d="M 171.308838 187.13702 
L 171.308838 7.2 
L 171.886702 7.2 
L 171.886702 187.13702 
z
" style="fill:#bfbbd9;opacity:0.5;"/>
   </g>
   <g id="patch_50">
    <path clip-path="url(#pfaa9deede3)" d="M 174.101848 187.13702 
L 174.101848 7.2 
L 175.161266 7.2 
L 175.161266 187.13702 
z
" style="fill:#bfbbd9;opacity:0.5;"/>
   </g>
   <g id="patch_51">
    <path clip-path="url(#pfaa9deede3)" d="M 177.857965 187.13702 
L 177.857965 7.2 
L 178.243208 7.2 
L 178.243208 187.13702 
z
" style="fill:#bfbbd9;opacity:0.5;"/>
   </g>
   <g id="patch_52">
    <path clip-path="url(#pfaa9deede3)" d="M 179.9768 187.13702 
L 179.9768 7.2 
L 180.747286 7.2 
L 180.747286 187.13702 
z
" style="fill:#bfbbd9;opacity:0.5;"/>
   </g>
   <g id="patch_53">
    <path clip-path="url(#pfaa9deede3)" d="M 182.76981 187.13702 
L 182.76981 7.2 
L 182.962432 7.2 
L 182.962432 187.13702 
z
" style="fill:#bfbbd9;opacity:0.5;"/>
   </g>
   <g id="patch_54">
    <path clip-path="url(#pfaa9deede3)" d="M 183.058742 187.13702 
L 183.058742 7.2 
L 183.443985 7.2 
L 183.443985 187.13702 
z
" style="fill:#bfbbd9;opacity:0.5;"/>
   </g>
   <g id="patch_55">
    <path clip-path="url(#pfaa9deede3)" d="M 195.097578 187.13702 
L 195.097578 7.2 
L 195.386511 7.2 
L 195.386511 187.13702 
z
" style="fill:#bfbbd9;opacity:0.5;"/>
   </g>
   <g id="patch_56">
    <path clip-path="url(#pfaa9deede3)" d="M 196.831171 187.13702 
L 196.831171 7.2 
L 197.216414 7.2 
L 197.216414 187.13702 
z
" style="fill:#bfbbd9;opacity:0.5;"/>
   </g>
   <g id="patch_57">
    <path clip-path="url(#pfaa9deede3)" d="M 197.312724 187.13702 
L 197.312724 7.2 
L 197.697967 7.2 
L 197.697967 187.13702 
z
" style="fill:#bfbbd9;opacity:0.5;"/>
   </g>
   <g id="patch_58">
    <path clip-path="url(#pfaa9deede3)" d="M 214.456027 187.13702 
L 214.456027 7.2 
L 215.130202 7.2 
L 215.130202 187.13702 
z
" style="fill:#bfbbd9;opacity:0.5;"/>
   </g>
   <g id="patch_59">
    <path clip-path="url(#pfaa9deede3)" d="M 218.886319 187.13702 
L 218.886319 7.2 
L 219.753115 7.2 
L 219.753115 187.13702 
z
" style="fill:#bfbbd9;opacity:0.5;"/>
   </g>
   <g id="patch_60">
    <path clip-path="url(#pfaa9deede3)" d="M 220.716222 187.13702 
L 220.716222 7.2 
L 221.005154 7.2 
L 221.005154 187.13702 
z
" style="fill:#bfbbd9;opacity:0.5;"/>
   </g>
   <g id="patch_61">
    <path clip-path="url(#pfaa9deede3)" d="M 229.673116 187.13702 
L 229.673116 7.2 
L 230.058358 7.2 
L 230.058358 187.13702 
z
" style="fill:#bfbbd9;opacity:0.5;"/>
   </g>
   <g id="patch_62">
    <path clip-path="url(#pfaa9deede3)" d="M 230.636223 187.13702 
L 230.636223 7.2 
L 231.599329 7.2 
L 231.599329 187.13702 
z
" style="fill:#bfbbd9;opacity:0.5;"/>
   </g>
   <g id="patch_63">
    <path clip-path="url(#pfaa9deede3)" d="M 238.437388 187.13702 
L 238.437388 7.2 
L 238.918942 7.2 
L 238.918942 187.13702 
z
" style="fill:#bfbbd9;opacity:0.5;"/>
   </g>
   <g id="patch_64">
    <path clip-path="url(#pfaa9deede3)" d="M 245.371758 187.13702 
L 245.371758 7.2 
L 245.853311 7.2 
L 245.853311 187.13702 
z
" style="fill:#bfbbd9;opacity:0.5;"/>
   </g>
   <g id="patch_65">
    <path clip-path="url(#pfaa9deede3)" d="M 246.045933 187.13702 
L 246.045933 7.2 
L 246.431176 7.2 
L 246.431176 187.13702 
z
" style="fill:#bfbbd9;opacity:0.5;"/>
   </g>
   <g id="patch_66">
    <path clip-path="url(#pfaa9deede3)" d="M 254.713895 187.13702 
L 254.713895 7.2 
L 255.291759 7.2 
L 255.291759 187.13702 
z
" style="fill:#bfbbd9;opacity:0.5;"/>
   </g>
   <g id="patch_67">
    <path clip-path="url(#pfaa9deede3)" d="M 263.381857 187.13702 
L 263.381857 7.2 
L 264.441274 7.2 
L 264.441274 187.13702 
z
" style="fill:#bfbbd9;opacity:0.5;"/>
   </g>
   <g id="patch_68">
    <path clip-path="url(#pfaa9deede3)" d="M 264.922828 187.13702 
L 264.922828 7.2 
L 265.500692 7.2 
L 265.500692 187.13702 
z
" style="fill:#bfbbd9;opacity:0.5;"/>
   </g>
   <g id="patch_69">
    <path clip-path="url(#pfaa9deede3)" d="M 268.967877 187.13702 
L 268.967877 7.2 
L 269.642052 7.2 
L 269.642052 187.13702 
z
" style="fill:#bfbbd9;opacity:0.5;"/>
   </g>
   <g id="patch_70">
    <path clip-path="url(#pfaa9deede3)" d="M 270.508848 187.13702 
L 270.508848 7.2 
L 270.990401 7.2 
L 270.990401 187.13702 
z
" style="fill:#bfbbd9;opacity:0.5;"/>
   </g>
   <g id="patch_71">
    <path clip-path="url(#pfaa9deede3)" d="M 271.279333 187.13702 
L 271.279333 7.2 
L 271.953508 7.2 
L 271.953508 187.13702 
z
" style="fill:#bfbbd9;opacity:0.5;"/>
   </g>
   <g id="patch_72">
    <path clip-path="url(#pfaa9deede3)" d="M 272.049819 187.13702 
L 272.049819 7.2 
L 272.24244 7.2 
L 272.24244 187.13702 
z
" style="fill:#bfbbd9;opacity:0.5;"/>
   </g>
   <g id="patch_73">
    <path clip-path="url(#pfaa9deede3)" d="M 273.494479 187.13702 
L 273.494479 7.2 
L 273.783411 7.2 
L 273.783411 187.13702 
z
" style="fill:#bfbbd9;opacity:0.5;"/>
   </g>
   <g id="patch_74">
    <path clip-path="url(#pfaa9deede3)" d="M 274.168654 187.13702 
L 274.168654 7.2 
L 274.939139 7.2 
L 274.939139 187.13702 
z
" style="fill:#bfbbd9;opacity:0.5;"/>
   </g>
   <g id="patch_75">
    <path clip-path="url(#pfaa9deede3)" d="M 276.576421 187.13702 
L 276.576421 7.2 
L 276.865353 7.2 
L 276.865353 187.13702 
z
" style="fill:#bfbbd9;opacity:0.5;"/>
   </g>
   <g id="patch_76">
    <path clip-path="url(#pfaa9deede3)" d="M 277.057975 187.13702 
L 277.057975 7.2 
L 277.82846 7.2 
L 277.82846 187.13702 
z
" style="fill:#bfbbd9;opacity:0.5;"/>
   </g>
   <g id="patch_77">
    <path clip-path="url(#pfaa9deede3)" d="M 282.932927 187.13702 
L 282.932927 7.2 
L 283.703412 7.2 
L 283.703412 187.13702 
z
" style="fill:#bfbbd9;opacity:0.5;"/>
   </g>
   <g id="patch_78">
    <path clip-path="url(#pfaa9deede3)" d="M 287.170597 187.13702 
L 287.170597 7.2 
L 287.65215 7.2 
L 287.65215 187.13702 
z
" style="fill:#bfbbd9;opacity:0.5;"/>
   </g>
   <g id="patch_79">
    <path clip-path="url(#pfaa9deede3)" d="M 288.037393 187.13702 
L 288.037393 7.2 
L 288.518947 7.2 
L 288.518947 187.13702 
z
" style="fill:#bfbbd9;opacity:0.5;"/>
   </g>
   <g id="patch_80">
    <path clip-path="url(#pfaa9deede3)" d="M 289.096811 187.13702 
L 289.096811 7.2 
L 289.385743 7.2 
L 289.385743 187.13702 
z
" style="fill:#bfbbd9;opacity:0.5;"/>
   </g>
   <g id="patch_81">
    <path clip-path="url(#pfaa9deede3)" d="M 293.912345 187.13702 
L 293.912345 7.2 
L 295.164384 7.2 
L 295.164384 187.13702 
z
" style="fill:#bfbbd9;opacity:0.5;"/>
   </g>
   <g id="patch_82">
    <path clip-path="url(#pfaa9deede3)" d="M 296.705355 187.13702 
L 296.705355 7.2 
L 297.090598 7.2 
L 297.090598 187.13702 
z
" style="fill:#bfbbd9;opacity:0.5;"/>
   </g>
   <g id="patch_83">
    <path clip-path="url(#pfaa9deede3)" d="M 298.535258 187.13702 
L 298.535258 7.2 
L 299.883608 7.2 
L 299.883608 187.13702 
z
" style="fill:#bfbbd9;opacity:0.5;"/>
   </g>
   <g id="patch_84">
    <path clip-path="url(#pfaa9deede3)" d="M 300.461472 187.13702 
L 300.461472 7.2 
L 302.002443 7.2 
L 302.002443 187.13702 
z
" style="fill:#bfbbd9;opacity:0.5;"/>
   </g>
   <g id="matplotlib.axis_1">
    <g id="xtick_1">
     <g id="line2d_1">
      <defs>
       <path d="M 0 0 
L 0 3.5 
" id="m7abad81f89" style="stroke:#ffffff;stroke-width:0.8;"/>
      </defs>
      <g>
       <use style="fill:#ffffff;stroke:#ffffff;stroke-width:0.8;" x="39.748437" xlink:href="#m7abad81f89" y="187.13702"/>
      </g>
     </g>
     <g id="text_1">
      <!-- 2014 -->
      <g style="fill:#ffffff;" transform="translate(28.517187 201.63702)scale(0.1 -0.1)">
       <defs>
        <path d="M 52.484375 0 
L 5.90625 0 
L 5.90625 6.5 
L 30.515625 33.84375 
Q 35.984375 40.046875 38.0625 43.921875 
Q 40.140625 47.796875 40.140625 51.953125 
Q 40.140625 57.515625 36.765625 61.078125 
Q 33.40625 64.65625 27.78125 64.65625 
Q 21.046875 64.65625 17.3125 60.8125 
Q 13.578125 56.984375 13.578125 50.140625 
L 4.546875 50.140625 
Q 4.546875 59.96875 10.859375 66.015625 
Q 17.1875 72.078125 27.78125 72.078125 
Q 37.703125 72.078125 43.453125 66.875 
Q 49.21875 61.671875 49.21875 53.03125 
Q 49.21875 42.53125 35.84375 28.03125 
L 16.796875 7.375 
L 52.484375 7.375 
z
" id="Roboto-Regular-50"/>
        <path d="M 50.484375 30.328125 
Q 50.484375 14.453125 45.0625 6.734375 
Q 39.65625 -0.984375 28.125 -0.984375 
Q 16.75 -0.984375 11.28125 6.5625 
Q 5.8125 14.109375 5.609375 29.109375 
L 5.609375 41.15625 
Q 5.609375 56.84375 11.03125 64.453125 
Q 16.453125 72.078125 28.03125 72.078125 
Q 39.5 72.078125 44.921875 64.71875 
Q 50.34375 57.375 50.484375 42.046875 
z
M 41.453125 42.671875 
Q 41.453125 54.15625 38.234375 59.40625 
Q 35.015625 64.65625 28.03125 64.65625 
Q 21.09375 64.65625 17.921875 59.421875 
Q 14.75 54.203125 14.65625 43.359375 
L 14.65625 28.90625 
Q 14.65625 17.390625 18 11.890625 
Q 21.34375 6.390625 28.125 6.390625 
Q 34.8125 6.390625 38.0625 11.5625 
Q 41.3125 16.75 41.453125 27.875 
z
" id="Roboto-Regular-48"/>
        <path d="M 35.59375 0 
L 26.515625 0 
L 26.515625 60.203125 
L 8.296875 53.515625 
L 8.296875 61.71875 
L 34.1875 71.4375 
L 35.59375 71.4375 
z
" id="Roboto-Regular-49"/>
        <path d="M 44.046875 23.875 
L 53.90625 23.875 
L 53.90625 16.5 
L 44.046875 16.5 
L 44.046875 0 
L 34.96875 0 
L 34.96875 16.5 
L 2.59375 16.5 
L 2.59375 21.828125 
L 34.421875 71.09375 
L 44.046875 71.09375 
z
M 12.84375 23.875 
L 34.96875 23.875 
L 34.96875 58.734375 
L 33.890625 56.78125 
z
" id="Roboto-Regular-52"/>
       </defs>
       <use xlink:href="#Roboto-Regular-50"/>
       <use x="56.152344" xlink:href="#Roboto-Regular-48"/>
       <use x="112.304688" xlink:href="#Roboto-Regular-49"/>
       <use x="168.457031" xlink:href="#Roboto-Regular-52"/>
      </g>
     </g>
    </g>
    <g id="xtick_2">
     <g id="line2d_2">
      <g>
       <use style="fill:#ffffff;stroke:#ffffff;stroke-width:0.8;" x="74.901839" xlink:href="#m7abad81f89" y="187.13702"/>
      </g>
     </g>
     <g id="text_2">
      <!-- 2015 -->
      <g style="fill:#ffffff;" transform="translate(63.670589 201.63702)scale(0.1 -0.1)">
       <defs>
        <path d="M 10.0625 35.640625 
L 13.671875 71.09375 
L 50.09375 71.09375 
L 50.09375 62.75 
L 21.34375 62.75 
L 19.1875 43.359375 
Q 24.421875 46.4375 31.0625 46.4375 
Q 40.765625 46.4375 46.484375 40.015625 
Q 52.203125 33.59375 52.203125 22.65625 
Q 52.203125 11.671875 46.265625 5.34375 
Q 40.328125 -0.984375 29.6875 -0.984375 
Q 20.265625 -0.984375 14.296875 4.234375 
Q 8.34375 9.46875 7.515625 18.703125 
L 16.0625 18.703125 
Q 16.890625 12.59375 20.40625 9.484375 
Q 23.921875 6.390625 29.6875 6.390625 
Q 35.984375 6.390625 39.578125 10.6875 
Q 43.171875 14.984375 43.171875 22.5625 
Q 43.171875 29.6875 39.28125 34 
Q 35.40625 38.328125 28.953125 38.328125 
Q 23.046875 38.328125 19.671875 35.75 
L 17.28125 33.796875 
z
" id="Roboto-Regular-53"/>
       </defs>
       <use xlink:href="#Roboto-Regular-50"/>
       <use x="56.152344" xlink:href="#Roboto-Regular-48"/>
       <use x="112.304688" xlink:href="#Roboto-Regular-49"/>
       <use x="168.457031" xlink:href="#Roboto-Regular-53"/>
      </g>
     </g>
    </g>
    <g id="xtick_3">
     <g id="line2d_3">
      <g>
       <use style="fill:#ffffff;stroke:#ffffff;stroke-width:0.8;" x="110.05524" xlink:href="#m7abad81f89" y="187.13702"/>
      </g>
     </g>
     <g id="text_3">
      <!-- 2016 -->
      <g style="fill:#ffffff;" transform="translate(98.82399 201.63702)scale(0.1 -0.1)">
       <defs>
        <path d="M 41.359375 71.140625 
L 41.359375 63.484375 
L 39.703125 63.484375 
Q 29.15625 63.28125 22.90625 57.21875 
Q 16.65625 51.171875 15.671875 40.1875 
Q 21.296875 46.625 31 46.625 
Q 40.28125 46.625 45.828125 40.078125 
Q 51.375 33.546875 51.375 23.1875 
Q 51.375 12.203125 45.390625 5.609375 
Q 39.40625 -0.984375 29.34375 -0.984375 
Q 19.140625 -0.984375 12.796875 6.859375 
Q 6.453125 14.703125 6.453125 27.046875 
L 6.453125 30.515625 
Q 6.453125 50.140625 14.8125 60.515625 
Q 23.1875 70.90625 39.75 71.140625 
z
M 29.5 39.109375 
Q 24.859375 39.109375 20.953125 36.328125 
Q 17.046875 33.546875 15.53125 29.34375 
L 15.53125 26.03125 
Q 15.53125 17.234375 19.484375 11.859375 
Q 23.4375 6.5 29.34375 6.5 
Q 35.453125 6.5 38.9375 10.984375 
Q 42.4375 15.484375 42.4375 22.75 
Q 42.4375 30.078125 38.890625 34.59375 
Q 35.359375 39.109375 29.5 39.109375 
z
" id="Roboto-Regular-54"/>
       </defs>
       <use xlink:href="#Roboto-Regular-50"/>
       <use x="56.152344" xlink:href="#Roboto-Regular-48"/>
       <use x="112.304688" xlink:href="#Roboto-Regular-49"/>
       <use x="168.457031" xlink:href="#Roboto-Regular-54"/>
      </g>
     </g>
    </g>
    <g id="xtick_4">
     <g id="line2d_4">
      <g>
       <use style="fill:#ffffff;stroke:#ffffff;stroke-width:0.8;" x="145.304952" xlink:href="#m7abad81f89" y="187.13702"/>
      </g>
     </g>
     <g id="text_4">
      <!-- 2017 -->
      <g style="fill:#ffffff;" transform="translate(134.073702 201.63702)scale(0.1 -0.1)">
       <defs>
        <path d="M 51.8125 66.015625 
L 22.359375 0 
L 12.890625 0 
L 42.234375 63.671875 
L 3.765625 63.671875 
L 3.765625 71.09375 
L 51.8125 71.09375 
z
" id="Roboto-Regular-55"/>
       </defs>
       <use xlink:href="#Roboto-Regular-50"/>
       <use x="56.152344" xlink:href="#Roboto-Regular-48"/>
       <use x="112.304688" xlink:href="#Roboto-Regular-49"/>
       <use x="168.457031" xlink:href="#Roboto-Regular-55"/>
      </g>
     </g>
    </g>
    <g id="xtick_5">
     <g id="line2d_5">
      <g>
       <use style="fill:#ffffff;stroke:#ffffff;stroke-width:0.8;" x="180.458354" xlink:href="#m7abad81f89" y="187.13702"/>
      </g>
     </g>
     <g id="text_5">
      <!-- 2018 -->
      <g style="fill:#ffffff;" transform="translate(169.227104 201.63702)scale(0.1 -0.1)">
       <defs>
        <path d="M 49.03125 52.546875 
Q 49.03125 47.21875 46.21875 43.0625 
Q 43.40625 38.921875 38.625 36.578125 
Q 44.1875 34.1875 47.4375 29.59375 
Q 50.6875 25 50.6875 19.1875 
Q 50.6875 9.96875 44.453125 4.484375 
Q 38.234375 -0.984375 28.078125 -0.984375 
Q 17.828125 -0.984375 11.640625 4.515625 
Q 5.46875 10.015625 5.46875 19.1875 
Q 5.46875 24.953125 8.609375 29.59375 
Q 11.765625 34.234375 17.328125 36.625 
Q 12.59375 38.96875 9.859375 43.109375 
Q 7.125 47.265625 7.125 52.546875 
Q 7.125 61.53125 12.890625 66.796875 
Q 18.65625 72.078125 28.078125 72.078125 
Q 37.453125 72.078125 43.234375 66.796875 
Q 49.03125 61.53125 49.03125 52.546875 
z
M 41.65625 19.390625 
Q 41.65625 25.34375 37.859375 29.09375 
Q 34.078125 32.859375 27.96875 32.859375 
Q 21.875 32.859375 18.1875 29.140625 
Q 14.5 25.4375 14.5 19.375 
Q 14.5 13.328125 18.09375 9.859375 
Q 21.6875 6.390625 28.078125 6.390625 
Q 34.421875 6.390625 38.03125 9.875 
Q 41.65625 13.375 41.65625 19.390625 
z
M 28.078125 64.65625 
Q 22.75 64.65625 19.453125 61.359375 
Q 16.15625 58.0625 16.15625 52.390625 
Q 16.15625 46.96875 19.40625 43.625 
Q 22.65625 40.28125 28.078125 40.28125 
Q 33.5 40.28125 36.734375 43.625 
Q 39.984375 46.96875 39.984375 52.390625 
Q 39.984375 57.8125 36.609375 61.234375 
Q 33.25 64.65625 28.078125 64.65625 
z
" id="Roboto-Regular-56"/>
       </defs>
       <use xlink:href="#Roboto-Regular-50"/>
       <use x="56.152344" xlink:href="#Roboto-Regular-48"/>
       <use x="112.304688" xlink:href="#Roboto-Regular-49"/>
       <use x="168.457031" xlink:href="#Roboto-Regular-56"/>
      </g>
     </g>
    </g>
    <g id="xtick_6">
     <g id="line2d_6">
      <g>
       <use style="fill:#ffffff;stroke:#ffffff;stroke-width:0.8;" x="215.611755" xlink:href="#m7abad81f89" y="187.13702"/>
      </g>
     </g>
     <g id="text_6">
      <!-- 2019 -->
      <g style="fill:#ffffff;" transform="translate(204.380505 201.63702)scale(0.1 -0.1)">
       <defs>
        <path d="M 40.53125 31.25 
Q 37.703125 27.875 33.765625 25.828125 
Q 29.828125 23.78125 25.140625 23.78125 
Q 19 23.78125 14.421875 26.796875 
Q 9.859375 29.828125 7.375 35.328125 
Q 4.890625 40.828125 4.890625 47.46875 
Q 4.890625 54.59375 7.59375 60.296875 
Q 10.296875 66.015625 15.28125 69.046875 
Q 20.265625 72.078125 26.90625 72.078125 
Q 37.453125 72.078125 43.53125 64.1875 
Q 49.609375 56.296875 49.609375 42.671875 
L 49.609375 40.046875 
Q 49.609375 19.28125 41.40625 9.734375 
Q 33.203125 0.203125 16.65625 -0.046875 
L 14.890625 -0.046875 
L 14.890625 7.5625 
L 16.796875 7.5625 
Q 27.984375 7.765625 33.984375 13.40625 
Q 39.984375 19.046875 40.53125 31.25 
z
M 26.609375 31.25 
Q 31.15625 31.25 34.984375 34.03125 
Q 38.8125 36.8125 40.578125 40.921875 
L 40.578125 44.53125 
Q 40.578125 53.421875 36.71875 58.984375 
Q 32.859375 64.546875 26.953125 64.546875 
Q 21 64.546875 17.375 59.984375 
Q 13.765625 55.421875 13.765625 47.953125 
Q 13.765625 40.671875 17.25 35.953125 
Q 20.75 31.25 26.609375 31.25 
z
" id="Roboto-Regular-57"/>
       </defs>
       <use xlink:href="#Roboto-Regular-50"/>
       <use x="56.152344" xlink:href="#Roboto-Regular-48"/>
       <use x="112.304688" xlink:href="#Roboto-Regular-49"/>
       <use x="168.457031" xlink:href="#Roboto-Regular-57"/>
      </g>
     </g>
    </g>
    <g id="xtick_7">
     <g id="line2d_7">
      <g>
       <use style="fill:#ffffff;stroke:#ffffff;stroke-width:0.8;" x="250.765157" xlink:href="#m7abad81f89" y="187.13702"/>
      </g>
     </g>
     <g id="text_7">
      <!-- 2020 -->
      <g style="fill:#ffffff;" transform="translate(239.533907 201.63702)scale(0.1 -0.1)">
       <use xlink:href="#Roboto-Regular-50"/>
       <use x="56.152344" xlink:href="#Roboto-Regular-48"/>
       <use x="112.304688" xlink:href="#Roboto-Regular-50"/>
       <use x="168.457031" xlink:href="#Roboto-Regular-48"/>
      </g>
     </g>
    </g>
    <g id="xtick_8">
     <g id="line2d_8">
      <g>
       <use style="fill:#ffffff;stroke:#ffffff;stroke-width:0.8;" x="286.014869" xlink:href="#m7abad81f89" y="187.13702"/>
      </g>
     </g>
     <g id="text_8">
      <!-- 2021 -->
      <g style="fill:#ffffff;" transform="translate(274.783619 201.63702)scale(0.1 -0.1)">
       <use xlink:href="#Roboto-Regular-50"/>
       <use x="56.152344" xlink:href="#Roboto-Regular-48"/>
       <use x="112.304688" xlink:href="#Roboto-Regular-50"/>
       <use x="168.457031" xlink:href="#Roboto-Regular-49"/>
      </g>
     </g>
    </g>
    <g id="xtick_9">
     <g id="line2d_9">
      <g>
       <use style="fill:#ffffff;stroke:#ffffff;stroke-width:0.8;" x="321.16827" xlink:href="#m7abad81f89" y="187.13702"/>
      </g>
     </g>
     <g id="text_9">
      <!-- 2022 -->
      <g style="fill:#ffffff;" transform="translate(309.93702 201.63702)scale(0.1 -0.1)">
       <use xlink:href="#Roboto-Regular-50"/>
       <use x="56.152344" xlink:href="#Roboto-Regular-48"/>
       <use x="112.304688" xlink:href="#Roboto-Regular-50"/>
       <use x="168.457031" xlink:href="#Roboto-Regular-50"/>
      </g>
     </g>
    </g>
    <g id="xtick_10">
     <g id="line2d_10">
      <defs>
       <path d="M 0 0 
L 0 2 
" id="m4adfa90077" style="stroke:#ffffff;stroke-width:0.6;"/>
      </defs>
      <g>
       <use style="fill:#ffffff;stroke:#ffffff;stroke-width:0.6;" x="48.416399" xlink:href="#m4adfa90077" y="187.13702"/>
      </g>
     </g>
    </g>
    <g id="xtick_11">
     <g id="line2d_11">
      <g>
       <use style="fill:#ffffff;stroke:#ffffff;stroke-width:0.6;" x="57.180672" xlink:href="#m4adfa90077" y="187.13702"/>
      </g>
     </g>
    </g>
    <g id="xtick_12">
     <g id="line2d_12">
      <g>
       <use style="fill:#ffffff;stroke:#ffffff;stroke-width:0.6;" x="66.041256" xlink:href="#m4adfa90077" y="187.13702"/>
      </g>
     </g>
    </g>
    <g id="xtick_13">
     <g id="line2d_13">
      <g>
       <use style="fill:#ffffff;stroke:#ffffff;stroke-width:0.6;" x="83.569801" xlink:href="#m4adfa90077" y="187.13702"/>
      </g>
     </g>
    </g>
    <g id="xtick_14">
     <g id="line2d_14">
      <g>
       <use style="fill:#ffffff;stroke:#ffffff;stroke-width:0.6;" x="92.334074" xlink:href="#m4adfa90077" y="187.13702"/>
      </g>
     </g>
    </g>
    <g id="xtick_15">
     <g id="line2d_15">
      <g>
       <use style="fill:#ffffff;stroke:#ffffff;stroke-width:0.6;" x="101.194657" xlink:href="#m4adfa90077" y="187.13702"/>
      </g>
     </g>
    </g>
    <g id="xtick_16">
     <g id="line2d_16">
      <g>
       <use style="fill:#ffffff;stroke:#ffffff;stroke-width:0.6;" x="118.819513" xlink:href="#m4adfa90077" y="187.13702"/>
      </g>
     </g>
    </g>
    <g id="xtick_17">
     <g id="line2d_17">
      <g>
       <use style="fill:#ffffff;stroke:#ffffff;stroke-width:0.6;" x="127.583786" xlink:href="#m4adfa90077" y="187.13702"/>
      </g>
     </g>
    </g>
    <g id="xtick_18">
     <g id="line2d_18">
      <g>
       <use style="fill:#ffffff;stroke:#ffffff;stroke-width:0.6;" x="136.444369" xlink:href="#m4adfa90077" y="187.13702"/>
      </g>
     </g>
    </g>
    <g id="xtick_19">
     <g id="line2d_19">
      <g>
       <use style="fill:#ffffff;stroke:#ffffff;stroke-width:0.6;" x="153.972914" xlink:href="#m4adfa90077" y="187.13702"/>
      </g>
     </g>
    </g>
    <g id="xtick_20">
     <g id="line2d_20">
      <g>
       <use style="fill:#ffffff;stroke:#ffffff;stroke-width:0.6;" x="162.737187" xlink:href="#m4adfa90077" y="187.13702"/>
      </g>
     </g>
    </g>
    <g id="xtick_21">
     <g id="line2d_21">
      <g>
       <use style="fill:#ffffff;stroke:#ffffff;stroke-width:0.6;" x="171.59777" xlink:href="#m4adfa90077" y="187.13702"/>
      </g>
     </g>
    </g>
    <g id="xtick_22">
     <g id="line2d_22">
      <g>
       <use style="fill:#ffffff;stroke:#ffffff;stroke-width:0.6;" x="189.126316" xlink:href="#m4adfa90077" y="187.13702"/>
      </g>
     </g>
    </g>
    <g id="xtick_23">
     <g id="line2d_23">
      <g>
       <use style="fill:#ffffff;stroke:#ffffff;stroke-width:0.6;" x="197.890588" xlink:href="#m4adfa90077" y="187.13702"/>
      </g>
     </g>
    </g>
    <g id="xtick_24">
     <g id="line2d_24">
      <g>
       <use style="fill:#ffffff;stroke:#ffffff;stroke-width:0.6;" x="206.751172" xlink:href="#m4adfa90077" y="187.13702"/>
      </g>
     </g>
    </g>
    <g id="xtick_25">
     <g id="line2d_25">
      <g>
       <use style="fill:#ffffff;stroke:#ffffff;stroke-width:0.6;" x="224.279717" xlink:href="#m4adfa90077" y="187.13702"/>
      </g>
     </g>
    </g>
    <g id="xtick_26">
     <g id="line2d_26">
      <g>
       <use style="fill:#ffffff;stroke:#ffffff;stroke-width:0.6;" x="233.04399" xlink:href="#m4adfa90077" y="187.13702"/>
      </g>
     </g>
    </g>
    <g id="xtick_27">
     <g id="line2d_27">
      <g>
       <use style="fill:#ffffff;stroke:#ffffff;stroke-width:0.6;" x="241.904573" xlink:href="#m4adfa90077" y="187.13702"/>
      </g>
     </g>
    </g>
    <g id="xtick_28">
     <g id="line2d_28">
      <g>
       <use style="fill:#ffffff;stroke:#ffffff;stroke-width:0.6;" x="259.529429" xlink:href="#m4adfa90077" y="187.13702"/>
      </g>
     </g>
    </g>
    <g id="xtick_29">
     <g id="line2d_29">
      <g>
       <use style="fill:#ffffff;stroke:#ffffff;stroke-width:0.6;" x="268.293702" xlink:href="#m4adfa90077" y="187.13702"/>
      </g>
     </g>
    </g>
    <g id="xtick_30">
     <g id="line2d_30">
      <g>
       <use style="fill:#ffffff;stroke:#ffffff;stroke-width:0.6;" x="277.154285" xlink:href="#m4adfa90077" y="187.13702"/>
      </g>
     </g>
    </g>
    <g id="xtick_31">
     <g id="line2d_31">
      <g>
       <use style="fill:#ffffff;stroke:#ffffff;stroke-width:0.6;" x="294.682831" xlink:href="#m4adfa90077" y="187.13702"/>
      </g>
     </g>
    </g>
    <g id="xtick_32">
     <g id="line2d_32">
      <g>
       <use style="fill:#ffffff;stroke:#ffffff;stroke-width:0.6;" x="303.447103" xlink:href="#m4adfa90077" y="187.13702"/>
      </g>
     </g>
    </g>
    <g id="xtick_33">
     <g id="line2d_33">
      <g>
       <use style="fill:#ffffff;stroke:#ffffff;stroke-width:0.6;" x="312.307687" xlink:href="#m4adfa90077" y="187.13702"/>
      </g>
     </g>
    </g>
    <g id="text_10">
     <!-- Year -->
     <g style="fill:#ffffff;" transform="translate(170.394291 215.16827)scale(0.1 -0.1)">
      <defs>
       <path d="M 29.9375 35.40625 
L 48.484375 71.09375 
L 59.125 71.09375 
L 34.625 26.515625 
L 34.625 0 
L 25.25 0 
L 25.25 26.515625 
L 0.734375 71.09375 
L 11.46875 71.09375 
z
" id="Roboto-Regular-89"/>
       <path d="M 28.765625 -0.984375 
Q 18.015625 -0.984375 11.28125 6.078125 
Q 4.546875 13.140625 4.546875 24.953125 
L 4.546875 26.609375 
Q 4.546875 34.46875 7.546875 40.640625 
Q 10.546875 46.828125 15.9375 50.3125 
Q 21.34375 53.8125 27.640625 53.8125 
Q 37.9375 53.8125 43.640625 47.015625 
Q 49.359375 40.234375 49.359375 27.59375 
L 49.359375 23.828125 
L 13.578125 23.828125 
Q 13.765625 16.015625 18.140625 11.203125 
Q 22.515625 6.390625 29.25 6.390625 
Q 34.03125 6.390625 37.34375 8.34375 
Q 40.671875 10.296875 43.171875 13.53125 
L 48.6875 9.234375 
Q 42.046875 -0.984375 28.765625 -0.984375 
z
M 27.640625 46.390625 
Q 22.171875 46.390625 18.453125 42.40625 
Q 14.75 38.421875 13.875 31.25 
L 40.328125 31.25 
L 40.328125 31.9375 
Q 39.9375 38.8125 36.609375 42.59375 
Q 33.296875 46.390625 27.640625 46.390625 
z
" id="Roboto-Regular-101"/>
       <path d="M 39.453125 0 
Q 38.671875 1.5625 38.1875 5.5625 
Q 31.890625 -0.984375 23.140625 -0.984375 
Q 15.328125 -0.984375 10.328125 3.4375 
Q 5.328125 7.859375 5.328125 14.65625 
Q 5.328125 22.90625 11.59375 27.46875 
Q 17.875 32.03125 29.25 32.03125 
L 38.03125 32.03125 
L 38.03125 36.1875 
Q 38.03125 40.921875 35.203125 43.71875 
Q 32.375 46.53125 26.859375 46.53125 
Q 22.015625 46.53125 18.75 44.09375 
Q 15.484375 41.65625 15.484375 38.1875 
L 6.390625 38.1875 
Q 6.390625 42.140625 9.203125 45.828125 
Q 12.015625 49.515625 16.8125 51.65625 
Q 21.625 53.8125 27.390625 53.8125 
Q 36.53125 53.8125 41.703125 49.234375 
Q 46.875 44.671875 47.078125 36.671875 
L 47.078125 12.359375 
Q 47.078125 5.078125 48.921875 0.78125 
L 48.921875 0 
z
M 24.46875 6.890625 
Q 28.71875 6.890625 32.515625 9.078125 
Q 36.328125 11.28125 38.03125 14.796875 
L 38.03125 25.640625 
L 30.953125 25.640625 
Q 14.359375 25.640625 14.359375 15.921875 
Q 14.359375 11.671875 17.1875 9.28125 
Q 20.015625 6.890625 24.46875 6.890625 
z
" id="Roboto-Regular-97"/>
       <path d="M 32.375 44.734375 
Q 30.328125 45.0625 27.9375 45.0625 
Q 19.046875 45.0625 15.875 37.5 
L 15.875 0 
L 6.84375 0 
L 6.84375 52.828125 
L 15.625 52.828125 
L 15.765625 46.734375 
Q 20.21875 53.8125 28.375 53.8125 
Q 31 53.8125 32.375 53.125 
z
" id="Roboto-Regular-114"/>
      </defs>
      <use xlink:href="#Roboto-Regular-89"/>
      <use x="60.058594" xlink:href="#Roboto-Regular-101"/>
      <use x="113.037109" xlink:href="#Roboto-Regular-97"/>
      <use x="167.431641" xlink:href="#Roboto-Regular-114"/>
     </g>
    </g>
   </g>
   <g id="matplotlib.axis_2">
    <g id="ytick_1">
     <g id="line2d_34">
      <defs>
       <path d="M 0 0 
L -3.5 0 
" id="m2c395bec74" style="stroke:#ffffff;stroke-width:0.8;"/>
      </defs>
      <g>
       <use style="fill:#ffffff;stroke:#ffffff;stroke-width:0.8;" x="39.748438" xlink:href="#m2c395bec74" y="187.13702"/>
      </g>
     </g>
     <g id="text_11">
      <!-- 0 -->
      <g style="fill:#ffffff;" transform="translate(27.132813 190.88702)scale(0.1 -0.1)">
       <use xlink:href="#Roboto-Regular-48"/>
      </g>
     </g>
    </g>
    <g id="ytick_2">
     <g id="line2d_35">
      <g>
       <use style="fill:#ffffff;stroke:#ffffff;stroke-width:0.8;" x="39.748438" xlink:href="#m2c395bec74" y="154.421198"/>
      </g>
     </g>
     <g id="text_12">
      <!-- 2 -->
      <g style="fill:#ffffff;" transform="translate(27.132813 158.171198)scale(0.1 -0.1)">
       <use xlink:href="#Roboto-Regular-50"/>
      </g>
     </g>
    </g>
    <g id="ytick_3">
     <g id="line2d_36">
      <g>
       <use style="fill:#ffffff;stroke:#ffffff;stroke-width:0.8;" x="39.748438" xlink:href="#m2c395bec74" y="121.705376"/>
      </g>
     </g>
     <g id="text_13">
      <!-- 4 -->
      <g style="fill:#ffffff;" transform="translate(27.132813 125.455376)scale(0.1 -0.1)">
       <use xlink:href="#Roboto-Regular-52"/>
      </g>
     </g>
    </g>
    <g id="ytick_4">
     <g id="line2d_37">
      <g>
       <use style="fill:#ffffff;stroke:#ffffff;stroke-width:0.8;" x="39.748438" xlink:href="#m2c395bec74" y="88.989555"/>
      </g>
     </g>
     <g id="text_14">
      <!-- 6 -->
      <g style="fill:#ffffff;" transform="translate(27.132813 92.739555)scale(0.1 -0.1)">
       <use xlink:href="#Roboto-Regular-54"/>
      </g>
     </g>
    </g>
    <g id="ytick_5">
     <g id="line2d_38">
      <g>
       <use style="fill:#ffffff;stroke:#ffffff;stroke-width:0.8;" x="39.748438" xlink:href="#m2c395bec74" y="56.273733"/>
      </g>
     </g>
     <g id="text_15">
      <!-- 8 -->
      <g style="fill:#ffffff;" transform="translate(27.132813 60.023733)scale(0.1 -0.1)">
       <use xlink:href="#Roboto-Regular-56"/>
      </g>
     </g>
    </g>
    <g id="ytick_6">
     <g id="line2d_39">
      <g>
       <use style="fill:#ffffff;stroke:#ffffff;stroke-width:0.8;" x="39.748438" xlink:href="#m2c395bec74" y="23.557911"/>
      </g>
     </g>
     <g id="text_16">
      <!-- 10 -->
      <g style="fill:#ffffff;" transform="translate(21.517188 27.307911)scale(0.1 -0.1)">
       <use xlink:href="#Roboto-Regular-49"/>
       <use x="56.152344" xlink:href="#Roboto-Regular-48"/>
      </g>
     </g>
    </g>
    <g id="text_17">
     <!-- Number of spectra or stars (×100000) -->
     <g style="fill:#ffffff;" transform="translate(15.221875 181.195073)rotate(-90)scale(0.1 -0.1)">
      <defs>
       <path d="M 62.890625 0 
L 53.46875 0 
L 17.671875 54.78125 
L 17.671875 0 
L 8.25 0 
L 8.25 71.09375 
L 17.671875 71.09375 
L 53.5625 16.0625 
L 53.5625 71.09375 
L 62.890625 71.09375 
z
" id="Roboto-Regular-78"/>
       <path d="M 39.453125 5.21875 
Q 34.1875 -0.984375 23.96875 -0.984375 
Q 15.53125 -0.984375 11.109375 3.921875 
Q 6.6875 8.84375 6.640625 18.453125 
L 6.640625 52.828125 
L 15.671875 52.828125 
L 15.671875 18.703125 
Q 15.671875 6.6875 25.4375 6.6875 
Q 35.796875 6.6875 39.203125 14.40625 
L 39.203125 52.828125 
L 48.25 52.828125 
L 48.25 0 
L 39.65625 0 
z
" id="Roboto-Regular-117"/>
       <path d="M 15.328125 52.828125 
L 15.578125 46.96875 
Q 21.390625 53.8125 31.25 53.8125 
Q 42.328125 53.8125 46.34375 45.3125 
Q 48.96875 49.125 53.1875 51.46875 
Q 57.421875 53.8125 63.1875 53.8125 
Q 80.5625 53.8125 80.859375 35.40625 
L 80.859375 0 
L 71.828125 0 
L 71.828125 34.859375 
Q 71.828125 40.53125 69.234375 43.328125 
Q 66.65625 46.140625 60.546875 46.140625 
Q 55.515625 46.140625 52.1875 43.140625 
Q 48.875 40.140625 48.34375 35.0625 
L 48.34375 0 
L 39.265625 0 
L 39.265625 34.625 
Q 39.265625 46.140625 27.984375 46.140625 
Q 19.09375 46.140625 15.828125 38.578125 
L 15.828125 0 
L 6.78125 0 
L 6.78125 52.828125 
z
" id="Roboto-Regular-109"/>
       <path d="M 51.5625 25.828125 
Q 51.5625 13.71875 46 6.359375 
Q 40.4375 -0.984375 31.0625 -0.984375 
Q 21.046875 -0.984375 15.578125 6.109375 
L 15.140625 0 
L 6.84375 0 
L 6.84375 75 
L 15.875 75 
L 15.875 47.015625 
Q 21.34375 53.8125 30.953125 53.8125 
Q 40.578125 53.8125 46.0625 46.53125 
Q 51.5625 39.265625 51.5625 26.609375 
z
M 42.53125 26.859375 
Q 42.53125 36.078125 38.96875 41.109375 
Q 35.40625 46.140625 28.71875 46.140625 
Q 19.78125 46.140625 15.875 37.84375 
L 15.875 14.984375 
Q 20.015625 6.6875 28.8125 6.6875 
Q 35.296875 6.6875 38.90625 11.71875 
Q 42.53125 16.75 42.53125 26.859375 
z
" id="Roboto-Regular-98"/>
       <path id="Roboto-Regular-32"/>
       <path d="M 4.4375 26.90625 
Q 4.4375 34.671875 7.484375 40.875 
Q 10.546875 47.078125 15.984375 50.4375 
Q 21.4375 53.8125 28.421875 53.8125 
Q 39.203125 53.8125 45.875 46.34375 
Q 52.546875 38.875 52.546875 26.46875 
L 52.546875 25.828125 
Q 52.546875 18.109375 49.578125 11.984375 
Q 46.625 5.859375 41.125 2.4375 
Q 35.640625 -0.984375 28.515625 -0.984375 
Q 17.78125 -0.984375 11.109375 6.484375 
Q 4.4375 13.96875 4.4375 26.265625 
z
M 13.53125 25.828125 
Q 13.53125 17.046875 17.609375 11.71875 
Q 21.6875 6.390625 28.515625 6.390625 
Q 35.40625 6.390625 39.453125 11.78125 
Q 43.5 17.1875 43.5 26.90625 
Q 43.5 35.59375 39.375 40.984375 
Q 35.25 46.390625 28.421875 46.390625 
Q 21.734375 46.390625 17.625 41.0625 
Q 13.53125 35.75 13.53125 25.828125 
z
" id="Roboto-Regular-111"/>
       <path d="M 11.28125 0 
L 11.28125 45.84375 
L 2.9375 45.84375 
L 2.9375 52.828125 
L 11.28125 52.828125 
L 11.28125 58.25 
Q 11.28125 66.75 15.8125 71.390625 
Q 20.359375 76.03125 28.65625 76.03125 
Q 31.78125 76.03125 34.859375 75.203125 
L 34.375 67.875 
Q 32.078125 68.3125 29.5 68.3125 
Q 25.09375 68.3125 22.703125 65.75 
Q 20.3125 63.1875 20.3125 58.40625 
L 20.3125 52.828125 
L 31.59375 52.828125 
L 31.59375 45.84375 
L 20.3125 45.84375 
L 20.3125 0 
z
" id="Roboto-Regular-102"/>
       <path d="M 37.59375 14.015625 
Q 37.59375 17.671875 34.828125 19.703125 
Q 32.078125 21.734375 25.21875 23.1875 
Q 18.359375 24.65625 14.328125 26.703125 
Q 10.296875 28.765625 8.375 31.59375 
Q 6.453125 34.421875 6.453125 38.328125 
Q 6.453125 44.828125 11.9375 49.3125 
Q 17.4375 53.8125 25.984375 53.8125 
Q 34.96875 53.8125 40.546875 49.171875 
Q 46.140625 44.53125 46.140625 37.3125 
L 37.0625 37.3125 
Q 37.0625 41.015625 33.90625 43.703125 
Q 30.765625 46.390625 25.984375 46.390625 
Q 21.046875 46.390625 18.265625 44.234375 
Q 15.484375 42.09375 15.484375 38.625 
Q 15.484375 35.359375 18.0625 33.6875 
Q 20.65625 32.03125 27.421875 30.515625 
Q 34.1875 29 38.375 26.90625 
Q 42.578125 24.8125 44.59375 21.84375 
Q 46.625 18.890625 46.625 14.65625 
Q 46.625 7.5625 40.953125 3.28125 
Q 35.296875 -0.984375 26.265625 -0.984375 
Q 19.921875 -0.984375 15.03125 1.265625 
Q 10.15625 3.515625 7.390625 7.546875 
Q 4.640625 11.578125 4.640625 16.265625 
L 13.671875 16.265625 
Q 13.921875 11.71875 17.3125 9.046875 
Q 20.703125 6.390625 26.265625 6.390625 
Q 31.390625 6.390625 34.484375 8.46875 
Q 37.59375 10.546875 37.59375 14.015625 
z
" id="Roboto-Regular-115"/>
       <path d="M 51.46875 25.828125 
Q 51.46875 13.765625 45.953125 6.390625 
Q 40.4375 -0.984375 31 -0.984375 
Q 21.390625 -0.984375 15.875 5.125 
L 15.875 -20.3125 
L 6.84375 -20.3125 
L 6.84375 52.828125 
L 15.09375 52.828125 
L 15.53125 46.96875 
Q 21.046875 53.8125 30.859375 53.8125 
Q 40.375 53.8125 45.921875 46.625 
Q 51.46875 39.453125 51.46875 26.65625 
z
M 42.4375 26.859375 
Q 42.4375 35.796875 38.625 40.96875 
Q 34.8125 46.140625 28.171875 46.140625 
Q 19.96875 46.140625 15.875 38.875 
L 15.875 13.625 
Q 19.921875 6.390625 28.265625 6.390625 
Q 34.765625 6.390625 38.59375 11.546875 
Q 42.4375 16.703125 42.4375 26.859375 
z
" id="Roboto-Regular-112"/>
       <path d="M 28.03125 6.390625 
Q 32.859375 6.390625 36.46875 9.3125 
Q 40.09375 12.25 40.484375 16.65625 
L 49.03125 16.65625 
Q 48.78125 12.109375 45.890625 8 
Q 43.015625 3.90625 38.203125 1.453125 
Q 33.40625 -0.984375 28.03125 -0.984375 
Q 17.234375 -0.984375 10.859375 6.21875 
Q 4.5 13.421875 4.5 25.921875 
L 4.5 27.4375 
Q 4.5 35.15625 7.328125 41.15625 
Q 10.15625 47.171875 15.453125 50.484375 
Q 20.75 53.8125 27.984375 53.8125 
Q 36.859375 53.8125 42.75 48.484375 
Q 48.640625 43.171875 49.03125 34.671875 
L 40.484375 34.671875 
Q 40.09375 39.796875 36.59375 43.09375 
Q 33.109375 46.390625 27.984375 46.390625 
Q 21.09375 46.390625 17.3125 41.421875 
Q 13.53125 36.46875 13.53125 27.09375 
L 13.53125 25.390625 
Q 13.53125 16.265625 17.28125 11.328125 
Q 21.046875 6.390625 28.03125 6.390625 
z
" id="Roboto-Regular-99"/>
       <path d="M 19.09375 65.625 
L 19.09375 52.828125 
L 28.953125 52.828125 
L 28.953125 45.84375 
L 19.09375 45.84375 
L 19.09375 13.09375 
Q 19.09375 9.90625 20.40625 8.3125 
Q 21.734375 6.734375 24.90625 6.734375 
Q 26.46875 6.734375 29.203125 7.328125 
L 29.203125 0 
Q 25.640625 -0.984375 22.265625 -0.984375 
Q 16.21875 -0.984375 13.140625 2.671875 
Q 10.0625 6.34375 10.0625 13.09375 
L 10.0625 45.84375 
L 0.4375 45.84375 
L 0.4375 52.828125 
L 10.0625 52.828125 
L 10.0625 65.625 
z
" id="Roboto-Regular-116"/>
       <path d="M 6.5 28.859375 
Q 6.5 39.890625 9.453125 50.046875 
Q 12.40625 60.203125 18.265625 68.5 
Q 24.125 76.8125 30.421875 80.21875 
L 32.28125 74.265625 
Q 25.140625 68.796875 20.578125 57.5625 
Q 16.015625 46.34375 15.578125 32.421875 
L 15.53125 28.265625 
Q 15.53125 9.421875 22.40625 -4.4375 
Q 26.5625 -12.75 32.28125 -17.4375 
L 30.421875 -22.953125 
Q 23.921875 -19.34375 18.015625 -10.84375 
Q 6.5 5.765625 6.5 28.859375 
z
" id="Roboto-Regular-40"/>
       <path d="M 4.34375 16.0625 
L 20.453125 32.46875 
L 4.4375 48.828125 
L 10.25 54.828125 
L 26.3125 38.484375 
L 42.390625 54.828125 
L 48.1875 48.828125 
L 32.171875 32.46875 
L 48.296875 16.0625 
L 42.484375 10.0625 
L 26.3125 26.515625 
L 10.15625 10.0625 
z
" id="Roboto-Regular-215"/>
       <path d="M 27.6875 28.375 
Q 27.6875 17.484375 24.828125 7.5 
Q 21.96875 -2.484375 16.078125 -10.9375 
Q 10.203125 -19.390625 3.765625 -22.953125 
L 1.859375 -17.4375 
Q 9.375 -11.671875 13.9375 0.453125 
Q 18.5 12.59375 18.609375 27.390625 
L 18.609375 28.953125 
Q 18.609375 39.203125 16.453125 48.015625 
Q 14.3125 56.84375 10.46875 63.8125 
Q 6.640625 70.796875 1.859375 74.703125 
L 3.765625 80.21875 
Q 10.203125 76.65625 16.03125 68.3125 
Q 21.875 59.96875 24.78125 49.90625 
Q 27.6875 39.84375 27.6875 28.375 
z
" id="Roboto-Regular-41"/>
      </defs>
      <use xlink:href="#Roboto-Regular-78"/>
      <use x="71.289062" xlink:href="#Roboto-Regular-117"/>
      <use x="126.416016" xlink:href="#Roboto-Regular-109"/>
      <use x="214.0625" xlink:href="#Roboto-Regular-98"/>
      <use x="270.166016" xlink:href="#Roboto-Regular-101"/>
      <use x="323.144531" xlink:href="#Roboto-Regular-114"/>
      <use x="356.982422" xlink:href="#Roboto-Regular-32"/>
      <use x="381.738281" xlink:href="#Roboto-Regular-111"/>
      <use x="438.769531" xlink:href="#Roboto-Regular-102"/>
      <use x="473.486328" xlink:href="#Roboto-Regular-32"/>
      <use x="498.242188" xlink:href="#Roboto-Regular-115"/>
      <use x="549.804688" xlink:href="#Roboto-Regular-112"/>
      <use x="605.908203" xlink:href="#Roboto-Regular-101"/>
      <use x="658.886719" xlink:href="#Roboto-Regular-99"/>
      <use x="711.230469" xlink:href="#Roboto-Regular-116"/>
      <use x="743.896484" xlink:href="#Roboto-Regular-114"/>
      <use x="777.734375" xlink:href="#Roboto-Regular-97"/>
      <use x="832.128906" xlink:href="#Roboto-Regular-32"/>
      <use x="856.884766" xlink:href="#Roboto-Regular-111"/>
      <use x="913.916016" xlink:href="#Roboto-Regular-114"/>
      <use x="947.753906" xlink:href="#Roboto-Regular-32"/>
      <use x="972.509766" xlink:href="#Roboto-Regular-115"/>
      <use x="1024.072266" xlink:href="#Roboto-Regular-116"/>
      <use x="1056.738281" xlink:href="#Roboto-Regular-97"/>
      <use x="1111.132812" xlink:href="#Roboto-Regular-114"/>
      <use x="1144.970703" xlink:href="#Roboto-Regular-115"/>
      <use x="1196.533203" xlink:href="#Roboto-Regular-32"/>
      <use x="1221.289062" xlink:href="#Roboto-Regular-40"/>
      <use x="1255.46875" xlink:href="#Roboto-Regular-215"/>
      <use x="1308.789062" xlink:href="#Roboto-Regular-49"/>
      <use x="1364.941406" xlink:href="#Roboto-Regular-48"/>
      <use x="1421.09375" xlink:href="#Roboto-Regular-48"/>
      <use x="1477.246094" xlink:href="#Roboto-Regular-48"/>
      <use x="1533.398438" xlink:href="#Roboto-Regular-48"/>
      <use x="1589.550781" xlink:href="#Roboto-Regular-48"/>
      <use x="1645.703125" xlink:href="#Roboto-Regular-41"/>
     </g>
    </g>
   </g>
   <g id="line2d_40">
    <path clip-path="url(#pfaa9deede3)" d="M 43.311933 187.058011 
L 43.408244 186.979003 
L 43.600865 186.656261 
L 43.986108 186.40942 
L 45.527079 186.40942 
L 46.008632 185.781604 
L 46.104943 185.781604 
L 46.297564 185.456572 
L 46.393875 185.456572 
L 46.682807 184.782789 
L 46.779118 184.670083 
L 46.971739 184.220732 
L 49.090574 184.220732 
L 49.283196 183.931524 
L 49.379506 183.931524 
L 49.764749 182.718421 
L 54.772905 182.718421 
L 54.965526 182.193986 
L 55.254458 181.079522 
L 57.662226 181.079522 
L 57.951158 180.085615 
L 58.047468 179.912221 
L 58.24009 179.442749 
L 58.432711 179.090891 
L 60.455236 179.090891 
L 61.225721 175.743899 
L 61.514653 175.043944 
L 69.026887 174.97704 
L 69.219508 174.564657 
L 69.41213 174.158326 
L 74.709218 174.099274 
L 75.190771 172.98023 
L 75.287082 172.862453 
L 75.672324 171.921382 
L 75.864946 171.921382 
L 76.057567 171.803769 
L 78.080092 171.803769 
L 78.561645 170.338918 
L 78.946888 169.283342 
L 83.280869 169.283342 
L 83.47349 169.108148 
L 83.666112 168.992007 
L 83.858733 168.992007 
L 84.629218 166.835708 
L 84.82184 166.405331 
L 85.977568 166.297859 
L 86.362811 165.08721 
L 86.651743 165.08721 
L 86.844364 164.911199 
L 89.252132 164.911199 
L 89.348442 164.794077 
L 89.926306 162.694212 
L 90.118928 162.167814 
L 92.430384 162.167814 
L 92.815627 160.540202 
L 97.43854 160.439274 
L 97.631161 160.211735 
L 97.727472 160.152847 
L 98.497958 157.741363 
L 101.772521 157.741363 
L 102.061453 157.046479 
L 104.854463 157.046479 
L 105.143395 156.501597 
L 108.706891 156.501597 
L 108.899512 155.884086 
L 109.284755 155.825198 
L 109.477376 155.432281 
L 110.05524 154.290826 
L 110.440483 154.290826 
L 111.114658 152.746312 
L 111.307279 152.597291 
L 112.077765 152.597291 
L 112.463007 151.830923 
L 112.655629 151.830923 
L 112.944561 151.176607 
L 118.049027 151.176607 
L 118.530581 149.650086 
L 118.626892 149.650086 
L 119.108445 148.013968 
L 120.071552 148.013968 
L 120.264173 147.510799 
L 120.360484 147.452565 
L 120.842037 145.713555 
L 121.419902 144.325096 
L 122.768251 144.266371 
L 123.153494 143.460907 
L 123.249805 143.402509 
L 123.827669 141.24441 
L 124.116601 141.24441 
L 124.501844 140.154483 
L 124.694465 139.6644 
L 124.983397 139.606002 
L 125.657572 139.571814 
L 125.850193 139.397111 
L 129.60631 139.397111 
L 129.895242 139.163684 
L 131.436213 139.163684 
L 131.725145 138.414655 
L 132.303009 137.194519 
L 134.903398 137.194519 
L 135.096019 136.879138 
L 135.19233 136.879138 
L 135.384951 136.517628 
L 135.577573 136.492274 
L 135.770194 136.202248 
L 136.829612 136.202248 
L 137.214855 135.153542 
L 137.311165 135.153542 
L 137.696408 134.35593 
L 139.622622 134.35593 
L 140.104175 132.941462 
L 140.682039 132.941462 
L 140.874661 132.385293 
L 141.259903 131.351309 
L 142.993496 131.351309 
L 143.378739 130.437229 
L 143.57136 129.959742 
L 143.763981 129.92081 
L 144.052913 128.850675 
L 144.823399 128.850675 
L 145.112331 128.459885 
L 145.593884 127.825034 
L 146.171749 126.346934 
L 146.268059 126.289027 
L 146.942234 124.688732 
L 147.520098 123.947064 
L 147.71272 123.947064 
L 148.001652 123.294384 
L 148.194273 122.673601 
L 148.290584 122.673601 
L 148.483205 122.219833 
L 148.579516 122.219833 
L 148.868448 121.315404 
L 149.542623 121.315404 
L 149.735244 120.853129 
L 150.216797 119.532882 
L 152.046701 119.475302 
L 152.528254 119.302399 
L 154.069225 119.302399 
L 154.550778 118.322397 
L 155.610196 113.986733 
L 157.247478 113.986733 
L 158.403206 108.104101 
L 159.558934 108.104101 
L 159.847866 106.839798 
L 160.233109 105.024233 
L 161.003595 105.024233 
L 161.196216 104.361738 
L 163.507673 104.361738 
L 163.700294 103.571323 
L 163.989226 102.550426 
L 164.759711 102.550426 
L 165.144954 101.241957 
L 165.626508 101.241957 
L 165.91544 100.444345 
L 166.01175 100.444345 
L 166.300683 99.468596 
L 168.226896 99.468596 
L 168.515828 98.827202 
L 168.901071 98.827202 
L 169.190003 97.677077 
L 169.671557 95.758458 
L 169.864178 95.552021 
L 171.50146 95.552021 
L 171.886702 94.866625 
L 174.005538 94.866625 
L 174.29447 94.401406 
L 174.39078 94.401406 
L 174.583402 93.832805 
L 174.776023 93.444304 
L 175.161266 92.912345 
L 177.857965 92.912345 
L 178.050587 92.52957 
L 179.88049 92.52957 
L 180.073111 91.782014 
L 180.169422 91.782014 
L 180.362043 91.3006 
L 180.747286 90.269561 
L 182.6735 90.269561 
L 183.540296 89.329636 
L 195.001268 89.329636 
L 195.193889 88.797022 
L 195.386511 88.539712 
L 196.73486 88.539712 
L 197.697967 86.976059 
L 214.359716 86.976059 
L 214.552338 86.317817 
L 215.130202 84.4697 
L 218.790008 84.4697 
L 219.560493 82.429378 
L 219.753115 82.140007 
L 220.619911 82.140007 
L 220.812532 81.575986 
L 221.005154 81.151662 
L 231.310397 81.151662 
L 231.503019 80.568666 
L 245.275447 80.568666 
L 245.66069 79.920074 
L 246.045933 79.920074 
L 246.334865 79.503602 
L 254.906516 79.403164 
L 255.195448 78.723493 
L 263.285546 78.723493 
L 263.959721 76.09036 
L 264.056032 76.09036 
L 264.248653 75.861513 
L 264.537585 75.819146 
L 264.922828 75.819146 
L 265.308071 74.511331 
L 268.871566 74.511331 
L 269.064187 74.160945 
L 269.44943 74.059853 
L 269.642052 73.796163 
L 270.412537 73.796163 
L 270.605158 73.540816 
L 270.79778 73.540816 
L 270.990401 73.404719 
L 271.183023 73.404719 
L 271.568265 71.850881 
L 273.398168 71.850881 
L 273.494479 71.72198 
L 273.783411 71.088438 
L 274.072343 71.088438 
L 274.939139 68.871614 
L 276.576421 68.871614 
L 276.769042 68.099848 
L 277.057975 68.099848 
L 277.732149 66.534723 
L 282.836616 66.534723 
L 283.41448 66.008653 
L 283.510791 66.008653 
L 283.703412 65.829534 
L 287.074286 65.829534 
L 287.459529 65.12418 
L 287.748461 65.0684 
L 288.037393 65.0684 
L 288.518947 64.153502 
L 289.0005 64.153502 
L 289.289432 63.77089 
L 293.816034 63.77089 
L 294.008656 63.553167 
L 301.039336 63.553167 
L 301.231957 63.124753 
L 301.713511 63.072244 
L 301.809822 62.808391 
L 301.809822 62.808391 
" style="fill:none;stroke:#8dd3c7;stroke-linecap:square;stroke-width:2;"/>
   </g>
   <g id="line2d_41">
    <path clip-path="url(#pfaa9deede3)" d="M 43.504554 186.897704 
L 45.62339 186.793013 
L 45.7197 186.764878 
L 46.008632 186.448188 
L 46.104943 186.448188 
L 46.297564 186.192187 
L 46.393875 186.192187 
L 46.682807 185.549975 
L 46.779118 185.446266 
L 46.971739 185.025214 
L 49.090574 185.025214 
L 49.283196 184.77003 
L 49.379506 184.77003 
L 49.764749 183.649186 
L 54.772905 183.649186 
L 54.965526 183.178733 
L 55.254458 182.230792 
L 57.662226 182.230792 
L 57.951158 181.343212 
L 58.047468 181.227888 
L 58.24009 180.806836 
L 58.432711 180.499961 
L 60.455236 180.499961 
L 61.225721 177.567315 
L 61.514653 176.937863 
L 69.026887 176.87832 
L 69.219508 176.506668 
L 69.41213 176.153828 
L 74.709218 176.1041 
L 75.190771 175.177751 
L 75.287082 175.076659 
L 75.672324 174.279211 
L 78.080092 174.230138 
L 78.465334 173.201552 
L 78.946888 171.880978 
L 83.280869 171.880978 
L 83.569801 171.60044 
L 83.858733 171.60044 
L 84.918151 169.322437 
L 85.977568 169.227234 
L 86.362811 168.174603 
L 86.651743 168.174603 
L 86.844364 168.032125 
L 89.348442 167.927271 
L 89.829996 166.463565 
L 90.118928 165.52184 
L 92.430384 165.52184 
L 92.815627 164.092322 
L 97.43854 163.998591 
L 97.631161 163.791991 
L 97.727472 163.738173 
L 98.497958 161.564534 
L 101.772521 161.564534 
L 102.061453 160.938026 
L 104.854463 160.938026 
L 105.143395 160.468227 
L 108.706891 160.468227 
L 108.899512 159.920074 
L 109.284755 159.869691 
L 109.477376 159.52045 
L 110.151551 158.53783 
L 110.440483 158.53783 
L 111.018347 157.383616 
L 111.307279 157.15117 
L 112.077765 157.15117 
L 112.463007 156.445653 
L 112.655629 156.445653 
L 112.944561 155.83812 
L 118.049027 155.83812 
L 118.530581 154.42038 
L 118.626892 154.42038 
L 119.108445 152.922977 
L 120.071552 152.922977 
L 120.264173 152.450888 
L 120.360484 152.395107 
L 120.842037 150.830146 
L 120.938348 150.720221 
L 121.22728 149.676586 
L 122.768251 149.624241 
L 123.057183 148.950131 
L 123.249805 148.895332 
L 123.827669 146.936472 
L 124.116601 146.936472 
L 124.501844 145.897582 
L 124.694465 145.443813 
L 124.983397 145.390813 
L 125.753883 145.281052 
L 126.042815 145.227071 
L 129.702621 145.119436 
L 129.895242 145.011474 
L 131.436213 145.011474 
L 132.110388 143.191983 
L 134.903398 143.191983 
L 135.096019 142.901794 
L 135.19233 142.901794 
L 135.384951 142.564821 
L 135.577573 142.544864 
L 135.770194 142.268252 
L 136.829612 142.268252 
L 137.311165 141.309024 
L 137.696408 140.552143 
L 139.622622 140.552143 
L 140.104175 139.2211 
L 140.682039 139.2211 
L 140.874661 138.698138 
L 141.259903 137.731222 
L 142.993496 137.731222 
L 143.378739 136.89795 
L 143.57136 136.460703 
L 143.763981 136.424715 
L 144.052913 135.411016 
L 144.823399 135.411016 
L 145.112331 135.097271 
L 145.401263 134.931565 
L 146.556991 132.323623 
L 146.749613 131.828633 
L 147.038545 131.568052 
L 147.134855 131.568052 
L 147.423788 131.025133 
L 147.71272 131.025133 
L 148.001652 130.448516 
L 148.194273 129.900035 
L 148.290584 129.900035 
L 148.483205 129.532964 
L 148.579516 129.532964 
L 148.868448 128.67859 
L 149.542623 128.67859 
L 149.735244 128.237908 
L 150.216797 127.018099 
L 152.143011 126.908828 
L 152.335633 126.800538 
L 154.069225 126.800538 
L 154.550778 125.862412 
L 155.706507 121.768354 
L 157.247478 121.768354 
L 158.306895 116.637368 
L 158.499517 116.363864 
L 159.558934 116.363864 
L 159.847866 115.177261 
L 160.233109 113.462952 
L 161.003595 113.462952 
L 161.196216 112.862126 
L 163.507673 112.862126 
L 163.700294 112.122912 
L 163.989226 111.152888 
L 164.759711 111.152888 
L 165.144954 109.938477 
L 165.626508 109.938477 
L 165.91544 109.230343 
L 166.01175 109.230343 
L 166.300683 108.493419 
L 168.323207 108.444345 
L 168.70845 108.107372 
L 168.901071 108.107372 
L 168.997382 107.992703 
L 169.864178 105.167365 
L 171.50146 105.167365 
L 171.886702 104.516974 
L 174.005538 104.516974 
L 174.29447 104.127656 
L 174.39078 104.127656 
L 174.583402 103.640681 
L 174.776023 103.275572 
L 175.161266 102.778783 
L 177.857965 102.778783 
L 178.050587 102.420872 
L 179.88049 102.420872 
L 180.073111 101.737438 
L 180.169422 101.737438 
L 180.362043 101.280725 
L 180.747286 100.313646 
L 182.76981 100.222859 
L 182.962432 100.042431 
L 183.058742 100.042431 
L 183.251364 99.678795 
L 183.443985 99.522904 
L 195.001268 99.522904 
L 195.482821 98.853702 
L 196.831171 98.787616 
L 197.409035 97.90478 
L 197.505346 97.90478 
L 197.697967 97.619825 
L 214.359716 97.619825 
L 214.552338 97.014091 
L 215.130202 95.286696 
L 218.886319 95.182823 
L 218.982629 95.120827 
L 219.175251 94.705336 
L 219.271561 94.705336 
L 219.753115 93.661374 
L 220.619911 93.661374 
L 220.812532 93.17767 
L 221.005154 92.806182 
L 231.310397 92.806182 
L 231.503019 92.346852 
L 245.275447 92.346852 
L 245.564379 91.956225 
L 245.757001 91.841556 
L 246.045933 91.841556 
L 246.334865 91.557092 
L 254.906516 91.470886 
L 255.195448 90.922732 
L 263.285546 90.922732 
L 263.7671 89.229525 
L 263.959721 88.775593 
L 264.056032 88.775593 
L 264.248653 88.622483 
L 264.633896 88.589931 
L 264.922828 88.589931 
L 265.308071 87.555784 
L 268.871566 87.555784 
L 269.064187 87.273937 
L 269.44943 87.177589 
L 269.642052 87.011392 
L 270.412537 87.011392 
L 270.605158 86.802502 
L 270.79778 86.802502 
L 270.990401 86.681617 
L 271.183023 86.681617 
L 271.568265 85.439561 
L 273.398168 85.439561 
L 273.59079 85.067091 
L 273.783411 84.794895 
L 274.072343 84.794895 
L 274.746518 83.392532 
L 274.939139 82.950541 
L 276.576421 82.950541 
L 276.769042 82.253203 
L 277.057975 82.253203 
L 277.82846 80.842006 
L 282.932927 80.738134 
L 283.125548 80.548218 
L 283.221859 80.548218 
L 283.41448 80.392491 
L 283.510791 80.392491 
L 283.703412 80.264899 
L 287.074286 80.264899 
L 287.459529 79.730159 
L 288.037393 79.720181 
L 288.518947 78.971152 
L 289.0005 78.971152 
L 289.193121 78.637941 
L 293.816034 78.637941 
L 294.008656 78.455878 
L 301.039336 78.455878 
L 301.231957 78.278067 
L 301.809822 78.182046 
L 301.809822 78.182046 
" style="fill:none;stroke:#8dd3c7;stroke-dasharray:3.7,1.6;stroke-dashoffset:0;"/>
   </g>
   <g id="line2d_42">
    <path clip-path="url(#pfaa9deede3)" d="M 43.311933 187.058011 
L 43.408244 187.058011 
L 43.600865 186.887725 
L 45.7197 186.803319 
L 46.297564 186.24764 
L 46.393875 186.24764 
L 46.682807 185.636836 
L 46.779118 185.580728 
L 46.971739 185.244083 
L 49.090574 185.244083 
L 49.283196 184.954875 
L 49.379506 184.954875 
L 49.764749 183.741936 
L 54.772905 183.741936 
L 54.965526 183.217665 
L 55.254458 182.171413 
L 57.662226 182.171413 
L 57.951158 181.177506 
L 58.047468 181.004276 
L 58.24009 180.535131 
L 58.432711 180.211735 
L 60.455236 180.211735 
L 61.225721 176.89206 
L 61.514653 176.19276 
L 69.026887 176.125856 
L 69.219508 175.7138 
L 69.41213 175.307797 
L 74.709218 175.248745 
L 75.190771 174.130027 
L 75.287082 174.01225 
L 75.672324 173.07167 
L 75.864946 173.07167 
L 76.057567 172.954057 
L 78.080092 172.954057 
L 78.561645 171.48937 
L 78.946888 170.434939 
L 83.280869 170.434939 
L 83.47349 170.260236 
L 83.666112 170.144095 
L 83.858733 170.144095 
L 84.629218 168.062224 
L 84.82184 167.632174 
L 85.977568 167.524866 
L 86.362811 166.600481 
L 86.651743 166.600481 
L 86.844364 166.42447 
L 89.252132 166.42447 
L 89.348442 166.307347 
L 90.215238 163.92858 
L 92.430384 163.92858 
L 92.815627 162.823603 
L 97.43854 162.722838 
L 97.631161 162.495299 
L 97.727472 162.436575 
L 98.497958 160.027054 
L 101.772521 160.027054 
L 102.061453 159.368158 
L 104.854463 159.368158 
L 105.143395 158.823603 
L 108.706891 158.823603 
L 108.899512 158.206419 
L 109.284755 158.14753 
L 109.477376 157.755268 
L 109.669998 157.655157 
L 109.95893 156.950458 
L 110.440483 156.950458 
L 111.114658 155.411997 
L 111.307279 155.263467 
L 112.077765 155.263467 
L 112.559318 154.53096 
L 112.655629 154.53096 
L 112.944561 153.877461 
L 118.049027 153.877461 
L 118.530581 152.387583 
L 118.626892 152.387583 
L 119.108445 150.786634 
L 120.071552 150.786634 
L 120.264173 150.339736 
L 120.360484 150.281502 
L 120.842037 148.547727 
L 121.323591 147.331352 
L 122.768251 147.272628 
L 123.153494 146.467328 
L 123.249805 146.40893 
L 123.827669 144.286164 
L 124.116601 144.286164 
L 124.501844 143.196563 
L 124.694465 142.706644 
L 124.983397 142.648246 
L 125.657572 142.614058 
L 125.946504 142.456531 
L 129.60631 142.456531 
L 129.895242 142.223268 
L 131.436213 142.223268 
L 131.725145 141.474402 
L 132.303009 140.274059 
L 134.903398 140.274059 
L 135.096019 139.958842 
L 135.19233 139.958842 
L 135.384951 139.597332 
L 135.577573 139.571977 
L 135.770194 139.281952 
L 136.829612 139.281952 
L 137.407476 138.024355 
L 137.792719 137.475384 
L 139.622622 137.475384 
L 140.007864 136.289108 
L 140.200486 136.173621 
L 140.682039 136.173621 
L 140.874661 135.618107 
L 141.259903 134.584941 
L 142.993496 134.584941 
L 143.378739 133.687873 
L 143.57136 133.266984 
L 143.763981 133.242611 
L 144.052913 132.405577 
L 144.823399 132.405577 
L 145.112331 132.01495 
L 145.593884 131.380426 
L 146.075438 130.163234 
L 146.460681 129.606411 
L 146.845923 128.663868 
L 146.942234 128.663868 
L 147.520098 127.9222 
L 147.71272 127.9222 
L 148.001652 127.273282 
L 148.290584 126.754246 
L 148.483205 126.356258 
L 148.579516 126.356258 
L 148.964759 125.574677 
L 149.542623 125.574677 
L 149.831555 124.829247 
L 150.024176 124.251649 
L 150.216797 123.818655 
L 152.046701 123.761075 
L 152.528254 123.588335 
L 154.069225 123.588335 
L 154.550778 122.611114 
L 155.610196 118.381776 
L 157.247478 118.381776 
L 158.403206 112.542329 
L 159.558934 112.542329 
L 159.847866 111.278353 
L 160.233109 109.46377 
L 161.003595 109.46377 
L 161.196216 108.802256 
L 163.507673 108.802256 
L 163.700294 108.012169 
L 163.989226 106.991926 
L 164.759711 106.991926 
L 165.048644 105.747253 
L 165.626508 105.747253 
L 165.91544 104.950132 
L 166.01175 104.950132 
L 166.300683 104.033762 
L 168.226896 104.033762 
L 168.515828 103.670452 
L 168.901071 103.670452 
L 169.190003 102.749175 
L 169.575246 101.414697 
L 169.767867 100.855583 
L 171.50146 100.855583 
L 171.790392 100.227439 
L 174.005538 100.227439 
L 174.198159 100.074166 
L 174.39078 100.051265 
L 174.583402 99.594879 
L 174.776023 99.208832 
L 175.161266 98.716459 
L 177.857965 98.716459 
L 178.050587 98.584778 
L 179.88049 98.584778 
L 180.073111 98.056908 
L 180.169422 98.056908 
L 180.362043 97.702432 
L 180.554664 97.451665 
L 180.843597 97.407335 
L 182.6735 97.407335 
L 183.251364 96.797676 
L 183.925539 96.778865 
L 196.73486 96.684643 
L 197.120103 96.196687 
L 197.216414 96.196687 
L 197.409035 95.82438 
L 197.505346 95.82438 
L 197.697967 95.53599 
L 214.359716 95.53599 
L 214.744959 94.495627 
L 215.130202 93.436289 
L 218.790008 93.436289 
L 219.656804 91.527321 
L 220.619911 91.527321 
L 220.812532 90.966081 
L 221.005154 90.541757 
L 231.310397 90.541757 
L 231.503019 90.047748 
L 245.275447 90.047748 
L 245.66069 89.437598 
L 246.045933 89.437598 
L 246.334865 89.099807 
L 254.906516 88.999369 
L 255.195448 88.37417 
L 263.285546 88.37417 
L 263.959721 85.741528 
L 264.056032 85.741528 
L 264.248653 85.512681 
L 264.922828 85.512681 
L 265.308071 84.385784 
L 268.871566 84.385784 
L 269.064187 84.082018 
L 269.44943 83.980926 
L 269.642052 83.717236 
L 270.412537 83.717236 
L 270.605158 83.461889 
L 270.79778 83.461889 
L 270.990401 83.325791 
L 271.183023 83.325791 
L 271.568265 81.824953 
L 273.398168 81.824953 
L 273.494479 81.696544 
L 273.6871 81.325383 
L 274.072343 81.325383 
L 274.457586 80.467901 
L 274.553897 80.467901 
L 274.842829 79.655076 
L 276.576421 79.655076 
L 276.865353 79.036747 
L 277.057975 79.036747 
L 277.635839 77.893493 
L 282.836616 77.893493 
L 283.125548 77.699815 
L 283.221859 77.699815 
L 283.41448 77.56519 
L 283.510791 77.56519 
L 283.703412 77.451502 
L 287.074286 77.451502 
L 287.459529 76.746149 
L 287.748461 76.690368 
L 288.037393 76.690368 
L 288.518947 75.775634 
L 289.0005 75.775634 
L 289.289432 75.393186 
L 293.816034 75.393186 
L 294.008656 75.177589 
L 301.039336 75.177589 
L 301.231957 74.959047 
L 301.809822 74.929767 
L 301.809822 74.929767 
" style="fill:none;stroke:#feffb3;stroke-linecap:square;stroke-width:2;"/>
   </g>
   <g id="line2d_43">
    <path clip-path="url(#pfaa9deede3)" d="M 43.504554 186.973441 
L 45.7197 186.94416 
L 46.008632 186.695684 
L 46.104943 186.695684 
L 46.297564 186.474197 
L 46.393875 186.474197 
L 46.682807 185.892019 
L 46.779118 185.837875 
L 46.971739 185.522985 
L 49.090574 185.522985 
L 49.283196 185.267802 
L 49.379506 185.267802 
L 49.764749 184.146957 
L 54.772905 184.146957 
L 54.965526 183.676668 
L 55.254458 182.788433 
L 57.662226 182.788433 
L 57.951158 181.900853 
L 58.047468 181.785693 
L 58.24009 181.364968 
L 58.432711 181.079031 
L 60.455236 181.079031 
L 61.225721 178.168632 
L 61.514653 177.539507 
L 69.026887 177.479964 
L 69.219508 177.108476 
L 69.41213 176.755635 
L 74.709218 176.705907 
L 75.190771 175.779559 
L 75.287082 175.678467 
L 75.672324 174.881346 
L 78.080092 174.832272 
L 78.465334 173.803687 
L 78.946888 172.48344 
L 83.280869 172.48344 
L 83.569801 172.203229 
L 83.858733 172.203229 
L 84.82184 169.993602 
L 85.977568 169.898563 
L 86.459122 169.093263 
L 86.651743 169.093263 
L 86.844364 168.950785 
L 89.348442 168.845931 
L 89.926306 167.017444 
L 90.118928 166.662968 
L 92.430384 166.662968 
L 92.815627 165.653521 
L 97.43854 165.559954 
L 97.631161 165.353354 
L 97.727472 165.2997 
L 98.497958 163.127533 
L 101.772521 163.127533 
L 102.061453 162.53325 
L 104.854463 162.53325 
L 105.143395 162.063614 
L 108.706891 162.063614 
L 108.899512 161.515788 
L 109.284755 161.465405 
L 109.477376 161.116328 
L 109.669998 161.027013 
L 109.95893 160.413592 
L 110.440483 160.413592 
L 111.018347 159.263303 
L 111.307279 159.031021 
L 112.077765 159.031021 
L 112.559318 158.357075 
L 112.655629 158.357075 
L 112.944561 157.75036 
L 118.049027 157.75036 
L 118.530581 156.363864 
L 118.626892 156.363864 
L 119.108445 154.895578 
L 120.071552 154.895578 
L 120.264173 154.476324 
L 120.360484 154.420544 
L 120.842037 152.860326 
L 120.938348 152.750401 
L 121.323591 151.867074 
L 122.768251 151.814729 
L 123.057183 151.140619 
L 123.249805 151.08582 
L 123.827669 149.159185 
L 124.116601 149.159185 
L 124.501844 148.120458 
L 124.694465 147.666853 
L 124.983397 147.613854 
L 125.753883 147.505237 
L 126.042815 147.451256 
L 129.702621 147.343621 
L 129.895242 147.235822 
L 131.436213 147.235822 
L 132.014077 145.683947 
L 132.206699 145.43498 
L 134.903398 145.43498 
L 135.096019 145.144954 
L 135.19233 145.144954 
L 135.384951 144.807981 
L 135.577573 144.788024 
L 135.770194 144.511412 
L 136.829612 144.511412 
L 137.600097 142.8308 
L 139.622622 142.8308 
L 140.007864 141.715191 
L 140.200486 141.607229 
L 140.682039 141.607229 
L 140.874661 141.08443 
L 141.259903 140.117841 
L 142.993496 140.117841 
L 143.378739 139.290294 
L 143.57136 138.905393 
L 143.763981 138.882164 
L 144.052913 138.09175 
L 144.823399 138.09175 
L 145.112331 137.778005 
L 145.401263 137.6123 
L 146.845923 134.77502 
L 146.942234 134.77502 
L 147.520098 134.107944 
L 147.71272 134.107944 
L 148.001652 133.533291 
L 148.194273 133.081158 
L 148.290584 133.081158 
L 148.483205 132.76496 
L 148.579516 132.76496 
L 148.964759 132.016258 
L 149.542623 132.016258 
L 149.735244 131.575576 
L 150.216797 130.379322 
L 152.143011 130.270051 
L 152.335633 130.161762 
L 154.069225 130.161762 
L 154.550778 129.226253 
L 155.706507 125.233451 
L 157.247478 125.233451 
L 158.306895 120.141233 
L 158.499517 119.867729 
L 159.558934 119.867729 
L 159.847866 118.681289 
L 160.233109 116.967471 
L 161.003595 116.967471 
L 161.196216 116.366972 
L 163.507673 116.366972 
L 163.700294 115.627758 
L 163.989226 114.658061 
L 164.759711 114.658061 
L 165.048644 113.502048 
L 165.626508 113.502048 
L 165.91544 112.794241 
L 166.01175 112.794241 
L 166.300683 112.075311 
L 168.419518 111.965385 
L 168.70845 111.900117 
L 168.997382 111.839266 
L 169.864178 109.39932 
L 171.50146 109.39932 
L 171.790392 108.799966 
L 174.005538 108.799966 
L 174.198159 108.670084 
L 174.487091 108.518283 
L 174.872334 107.761075 
L 174.968644 107.761075 
L 175.161266 107.425738 
L 177.857965 107.425738 
L 178.050587 107.304199 
L 179.88049 107.304199 
L 180.073111 106.818696 
L 180.169422 106.818696 
L 180.362043 106.480742 
L 180.554664 106.243715 
L 180.843597 106.201676 
L 182.76981 106.110889 
L 182.962432 105.973483 
L 183.058742 105.973483 
L 183.251364 105.668571 
L 183.925539 105.650905 
L 196.73486 105.57435 
L 197.216414 105.257006 
L 197.409035 104.91987 
L 197.505346 104.91987 
L 197.697967 104.658143 
L 214.359716 104.658143 
L 214.744959 103.690573 
L 215.130202 102.700101 
L 218.886319 102.596228 
L 219.07894 102.343172 
L 219.367872 102.055599 
L 219.656804 101.370203 
L 220.619911 101.370203 
L 220.812532 100.888463 
L 221.005154 100.516974 
L 231.310397 100.516974 
L 231.503019 100.129783 
L 245.275447 100.129783 
L 245.564379 99.739156 
L 245.757001 99.648206 
L 246.045933 99.648206 
L 246.334865 99.410362 
L 254.906516 99.324155 
L 255.195448 98.824585 
L 263.285546 98.824585 
L 263.7671 97.131378 
L 263.959721 96.677936 
L 264.056032 96.677936 
L 264.248653 96.524826 
L 264.922828 96.524826 
L 265.308071 95.641335 
L 268.871566 95.641335 
L 269.064187 95.384025 
L 269.44943 95.287677 
L 269.642052 95.121481 
L 270.412537 95.121481 
L 270.605158 94.912591 
L 270.79778 94.912591 
L 270.990401 94.791706 
L 271.183023 94.791706 
L 271.568265 93.594961 
L 273.398168 93.594961 
L 273.879722 93.179306 
L 274.072343 93.179306 
L 274.457586 92.500126 
L 274.553897 92.500126 
L 274.842829 91.812276 
L 276.576421 91.812276 
L 276.865353 91.256434 
L 277.057975 91.256434 
L 277.635839 90.218688 
L 282.932927 90.114815 
L 283.41448 89.926699 
L 287.074286 89.854888 
L 287.459529 89.320148 
L 288.037393 89.31017 
L 288.518947 88.561304 
L 289.0005 88.561304 
L 289.193121 88.228257 
L 293.816034 88.228257 
L 294.008656 88.04832 
L 301.135647 87.962441 
L 301.520889 87.930871 
L 301.809822 87.924818 
L 301.809822 87.924818 
" style="fill:none;stroke:#feffb3;stroke-dasharray:3.7,1.6;stroke-dashoffset:0;"/>
   </g>
   <g id="line2d_44">
    <path clip-path="url(#pfaa9deede3)" d="M 39.748438 23.557911 
L 321.16827 23.557911 
" style="fill:none;stroke:#ffffff;stroke-dasharray:5.55,2.4;stroke-dashoffset:0;stroke-width:1.5;"/>
   </g>
   <g id="patch_85">
    <path d="M 39.748438 187.13702 
L 39.748438 7.2 
" style="fill:none;stroke:#ffffff;stroke-linecap:square;stroke-linejoin:miter;stroke-width:0.8;"/>
   </g>
   <g id="patch_86">
    <path d="M 321.16827 187.13702 
L 321.16827 7.2 
" style="fill:none;stroke:#ffffff;stroke-linecap:square;stroke-linejoin:miter;stroke-width:0.8;"/>
   </g>
   <g id="patch_87">
    <path d="M 39.748437 187.13702 
L 321.16827 187.13702 
" style="fill:none;stroke:#ffffff;stroke-linecap:square;stroke-linejoin:miter;stroke-width:0.8;"/>
   </g>
   <g id="patch_88">
    <path d="M 39.748437 7.2 
L 321.16827 7.2 
" style="fill:none;stroke:#ffffff;stroke-linecap:square;stroke-linejoin:miter;stroke-width:0.8;"/>
   </g>
   <g id="legend_1">
    <g id="patch_89">
     <path d="M 179.365145 182.13702 
L 314.16827 182.13702 
Q 316.16827 182.13702 316.16827 180.13702 
L 316.16827 122.708895 
Q 316.16827 120.708895 314.16827 120.708895 
L 179.365145 120.708895 
Q 177.365145 120.708895 177.365145 122.708895 
L 177.365145 180.13702 
Q 177.365145 182.13702 179.365145 182.13702 
z
" style="opacity:0.8;stroke:#cccccc;stroke-linejoin:miter;"/>
    </g>
    <g id="line2d_45">
     <path d="M 181.365145 128.708895 
L 201.365145 128.708895 
" style="fill:none;stroke:#8dd3c7;stroke-linecap:square;stroke-width:2;"/>
    </g>
    <g id="line2d_46"/>
    <g id="text_18">
     <!-- All spectra -->
     <g style="fill:#ffffff;" transform="translate(209.365145 132.208895)scale(0.1 -0.1)">
      <defs>
       <path d="M 47.515625 18.5625 
L 17.71875 18.5625 
L 11.03125 0 
L 1.375 0 
L 28.515625 71.09375 
L 36.71875 71.09375 
L 63.921875 0 
L 54.296875 0 
z
M 20.5625 26.265625 
L 44.734375 26.265625 
L 32.625 59.515625 
z
" id="Roboto-Regular-65"/>
       <path d="M 16.65625 0 
L 7.625 0 
L 7.625 75 
L 16.65625 75 
z
" id="Roboto-Regular-108"/>
      </defs>
      <use xlink:href="#Roboto-Regular-65"/>
      <use x="65.234375" xlink:href="#Roboto-Regular-108"/>
      <use x="89.501953" xlink:href="#Roboto-Regular-108"/>
      <use x="113.769531" xlink:href="#Roboto-Regular-32"/>
      <use x="138.525391" xlink:href="#Roboto-Regular-115"/>
      <use x="190.087891" xlink:href="#Roboto-Regular-112"/>
      <use x="246.191406" xlink:href="#Roboto-Regular-101"/>
      <use x="299.169922" xlink:href="#Roboto-Regular-99"/>
      <use x="351.513672" xlink:href="#Roboto-Regular-116"/>
      <use x="384.179688" xlink:href="#Roboto-Regular-114"/>
      <use x="418.017578" xlink:href="#Roboto-Regular-97"/>
     </g>
    </g>
    <g id="line2d_47">
     <path d="M 181.365145 143.34327 
L 201.365145 143.34327 
" style="fill:none;stroke:#8dd3c7;stroke-dasharray:3.7,1.6;stroke-dashoffset:0;"/>
    </g>
    <g id="line2d_48"/>
    <g id="text_19">
     <!-- Unflagged spectra -->
     <g style="fill:#ffffff;" transform="translate(209.365145 146.84327)scale(0.1 -0.1)">
      <defs>
       <path d="M 58.296875 71.09375 
L 58.296875 22.75 
Q 58.25 12.703125 51.96875 6.296875 
Q 45.703125 -0.09375 34.96875 -0.875 
L 32.46875 -0.984375 
Q 20.796875 -0.984375 13.859375 5.3125 
Q 6.9375 11.625 6.84375 22.65625 
L 6.84375 71.09375 
L 16.109375 71.09375 
L 16.109375 22.953125 
Q 16.109375 15.234375 20.359375 10.953125 
Q 24.609375 6.6875 32.46875 6.6875 
Q 40.4375 6.6875 44.65625 10.9375 
Q 48.875 15.1875 48.875 22.90625 
L 48.875 71.09375 
z
" id="Roboto-Regular-85"/>
       <path d="M 15.375 52.828125 
L 15.671875 46.1875 
Q 21.734375 53.8125 31.5 53.8125 
Q 48.25 53.8125 48.390625 34.90625 
L 48.390625 0 
L 39.359375 0 
L 39.359375 34.96875 
Q 39.3125 40.671875 36.75 43.40625 
Q 34.1875 46.140625 28.765625 46.140625 
Q 24.359375 46.140625 21.03125 43.796875 
Q 17.71875 41.453125 15.875 37.640625 
L 15.875 0 
L 6.84375 0 
L 6.84375 52.828125 
z
" id="Roboto-Regular-110"/>
       <path d="M 4.6875 26.859375 
Q 4.6875 39.203125 10.390625 46.5 
Q 16.109375 53.8125 25.53125 53.8125 
Q 35.203125 53.8125 40.625 46.96875 
L 41.0625 52.828125 
L 49.3125 52.828125 
L 49.3125 1.265625 
Q 49.3125 -8.984375 43.234375 -14.890625 
Q 37.15625 -20.796875 26.90625 -20.796875 
Q 21.1875 -20.796875 15.71875 -18.359375 
Q 10.25 -15.921875 7.375 -11.671875 
L 12.0625 -6.25 
Q 17.875 -13.421875 26.265625 -13.421875 
Q 32.859375 -13.421875 36.546875 -9.703125 
Q 40.234375 -6 40.234375 0.734375 
L 40.234375 5.28125 
Q 34.8125 -0.984375 25.4375 -0.984375 
Q 16.15625 -0.984375 10.421875 6.484375 
Q 4.6875 13.96875 4.6875 26.859375 
z
M 13.765625 25.828125 
Q 13.765625 16.890625 17.421875 11.78125 
Q 21.09375 6.6875 27.6875 6.6875 
Q 36.234375 6.6875 40.234375 14.453125 
L 40.234375 38.578125 
Q 36.078125 46.140625 27.78125 46.140625 
Q 21.1875 46.140625 17.46875 41.015625 
Q 13.765625 35.890625 13.765625 25.828125 
z
" id="Roboto-Regular-103"/>
       <path d="M 4.640625 26.859375 
Q 4.640625 39.015625 10.390625 46.40625 
Q 16.15625 53.8125 25.484375 53.8125 
Q 34.765625 53.8125 40.1875 47.46875 
L 40.1875 75 
L 49.21875 75 
L 49.21875 0 
L 40.921875 0 
L 40.484375 5.671875 
Q 35.0625 -0.984375 25.390625 -0.984375 
Q 16.21875 -0.984375 10.421875 6.53125 
Q 4.640625 14.0625 4.640625 26.171875 
z
M 13.671875 25.828125 
Q 13.671875 16.84375 17.375 11.765625 
Q 21.09375 6.6875 27.640625 6.6875 
Q 36.234375 6.6875 40.1875 14.40625 
L 40.1875 38.671875 
Q 36.140625 46.140625 27.734375 46.140625 
Q 21.09375 46.140625 17.375 41.015625 
Q 13.671875 35.890625 13.671875 25.828125 
z
" id="Roboto-Regular-100"/>
      </defs>
      <use xlink:href="#Roboto-Regular-85"/>
      <use x="64.84375" xlink:href="#Roboto-Regular-110"/>
      <use x="120.019531" xlink:href="#Roboto-Regular-102"/>
      <use x="154.736328" xlink:href="#Roboto-Regular-108"/>
      <use x="179.003906" xlink:href="#Roboto-Regular-97"/>
      <use x="233.398438" xlink:href="#Roboto-Regular-103"/>
      <use x="289.501953" xlink:href="#Roboto-Regular-103"/>
      <use x="345.605469" xlink:href="#Roboto-Regular-101"/>
      <use x="398.583984" xlink:href="#Roboto-Regular-100"/>
      <use x="454.980469" xlink:href="#Roboto-Regular-32"/>
      <use x="479.736328" xlink:href="#Roboto-Regular-115"/>
      <use x="531.298828" xlink:href="#Roboto-Regular-112"/>
      <use x="587.402344" xlink:href="#Roboto-Regular-101"/>
      <use x="640.380859" xlink:href="#Roboto-Regular-99"/>
      <use x="692.724609" xlink:href="#Roboto-Regular-116"/>
      <use x="725.390625" xlink:href="#Roboto-Regular-114"/>
      <use x="759.228516" xlink:href="#Roboto-Regular-97"/>
     </g>
    </g>
    <g id="line2d_49">
     <path d="M 181.365145 157.922958 
L 201.365145 157.922958 
" style="fill:none;stroke:#feffb3;stroke-linecap:square;stroke-width:2;"/>
    </g>
    <g id="line2d_50"/>
    <g id="text_20">
     <!-- All unique stars -->
     <g style="fill:#ffffff;" transform="translate(209.365145 161.422958)scale(0.1 -0.1)">
      <defs>
       <path d="M 16.65625 0 
L 7.625 0 
L 7.625 52.828125 
L 16.65625 52.828125 
z
M 6.890625 66.84375 
Q 6.890625 69.046875 8.234375 70.5625 
Q 9.578125 72.078125 12.203125 72.078125 
Q 14.84375 72.078125 16.203125 70.5625 
Q 17.578125 69.046875 17.578125 66.84375 
Q 17.578125 64.65625 16.203125 63.1875 
Q 14.84375 61.71875 12.203125 61.71875 
Q 9.578125 61.71875 8.234375 63.1875 
Q 6.890625 64.65625 6.890625 66.84375 
z
" id="Roboto-Regular-105"/>
       <path d="M 4.640625 26.859375 
Q 4.640625 39.3125 10.34375 46.5625 
Q 16.0625 53.8125 25.6875 53.8125 
Q 35.0625 53.8125 40.484375 47.515625 
L 40.875 52.828125 
L 49.171875 52.828125 
L 49.171875 -20.3125 
L 40.140625 -20.3125 
L 40.140625 4.890625 
Q 34.671875 -0.984375 25.59375 -0.984375 
Q 16.015625 -0.984375 10.328125 6.46875 
Q 4.640625 13.921875 4.640625 26.21875 
z
M 13.671875 25.828125 
Q 13.671875 16.75 17.5 11.5625 
Q 21.34375 6.390625 27.828125 6.390625 
Q 35.890625 6.390625 40.140625 13.53125 
L 40.140625 39.40625 
Q 35.84375 46.390625 27.9375 46.390625 
Q 21.390625 46.390625 17.53125 41.1875 
Q 13.671875 35.984375 13.671875 25.828125 
z
" id="Roboto-Regular-113"/>
      </defs>
      <use xlink:href="#Roboto-Regular-65"/>
      <use x="65.234375" xlink:href="#Roboto-Regular-108"/>
      <use x="89.501953" xlink:href="#Roboto-Regular-108"/>
      <use x="113.769531" xlink:href="#Roboto-Regular-32"/>
      <use x="138.525391" xlink:href="#Roboto-Regular-117"/>
      <use x="193.652344" xlink:href="#Roboto-Regular-110"/>
      <use x="248.828125" xlink:href="#Roboto-Regular-105"/>
      <use x="273.095703" xlink:href="#Roboto-Regular-113"/>
      <use x="329.931641" xlink:href="#Roboto-Regular-117"/>
      <use x="385.058594" xlink:href="#Roboto-Regular-101"/>
      <use x="438.037109" xlink:href="#Roboto-Regular-32"/>
      <use x="462.792969" xlink:href="#Roboto-Regular-115"/>
      <use x="514.355469" xlink:href="#Roboto-Regular-116"/>
      <use x="547.021484" xlink:href="#Roboto-Regular-97"/>
      <use x="601.416016" xlink:href="#Roboto-Regular-114"/>
      <use x="635.253906" xlink:href="#Roboto-Regular-115"/>
     </g>
    </g>
    <g id="line2d_51">
     <path d="M 181.365145 172.557333 
L 201.365145 172.557333 
" style="fill:none;stroke:#feffb3;stroke-dasharray:3.7,1.6;stroke-dashoffset:0;"/>
    </g>
    <g id="line2d_52"/>
    <g id="text_21">
     <!-- Unflagged unique stars -->
     <g style="fill:#ffffff;" transform="translate(209.365145 176.057333)scale(0.1 -0.1)">
      <use xlink:href="#Roboto-Regular-85"/>
      <use x="64.84375" xlink:href="#Roboto-Regular-110"/>
      <use x="120.019531" xlink:href="#Roboto-Regular-102"/>
      <use x="154.736328" xlink:href="#Roboto-Regular-108"/>
      <use x="179.003906" xlink:href="#Roboto-Regular-97"/>
      <use x="233.398438" xlink:href="#Roboto-Regular-103"/>
      <use x="289.501953" xlink:href="#Roboto-Regular-103"/>
      <use x="345.605469" xlink:href="#Roboto-Regular-101"/>
      <use x="398.583984" xlink:href="#Roboto-Regular-100"/>
      <use x="454.980469" xlink:href="#Roboto-Regular-32"/>
      <use x="479.736328" xlink:href="#Roboto-Regular-117"/>
      <use x="534.863281" xlink:href="#Roboto-Regular-110"/>
      <use x="590.039062" xlink:href="#Roboto-Regular-105"/>
      <use x="614.306641" xlink:href="#Roboto-Regular-113"/>
      <use x="671.142578" xlink:href="#Roboto-Regular-117"/>
      <use x="726.269531" xlink:href="#Roboto-Regular-101"/>
      <use x="779.248047" xlink:href="#Roboto-Regular-32"/>
      <use x="804.003906" xlink:href="#Roboto-Regular-115"/>
      <use x="855.566406" xlink:href="#Roboto-Regular-116"/>
      <use x="888.232422" xlink:href="#Roboto-Regular-97"/>
      <use x="942.626953" xlink:href="#Roboto-Regular-114"/>
      <use x="976.464844" xlink:href="#Roboto-Regular-115"/>
     </g>
    </g>
   </g>
  </g>
 </g>
 <defs>
  <clipPath id="pfaa9deede3">
   <rect height="179.93702" width="281.419833" x="39.748438" y="7.2"/>
  </clipPath>
 </defs>
</svg>
