<?xml version="1.0" encoding="utf-8" standalone="no"?>
<!DOCTYPE svg PUBLIC "-//W3C//DTD SVG 1.1//EN"
  "http://www.w3.org/Graphics/SVG/1.1/DTD/svg11.dtd">
<svg height="224.39952pt" version="1.1" viewBox="0 0 339.59952 224.39952" width="339.59952pt" xmlns="http://www.w3.org/2000/svg" xmlns:xlink="http://www.w3.org/1999/xlink">
 <metadata>
  <rdf:RDF xmlns:cc="http://creativecommons.org/ns#" xmlns:dc="http://purl.org/dc/elements/1.1/" xmlns:rdf="http://www.w3.org/1999/02/22-rdf-syntax-ns#">
   <cc:Work>
    <dc:type rdf:resource="http://purl.org/dc/dcmitype/StillImage"/>
    <dc:date>2021-08-02T13:38:21.806091</dc:date>
    <dc:format>image/svg+xml</dc:format>
    <dc:creator>
     <cc:Agent>
      <dc:title>Matplotlib v3.4.2, https://matplotlib.org/</dc:title>
     </cc:Agent>
    </dc:creator>
   </cc:Work>
  </rdf:RDF>
 </metadata>
 <defs>
  <style type="text/css">*{stroke-linecap:butt;stroke-linejoin:round;}</style>
 </defs>
 <g id="figure_1">
  <g id="patch_1">
   <path d="M 0 224.39952 
L 339.59952 224.39952 
L 339.59952 0 
L 0 0 
z
"/>
  </g>
  <g id="axes_1">
   <g id="patch_2">
    <path d="M 44.729688 186.985458 
L 332.39952 186.985458 
L 332.39952 7.2 
L 44.729688 7.2 
z
"/>
   </g>
   <g id="patch_3">
    <path clip-path="url(#p2a7211de37)" d="M 44.729688 186.985458 
L 44.729688 15.761212 
L 55.793912 15.761212 
L 55.793912 176.222791 
L 66.858136 176.222791 
L 66.858136 173.287518 
L 77.92236 173.287518 
L 77.92236 175.244366 
L 88.986585 175.244366 
L 88.986585 177.201215 
L 100.050809 177.201215 
L 100.050809 177.201215 
L 111.115033 177.201215 
L 111.115033 181.114912 
L 122.179258 181.114912 
L 122.179258 172.309094 
L 133.243482 172.309094 
L 133.243482 175.244366 
L 144.307706 175.244366 
L 144.307706 172.309094 
L 155.371931 172.309094 
L 155.371931 176.222791 
L 166.436155 176.222791 
L 166.436155 167.416972 
L 177.500379 167.416972 
L 177.500379 173.287518 
L 188.564604 173.287518 
L 188.564604 170.352245 
L 199.628828 170.352245 
L 199.628828 166.438548 
L 210.693052 166.438548 
L 210.693052 165.460124 
L 221.757277 165.460124 
L 221.757277 168.395397 
L 232.821501 168.395397 
L 232.821501 160.568003 
L 243.885725 160.568003 
L 243.885725 153.719033 
L 254.94995 153.719033 
L 254.94995 148.826911 
L 266.014174 148.826911 
L 266.014174 138.064245 
L 277.078398 138.064245 
L 277.078398 141.977942 
L 288.142623 141.977942 
L 288.142623 159.589578 
L 299.206847 159.589578 
L 299.206847 175.244366 
L 310.271071 175.244366 
L 310.271071 182.093336 
L 321.335296 182.093336 
L 321.335296 186.985458 
L 332.39952 186.985458 
L 332.39952 186.985458 
L 343.463744 186.985458 
L 343.463744 186.985458 
L 354.527969 186.985458 
L 354.527969 186.985458 
L 365.592193 186.985458 
L 365.592193 186.985458 
L 354.527969 186.985458 
L 354.527969 186.985458 
L 343.463744 186.985458 
L 343.463744 186.985458 
L 332.39952 186.985458 
L 332.39952 186.985458 
L 321.335296 186.985458 
L 321.335296 186.985458 
L 310.271071 186.985458 
L 310.271071 186.985458 
L 299.206847 186.985458 
L 299.206847 186.985458 
L 288.142623 186.985458 
L 288.142623 186.985458 
L 277.078398 186.985458 
L 277.078398 186.985458 
L 266.014174 186.985458 
L 266.014174 186.985458 
L 254.94995 186.985458 
L 254.94995 186.985458 
L 243.885725 186.985458 
L 243.885725 186.985458 
L 232.821501 186.985458 
L 232.821501 186.985458 
L 221.757277 186.985458 
L 221.757277 186.985458 
L 210.693052 186.985458 
L 210.693052 186.985458 
L 199.628828 186.985458 
L 199.628828 186.985458 
L 188.564604 186.985458 
L 188.564604 186.985458 
L 177.500379 186.985458 
L 177.500379 186.985458 
L 166.436155 186.985458 
L 166.436155 186.985458 
L 155.371931 186.985458 
L 155.371931 186.985458 
L 144.307706 186.985458 
L 144.307706 186.985458 
L 133.243482 186.985458 
L 133.243482 186.985458 
L 122.179258 186.985458 
L 122.179258 186.985458 
L 111.115033 186.985458 
L 111.115033 186.985458 
L 100.050809 186.985458 
L 100.050809 186.985458 
L 88.986585 186.985458 
L 88.986585 186.985458 
L 77.92236 186.985458 
L 77.92236 186.985458 
L 66.858136 186.985458 
L 66.858136 186.985458 
L 55.793912 186.985458 
L 55.793912 186.985458 
z
" style="fill:#8dd3c7;"/>
   </g>
   <g id="matplotlib.axis_1">
    <g id="xtick_1">
     <g id="line2d_1">
      <defs>
       <path d="M 0 0 
L 0 3.5 
" id="mfff8fdd022" style="stroke:#ffffff;stroke-width:0.8;"/>
      </defs>
      <g>
       <use style="fill:#ffffff;stroke:#ffffff;stroke-width:0.8;" x="44.729688" xlink:href="#mfff8fdd022" y="186.985458"/>
      </g>
     </g>
     <g id="text_1">
      <!-- 0.0 -->
      <g style="fill:#ffffff;" transform="translate(37.798438 201.485458)scale(0.1 -0.1)">
       <defs>
        <path d="M 3231 1941 
Q 3231 925 2884 431 
Q 2538 -63 1800 -63 
Q 1072 -63 722 420 
Q 372 903 359 1863 
L 359 2634 
Q 359 3638 706 4125 
Q 1053 4613 1794 4613 
Q 2528 4613 2875 4142 
Q 3222 3672 3231 2691 
L 3231 1941 
z
M 2653 2731 
Q 2653 3466 2447 3802 
Q 2241 4138 1794 4138 
Q 1350 4138 1147 3803 
Q 944 3469 938 2775 
L 938 1850 
Q 938 1113 1152 761 
Q 1366 409 1800 409 
Q 2228 409 2436 740 
Q 2644 1072 2653 1784 
L 2653 2731 
z
" id="Roboto-Regular-30" transform="scale(0.015625)"/>
        <path d="M 450 303 
Q 450 453 539 553 
Q 628 653 806 653 
Q 984 653 1076 553 
Q 1169 453 1169 303 
Q 1169 159 1076 62 
Q 984 -34 806 -34 
Q 628 -34 539 62 
Q 450 159 450 303 
z
" id="Roboto-Regular-2e" transform="scale(0.015625)"/>
       </defs>
       <use xlink:href="#Roboto-Regular-30"/>
       <use x="56.152344" xlink:href="#Roboto-Regular-2e"/>
       <use x="82.470703" xlink:href="#Roboto-Regular-30"/>
      </g>
     </g>
    </g>
    <g id="xtick_2">
     <g id="line2d_2">
      <g>
       <use style="fill:#ffffff;stroke:#ffffff;stroke-width:0.8;" x="88.986585" xlink:href="#mfff8fdd022" y="186.985458"/>
      </g>
     </g>
     <g id="text_2">
      <!-- 0.2 -->
      <g style="fill:#ffffff;" transform="translate(82.055335 201.485458)scale(0.1 -0.1)">
       <defs>
        <path d="M 3359 0 
L 378 0 
L 378 416 
L 1953 2166 
Q 2303 2563 2436 2811 
Q 2569 3059 2569 3325 
Q 2569 3681 2353 3909 
Q 2138 4138 1778 4138 
Q 1347 4138 1108 3892 
Q 869 3647 869 3209 
L 291 3209 
Q 291 3838 695 4225 
Q 1100 4613 1778 4613 
Q 2413 4613 2781 4280 
Q 3150 3947 3150 3394 
Q 3150 2722 2294 1794 
L 1075 472 
L 3359 472 
L 3359 0 
z
" id="Roboto-Regular-32" transform="scale(0.015625)"/>
       </defs>
       <use xlink:href="#Roboto-Regular-30"/>
       <use x="56.152344" xlink:href="#Roboto-Regular-2e"/>
       <use x="82.470703" xlink:href="#Roboto-Regular-32"/>
      </g>
     </g>
    </g>
    <g id="xtick_3">
     <g id="line2d_3">
      <g>
       <use style="fill:#ffffff;stroke:#ffffff;stroke-width:0.8;" x="133.243482" xlink:href="#mfff8fdd022" y="186.985458"/>
      </g>
     </g>
     <g id="text_3">
      <!-- 0.4 -->
      <g style="fill:#ffffff;" transform="translate(126.312232 201.485458)scale(0.1 -0.1)">
       <defs>
        <path d="M 2819 1528 
L 3450 1528 
L 3450 1056 
L 2819 1056 
L 2819 0 
L 2238 0 
L 2238 1056 
L 166 1056 
L 166 1397 
L 2203 4550 
L 2819 4550 
L 2819 1528 
z
M 822 1528 
L 2238 1528 
L 2238 3759 
L 2169 3634 
L 822 1528 
z
" id="Roboto-Regular-34" transform="scale(0.015625)"/>
       </defs>
       <use xlink:href="#Roboto-Regular-30"/>
       <use x="56.152344" xlink:href="#Roboto-Regular-2e"/>
       <use x="82.470703" xlink:href="#Roboto-Regular-34"/>
      </g>
     </g>
    </g>
    <g id="xtick_4">
     <g id="line2d_4">
      <g>
       <use style="fill:#ffffff;stroke:#ffffff;stroke-width:0.8;" x="177.500379" xlink:href="#mfff8fdd022" y="186.985458"/>
      </g>
     </g>
     <g id="text_4">
      <!-- 0.6 -->
      <g style="fill:#ffffff;" transform="translate(170.569129 201.485458)scale(0.1 -0.1)">
       <defs>
        <path d="M 2647 4553 
L 2647 4063 
L 2541 4063 
Q 1866 4050 1466 3662 
Q 1066 3275 1003 2572 
Q 1363 2984 1984 2984 
Q 2578 2984 2933 2565 
Q 3288 2147 3288 1484 
Q 3288 781 2905 359 
Q 2522 -63 1878 -63 
Q 1225 -63 819 439 
Q 413 941 413 1731 
L 413 1953 
Q 413 3209 948 3873 
Q 1484 4538 2544 4553 
L 2647 4553 
z
M 1888 2503 
Q 1591 2503 1341 2325 
Q 1091 2147 994 1878 
L 994 1666 
Q 994 1103 1247 759 
Q 1500 416 1878 416 
Q 2269 416 2492 703 
Q 2716 991 2716 1456 
Q 2716 1925 2489 2214 
Q 2263 2503 1888 2503 
z
" id="Roboto-Regular-36" transform="scale(0.015625)"/>
       </defs>
       <use xlink:href="#Roboto-Regular-30"/>
       <use x="56.152344" xlink:href="#Roboto-Regular-2e"/>
       <use x="82.470703" xlink:href="#Roboto-Regular-36"/>
      </g>
     </g>
    </g>
    <g id="xtick_5">
     <g id="line2d_5">
      <g>
       <use style="fill:#ffffff;stroke:#ffffff;stroke-width:0.8;" x="221.757277" xlink:href="#mfff8fdd022" y="186.985458"/>
      </g>
     </g>
     <g id="text_5">
      <!-- 0.8 -->
      <g style="fill:#ffffff;" transform="translate(214.826027 201.485458)scale(0.1 -0.1)">
       <defs>
        <path d="M 3138 3363 
Q 3138 3022 2958 2756 
Q 2778 2491 2472 2341 
Q 2828 2188 3036 1894 
Q 3244 1600 3244 1228 
Q 3244 638 2845 287 
Q 2447 -63 1797 -63 
Q 1141 -63 745 289 
Q 350 641 350 1228 
Q 350 1597 551 1894 
Q 753 2191 1109 2344 
Q 806 2494 631 2759 
Q 456 3025 456 3363 
Q 456 3938 825 4275 
Q 1194 4613 1797 4613 
Q 2397 4613 2767 4275 
Q 3138 3938 3138 3363 
z
M 2666 1241 
Q 2666 1622 2423 1862 
Q 2181 2103 1790 2103 
Q 1400 2103 1164 1865 
Q 928 1628 928 1240 
Q 928 853 1158 631 
Q 1388 409 1797 409 
Q 2203 409 2434 632 
Q 2666 856 2666 1241 
z
M 1797 4138 
Q 1456 4138 1245 3927 
Q 1034 3716 1034 3353 
Q 1034 3006 1242 2792 
Q 1450 2578 1797 2578 
Q 2144 2578 2351 2792 
Q 2559 3006 2559 3353 
Q 2559 3700 2343 3919 
Q 2128 4138 1797 4138 
z
" id="Roboto-Regular-38" transform="scale(0.015625)"/>
       </defs>
       <use xlink:href="#Roboto-Regular-30"/>
       <use x="56.152344" xlink:href="#Roboto-Regular-2e"/>
       <use x="82.470703" xlink:href="#Roboto-Regular-38"/>
      </g>
     </g>
    </g>
    <g id="xtick_6">
     <g id="line2d_6">
      <g>
       <use style="fill:#ffffff;stroke:#ffffff;stroke-width:0.8;" x="266.014174" xlink:href="#mfff8fdd022" y="186.985458"/>
      </g>
     </g>
     <g id="text_6">
      <!-- 1.0 -->
      <g style="fill:#ffffff;" transform="translate(259.082924 201.485458)scale(0.1 -0.1)">
       <defs>
        <path d="M 2278 0 
L 1697 0 
L 1697 3853 
L 531 3425 
L 531 3950 
L 2188 4572 
L 2278 4572 
L 2278 0 
z
" id="Roboto-Regular-31" transform="scale(0.015625)"/>
       </defs>
       <use xlink:href="#Roboto-Regular-31"/>
       <use x="56.152344" xlink:href="#Roboto-Regular-2e"/>
       <use x="82.470703" xlink:href="#Roboto-Regular-30"/>
      </g>
     </g>
    </g>
    <g id="xtick_7">
     <g id="line2d_7">
      <g>
       <use style="fill:#ffffff;stroke:#ffffff;stroke-width:0.8;" x="310.271071" xlink:href="#mfff8fdd022" y="186.985458"/>
      </g>
     </g>
     <g id="text_7">
      <!-- 1.2 -->
      <g style="fill:#ffffff;" transform="translate(303.339821 201.485458)scale(0.1 -0.1)">
       <use xlink:href="#Roboto-Regular-31"/>
       <use x="56.152344" xlink:href="#Roboto-Regular-2e"/>
       <use x="82.470703" xlink:href="#Roboto-Regular-32"/>
      </g>
     </g>
    </g>
    <g id="text_8">
     <!-- Useful fraction of night -->
     <g style="fill:#ffffff;" transform="translate(137.702885 215.119833)scale(0.1 -0.1)">
      <defs>
       <path d="M 3731 4550 
L 3731 1456 
Q 3728 813 3326 403 
Q 2925 -6 2238 -56 
L 2078 -63 
Q 1331 -63 887 340 
Q 444 744 438 1450 
L 438 4550 
L 1031 4550 
L 1031 1469 
Q 1031 975 1303 701 
Q 1575 428 2078 428 
Q 2588 428 2858 700 
Q 3128 972 3128 1466 
L 3128 4550 
L 3731 4550 
z
" id="Roboto-Regular-55" transform="scale(0.015625)"/>
       <path d="M 2406 897 
Q 2406 1131 2229 1261 
Q 2053 1391 1614 1484 
Q 1175 1578 917 1709 
Q 659 1841 536 2022 
Q 413 2203 413 2453 
Q 413 2869 764 3156 
Q 1116 3444 1663 3444 
Q 2238 3444 2595 3147 
Q 2953 2850 2953 2388 
L 2372 2388 
Q 2372 2625 2170 2797 
Q 1969 2969 1663 2969 
Q 1347 2969 1169 2831 
Q 991 2694 991 2472 
Q 991 2263 1156 2156 
Q 1322 2050 1755 1953 
Q 2188 1856 2456 1722 
Q 2725 1588 2854 1398 
Q 2984 1209 2984 938 
Q 2984 484 2621 210 
Q 2259 -63 1681 -63 
Q 1275 -63 962 81 
Q 650 225 473 483 
Q 297 741 297 1041 
L 875 1041 
Q 891 750 1108 579 
Q 1325 409 1681 409 
Q 2009 409 2207 542 
Q 2406 675 2406 897 
z
" id="Roboto-Regular-73" transform="scale(0.015625)"/>
       <path d="M 1841 -63 
Q 1153 -63 722 389 
Q 291 841 291 1597 
L 291 1703 
Q 291 2206 483 2601 
Q 675 2997 1020 3220 
Q 1366 3444 1769 3444 
Q 2428 3444 2793 3009 
Q 3159 2575 3159 1766 
L 3159 1525 
L 869 1525 
Q 881 1025 1161 717 
Q 1441 409 1872 409 
Q 2178 409 2390 534 
Q 2603 659 2763 866 
L 3116 591 
Q 2691 -63 1841 -63 
z
M 1769 2969 
Q 1419 2969 1181 2714 
Q 944 2459 888 2000 
L 2581 2000 
L 2581 2044 
Q 2556 2484 2343 2726 
Q 2131 2969 1769 2969 
z
" id="Roboto-Regular-65" transform="scale(0.015625)"/>
       <path d="M 722 0 
L 722 2934 
L 188 2934 
L 188 3381 
L 722 3381 
L 722 3728 
Q 722 4272 1012 4569 
Q 1303 4866 1834 4866 
Q 2034 4866 2231 4813 
L 2200 4344 
Q 2053 4372 1888 4372 
Q 1606 4372 1453 4208 
Q 1300 4044 1300 3738 
L 1300 3381 
L 2022 3381 
L 2022 2934 
L 1300 2934 
L 1300 0 
L 722 0 
z
" id="Roboto-Regular-66" transform="scale(0.015625)"/>
       <path d="M 2525 334 
Q 2188 -63 1534 -63 
Q 994 -63 711 251 
Q 428 566 425 1181 
L 425 3381 
L 1003 3381 
L 1003 1197 
Q 1003 428 1628 428 
Q 2291 428 2509 922 
L 2509 3381 
L 3088 3381 
L 3088 0 
L 2538 0 
L 2525 334 
z
" id="Roboto-Regular-75" transform="scale(0.015625)"/>
       <path d="M 1066 0 
L 488 0 
L 488 4800 
L 1066 4800 
L 1066 0 
z
" id="Roboto-Regular-6c" transform="scale(0.015625)"/>
       <path id="Roboto-Regular-20" transform="scale(0.015625)"/>
       <path d="M 2072 2863 
Q 1941 2884 1788 2884 
Q 1219 2884 1016 2400 
L 1016 0 
L 438 0 
L 438 3381 
L 1000 3381 
L 1009 2991 
Q 1294 3444 1816 3444 
Q 1984 3444 2072 3400 
L 2072 2863 
z
" id="Roboto-Regular-72" transform="scale(0.015625)"/>
       <path d="M 2525 0 
Q 2475 100 2444 356 
Q 2041 -63 1481 -63 
Q 981 -63 661 220 
Q 341 503 341 938 
Q 341 1466 742 1758 
Q 1144 2050 1872 2050 
L 2434 2050 
L 2434 2316 
Q 2434 2619 2253 2798 
Q 2072 2978 1719 2978 
Q 1409 2978 1200 2822 
Q 991 2666 991 2444 
L 409 2444 
Q 409 2697 589 2933 
Q 769 3169 1076 3306 
Q 1384 3444 1753 3444 
Q 2338 3444 2669 3151 
Q 3000 2859 3013 2347 
L 3013 791 
Q 3013 325 3131 50 
L 3131 0 
L 2525 0 
z
M 1566 441 
Q 1838 441 2081 581 
Q 2325 722 2434 947 
L 2434 1641 
L 1981 1641 
Q 919 1641 919 1019 
Q 919 747 1100 594 
Q 1281 441 1566 441 
z
" id="Roboto-Regular-61" transform="scale(0.015625)"/>
       <path d="M 1794 409 
Q 2103 409 2334 596 
Q 2566 784 2591 1066 
L 3138 1066 
Q 3122 775 2937 512 
Q 2753 250 2445 93 
Q 2138 -63 1794 -63 
Q 1103 -63 695 398 
Q 288 859 288 1659 
L 288 1756 
Q 288 2250 469 2634 
Q 650 3019 989 3231 
Q 1328 3444 1791 3444 
Q 2359 3444 2736 3103 
Q 3113 2763 3138 2219 
L 2591 2219 
Q 2566 2547 2342 2758 
Q 2119 2969 1791 2969 
Q 1350 2969 1108 2651 
Q 866 2334 866 1734 
L 866 1625 
Q 866 1041 1106 725 
Q 1347 409 1794 409 
z
" id="Roboto-Regular-63" transform="scale(0.015625)"/>
       <path d="M 1222 4200 
L 1222 3381 
L 1853 3381 
L 1853 2934 
L 1222 2934 
L 1222 838 
Q 1222 634 1306 532 
Q 1391 431 1594 431 
Q 1694 431 1869 469 
L 1869 0 
Q 1641 -63 1425 -63 
Q 1038 -63 841 171 
Q 644 406 644 838 
L 644 2934 
L 28 2934 
L 28 3381 
L 644 3381 
L 644 4200 
L 1222 4200 
z
" id="Roboto-Regular-74" transform="scale(0.015625)"/>
       <path d="M 1066 0 
L 488 0 
L 488 3381 
L 1066 3381 
L 1066 0 
z
M 441 4278 
Q 441 4419 527 4516 
Q 613 4613 781 4613 
Q 950 4613 1037 4516 
Q 1125 4419 1125 4278 
Q 1125 4138 1037 4044 
Q 950 3950 781 3950 
Q 613 3950 527 4044 
Q 441 4138 441 4278 
z
" id="Roboto-Regular-69" transform="scale(0.015625)"/>
       <path d="M 284 1722 
Q 284 2219 479 2616 
Q 675 3013 1023 3228 
Q 1372 3444 1819 3444 
Q 2509 3444 2936 2966 
Q 3363 2488 3363 1694 
L 3363 1653 
Q 3363 1159 3173 767 
Q 2984 375 2632 156 
Q 2281 -63 1825 -63 
Q 1138 -63 711 415 
Q 284 894 284 1681 
L 284 1722 
z
M 866 1653 
Q 866 1091 1127 750 
Q 1388 409 1825 409 
Q 2266 409 2525 754 
Q 2784 1100 2784 1722 
Q 2784 2278 2520 2623 
Q 2256 2969 1819 2969 
Q 1391 2969 1128 2628 
Q 866 2288 866 1653 
z
" id="Roboto-Regular-6f" transform="scale(0.015625)"/>
       <path d="M 984 3381 
L 1003 2956 
Q 1391 3444 2016 3444 
Q 3088 3444 3097 2234 
L 3097 0 
L 2519 0 
L 2519 2238 
Q 2516 2603 2352 2778 
Q 2188 2953 1841 2953 
Q 1559 2953 1346 2803 
Q 1134 2653 1016 2409 
L 1016 0 
L 438 0 
L 438 3381 
L 984 3381 
z
" id="Roboto-Regular-6e" transform="scale(0.015625)"/>
       <path d="M 300 1719 
Q 300 2509 665 2976 
Q 1031 3444 1634 3444 
Q 2253 3444 2600 3006 
L 2628 3381 
L 3156 3381 
L 3156 81 
Q 3156 -575 2767 -953 
Q 2378 -1331 1722 -1331 
Q 1356 -1331 1006 -1175 
Q 656 -1019 472 -747 
L 772 -400 
Q 1144 -859 1681 -859 
Q 2103 -859 2339 -621 
Q 2575 -384 2575 47 
L 2575 338 
Q 2228 -63 1628 -63 
Q 1034 -63 667 415 
Q 300 894 300 1719 
z
M 881 1653 
Q 881 1081 1115 754 
Q 1350 428 1772 428 
Q 2319 428 2575 925 
L 2575 2469 
Q 2309 2953 1778 2953 
Q 1356 2953 1118 2625 
Q 881 2297 881 1653 
z
" id="Roboto-Regular-67" transform="scale(0.015625)"/>
       <path d="M 1016 2972 
Q 1400 3444 2016 3444 
Q 3088 3444 3097 2234 
L 3097 0 
L 2519 0 
L 2519 2238 
Q 2516 2603 2352 2778 
Q 2188 2953 1841 2953 
Q 1559 2953 1346 2803 
Q 1134 2653 1016 2409 
L 1016 0 
L 438 0 
L 438 4800 
L 1016 4800 
L 1016 2972 
z
" id="Roboto-Regular-68" transform="scale(0.015625)"/>
      </defs>
      <use xlink:href="#Roboto-Regular-55"/>
      <use x="64.84375" xlink:href="#Roboto-Regular-73"/>
      <use x="116.40625" xlink:href="#Roboto-Regular-65"/>
      <use x="169.384766" xlink:href="#Roboto-Regular-66"/>
      <use x="204.101562" xlink:href="#Roboto-Regular-75"/>
      <use x="259.228516" xlink:href="#Roboto-Regular-6c"/>
      <use x="283.496094" xlink:href="#Roboto-Regular-20"/>
      <use x="308.251953" xlink:href="#Roboto-Regular-66"/>
      <use x="342.96875" xlink:href="#Roboto-Regular-72"/>
      <use x="376.806641" xlink:href="#Roboto-Regular-61"/>
      <use x="431.201172" xlink:href="#Roboto-Regular-63"/>
      <use x="483.544922" xlink:href="#Roboto-Regular-74"/>
      <use x="516.210938" xlink:href="#Roboto-Regular-69"/>
      <use x="540.478516" xlink:href="#Roboto-Regular-6f"/>
      <use x="597.509766" xlink:href="#Roboto-Regular-6e"/>
      <use x="652.685547" xlink:href="#Roboto-Regular-20"/>
      <use x="677.441406" xlink:href="#Roboto-Regular-6f"/>
      <use x="734.472656" xlink:href="#Roboto-Regular-66"/>
      <use x="769.189453" xlink:href="#Roboto-Regular-20"/>
      <use x="793.945312" xlink:href="#Roboto-Regular-6e"/>
      <use x="849.121094" xlink:href="#Roboto-Regular-69"/>
      <use x="873.388672" xlink:href="#Roboto-Regular-67"/>
      <use x="929.492188" xlink:href="#Roboto-Regular-68"/>
      <use x="984.570312" xlink:href="#Roboto-Regular-74"/>
     </g>
    </g>
   </g>
   <g id="matplotlib.axis_2">
    <g id="ytick_1">
     <g id="line2d_8">
      <defs>
       <path d="M 0 0 
L -3.5 0 
" id="m3ce5389a0e" style="stroke:#ffffff;stroke-width:0.8;"/>
      </defs>
      <g>
       <use style="fill:#ffffff;stroke:#ffffff;stroke-width:0.8;" x="44.729688" xlink:href="#m3ce5389a0e" y="186.985458"/>
      </g>
     </g>
     <g id="text_9">
      <!-- 0 -->
      <g style="fill:#ffffff;" transform="translate(32.114063 190.735458)scale(0.1 -0.1)">
       <use xlink:href="#Roboto-Regular-30"/>
      </g>
     </g>
    </g>
    <g id="ytick_2">
     <g id="line2d_9">
      <g>
       <use style="fill:#ffffff;stroke:#ffffff;stroke-width:0.8;" x="44.729688" xlink:href="#m3ce5389a0e" y="162.524851"/>
      </g>
     </g>
     <g id="text_10">
      <!-- 25 -->
      <g style="fill:#ffffff;" transform="translate(26.498438 166.274851)scale(0.1 -0.1)">
       <defs>
        <path d="M 644 2281 
L 875 4550 
L 3206 4550 
L 3206 4016 
L 1366 4016 
L 1228 2775 
Q 1563 2972 1988 2972 
Q 2609 2972 2975 2561 
Q 3341 2150 3341 1450 
Q 3341 747 2961 342 
Q 2581 -63 1900 -63 
Q 1297 -63 915 271 
Q 534 606 481 1197 
L 1028 1197 
Q 1081 806 1306 607 
Q 1531 409 1900 409 
Q 2303 409 2533 684 
Q 2763 959 2763 1444 
Q 2763 1900 2514 2176 
Q 2266 2453 1853 2453 
Q 1475 2453 1259 2288 
L 1106 2163 
L 644 2281 
z
" id="Roboto-Regular-35" transform="scale(0.015625)"/>
       </defs>
       <use xlink:href="#Roboto-Regular-32"/>
       <use x="56.152344" xlink:href="#Roboto-Regular-35"/>
      </g>
     </g>
    </g>
    <g id="ytick_3">
     <g id="line2d_10">
      <g>
       <use style="fill:#ffffff;stroke:#ffffff;stroke-width:0.8;" x="44.729688" xlink:href="#m3ce5389a0e" y="138.064245"/>
      </g>
     </g>
     <g id="text_11">
      <!-- 50 -->
      <g style="fill:#ffffff;" transform="translate(26.498438 141.814245)scale(0.1 -0.1)">
       <use xlink:href="#Roboto-Regular-35"/>
       <use x="56.152344" xlink:href="#Roboto-Regular-30"/>
      </g>
     </g>
    </g>
    <g id="ytick_4">
     <g id="line2d_11">
      <g>
       <use style="fill:#ffffff;stroke:#ffffff;stroke-width:0.8;" x="44.729688" xlink:href="#m3ce5389a0e" y="113.603638"/>
      </g>
     </g>
     <g id="text_12">
      <!-- 75 -->
      <g style="fill:#ffffff;" transform="translate(26.498438 117.353638)scale(0.1 -0.1)">
       <defs>
        <path d="M 3316 4225 
L 1431 0 
L 825 0 
L 2703 4075 
L 241 4075 
L 241 4550 
L 3316 4550 
L 3316 4225 
z
" id="Roboto-Regular-37" transform="scale(0.015625)"/>
       </defs>
       <use xlink:href="#Roboto-Regular-37"/>
       <use x="56.152344" xlink:href="#Roboto-Regular-35"/>
      </g>
     </g>
    </g>
    <g id="ytick_5">
     <g id="line2d_12">
      <g>
       <use style="fill:#ffffff;stroke:#ffffff;stroke-width:0.8;" x="44.729688" xlink:href="#m3ce5389a0e" y="89.143032"/>
      </g>
     </g>
     <g id="text_13">
      <!-- 100 -->
      <g style="fill:#ffffff;" transform="translate(20.882813 92.893032)scale(0.1 -0.1)">
       <use xlink:href="#Roboto-Regular-31"/>
       <use x="56.152344" xlink:href="#Roboto-Regular-30"/>
       <use x="112.304688" xlink:href="#Roboto-Regular-30"/>
      </g>
     </g>
    </g>
    <g id="ytick_6">
     <g id="line2d_13">
      <g>
       <use style="fill:#ffffff;stroke:#ffffff;stroke-width:0.8;" x="44.729688" xlink:href="#m3ce5389a0e" y="64.682425"/>
      </g>
     </g>
     <g id="text_14">
      <!-- 125 -->
      <g style="fill:#ffffff;" transform="translate(20.882813 68.432425)scale(0.1 -0.1)">
       <use xlink:href="#Roboto-Regular-31"/>
       <use x="56.152344" xlink:href="#Roboto-Regular-32"/>
       <use x="112.304688" xlink:href="#Roboto-Regular-35"/>
      </g>
     </g>
    </g>
    <g id="ytick_7">
     <g id="line2d_14">
      <g>
       <use style="fill:#ffffff;stroke:#ffffff;stroke-width:0.8;" x="44.729688" xlink:href="#m3ce5389a0e" y="40.221819"/>
      </g>
     </g>
     <g id="text_15">
      <!-- 150 -->
      <g style="fill:#ffffff;" transform="translate(20.882813 43.971819)scale(0.1 -0.1)">
       <use xlink:href="#Roboto-Regular-31"/>
       <use x="56.152344" xlink:href="#Roboto-Regular-35"/>
       <use x="112.304688" xlink:href="#Roboto-Regular-30"/>
      </g>
     </g>
    </g>
    <g id="ytick_8">
     <g id="line2d_15">
      <g>
       <use style="fill:#ffffff;stroke:#ffffff;stroke-width:0.8;" x="44.729688" xlink:href="#m3ce5389a0e" y="15.761212"/>
      </g>
     </g>
     <g id="text_16">
      <!-- 175 -->
      <g style="fill:#ffffff;" transform="translate(20.882813 19.511212)scale(0.1 -0.1)">
       <use xlink:href="#Roboto-Regular-31"/>
       <use x="56.152344" xlink:href="#Roboto-Regular-37"/>
       <use x="112.304688" xlink:href="#Roboto-Regular-35"/>
      </g>
     </g>
    </g>
    <g id="text_17">
     <!-- Number of nights -->
     <g style="fill:#ffffff;" transform="translate(14.803125 135.748198)rotate(-90)scale(0.1 -0.1)">
      <defs>
       <path d="M 4025 0 
L 3422 0 
L 1131 3506 
L 1131 0 
L 528 0 
L 528 4550 
L 1131 4550 
L 3428 1028 
L 3428 4550 
L 4025 4550 
L 4025 0 
z
" id="Roboto-Regular-4e" transform="scale(0.015625)"/>
       <path d="M 981 3381 
L 997 3006 
Q 1369 3444 2000 3444 
Q 2709 3444 2966 2900 
Q 3134 3144 3404 3294 
Q 3675 3444 4044 3444 
Q 5156 3444 5175 2266 
L 5175 0 
L 4597 0 
L 4597 2231 
Q 4597 2594 4431 2773 
Q 4266 2953 3875 2953 
Q 3553 2953 3340 2761 
Q 3128 2569 3094 2244 
L 3094 0 
L 2513 0 
L 2513 2216 
Q 2513 2953 1791 2953 
Q 1222 2953 1013 2469 
L 1013 0 
L 434 0 
L 434 3381 
L 981 3381 
z
" id="Roboto-Regular-6d" transform="scale(0.015625)"/>
       <path d="M 3300 1653 
Q 3300 878 2944 407 
Q 2588 -63 1988 -63 
Q 1347 -63 997 391 
L 969 0 
L 438 0 
L 438 4800 
L 1016 4800 
L 1016 3009 
Q 1366 3444 1981 3444 
Q 2597 3444 2948 2978 
Q 3300 2513 3300 1703 
L 3300 1653 
z
M 2722 1719 
Q 2722 2309 2494 2631 
Q 2266 2953 1838 2953 
Q 1266 2953 1016 2422 
L 1016 959 
Q 1281 428 1844 428 
Q 2259 428 2490 750 
Q 2722 1072 2722 1719 
z
" id="Roboto-Regular-62" transform="scale(0.015625)"/>
      </defs>
      <use xlink:href="#Roboto-Regular-4e"/>
      <use x="71.289062" xlink:href="#Roboto-Regular-75"/>
      <use x="126.416016" xlink:href="#Roboto-Regular-6d"/>
      <use x="214.0625" xlink:href="#Roboto-Regular-62"/>
      <use x="270.166016" xlink:href="#Roboto-Regular-65"/>
      <use x="323.144531" xlink:href="#Roboto-Regular-72"/>
      <use x="356.982422" xlink:href="#Roboto-Regular-20"/>
      <use x="381.738281" xlink:href="#Roboto-Regular-6f"/>
      <use x="438.769531" xlink:href="#Roboto-Regular-66"/>
      <use x="473.486328" xlink:href="#Roboto-Regular-20"/>
      <use x="498.242188" xlink:href="#Roboto-Regular-6e"/>
      <use x="553.417969" xlink:href="#Roboto-Regular-69"/>
      <use x="577.685547" xlink:href="#Roboto-Regular-67"/>
      <use x="633.789062" xlink:href="#Roboto-Regular-68"/>
      <use x="688.867188" xlink:href="#Roboto-Regular-74"/>
      <use x="721.533203" xlink:href="#Roboto-Regular-73"/>
     </g>
    </g>
   </g>
   <g id="patch_4">
    <path d="M 44.729688 186.985458 
L 44.729688 7.2 
" style="fill:none;stroke:#ffffff;stroke-linecap:square;stroke-linejoin:miter;stroke-width:0.8;"/>
   </g>
   <g id="patch_5">
    <path d="M 332.39952 186.985458 
L 332.39952 7.2 
" style="fill:none;stroke:#ffffff;stroke-linecap:square;stroke-linejoin:miter;stroke-width:0.8;"/>
   </g>
   <g id="patch_6">
    <path d="M 44.729688 186.985458 
L 332.39952 186.985458 
" style="fill:none;stroke:#ffffff;stroke-linecap:square;stroke-linejoin:miter;stroke-width:0.8;"/>
   </g>
   <g id="patch_7">
    <path d="M 44.729688 7.2 
L 332.39952 7.2 
" style="fill:none;stroke:#ffffff;stroke-linecap:square;stroke-linejoin:miter;stroke-width:0.8;"/>
   </g>
  </g>
 </g>
 <defs>
  <clipPath id="p2a7211de37">
   <rect height="179.785458" width="287.669832" x="44.729688" y="7.2"/>
  </clipPath>
 </defs>
</svg>
