<?xml version="1.0" encoding="utf-8" standalone="no"?>
<!DOCTYPE svg PUBLIC "-//W3C//DTD SVG 1.1//EN"
  "http://www.w3.org/Graphics/SVG/1.1/DTD/svg11.dtd">
<!-- Created with matplotlib (https://matplotlib.org/) -->
<svg height="224.39952pt" version="1.1" viewBox="0 0 339.59952 224.39952" width="339.59952pt" xmlns="http://www.w3.org/2000/svg" xmlns:xlink="http://www.w3.org/1999/xlink">
 <metadata>
  <rdf:RDF xmlns:cc="http://creativecommons.org/ns#" xmlns:dc="http://purl.org/dc/elements/1.1/" xmlns:rdf="http://www.w3.org/1999/02/22-rdf-syntax-ns#">
   <cc:Work>
    <dc:type rdf:resource="http://purl.org/dc/dcmitype/StillImage"/>
    <dc:date>2021-07-28T09:56:31.341179</dc:date>
    <dc:format>image/svg+xml</dc:format>
    <dc:creator>
     <cc:Agent>
      <dc:title>Matplotlib v3.3.4, https://matplotlib.org/</dc:title>
     </cc:Agent>
    </dc:creator>
   </cc:Work>
  </rdf:RDF>
 </metadata>
 <defs>
  <style type="text/css">*{stroke-linecap:butt;stroke-linejoin:round;}</style>
 </defs>
 <g id="figure_1">
  <g id="patch_1">
   <path d="M 0 224.39952 
L 339.59952 224.39952 
L 339.59952 0 
L 0 0 
z
"/>
  </g>
  <g id="axes_1">
   <g id="patch_2">
    <path d="M 50.296875 187.13702 
L 321.16827 187.13702 
L 321.16827 7.2 
L 50.296875 7.2 
z
"/>
   </g>
   <g id="patch_3">
    <path clip-path="url(#pfe4f2ecf74)" d="M 53.7268 187.13702 
L 53.7268 7.2 
L 53.819501 7.2 
L 53.819501 187.13702 
z
" style="fill:#bfbbd9;opacity:0.5;"/>
   </g>
   <g id="patch_4">
    <path clip-path="url(#pfe4f2ecf74)" d="M 53.7268 187.13702 
L 53.7268 7.2 
L 54.653807 7.2 
L 54.653807 187.13702 
z
" style="fill:#bfbbd9;opacity:0.5;"/>
   </g>
   <g id="patch_5">
    <path clip-path="url(#pfe4f2ecf74)" d="M 55.951617 187.13702 
L 55.951617 7.2 
L 57.249426 7.2 
L 57.249426 187.13702 
z
" style="fill:#bfbbd9;opacity:0.5;"/>
   </g>
   <g id="patch_6">
    <path clip-path="url(#pfe4f2ecf74)" d="M 59.381542 187.13702 
L 59.381542 7.2 
L 60.030447 7.2 
L 60.030447 187.13702 
z
" style="fill:#bfbbd9;opacity:0.5;"/>
   </g>
   <g id="patch_7">
    <path clip-path="url(#pfe4f2ecf74)" d="M 64.758182 187.13702 
L 64.758182 7.2 
L 65.314386 7.2 
L 65.314386 187.13702 
z
" style="fill:#bfbbd9;opacity:0.5;"/>
   </g>
   <g id="patch_8">
    <path clip-path="url(#pfe4f2ecf74)" d="M 67.631903 187.13702 
L 67.631903 7.2 
L 68.466209 7.2 
L 68.466209 187.13702 
z
" style="fill:#bfbbd9;opacity:0.5;"/>
   </g>
   <g id="patch_9">
    <path clip-path="url(#pfe4f2ecf74)" d="M 70.320222 187.13702 
L 70.320222 7.2 
L 71.432631 7.2 
L 71.432631 187.13702 
z
" style="fill:#bfbbd9;opacity:0.5;"/>
   </g>
   <g id="patch_10">
    <path clip-path="url(#pfe4f2ecf74)" d="M 71.988835 187.13702 
L 71.988835 7.2 
L 72.174236 7.2 
L 72.174236 187.13702 
z
" style="fill:#bfbbd9;opacity:0.5;"/>
   </g>
   <g id="patch_11">
    <path clip-path="url(#pfe4f2ecf74)" d="M 78.385182 187.13702 
L 78.385182 7.2 
L 78.848685 7.2 
L 78.848685 187.13702 
z
" style="fill:#bfbbd9;opacity:0.5;"/>
   </g>
   <g id="patch_12">
    <path clip-path="url(#pfe4f2ecf74)" d="M 81.166202 187.13702 
L 81.166202 7.2 
L 81.537005 7.2 
L 81.537005 187.13702 
z
" style="fill:#bfbbd9;opacity:0.5;"/>
   </g>
   <g id="patch_13">
    <path clip-path="url(#pfe4f2ecf74)" d="M 84.039924 187.13702 
L 84.039924 7.2 
L 85.245032 7.2 
L 85.245032 187.13702 
z
" style="fill:#bfbbd9;opacity:0.5;"/>
   </g>
   <g id="patch_14">
    <path clip-path="url(#pfe4f2ecf74)" d="M 87.284447 187.13702 
L 87.284447 7.2 
L 88.026053 7.2 
L 88.026053 187.13702 
z
" style="fill:#bfbbd9;opacity:0.5;"/>
   </g>
   <g id="patch_15">
    <path clip-path="url(#pfe4f2ecf74)" d="M 92.290284 187.13702 
L 92.290284 7.2 
L 93.680795 7.2 
L 93.680795 187.13702 
z
" style="fill:#bfbbd9;opacity:0.5;"/>
   </g>
   <g id="patch_16">
    <path clip-path="url(#pfe4f2ecf74)" d="M 94.793203 187.13702 
L 94.793203 7.2 
L 95.627509 7.2 
L 95.627509 187.13702 
z
" style="fill:#bfbbd9;opacity:0.5;"/>
   </g>
   <g id="patch_17">
    <path clip-path="url(#pfe4f2ecf74)" d="M 97.759625 187.13702 
L 97.759625 7.2 
L 98.779332 7.2 
L 98.779332 187.13702 
z
" style="fill:#bfbbd9;opacity:0.5;"/>
   </g>
   <g id="patch_18">
    <path clip-path="url(#pfe4f2ecf74)" d="M 101.096849 187.13702 
L 101.096849 7.2 
L 101.467652 7.2 
L 101.467652 187.13702 
z
" style="fill:#bfbbd9;opacity:0.5;"/>
   </g>
   <g id="patch_19">
    <path clip-path="url(#pfe4f2ecf74)" d="M 102.487359 187.13702 
L 102.487359 7.2 
L 102.672761 7.2 
L 102.672761 187.13702 
z
" style="fill:#bfbbd9;opacity:0.5;"/>
   </g>
   <g id="patch_20">
    <path clip-path="url(#pfe4f2ecf74)" d="M 105.824584 187.13702 
L 105.824584 7.2 
L 106.936992 7.2 
L 106.936992 187.13702 
z
" style="fill:#bfbbd9;opacity:0.5;"/>
   </g>
   <g id="patch_21">
    <path clip-path="url(#pfe4f2ecf74)" d="M 110.088815 187.13702 
L 110.088815 7.2 
L 110.274217 7.2 
L 110.274217 187.13702 
z
" style="fill:#bfbbd9;opacity:0.5;"/>
   </g>
   <g id="patch_22">
    <path clip-path="url(#pfe4f2ecf74)" d="M 113.055237 187.13702 
L 113.055237 7.2 
L 113.333339 7.2 
L 113.333339 187.13702 
z
" style="fill:#bfbbd9;opacity:0.5;"/>
   </g>
   <g id="patch_23">
    <path clip-path="url(#pfe4f2ecf74)" d="M 116.763265 187.13702 
L 116.763265 7.2 
L 118.061074 7.2 
L 118.061074 187.13702 
z
" style="fill:#bfbbd9;opacity:0.5;"/>
   </g>
   <g id="patch_24">
    <path clip-path="url(#pfe4f2ecf74)" d="M 118.339176 187.13702 
L 118.339176 7.2 
L 119.173482 7.2 
L 119.173482 187.13702 
z
" style="fill:#bfbbd9;opacity:0.5;"/>
   </g>
   <g id="patch_25">
    <path clip-path="url(#pfe4f2ecf74)" d="M 120.007788 187.13702 
L 120.007788 7.2 
L 120.749394 7.2 
L 120.749394 187.13702 
z
" style="fill:#bfbbd9;opacity:0.5;"/>
   </g>
   <g id="patch_26">
    <path clip-path="url(#pfe4f2ecf74)" d="M 125.755231 187.13702 
L 125.755231 7.2 
L 126.682238 7.2 
L 126.682238 187.13702 
z
" style="fill:#bfbbd9;opacity:0.5;"/>
   </g>
   <g id="patch_27">
    <path clip-path="url(#pfe4f2ecf74)" d="M 127.701945 187.13702 
L 127.701945 7.2 
L 128.814353 7.2 
L 128.814353 187.13702 
z
" style="fill:#bfbbd9;opacity:0.5;"/>
   </g>
   <g id="patch_28">
    <path clip-path="url(#pfe4f2ecf74)" d="M 129.926761 187.13702 
L 129.926761 7.2 
L 130.019462 7.2 
L 130.019462 187.13702 
z
" style="fill:#bfbbd9;opacity:0.5;"/>
   </g>
   <g id="patch_29">
    <path clip-path="url(#pfe4f2ecf74)" d="M 130.112163 187.13702 
L 130.112163 7.2 
L 133.263986 7.2 
L 133.263986 187.13702 
z
" style="fill:#bfbbd9;opacity:0.5;"/>
   </g>
   <g id="patch_30">
    <path clip-path="url(#pfe4f2ecf74)" d="M 136.786612 187.13702 
L 136.786612 7.2 
L 137.064714 7.2 
L 137.064714 187.13702 
z
" style="fill:#bfbbd9;opacity:0.5;"/>
   </g>
   <g id="patch_31">
    <path clip-path="url(#pfe4f2ecf74)" d="M 138.640626 187.13702 
L 138.640626 7.2 
L 139.28953 7.2 
L 139.28953 187.13702 
z
" style="fill:#bfbbd9;opacity:0.5;"/>
   </g>
   <g id="patch_32">
    <path clip-path="url(#pfe4f2ecf74)" d="M 141.88515 187.13702 
L 141.88515 7.2 
L 142.719456 7.2 
L 142.719456 187.13702 
z
" style="fill:#bfbbd9;opacity:0.5;"/>
   </g>
   <g id="patch_33">
    <path clip-path="url(#pfe4f2ecf74)" d="M 143.831864 187.13702 
L 143.831864 7.2 
L 144.573469 7.2 
L 144.573469 187.13702 
z
" style="fill:#bfbbd9;opacity:0.5;"/>
   </g>
   <g id="patch_34">
    <path clip-path="url(#pfe4f2ecf74)" d="M 146.520184 187.13702 
L 146.520184 7.2 
L 147.076388 7.2 
L 147.076388 187.13702 
z
" style="fill:#bfbbd9;opacity:0.5;"/>
   </g>
   <g id="patch_35">
    <path clip-path="url(#pfe4f2ecf74)" d="M 147.539891 187.13702 
L 147.539891 7.2 
L 148.003395 7.2 
L 148.003395 187.13702 
z
" style="fill:#bfbbd9;opacity:0.5;"/>
   </g>
   <g id="patch_36">
    <path clip-path="url(#pfe4f2ecf74)" d="M 149.672007 187.13702 
L 149.672007 7.2 
L 150.784415 7.2 
L 150.784415 187.13702 
z
" style="fill:#bfbbd9;opacity:0.5;"/>
   </g>
   <g id="patch_37">
    <path clip-path="url(#pfe4f2ecf74)" d="M 151.526021 187.13702 
L 151.526021 7.2 
L 153.936238 7.2 
L 153.936238 187.13702 
z
" style="fill:#bfbbd9;opacity:0.5;"/>
   </g>
   <g id="patch_38">
    <path clip-path="url(#pfe4f2ecf74)" d="M 154.307041 187.13702 
L 154.307041 7.2 
L 155.419449 7.2 
L 155.419449 187.13702 
z
" style="fill:#bfbbd9;opacity:0.5;"/>
   </g>
   <g id="patch_39">
    <path clip-path="url(#pfe4f2ecf74)" d="M 156.068354 187.13702 
L 156.068354 7.2 
L 156.624558 7.2 
L 156.624558 187.13702 
z
" style="fill:#bfbbd9;opacity:0.5;"/>
   </g>
   <g id="patch_40">
    <path clip-path="url(#pfe4f2ecf74)" d="M 158.385871 187.13702 
L 158.385871 7.2 
L 158.663973 7.2 
L 158.663973 187.13702 
z
" style="fill:#bfbbd9;opacity:0.5;"/>
   </g>
   <g id="patch_41">
    <path clip-path="url(#pfe4f2ecf74)" d="M 160.425286 187.13702 
L 160.425286 7.2 
L 161.908497 7.2 
L 161.908497 187.13702 
z
" style="fill:#bfbbd9;opacity:0.5;"/>
   </g>
   <g id="patch_42">
    <path clip-path="url(#pfe4f2ecf74)" d="M 163.484409 187.13702 
L 163.484409 7.2 
L 164.596817 7.2 
L 164.596817 187.13702 
z
" style="fill:#bfbbd9;opacity:0.5;"/>
   </g>
   <g id="patch_43">
    <path clip-path="url(#pfe4f2ecf74)" d="M 165.709225 187.13702 
L 165.709225 7.2 
L 166.265429 7.2 
L 166.265429 187.13702 
z
" style="fill:#bfbbd9;opacity:0.5;"/>
   </g>
   <g id="patch_44">
    <path clip-path="url(#pfe4f2ecf74)" d="M 167.099735 187.13702 
L 167.099735 7.2 
L 167.285137 7.2 
L 167.285137 187.13702 
z
" style="fill:#bfbbd9;opacity:0.5;"/>
   </g>
   <g id="patch_45">
    <path clip-path="url(#pfe4f2ecf74)" d="M 169.509953 187.13702 
L 169.509953 7.2 
L 169.973456 7.2 
L 169.973456 187.13702 
z
" style="fill:#bfbbd9;opacity:0.5;"/>
   </g>
   <g id="patch_46">
    <path clip-path="url(#pfe4f2ecf74)" d="M 170.715062 187.13702 
L 170.715062 7.2 
L 170.993164 7.2 
L 170.993164 187.13702 
z
" style="fill:#bfbbd9;opacity:0.5;"/>
   </g>
   <g id="patch_47">
    <path clip-path="url(#pfe4f2ecf74)" d="M 171.549368 187.13702 
L 171.549368 7.2 
L 172.105572 7.2 
L 172.105572 187.13702 
z
" style="fill:#bfbbd9;opacity:0.5;"/>
   </g>
   <g id="patch_48">
    <path clip-path="url(#pfe4f2ecf74)" d="M 174.052286 187.13702 
L 174.052286 7.2 
L 174.330389 7.2 
L 174.330389 187.13702 
z
" style="fill:#bfbbd9;opacity:0.5;"/>
   </g>
   <g id="patch_49">
    <path clip-path="url(#pfe4f2ecf74)" d="M 174.701191 187.13702 
L 174.701191 7.2 
L 175.535497 7.2 
L 175.535497 187.13702 
z
" style="fill:#bfbbd9;opacity:0.5;"/>
   </g>
   <g id="patch_50">
    <path clip-path="url(#pfe4f2ecf74)" d="M 176.926008 187.13702 
L 176.926008 7.2 
L 177.482212 7.2 
L 177.482212 187.13702 
z
" style="fill:#bfbbd9;opacity:0.5;"/>
   </g>
   <g id="patch_51">
    <path clip-path="url(#pfe4f2ecf74)" d="M 179.614327 187.13702 
L 179.614327 7.2 
L 180.634035 7.2 
L 180.634035 187.13702 
z
" style="fill:#bfbbd9;opacity:0.5;"/>
   </g>
   <g id="patch_52">
    <path clip-path="url(#pfe4f2ecf74)" d="M 183.229654 187.13702 
L 183.229654 7.2 
L 183.600457 7.2 
L 183.600457 187.13702 
z
" style="fill:#bfbbd9;opacity:0.5;"/>
   </g>
   <g id="patch_53">
    <path clip-path="url(#pfe4f2ecf74)" d="M 185.269069 187.13702 
L 185.269069 7.2 
L 186.010675 7.2 
L 186.010675 187.13702 
z
" style="fill:#bfbbd9;opacity:0.5;"/>
   </g>
   <g id="patch_54">
    <path clip-path="url(#pfe4f2ecf74)" d="M 187.957389 187.13702 
L 187.957389 7.2 
L 188.14279 7.2 
L 188.14279 187.13702 
z
" style="fill:#bfbbd9;opacity:0.5;"/>
   </g>
   <g id="patch_55">
    <path clip-path="url(#pfe4f2ecf74)" d="M 188.235491 187.13702 
L 188.235491 7.2 
L 188.606294 7.2 
L 188.606294 187.13702 
z
" style="fill:#bfbbd9;opacity:0.5;"/>
   </g>
   <g id="patch_56">
    <path clip-path="url(#pfe4f2ecf74)" d="M 199.823076 187.13702 
L 199.823076 7.2 
L 200.101178 7.2 
L 200.101178 187.13702 
z
" style="fill:#bfbbd9;opacity:0.5;"/>
   </g>
   <g id="patch_57">
    <path clip-path="url(#pfe4f2ecf74)" d="M 201.491689 187.13702 
L 201.491689 7.2 
L 201.862491 7.2 
L 201.862491 187.13702 
z
" style="fill:#bfbbd9;opacity:0.5;"/>
   </g>
   <g id="patch_58">
    <path clip-path="url(#pfe4f2ecf74)" d="M 201.955192 187.13702 
L 201.955192 7.2 
L 202.325995 7.2 
L 202.325995 187.13702 
z
" style="fill:#bfbbd9;opacity:0.5;"/>
   </g>
   <g id="patch_59">
    <path clip-path="url(#pfe4f2ecf74)" d="M 218.455914 187.13702 
L 218.455914 7.2 
L 219.104818 7.2 
L 219.104818 187.13702 
z
" style="fill:#bfbbd9;opacity:0.5;"/>
   </g>
   <g id="patch_60">
    <path clip-path="url(#pfe4f2ecf74)" d="M 222.720145 187.13702 
L 222.720145 7.2 
L 223.554451 7.2 
L 223.554451 187.13702 
z
" style="fill:#bfbbd9;opacity:0.5;"/>
   </g>
   <g id="patch_61">
    <path clip-path="url(#pfe4f2ecf74)" d="M 224.481458 187.13702 
L 224.481458 7.2 
L 224.75956 7.2 
L 224.75956 187.13702 
z
" style="fill:#bfbbd9;opacity:0.5;"/>
   </g>
   <g id="patch_62">
    <path clip-path="url(#pfe4f2ecf74)" d="M 233.102621 187.13702 
L 233.102621 7.2 
L 233.473424 7.2 
L 233.473424 187.13702 
z
" style="fill:#bfbbd9;opacity:0.5;"/>
   </g>
   <g id="patch_63">
    <path clip-path="url(#pfe4f2ecf74)" d="M 234.029628 187.13702 
L 234.029628 7.2 
L 234.956635 7.2 
L 234.956635 187.13702 
z
" style="fill:#bfbbd9;opacity:0.5;"/>
   </g>
   <g id="patch_64">
    <path clip-path="url(#pfe4f2ecf74)" d="M 241.538384 187.13702 
L 241.538384 7.2 
L 242.001887 7.2 
L 242.001887 187.13702 
z
" style="fill:#bfbbd9;opacity:0.5;"/>
   </g>
   <g id="patch_65">
    <path clip-path="url(#pfe4f2ecf74)" d="M 248.212833 187.13702 
L 248.212833 7.2 
L 248.676336 7.2 
L 248.676336 187.13702 
z
" style="fill:#bfbbd9;opacity:0.5;"/>
   </g>
   <g id="patch_66">
    <path clip-path="url(#pfe4f2ecf74)" d="M 248.861737 187.13702 
L 248.861737 7.2 
L 249.23254 7.2 
L 249.23254 187.13702 
z
" style="fill:#bfbbd9;opacity:0.5;"/>
   </g>
   <g id="patch_67">
    <path clip-path="url(#pfe4f2ecf74)" d="M 257.204799 187.13702 
L 257.204799 7.2 
L 257.761003 7.2 
L 257.761003 187.13702 
z
" style="fill:#bfbbd9;opacity:0.5;"/>
   </g>
   <g id="patch_68">
    <path clip-path="url(#pfe4f2ecf74)" d="M 265.54786 187.13702 
L 265.54786 7.2 
L 266.567568 7.2 
L 266.567568 187.13702 
z
" style="fill:#bfbbd9;opacity:0.5;"/>
   </g>
   <g id="patch_69">
    <path clip-path="url(#pfe4f2ecf74)" d="M 267.031071 187.13702 
L 267.031071 7.2 
L 267.587275 7.2 
L 267.587275 187.13702 
z
" style="fill:#bfbbd9;opacity:0.5;"/>
   </g>
   <g id="patch_70">
    <path clip-path="url(#pfe4f2ecf74)" d="M 270.9245 187.13702 
L 270.9245 7.2 
L 271.573405 7.2 
L 271.573405 187.13702 
z
" style="fill:#bfbbd9;opacity:0.5;"/>
   </g>
   <g id="patch_71">
    <path clip-path="url(#pfe4f2ecf74)" d="M 272.407711 187.13702 
L 272.407711 7.2 
L 272.871214 7.2 
L 272.871214 187.13702 
z
" style="fill:#bfbbd9;opacity:0.5;"/>
   </g>
   <g id="patch_72">
    <path clip-path="url(#pfe4f2ecf74)" d="M 273.149316 187.13702 
L 273.149316 7.2 
L 273.798221 7.2 
L 273.798221 187.13702 
z
" style="fill:#bfbbd9;opacity:0.5;"/>
   </g>
   <g id="patch_73">
    <path clip-path="url(#pfe4f2ecf74)" d="M 273.890922 187.13702 
L 273.890922 7.2 
L 274.076323 7.2 
L 274.076323 187.13702 
z
" style="fill:#bfbbd9;opacity:0.5;"/>
   </g>
   <g id="patch_74">
    <path clip-path="url(#pfe4f2ecf74)" d="M 275.281432 187.13702 
L 275.281432 7.2 
L 275.559534 7.2 
L 275.559534 187.13702 
z
" style="fill:#bfbbd9;opacity:0.5;"/>
   </g>
   <g id="patch_75">
    <path clip-path="url(#pfe4f2ecf74)" d="M 275.930337 187.13702 
L 275.930337 7.2 
L 276.671942 7.2 
L 276.671942 187.13702 
z
" style="fill:#bfbbd9;opacity:0.5;"/>
   </g>
   <g id="patch_76">
    <path clip-path="url(#pfe4f2ecf74)" d="M 278.247854 187.13702 
L 278.247854 7.2 
L 278.525956 7.2 
L 278.525956 187.13702 
z
" style="fill:#bfbbd9;opacity:0.5;"/>
   </g>
   <g id="patch_77">
    <path clip-path="url(#pfe4f2ecf74)" d="M 278.711357 187.13702 
L 278.711357 7.2 
L 279.452963 7.2 
L 279.452963 187.13702 
z
" style="fill:#bfbbd9;opacity:0.5;"/>
   </g>
   <g id="patch_78">
    <path clip-path="url(#pfe4f2ecf74)" d="M 284.366099 187.13702 
L 284.366099 7.2 
L 285.107704 7.2 
L 285.107704 187.13702 
z
" style="fill:#bfbbd9;opacity:0.5;"/>
   </g>
   <g id="patch_79">
    <path clip-path="url(#pfe4f2ecf74)" d="M 288.444929 187.13702 
L 288.444929 7.2 
L 288.908432 7.2 
L 288.908432 187.13702 
z
" style="fill:#bfbbd9;opacity:0.5;"/>
   </g>
   <g id="patch_80">
    <path clip-path="url(#pfe4f2ecf74)" d="M 289.279235 187.13702 
L 289.279235 7.2 
L 289.742739 7.2 
L 289.742739 187.13702 
z
" style="fill:#bfbbd9;opacity:0.5;"/>
   </g>
   <g id="patch_81">
    <path clip-path="url(#pfe4f2ecf74)" d="M 290.298943 187.13702 
L 290.298943 7.2 
L 290.577045 7.2 
L 290.577045 187.13702 
z
" style="fill:#bfbbd9;opacity:0.5;"/>
   </g>
   <g id="patch_82">
    <path clip-path="url(#pfe4f2ecf74)" d="M 294.933977 187.13702 
L 294.933977 7.2 
L 296.139086 7.2 
L 296.139086 187.13702 
z
" style="fill:#bfbbd9;opacity:0.5;"/>
   </g>
   <g id="patch_83">
    <path clip-path="url(#pfe4f2ecf74)" d="M 297.622297 187.13702 
L 297.622297 7.2 
L 297.993099 7.2 
L 297.993099 187.13702 
z
" style="fill:#bfbbd9;opacity:0.5;"/>
   </g>
   <g id="patch_84">
    <path clip-path="url(#pfe4f2ecf74)" d="M 299.38361 187.13702 
L 299.38361 7.2 
L 300.681419 7.2 
L 300.681419 187.13702 
z
" style="fill:#bfbbd9;opacity:0.5;"/>
   </g>
   <g id="patch_85">
    <path clip-path="url(#pfe4f2ecf74)" d="M 301.237623 187.13702 
L 301.237623 7.2 
L 302.720834 7.2 
L 302.720834 187.13702 
z
" style="fill:#bfbbd9;opacity:0.5;"/>
   </g>
   <g id="patch_86">
    <path clip-path="url(#pfe4f2ecf74)" d="M 304.574848 187.13702 
L 304.574848 7.2 
L 306.614263 7.2 
L 306.614263 187.13702 
z
" style="fill:#bfbbd9;opacity:0.5;"/>
   </g>
   <g id="matplotlib.axis_1">
    <g id="xtick_1">
     <g id="line2d_1">
      <defs>
       <path d="M 0 0 
L 0 3.5 
" id="m1b1a1514e4" style="stroke:#ffffff;stroke-width:0.8;"/>
      </defs>
      <g>
       <use style="fill:#ffffff;stroke:#ffffff;stroke-width:0.8;" x="50.296875" xlink:href="#m1b1a1514e4" y="187.13702"/>
      </g>
     </g>
     <g id="text_1">
      <!-- 2014 -->
      <g style="fill:#ffffff;" transform="translate(39.065625 201.63702)scale(0.1 -0.1)">
       <defs>
        <path d="M 52.484375 0 
L 5.90625 0 
L 5.90625 6.5 
L 30.515625 33.84375 
Q 35.984375 40.046875 38.0625 43.921875 
Q 40.140625 47.796875 40.140625 51.953125 
Q 40.140625 57.515625 36.765625 61.078125 
Q 33.40625 64.65625 27.78125 64.65625 
Q 21.046875 64.65625 17.3125 60.8125 
Q 13.578125 56.984375 13.578125 50.140625 
L 4.546875 50.140625 
Q 4.546875 59.96875 10.859375 66.015625 
Q 17.1875 72.078125 27.78125 72.078125 
Q 37.703125 72.078125 43.453125 66.875 
Q 49.21875 61.671875 49.21875 53.03125 
Q 49.21875 42.53125 35.84375 28.03125 
L 16.796875 7.375 
L 52.484375 7.375 
z
" id="Roboto-Regular-50"/>
        <path d="M 50.484375 30.328125 
Q 50.484375 14.453125 45.0625 6.734375 
Q 39.65625 -0.984375 28.125 -0.984375 
Q 16.75 -0.984375 11.28125 6.5625 
Q 5.8125 14.109375 5.609375 29.109375 
L 5.609375 41.15625 
Q 5.609375 56.84375 11.03125 64.453125 
Q 16.453125 72.078125 28.03125 72.078125 
Q 39.5 72.078125 44.921875 64.71875 
Q 50.34375 57.375 50.484375 42.046875 
z
M 41.453125 42.671875 
Q 41.453125 54.15625 38.234375 59.40625 
Q 35.015625 64.65625 28.03125 64.65625 
Q 21.09375 64.65625 17.921875 59.421875 
Q 14.75 54.203125 14.65625 43.359375 
L 14.65625 28.90625 
Q 14.65625 17.390625 18 11.890625 
Q 21.34375 6.390625 28.125 6.390625 
Q 34.8125 6.390625 38.0625 11.5625 
Q 41.3125 16.75 41.453125 27.875 
z
" id="Roboto-Regular-48"/>
        <path d="M 35.59375 0 
L 26.515625 0 
L 26.515625 60.203125 
L 8.296875 53.515625 
L 8.296875 61.71875 
L 34.1875 71.4375 
L 35.59375 71.4375 
z
" id="Roboto-Regular-49"/>
        <path d="M 44.046875 23.875 
L 53.90625 23.875 
L 53.90625 16.5 
L 44.046875 16.5 
L 44.046875 0 
L 34.96875 0 
L 34.96875 16.5 
L 2.59375 16.5 
L 2.59375 21.828125 
L 34.421875 71.09375 
L 44.046875 71.09375 
z
M 12.84375 23.875 
L 34.96875 23.875 
L 34.96875 58.734375 
L 33.890625 56.78125 
z
" id="Roboto-Regular-52"/>
       </defs>
       <use xlink:href="#Roboto-Regular-50"/>
       <use x="56.152344" xlink:href="#Roboto-Regular-48"/>
       <use x="112.304688" xlink:href="#Roboto-Regular-49"/>
       <use x="168.457031" xlink:href="#Roboto-Regular-52"/>
      </g>
     </g>
    </g>
    <g id="xtick_2">
     <g id="line2d_2">
      <g>
       <use style="fill:#ffffff;stroke:#ffffff;stroke-width:0.8;" x="84.132624" xlink:href="#m1b1a1514e4" y="187.13702"/>
      </g>
     </g>
     <g id="text_2">
      <!-- 2015 -->
      <g style="fill:#ffffff;" transform="translate(72.901374 201.63702)scale(0.1 -0.1)">
       <defs>
        <path d="M 10.0625 35.640625 
L 13.671875 71.09375 
L 50.09375 71.09375 
L 50.09375 62.75 
L 21.34375 62.75 
L 19.1875 43.359375 
Q 24.421875 46.4375 31.0625 46.4375 
Q 40.765625 46.4375 46.484375 40.015625 
Q 52.203125 33.59375 52.203125 22.65625 
Q 52.203125 11.671875 46.265625 5.34375 
Q 40.328125 -0.984375 29.6875 -0.984375 
Q 20.265625 -0.984375 14.296875 4.234375 
Q 8.34375 9.46875 7.515625 18.703125 
L 16.0625 18.703125 
Q 16.890625 12.59375 20.40625 9.484375 
Q 23.921875 6.390625 29.6875 6.390625 
Q 35.984375 6.390625 39.578125 10.6875 
Q 43.171875 14.984375 43.171875 22.5625 
Q 43.171875 29.6875 39.28125 34 
Q 35.40625 38.328125 28.953125 38.328125 
Q 23.046875 38.328125 19.671875 35.75 
L 17.28125 33.796875 
z
" id="Roboto-Regular-53"/>
       </defs>
       <use xlink:href="#Roboto-Regular-50"/>
       <use x="56.152344" xlink:href="#Roboto-Regular-48"/>
       <use x="112.304688" xlink:href="#Roboto-Regular-49"/>
       <use x="168.457031" xlink:href="#Roboto-Regular-53"/>
      </g>
     </g>
    </g>
    <g id="xtick_3">
     <g id="line2d_3">
      <g>
       <use style="fill:#ffffff;stroke:#ffffff;stroke-width:0.8;" x="117.968373" xlink:href="#m1b1a1514e4" y="187.13702"/>
      </g>
     </g>
     <g id="text_3">
      <!-- 2016 -->
      <g style="fill:#ffffff;" transform="translate(106.737123 201.63702)scale(0.1 -0.1)">
       <defs>
        <path d="M 41.359375 71.140625 
L 41.359375 63.484375 
L 39.703125 63.484375 
Q 29.15625 63.28125 22.90625 57.21875 
Q 16.65625 51.171875 15.671875 40.1875 
Q 21.296875 46.625 31 46.625 
Q 40.28125 46.625 45.828125 40.078125 
Q 51.375 33.546875 51.375 23.1875 
Q 51.375 12.203125 45.390625 5.609375 
Q 39.40625 -0.984375 29.34375 -0.984375 
Q 19.140625 -0.984375 12.796875 6.859375 
Q 6.453125 14.703125 6.453125 27.046875 
L 6.453125 30.515625 
Q 6.453125 50.140625 14.8125 60.515625 
Q 23.1875 70.90625 39.75 71.140625 
z
M 29.5 39.109375 
Q 24.859375 39.109375 20.953125 36.328125 
Q 17.046875 33.546875 15.53125 29.34375 
L 15.53125 26.03125 
Q 15.53125 17.234375 19.484375 11.859375 
Q 23.4375 6.5 29.34375 6.5 
Q 35.453125 6.5 38.9375 10.984375 
Q 42.4375 15.484375 42.4375 22.75 
Q 42.4375 30.078125 38.890625 34.59375 
Q 35.359375 39.109375 29.5 39.109375 
z
" id="Roboto-Regular-54"/>
       </defs>
       <use xlink:href="#Roboto-Regular-50"/>
       <use x="56.152344" xlink:href="#Roboto-Regular-48"/>
       <use x="112.304688" xlink:href="#Roboto-Regular-49"/>
       <use x="168.457031" xlink:href="#Roboto-Regular-54"/>
      </g>
     </g>
    </g>
    <g id="xtick_4">
     <g id="line2d_4">
      <g>
       <use style="fill:#ffffff;stroke:#ffffff;stroke-width:0.8;" x="151.896823" xlink:href="#m1b1a1514e4" y="187.13702"/>
      </g>
     </g>
     <g id="text_4">
      <!-- 2017 -->
      <g style="fill:#ffffff;" transform="translate(140.665573 201.63702)scale(0.1 -0.1)">
       <defs>
        <path d="M 51.8125 66.015625 
L 22.359375 0 
L 12.890625 0 
L 42.234375 63.671875 
L 3.765625 63.671875 
L 3.765625 71.09375 
L 51.8125 71.09375 
z
" id="Roboto-Regular-55"/>
       </defs>
       <use xlink:href="#Roboto-Regular-50"/>
       <use x="56.152344" xlink:href="#Roboto-Regular-48"/>
       <use x="112.304688" xlink:href="#Roboto-Regular-49"/>
       <use x="168.457031" xlink:href="#Roboto-Regular-55"/>
      </g>
     </g>
    </g>
    <g id="xtick_5">
     <g id="line2d_5">
      <g>
       <use style="fill:#ffffff;stroke:#ffffff;stroke-width:0.8;" x="185.732573" xlink:href="#m1b1a1514e4" y="187.13702"/>
      </g>
     </g>
     <g id="text_5">
      <!-- 2018 -->
      <g style="fill:#ffffff;" transform="translate(174.501323 201.63702)scale(0.1 -0.1)">
       <defs>
        <path d="M 49.03125 52.546875 
Q 49.03125 47.21875 46.21875 43.0625 
Q 43.40625 38.921875 38.625 36.578125 
Q 44.1875 34.1875 47.4375 29.59375 
Q 50.6875 25 50.6875 19.1875 
Q 50.6875 9.96875 44.453125 4.484375 
Q 38.234375 -0.984375 28.078125 -0.984375 
Q 17.828125 -0.984375 11.640625 4.515625 
Q 5.46875 10.015625 5.46875 19.1875 
Q 5.46875 24.953125 8.609375 29.59375 
Q 11.765625 34.234375 17.328125 36.625 
Q 12.59375 38.96875 9.859375 43.109375 
Q 7.125 47.265625 7.125 52.546875 
Q 7.125 61.53125 12.890625 66.796875 
Q 18.65625 72.078125 28.078125 72.078125 
Q 37.453125 72.078125 43.234375 66.796875 
Q 49.03125 61.53125 49.03125 52.546875 
z
M 41.65625 19.390625 
Q 41.65625 25.34375 37.859375 29.09375 
Q 34.078125 32.859375 27.96875 32.859375 
Q 21.875 32.859375 18.1875 29.140625 
Q 14.5 25.4375 14.5 19.375 
Q 14.5 13.328125 18.09375 9.859375 
Q 21.6875 6.390625 28.078125 6.390625 
Q 34.421875 6.390625 38.03125 9.875 
Q 41.65625 13.375 41.65625 19.390625 
z
M 28.078125 64.65625 
Q 22.75 64.65625 19.453125 61.359375 
Q 16.15625 58.0625 16.15625 52.390625 
Q 16.15625 46.96875 19.40625 43.625 
Q 22.65625 40.28125 28.078125 40.28125 
Q 33.5 40.28125 36.734375 43.625 
Q 39.984375 46.96875 39.984375 52.390625 
Q 39.984375 57.8125 36.609375 61.234375 
Q 33.25 64.65625 28.078125 64.65625 
z
" id="Roboto-Regular-56"/>
       </defs>
       <use xlink:href="#Roboto-Regular-50"/>
       <use x="56.152344" xlink:href="#Roboto-Regular-48"/>
       <use x="112.304688" xlink:href="#Roboto-Regular-49"/>
       <use x="168.457031" xlink:href="#Roboto-Regular-56"/>
      </g>
     </g>
    </g>
    <g id="xtick_6">
     <g id="line2d_6">
      <g>
       <use style="fill:#ffffff;stroke:#ffffff;stroke-width:0.8;" x="219.568322" xlink:href="#m1b1a1514e4" y="187.13702"/>
      </g>
     </g>
     <g id="text_6">
      <!-- 2019 -->
      <g style="fill:#ffffff;" transform="translate(208.337072 201.63702)scale(0.1 -0.1)">
       <defs>
        <path d="M 40.53125 31.25 
Q 37.703125 27.875 33.765625 25.828125 
Q 29.828125 23.78125 25.140625 23.78125 
Q 19 23.78125 14.421875 26.796875 
Q 9.859375 29.828125 7.375 35.328125 
Q 4.890625 40.828125 4.890625 47.46875 
Q 4.890625 54.59375 7.59375 60.296875 
Q 10.296875 66.015625 15.28125 69.046875 
Q 20.265625 72.078125 26.90625 72.078125 
Q 37.453125 72.078125 43.53125 64.1875 
Q 49.609375 56.296875 49.609375 42.671875 
L 49.609375 40.046875 
Q 49.609375 19.28125 41.40625 9.734375 
Q 33.203125 0.203125 16.65625 -0.046875 
L 14.890625 -0.046875 
L 14.890625 7.5625 
L 16.796875 7.5625 
Q 27.984375 7.765625 33.984375 13.40625 
Q 39.984375 19.046875 40.53125 31.25 
z
M 26.609375 31.25 
Q 31.15625 31.25 34.984375 34.03125 
Q 38.8125 36.8125 40.578125 40.921875 
L 40.578125 44.53125 
Q 40.578125 53.421875 36.71875 58.984375 
Q 32.859375 64.546875 26.953125 64.546875 
Q 21 64.546875 17.375 59.984375 
Q 13.765625 55.421875 13.765625 47.953125 
Q 13.765625 40.671875 17.25 35.953125 
Q 20.75 31.25 26.609375 31.25 
z
" id="Roboto-Regular-57"/>
       </defs>
       <use xlink:href="#Roboto-Regular-50"/>
       <use x="56.152344" xlink:href="#Roboto-Regular-48"/>
       <use x="112.304688" xlink:href="#Roboto-Regular-49"/>
       <use x="168.457031" xlink:href="#Roboto-Regular-57"/>
      </g>
     </g>
    </g>
    <g id="xtick_7">
     <g id="line2d_7">
      <g>
       <use style="fill:#ffffff;stroke:#ffffff;stroke-width:0.8;" x="253.404071" xlink:href="#m1b1a1514e4" y="187.13702"/>
      </g>
     </g>
     <g id="text_7">
      <!-- 2020 -->
      <g style="fill:#ffffff;" transform="translate(242.172821 201.63702)scale(0.1 -0.1)">
       <use xlink:href="#Roboto-Regular-50"/>
       <use x="56.152344" xlink:href="#Roboto-Regular-48"/>
       <use x="112.304688" xlink:href="#Roboto-Regular-50"/>
       <use x="168.457031" xlink:href="#Roboto-Regular-48"/>
      </g>
     </g>
    </g>
    <g id="xtick_8">
     <g id="line2d_8">
      <g>
       <use style="fill:#ffffff;stroke:#ffffff;stroke-width:0.8;" x="287.332521" xlink:href="#m1b1a1514e4" y="187.13702"/>
      </g>
     </g>
     <g id="text_8">
      <!-- 2021 -->
      <g style="fill:#ffffff;" transform="translate(276.101271 201.63702)scale(0.1 -0.1)">
       <use xlink:href="#Roboto-Regular-50"/>
       <use x="56.152344" xlink:href="#Roboto-Regular-48"/>
       <use x="112.304688" xlink:href="#Roboto-Regular-50"/>
       <use x="168.457031" xlink:href="#Roboto-Regular-49"/>
      </g>
     </g>
    </g>
    <g id="xtick_9">
     <g id="line2d_9">
      <g>
       <use style="fill:#ffffff;stroke:#ffffff;stroke-width:0.8;" x="321.16827" xlink:href="#m1b1a1514e4" y="187.13702"/>
      </g>
     </g>
     <g id="text_9">
      <!-- 2022 -->
      <g style="fill:#ffffff;" transform="translate(309.93702 201.63702)scale(0.1 -0.1)">
       <use xlink:href="#Roboto-Regular-50"/>
       <use x="56.152344" xlink:href="#Roboto-Regular-48"/>
       <use x="112.304688" xlink:href="#Roboto-Regular-50"/>
       <use x="168.457031" xlink:href="#Roboto-Regular-50"/>
      </g>
     </g>
    </g>
    <g id="xtick_10">
     <g id="line2d_10">
      <defs>
       <path d="M 0 0 
L 0 2 
" id="mf1fc3dec31" style="stroke:#ffffff;stroke-width:0.6;"/>
      </defs>
      <g>
       <use style="fill:#ffffff;stroke:#ffffff;stroke-width:0.6;" x="58.639936" xlink:href="#mf1fc3dec31" y="187.13702"/>
      </g>
     </g>
    </g>
    <g id="xtick_11">
     <g id="line2d_11">
      <g>
       <use style="fill:#ffffff;stroke:#ffffff;stroke-width:0.6;" x="67.075699" xlink:href="#mf1fc3dec31" y="187.13702"/>
      </g>
     </g>
    </g>
    <g id="xtick_12">
     <g id="line2d_12">
      <g>
       <use style="fill:#ffffff;stroke:#ffffff;stroke-width:0.6;" x="75.604161" xlink:href="#mf1fc3dec31" y="187.13702"/>
      </g>
     </g>
    </g>
    <g id="xtick_13">
     <g id="line2d_13">
      <g>
       <use style="fill:#ffffff;stroke:#ffffff;stroke-width:0.6;" x="92.475686" xlink:href="#mf1fc3dec31" y="187.13702"/>
      </g>
     </g>
    </g>
    <g id="xtick_14">
     <g id="line2d_14">
      <g>
       <use style="fill:#ffffff;stroke:#ffffff;stroke-width:0.6;" x="100.911448" xlink:href="#mf1fc3dec31" y="187.13702"/>
      </g>
     </g>
    </g>
    <g id="xtick_15">
     <g id="line2d_15">
      <g>
       <use style="fill:#ffffff;stroke:#ffffff;stroke-width:0.6;" x="109.439911" xlink:href="#mf1fc3dec31" y="187.13702"/>
      </g>
     </g>
    </g>
    <g id="xtick_16">
     <g id="line2d_16">
      <g>
       <use style="fill:#ffffff;stroke:#ffffff;stroke-width:0.6;" x="126.404136" xlink:href="#mf1fc3dec31" y="187.13702"/>
      </g>
     </g>
    </g>
    <g id="xtick_17">
     <g id="line2d_17">
      <g>
       <use style="fill:#ffffff;stroke:#ffffff;stroke-width:0.6;" x="134.839898" xlink:href="#mf1fc3dec31" y="187.13702"/>
      </g>
     </g>
    </g>
    <g id="xtick_18">
     <g id="line2d_18">
      <g>
       <use style="fill:#ffffff;stroke:#ffffff;stroke-width:0.6;" x="143.36836" xlink:href="#mf1fc3dec31" y="187.13702"/>
      </g>
     </g>
    </g>
    <g id="xtick_19">
     <g id="line2d_19">
      <g>
       <use style="fill:#ffffff;stroke:#ffffff;stroke-width:0.6;" x="160.239885" xlink:href="#mf1fc3dec31" y="187.13702"/>
      </g>
     </g>
    </g>
    <g id="xtick_20">
     <g id="line2d_20">
      <g>
       <use style="fill:#ffffff;stroke:#ffffff;stroke-width:0.6;" x="168.675647" xlink:href="#mf1fc3dec31" y="187.13702"/>
      </g>
     </g>
    </g>
    <g id="xtick_21">
     <g id="line2d_21">
      <g>
       <use style="fill:#ffffff;stroke:#ffffff;stroke-width:0.6;" x="177.20411" xlink:href="#mf1fc3dec31" y="187.13702"/>
      </g>
     </g>
    </g>
    <g id="xtick_22">
     <g id="line2d_22">
      <g>
       <use style="fill:#ffffff;stroke:#ffffff;stroke-width:0.6;" x="194.075634" xlink:href="#mf1fc3dec31" y="187.13702"/>
      </g>
     </g>
    </g>
    <g id="xtick_23">
     <g id="line2d_23">
      <g>
       <use style="fill:#ffffff;stroke:#ffffff;stroke-width:0.6;" x="202.511396" xlink:href="#mf1fc3dec31" y="187.13702"/>
      </g>
     </g>
    </g>
    <g id="xtick_24">
     <g id="line2d_24">
      <g>
       <use style="fill:#ffffff;stroke:#ffffff;stroke-width:0.6;" x="211.039859" xlink:href="#mf1fc3dec31" y="187.13702"/>
      </g>
     </g>
    </g>
    <g id="xtick_25">
     <g id="line2d_25">
      <g>
       <use style="fill:#ffffff;stroke:#ffffff;stroke-width:0.6;" x="227.911383" xlink:href="#mf1fc3dec31" y="187.13702"/>
      </g>
     </g>
    </g>
    <g id="xtick_26">
     <g id="line2d_26">
      <g>
       <use style="fill:#ffffff;stroke:#ffffff;stroke-width:0.6;" x="236.347145" xlink:href="#mf1fc3dec31" y="187.13702"/>
      </g>
     </g>
    </g>
    <g id="xtick_27">
     <g id="line2d_27">
      <g>
       <use style="fill:#ffffff;stroke:#ffffff;stroke-width:0.6;" x="244.875608" xlink:href="#mf1fc3dec31" y="187.13702"/>
      </g>
     </g>
    </g>
    <g id="xtick_28">
     <g id="line2d_28">
      <g>
       <use style="fill:#ffffff;stroke:#ffffff;stroke-width:0.6;" x="261.839833" xlink:href="#mf1fc3dec31" y="187.13702"/>
      </g>
     </g>
    </g>
    <g id="xtick_29">
     <g id="line2d_29">
      <g>
       <use style="fill:#ffffff;stroke:#ffffff;stroke-width:0.6;" x="270.275595" xlink:href="#mf1fc3dec31" y="187.13702"/>
      </g>
     </g>
    </g>
    <g id="xtick_30">
     <g id="line2d_30">
      <g>
       <use style="fill:#ffffff;stroke:#ffffff;stroke-width:0.6;" x="278.804058" xlink:href="#mf1fc3dec31" y="187.13702"/>
      </g>
     </g>
    </g>
    <g id="xtick_31">
     <g id="line2d_31">
      <g>
       <use style="fill:#ffffff;stroke:#ffffff;stroke-width:0.6;" x="295.675582" xlink:href="#mf1fc3dec31" y="187.13702"/>
      </g>
     </g>
    </g>
    <g id="xtick_32">
     <g id="line2d_32">
      <g>
       <use style="fill:#ffffff;stroke:#ffffff;stroke-width:0.6;" x="304.111344" xlink:href="#mf1fc3dec31" y="187.13702"/>
      </g>
     </g>
    </g>
    <g id="xtick_33">
     <g id="line2d_33">
      <g>
       <use style="fill:#ffffff;stroke:#ffffff;stroke-width:0.6;" x="312.639807" xlink:href="#mf1fc3dec31" y="187.13702"/>
      </g>
     </g>
    </g>
    <g id="text_10">
     <!-- Year -->
     <g style="fill:#ffffff;" transform="translate(175.66851 215.16827)scale(0.1 -0.1)">
      <defs>
       <path d="M 29.9375 35.40625 
L 48.484375 71.09375 
L 59.125 71.09375 
L 34.625 26.515625 
L 34.625 0 
L 25.25 0 
L 25.25 26.515625 
L 0.734375 71.09375 
L 11.46875 71.09375 
z
" id="Roboto-Regular-89"/>
       <path d="M 28.765625 -0.984375 
Q 18.015625 -0.984375 11.28125 6.078125 
Q 4.546875 13.140625 4.546875 24.953125 
L 4.546875 26.609375 
Q 4.546875 34.46875 7.546875 40.640625 
Q 10.546875 46.828125 15.9375 50.3125 
Q 21.34375 53.8125 27.640625 53.8125 
Q 37.9375 53.8125 43.640625 47.015625 
Q 49.359375 40.234375 49.359375 27.59375 
L 49.359375 23.828125 
L 13.578125 23.828125 
Q 13.765625 16.015625 18.140625 11.203125 
Q 22.515625 6.390625 29.25 6.390625 
Q 34.03125 6.390625 37.34375 8.34375 
Q 40.671875 10.296875 43.171875 13.53125 
L 48.6875 9.234375 
Q 42.046875 -0.984375 28.765625 -0.984375 
z
M 27.640625 46.390625 
Q 22.171875 46.390625 18.453125 42.40625 
Q 14.75 38.421875 13.875 31.25 
L 40.328125 31.25 
L 40.328125 31.9375 
Q 39.9375 38.8125 36.609375 42.59375 
Q 33.296875 46.390625 27.640625 46.390625 
z
" id="Roboto-Regular-101"/>
       <path d="M 39.453125 0 
Q 38.671875 1.5625 38.1875 5.5625 
Q 31.890625 -0.984375 23.140625 -0.984375 
Q 15.328125 -0.984375 10.328125 3.4375 
Q 5.328125 7.859375 5.328125 14.65625 
Q 5.328125 22.90625 11.59375 27.46875 
Q 17.875 32.03125 29.25 32.03125 
L 38.03125 32.03125 
L 38.03125 36.1875 
Q 38.03125 40.921875 35.203125 43.71875 
Q 32.375 46.53125 26.859375 46.53125 
Q 22.015625 46.53125 18.75 44.09375 
Q 15.484375 41.65625 15.484375 38.1875 
L 6.390625 38.1875 
Q 6.390625 42.140625 9.203125 45.828125 
Q 12.015625 49.515625 16.8125 51.65625 
Q 21.625 53.8125 27.390625 53.8125 
Q 36.53125 53.8125 41.703125 49.234375 
Q 46.875 44.671875 47.078125 36.671875 
L 47.078125 12.359375 
Q 47.078125 5.078125 48.921875 0.78125 
L 48.921875 0 
z
M 24.46875 6.890625 
Q 28.71875 6.890625 32.515625 9.078125 
Q 36.328125 11.28125 38.03125 14.796875 
L 38.03125 25.640625 
L 30.953125 25.640625 
Q 14.359375 25.640625 14.359375 15.921875 
Q 14.359375 11.671875 17.1875 9.28125 
Q 20.015625 6.890625 24.46875 6.890625 
z
" id="Roboto-Regular-97"/>
       <path d="M 32.375 44.734375 
Q 30.328125 45.0625 27.9375 45.0625 
Q 19.046875 45.0625 15.875 37.5 
L 15.875 0 
L 6.84375 0 
L 6.84375 52.828125 
L 15.625 52.828125 
L 15.765625 46.734375 
Q 20.21875 53.8125 28.375 53.8125 
Q 31 53.8125 32.375 53.125 
z
" id="Roboto-Regular-114"/>
      </defs>
      <use xlink:href="#Roboto-Regular-89"/>
      <use x="60.058594" xlink:href="#Roboto-Regular-101"/>
      <use x="113.037109" xlink:href="#Roboto-Regular-97"/>
      <use x="167.431641" xlink:href="#Roboto-Regular-114"/>
     </g>
    </g>
   </g>
   <g id="matplotlib.axis_2">
    <g id="ytick_1">
     <g id="line2d_34">
      <defs>
       <path d="M 0 0 
L -3.5 0 
" id="mcb30c8bdf7" style="stroke:#ffffff;stroke-width:0.8;"/>
      </defs>
      <g>
       <use style="fill:#ffffff;stroke:#ffffff;stroke-width:0.8;" x="50.296875" xlink:href="#mcb30c8bdf7" y="187.13702"/>
      </g>
     </g>
     <g id="text_11">
      <!-- 0 -->
      <g style="fill:#ffffff;" transform="translate(37.68125 190.88702)scale(0.1 -0.1)">
       <use xlink:href="#Roboto-Regular-48"/>
      </g>
     </g>
    </g>
    <g id="ytick_2">
     <g id="line2d_35">
      <g>
       <use style="fill:#ffffff;stroke:#ffffff;stroke-width:0.8;" x="50.296875" xlink:href="#mcb30c8bdf7" y="153.81535"/>
      </g>
     </g>
     <g id="text_12">
      <!-- 500 -->
      <g style="fill:#ffffff;" transform="translate(26.45 157.56535)scale(0.1 -0.1)">
       <use xlink:href="#Roboto-Regular-53"/>
       <use x="56.152344" xlink:href="#Roboto-Regular-48"/>
       <use x="112.304688" xlink:href="#Roboto-Regular-48"/>
      </g>
     </g>
    </g>
    <g id="ytick_3">
     <g id="line2d_36">
      <g>
       <use style="fill:#ffffff;stroke:#ffffff;stroke-width:0.8;" x="50.296875" xlink:href="#mcb30c8bdf7" y="120.493679"/>
      </g>
     </g>
     <g id="text_13">
      <!-- 1000 -->
      <g style="fill:#ffffff;" transform="translate(20.834375 124.243679)scale(0.1 -0.1)">
       <use xlink:href="#Roboto-Regular-49"/>
       <use x="56.152344" xlink:href="#Roboto-Regular-48"/>
       <use x="112.304688" xlink:href="#Roboto-Regular-48"/>
       <use x="168.457031" xlink:href="#Roboto-Regular-48"/>
      </g>
     </g>
    </g>
    <g id="ytick_4">
     <g id="line2d_37">
      <g>
       <use style="fill:#ffffff;stroke:#ffffff;stroke-width:0.8;" x="50.296875" xlink:href="#mcb30c8bdf7" y="87.172009"/>
      </g>
     </g>
     <g id="text_14">
      <!-- 1500 -->
      <g style="fill:#ffffff;" transform="translate(20.834375 90.922009)scale(0.1 -0.1)">
       <use xlink:href="#Roboto-Regular-49"/>
       <use x="56.152344" xlink:href="#Roboto-Regular-53"/>
       <use x="112.304688" xlink:href="#Roboto-Regular-48"/>
       <use x="168.457031" xlink:href="#Roboto-Regular-48"/>
      </g>
     </g>
    </g>
    <g id="ytick_5">
     <g id="line2d_38">
      <g>
       <use style="fill:#ffffff;stroke:#ffffff;stroke-width:0.8;" x="50.296875" xlink:href="#mcb30c8bdf7" y="53.850339"/>
      </g>
     </g>
     <g id="text_15">
      <!-- 2000 -->
      <g style="fill:#ffffff;" transform="translate(20.834375 57.600339)scale(0.1 -0.1)">
       <use xlink:href="#Roboto-Regular-50"/>
       <use x="56.152344" xlink:href="#Roboto-Regular-48"/>
       <use x="112.304688" xlink:href="#Roboto-Regular-48"/>
       <use x="168.457031" xlink:href="#Roboto-Regular-48"/>
      </g>
     </g>
    </g>
    <g id="ytick_6">
     <g id="line2d_39">
      <g>
       <use style="fill:#ffffff;stroke:#ffffff;stroke-width:0.8;" x="50.296875" xlink:href="#mcb30c8bdf7" y="20.528668"/>
      </g>
     </g>
     <g id="text_16">
      <!-- 2500 -->
      <g style="fill:#ffffff;" transform="translate(20.834375 24.278668)scale(0.1 -0.1)">
       <use xlink:href="#Roboto-Regular-50"/>
       <use x="56.152344" xlink:href="#Roboto-Regular-53"/>
       <use x="112.304688" xlink:href="#Roboto-Regular-48"/>
       <use x="168.457031" xlink:href="#Roboto-Regular-48"/>
      </g>
     </g>
    </g>
    <g id="text_17">
     <!-- Hours on sky -->
     <g style="fill:#ffffff;" transform="translate(14.7 126.17476)rotate(-90)scale(0.1 -0.1)">
      <defs>
       <path d="M 62.890625 0 
L 53.46875 0 
L 53.46875 32.859375 
L 17.625 32.859375 
L 17.625 0 
L 8.25 0 
L 8.25 71.09375 
L 17.625 71.09375 
L 17.625 40.53125 
L 53.46875 40.53125 
L 53.46875 71.09375 
L 62.890625 71.09375 
z
" id="Roboto-Regular-72"/>
       <path d="M 4.4375 26.90625 
Q 4.4375 34.671875 7.484375 40.875 
Q 10.546875 47.078125 15.984375 50.4375 
Q 21.4375 53.8125 28.421875 53.8125 
Q 39.203125 53.8125 45.875 46.34375 
Q 52.546875 38.875 52.546875 26.46875 
L 52.546875 25.828125 
Q 52.546875 18.109375 49.578125 11.984375 
Q 46.625 5.859375 41.125 2.4375 
Q 35.640625 -0.984375 28.515625 -0.984375 
Q 17.78125 -0.984375 11.109375 6.484375 
Q 4.4375 13.96875 4.4375 26.265625 
z
M 13.53125 25.828125 
Q 13.53125 17.046875 17.609375 11.71875 
Q 21.6875 6.390625 28.515625 6.390625 
Q 35.40625 6.390625 39.453125 11.78125 
Q 43.5 17.1875 43.5 26.90625 
Q 43.5 35.59375 39.375 40.984375 
Q 35.25 46.390625 28.421875 46.390625 
Q 21.734375 46.390625 17.625 41.0625 
Q 13.53125 35.75 13.53125 25.828125 
z
" id="Roboto-Regular-111"/>
       <path d="M 39.453125 5.21875 
Q 34.1875 -0.984375 23.96875 -0.984375 
Q 15.53125 -0.984375 11.109375 3.921875 
Q 6.6875 8.84375 6.640625 18.453125 
L 6.640625 52.828125 
L 15.671875 52.828125 
L 15.671875 18.703125 
Q 15.671875 6.6875 25.4375 6.6875 
Q 35.796875 6.6875 39.203125 14.40625 
L 39.203125 52.828125 
L 48.25 52.828125 
L 48.25 0 
L 39.65625 0 
z
" id="Roboto-Regular-117"/>
       <path d="M 37.59375 14.015625 
Q 37.59375 17.671875 34.828125 19.703125 
Q 32.078125 21.734375 25.21875 23.1875 
Q 18.359375 24.65625 14.328125 26.703125 
Q 10.296875 28.765625 8.375 31.59375 
Q 6.453125 34.421875 6.453125 38.328125 
Q 6.453125 44.828125 11.9375 49.3125 
Q 17.4375 53.8125 25.984375 53.8125 
Q 34.96875 53.8125 40.546875 49.171875 
Q 46.140625 44.53125 46.140625 37.3125 
L 37.0625 37.3125 
Q 37.0625 41.015625 33.90625 43.703125 
Q 30.765625 46.390625 25.984375 46.390625 
Q 21.046875 46.390625 18.265625 44.234375 
Q 15.484375 42.09375 15.484375 38.625 
Q 15.484375 35.359375 18.0625 33.6875 
Q 20.65625 32.03125 27.421875 30.515625 
Q 34.1875 29 38.375 26.90625 
Q 42.578125 24.8125 44.59375 21.84375 
Q 46.625 18.890625 46.625 14.65625 
Q 46.625 7.5625 40.953125 3.28125 
Q 35.296875 -0.984375 26.265625 -0.984375 
Q 19.921875 -0.984375 15.03125 1.265625 
Q 10.15625 3.515625 7.390625 7.546875 
Q 4.640625 11.578125 4.640625 16.265625 
L 13.671875 16.265625 
Q 13.921875 11.71875 17.3125 9.046875 
Q 20.703125 6.390625 26.265625 6.390625 
Q 31.390625 6.390625 34.484375 8.46875 
Q 37.59375 10.546875 37.59375 14.015625 
z
" id="Roboto-Regular-115"/>
       <path id="Roboto-Regular-32"/>
       <path d="M 15.375 52.828125 
L 15.671875 46.1875 
Q 21.734375 53.8125 31.5 53.8125 
Q 48.25 53.8125 48.390625 34.90625 
L 48.390625 0 
L 39.359375 0 
L 39.359375 34.96875 
Q 39.3125 40.671875 36.75 43.40625 
Q 34.1875 46.140625 28.765625 46.140625 
Q 24.359375 46.140625 21.03125 43.796875 
Q 17.71875 41.453125 15.875 37.640625 
L 15.875 0 
L 6.84375 0 
L 6.84375 52.828125 
z
" id="Roboto-Regular-110"/>
       <path d="M 21.578125 24.46875 
L 15.921875 18.5625 
L 15.921875 0 
L 6.890625 0 
L 6.890625 75 
L 15.921875 75 
L 15.921875 29.640625 
L 20.75 35.453125 
L 37.203125 52.828125 
L 48.1875 52.828125 
L 27.640625 30.765625 
L 50.59375 0 
L 39.984375 0 
z
" id="Roboto-Regular-107"/>
       <path d="M 24.125 13.234375 
L 36.421875 52.828125 
L 46.09375 52.828125 
L 24.859375 -8.15625 
Q 19.921875 -21.34375 9.1875 -21.34375 
L 7.46875 -21.1875 
L 4.109375 -20.5625 
L 4.109375 -13.234375 
L 6.546875 -13.421875 
Q 11.140625 -13.421875 13.703125 -11.5625 
Q 16.265625 -9.71875 17.921875 -4.78125 
L 19.921875 0.59375 
L 1.078125 52.828125 
L 10.9375 52.828125 
z
" id="Roboto-Regular-121"/>
      </defs>
      <use xlink:href="#Roboto-Regular-72"/>
      <use x="71.289062" xlink:href="#Roboto-Regular-111"/>
      <use x="128.320312" xlink:href="#Roboto-Regular-117"/>
      <use x="183.447266" xlink:href="#Roboto-Regular-114"/>
      <use x="217.285156" xlink:href="#Roboto-Regular-115"/>
      <use x="268.847656" xlink:href="#Roboto-Regular-32"/>
      <use x="293.603516" xlink:href="#Roboto-Regular-111"/>
      <use x="350.634766" xlink:href="#Roboto-Regular-110"/>
      <use x="405.810547" xlink:href="#Roboto-Regular-32"/>
      <use x="430.566406" xlink:href="#Roboto-Regular-115"/>
      <use x="482.128906" xlink:href="#Roboto-Regular-107"/>
      <use x="532.8125" xlink:href="#Roboto-Regular-121"/>
     </g>
    </g>
   </g>
   <g id="line2d_40">
    <path clip-path="url(#pfe4f2ecf74)" d="M 53.7268 186.803803 
L 54.283004 185.059969 
L 55.858916 185.059969 
L 56.600521 183.342052 
L 56.693222 183.342052 
L 56.971324 182.669047 
L 57.064025 182.601108 
L 57.249426 182.11239 
L 59.288841 182.11239 
L 59.474243 181.690315 
L 59.566943 181.690315 
L 60.030447 180.258502 
L 64.758182 180.258502 
L 64.943583 179.320682 
L 65.221685 177.996016 
L 67.539202 177.996016 
L 67.910005 176.509869 
L 68.188107 175.454683 
L 70.227522 175.454683 
L 71.061828 170.395343 
L 71.247229 169.900423 
L 78.292481 169.811566 
L 78.570583 169.441325 
L 78.848685 168.621241 
L 83.947223 168.554598 
L 84.318026 167.199517 
L 84.410726 167.199517 
L 84.596128 166.742288 
L 84.87423 165.942568 
L 85.059631 165.942568 
L 85.245032 165.809281 
L 87.191747 165.809281 
L 87.65525 164.013613 
L 88.026053 162.727952 
L 92.197584 162.727952 
L 92.475686 162.461379 
L 92.753788 162.461379 
L 93.12459 161.387977 
L 93.680795 158.988021 
L 94.793203 158.888056 
L 95.164005 157.068322 
L 95.442108 157.068322 
L 95.627509 156.868392 
L 97.945026 156.868392 
L 98.037727 156.668462 
L 98.408529 154.626214 
L 98.50123 154.492927 
L 98.779332 153.248918 
L 101.004148 153.248918 
L 101.374951 151.456212 
L 102.487359 151.389569 
L 102.765461 151.327554 
L 105.824584 151.327554 
L 106.009985 151.140952 
L 106.102686 151.052095 
L 106.844291 147.87043 
L 109.996115 147.87043 
L 110.366917 147.068859 
L 112.962537 147.068859 
L 113.240639 146.275803 
L 116.670564 146.275803 
L 116.948666 145.550502 
L 117.226768 145.461644 
L 117.50487 144.669606 
L 117.690271 144.049823 
L 117.875673 143.527784 
L 118.339176 143.527784 
L 118.89538 141.554474 
L 119.080782 141.165685 
L 119.915088 141.165685 
L 120.378591 140.287103 
L 120.471292 140.287103 
L 120.749394 139.494788 
L 125.66253 139.494788 
L 126.126033 137.879798 
L 126.218734 137.879798 
L 126.589537 136.093201 
L 127.609244 136.093201 
L 127.794646 135.540061 
L 127.887346 135.473418 
L 128.536251 132.601645 
L 128.907054 131.737503 
L 130.204864 131.67086 
L 130.575666 130.833375 
L 130.668367 130.811161 
L 131.224571 128.092668 
L 131.502673 128.092668 
L 131.780775 127.322382 
L 132.058877 126.149459 
L 132.336979 126.087999 
L 132.985884 126.054677 
L 133.171285 125.862152 
L 136.786612 125.862152 
L 137.064714 125.558444 
L 138.547925 125.558444 
L 139.28953 123.271466 
L 141.88515 123.271466 
L 142.070551 122.838285 
L 142.163252 122.838285 
L 142.348653 122.420653 
L 142.534054 122.398438 
L 142.719456 121.964146 
L 143.739163 121.964146 
L 144.109966 120.551307 
L 144.202667 120.551307 
L 144.573469 119.476128 
L 146.427483 119.476128 
L 146.890986 117.675277 
L 147.447191 117.675277 
L 148.096095 115.617664 
L 149.672007 115.617664 
L 150.320912 113.759425 
L 150.413612 113.748318 
L 150.691714 112.968961 
L 151.43332 112.968961 
L 151.711422 112.335849 
L 151.989524 112.143324 
L 152.267626 111.19921 
L 152.360327 111.19921 
L 152.731129 110.366168 
L 152.82383 110.347101 
L 153.101932 109.702882 
L 153.287334 109.362631 
L 153.472735 109.20713 
L 153.658136 109.118272 
L 153.843538 108.418517 
L 154.21434 108.418517 
L 154.863245 106.552503 
L 155.048647 106.483361 
L 155.326749 105.494818 
L 155.975653 105.494818 
L 156.161055 104.965744 
L 156.624558 103.139716 
L 158.385871 103.050859 
L 158.663973 102.85315 
L 160.332585 102.85315 
L 160.88879 101.200765 
L 161.074191 100.42326 
L 161.815796 96.611649 
L 163.391708 96.611649 
L 164.596817 91.142082 
L 165.616524 91.142082 
L 165.894626 89.491179 
L 166.265429 87.722909 
L 167.007035 87.722909 
L 167.192436 87.114233 
L 169.417252 87.114233 
L 169.695354 85.497021 
L 169.880756 84.895935 
L 170.622361 84.895935 
L 170.993164 83.003264 
L 171.456667 83.003264 
L 171.734769 82.010279 
L 171.82747 82.010279 
L 172.105572 80.975085 
L 173.959586 80.975085 
L 174.237688 79.5367 
L 174.608491 79.5367 
L 174.886593 78.389083 
L 175.442797 75.771296 
L 177.111409 75.771296 
L 177.482212 75.062655 
L 179.521627 75.062655 
L 179.799729 74.079665 
L 179.892429 74.079665 
L 180.355933 72.570194 
L 180.448634 72.570194 
L 180.634035 72.117019 
L 183.229654 72.117019 
L 183.415055 71.796761 
L 185.176368 71.796761 
L 185.36177 71.239548 
L 185.45447 71.239548 
L 185.639872 70.886339 
L 185.825273 70.27322 
L 186.010675 69.886689 
L 187.864688 69.886689 
L 188.513593 68.660266 
L 199.730376 68.660266 
L 199.915777 68.033819 
L 200.101178 67.607301 
L 201.398988 67.607301 
L 201.584389 66.707616 
L 201.955192 64.788288 
L 202.140593 64.788288 
L 202.325995 64.288463 
L 218.363213 64.288463 
L 218.455914 64.155176 
L 219.104818 62.055911 
L 222.627444 62.055911 
L 222.812846 61.600515 
L 222.998247 61.019144 
L 223.090948 61.019144 
L 223.46175 59.323627 
L 224.388757 59.323627 
L 224.852261 58.041668 
L 234.678533 58.041668 
L 234.863934 57.313034 
L 248.120132 57.313034 
L 248.490935 56.140111 
L 248.861737 56.140111 
L 249.13984 55.257457 
L 257.3902 55.170821 
L 257.668302 54.417751 
L 265.45516 54.417751 
L 266.011364 51.785339 
L 266.196765 51.34105 
L 266.382166 51.088361 
L 266.84567 51.060593 
L 267.031071 51.060593 
L 267.401874 49.238082 
L 270.831799 49.238082 
L 271.017201 48.816008 
L 271.202602 48.816008 
L 271.573405 48.060717 
L 272.31501 48.060717 
L 272.500412 47.737497 
L 272.685813 47.737497 
L 272.871214 47.515352 
L 273.056616 47.515352 
L 273.427418 45.590378 
L 275.188731 45.590378 
L 275.281432 45.390448 
L 275.559534 44.219746 
L 275.837636 44.219746 
L 276.486541 40.828859 
L 276.671942 40.312373 
L 278.247854 40.312373 
L 278.525956 39.24608 
L 278.711357 39.24608 
L 279.360262 36.780276 
L 284.273398 36.780276 
L 284.5515 36.163825 
L 284.644201 36.163825 
L 284.829602 35.813948 
L 284.922303 35.813948 
L 285.107704 35.40298 
L 288.352228 35.40298 
L 288.723031 34.291758 
L 289.093834 34.258437 
L 289.279235 34.258437 
L 289.650038 32.928902 
L 290.206242 32.928902 
L 290.484344 32.262469 
L 294.841276 32.262469 
L 295.39748 29.80083 
L 296.139086 25.95103 
L 297.529596 25.95103 
L 297.714997 25.56783 
L 299.47631 25.56783 
L 299.847113 24.012819 
L 299.939814 23.879532 
L 300.217916 22.380057 
L 300.310616 22.146805 
L 300.681419 20.314114 
L 301.144923 20.314114 
L 301.330324 20.180827 
L 301.608426 20.147505 
L 302.071929 18.50919 
L 302.442732 18.451432 
L 302.628133 18.127101 
L 304.482147 18.127101 
L 304.667548 17.338488 
L 304.85295 17.338488 
L 305.131052 16.316439 
L 305.409154 16.207218 
L 305.687256 16.116509 
L 305.687256 16.116509 
" style="fill:none;stroke:#8dd3c7;stroke-linecap:square;stroke-width:2;"/>
   </g>
   <g id="patch_87">
    <path d="M 50.296875 187.13702 
L 50.296875 7.2 
" style="fill:none;stroke:#ffffff;stroke-linecap:square;stroke-linejoin:miter;stroke-width:0.8;"/>
   </g>
   <g id="patch_88">
    <path d="M 321.16827 187.13702 
L 321.16827 7.2 
" style="fill:none;stroke:#ffffff;stroke-linecap:square;stroke-linejoin:miter;stroke-width:0.8;"/>
   </g>
   <g id="patch_89">
    <path d="M 50.296875 187.13702 
L 321.16827 187.13702 
" style="fill:none;stroke:#ffffff;stroke-linecap:square;stroke-linejoin:miter;stroke-width:0.8;"/>
   </g>
   <g id="patch_90">
    <path d="M 50.296875 7.2 
L 321.16827 7.2 
" style="fill:none;stroke:#ffffff;stroke-linecap:square;stroke-linejoin:miter;stroke-width:0.8;"/>
   </g>
  </g>
 </g>
 <defs>
  <clipPath id="pfe4f2ecf74">
   <rect height="179.93702" width="270.871395" x="50.296875" y="7.2"/>
  </clipPath>
 </defs>
</svg>
