<?xml version="1.0" encoding="utf-8" standalone="no"?>
<!DOCTYPE svg PUBLIC "-//W3C//DTD SVG 1.1//EN"
  "http://www.w3.org/Graphics/SVG/1.1/DTD/svg11.dtd">
<svg height="224.39952pt" version="1.1" viewBox="0 0 339.59952 224.39952" width="339.59952pt" xmlns="http://www.w3.org/2000/svg" xmlns:xlink="http://www.w3.org/1999/xlink">
 <metadata>
  <rdf:RDF xmlns:cc="http://creativecommons.org/ns#" xmlns:dc="http://purl.org/dc/elements/1.1/" xmlns:rdf="http://www.w3.org/1999/02/22-rdf-syntax-ns#">
   <cc:Work>
    <dc:type rdf:resource="http://purl.org/dc/dcmitype/StillImage"/>
    <dc:date>2021-08-12T14:02:24.815175</dc:date>
    <dc:format>image/svg+xml</dc:format>
    <dc:creator>
     <cc:Agent>
      <dc:title>Matplotlib v3.4.2, https://matplotlib.org/</dc:title>
     </cc:Agent>
    </dc:creator>
   </cc:Work>
  </rdf:RDF>
 </metadata>
 <defs>
  <style type="text/css">*{stroke-linecap:butt;stroke-linejoin:round;}</style>
 </defs>
 <g id="figure_1">
  <g id="patch_1">
   <path d="M 0 224.39952 
L 339.59952 224.39952 
L 339.59952 0 
L 0 0 
z
"/>
  </g>
  <g id="axes_1">
   <g id="patch_2">
    <path d="M 39.748438 187.13702 
L 321.16827 187.13702 
L 321.16827 7.2 
L 39.748438 7.2 
z
"/>
   </g>
   <g id="patch_3">
    <path clip-path="url(#p2f26b989b3)" d="M 43.311933 187.13702 
L 43.311933 7.2 
L 43.408244 7.2 
L 43.408244 187.13702 
z
" style="fill:#bfbbd9;opacity:0.5;"/>
   </g>
   <g id="patch_4">
    <path clip-path="url(#p2f26b989b3)" d="M 43.311933 187.13702 
L 43.311933 7.2 
L 44.27504 7.2 
L 44.27504 187.13702 
z
" style="fill:#bfbbd9;opacity:0.5;"/>
   </g>
   <g id="patch_5">
    <path clip-path="url(#p2f26b989b3)" d="M 45.62339 187.13702 
L 45.62339 7.2 
L 46.971739 7.2 
L 46.971739 187.13702 
z
" style="fill:#bfbbd9;opacity:0.5;"/>
   </g>
   <g id="patch_6">
    <path clip-path="url(#p2f26b989b3)" d="M 49.186885 187.13702 
L 49.186885 7.2 
L 49.86106 7.2 
L 49.86106 187.13702 
z
" style="fill:#bfbbd9;opacity:0.5;"/>
   </g>
   <g id="patch_7">
    <path clip-path="url(#p2f26b989b3)" d="M 54.772905 187.13702 
L 54.772905 7.2 
L 55.350769 7.2 
L 55.350769 187.13702 
z
" style="fill:#bfbbd9;opacity:0.5;"/>
   </g>
   <g id="patch_8">
    <path clip-path="url(#p2f26b989b3)" d="M 57.758536 187.13702 
L 57.758536 7.2 
L 58.625332 7.2 
L 58.625332 187.13702 
z
" style="fill:#bfbbd9;opacity:0.5;"/>
   </g>
   <g id="patch_9">
    <path clip-path="url(#p2f26b989b3)" d="M 60.551546 187.13702 
L 60.551546 7.2 
L 61.707275 7.2 
L 61.707275 187.13702 
z
" style="fill:#bfbbd9;opacity:0.5;"/>
   </g>
   <g id="patch_10">
    <path clip-path="url(#p2f26b989b3)" d="M 62.285139 187.13702 
L 62.285139 7.2 
L 62.47776 7.2 
L 62.47776 187.13702 
z
" style="fill:#bfbbd9;opacity:0.5;"/>
   </g>
   <g id="patch_11">
    <path clip-path="url(#p2f26b989b3)" d="M 68.930576 187.13702 
L 68.930576 7.2 
L 69.41213 7.2 
L 69.41213 187.13702 
z
" style="fill:#bfbbd9;opacity:0.5;"/>
   </g>
   <g id="patch_12">
    <path clip-path="url(#p2f26b989b3)" d="M 71.819897 187.13702 
L 71.819897 7.2 
L 72.20514 7.2 
L 72.20514 187.13702 
z
" style="fill:#bfbbd9;opacity:0.5;"/>
   </g>
   <g id="patch_13">
    <path clip-path="url(#p2f26b989b3)" d="M 74.805528 187.13702 
L 74.805528 7.2 
L 76.057567 7.2 
L 76.057567 187.13702 
z
" style="fill:#bfbbd9;opacity:0.5;"/>
   </g>
   <g id="patch_14">
    <path clip-path="url(#p2f26b989b3)" d="M 78.176402 187.13702 
L 78.176402 7.2 
L 78.946888 7.2 
L 78.946888 187.13702 
z
" style="fill:#bfbbd9;opacity:0.5;"/>
   </g>
   <g id="patch_15">
    <path clip-path="url(#p2f26b989b3)" d="M 83.377179 187.13702 
L 83.377179 7.2 
L 84.82184 7.2 
L 84.82184 187.13702 
z
" style="fill:#bfbbd9;opacity:0.5;"/>
   </g>
   <g id="patch_16">
    <path clip-path="url(#p2f26b989b3)" d="M 85.977568 187.13702 
L 85.977568 7.2 
L 86.844364 7.2 
L 86.844364 187.13702 
z
" style="fill:#bfbbd9;opacity:0.5;"/>
   </g>
   <g id="patch_17">
    <path clip-path="url(#p2f26b989b3)" d="M 89.05951 187.13702 
L 89.05951 7.2 
L 90.118928 7.2 
L 90.118928 187.13702 
z
" style="fill:#bfbbd9;opacity:0.5;"/>
   </g>
   <g id="patch_18">
    <path clip-path="url(#p2f26b989b3)" d="M 92.526695 187.13702 
L 92.526695 7.2 
L 92.911938 7.2 
L 92.911938 187.13702 
z
" style="fill:#bfbbd9;opacity:0.5;"/>
   </g>
   <g id="patch_19">
    <path clip-path="url(#p2f26b989b3)" d="M 93.971355 187.13702 
L 93.971355 7.2 
L 94.163977 7.2 
L 94.163977 187.13702 
z
" style="fill:#bfbbd9;opacity:0.5;"/>
   </g>
   <g id="patch_20">
    <path clip-path="url(#p2f26b989b3)" d="M 97.43854 187.13702 
L 97.43854 7.2 
L 98.594268 7.2 
L 98.594268 187.13702 
z
" style="fill:#bfbbd9;opacity:0.5;"/>
   </g>
   <g id="patch_21">
    <path clip-path="url(#p2f26b989b3)" d="M 101.868832 187.13702 
L 101.868832 7.2 
L 102.061453 7.2 
L 102.061453 187.13702 
z
" style="fill:#bfbbd9;opacity:0.5;"/>
   </g>
   <g id="patch_22">
    <path clip-path="url(#p2f26b989b3)" d="M 104.950774 187.13702 
L 104.950774 7.2 
L 105.239706 7.2 
L 105.239706 187.13702 
z
" style="fill:#bfbbd9;opacity:0.5;"/>
   </g>
   <g id="patch_23">
    <path clip-path="url(#p2f26b989b3)" d="M 108.803201 187.13702 
L 108.803201 7.2 
L 110.151551 7.2 
L 110.151551 187.13702 
z
" style="fill:#bfbbd9;opacity:0.5;"/>
   </g>
   <g id="patch_24">
    <path clip-path="url(#p2f26b989b3)" d="M 110.536794 187.13702 
L 110.536794 7.2 
L 111.307279 7.2 
L 111.307279 187.13702 
z
" style="fill:#bfbbd9;opacity:0.5;"/>
   </g>
   <g id="patch_25">
    <path clip-path="url(#p2f26b989b3)" d="M 112.174075 187.13702 
L 112.174075 7.2 
L 112.944561 7.2 
L 112.944561 187.13702 
z
" style="fill:#bfbbd9;opacity:0.5;"/>
   </g>
   <g id="patch_26">
    <path clip-path="url(#p2f26b989b3)" d="M 118.145338 187.13702 
L 118.145338 7.2 
L 119.108445 7.2 
L 119.108445 187.13702 
z
" style="fill:#bfbbd9;opacity:0.5;"/>
   </g>
   <g id="patch_27">
    <path clip-path="url(#p2f26b989b3)" d="M 120.167863 187.13702 
L 120.167863 7.2 
L 121.323591 7.2 
L 121.323591 187.13702 
z
" style="fill:#bfbbd9;opacity:0.5;"/>
   </g>
   <g id="patch_28">
    <path clip-path="url(#p2f26b989b3)" d="M 122.768251 187.13702 
L 122.768251 7.2 
L 125.946504 7.2 
L 125.946504 187.13702 
z
" style="fill:#bfbbd9;opacity:0.5;"/>
   </g>
   <g id="patch_29">
    <path clip-path="url(#p2f26b989b3)" d="M 129.60631 187.13702 
L 129.60631 7.2 
L 129.895242 7.2 
L 129.895242 187.13702 
z
" style="fill:#bfbbd9;opacity:0.5;"/>
   </g>
   <g id="patch_30">
    <path clip-path="url(#p2f26b989b3)" d="M 131.532524 187.13702 
L 131.532524 7.2 
L 132.206699 7.2 
L 132.206699 187.13702 
z
" style="fill:#bfbbd9;opacity:0.5;"/>
   </g>
   <g id="patch_31">
    <path clip-path="url(#p2f26b989b3)" d="M 134.903398 187.13702 
L 134.903398 7.2 
L 135.770194 7.2 
L 135.770194 187.13702 
z
" style="fill:#bfbbd9;opacity:0.5;"/>
   </g>
   <g id="patch_32">
    <path clip-path="url(#p2f26b989b3)" d="M 136.925922 187.13702 
L 136.925922 7.2 
L 137.696408 7.2 
L 137.696408 187.13702 
z
" style="fill:#bfbbd9;opacity:0.5;"/>
   </g>
   <g id="patch_33">
    <path clip-path="url(#p2f26b989b3)" d="M 139.718932 187.13702 
L 139.718932 7.2 
L 140.296797 7.2 
L 140.296797 187.13702 
z
" style="fill:#bfbbd9;opacity:0.5;"/>
   </g>
   <g id="patch_34">
    <path clip-path="url(#p2f26b989b3)" d="M 140.77835 187.13702 
L 140.77835 7.2 
L 141.259903 7.2 
L 141.259903 187.13702 
z
" style="fill:#bfbbd9;opacity:0.5;"/>
   </g>
   <g id="patch_35">
    <path clip-path="url(#p2f26b989b3)" d="M 142.993496 187.13702 
L 142.993496 7.2 
L 144.149224 7.2 
L 144.149224 187.13702 
z
" style="fill:#bfbbd9;opacity:0.5;"/>
   </g>
   <g id="patch_36">
    <path clip-path="url(#p2f26b989b3)" d="M 144.91971 187.13702 
L 144.91971 7.2 
L 147.423788 7.2 
L 147.423788 187.13702 
z
" style="fill:#bfbbd9;opacity:0.5;"/>
   </g>
   <g id="patch_37">
    <path clip-path="url(#p2f26b989b3)" d="M 147.80903 187.13702 
L 147.80903 7.2 
L 148.964759 7.2 
L 148.964759 187.13702 
z
" style="fill:#bfbbd9;opacity:0.5;"/>
   </g>
   <g id="patch_38">
    <path clip-path="url(#p2f26b989b3)" d="M 149.638933 187.13702 
L 149.638933 7.2 
L 150.216797 7.2 
L 150.216797 187.13702 
z
" style="fill:#bfbbd9;opacity:0.5;"/>
   </g>
   <g id="patch_39">
    <path clip-path="url(#p2f26b989b3)" d="M 152.046701 187.13702 
L 152.046701 7.2 
L 152.335633 7.2 
L 152.335633 187.13702 
z
" style="fill:#bfbbd9;opacity:0.5;"/>
   </g>
   <g id="patch_40">
    <path clip-path="url(#p2f26b989b3)" d="M 154.165536 187.13702 
L 154.165536 7.2 
L 155.706507 7.2 
L 155.706507 187.13702 
z
" style="fill:#bfbbd9;opacity:0.5;"/>
   </g>
   <g id="patch_41">
    <path clip-path="url(#p2f26b989b3)" d="M 157.343788 187.13702 
L 157.343788 7.2 
L 158.499517 7.2 
L 158.499517 187.13702 
z
" style="fill:#bfbbd9;opacity:0.5;"/>
   </g>
   <g id="patch_42">
    <path clip-path="url(#p2f26b989b3)" d="M 159.655245 187.13702 
L 159.655245 7.2 
L 160.233109 7.2 
L 160.233109 187.13702 
z
" style="fill:#bfbbd9;opacity:0.5;"/>
   </g>
   <g id="patch_43">
    <path clip-path="url(#p2f26b989b3)" d="M 161.099905 187.13702 
L 161.099905 7.2 
L 161.292527 7.2 
L 161.292527 187.13702 
z
" style="fill:#bfbbd9;opacity:0.5;"/>
   </g>
   <g id="patch_44">
    <path clip-path="url(#p2f26b989b3)" d="M 163.603983 187.13702 
L 163.603983 7.2 
L 164.085537 7.2 
L 164.085537 187.13702 
z
" style="fill:#bfbbd9;opacity:0.5;"/>
   </g>
   <g id="patch_45">
    <path clip-path="url(#p2f26b989b3)" d="M 164.856022 187.13702 
L 164.856022 7.2 
L 165.144954 7.2 
L 165.144954 187.13702 
z
" style="fill:#bfbbd9;opacity:0.5;"/>
   </g>
   <g id="patch_46">
    <path clip-path="url(#p2f26b989b3)" d="M 165.722818 187.13702 
L 165.722818 7.2 
L 166.300683 7.2 
L 166.300683 187.13702 
z
" style="fill:#bfbbd9;opacity:0.5;"/>
   </g>
   <g id="patch_47">
    <path clip-path="url(#p2f26b989b3)" d="M 168.323207 187.13702 
L 168.323207 7.2 
L 168.612139 7.2 
L 168.612139 187.13702 
z
" style="fill:#bfbbd9;opacity:0.5;"/>
   </g>
   <g id="patch_48">
    <path clip-path="url(#p2f26b989b3)" d="M 168.997382 187.13702 
L 168.997382 7.2 
L 169.864178 7.2 
L 169.864178 187.13702 
z
" style="fill:#bfbbd9;opacity:0.5;"/>
   </g>
   <g id="patch_49">
    <path clip-path="url(#p2f26b989b3)" d="M 171.308838 187.13702 
L 171.308838 7.2 
L 171.886702 7.2 
L 171.886702 187.13702 
z
" style="fill:#bfbbd9;opacity:0.5;"/>
   </g>
   <g id="patch_50">
    <path clip-path="url(#p2f26b989b3)" d="M 174.101848 187.13702 
L 174.101848 7.2 
L 175.161266 7.2 
L 175.161266 187.13702 
z
" style="fill:#bfbbd9;opacity:0.5;"/>
   </g>
   <g id="patch_51">
    <path clip-path="url(#p2f26b989b3)" d="M 177.857965 187.13702 
L 177.857965 7.2 
L 178.243208 7.2 
L 178.243208 187.13702 
z
" style="fill:#bfbbd9;opacity:0.5;"/>
   </g>
   <g id="patch_52">
    <path clip-path="url(#p2f26b989b3)" d="M 179.9768 187.13702 
L 179.9768 7.2 
L 180.747286 7.2 
L 180.747286 187.13702 
z
" style="fill:#bfbbd9;opacity:0.5;"/>
   </g>
   <g id="patch_53">
    <path clip-path="url(#p2f26b989b3)" d="M 182.76981 187.13702 
L 182.76981 7.2 
L 182.962432 7.2 
L 182.962432 187.13702 
z
" style="fill:#bfbbd9;opacity:0.5;"/>
   </g>
   <g id="patch_54">
    <path clip-path="url(#p2f26b989b3)" d="M 183.058742 187.13702 
L 183.058742 7.2 
L 183.443985 7.2 
L 183.443985 187.13702 
z
" style="fill:#bfbbd9;opacity:0.5;"/>
   </g>
   <g id="patch_55">
    <path clip-path="url(#p2f26b989b3)" d="M 195.097578 187.13702 
L 195.097578 7.2 
L 195.386511 7.2 
L 195.386511 187.13702 
z
" style="fill:#bfbbd9;opacity:0.5;"/>
   </g>
   <g id="patch_56">
    <path clip-path="url(#p2f26b989b3)" d="M 196.831171 187.13702 
L 196.831171 7.2 
L 197.216414 7.2 
L 197.216414 187.13702 
z
" style="fill:#bfbbd9;opacity:0.5;"/>
   </g>
   <g id="patch_57">
    <path clip-path="url(#p2f26b989b3)" d="M 197.312724 187.13702 
L 197.312724 7.2 
L 197.697967 7.2 
L 197.697967 187.13702 
z
" style="fill:#bfbbd9;opacity:0.5;"/>
   </g>
   <g id="patch_58">
    <path clip-path="url(#p2f26b989b3)" d="M 214.456027 187.13702 
L 214.456027 7.2 
L 215.130202 7.2 
L 215.130202 187.13702 
z
" style="fill:#bfbbd9;opacity:0.5;"/>
   </g>
   <g id="patch_59">
    <path clip-path="url(#p2f26b989b3)" d="M 218.886319 187.13702 
L 218.886319 7.2 
L 219.753115 7.2 
L 219.753115 187.13702 
z
" style="fill:#bfbbd9;opacity:0.5;"/>
   </g>
   <g id="patch_60">
    <path clip-path="url(#p2f26b989b3)" d="M 220.716222 187.13702 
L 220.716222 7.2 
L 221.005154 7.2 
L 221.005154 187.13702 
z
" style="fill:#bfbbd9;opacity:0.5;"/>
   </g>
   <g id="patch_61">
    <path clip-path="url(#p2f26b989b3)" d="M 229.673116 187.13702 
L 229.673116 7.2 
L 230.058358 7.2 
L 230.058358 187.13702 
z
" style="fill:#bfbbd9;opacity:0.5;"/>
   </g>
   <g id="patch_62">
    <path clip-path="url(#p2f26b989b3)" d="M 230.636223 187.13702 
L 230.636223 7.2 
L 231.599329 7.2 
L 231.599329 187.13702 
z
" style="fill:#bfbbd9;opacity:0.5;"/>
   </g>
   <g id="patch_63">
    <path clip-path="url(#p2f26b989b3)" d="M 238.533699 187.13702 
L 238.533699 7.2 
L 238.918942 7.2 
L 238.918942 187.13702 
z
" style="fill:#bfbbd9;opacity:0.5;"/>
   </g>
   <g id="patch_64">
    <path clip-path="url(#p2f26b989b3)" d="M 245.371758 187.13702 
L 245.371758 7.2 
L 245.853311 7.2 
L 245.853311 187.13702 
z
" style="fill:#bfbbd9;opacity:0.5;"/>
   </g>
   <g id="patch_65">
    <path clip-path="url(#p2f26b989b3)" d="M 246.045933 187.13702 
L 246.045933 7.2 
L 246.431176 7.2 
L 246.431176 187.13702 
z
" style="fill:#bfbbd9;opacity:0.5;"/>
   </g>
   <g id="patch_66">
    <path clip-path="url(#p2f26b989b3)" d="M 254.713895 187.13702 
L 254.713895 7.2 
L 255.291759 7.2 
L 255.291759 187.13702 
z
" style="fill:#bfbbd9;opacity:0.5;"/>
   </g>
   <g id="patch_67">
    <path clip-path="url(#p2f26b989b3)" d="M 263.381857 187.13702 
L 263.381857 7.2 
L 264.441274 7.2 
L 264.441274 187.13702 
z
" style="fill:#bfbbd9;opacity:0.5;"/>
   </g>
   <g id="patch_68">
    <path clip-path="url(#p2f26b989b3)" d="M 265.019138 187.13702 
L 265.019138 7.2 
L 265.500692 7.2 
L 265.500692 187.13702 
z
" style="fill:#bfbbd9;opacity:0.5;"/>
   </g>
   <g id="patch_69">
    <path clip-path="url(#p2f26b989b3)" d="M 268.967877 187.13702 
L 268.967877 7.2 
L 269.642052 7.2 
L 269.642052 187.13702 
z
" style="fill:#bfbbd9;opacity:0.5;"/>
   </g>
   <g id="patch_70">
    <path clip-path="url(#p2f26b989b3)" d="M 270.508848 187.13702 
L 270.508848 7.2 
L 270.990401 7.2 
L 270.990401 187.13702 
z
" style="fill:#bfbbd9;opacity:0.5;"/>
   </g>
   <g id="patch_71">
    <path clip-path="url(#p2f26b989b3)" d="M 271.279333 187.13702 
L 271.279333 7.2 
L 271.953508 7.2 
L 271.953508 187.13702 
z
" style="fill:#bfbbd9;opacity:0.5;"/>
   </g>
   <g id="patch_72">
    <path clip-path="url(#p2f26b989b3)" d="M 272.049819 187.13702 
L 272.049819 7.2 
L 272.24244 7.2 
L 272.24244 187.13702 
z
" style="fill:#bfbbd9;opacity:0.5;"/>
   </g>
   <g id="patch_73">
    <path clip-path="url(#p2f26b989b3)" d="M 273.494479 187.13702 
L 273.494479 7.2 
L 273.783411 7.2 
L 273.783411 187.13702 
z
" style="fill:#bfbbd9;opacity:0.5;"/>
   </g>
   <g id="patch_74">
    <path clip-path="url(#p2f26b989b3)" d="M 274.168654 187.13702 
L 274.168654 7.2 
L 274.939139 7.2 
L 274.939139 187.13702 
z
" style="fill:#bfbbd9;opacity:0.5;"/>
   </g>
   <g id="patch_75">
    <path clip-path="url(#p2f26b989b3)" d="M 276.576421 187.13702 
L 276.576421 7.2 
L 276.865353 7.2 
L 276.865353 187.13702 
z
" style="fill:#bfbbd9;opacity:0.5;"/>
   </g>
   <g id="patch_76">
    <path clip-path="url(#p2f26b989b3)" d="M 277.057975 187.13702 
L 277.057975 7.2 
L 277.82846 7.2 
L 277.82846 187.13702 
z
" style="fill:#bfbbd9;opacity:0.5;"/>
   </g>
   <g id="patch_77">
    <path clip-path="url(#p2f26b989b3)" d="M 282.932927 187.13702 
L 282.932927 7.2 
L 283.703412 7.2 
L 283.703412 187.13702 
z
" style="fill:#bfbbd9;opacity:0.5;"/>
   </g>
   <g id="patch_78">
    <path clip-path="url(#p2f26b989b3)" d="M 287.170597 187.13702 
L 287.170597 7.2 
L 287.65215 7.2 
L 287.65215 187.13702 
z
" style="fill:#bfbbd9;opacity:0.5;"/>
   </g>
   <g id="patch_79">
    <path clip-path="url(#p2f26b989b3)" d="M 288.037393 187.13702 
L 288.037393 7.2 
L 288.518947 7.2 
L 288.518947 187.13702 
z
" style="fill:#bfbbd9;opacity:0.5;"/>
   </g>
   <g id="patch_80">
    <path clip-path="url(#p2f26b989b3)" d="M 289.096811 187.13702 
L 289.096811 7.2 
L 289.385743 7.2 
L 289.385743 187.13702 
z
" style="fill:#bfbbd9;opacity:0.5;"/>
   </g>
   <g id="patch_81">
    <path clip-path="url(#p2f26b989b3)" d="M 293.912345 187.13702 
L 293.912345 7.2 
L 295.164384 7.2 
L 295.164384 187.13702 
z
" style="fill:#bfbbd9;opacity:0.5;"/>
   </g>
   <g id="patch_82">
    <path clip-path="url(#p2f26b989b3)" d="M 296.705355 187.13702 
L 296.705355 7.2 
L 297.090598 7.2 
L 297.090598 187.13702 
z
" style="fill:#bfbbd9;opacity:0.5;"/>
   </g>
   <g id="patch_83">
    <path clip-path="url(#p2f26b989b3)" d="M 298.535258 187.13702 
L 298.535258 7.2 
L 299.883608 7.2 
L 299.883608 187.13702 
z
" style="fill:#bfbbd9;opacity:0.5;"/>
   </g>
   <g id="patch_84">
    <path clip-path="url(#p2f26b989b3)" d="M 300.461472 187.13702 
L 300.461472 7.2 
L 302.002443 7.2 
L 302.002443 187.13702 
z
" style="fill:#bfbbd9;opacity:0.5;"/>
   </g>
   <g id="patch_85">
    <path clip-path="url(#p2f26b989b3)" d="M 303.928657 187.13702 
L 303.928657 7.2 
L 306.817977 7.2 
L 306.817977 187.13702 
z
" style="fill:#bfbbd9;opacity:0.5;"/>
   </g>
   <g id="matplotlib.axis_1">
    <g id="xtick_1">
     <g id="line2d_1">
      <defs>
       <path d="M 0 0 
L 0 3.5 
" id="m13b2095248" style="stroke:#ffffff;stroke-width:0.8;"/>
      </defs>
      <g>
       <use style="fill:#ffffff;stroke:#ffffff;stroke-width:0.8;" x="39.748437" xlink:href="#m13b2095248" y="187.13702"/>
      </g>
     </g>
     <g id="text_1">
      <!-- 2014 -->
      <g style="fill:#ffffff;" transform="translate(28.517187 201.63702)scale(0.1 -0.1)">
       <defs>
        <path d="M 3359 0 
L 378 0 
L 378 416 
L 1953 2166 
Q 2303 2563 2436 2811 
Q 2569 3059 2569 3325 
Q 2569 3681 2353 3909 
Q 2138 4138 1778 4138 
Q 1347 4138 1108 3892 
Q 869 3647 869 3209 
L 291 3209 
Q 291 3838 695 4225 
Q 1100 4613 1778 4613 
Q 2413 4613 2781 4280 
Q 3150 3947 3150 3394 
Q 3150 2722 2294 1794 
L 1075 472 
L 3359 472 
L 3359 0 
z
" id="Roboto-Regular-32" transform="scale(0.015625)"/>
        <path d="M 3231 1941 
Q 3231 925 2884 431 
Q 2538 -63 1800 -63 
Q 1072 -63 722 420 
Q 372 903 359 1863 
L 359 2634 
Q 359 3638 706 4125 
Q 1053 4613 1794 4613 
Q 2528 4613 2875 4142 
Q 3222 3672 3231 2691 
L 3231 1941 
z
M 2653 2731 
Q 2653 3466 2447 3802 
Q 2241 4138 1794 4138 
Q 1350 4138 1147 3803 
Q 944 3469 938 2775 
L 938 1850 
Q 938 1113 1152 761 
Q 1366 409 1800 409 
Q 2228 409 2436 740 
Q 2644 1072 2653 1784 
L 2653 2731 
z
" id="Roboto-Regular-30" transform="scale(0.015625)"/>
        <path d="M 2278 0 
L 1697 0 
L 1697 3853 
L 531 3425 
L 531 3950 
L 2188 4572 
L 2278 4572 
L 2278 0 
z
" id="Roboto-Regular-31" transform="scale(0.015625)"/>
        <path d="M 2819 1528 
L 3450 1528 
L 3450 1056 
L 2819 1056 
L 2819 0 
L 2238 0 
L 2238 1056 
L 166 1056 
L 166 1397 
L 2203 4550 
L 2819 4550 
L 2819 1528 
z
M 822 1528 
L 2238 1528 
L 2238 3759 
L 2169 3634 
L 822 1528 
z
" id="Roboto-Regular-34" transform="scale(0.015625)"/>
       </defs>
       <use xlink:href="#Roboto-Regular-32"/>
       <use x="56.152344" xlink:href="#Roboto-Regular-30"/>
       <use x="112.304688" xlink:href="#Roboto-Regular-31"/>
       <use x="168.457031" xlink:href="#Roboto-Regular-34"/>
      </g>
     </g>
    </g>
    <g id="xtick_2">
     <g id="line2d_2">
      <g>
       <use style="fill:#ffffff;stroke:#ffffff;stroke-width:0.8;" x="74.901839" xlink:href="#m13b2095248" y="187.13702"/>
      </g>
     </g>
     <g id="text_2">
      <!-- 2015 -->
      <g style="fill:#ffffff;" transform="translate(63.670589 201.63702)scale(0.1 -0.1)">
       <defs>
        <path d="M 644 2281 
L 875 4550 
L 3206 4550 
L 3206 4016 
L 1366 4016 
L 1228 2775 
Q 1563 2972 1988 2972 
Q 2609 2972 2975 2561 
Q 3341 2150 3341 1450 
Q 3341 747 2961 342 
Q 2581 -63 1900 -63 
Q 1297 -63 915 271 
Q 534 606 481 1197 
L 1028 1197 
Q 1081 806 1306 607 
Q 1531 409 1900 409 
Q 2303 409 2533 684 
Q 2763 959 2763 1444 
Q 2763 1900 2514 2176 
Q 2266 2453 1853 2453 
Q 1475 2453 1259 2288 
L 1106 2163 
L 644 2281 
z
" id="Roboto-Regular-35" transform="scale(0.015625)"/>
       </defs>
       <use xlink:href="#Roboto-Regular-32"/>
       <use x="56.152344" xlink:href="#Roboto-Regular-30"/>
       <use x="112.304688" xlink:href="#Roboto-Regular-31"/>
       <use x="168.457031" xlink:href="#Roboto-Regular-35"/>
      </g>
     </g>
    </g>
    <g id="xtick_3">
     <g id="line2d_3">
      <g>
       <use style="fill:#ffffff;stroke:#ffffff;stroke-width:0.8;" x="110.05524" xlink:href="#m13b2095248" y="187.13702"/>
      </g>
     </g>
     <g id="text_3">
      <!-- 2016 -->
      <g style="fill:#ffffff;" transform="translate(98.82399 201.63702)scale(0.1 -0.1)">
       <defs>
        <path d="M 2647 4553 
L 2647 4063 
L 2541 4063 
Q 1866 4050 1466 3662 
Q 1066 3275 1003 2572 
Q 1363 2984 1984 2984 
Q 2578 2984 2933 2565 
Q 3288 2147 3288 1484 
Q 3288 781 2905 359 
Q 2522 -63 1878 -63 
Q 1225 -63 819 439 
Q 413 941 413 1731 
L 413 1953 
Q 413 3209 948 3873 
Q 1484 4538 2544 4553 
L 2647 4553 
z
M 1888 2503 
Q 1591 2503 1341 2325 
Q 1091 2147 994 1878 
L 994 1666 
Q 994 1103 1247 759 
Q 1500 416 1878 416 
Q 2269 416 2492 703 
Q 2716 991 2716 1456 
Q 2716 1925 2489 2214 
Q 2263 2503 1888 2503 
z
" id="Roboto-Regular-36" transform="scale(0.015625)"/>
       </defs>
       <use xlink:href="#Roboto-Regular-32"/>
       <use x="56.152344" xlink:href="#Roboto-Regular-30"/>
       <use x="112.304688" xlink:href="#Roboto-Regular-31"/>
       <use x="168.457031" xlink:href="#Roboto-Regular-36"/>
      </g>
     </g>
    </g>
    <g id="xtick_4">
     <g id="line2d_4">
      <g>
       <use style="fill:#ffffff;stroke:#ffffff;stroke-width:0.8;" x="145.304952" xlink:href="#m13b2095248" y="187.13702"/>
      </g>
     </g>
     <g id="text_4">
      <!-- 2017 -->
      <g style="fill:#ffffff;" transform="translate(134.073702 201.63702)scale(0.1 -0.1)">
       <defs>
        <path d="M 3316 4225 
L 1431 0 
L 825 0 
L 2703 4075 
L 241 4075 
L 241 4550 
L 3316 4550 
L 3316 4225 
z
" id="Roboto-Regular-37" transform="scale(0.015625)"/>
       </defs>
       <use xlink:href="#Roboto-Regular-32"/>
       <use x="56.152344" xlink:href="#Roboto-Regular-30"/>
       <use x="112.304688" xlink:href="#Roboto-Regular-31"/>
       <use x="168.457031" xlink:href="#Roboto-Regular-37"/>
      </g>
     </g>
    </g>
    <g id="xtick_5">
     <g id="line2d_5">
      <g>
       <use style="fill:#ffffff;stroke:#ffffff;stroke-width:0.8;" x="180.458354" xlink:href="#m13b2095248" y="187.13702"/>
      </g>
     </g>
     <g id="text_5">
      <!-- 2018 -->
      <g style="fill:#ffffff;" transform="translate(169.227104 201.63702)scale(0.1 -0.1)">
       <defs>
        <path d="M 3138 3363 
Q 3138 3022 2958 2756 
Q 2778 2491 2472 2341 
Q 2828 2188 3036 1894 
Q 3244 1600 3244 1228 
Q 3244 638 2845 287 
Q 2447 -63 1797 -63 
Q 1141 -63 745 289 
Q 350 641 350 1228 
Q 350 1597 551 1894 
Q 753 2191 1109 2344 
Q 806 2494 631 2759 
Q 456 3025 456 3363 
Q 456 3938 825 4275 
Q 1194 4613 1797 4613 
Q 2397 4613 2767 4275 
Q 3138 3938 3138 3363 
z
M 2666 1241 
Q 2666 1622 2423 1862 
Q 2181 2103 1790 2103 
Q 1400 2103 1164 1865 
Q 928 1628 928 1240 
Q 928 853 1158 631 
Q 1388 409 1797 409 
Q 2203 409 2434 632 
Q 2666 856 2666 1241 
z
M 1797 4138 
Q 1456 4138 1245 3927 
Q 1034 3716 1034 3353 
Q 1034 3006 1242 2792 
Q 1450 2578 1797 2578 
Q 2144 2578 2351 2792 
Q 2559 3006 2559 3353 
Q 2559 3700 2343 3919 
Q 2128 4138 1797 4138 
z
" id="Roboto-Regular-38" transform="scale(0.015625)"/>
       </defs>
       <use xlink:href="#Roboto-Regular-32"/>
       <use x="56.152344" xlink:href="#Roboto-Regular-30"/>
       <use x="112.304688" xlink:href="#Roboto-Regular-31"/>
       <use x="168.457031" xlink:href="#Roboto-Regular-38"/>
      </g>
     </g>
    </g>
    <g id="xtick_6">
     <g id="line2d_6">
      <g>
       <use style="fill:#ffffff;stroke:#ffffff;stroke-width:0.8;" x="215.611755" xlink:href="#m13b2095248" y="187.13702"/>
      </g>
     </g>
     <g id="text_6">
      <!-- 2019 -->
      <g style="fill:#ffffff;" transform="translate(204.380505 201.63702)scale(0.1 -0.1)">
       <defs>
        <path d="M 2594 2000 
Q 2413 1784 2161 1653 
Q 1909 1522 1609 1522 
Q 1216 1522 923 1715 
Q 631 1909 472 2261 
Q 313 2613 313 3038 
Q 313 3494 486 3859 
Q 659 4225 978 4419 
Q 1297 4613 1722 4613 
Q 2397 4613 2786 4108 
Q 3175 3603 3175 2731 
L 3175 2563 
Q 3175 1234 2650 623 
Q 2125 13 1066 -3 
L 953 -3 
L 953 484 
L 1075 484 
Q 1791 497 2175 858 
Q 2559 1219 2594 2000 
z
M 1703 2000 
Q 1994 2000 2239 2178 
Q 2484 2356 2597 2619 
L 2597 2850 
Q 2597 3419 2350 3775 
Q 2103 4131 1725 4131 
Q 1344 4131 1112 3839 
Q 881 3547 881 3069 
Q 881 2603 1104 2301 
Q 1328 2000 1703 2000 
z
" id="Roboto-Regular-39" transform="scale(0.015625)"/>
       </defs>
       <use xlink:href="#Roboto-Regular-32"/>
       <use x="56.152344" xlink:href="#Roboto-Regular-30"/>
       <use x="112.304688" xlink:href="#Roboto-Regular-31"/>
       <use x="168.457031" xlink:href="#Roboto-Regular-39"/>
      </g>
     </g>
    </g>
    <g id="xtick_7">
     <g id="line2d_7">
      <g>
       <use style="fill:#ffffff;stroke:#ffffff;stroke-width:0.8;" x="250.765157" xlink:href="#m13b2095248" y="187.13702"/>
      </g>
     </g>
     <g id="text_7">
      <!-- 2020 -->
      <g style="fill:#ffffff;" transform="translate(239.533907 201.63702)scale(0.1 -0.1)">
       <use xlink:href="#Roboto-Regular-32"/>
       <use x="56.152344" xlink:href="#Roboto-Regular-30"/>
       <use x="112.304688" xlink:href="#Roboto-Regular-32"/>
       <use x="168.457031" xlink:href="#Roboto-Regular-30"/>
      </g>
     </g>
    </g>
    <g id="xtick_8">
     <g id="line2d_8">
      <g>
       <use style="fill:#ffffff;stroke:#ffffff;stroke-width:0.8;" x="286.014869" xlink:href="#m13b2095248" y="187.13702"/>
      </g>
     </g>
     <g id="text_8">
      <!-- 2021 -->
      <g style="fill:#ffffff;" transform="translate(274.783619 201.63702)scale(0.1 -0.1)">
       <use xlink:href="#Roboto-Regular-32"/>
       <use x="56.152344" xlink:href="#Roboto-Regular-30"/>
       <use x="112.304688" xlink:href="#Roboto-Regular-32"/>
       <use x="168.457031" xlink:href="#Roboto-Regular-31"/>
      </g>
     </g>
    </g>
    <g id="xtick_9">
     <g id="line2d_9">
      <g>
       <use style="fill:#ffffff;stroke:#ffffff;stroke-width:0.8;" x="321.16827" xlink:href="#m13b2095248" y="187.13702"/>
      </g>
     </g>
     <g id="text_9">
      <!-- 2022 -->
      <g style="fill:#ffffff;" transform="translate(309.93702 201.63702)scale(0.1 -0.1)">
       <use xlink:href="#Roboto-Regular-32"/>
       <use x="56.152344" xlink:href="#Roboto-Regular-30"/>
       <use x="112.304688" xlink:href="#Roboto-Regular-32"/>
       <use x="168.457031" xlink:href="#Roboto-Regular-32"/>
      </g>
     </g>
    </g>
    <g id="xtick_10">
     <g id="line2d_10">
      <defs>
       <path d="M 0 0 
L 0 2 
" id="m1d1376e58c" style="stroke:#ffffff;stroke-width:0.6;"/>
      </defs>
      <g>
       <use style="fill:#ffffff;stroke:#ffffff;stroke-width:0.6;" x="48.416399" xlink:href="#m1d1376e58c" y="187.13702"/>
      </g>
     </g>
    </g>
    <g id="xtick_11">
     <g id="line2d_11">
      <g>
       <use style="fill:#ffffff;stroke:#ffffff;stroke-width:0.6;" x="57.180672" xlink:href="#m1d1376e58c" y="187.13702"/>
      </g>
     </g>
    </g>
    <g id="xtick_12">
     <g id="line2d_12">
      <g>
       <use style="fill:#ffffff;stroke:#ffffff;stroke-width:0.6;" x="66.041256" xlink:href="#m1d1376e58c" y="187.13702"/>
      </g>
     </g>
    </g>
    <g id="xtick_13">
     <g id="line2d_13">
      <g>
       <use style="fill:#ffffff;stroke:#ffffff;stroke-width:0.6;" x="83.569801" xlink:href="#m1d1376e58c" y="187.13702"/>
      </g>
     </g>
    </g>
    <g id="xtick_14">
     <g id="line2d_14">
      <g>
       <use style="fill:#ffffff;stroke:#ffffff;stroke-width:0.6;" x="92.334074" xlink:href="#m1d1376e58c" y="187.13702"/>
      </g>
     </g>
    </g>
    <g id="xtick_15">
     <g id="line2d_15">
      <g>
       <use style="fill:#ffffff;stroke:#ffffff;stroke-width:0.6;" x="101.194657" xlink:href="#m1d1376e58c" y="187.13702"/>
      </g>
     </g>
    </g>
    <g id="xtick_16">
     <g id="line2d_16">
      <g>
       <use style="fill:#ffffff;stroke:#ffffff;stroke-width:0.6;" x="118.819513" xlink:href="#m1d1376e58c" y="187.13702"/>
      </g>
     </g>
    </g>
    <g id="xtick_17">
     <g id="line2d_17">
      <g>
       <use style="fill:#ffffff;stroke:#ffffff;stroke-width:0.6;" x="127.583786" xlink:href="#m1d1376e58c" y="187.13702"/>
      </g>
     </g>
    </g>
    <g id="xtick_18">
     <g id="line2d_18">
      <g>
       <use style="fill:#ffffff;stroke:#ffffff;stroke-width:0.6;" x="136.444369" xlink:href="#m1d1376e58c" y="187.13702"/>
      </g>
     </g>
    </g>
    <g id="xtick_19">
     <g id="line2d_19">
      <g>
       <use style="fill:#ffffff;stroke:#ffffff;stroke-width:0.6;" x="153.972914" xlink:href="#m1d1376e58c" y="187.13702"/>
      </g>
     </g>
    </g>
    <g id="xtick_20">
     <g id="line2d_20">
      <g>
       <use style="fill:#ffffff;stroke:#ffffff;stroke-width:0.6;" x="162.737187" xlink:href="#m1d1376e58c" y="187.13702"/>
      </g>
     </g>
    </g>
    <g id="xtick_21">
     <g id="line2d_21">
      <g>
       <use style="fill:#ffffff;stroke:#ffffff;stroke-width:0.6;" x="171.59777" xlink:href="#m1d1376e58c" y="187.13702"/>
      </g>
     </g>
    </g>
    <g id="xtick_22">
     <g id="line2d_22">
      <g>
       <use style="fill:#ffffff;stroke:#ffffff;stroke-width:0.6;" x="189.126316" xlink:href="#m1d1376e58c" y="187.13702"/>
      </g>
     </g>
    </g>
    <g id="xtick_23">
     <g id="line2d_23">
      <g>
       <use style="fill:#ffffff;stroke:#ffffff;stroke-width:0.6;" x="197.890588" xlink:href="#m1d1376e58c" y="187.13702"/>
      </g>
     </g>
    </g>
    <g id="xtick_24">
     <g id="line2d_24">
      <g>
       <use style="fill:#ffffff;stroke:#ffffff;stroke-width:0.6;" x="206.751172" xlink:href="#m1d1376e58c" y="187.13702"/>
      </g>
     </g>
    </g>
    <g id="xtick_25">
     <g id="line2d_25">
      <g>
       <use style="fill:#ffffff;stroke:#ffffff;stroke-width:0.6;" x="224.279717" xlink:href="#m1d1376e58c" y="187.13702"/>
      </g>
     </g>
    </g>
    <g id="xtick_26">
     <g id="line2d_26">
      <g>
       <use style="fill:#ffffff;stroke:#ffffff;stroke-width:0.6;" x="233.04399" xlink:href="#m1d1376e58c" y="187.13702"/>
      </g>
     </g>
    </g>
    <g id="xtick_27">
     <g id="line2d_27">
      <g>
       <use style="fill:#ffffff;stroke:#ffffff;stroke-width:0.6;" x="241.904573" xlink:href="#m1d1376e58c" y="187.13702"/>
      </g>
     </g>
    </g>
    <g id="xtick_28">
     <g id="line2d_28">
      <g>
       <use style="fill:#ffffff;stroke:#ffffff;stroke-width:0.6;" x="259.529429" xlink:href="#m1d1376e58c" y="187.13702"/>
      </g>
     </g>
    </g>
    <g id="xtick_29">
     <g id="line2d_29">
      <g>
       <use style="fill:#ffffff;stroke:#ffffff;stroke-width:0.6;" x="268.293702" xlink:href="#m1d1376e58c" y="187.13702"/>
      </g>
     </g>
    </g>
    <g id="xtick_30">
     <g id="line2d_30">
      <g>
       <use style="fill:#ffffff;stroke:#ffffff;stroke-width:0.6;" x="277.154285" xlink:href="#m1d1376e58c" y="187.13702"/>
      </g>
     </g>
    </g>
    <g id="xtick_31">
     <g id="line2d_31">
      <g>
       <use style="fill:#ffffff;stroke:#ffffff;stroke-width:0.6;" x="294.682831" xlink:href="#m1d1376e58c" y="187.13702"/>
      </g>
     </g>
    </g>
    <g id="xtick_32">
     <g id="line2d_32">
      <g>
       <use style="fill:#ffffff;stroke:#ffffff;stroke-width:0.6;" x="303.447103" xlink:href="#m1d1376e58c" y="187.13702"/>
      </g>
     </g>
    </g>
    <g id="xtick_33">
     <g id="line2d_33">
      <g>
       <use style="fill:#ffffff;stroke:#ffffff;stroke-width:0.6;" x="312.307687" xlink:href="#m1d1376e58c" y="187.13702"/>
      </g>
     </g>
    </g>
    <g id="text_10">
     <!-- Year -->
     <g style="fill:#ffffff;" transform="translate(170.394291 215.16827)scale(0.1 -0.1)">
      <defs>
       <path d="M 1916 2266 
L 3103 4550 
L 3784 4550 
L 2216 1697 
L 2216 0 
L 1616 0 
L 1616 1697 
L 47 4550 
L 734 4550 
L 1916 2266 
z
" id="Roboto-Regular-59" transform="scale(0.015625)"/>
       <path d="M 1841 -63 
Q 1153 -63 722 389 
Q 291 841 291 1597 
L 291 1703 
Q 291 2206 483 2601 
Q 675 2997 1020 3220 
Q 1366 3444 1769 3444 
Q 2428 3444 2793 3009 
Q 3159 2575 3159 1766 
L 3159 1525 
L 869 1525 
Q 881 1025 1161 717 
Q 1441 409 1872 409 
Q 2178 409 2390 534 
Q 2603 659 2763 866 
L 3116 591 
Q 2691 -63 1841 -63 
z
M 1769 2969 
Q 1419 2969 1181 2714 
Q 944 2459 888 2000 
L 2581 2000 
L 2581 2044 
Q 2556 2484 2343 2726 
Q 2131 2969 1769 2969 
z
" id="Roboto-Regular-65" transform="scale(0.015625)"/>
       <path d="M 2525 0 
Q 2475 100 2444 356 
Q 2041 -63 1481 -63 
Q 981 -63 661 220 
Q 341 503 341 938 
Q 341 1466 742 1758 
Q 1144 2050 1872 2050 
L 2434 2050 
L 2434 2316 
Q 2434 2619 2253 2798 
Q 2072 2978 1719 2978 
Q 1409 2978 1200 2822 
Q 991 2666 991 2444 
L 409 2444 
Q 409 2697 589 2933 
Q 769 3169 1076 3306 
Q 1384 3444 1753 3444 
Q 2338 3444 2669 3151 
Q 3000 2859 3013 2347 
L 3013 791 
Q 3013 325 3131 50 
L 3131 0 
L 2525 0 
z
M 1566 441 
Q 1838 441 2081 581 
Q 2325 722 2434 947 
L 2434 1641 
L 1981 1641 
Q 919 1641 919 1019 
Q 919 747 1100 594 
Q 1281 441 1566 441 
z
" id="Roboto-Regular-61" transform="scale(0.015625)"/>
       <path d="M 2072 2863 
Q 1941 2884 1788 2884 
Q 1219 2884 1016 2400 
L 1016 0 
L 438 0 
L 438 3381 
L 1000 3381 
L 1009 2991 
Q 1294 3444 1816 3444 
Q 1984 3444 2072 3400 
L 2072 2863 
z
" id="Roboto-Regular-72" transform="scale(0.015625)"/>
      </defs>
      <use xlink:href="#Roboto-Regular-59"/>
      <use x="60.058594" xlink:href="#Roboto-Regular-65"/>
      <use x="113.037109" xlink:href="#Roboto-Regular-61"/>
      <use x="167.431641" xlink:href="#Roboto-Regular-72"/>
     </g>
    </g>
   </g>
   <g id="matplotlib.axis_2">
    <g id="ytick_1">
     <g id="line2d_34">
      <defs>
       <path d="M 0 0 
L -3.5 0 
" id="m987587b9d5" style="stroke:#ffffff;stroke-width:0.8;"/>
      </defs>
      <g>
       <use style="fill:#ffffff;stroke:#ffffff;stroke-width:0.8;" x="39.748438" xlink:href="#m987587b9d5" y="187.13702"/>
      </g>
     </g>
     <g id="text_11">
      <!-- 0 -->
      <g style="fill:#ffffff;" transform="translate(27.132813 190.88702)scale(0.1 -0.1)">
       <use xlink:href="#Roboto-Regular-30"/>
      </g>
     </g>
    </g>
    <g id="ytick_2">
     <g id="line2d_35">
      <g>
       <use style="fill:#ffffff;stroke:#ffffff;stroke-width:0.8;" x="39.748438" xlink:href="#m987587b9d5" y="154.421198"/>
      </g>
     </g>
     <g id="text_12">
      <!-- 2 -->
      <g style="fill:#ffffff;" transform="translate(27.132813 158.171198)scale(0.1 -0.1)">
       <use xlink:href="#Roboto-Regular-32"/>
      </g>
     </g>
    </g>
    <g id="ytick_3">
     <g id="line2d_36">
      <g>
       <use style="fill:#ffffff;stroke:#ffffff;stroke-width:0.8;" x="39.748438" xlink:href="#m987587b9d5" y="121.705376"/>
      </g>
     </g>
     <g id="text_13">
      <!-- 4 -->
      <g style="fill:#ffffff;" transform="translate(27.132813 125.455376)scale(0.1 -0.1)">
       <use xlink:href="#Roboto-Regular-34"/>
      </g>
     </g>
    </g>
    <g id="ytick_4">
     <g id="line2d_37">
      <g>
       <use style="fill:#ffffff;stroke:#ffffff;stroke-width:0.8;" x="39.748438" xlink:href="#m987587b9d5" y="88.989555"/>
      </g>
     </g>
     <g id="text_14">
      <!-- 6 -->
      <g style="fill:#ffffff;" transform="translate(27.132813 92.739555)scale(0.1 -0.1)">
       <use xlink:href="#Roboto-Regular-36"/>
      </g>
     </g>
    </g>
    <g id="ytick_5">
     <g id="line2d_38">
      <g>
       <use style="fill:#ffffff;stroke:#ffffff;stroke-width:0.8;" x="39.748438" xlink:href="#m987587b9d5" y="56.273733"/>
      </g>
     </g>
     <g id="text_15">
      <!-- 8 -->
      <g style="fill:#ffffff;" transform="translate(27.132813 60.023733)scale(0.1 -0.1)">
       <use xlink:href="#Roboto-Regular-38"/>
      </g>
     </g>
    </g>
    <g id="ytick_6">
     <g id="line2d_39">
      <g>
       <use style="fill:#ffffff;stroke:#ffffff;stroke-width:0.8;" x="39.748438" xlink:href="#m987587b9d5" y="23.557911"/>
      </g>
     </g>
     <g id="text_16">
      <!-- 10 -->
      <g style="fill:#ffffff;" transform="translate(21.517188 27.307911)scale(0.1 -0.1)">
       <use xlink:href="#Roboto-Regular-31"/>
       <use x="56.152344" xlink:href="#Roboto-Regular-30"/>
      </g>
     </g>
    </g>
    <g id="text_17">
     <!-- Number of spectra or stars (×100000) -->
     <g style="fill:#ffffff;" transform="translate(15.221875 181.195073)rotate(-90)scale(0.1 -0.1)">
      <defs>
       <path d="M 4025 0 
L 3422 0 
L 1131 3506 
L 1131 0 
L 528 0 
L 528 4550 
L 1131 4550 
L 3428 1028 
L 3428 4550 
L 4025 4550 
L 4025 0 
z
" id="Roboto-Regular-4e" transform="scale(0.015625)"/>
       <path d="M 2525 334 
Q 2188 -63 1534 -63 
Q 994 -63 711 251 
Q 428 566 425 1181 
L 425 3381 
L 1003 3381 
L 1003 1197 
Q 1003 428 1628 428 
Q 2291 428 2509 922 
L 2509 3381 
L 3088 3381 
L 3088 0 
L 2538 0 
L 2525 334 
z
" id="Roboto-Regular-75" transform="scale(0.015625)"/>
       <path d="M 981 3381 
L 997 3006 
Q 1369 3444 2000 3444 
Q 2709 3444 2966 2900 
Q 3134 3144 3404 3294 
Q 3675 3444 4044 3444 
Q 5156 3444 5175 2266 
L 5175 0 
L 4597 0 
L 4597 2231 
Q 4597 2594 4431 2773 
Q 4266 2953 3875 2953 
Q 3553 2953 3340 2761 
Q 3128 2569 3094 2244 
L 3094 0 
L 2513 0 
L 2513 2216 
Q 2513 2953 1791 2953 
Q 1222 2953 1013 2469 
L 1013 0 
L 434 0 
L 434 3381 
L 981 3381 
z
" id="Roboto-Regular-6d" transform="scale(0.015625)"/>
       <path d="M 3300 1653 
Q 3300 878 2944 407 
Q 2588 -63 1988 -63 
Q 1347 -63 997 391 
L 969 0 
L 438 0 
L 438 4800 
L 1016 4800 
L 1016 3009 
Q 1366 3444 1981 3444 
Q 2597 3444 2948 2978 
Q 3300 2513 3300 1703 
L 3300 1653 
z
M 2722 1719 
Q 2722 2309 2494 2631 
Q 2266 2953 1838 2953 
Q 1266 2953 1016 2422 
L 1016 959 
Q 1281 428 1844 428 
Q 2259 428 2490 750 
Q 2722 1072 2722 1719 
z
" id="Roboto-Regular-62" transform="scale(0.015625)"/>
       <path id="Roboto-Regular-20" transform="scale(0.015625)"/>
       <path d="M 284 1722 
Q 284 2219 479 2616 
Q 675 3013 1023 3228 
Q 1372 3444 1819 3444 
Q 2509 3444 2936 2966 
Q 3363 2488 3363 1694 
L 3363 1653 
Q 3363 1159 3173 767 
Q 2984 375 2632 156 
Q 2281 -63 1825 -63 
Q 1138 -63 711 415 
Q 284 894 284 1681 
L 284 1722 
z
M 866 1653 
Q 866 1091 1127 750 
Q 1388 409 1825 409 
Q 2266 409 2525 754 
Q 2784 1100 2784 1722 
Q 2784 2278 2520 2623 
Q 2256 2969 1819 2969 
Q 1391 2969 1128 2628 
Q 866 2288 866 1653 
z
" id="Roboto-Regular-6f" transform="scale(0.015625)"/>
       <path d="M 722 0 
L 722 2934 
L 188 2934 
L 188 3381 
L 722 3381 
L 722 3728 
Q 722 4272 1012 4569 
Q 1303 4866 1834 4866 
Q 2034 4866 2231 4813 
L 2200 4344 
Q 2053 4372 1888 4372 
Q 1606 4372 1453 4208 
Q 1300 4044 1300 3738 
L 1300 3381 
L 2022 3381 
L 2022 2934 
L 1300 2934 
L 1300 0 
L 722 0 
z
" id="Roboto-Regular-66" transform="scale(0.015625)"/>
       <path d="M 2406 897 
Q 2406 1131 2229 1261 
Q 2053 1391 1614 1484 
Q 1175 1578 917 1709 
Q 659 1841 536 2022 
Q 413 2203 413 2453 
Q 413 2869 764 3156 
Q 1116 3444 1663 3444 
Q 2238 3444 2595 3147 
Q 2953 2850 2953 2388 
L 2372 2388 
Q 2372 2625 2170 2797 
Q 1969 2969 1663 2969 
Q 1347 2969 1169 2831 
Q 991 2694 991 2472 
Q 991 2263 1156 2156 
Q 1322 2050 1755 1953 
Q 2188 1856 2456 1722 
Q 2725 1588 2854 1398 
Q 2984 1209 2984 938 
Q 2984 484 2621 210 
Q 2259 -63 1681 -63 
Q 1275 -63 962 81 
Q 650 225 473 483 
Q 297 741 297 1041 
L 875 1041 
Q 891 750 1108 579 
Q 1325 409 1681 409 
Q 2009 409 2207 542 
Q 2406 675 2406 897 
z
" id="Roboto-Regular-73" transform="scale(0.015625)"/>
       <path d="M 3294 1653 
Q 3294 881 2941 409 
Q 2588 -63 1984 -63 
Q 1369 -63 1016 328 
L 1016 -1300 
L 438 -1300 
L 438 3381 
L 966 3381 
L 994 3006 
Q 1347 3444 1975 3444 
Q 2584 3444 2939 2984 
Q 3294 2525 3294 1706 
L 3294 1653 
z
M 2716 1719 
Q 2716 2291 2472 2622 
Q 2228 2953 1803 2953 
Q 1278 2953 1016 2488 
L 1016 872 
Q 1275 409 1809 409 
Q 2225 409 2470 739 
Q 2716 1069 2716 1719 
z
" id="Roboto-Regular-70" transform="scale(0.015625)"/>
       <path d="M 1794 409 
Q 2103 409 2334 596 
Q 2566 784 2591 1066 
L 3138 1066 
Q 3122 775 2937 512 
Q 2753 250 2445 93 
Q 2138 -63 1794 -63 
Q 1103 -63 695 398 
Q 288 859 288 1659 
L 288 1756 
Q 288 2250 469 2634 
Q 650 3019 989 3231 
Q 1328 3444 1791 3444 
Q 2359 3444 2736 3103 
Q 3113 2763 3138 2219 
L 2591 2219 
Q 2566 2547 2342 2758 
Q 2119 2969 1791 2969 
Q 1350 2969 1108 2651 
Q 866 2334 866 1734 
L 866 1625 
Q 866 1041 1106 725 
Q 1347 409 1794 409 
z
" id="Roboto-Regular-63" transform="scale(0.015625)"/>
       <path d="M 1222 4200 
L 1222 3381 
L 1853 3381 
L 1853 2934 
L 1222 2934 
L 1222 838 
Q 1222 634 1306 532 
Q 1391 431 1594 431 
Q 1694 431 1869 469 
L 1869 0 
Q 1641 -63 1425 -63 
Q 1038 -63 841 171 
Q 644 406 644 838 
L 644 2934 
L 28 2934 
L 28 3381 
L 644 3381 
L 644 4200 
L 1222 4200 
z
" id="Roboto-Regular-74" transform="scale(0.015625)"/>
       <path d="M 416 1847 
Q 416 2553 605 3203 
Q 794 3853 1169 4384 
Q 1544 4916 1947 5134 
L 2066 4753 
Q 1609 4403 1317 3684 
Q 1025 2966 997 2075 
L 994 1809 
Q 994 603 1434 -284 
Q 1700 -816 2066 -1116 
L 1947 -1469 
Q 1531 -1238 1153 -694 
Q 416 369 416 1847 
z
" id="Roboto-Regular-28" transform="scale(0.015625)"/>
       <path d="M 278 1028 
L 1309 2078 
L 284 3125 
L 656 3509 
L 1684 2463 
L 2713 3509 
L 3084 3125 
L 2059 2078 
L 3091 1028 
L 2719 644 
L 1684 1697 
L 650 644 
L 278 1028 
z
" id="Roboto-Regular-d7" transform="scale(0.015625)"/>
       <path d="M 1772 1816 
Q 1772 1119 1589 480 
Q 1406 -159 1029 -700 
Q 653 -1241 241 -1469 
L 119 -1116 
Q 600 -747 892 29 
Q 1184 806 1191 1753 
L 1191 1853 
Q 1191 2509 1053 3073 
Q 916 3638 670 4084 
Q 425 4531 119 4781 
L 241 5134 
Q 653 4906 1026 4372 
Q 1400 3838 1586 3194 
Q 1772 2550 1772 1816 
z
" id="Roboto-Regular-29" transform="scale(0.015625)"/>
      </defs>
      <use xlink:href="#Roboto-Regular-4e"/>
      <use x="71.289062" xlink:href="#Roboto-Regular-75"/>
      <use x="126.416016" xlink:href="#Roboto-Regular-6d"/>
      <use x="214.0625" xlink:href="#Roboto-Regular-62"/>
      <use x="270.166016" xlink:href="#Roboto-Regular-65"/>
      <use x="323.144531" xlink:href="#Roboto-Regular-72"/>
      <use x="356.982422" xlink:href="#Roboto-Regular-20"/>
      <use x="381.738281" xlink:href="#Roboto-Regular-6f"/>
      <use x="438.769531" xlink:href="#Roboto-Regular-66"/>
      <use x="473.486328" xlink:href="#Roboto-Regular-20"/>
      <use x="498.242188" xlink:href="#Roboto-Regular-73"/>
      <use x="549.804688" xlink:href="#Roboto-Regular-70"/>
      <use x="605.908203" xlink:href="#Roboto-Regular-65"/>
      <use x="658.886719" xlink:href="#Roboto-Regular-63"/>
      <use x="711.230469" xlink:href="#Roboto-Regular-74"/>
      <use x="743.896484" xlink:href="#Roboto-Regular-72"/>
      <use x="777.734375" xlink:href="#Roboto-Regular-61"/>
      <use x="832.128906" xlink:href="#Roboto-Regular-20"/>
      <use x="856.884766" xlink:href="#Roboto-Regular-6f"/>
      <use x="913.916016" xlink:href="#Roboto-Regular-72"/>
      <use x="947.753906" xlink:href="#Roboto-Regular-20"/>
      <use x="972.509766" xlink:href="#Roboto-Regular-73"/>
      <use x="1024.072266" xlink:href="#Roboto-Regular-74"/>
      <use x="1056.738281" xlink:href="#Roboto-Regular-61"/>
      <use x="1111.132812" xlink:href="#Roboto-Regular-72"/>
      <use x="1144.970703" xlink:href="#Roboto-Regular-73"/>
      <use x="1196.533203" xlink:href="#Roboto-Regular-20"/>
      <use x="1221.289062" xlink:href="#Roboto-Regular-28"/>
      <use x="1255.46875" xlink:href="#Roboto-Regular-d7"/>
      <use x="1308.789062" xlink:href="#Roboto-Regular-31"/>
      <use x="1364.941406" xlink:href="#Roboto-Regular-30"/>
      <use x="1421.09375" xlink:href="#Roboto-Regular-30"/>
      <use x="1477.246094" xlink:href="#Roboto-Regular-30"/>
      <use x="1533.398438" xlink:href="#Roboto-Regular-30"/>
      <use x="1589.550781" xlink:href="#Roboto-Regular-30"/>
      <use x="1645.703125" xlink:href="#Roboto-Regular-29"/>
     </g>
    </g>
   </g>
   <g id="line2d_40">
    <path clip-path="url(#p2f26b989b3)" d="M 43.311933 187.058011 
L 43.408244 186.979003 
L 43.600865 186.656261 
L 43.986108 186.40942 
L 45.527079 186.40942 
L 46.008632 185.781604 
L 46.104943 185.781604 
L 46.297564 185.456572 
L 46.393875 185.456572 
L 46.682807 184.782789 
L 46.779118 184.670083 
L 46.971739 184.220732 
L 49.090574 184.220732 
L 49.283196 183.931524 
L 49.379506 183.931524 
L 49.764749 182.718421 
L 54.772905 182.718421 
L 54.965526 182.193986 
L 55.254458 181.079522 
L 57.662226 181.079522 
L 57.951158 180.085615 
L 58.047468 179.912221 
L 58.24009 179.442749 
L 58.432711 179.090891 
L 60.455236 179.090891 
L 61.225721 175.743899 
L 61.514653 175.043944 
L 69.026887 174.97704 
L 69.219508 174.564657 
L 69.41213 174.158326 
L 74.709218 174.099274 
L 75.190771 172.98023 
L 75.287082 172.862453 
L 75.672324 171.921382 
L 75.864946 171.921382 
L 76.057567 171.803769 
L 78.080092 171.803769 
L 78.561645 170.338918 
L 78.946888 169.283342 
L 83.280869 169.283342 
L 83.47349 169.108148 
L 83.666112 168.992007 
L 83.858733 168.992007 
L 84.629218 166.835708 
L 84.82184 166.405331 
L 85.977568 166.297859 
L 86.362811 165.08721 
L 86.651743 165.08721 
L 86.844364 164.911199 
L 89.252132 164.911199 
L 89.348442 164.794077 
L 89.926306 162.694212 
L 90.118928 162.167814 
L 92.430384 162.167814 
L 92.815627 160.540202 
L 97.43854 160.439274 
L 97.631161 160.211735 
L 97.727472 160.152847 
L 98.497958 157.741363 
L 101.772521 157.741363 
L 102.061453 157.046479 
L 104.854463 157.046479 
L 105.143395 156.501597 
L 108.706891 156.501597 
L 108.899512 155.884086 
L 109.284755 155.825198 
L 109.477376 155.432281 
L 110.05524 154.290826 
L 110.440483 154.290826 
L 111.114658 152.746312 
L 111.307279 152.597291 
L 112.077765 152.597291 
L 112.463007 151.830923 
L 112.655629 151.830923 
L 112.944561 151.176607 
L 118.049027 151.176607 
L 118.530581 149.650086 
L 118.626892 149.650086 
L 119.108445 148.013968 
L 120.071552 148.013968 
L 120.264173 147.510799 
L 120.360484 147.452565 
L 120.842037 145.713555 
L 121.419902 144.325096 
L 122.768251 144.266371 
L 123.153494 143.460907 
L 123.249805 143.402509 
L 123.827669 141.24441 
L 124.116601 141.24441 
L 124.501844 140.154483 
L 124.694465 139.6644 
L 124.983397 139.606002 
L 125.657572 139.571814 
L 125.850193 139.397111 
L 129.60631 139.397111 
L 129.895242 139.163684 
L 131.436213 139.163684 
L 131.725145 138.414655 
L 132.303009 137.194519 
L 134.903398 137.194519 
L 135.096019 136.879138 
L 135.19233 136.879138 
L 135.384951 136.517628 
L 135.577573 136.492274 
L 135.770194 136.202248 
L 136.829612 136.202248 
L 137.214855 135.153542 
L 137.311165 135.153542 
L 137.696408 134.35593 
L 139.622622 134.35593 
L 140.104175 132.941462 
L 140.682039 132.941462 
L 140.874661 132.385293 
L 141.259903 131.351309 
L 142.993496 131.351309 
L 143.378739 130.494973 
L 143.57136 130.017485 
L 143.763981 129.978553 
L 144.052913 128.908419 
L 144.823399 128.908419 
L 145.112331 128.517628 
L 145.593884 127.882778 
L 146.171749 126.404677 
L 146.268059 126.34677 
L 146.942234 124.746476 
L 147.520098 124.004808 
L 147.71272 124.004808 
L 148.001652 123.352127 
L 148.194273 122.731345 
L 148.290584 122.731345 
L 148.483205 122.277576 
L 148.579516 122.277576 
L 148.868448 121.373147 
L 149.542623 121.373147 
L 149.735244 120.910873 
L 150.216797 119.590626 
L 152.046701 119.533046 
L 152.528254 119.360143 
L 154.069225 119.360143 
L 154.550778 118.38014 
L 155.610196 114.044476 
L 157.247478 114.044476 
L 158.403206 108.161844 
L 159.558934 108.161844 
L 159.847866 106.897541 
L 160.233109 105.081977 
L 161.003595 105.081977 
L 161.196216 104.419481 
L 163.507673 104.419481 
L 163.700294 103.629067 
L 163.989226 102.60817 
L 164.759711 102.60817 
L 165.144954 101.2997 
L 165.626508 101.2997 
L 165.91544 100.502089 
L 166.01175 100.502089 
L 166.300683 99.526339 
L 168.226896 99.526339 
L 168.515828 98.884946 
L 168.901071 98.884946 
L 169.190003 97.734821 
L 169.671557 95.816202 
L 169.864178 95.609765 
L 171.50146 95.609765 
L 171.886702 94.924368 
L 174.005538 94.924368 
L 174.29447 94.459149 
L 174.39078 94.459149 
L 174.583402 93.890548 
L 174.776023 93.502048 
L 175.161266 92.970089 
L 177.857965 92.970089 
L 178.050587 92.587313 
L 179.88049 92.587313 
L 180.073111 91.839757 
L 180.169422 91.839757 
L 180.362043 91.358344 
L 180.747286 90.327304 
L 182.6735 90.327304 
L 183.540296 89.387379 
L 195.001268 89.387379 
L 195.193889 88.854765 
L 195.386511 88.597455 
L 196.73486 88.597455 
L 197.697967 87.033803 
L 214.359716 87.033803 
L 214.552338 86.37556 
L 215.130202 84.527444 
L 218.790008 84.527444 
L 219.560493 82.487121 
L 219.753115 82.19775 
L 220.619911 82.19775 
L 220.812532 81.633729 
L 221.005154 81.209405 
L 231.310397 81.209405 
L 231.503019 80.626409 
L 245.275447 80.626409 
L 245.66069 79.977818 
L 246.045933 79.977818 
L 246.334865 79.561345 
L 254.906516 79.460908 
L 255.195448 78.781237 
L 263.285546 78.781237 
L 263.959721 76.148104 
L 264.056032 76.148104 
L 264.248653 75.919257 
L 264.537585 75.87689 
L 264.922828 75.87689 
L 265.308071 74.569075 
L 268.871566 74.569075 
L 269.064187 74.218688 
L 269.44943 74.117596 
L 269.642052 73.853907 
L 270.412537 73.853907 
L 270.605158 73.59856 
L 270.79778 73.59856 
L 270.990401 73.462462 
L 271.183023 73.462462 
L 271.568265 71.908624 
L 273.398168 71.908624 
L 273.494479 71.779724 
L 273.783411 71.146182 
L 274.072343 71.146182 
L 274.939139 68.929358 
L 276.576421 68.929358 
L 276.769042 68.157591 
L 277.057975 68.157591 
L 277.732149 66.592467 
L 282.836616 66.592467 
L 283.41448 66.066396 
L 283.510791 66.066396 
L 283.703412 65.887277 
L 287.074286 65.887277 
L 287.459529 65.181924 
L 287.748461 65.126143 
L 287.941082 65.126143 
L 288.422636 63.96146 
L 289.0005 63.96146 
L 289.289432 63.578849 
L 293.816034 63.578849 
L 294.58652 61.569934 
L 295.164384 60.067132 
L 296.609044 60.067132 
L 296.801666 59.747172 
L 298.631569 59.747172 
L 299.594676 57.52315 
L 299.883608 56.840044 
L 300.557783 56.731427 
L 300.943025 56.517956 
L 301.231957 55.805733 
L 301.713511 55.753224 
L 301.906132 55.489371 
L 303.832346 55.489371 
L 304.024967 55.063902 
L 304.217589 55.063902 
L 304.506521 54.370653 
L 304.699142 54.370653 
L 304.988074 54.199713 
L 305.277006 54.117106 
L 305.469628 53.822827 
L 305.662249 53.822827 
L 306.432735 52.187527 
L 306.625356 52.160372 
L 306.625356 52.160372 
" style="fill:none;stroke:#8dd3c7;stroke-linecap:square;stroke-width:2;"/>
   </g>
   <g id="line2d_41">
    <path clip-path="url(#p2f26b989b3)" d="M 43.504554 186.897704 
L 45.62339 186.793013 
L 45.7197 186.764878 
L 46.008632 186.448188 
L 46.104943 186.448188 
L 46.297564 186.192187 
L 46.393875 186.192187 
L 46.682807 185.549975 
L 46.779118 185.446266 
L 46.971739 185.025214 
L 49.090574 185.025214 
L 49.283196 184.77003 
L 49.379506 184.77003 
L 49.764749 183.649186 
L 54.772905 183.649186 
L 54.965526 183.178733 
L 55.254458 182.230792 
L 57.662226 182.230792 
L 57.951158 181.343212 
L 58.047468 181.227888 
L 58.24009 180.806836 
L 58.432711 180.499961 
L 60.455236 180.499961 
L 61.225721 177.567315 
L 61.514653 176.937863 
L 69.026887 176.87832 
L 69.219508 176.506668 
L 69.41213 176.153828 
L 74.709218 176.1041 
L 75.190771 175.177751 
L 75.287082 175.076659 
L 75.672324 174.279211 
L 78.080092 174.230138 
L 78.465334 173.201552 
L 78.946888 171.880978 
L 83.280869 171.880978 
L 83.569801 171.60044 
L 83.858733 171.60044 
L 84.918151 169.322437 
L 85.977568 169.227234 
L 86.362811 168.174603 
L 86.651743 168.174603 
L 86.844364 168.032125 
L 89.348442 167.927271 
L 89.829996 166.463565 
L 90.118928 165.52184 
L 92.430384 165.52184 
L 92.815627 164.092322 
L 97.43854 163.998591 
L 97.631161 163.791991 
L 97.727472 163.738173 
L 98.497958 161.564534 
L 101.772521 161.564534 
L 102.061453 160.938026 
L 104.854463 160.938026 
L 105.143395 160.468227 
L 108.706891 160.468227 
L 108.899512 159.920074 
L 109.284755 159.869691 
L 109.477376 159.52045 
L 110.151551 158.53783 
L 110.440483 158.53783 
L 111.018347 157.383616 
L 111.307279 157.15117 
L 112.077765 157.15117 
L 112.463007 156.445653 
L 112.655629 156.445653 
L 112.944561 155.83812 
L 118.049027 155.83812 
L 118.530581 154.42038 
L 118.626892 154.42038 
L 119.108445 152.922977 
L 120.071552 152.922977 
L 120.264173 152.450888 
L 120.360484 152.395107 
L 120.842037 150.830146 
L 120.938348 150.720221 
L 121.22728 149.676586 
L 122.768251 149.624241 
L 123.057183 148.950131 
L 123.249805 148.895332 
L 123.827669 146.936472 
L 124.116601 146.936472 
L 124.501844 145.897582 
L 124.694465 145.443813 
L 124.983397 145.390813 
L 125.753883 145.281052 
L 126.042815 145.227071 
L 129.702621 145.119436 
L 129.895242 145.011474 
L 131.436213 145.011474 
L 132.110388 143.191983 
L 134.903398 143.191983 
L 135.096019 142.901794 
L 135.19233 142.901794 
L 135.384951 142.564821 
L 135.577573 142.544864 
L 135.770194 142.268252 
L 136.829612 142.268252 
L 137.311165 141.309024 
L 137.696408 140.552143 
L 139.622622 140.552143 
L 140.104175 139.2211 
L 140.682039 139.2211 
L 140.874661 138.698138 
L 141.259903 137.731222 
L 142.993496 137.731222 
L 143.378739 136.939335 
L 143.57136 136.502088 
L 143.763981 136.466101 
L 144.052913 135.452401 
L 144.823399 135.452401 
L 145.112331 135.138656 
L 145.401263 134.972951 
L 146.556991 132.365009 
L 146.749613 131.870019 
L 147.038545 131.609437 
L 147.134855 131.609437 
L 147.423788 131.066518 
L 147.71272 131.066518 
L 148.001652 130.489902 
L 148.194273 129.941421 
L 148.290584 129.941421 
L 148.483205 129.574349 
L 148.579516 129.574349 
L 148.868448 128.719976 
L 149.542623 128.719976 
L 149.735244 128.279294 
L 150.216797 127.059484 
L 152.143011 126.950213 
L 152.335633 126.841924 
L 154.069225 126.841924 
L 154.550778 125.903798 
L 155.706507 121.80974 
L 157.247478 121.80974 
L 158.306895 116.678754 
L 158.499517 116.40525 
L 159.558934 116.40525 
L 159.847866 115.218647 
L 160.233109 113.504338 
L 161.003595 113.504338 
L 161.196216 112.903512 
L 163.507673 112.903512 
L 163.700294 112.164298 
L 163.989226 111.194274 
L 164.759711 111.194274 
L 165.144954 109.979862 
L 165.626508 109.979862 
L 165.91544 109.271728 
L 166.01175 109.271728 
L 166.300683 108.534804 
L 168.323207 108.485731 
L 168.70845 108.148758 
L 168.901071 108.148758 
L 168.997382 108.034089 
L 169.864178 105.20875 
L 171.50146 105.20875 
L 171.886702 104.55836 
L 174.005538 104.55836 
L 174.29447 104.169042 
L 174.39078 104.169042 
L 174.583402 103.682067 
L 174.776023 103.316958 
L 175.161266 102.820168 
L 177.857965 102.820168 
L 178.050587 102.462257 
L 179.88049 102.462257 
L 180.073111 101.778824 
L 180.169422 101.778824 
L 180.362043 101.322111 
L 180.747286 100.355031 
L 182.76981 100.264245 
L 182.962432 100.083817 
L 183.058742 100.083817 
L 183.251364 99.720181 
L 183.443985 99.56429 
L 195.001268 99.56429 
L 195.482821 98.895087 
L 196.831171 98.829002 
L 197.409035 97.946165 
L 197.505346 97.946165 
L 197.697967 97.66121 
L 214.359716 97.66121 
L 214.552338 97.055477 
L 215.130202 95.328081 
L 218.886319 95.224209 
L 218.982629 95.162212 
L 219.175251 94.746721 
L 219.271561 94.746721 
L 219.753115 93.702759 
L 220.619911 93.702759 
L 220.812532 93.219056 
L 221.005154 92.847568 
L 231.310397 92.847568 
L 231.503019 92.388238 
L 245.275447 92.388238 
L 245.564379 91.997611 
L 245.757001 91.882942 
L 246.045933 91.882942 
L 246.334865 91.598478 
L 254.906516 91.512272 
L 255.195448 90.964118 
L 263.285546 90.964118 
L 263.7671 89.270911 
L 263.959721 88.816979 
L 264.056032 88.816979 
L 264.248653 88.663869 
L 264.633896 88.631316 
L 264.922828 88.631316 
L 265.308071 87.597169 
L 268.871566 87.597169 
L 269.064187 87.315322 
L 269.44943 87.218974 
L 269.642052 87.052778 
L 270.412537 87.052778 
L 270.605158 86.843887 
L 270.79778 86.843887 
L 270.990401 86.723002 
L 271.183023 86.723002 
L 271.568265 85.480946 
L 273.398168 85.480946 
L 273.59079 85.108477 
L 273.783411 84.836281 
L 274.072343 84.836281 
L 274.746518 83.433917 
L 274.939139 82.991927 
L 276.576421 82.991927 
L 276.769042 82.294589 
L 277.057975 82.294589 
L 277.82846 80.883392 
L 282.932927 80.779519 
L 283.125548 80.589604 
L 283.221859 80.589604 
L 283.41448 80.433876 
L 283.510791 80.433876 
L 283.703412 80.306285 
L 287.074286 80.306285 
L 287.459529 79.771545 
L 287.941082 79.761566 
L 288.518947 78.822459 
L 289.0005 78.822459 
L 289.193121 78.489248 
L 293.816034 78.489248 
L 294.682831 76.624773 
L 295.068073 75.653441 
L 296.609044 75.653441 
L 296.801666 75.42901 
L 298.631569 75.42901 
L 299.016812 74.868915 
L 299.113122 74.822622 
L 299.787297 73.18634 
L 300.846715 73.099971 
L 301.424579 72.569974 
L 303.832346 72.473953 
L 304.024967 72.142706 
L 304.217589 72.142706 
L 304.506521 71.776288 
L 304.795453 71.677977 
L 305.277006 71.610092 
L 305.469628 71.356054 
L 305.662249 71.356054 
L 306.432735 69.981498 
L 306.625356 69.960888 
L 306.625356 69.960888 
" style="fill:none;stroke:#8dd3c7;stroke-dasharray:3.7,1.6;stroke-dashoffset:0;"/>
   </g>
   <g id="line2d_42">
    <path clip-path="url(#p2f26b989b3)" d="M 43.311933 187.058011 
L 43.408244 187.058011 
L 43.600865 186.887725 
L 45.7197 186.803319 
L 46.297564 186.24764 
L 46.393875 186.24764 
L 46.682807 185.636836 
L 46.779118 185.580728 
L 46.971739 185.244083 
L 49.090574 185.244083 
L 49.283196 184.954875 
L 49.379506 184.954875 
L 49.764749 183.741936 
L 54.772905 183.741936 
L 54.965526 183.217665 
L 55.254458 182.171413 
L 57.662226 182.171413 
L 57.951158 181.177506 
L 58.047468 181.004276 
L 58.24009 180.535131 
L 58.432711 180.211735 
L 60.455236 180.211735 
L 61.225721 176.89206 
L 61.514653 176.19276 
L 69.026887 176.125856 
L 69.219508 175.7138 
L 69.41213 175.307797 
L 74.709218 175.248745 
L 75.190771 174.130027 
L 75.287082 174.01225 
L 75.672324 173.07167 
L 75.864946 173.07167 
L 76.057567 172.954057 
L 78.080092 172.954057 
L 78.561645 171.48937 
L 78.946888 170.434939 
L 83.280869 170.434939 
L 83.47349 170.260236 
L 83.666112 170.144095 
L 83.858733 170.144095 
L 84.629218 168.062224 
L 84.82184 167.632174 
L 85.977568 167.524866 
L 86.362811 166.600481 
L 86.651743 166.600481 
L 86.844364 166.42447 
L 89.252132 166.42447 
L 89.348442 166.307347 
L 90.215238 163.92858 
L 92.430384 163.92858 
L 92.815627 162.823603 
L 97.43854 162.722838 
L 97.631161 162.495299 
L 97.727472 162.436575 
L 98.497958 160.027054 
L 101.772521 160.027054 
L 102.061453 159.368158 
L 104.854463 159.368158 
L 105.143395 158.823603 
L 108.706891 158.823603 
L 108.899512 158.206419 
L 109.284755 158.14753 
L 109.477376 157.755268 
L 109.669998 157.655157 
L 109.95893 156.950458 
L 110.440483 156.950458 
L 111.114658 155.411997 
L 111.307279 155.263467 
L 112.077765 155.263467 
L 112.559318 154.53096 
L 112.655629 154.53096 
L 112.944561 153.877461 
L 118.049027 153.877461 
L 118.530581 152.387583 
L 118.626892 152.387583 
L 119.108445 150.786634 
L 120.071552 150.786634 
L 120.264173 150.339736 
L 120.360484 150.281502 
L 120.842037 148.547727 
L 121.323591 147.331352 
L 122.768251 147.272628 
L 123.153494 146.467328 
L 123.249805 146.40893 
L 123.827669 144.286164 
L 124.116601 144.286164 
L 124.501844 143.196563 
L 124.694465 142.706644 
L 124.983397 142.648246 
L 125.657572 142.614058 
L 125.946504 142.456531 
L 129.60631 142.456531 
L 129.895242 142.223268 
L 131.436213 142.223268 
L 131.725145 141.474402 
L 132.303009 140.274059 
L 134.903398 140.274059 
L 135.096019 139.958842 
L 135.19233 139.958842 
L 135.384951 139.597332 
L 135.577573 139.571977 
L 135.770194 139.281952 
L 136.829612 139.281952 
L 137.407476 138.024355 
L 137.792719 137.475384 
L 139.622622 137.475384 
L 140.007864 136.289108 
L 140.200486 136.173621 
L 140.682039 136.173621 
L 140.874661 135.618107 
L 141.259903 134.584941 
L 142.993496 134.584941 
L 143.378739 133.745617 
L 143.57136 133.324728 
L 143.763981 133.300354 
L 144.052913 132.46332 
L 144.823399 132.46332 
L 145.112331 132.072693 
L 145.593884 131.43817 
L 146.075438 130.220978 
L 146.460681 129.664154 
L 146.845923 128.721612 
L 146.942234 128.721612 
L 147.520098 127.979944 
L 147.71272 127.979944 
L 148.001652 127.331026 
L 148.290584 126.811989 
L 148.483205 126.414001 
L 148.579516 126.414001 
L 148.964759 125.622442 
L 149.542623 125.622442 
L 149.831555 124.877012 
L 150.024176 124.299414 
L 150.216797 123.86642 
L 152.046701 123.80884 
L 152.528254 123.636101 
L 154.069225 123.636101 
L 154.550778 122.658879 
L 155.610196 118.429541 
L 157.247478 118.429541 
L 158.403206 112.590094 
L 159.558934 112.590094 
L 159.847866 111.326118 
L 160.233109 109.511535 
L 161.003595 109.511535 
L 161.196216 108.850021 
L 163.507673 108.850021 
L 163.700294 108.059934 
L 163.989226 107.039691 
L 164.759711 107.039691 
L 165.048644 105.795018 
L 165.626508 105.795018 
L 165.91544 104.997897 
L 166.01175 104.997897 
L 166.300683 104.081527 
L 168.226896 104.081527 
L 168.515828 103.718218 
L 168.901071 103.718218 
L 169.190003 102.79694 
L 169.575246 101.462462 
L 169.767867 100.903348 
L 171.50146 100.903348 
L 171.790392 100.275204 
L 174.005538 100.275204 
L 174.198159 100.121931 
L 174.39078 100.09903 
L 174.583402 99.642644 
L 174.776023 99.256597 
L 175.161266 98.764224 
L 177.857965 98.764224 
L 178.050587 98.632543 
L 179.88049 98.632543 
L 180.073111 98.104673 
L 180.169422 98.104673 
L 180.362043 97.750197 
L 180.554664 97.499431 
L 180.843597 97.455101 
L 182.6735 97.455101 
L 183.251364 96.845441 
L 183.925539 96.82663 
L 196.73486 96.732408 
L 197.120103 96.244452 
L 197.216414 96.244452 
L 197.409035 95.872146 
L 197.505346 95.872146 
L 197.697967 95.583756 
L 214.359716 95.583756 
L 214.744959 94.543392 
L 215.130202 93.484054 
L 218.790008 93.484054 
L 219.656804 91.575086 
L 220.619911 91.575086 
L 220.812532 91.013846 
L 221.005154 90.589522 
L 231.310397 90.589522 
L 231.503019 90.095513 
L 245.275447 90.095513 
L 245.66069 89.485363 
L 246.045933 89.485363 
L 246.334865 89.147572 
L 254.906516 89.047134 
L 255.195448 88.421935 
L 263.285546 88.421935 
L 263.959721 85.789293 
L 264.056032 85.789293 
L 264.248653 85.560446 
L 264.922828 85.560446 
L 265.308071 84.433549 
L 268.871566 84.433549 
L 269.064187 84.129783 
L 269.44943 84.028691 
L 269.642052 83.765001 
L 270.412537 83.765001 
L 270.605158 83.509654 
L 270.79778 83.509654 
L 270.990401 83.373557 
L 271.183023 83.373557 
L 271.568265 81.872718 
L 273.398168 81.872718 
L 273.494479 81.744309 
L 273.6871 81.373148 
L 274.072343 81.373148 
L 274.457586 80.515666 
L 274.553897 80.515666 
L 274.842829 79.702841 
L 276.576421 79.702841 
L 276.865353 79.084512 
L 277.057975 79.084512 
L 277.635839 77.941258 
L 282.836616 77.941258 
L 283.125548 77.74758 
L 283.221859 77.74758 
L 283.41448 77.612955 
L 283.510791 77.612955 
L 283.703412 77.499267 
L 287.074286 77.499267 
L 287.459529 76.793914 
L 287.748461 76.738134 
L 287.941082 76.738134 
L 288.133704 76.392982 
L 288.422636 75.704968 
L 289.0005 75.704968 
L 289.289432 75.32252 
L 293.816034 75.32252 
L 294.490209 73.639455 
L 295.068073 71.978636 
L 296.609044 71.978636 
L 296.801666 71.808677 
L 298.631569 71.808677 
L 299.016812 71.136367 
L 299.113122 71.079932 
L 299.883608 69.03045 
L 300.557783 68.921833 
L 300.943025 68.708362 
L 301.135647 68.263264 
L 301.424579 68.206011 
L 303.832346 68.17673 
L 304.024967 67.853498 
L 304.217589 67.853498 
L 304.506521 67.633811 
L 304.699142 67.633811 
L 304.988074 67.462871 
L 305.277006 67.405782 
L 305.469628 67.191493 
L 305.662249 67.191493 
L 306.336424 65.66988 
L 306.625356 65.650742 
L 306.625356 65.650742 
" style="fill:none;stroke:#feffb3;stroke-linecap:square;stroke-width:2;"/>
   </g>
   <g id="line2d_43">
    <path clip-path="url(#p2f26b989b3)" d="M 43.504554 186.973441 
L 45.7197 186.94416 
L 46.008632 186.695684 
L 46.104943 186.695684 
L 46.297564 186.474197 
L 46.393875 186.474197 
L 46.682807 185.892019 
L 46.779118 185.837875 
L 46.971739 185.522985 
L 49.090574 185.522985 
L 49.283196 185.267802 
L 49.379506 185.267802 
L 49.764749 184.146957 
L 54.772905 184.146957 
L 54.965526 183.676668 
L 55.254458 182.788433 
L 57.662226 182.788433 
L 57.951158 181.900853 
L 58.047468 181.785693 
L 58.24009 181.364968 
L 58.432711 181.079031 
L 60.455236 181.079031 
L 61.225721 178.168632 
L 61.514653 177.539507 
L 69.026887 177.479964 
L 69.219508 177.108476 
L 69.41213 176.755635 
L 74.709218 176.705907 
L 75.190771 175.779559 
L 75.287082 175.678467 
L 75.672324 174.881346 
L 78.080092 174.832272 
L 78.465334 173.803687 
L 78.946888 172.48344 
L 83.280869 172.48344 
L 83.569801 172.203229 
L 83.858733 172.203229 
L 84.82184 169.993602 
L 85.977568 169.898563 
L 86.459122 169.093263 
L 86.651743 169.093263 
L 86.844364 168.950785 
L 89.348442 168.845931 
L 89.926306 167.017444 
L 90.118928 166.662968 
L 92.430384 166.662968 
L 92.815627 165.653521 
L 97.43854 165.559954 
L 97.631161 165.353354 
L 97.727472 165.2997 
L 98.497958 163.127533 
L 101.772521 163.127533 
L 102.061453 162.53325 
L 104.854463 162.53325 
L 105.143395 162.063614 
L 108.706891 162.063614 
L 108.899512 161.515788 
L 109.284755 161.465405 
L 109.477376 161.116328 
L 109.669998 161.027013 
L 109.95893 160.413592 
L 110.440483 160.413592 
L 111.018347 159.263303 
L 111.307279 159.031021 
L 112.077765 159.031021 
L 112.559318 158.357075 
L 112.655629 158.357075 
L 112.944561 157.75036 
L 118.049027 157.75036 
L 118.530581 156.363864 
L 118.626892 156.363864 
L 119.108445 154.895578 
L 120.071552 154.895578 
L 120.264173 154.476324 
L 120.360484 154.420544 
L 120.842037 152.860326 
L 120.938348 152.750401 
L 121.323591 151.867074 
L 122.768251 151.814729 
L 123.057183 151.140619 
L 123.249805 151.08582 
L 123.827669 149.159513 
L 124.116601 149.159513 
L 124.501844 148.120785 
L 124.694465 147.66718 
L 124.983397 147.614181 
L 125.753883 147.505564 
L 126.042815 147.451583 
L 129.702621 147.343948 
L 129.895242 147.236149 
L 131.436213 147.236149 
L 132.014077 145.684274 
L 132.206699 145.435307 
L 134.903398 145.435307 
L 135.096019 145.145281 
L 135.19233 145.145281 
L 135.384951 144.808308 
L 135.577573 144.788352 
L 135.770194 144.511739 
L 136.829612 144.511739 
L 137.600097 142.831128 
L 139.622622 142.831128 
L 140.007864 141.715518 
L 140.200486 141.607556 
L 140.682039 141.607556 
L 140.874661 141.084757 
L 141.259903 140.118168 
L 142.993496 140.118168 
L 143.378739 139.332007 
L 143.57136 138.947105 
L 143.763981 138.923877 
L 144.052913 138.133463 
L 144.823399 138.133463 
L 145.112331 137.819718 
L 145.401263 137.654012 
L 146.845923 134.816733 
L 146.942234 134.816733 
L 147.520098 134.149657 
L 147.71272 134.149657 
L 148.001652 133.575004 
L 148.194273 133.122871 
L 148.290584 133.122871 
L 148.483205 132.806673 
L 148.579516 132.806673 
L 148.964759 132.047993 
L 149.542623 132.047993 
L 149.735244 131.607311 
L 150.216797 130.411057 
L 152.143011 130.301786 
L 152.335633 130.193496 
L 154.069225 130.193496 
L 154.550778 129.257987 
L 155.706507 125.265185 
L 157.247478 125.265185 
L 158.306895 120.172967 
L 158.499517 119.899463 
L 159.558934 119.899463 
L 159.847866 118.713024 
L 160.233109 116.999205 
L 161.003595 116.999205 
L 161.196216 116.398706 
L 163.507673 116.398706 
L 163.700294 115.659492 
L 163.989226 114.689796 
L 164.759711 114.689796 
L 165.048644 113.533782 
L 165.626508 113.533782 
L 165.91544 112.825975 
L 166.01175 112.825975 
L 166.300683 112.107045 
L 168.419518 111.99712 
L 168.70845 111.931852 
L 168.997382 111.871 
L 169.864178 109.431054 
L 171.50146 109.431054 
L 171.790392 108.8317 
L 174.005538 108.8317 
L 174.198159 108.701819 
L 174.487091 108.550017 
L 174.872334 107.79281 
L 174.968644 107.79281 
L 175.161266 107.457472 
L 177.857965 107.457472 
L 178.050587 107.335933 
L 179.88049 107.335933 
L 180.073111 106.85043 
L 180.169422 106.85043 
L 180.362043 106.512476 
L 180.554664 106.27545 
L 180.843597 106.23341 
L 182.76981 106.142624 
L 182.962432 106.005217 
L 183.058742 106.005217 
L 183.251364 105.700306 
L 183.925539 105.682639 
L 196.73486 105.606084 
L 197.216414 105.288741 
L 197.409035 104.951604 
L 197.505346 104.951604 
L 197.697967 104.689877 
L 214.359716 104.689877 
L 214.744959 103.722307 
L 215.130202 102.731836 
L 218.886319 102.627963 
L 219.07894 102.374906 
L 219.367872 102.087334 
L 219.656804 101.401937 
L 220.619911 101.401937 
L 220.812532 100.920197 
L 221.005154 100.548709 
L 231.310397 100.548709 
L 231.503019 100.161517 
L 245.275447 100.161517 
L 245.564379 99.77089 
L 245.757001 99.67994 
L 246.045933 99.67994 
L 246.334865 99.442096 
L 254.906516 99.35589 
L 255.195448 98.856319 
L 263.285546 98.856319 
L 263.7671 97.163112 
L 263.959721 96.709671 
L 264.056032 96.709671 
L 264.248653 96.556561 
L 264.922828 96.556561 
L 265.308071 95.67307 
L 268.871566 95.67307 
L 269.064187 95.41576 
L 269.44943 95.319412 
L 269.642052 95.153215 
L 270.412537 95.153215 
L 270.605158 94.944325 
L 270.79778 94.944325 
L 270.990401 94.82344 
L 271.183023 94.82344 
L 271.568265 93.626695 
L 273.398168 93.626695 
L 273.879722 93.211041 
L 274.072343 93.211041 
L 274.457586 92.53186 
L 274.553897 92.53186 
L 274.842829 91.84401 
L 276.576421 91.84401 
L 276.865353 91.288168 
L 277.057975 91.288168 
L 277.635839 90.250422 
L 282.932927 90.14655 
L 283.41448 89.958434 
L 287.074286 89.886622 
L 287.459529 89.351882 
L 288.037393 89.247192 
L 288.518947 88.498326 
L 289.0005 88.498326 
L 289.193121 88.165279 
L 293.816034 88.165279 
L 294.58652 86.536359 
L 295.068073 85.471295 
L 298.631569 85.372493 
L 299.016812 84.878812 
L 299.113122 84.832519 
L 299.979918 83.247601 
L 300.846715 83.161231 
L 301.328268 82.691595 
L 303.832346 82.685543 
L 304.024967 82.417273 
L 304.313899 82.315036 
L 304.506521 82.214762 
L 304.795453 82.116451 
L 305.662249 81.882697 
L 306.336424 80.604817 
L 306.625356 80.592057 
L 306.625356 80.592057 
" style="fill:none;stroke:#feffb3;stroke-dasharray:3.7,1.6;stroke-dashoffset:0;"/>
   </g>
   <g id="line2d_44">
    <path clip-path="url(#p2f26b989b3)" d="M 39.748438 23.557911 
L 321.16827 23.557911 
" style="fill:none;stroke:#ffffff;stroke-dasharray:5.55,2.4;stroke-dashoffset:0;stroke-width:1.5;"/>
   </g>
   <g id="patch_86">
    <path d="M 39.748438 187.13702 
L 39.748438 7.2 
" style="fill:none;stroke:#ffffff;stroke-linecap:square;stroke-linejoin:miter;stroke-width:0.8;"/>
   </g>
   <g id="patch_87">
    <path d="M 321.16827 187.13702 
L 321.16827 7.2 
" style="fill:none;stroke:#ffffff;stroke-linecap:square;stroke-linejoin:miter;stroke-width:0.8;"/>
   </g>
   <g id="patch_88">
    <path d="M 39.748437 187.13702 
L 321.16827 187.13702 
" style="fill:none;stroke:#ffffff;stroke-linecap:square;stroke-linejoin:miter;stroke-width:0.8;"/>
   </g>
   <g id="patch_89">
    <path d="M 39.748437 7.2 
L 321.16827 7.2 
" style="fill:none;stroke:#ffffff;stroke-linecap:square;stroke-linejoin:miter;stroke-width:0.8;"/>
   </g>
   <g id="legend_1">
    <g id="patch_90">
     <path d="M 179.365145 182.13702 
L 314.16827 182.13702 
Q 316.16827 182.13702 316.16827 180.13702 
L 316.16827 122.708895 
Q 316.16827 120.708895 314.16827 120.708895 
L 179.365145 120.708895 
Q 177.365145 120.708895 177.365145 122.708895 
L 177.365145 180.13702 
Q 177.365145 182.13702 179.365145 182.13702 
z
" style="opacity:0.8;stroke:#cccccc;stroke-linejoin:miter;"/>
    </g>
    <g id="line2d_45">
     <path d="M 181.365145 128.708895 
L 201.365145 128.708895 
" style="fill:none;stroke:#8dd3c7;stroke-linecap:square;stroke-width:2;"/>
    </g>
    <g id="line2d_46"/>
    <g id="text_18">
     <!-- All spectra -->
     <g style="fill:#ffffff;" transform="translate(209.365145 132.208895)scale(0.1 -0.1)">
      <defs>
       <path d="M 3041 1188 
L 1134 1188 
L 706 0 
L 88 0 
L 1825 4550 
L 2350 4550 
L 4091 0 
L 3475 0 
L 3041 1188 
z
M 1316 1681 
L 2863 1681 
L 2088 3809 
L 1316 1681 
z
" id="Roboto-Regular-41" transform="scale(0.015625)"/>
       <path d="M 1066 0 
L 488 0 
L 488 4800 
L 1066 4800 
L 1066 0 
z
" id="Roboto-Regular-6c" transform="scale(0.015625)"/>
      </defs>
      <use xlink:href="#Roboto-Regular-41"/>
      <use x="65.234375" xlink:href="#Roboto-Regular-6c"/>
      <use x="89.501953" xlink:href="#Roboto-Regular-6c"/>
      <use x="113.769531" xlink:href="#Roboto-Regular-20"/>
      <use x="138.525391" xlink:href="#Roboto-Regular-73"/>
      <use x="190.087891" xlink:href="#Roboto-Regular-70"/>
      <use x="246.191406" xlink:href="#Roboto-Regular-65"/>
      <use x="299.169922" xlink:href="#Roboto-Regular-63"/>
      <use x="351.513672" xlink:href="#Roboto-Regular-74"/>
      <use x="384.179688" xlink:href="#Roboto-Regular-72"/>
      <use x="418.017578" xlink:href="#Roboto-Regular-61"/>
     </g>
    </g>
    <g id="line2d_47">
     <path d="M 181.365145 143.34327 
L 201.365145 143.34327 
" style="fill:none;stroke:#8dd3c7;stroke-dasharray:3.7,1.6;stroke-dashoffset:0;"/>
    </g>
    <g id="line2d_48"/>
    <g id="text_19">
     <!-- Unflagged spectra -->
     <g style="fill:#ffffff;" transform="translate(209.365145 146.84327)scale(0.1 -0.1)">
      <defs>
       <path d="M 3731 4550 
L 3731 1456 
Q 3728 813 3326 403 
Q 2925 -6 2238 -56 
L 2078 -63 
Q 1331 -63 887 340 
Q 444 744 438 1450 
L 438 4550 
L 1031 4550 
L 1031 1469 
Q 1031 975 1303 701 
Q 1575 428 2078 428 
Q 2588 428 2858 700 
Q 3128 972 3128 1466 
L 3128 4550 
L 3731 4550 
z
" id="Roboto-Regular-55" transform="scale(0.015625)"/>
       <path d="M 984 3381 
L 1003 2956 
Q 1391 3444 2016 3444 
Q 3088 3444 3097 2234 
L 3097 0 
L 2519 0 
L 2519 2238 
Q 2516 2603 2352 2778 
Q 2188 2953 1841 2953 
Q 1559 2953 1346 2803 
Q 1134 2653 1016 2409 
L 1016 0 
L 438 0 
L 438 3381 
L 984 3381 
z
" id="Roboto-Regular-6e" transform="scale(0.015625)"/>
       <path d="M 300 1719 
Q 300 2509 665 2976 
Q 1031 3444 1634 3444 
Q 2253 3444 2600 3006 
L 2628 3381 
L 3156 3381 
L 3156 81 
Q 3156 -575 2767 -953 
Q 2378 -1331 1722 -1331 
Q 1356 -1331 1006 -1175 
Q 656 -1019 472 -747 
L 772 -400 
Q 1144 -859 1681 -859 
Q 2103 -859 2339 -621 
Q 2575 -384 2575 47 
L 2575 338 
Q 2228 -63 1628 -63 
Q 1034 -63 667 415 
Q 300 894 300 1719 
z
M 881 1653 
Q 881 1081 1115 754 
Q 1350 428 1772 428 
Q 2319 428 2575 925 
L 2575 2469 
Q 2309 2953 1778 2953 
Q 1356 2953 1118 2625 
Q 881 2297 881 1653 
z
" id="Roboto-Regular-67" transform="scale(0.015625)"/>
       <path d="M 297 1719 
Q 297 2497 665 2970 
Q 1034 3444 1631 3444 
Q 2225 3444 2572 3038 
L 2572 4800 
L 3150 4800 
L 3150 0 
L 2619 0 
L 2591 363 
Q 2244 -63 1625 -63 
Q 1038 -63 667 418 
Q 297 900 297 1675 
L 297 1719 
z
M 875 1653 
Q 875 1078 1112 753 
Q 1350 428 1769 428 
Q 2319 428 2572 922 
L 2572 2475 
Q 2313 2953 1775 2953 
Q 1350 2953 1112 2625 
Q 875 2297 875 1653 
z
" id="Roboto-Regular-64" transform="scale(0.015625)"/>
      </defs>
      <use xlink:href="#Roboto-Regular-55"/>
      <use x="64.84375" xlink:href="#Roboto-Regular-6e"/>
      <use x="120.019531" xlink:href="#Roboto-Regular-66"/>
      <use x="154.736328" xlink:href="#Roboto-Regular-6c"/>
      <use x="179.003906" xlink:href="#Roboto-Regular-61"/>
      <use x="233.398438" xlink:href="#Roboto-Regular-67"/>
      <use x="289.501953" xlink:href="#Roboto-Regular-67"/>
      <use x="345.605469" xlink:href="#Roboto-Regular-65"/>
      <use x="398.583984" xlink:href="#Roboto-Regular-64"/>
      <use x="454.980469" xlink:href="#Roboto-Regular-20"/>
      <use x="479.736328" xlink:href="#Roboto-Regular-73"/>
      <use x="531.298828" xlink:href="#Roboto-Regular-70"/>
      <use x="587.402344" xlink:href="#Roboto-Regular-65"/>
      <use x="640.380859" xlink:href="#Roboto-Regular-63"/>
      <use x="692.724609" xlink:href="#Roboto-Regular-74"/>
      <use x="725.390625" xlink:href="#Roboto-Regular-72"/>
      <use x="759.228516" xlink:href="#Roboto-Regular-61"/>
     </g>
    </g>
    <g id="line2d_49">
     <path d="M 181.365145 157.922958 
L 201.365145 157.922958 
" style="fill:none;stroke:#feffb3;stroke-linecap:square;stroke-width:2;"/>
    </g>
    <g id="line2d_50"/>
    <g id="text_20">
     <!-- All unique stars -->
     <g style="fill:#ffffff;" transform="translate(209.365145 161.422958)scale(0.1 -0.1)">
      <defs>
       <path d="M 1066 0 
L 488 0 
L 488 3381 
L 1066 3381 
L 1066 0 
z
M 441 4278 
Q 441 4419 527 4516 
Q 613 4613 781 4613 
Q 950 4613 1037 4516 
Q 1125 4419 1125 4278 
Q 1125 4138 1037 4044 
Q 950 3950 781 3950 
Q 613 3950 527 4044 
Q 441 4138 441 4278 
z
" id="Roboto-Regular-69" transform="scale(0.015625)"/>
       <path d="M 297 1719 
Q 297 2516 662 2980 
Q 1028 3444 1644 3444 
Q 2244 3444 2591 3041 
L 2616 3381 
L 3147 3381 
L 3147 -1300 
L 2569 -1300 
L 2569 313 
Q 2219 -63 1638 -63 
Q 1025 -63 661 414 
Q 297 891 297 1678 
L 297 1719 
z
M 875 1653 
Q 875 1072 1120 740 
Q 1366 409 1781 409 
Q 2297 409 2569 866 
L 2569 2522 
Q 2294 2969 1788 2969 
Q 1369 2969 1122 2636 
Q 875 2303 875 1653 
z
" id="Roboto-Regular-71" transform="scale(0.015625)"/>
      </defs>
      <use xlink:href="#Roboto-Regular-41"/>
      <use x="65.234375" xlink:href="#Roboto-Regular-6c"/>
      <use x="89.501953" xlink:href="#Roboto-Regular-6c"/>
      <use x="113.769531" xlink:href="#Roboto-Regular-20"/>
      <use x="138.525391" xlink:href="#Roboto-Regular-75"/>
      <use x="193.652344" xlink:href="#Roboto-Regular-6e"/>
      <use x="248.828125" xlink:href="#Roboto-Regular-69"/>
      <use x="273.095703" xlink:href="#Roboto-Regular-71"/>
      <use x="329.931641" xlink:href="#Roboto-Regular-75"/>
      <use x="385.058594" xlink:href="#Roboto-Regular-65"/>
      <use x="438.037109" xlink:href="#Roboto-Regular-20"/>
      <use x="462.792969" xlink:href="#Roboto-Regular-73"/>
      <use x="514.355469" xlink:href="#Roboto-Regular-74"/>
      <use x="547.021484" xlink:href="#Roboto-Regular-61"/>
      <use x="601.416016" xlink:href="#Roboto-Regular-72"/>
      <use x="635.253906" xlink:href="#Roboto-Regular-73"/>
     </g>
    </g>
    <g id="line2d_51">
     <path d="M 181.365145 172.557333 
L 201.365145 172.557333 
" style="fill:none;stroke:#feffb3;stroke-dasharray:3.7,1.6;stroke-dashoffset:0;"/>
    </g>
    <g id="line2d_52"/>
    <g id="text_21">
     <!-- Unflagged unique stars -->
     <g style="fill:#ffffff;" transform="translate(209.365145 176.057333)scale(0.1 -0.1)">
      <use xlink:href="#Roboto-Regular-55"/>
      <use x="64.84375" xlink:href="#Roboto-Regular-6e"/>
      <use x="120.019531" xlink:href="#Roboto-Regular-66"/>
      <use x="154.736328" xlink:href="#Roboto-Regular-6c"/>
      <use x="179.003906" xlink:href="#Roboto-Regular-61"/>
      <use x="233.398438" xlink:href="#Roboto-Regular-67"/>
      <use x="289.501953" xlink:href="#Roboto-Regular-67"/>
      <use x="345.605469" xlink:href="#Roboto-Regular-65"/>
      <use x="398.583984" xlink:href="#Roboto-Regular-64"/>
      <use x="454.980469" xlink:href="#Roboto-Regular-20"/>
      <use x="479.736328" xlink:href="#Roboto-Regular-75"/>
      <use x="534.863281" xlink:href="#Roboto-Regular-6e"/>
      <use x="590.039062" xlink:href="#Roboto-Regular-69"/>
      <use x="614.306641" xlink:href="#Roboto-Regular-71"/>
      <use x="671.142578" xlink:href="#Roboto-Regular-75"/>
      <use x="726.269531" xlink:href="#Roboto-Regular-65"/>
      <use x="779.248047" xlink:href="#Roboto-Regular-20"/>
      <use x="804.003906" xlink:href="#Roboto-Regular-73"/>
      <use x="855.566406" xlink:href="#Roboto-Regular-74"/>
      <use x="888.232422" xlink:href="#Roboto-Regular-61"/>
      <use x="942.626953" xlink:href="#Roboto-Regular-72"/>
      <use x="976.464844" xlink:href="#Roboto-Regular-73"/>
     </g>
    </g>
   </g>
  </g>
 </g>
 <defs>
  <clipPath id="p2f26b989b3">
   <rect height="179.93702" width="281.419833" x="39.748438" y="7.2"/>
  </clipPath>
 </defs>
</svg>
