<?xml version="1.0" encoding="utf-8" standalone="no"?>
<!DOCTYPE svg PUBLIC "-//W3C//DTD SVG 1.1//EN"
  "http://www.w3.org/Graphics/SVG/1.1/DTD/svg11.dtd">
<svg height="224.39952pt" version="1.1" viewBox="0 0 338.87952 224.39952" width="338.87952pt" xmlns="http://www.w3.org/2000/svg" xmlns:xlink="http://www.w3.org/1999/xlink">
 <metadata>
  <rdf:RDF xmlns:cc="http://creativecommons.org/ns#" xmlns:dc="http://purl.org/dc/elements/1.1/" xmlns:rdf="http://www.w3.org/1999/02/22-rdf-syntax-ns#">
   <cc:Work>
    <dc:type rdf:resource="http://purl.org/dc/dcmitype/StillImage"/>
    <dc:date>2021-10-22T09:26:01.994937</dc:date>
    <dc:format>image/svg+xml</dc:format>
    <dc:creator>
     <cc:Agent>
      <dc:title>Matplotlib v3.4.3, https://matplotlib.org/</dc:title>
     </cc:Agent>
    </dc:creator>
   </cc:Work>
  </rdf:RDF>
 </metadata>
 <defs>
  <style type="text/css">*{stroke-linecap:butt;stroke-linejoin:round;}</style>
 </defs>
 <g id="figure_1">
  <g id="patch_1">
   <path d="M 0 224.39952 
L 338.87952 224.39952 
L 338.87952 0 
L 0 0 
z
"/>
  </g>
  <g id="axes_1">
   <g id="patch_2">
    <path d="M 39.748438 187.13702 
L 320.44827 187.13702 
L 320.44827 7.2 
L 39.748438 7.2 
z
"/>
   </g>
   <g id="patch_3">
    <path clip-path="url(#p9f734c50a5)" d="M 43.302816 187.13702 
L 43.302816 7.2 
L 43.39888 7.2 
L 43.39888 187.13702 
z
" style="fill:#bfbbd9;opacity:0.5;"/>
   </g>
   <g id="patch_4">
    <path clip-path="url(#p9f734c50a5)" d="M 43.302816 187.13702 
L 43.302816 7.2 
L 44.263459 7.2 
L 44.263459 187.13702 
z
" style="fill:#bfbbd9;opacity:0.5;"/>
   </g>
   <g id="patch_5">
    <path clip-path="url(#p9f734c50a5)" d="M 45.608359 187.13702 
L 45.608359 7.2 
L 46.953259 7.2 
L 46.953259 187.13702 
z
" style="fill:#bfbbd9;opacity:0.5;"/>
   </g>
   <g id="patch_6">
    <path clip-path="url(#p9f734c50a5)" d="M 49.162737 187.13702 
L 49.162737 7.2 
L 49.835187 7.2 
L 49.835187 187.13702 
z
" style="fill:#bfbbd9;opacity:0.5;"/>
   </g>
   <g id="patch_7">
    <path clip-path="url(#p9f734c50a5)" d="M 54.734466 187.13702 
L 54.734466 7.2 
L 55.310851 7.2 
L 55.310851 187.13702 
z
" style="fill:#bfbbd9;opacity:0.5;"/>
   </g>
   <g id="patch_8">
    <path clip-path="url(#p9f734c50a5)" d="M 57.712458 187.13702 
L 57.712458 7.2 
L 58.577037 7.2 
L 58.577037 187.13702 
z
" style="fill:#bfbbd9;opacity:0.5;"/>
   </g>
   <g id="patch_9">
    <path clip-path="url(#p9f734c50a5)" d="M 60.498322 187.13702 
L 60.498322 7.2 
L 61.651094 7.2 
L 61.651094 187.13702 
z
" style="fill:#bfbbd9;opacity:0.5;"/>
   </g>
   <g id="patch_10">
    <path clip-path="url(#p9f734c50a5)" d="M 62.22748 187.13702 
L 62.22748 7.2 
L 62.419608 7.2 
L 62.419608 187.13702 
z
" style="fill:#bfbbd9;opacity:0.5;"/>
   </g>
   <g id="patch_11">
    <path clip-path="url(#p9f734c50a5)" d="M 68.855915 187.13702 
L 68.855915 7.2 
L 69.336236 7.2 
L 69.336236 187.13702 
z
" style="fill:#bfbbd9;opacity:0.5;"/>
   </g>
   <g id="patch_12">
    <path clip-path="url(#p9f734c50a5)" d="M 71.737843 187.13702 
L 71.737843 7.2 
L 72.122101 7.2 
L 72.122101 187.13702 
z
" style="fill:#bfbbd9;opacity:0.5;"/>
   </g>
   <g id="patch_13">
    <path clip-path="url(#p9f734c50a5)" d="M 74.715836 187.13702 
L 74.715836 7.2 
L 75.964672 7.2 
L 75.964672 187.13702 
z
" style="fill:#bfbbd9;opacity:0.5;"/>
   </g>
   <g id="patch_14">
    <path clip-path="url(#p9f734c50a5)" d="M 78.078086 187.13702 
L 78.078086 7.2 
L 78.8466 7.2 
L 78.8466 187.13702 
z
" style="fill:#bfbbd9;opacity:0.5;"/>
   </g>
   <g id="patch_15">
    <path clip-path="url(#p9f734c50a5)" d="M 83.265557 187.13702 
L 83.265557 7.2 
L 84.706522 7.2 
L 84.706522 187.13702 
z
" style="fill:#bfbbd9;opacity:0.5;"/>
   </g>
   <g id="patch_16">
    <path clip-path="url(#p9f734c50a5)" d="M 85.859293 187.13702 
L 85.859293 7.2 
L 86.723871 7.2 
L 86.723871 187.13702 
z
" style="fill:#bfbbd9;opacity:0.5;"/>
   </g>
   <g id="patch_17">
    <path clip-path="url(#p9f734c50a5)" d="M 88.93335 187.13702 
L 88.93335 7.2 
L 89.990057 7.2 
L 89.990057 187.13702 
z
" style="fill:#bfbbd9;opacity:0.5;"/>
   </g>
   <g id="patch_18">
    <path clip-path="url(#p9f734c50a5)" d="M 92.391664 187.13702 
L 92.391664 7.2 
L 92.775921 7.2 
L 92.775921 187.13702 
z
" style="fill:#bfbbd9;opacity:0.5;"/>
   </g>
   <g id="patch_19">
    <path clip-path="url(#p9f734c50a5)" d="M 93.832628 187.13702 
L 93.832628 7.2 
L 94.024757 7.2 
L 94.024757 187.13702 
z
" style="fill:#bfbbd9;opacity:0.5;"/>
   </g>
   <g id="patch_20">
    <path clip-path="url(#p9f734c50a5)" d="M 97.290943 187.13702 
L 97.290943 7.2 
L 98.443714 7.2 
L 98.443714 187.13702 
z
" style="fill:#bfbbd9;opacity:0.5;"/>
   </g>
   <g id="patch_21">
    <path clip-path="url(#p9f734c50a5)" d="M 101.709899 187.13702 
L 101.709899 7.2 
L 101.902028 7.2 
L 101.902028 187.13702 
z
" style="fill:#bfbbd9;opacity:0.5;"/>
   </g>
   <g id="patch_22">
    <path clip-path="url(#p9f734c50a5)" d="M 104.783957 187.13702 
L 104.783957 7.2 
L 105.072149 7.2 
L 105.072149 187.13702 
z
" style="fill:#bfbbd9;opacity:0.5;"/>
   </g>
   <g id="patch_23">
    <path clip-path="url(#p9f734c50a5)" d="M 108.626528 187.13702 
L 108.626528 7.2 
L 109.971428 7.2 
L 109.971428 187.13702 
z
" style="fill:#bfbbd9;opacity:0.5;"/>
   </g>
   <g id="patch_24">
    <path clip-path="url(#p9f734c50a5)" d="M 110.355685 187.13702 
L 110.355685 7.2 
L 111.124199 7.2 
L 111.124199 187.13702 
z
" style="fill:#bfbbd9;opacity:0.5;"/>
   </g>
   <g id="patch_25">
    <path clip-path="url(#p9f734c50a5)" d="M 111.988778 187.13702 
L 111.988778 7.2 
L 112.757292 7.2 
L 112.757292 187.13702 
z
" style="fill:#bfbbd9;opacity:0.5;"/>
   </g>
   <g id="patch_26">
    <path clip-path="url(#p9f734c50a5)" d="M 117.944763 187.13702 
L 117.944763 7.2 
L 118.905406 7.2 
L 118.905406 187.13702 
z
" style="fill:#bfbbd9;opacity:0.5;"/>
   </g>
   <g id="patch_27">
    <path clip-path="url(#p9f734c50a5)" d="M 119.962113 187.13702 
L 119.962113 7.2 
L 121.114884 7.2 
L 121.114884 187.13702 
z
" style="fill:#bfbbd9;opacity:0.5;"/>
   </g>
   <g id="patch_28">
    <path clip-path="url(#p9f734c50a5)" d="M 122.555849 187.13702 
L 122.555849 7.2 
L 125.72597 7.2 
L 125.72597 187.13702 
z
" style="fill:#bfbbd9;opacity:0.5;"/>
   </g>
   <g id="patch_29">
    <path clip-path="url(#p9f734c50a5)" d="M 129.376413 187.13702 
L 129.376413 7.2 
L 129.664606 7.2 
L 129.664606 187.13702 
z
" style="fill:#bfbbd9;opacity:0.5;"/>
   </g>
   <g id="patch_30">
    <path clip-path="url(#p9f734c50a5)" d="M 131.297698 187.13702 
L 131.297698 7.2 
L 131.970148 7.2 
L 131.970148 187.13702 
z
" style="fill:#bfbbd9;opacity:0.5;"/>
   </g>
   <g id="patch_31">
    <path clip-path="url(#p9f734c50a5)" d="M 134.659948 187.13702 
L 134.659948 7.2 
L 135.524527 7.2 
L 135.524527 187.13702 
z
" style="fill:#bfbbd9;opacity:0.5;"/>
   </g>
   <g id="patch_32">
    <path clip-path="url(#p9f734c50a5)" d="M 136.677298 187.13702 
L 136.677298 7.2 
L 137.445812 7.2 
L 137.445812 187.13702 
z
" style="fill:#bfbbd9;opacity:0.5;"/>
   </g>
   <g id="patch_33">
    <path clip-path="url(#p9f734c50a5)" d="M 139.463162 187.13702 
L 139.463162 7.2 
L 140.039548 7.2 
L 140.039548 187.13702 
z
" style="fill:#bfbbd9;opacity:0.5;"/>
   </g>
   <g id="patch_34">
    <path clip-path="url(#p9f734c50a5)" d="M 140.519869 187.13702 
L 140.519869 7.2 
L 141.000191 7.2 
L 141.000191 187.13702 
z
" style="fill:#bfbbd9;opacity:0.5;"/>
   </g>
   <g id="patch_35">
    <path clip-path="url(#p9f734c50a5)" d="M 142.729348 187.13702 
L 142.729348 7.2 
L 143.882119 7.2 
L 143.882119 187.13702 
z
" style="fill:#bfbbd9;opacity:0.5;"/>
   </g>
   <g id="patch_36">
    <path clip-path="url(#p9f734c50a5)" d="M 144.650634 187.13702 
L 144.650634 7.2 
L 147.148305 7.2 
L 147.148305 187.13702 
z
" style="fill:#bfbbd9;opacity:0.5;"/>
   </g>
   <g id="patch_37">
    <path clip-path="url(#p9f734c50a5)" d="M 147.532562 187.13702 
L 147.532562 7.2 
L 148.685333 7.2 
L 148.685333 187.13702 
z
" style="fill:#bfbbd9;opacity:0.5;"/>
   </g>
   <g id="patch_38">
    <path clip-path="url(#p9f734c50a5)" d="M 149.357783 187.13702 
L 149.357783 7.2 
L 149.934169 7.2 
L 149.934169 187.13702 
z
" style="fill:#bfbbd9;opacity:0.5;"/>
   </g>
   <g id="patch_39">
    <path clip-path="url(#p9f734c50a5)" d="M 151.759391 187.13702 
L 151.759391 7.2 
L 152.047583 7.2 
L 152.047583 187.13702 
z
" style="fill:#bfbbd9;opacity:0.5;"/>
   </g>
   <g id="patch_40">
    <path clip-path="url(#p9f734c50a5)" d="M 153.872805 187.13702 
L 153.872805 7.2 
L 155.409833 7.2 
L 155.409833 187.13702 
z
" style="fill:#bfbbd9;opacity:0.5;"/>
   </g>
   <g id="patch_41">
    <path clip-path="url(#p9f734c50a5)" d="M 157.042926 187.13702 
L 157.042926 7.2 
L 158.195697 7.2 
L 158.195697 187.13702 
z
" style="fill:#bfbbd9;opacity:0.5;"/>
   </g>
   <g id="patch_42">
    <path clip-path="url(#p9f734c50a5)" d="M 159.348469 187.13702 
L 159.348469 7.2 
L 159.924854 7.2 
L 159.924854 187.13702 
z
" style="fill:#bfbbd9;opacity:0.5;"/>
   </g>
   <g id="patch_43">
    <path clip-path="url(#p9f734c50a5)" d="M 160.789433 187.13702 
L 160.789433 7.2 
L 160.981562 7.2 
L 160.981562 187.13702 
z
" style="fill:#bfbbd9;opacity:0.5;"/>
   </g>
   <g id="patch_44">
    <path clip-path="url(#p9f734c50a5)" d="M 163.287104 187.13702 
L 163.287104 7.2 
L 163.767426 7.2 
L 163.767426 187.13702 
z
" style="fill:#bfbbd9;opacity:0.5;"/>
   </g>
   <g id="patch_45">
    <path clip-path="url(#p9f734c50a5)" d="M 164.53594 187.13702 
L 164.53594 7.2 
L 164.824133 7.2 
L 164.824133 187.13702 
z
" style="fill:#bfbbd9;opacity:0.5;"/>
   </g>
   <g id="patch_46">
    <path clip-path="url(#p9f734c50a5)" d="M 165.400519 187.13702 
L 165.400519 7.2 
L 165.976904 7.2 
L 165.976904 187.13702 
z
" style="fill:#bfbbd9;opacity:0.5;"/>
   </g>
   <g id="patch_47">
    <path clip-path="url(#p9f734c50a5)" d="M 167.994254 187.13702 
L 167.994254 7.2 
L 168.282447 7.2 
L 168.282447 187.13702 
z
" style="fill:#bfbbd9;opacity:0.5;"/>
   </g>
   <g id="patch_48">
    <path clip-path="url(#p9f734c50a5)" d="M 168.666704 187.13702 
L 168.666704 7.2 
L 169.531283 7.2 
L 169.531283 187.13702 
z
" style="fill:#bfbbd9;opacity:0.5;"/>
   </g>
   <g id="patch_49">
    <path clip-path="url(#p9f734c50a5)" d="M 170.972247 187.13702 
L 170.972247 7.2 
L 171.548633 7.2 
L 171.548633 187.13702 
z
" style="fill:#bfbbd9;opacity:0.5;"/>
   </g>
   <g id="patch_50">
    <path clip-path="url(#p9f734c50a5)" d="M 173.758111 187.13702 
L 173.758111 7.2 
L 174.814818 7.2 
L 174.814818 187.13702 
z
" style="fill:#bfbbd9;opacity:0.5;"/>
   </g>
   <g id="patch_51">
    <path clip-path="url(#p9f734c50a5)" d="M 177.504618 187.13702 
L 177.504618 7.2 
L 177.888875 7.2 
L 177.888875 187.13702 
z
" style="fill:#bfbbd9;opacity:0.5;"/>
   </g>
   <g id="patch_52">
    <path clip-path="url(#p9f734c50a5)" d="M 179.618032 187.13702 
L 179.618032 7.2 
L 180.386547 7.2 
L 180.386547 187.13702 
z
" style="fill:#bfbbd9;opacity:0.5;"/>
   </g>
   <g id="patch_53">
    <path clip-path="url(#p9f734c50a5)" d="M 182.403897 187.13702 
L 182.403897 7.2 
L 182.596025 7.2 
L 182.596025 187.13702 
z
" style="fill:#bfbbd9;opacity:0.5;"/>
   </g>
   <g id="patch_54">
    <path clip-path="url(#p9f734c50a5)" d="M 182.692089 187.13702 
L 182.692089 7.2 
L 183.076346 7.2 
L 183.076346 187.13702 
z
" style="fill:#bfbbd9;opacity:0.5;"/>
   </g>
   <g id="patch_55">
    <path clip-path="url(#p9f734c50a5)" d="M 194.700125 187.13702 
L 194.700125 7.2 
L 194.988317 7.2 
L 194.988317 187.13702 
z
" style="fill:#bfbbd9;opacity:0.5;"/>
   </g>
   <g id="patch_56">
    <path clip-path="url(#p9f734c50a5)" d="M 196.429282 187.13702 
L 196.429282 7.2 
L 196.813539 7.2 
L 196.813539 187.13702 
z
" style="fill:#bfbbd9;opacity:0.5;"/>
   </g>
   <g id="patch_57">
    <path clip-path="url(#p9f734c50a5)" d="M 196.909603 187.13702 
L 196.909603 7.2 
L 197.29386 7.2 
L 197.29386 187.13702 
z
" style="fill:#bfbbd9;opacity:0.5;"/>
   </g>
   <g id="patch_58">
    <path clip-path="url(#p9f734c50a5)" d="M 214.009045 187.13702 
L 214.009045 7.2 
L 214.681495 7.2 
L 214.681495 187.13702 
z
" style="fill:#bfbbd9;opacity:0.5;"/>
   </g>
   <g id="patch_59">
    <path clip-path="url(#p9f734c50a5)" d="M 218.428002 187.13702 
L 218.428002 7.2 
L 219.292581 7.2 
L 219.292581 187.13702 
z
" style="fill:#bfbbd9;opacity:0.5;"/>
   </g>
   <g id="patch_60">
    <path clip-path="url(#p9f734c50a5)" d="M 220.253224 187.13702 
L 220.253224 7.2 
L 220.541417 7.2 
L 220.541417 187.13702 
z
" style="fill:#bfbbd9;opacity:0.5;"/>
   </g>
   <g id="patch_61">
    <path clip-path="url(#p9f734c50a5)" d="M 229.187202 187.13702 
L 229.187202 7.2 
L 229.571459 7.2 
L 229.571459 187.13702 
z
" style="fill:#bfbbd9;opacity:0.5;"/>
   </g>
   <g id="patch_62">
    <path clip-path="url(#p9f734c50a5)" d="M 230.147845 187.13702 
L 230.147845 7.2 
L 231.108488 7.2 
L 231.108488 187.13702 
z
" style="fill:#bfbbd9;opacity:0.5;"/>
   </g>
   <g id="patch_63">
    <path clip-path="url(#p9f734c50a5)" d="M 238.025116 187.13702 
L 238.025116 7.2 
L 238.409373 7.2 
L 238.409373 187.13702 
z
" style="fill:#bfbbd9;opacity:0.5;"/>
   </g>
   <g id="patch_64">
    <path clip-path="url(#p9f734c50a5)" d="M 244.84568 187.13702 
L 244.84568 7.2 
L 245.326001 7.2 
L 245.326001 187.13702 
z
" style="fill:#bfbbd9;opacity:0.5;"/>
   </g>
   <g id="patch_65">
    <path clip-path="url(#p9f734c50a5)" d="M 245.51813 187.13702 
L 245.51813 7.2 
L 245.902387 7.2 
L 245.902387 187.13702 
z
" style="fill:#bfbbd9;opacity:0.5;"/>
   </g>
   <g id="patch_66">
    <path clip-path="url(#p9f734c50a5)" d="M 254.163915 187.13702 
L 254.163915 7.2 
L 254.740301 7.2 
L 254.740301 187.13702 
z
" style="fill:#bfbbd9;opacity:0.5;"/>
   </g>
   <g id="patch_67">
    <path clip-path="url(#p9f734c50a5)" d="M 262.809701 187.13702 
L 262.809701 7.2 
L 263.866408 7.2 
L 263.866408 187.13702 
z
" style="fill:#bfbbd9;opacity:0.5;"/>
   </g>
   <g id="patch_68">
    <path clip-path="url(#p9f734c50a5)" d="M 264.442793 187.13702 
L 264.442793 7.2 
L 264.923115 7.2 
L 264.923115 187.13702 
z
" style="fill:#bfbbd9;opacity:0.5;"/>
   </g>
   <g id="patch_69">
    <path clip-path="url(#p9f734c50a5)" d="M 268.381429 187.13702 
L 268.381429 7.2 
L 269.053879 7.2 
L 269.053879 187.13702 
z
" style="fill:#bfbbd9;opacity:0.5;"/>
   </g>
   <g id="patch_70">
    <path clip-path="url(#p9f734c50a5)" d="M 269.918458 187.13702 
L 269.918458 7.2 
L 270.398779 7.2 
L 270.398779 187.13702 
z
" style="fill:#bfbbd9;opacity:0.5;"/>
   </g>
   <g id="patch_71">
    <path clip-path="url(#p9f734c50a5)" d="M 270.686972 187.13702 
L 270.686972 7.2 
L 271.359422 7.2 
L 271.359422 187.13702 
z
" style="fill:#bfbbd9;opacity:0.5;"/>
   </g>
   <g id="patch_72">
    <path clip-path="url(#p9f734c50a5)" d="M 271.455486 187.13702 
L 271.455486 7.2 
L 271.647615 7.2 
L 271.647615 187.13702 
z
" style="fill:#bfbbd9;opacity:0.5;"/>
   </g>
   <g id="patch_73">
    <path clip-path="url(#p9f734c50a5)" d="M 272.89645 187.13702 
L 272.89645 7.2 
L 273.184643 7.2 
L 273.184643 187.13702 
z
" style="fill:#bfbbd9;opacity:0.5;"/>
   </g>
   <g id="patch_74">
    <path clip-path="url(#p9f734c50a5)" d="M 273.5689 187.13702 
L 273.5689 7.2 
L 274.337415 7.2 
L 274.337415 187.13702 
z
" style="fill:#bfbbd9;opacity:0.5;"/>
   </g>
   <g id="patch_75">
    <path clip-path="url(#p9f734c50a5)" d="M 275.970507 187.13702 
L 275.970507 7.2 
L 276.2587 7.2 
L 276.2587 187.13702 
z
" style="fill:#bfbbd9;opacity:0.5;"/>
   </g>
   <g id="patch_76">
    <path clip-path="url(#p9f734c50a5)" d="M 276.450829 187.13702 
L 276.450829 7.2 
L 277.219343 7.2 
L 277.219343 187.13702 
z
" style="fill:#bfbbd9;opacity:0.5;"/>
   </g>
   <g id="patch_77">
    <path clip-path="url(#p9f734c50a5)" d="M 282.31075 187.13702 
L 282.31075 7.2 
L 283.079264 7.2 
L 283.079264 187.13702 
z
" style="fill:#bfbbd9;opacity:0.5;"/>
   </g>
   <g id="patch_78">
    <path clip-path="url(#p9f734c50a5)" d="M 286.537578 187.13702 
L 286.537578 7.2 
L 287.0179 7.2 
L 287.0179 187.13702 
z
" style="fill:#bfbbd9;opacity:0.5;"/>
   </g>
   <g id="patch_79">
    <path clip-path="url(#p9f734c50a5)" d="M 287.402157 187.13702 
L 287.402157 7.2 
L 287.882478 7.2 
L 287.882478 187.13702 
z
" style="fill:#bfbbd9;opacity:0.5;"/>
   </g>
   <g id="patch_80">
    <path clip-path="url(#p9f734c50a5)" d="M 288.458864 187.13702 
L 288.458864 7.2 
L 288.747057 7.2 
L 288.747057 187.13702 
z
" style="fill:#bfbbd9;opacity:0.5;"/>
   </g>
   <g id="patch_81">
    <path clip-path="url(#p9f734c50a5)" d="M 293.262078 187.13702 
L 293.262078 7.2 
L 294.510914 7.2 
L 294.510914 187.13702 
z
" style="fill:#bfbbd9;opacity:0.5;"/>
   </g>
   <g id="patch_82">
    <path clip-path="url(#p9f734c50a5)" d="M 296.047942 187.13702 
L 296.047942 7.2 
L 296.432199 7.2 
L 296.432199 187.13702 
z
" style="fill:#bfbbd9;opacity:0.5;"/>
   </g>
   <g id="patch_83">
    <path clip-path="url(#p9f734c50a5)" d="M 297.873164 187.13702 
L 297.873164 7.2 
L 299.218064 7.2 
L 299.218064 187.13702 
z
" style="fill:#bfbbd9;opacity:0.5;"/>
   </g>
   <g id="patch_84">
    <path clip-path="url(#p9f734c50a5)" d="M 299.794449 187.13702 
L 299.794449 7.2 
L 301.331478 7.2 
L 301.331478 187.13702 
z
" style="fill:#bfbbd9;opacity:0.5;"/>
   </g>
   <g id="patch_85">
    <path clip-path="url(#p9f734c50a5)" d="M 303.252763 187.13702 
L 303.252763 7.2 
L 306.134692 7.2 
L 306.134692 187.13702 
z
" style="fill:#bfbbd9;opacity:0.5;"/>
   </g>
   <g id="patch_86">
    <path clip-path="url(#p9f734c50a5)" d="M 309.977263 187.13702 
L 309.977263 7.2 
L 311.322163 7.2 
L 311.322163 187.13702 
z
" style="fill:#bfbbd9;opacity:0.5;"/>
   </g>
   <g id="matplotlib.axis_1">
    <g id="xtick_1">
     <g id="line2d_1">
      <defs>
       <path d="M 0 0 
L 0 3.5 
" id="m8553730ad4" style="stroke:#ffffff;stroke-width:0.8;"/>
      </defs>
      <g>
       <use style="fill:#ffffff;stroke:#ffffff;stroke-width:0.8;" x="39.748437" xlink:href="#m8553730ad4" y="187.13702"/>
      </g>
     </g>
     <g id="text_1">
      <!-- 2014 -->
      <g style="fill:#ffffff;" transform="translate(28.517187 201.63702)scale(0.1 -0.1)">
       <defs>
        <path d="M 3359 0 
L 378 0 
L 378 416 
L 1953 2166 
Q 2303 2563 2436 2811 
Q 2569 3059 2569 3325 
Q 2569 3681 2353 3909 
Q 2138 4138 1778 4138 
Q 1347 4138 1108 3892 
Q 869 3647 869 3209 
L 291 3209 
Q 291 3838 695 4225 
Q 1100 4613 1778 4613 
Q 2413 4613 2781 4280 
Q 3150 3947 3150 3394 
Q 3150 2722 2294 1794 
L 1075 472 
L 3359 472 
L 3359 0 
z
" id="Roboto-Regular-32" transform="scale(0.015625)"/>
        <path d="M 3231 1941 
Q 3231 925 2884 431 
Q 2538 -63 1800 -63 
Q 1072 -63 722 420 
Q 372 903 359 1863 
L 359 2634 
Q 359 3638 706 4125 
Q 1053 4613 1794 4613 
Q 2528 4613 2875 4142 
Q 3222 3672 3231 2691 
L 3231 1941 
z
M 2653 2731 
Q 2653 3466 2447 3802 
Q 2241 4138 1794 4138 
Q 1350 4138 1147 3803 
Q 944 3469 938 2775 
L 938 1850 
Q 938 1113 1152 761 
Q 1366 409 1800 409 
Q 2228 409 2436 740 
Q 2644 1072 2653 1784 
L 2653 2731 
z
" id="Roboto-Regular-30" transform="scale(0.015625)"/>
        <path d="M 2278 0 
L 1697 0 
L 1697 3853 
L 531 3425 
L 531 3950 
L 2188 4572 
L 2278 4572 
L 2278 0 
z
" id="Roboto-Regular-31" transform="scale(0.015625)"/>
        <path d="M 2819 1528 
L 3450 1528 
L 3450 1056 
L 2819 1056 
L 2819 0 
L 2238 0 
L 2238 1056 
L 166 1056 
L 166 1397 
L 2203 4550 
L 2819 4550 
L 2819 1528 
z
M 822 1528 
L 2238 1528 
L 2238 3759 
L 2169 3634 
L 822 1528 
z
" id="Roboto-Regular-34" transform="scale(0.015625)"/>
       </defs>
       <use xlink:href="#Roboto-Regular-32"/>
       <use x="56.152344" xlink:href="#Roboto-Regular-30"/>
       <use x="112.304688" xlink:href="#Roboto-Regular-31"/>
       <use x="168.457031" xlink:href="#Roboto-Regular-34"/>
      </g>
     </g>
    </g>
    <g id="xtick_2">
     <g id="line2d_2">
      <g>
       <use style="fill:#ffffff;stroke:#ffffff;stroke-width:0.8;" x="74.8119" xlink:href="#m8553730ad4" y="187.13702"/>
      </g>
     </g>
     <g id="text_2">
      <!-- 2015 -->
      <g style="fill:#ffffff;" transform="translate(63.58065 201.63702)scale(0.1 -0.1)">
       <defs>
        <path d="M 644 2281 
L 875 4550 
L 3206 4550 
L 3206 4016 
L 1366 4016 
L 1228 2775 
Q 1563 2972 1988 2972 
Q 2609 2972 2975 2561 
Q 3341 2150 3341 1450 
Q 3341 747 2961 342 
Q 2581 -63 1900 -63 
Q 1297 -63 915 271 
Q 534 606 481 1197 
L 1028 1197 
Q 1081 806 1306 607 
Q 1531 409 1900 409 
Q 2303 409 2533 684 
Q 2763 959 2763 1444 
Q 2763 1900 2514 2176 
Q 2266 2453 1853 2453 
Q 1475 2453 1259 2288 
L 1106 2163 
L 644 2281 
z
" id="Roboto-Regular-35" transform="scale(0.015625)"/>
       </defs>
       <use xlink:href="#Roboto-Regular-32"/>
       <use x="56.152344" xlink:href="#Roboto-Regular-30"/>
       <use x="112.304688" xlink:href="#Roboto-Regular-31"/>
       <use x="168.457031" xlink:href="#Roboto-Regular-35"/>
      </g>
     </g>
    </g>
    <g id="xtick_3">
     <g id="line2d_3">
      <g>
       <use style="fill:#ffffff;stroke:#ffffff;stroke-width:0.8;" x="109.875363" xlink:href="#m8553730ad4" y="187.13702"/>
      </g>
     </g>
     <g id="text_3">
      <!-- 2016 -->
      <g style="fill:#ffffff;" transform="translate(98.644113 201.63702)scale(0.1 -0.1)">
       <defs>
        <path d="M 2647 4553 
L 2647 4063 
L 2541 4063 
Q 1866 4050 1466 3662 
Q 1066 3275 1003 2572 
Q 1363 2984 1984 2984 
Q 2578 2984 2933 2565 
Q 3288 2147 3288 1484 
Q 3288 781 2905 359 
Q 2522 -63 1878 -63 
Q 1225 -63 819 439 
Q 413 941 413 1731 
L 413 1953 
Q 413 3209 948 3873 
Q 1484 4538 2544 4553 
L 2647 4553 
z
M 1888 2503 
Q 1591 2503 1341 2325 
Q 1091 2147 994 1878 
L 994 1666 
Q 994 1103 1247 759 
Q 1500 416 1878 416 
Q 2269 416 2492 703 
Q 2716 991 2716 1456 
Q 2716 1925 2489 2214 
Q 2263 2503 1888 2503 
z
" id="Roboto-Regular-36" transform="scale(0.015625)"/>
       </defs>
       <use xlink:href="#Roboto-Regular-32"/>
       <use x="56.152344" xlink:href="#Roboto-Regular-30"/>
       <use x="112.304688" xlink:href="#Roboto-Regular-31"/>
       <use x="168.457031" xlink:href="#Roboto-Regular-36"/>
      </g>
     </g>
    </g>
    <g id="xtick_4">
     <g id="line2d_4">
      <g>
       <use style="fill:#ffffff;stroke:#ffffff;stroke-width:0.8;" x="145.034891" xlink:href="#m8553730ad4" y="187.13702"/>
      </g>
     </g>
     <g id="text_4">
      <!-- 2017 -->
      <g style="fill:#ffffff;" transform="translate(133.803641 201.63702)scale(0.1 -0.1)">
       <defs>
        <path d="M 3316 4225 
L 1431 0 
L 825 0 
L 2703 4075 
L 241 4075 
L 241 4550 
L 3316 4550 
L 3316 4225 
z
" id="Roboto-Regular-37" transform="scale(0.015625)"/>
       </defs>
       <use xlink:href="#Roboto-Regular-32"/>
       <use x="56.152344" xlink:href="#Roboto-Regular-30"/>
       <use x="112.304688" xlink:href="#Roboto-Regular-31"/>
       <use x="168.457031" xlink:href="#Roboto-Regular-37"/>
      </g>
     </g>
    </g>
    <g id="xtick_5">
     <g id="line2d_5">
      <g>
       <use style="fill:#ffffff;stroke:#ffffff;stroke-width:0.8;" x="180.098354" xlink:href="#m8553730ad4" y="187.13702"/>
      </g>
     </g>
     <g id="text_5">
      <!-- 2018 -->
      <g style="fill:#ffffff;" transform="translate(168.867104 201.63702)scale(0.1 -0.1)">
       <defs>
        <path d="M 3138 3363 
Q 3138 3022 2958 2756 
Q 2778 2491 2472 2341 
Q 2828 2188 3036 1894 
Q 3244 1600 3244 1228 
Q 3244 638 2845 287 
Q 2447 -63 1797 -63 
Q 1141 -63 745 289 
Q 350 641 350 1228 
Q 350 1597 551 1894 
Q 753 2191 1109 2344 
Q 806 2494 631 2759 
Q 456 3025 456 3363 
Q 456 3938 825 4275 
Q 1194 4613 1797 4613 
Q 2397 4613 2767 4275 
Q 3138 3938 3138 3363 
z
M 2666 1241 
Q 2666 1622 2423 1862 
Q 2181 2103 1790 2103 
Q 1400 2103 1164 1865 
Q 928 1628 928 1240 
Q 928 853 1158 631 
Q 1388 409 1797 409 
Q 2203 409 2434 632 
Q 2666 856 2666 1241 
z
M 1797 4138 
Q 1456 4138 1245 3927 
Q 1034 3716 1034 3353 
Q 1034 3006 1242 2792 
Q 1450 2578 1797 2578 
Q 2144 2578 2351 2792 
Q 2559 3006 2559 3353 
Q 2559 3700 2343 3919 
Q 2128 4138 1797 4138 
z
" id="Roboto-Regular-38" transform="scale(0.015625)"/>
       </defs>
       <use xlink:href="#Roboto-Regular-32"/>
       <use x="56.152344" xlink:href="#Roboto-Regular-30"/>
       <use x="112.304688" xlink:href="#Roboto-Regular-31"/>
       <use x="168.457031" xlink:href="#Roboto-Regular-38"/>
      </g>
     </g>
    </g>
    <g id="xtick_6">
     <g id="line2d_6">
      <g>
       <use style="fill:#ffffff;stroke:#ffffff;stroke-width:0.8;" x="215.161817" xlink:href="#m8553730ad4" y="187.13702"/>
      </g>
     </g>
     <g id="text_6">
      <!-- 2019 -->
      <g style="fill:#ffffff;" transform="translate(203.930567 201.63702)scale(0.1 -0.1)">
       <defs>
        <path d="M 2594 2000 
Q 2413 1784 2161 1653 
Q 1909 1522 1609 1522 
Q 1216 1522 923 1715 
Q 631 1909 472 2261 
Q 313 2613 313 3038 
Q 313 3494 486 3859 
Q 659 4225 978 4419 
Q 1297 4613 1722 4613 
Q 2397 4613 2786 4108 
Q 3175 3603 3175 2731 
L 3175 2563 
Q 3175 1234 2650 623 
Q 2125 13 1066 -3 
L 953 -3 
L 953 484 
L 1075 484 
Q 1791 497 2175 858 
Q 2559 1219 2594 2000 
z
M 1703 2000 
Q 1994 2000 2239 2178 
Q 2484 2356 2597 2619 
L 2597 2850 
Q 2597 3419 2350 3775 
Q 2103 4131 1725 4131 
Q 1344 4131 1112 3839 
Q 881 3547 881 3069 
Q 881 2603 1104 2301 
Q 1328 2000 1703 2000 
z
" id="Roboto-Regular-39" transform="scale(0.015625)"/>
       </defs>
       <use xlink:href="#Roboto-Regular-32"/>
       <use x="56.152344" xlink:href="#Roboto-Regular-30"/>
       <use x="112.304688" xlink:href="#Roboto-Regular-31"/>
       <use x="168.457031" xlink:href="#Roboto-Regular-39"/>
      </g>
     </g>
    </g>
    <g id="xtick_7">
     <g id="line2d_7">
      <g>
       <use style="fill:#ffffff;stroke:#ffffff;stroke-width:0.8;" x="250.22528" xlink:href="#m8553730ad4" y="187.13702"/>
      </g>
     </g>
     <g id="text_7">
      <!-- 2020 -->
      <g style="fill:#ffffff;" transform="translate(238.99403 201.63702)scale(0.1 -0.1)">
       <use xlink:href="#Roboto-Regular-32"/>
       <use x="56.152344" xlink:href="#Roboto-Regular-30"/>
       <use x="112.304688" xlink:href="#Roboto-Regular-32"/>
       <use x="168.457031" xlink:href="#Roboto-Regular-30"/>
      </g>
     </g>
    </g>
    <g id="xtick_8">
     <g id="line2d_8">
      <g>
       <use style="fill:#ffffff;stroke:#ffffff;stroke-width:0.8;" x="285.384807" xlink:href="#m8553730ad4" y="187.13702"/>
      </g>
     </g>
     <g id="text_8">
      <!-- 2021 -->
      <g style="fill:#ffffff;" transform="translate(274.153557 201.63702)scale(0.1 -0.1)">
       <use xlink:href="#Roboto-Regular-32"/>
       <use x="56.152344" xlink:href="#Roboto-Regular-30"/>
       <use x="112.304688" xlink:href="#Roboto-Regular-32"/>
       <use x="168.457031" xlink:href="#Roboto-Regular-31"/>
      </g>
     </g>
    </g>
    <g id="xtick_9">
     <g id="line2d_9">
      <g>
       <use style="fill:#ffffff;stroke:#ffffff;stroke-width:0.8;" x="320.44827" xlink:href="#m8553730ad4" y="187.13702"/>
      </g>
     </g>
     <g id="text_9">
      <!-- 2022 -->
      <g style="fill:#ffffff;" transform="translate(309.21702 201.63702)scale(0.1 -0.1)">
       <use xlink:href="#Roboto-Regular-32"/>
       <use x="56.152344" xlink:href="#Roboto-Regular-30"/>
       <use x="112.304688" xlink:href="#Roboto-Regular-32"/>
       <use x="168.457031" xlink:href="#Roboto-Regular-32"/>
      </g>
     </g>
    </g>
    <g id="xtick_10">
     <g id="line2d_10">
      <defs>
       <path d="M 0 0 
L 0 2 
" id="mec3b019b82" style="stroke:#ffffff;stroke-width:0.6;"/>
      </defs>
      <g>
       <use style="fill:#ffffff;stroke:#ffffff;stroke-width:0.6;" x="48.394223" xlink:href="#mec3b019b82" y="187.13702"/>
      </g>
     </g>
    </g>
    <g id="xtick_11">
     <g id="line2d_11">
      <g>
       <use style="fill:#ffffff;stroke:#ffffff;stroke-width:0.6;" x="57.136073" xlink:href="#mec3b019b82" y="187.13702"/>
      </g>
     </g>
    </g>
    <g id="xtick_12">
     <g id="line2d_12">
      <g>
       <use style="fill:#ffffff;stroke:#ffffff;stroke-width:0.6;" x="65.973987" xlink:href="#mec3b019b82" y="187.13702"/>
      </g>
     </g>
    </g>
    <g id="xtick_13">
     <g id="line2d_13">
      <g>
       <use style="fill:#ffffff;stroke:#ffffff;stroke-width:0.6;" x="83.457686" xlink:href="#mec3b019b82" y="187.13702"/>
      </g>
     </g>
    </g>
    <g id="xtick_14">
     <g id="line2d_14">
      <g>
       <use style="fill:#ffffff;stroke:#ffffff;stroke-width:0.6;" x="92.199536" xlink:href="#mec3b019b82" y="187.13702"/>
      </g>
     </g>
    </g>
    <g id="xtick_15">
     <g id="line2d_15">
      <g>
       <use style="fill:#ffffff;stroke:#ffffff;stroke-width:0.6;" x="101.03745" xlink:href="#mec3b019b82" y="187.13702"/>
      </g>
     </g>
    </g>
    <g id="xtick_16">
     <g id="line2d_16">
      <g>
       <use style="fill:#ffffff;stroke:#ffffff;stroke-width:0.6;" x="118.617213" xlink:href="#mec3b019b82" y="187.13702"/>
      </g>
     </g>
    </g>
    <g id="xtick_17">
     <g id="line2d_17">
      <g>
       <use style="fill:#ffffff;stroke:#ffffff;stroke-width:0.6;" x="127.359063" xlink:href="#mec3b019b82" y="187.13702"/>
      </g>
     </g>
    </g>
    <g id="xtick_18">
     <g id="line2d_18">
      <g>
       <use style="fill:#ffffff;stroke:#ffffff;stroke-width:0.6;" x="136.196977" xlink:href="#mec3b019b82" y="187.13702"/>
      </g>
     </g>
    </g>
    <g id="xtick_19">
     <g id="line2d_19">
      <g>
       <use style="fill:#ffffff;stroke:#ffffff;stroke-width:0.6;" x="153.680676" xlink:href="#mec3b019b82" y="187.13702"/>
      </g>
     </g>
    </g>
    <g id="xtick_20">
     <g id="line2d_20">
      <g>
       <use style="fill:#ffffff;stroke:#ffffff;stroke-width:0.6;" x="162.422526" xlink:href="#mec3b019b82" y="187.13702"/>
      </g>
     </g>
    </g>
    <g id="xtick_21">
     <g id="line2d_21">
      <g>
       <use style="fill:#ffffff;stroke:#ffffff;stroke-width:0.6;" x="171.26044" xlink:href="#mec3b019b82" y="187.13702"/>
      </g>
     </g>
    </g>
    <g id="xtick_22">
     <g id="line2d_22">
      <g>
       <use style="fill:#ffffff;stroke:#ffffff;stroke-width:0.6;" x="188.744139" xlink:href="#mec3b019b82" y="187.13702"/>
      </g>
     </g>
    </g>
    <g id="xtick_23">
     <g id="line2d_23">
      <g>
       <use style="fill:#ffffff;stroke:#ffffff;stroke-width:0.6;" x="197.485989" xlink:href="#mec3b019b82" y="187.13702"/>
      </g>
     </g>
    </g>
    <g id="xtick_24">
     <g id="line2d_24">
      <g>
       <use style="fill:#ffffff;stroke:#ffffff;stroke-width:0.6;" x="206.323903" xlink:href="#mec3b019b82" y="187.13702"/>
      </g>
     </g>
    </g>
    <g id="xtick_25">
     <g id="line2d_25">
      <g>
       <use style="fill:#ffffff;stroke:#ffffff;stroke-width:0.6;" x="223.807602" xlink:href="#mec3b019b82" y="187.13702"/>
      </g>
     </g>
    </g>
    <g id="xtick_26">
     <g id="line2d_26">
      <g>
       <use style="fill:#ffffff;stroke:#ffffff;stroke-width:0.6;" x="232.549452" xlink:href="#mec3b019b82" y="187.13702"/>
      </g>
     </g>
    </g>
    <g id="xtick_27">
     <g id="line2d_27">
      <g>
       <use style="fill:#ffffff;stroke:#ffffff;stroke-width:0.6;" x="241.387366" xlink:href="#mec3b019b82" y="187.13702"/>
      </g>
     </g>
    </g>
    <g id="xtick_28">
     <g id="line2d_28">
      <g>
       <use style="fill:#ffffff;stroke:#ffffff;stroke-width:0.6;" x="258.967129" xlink:href="#mec3b019b82" y="187.13702"/>
      </g>
     </g>
    </g>
    <g id="xtick_29">
     <g id="line2d_29">
      <g>
       <use style="fill:#ffffff;stroke:#ffffff;stroke-width:0.6;" x="267.708979" xlink:href="#mec3b019b82" y="187.13702"/>
      </g>
     </g>
    </g>
    <g id="xtick_30">
     <g id="line2d_30">
      <g>
       <use style="fill:#ffffff;stroke:#ffffff;stroke-width:0.6;" x="276.546893" xlink:href="#mec3b019b82" y="187.13702"/>
      </g>
     </g>
    </g>
    <g id="xtick_31">
     <g id="line2d_31">
      <g>
       <use style="fill:#ffffff;stroke:#ffffff;stroke-width:0.6;" x="294.030592" xlink:href="#mec3b019b82" y="187.13702"/>
      </g>
     </g>
    </g>
    <g id="xtick_32">
     <g id="line2d_32">
      <g>
       <use style="fill:#ffffff;stroke:#ffffff;stroke-width:0.6;" x="302.772442" xlink:href="#mec3b019b82" y="187.13702"/>
      </g>
     </g>
    </g>
    <g id="xtick_33">
     <g id="line2d_33">
      <g>
       <use style="fill:#ffffff;stroke:#ffffff;stroke-width:0.6;" x="311.610356" xlink:href="#mec3b019b82" y="187.13702"/>
      </g>
     </g>
    </g>
    <g id="text_10">
     <!-- Year -->
     <g style="fill:#ffffff;" transform="translate(170.034291 215.16827)scale(0.1 -0.1)">
      <defs>
       <path d="M 1916 2266 
L 3103 4550 
L 3784 4550 
L 2216 1697 
L 2216 0 
L 1616 0 
L 1616 1697 
L 47 4550 
L 734 4550 
L 1916 2266 
z
" id="Roboto-Regular-59" transform="scale(0.015625)"/>
       <path d="M 1841 -63 
Q 1153 -63 722 389 
Q 291 841 291 1597 
L 291 1703 
Q 291 2206 483 2601 
Q 675 2997 1020 3220 
Q 1366 3444 1769 3444 
Q 2428 3444 2793 3009 
Q 3159 2575 3159 1766 
L 3159 1525 
L 869 1525 
Q 881 1025 1161 717 
Q 1441 409 1872 409 
Q 2178 409 2390 534 
Q 2603 659 2763 866 
L 3116 591 
Q 2691 -63 1841 -63 
z
M 1769 2969 
Q 1419 2969 1181 2714 
Q 944 2459 888 2000 
L 2581 2000 
L 2581 2044 
Q 2556 2484 2343 2726 
Q 2131 2969 1769 2969 
z
" id="Roboto-Regular-65" transform="scale(0.015625)"/>
       <path d="M 2525 0 
Q 2475 100 2444 356 
Q 2041 -63 1481 -63 
Q 981 -63 661 220 
Q 341 503 341 938 
Q 341 1466 742 1758 
Q 1144 2050 1872 2050 
L 2434 2050 
L 2434 2316 
Q 2434 2619 2253 2798 
Q 2072 2978 1719 2978 
Q 1409 2978 1200 2822 
Q 991 2666 991 2444 
L 409 2444 
Q 409 2697 589 2933 
Q 769 3169 1076 3306 
Q 1384 3444 1753 3444 
Q 2338 3444 2669 3151 
Q 3000 2859 3013 2347 
L 3013 791 
Q 3013 325 3131 50 
L 3131 0 
L 2525 0 
z
M 1566 441 
Q 1838 441 2081 581 
Q 2325 722 2434 947 
L 2434 1641 
L 1981 1641 
Q 919 1641 919 1019 
Q 919 747 1100 594 
Q 1281 441 1566 441 
z
" id="Roboto-Regular-61" transform="scale(0.015625)"/>
       <path d="M 2072 2863 
Q 1941 2884 1788 2884 
Q 1219 2884 1016 2400 
L 1016 0 
L 438 0 
L 438 3381 
L 1000 3381 
L 1009 2991 
Q 1294 3444 1816 3444 
Q 1984 3444 2072 3400 
L 2072 2863 
z
" id="Roboto-Regular-72" transform="scale(0.015625)"/>
      </defs>
      <use xlink:href="#Roboto-Regular-59"/>
      <use x="60.058594" xlink:href="#Roboto-Regular-65"/>
      <use x="113.037109" xlink:href="#Roboto-Regular-61"/>
      <use x="167.431641" xlink:href="#Roboto-Regular-72"/>
     </g>
    </g>
   </g>
   <g id="matplotlib.axis_2">
    <g id="ytick_1">
     <g id="line2d_34">
      <defs>
       <path d="M 0 0 
L -3.5 0 
" id="me865b83cda" style="stroke:#ffffff;stroke-width:0.8;"/>
      </defs>
      <g>
       <use style="fill:#ffffff;stroke:#ffffff;stroke-width:0.8;" x="39.748438" xlink:href="#me865b83cda" y="187.13702"/>
      </g>
     </g>
     <g id="text_11">
      <!-- 0 -->
      <g style="fill:#ffffff;" transform="translate(27.132813 190.88702)scale(0.1 -0.1)">
       <use xlink:href="#Roboto-Regular-30"/>
      </g>
     </g>
    </g>
    <g id="ytick_2">
     <g id="line2d_35">
      <g>
       <use style="fill:#ffffff;stroke:#ffffff;stroke-width:0.8;" x="39.748438" xlink:href="#me865b83cda" y="154.421198"/>
      </g>
     </g>
     <g id="text_12">
      <!-- 2 -->
      <g style="fill:#ffffff;" transform="translate(27.132813 158.171198)scale(0.1 -0.1)">
       <use xlink:href="#Roboto-Regular-32"/>
      </g>
     </g>
    </g>
    <g id="ytick_3">
     <g id="line2d_36">
      <g>
       <use style="fill:#ffffff;stroke:#ffffff;stroke-width:0.8;" x="39.748438" xlink:href="#me865b83cda" y="121.705376"/>
      </g>
     </g>
     <g id="text_13">
      <!-- 4 -->
      <g style="fill:#ffffff;" transform="translate(27.132813 125.455376)scale(0.1 -0.1)">
       <use xlink:href="#Roboto-Regular-34"/>
      </g>
     </g>
    </g>
    <g id="ytick_4">
     <g id="line2d_37">
      <g>
       <use style="fill:#ffffff;stroke:#ffffff;stroke-width:0.8;" x="39.748438" xlink:href="#me865b83cda" y="88.989555"/>
      </g>
     </g>
     <g id="text_14">
      <!-- 6 -->
      <g style="fill:#ffffff;" transform="translate(27.132813 92.739555)scale(0.1 -0.1)">
       <use xlink:href="#Roboto-Regular-36"/>
      </g>
     </g>
    </g>
    <g id="ytick_5">
     <g id="line2d_38">
      <g>
       <use style="fill:#ffffff;stroke:#ffffff;stroke-width:0.8;" x="39.748438" xlink:href="#me865b83cda" y="56.273733"/>
      </g>
     </g>
     <g id="text_15">
      <!-- 8 -->
      <g style="fill:#ffffff;" transform="translate(27.132813 60.023733)scale(0.1 -0.1)">
       <use xlink:href="#Roboto-Regular-38"/>
      </g>
     </g>
    </g>
    <g id="ytick_6">
     <g id="line2d_39">
      <g>
       <use style="fill:#ffffff;stroke:#ffffff;stroke-width:0.8;" x="39.748438" xlink:href="#me865b83cda" y="23.557911"/>
      </g>
     </g>
     <g id="text_16">
      <!-- 10 -->
      <g style="fill:#ffffff;" transform="translate(21.517188 27.307911)scale(0.1 -0.1)">
       <use xlink:href="#Roboto-Regular-31"/>
       <use x="56.152344" xlink:href="#Roboto-Regular-30"/>
      </g>
     </g>
    </g>
    <g id="text_17">
     <!-- Number of spectra or stars (×100000) -->
     <g style="fill:#ffffff;" transform="translate(15.221875 181.195073)rotate(-90)scale(0.1 -0.1)">
      <defs>
       <path d="M 4025 0 
L 3422 0 
L 1131 3506 
L 1131 0 
L 528 0 
L 528 4550 
L 1131 4550 
L 3428 1028 
L 3428 4550 
L 4025 4550 
L 4025 0 
z
" id="Roboto-Regular-4e" transform="scale(0.015625)"/>
       <path d="M 2525 334 
Q 2188 -63 1534 -63 
Q 994 -63 711 251 
Q 428 566 425 1181 
L 425 3381 
L 1003 3381 
L 1003 1197 
Q 1003 428 1628 428 
Q 2291 428 2509 922 
L 2509 3381 
L 3088 3381 
L 3088 0 
L 2538 0 
L 2525 334 
z
" id="Roboto-Regular-75" transform="scale(0.015625)"/>
       <path d="M 981 3381 
L 997 3006 
Q 1369 3444 2000 3444 
Q 2709 3444 2966 2900 
Q 3134 3144 3404 3294 
Q 3675 3444 4044 3444 
Q 5156 3444 5175 2266 
L 5175 0 
L 4597 0 
L 4597 2231 
Q 4597 2594 4431 2773 
Q 4266 2953 3875 2953 
Q 3553 2953 3340 2761 
Q 3128 2569 3094 2244 
L 3094 0 
L 2513 0 
L 2513 2216 
Q 2513 2953 1791 2953 
Q 1222 2953 1013 2469 
L 1013 0 
L 434 0 
L 434 3381 
L 981 3381 
z
" id="Roboto-Regular-6d" transform="scale(0.015625)"/>
       <path d="M 3300 1653 
Q 3300 878 2944 407 
Q 2588 -63 1988 -63 
Q 1347 -63 997 391 
L 969 0 
L 438 0 
L 438 4800 
L 1016 4800 
L 1016 3009 
Q 1366 3444 1981 3444 
Q 2597 3444 2948 2978 
Q 3300 2513 3300 1703 
L 3300 1653 
z
M 2722 1719 
Q 2722 2309 2494 2631 
Q 2266 2953 1838 2953 
Q 1266 2953 1016 2422 
L 1016 959 
Q 1281 428 1844 428 
Q 2259 428 2490 750 
Q 2722 1072 2722 1719 
z
" id="Roboto-Regular-62" transform="scale(0.015625)"/>
       <path id="Roboto-Regular-20" transform="scale(0.015625)"/>
       <path d="M 284 1722 
Q 284 2219 479 2616 
Q 675 3013 1023 3228 
Q 1372 3444 1819 3444 
Q 2509 3444 2936 2966 
Q 3363 2488 3363 1694 
L 3363 1653 
Q 3363 1159 3173 767 
Q 2984 375 2632 156 
Q 2281 -63 1825 -63 
Q 1138 -63 711 415 
Q 284 894 284 1681 
L 284 1722 
z
M 866 1653 
Q 866 1091 1127 750 
Q 1388 409 1825 409 
Q 2266 409 2525 754 
Q 2784 1100 2784 1722 
Q 2784 2278 2520 2623 
Q 2256 2969 1819 2969 
Q 1391 2969 1128 2628 
Q 866 2288 866 1653 
z
" id="Roboto-Regular-6f" transform="scale(0.015625)"/>
       <path d="M 722 0 
L 722 2934 
L 188 2934 
L 188 3381 
L 722 3381 
L 722 3728 
Q 722 4272 1012 4569 
Q 1303 4866 1834 4866 
Q 2034 4866 2231 4813 
L 2200 4344 
Q 2053 4372 1888 4372 
Q 1606 4372 1453 4208 
Q 1300 4044 1300 3738 
L 1300 3381 
L 2022 3381 
L 2022 2934 
L 1300 2934 
L 1300 0 
L 722 0 
z
" id="Roboto-Regular-66" transform="scale(0.015625)"/>
       <path d="M 2406 897 
Q 2406 1131 2229 1261 
Q 2053 1391 1614 1484 
Q 1175 1578 917 1709 
Q 659 1841 536 2022 
Q 413 2203 413 2453 
Q 413 2869 764 3156 
Q 1116 3444 1663 3444 
Q 2238 3444 2595 3147 
Q 2953 2850 2953 2388 
L 2372 2388 
Q 2372 2625 2170 2797 
Q 1969 2969 1663 2969 
Q 1347 2969 1169 2831 
Q 991 2694 991 2472 
Q 991 2263 1156 2156 
Q 1322 2050 1755 1953 
Q 2188 1856 2456 1722 
Q 2725 1588 2854 1398 
Q 2984 1209 2984 938 
Q 2984 484 2621 210 
Q 2259 -63 1681 -63 
Q 1275 -63 962 81 
Q 650 225 473 483 
Q 297 741 297 1041 
L 875 1041 
Q 891 750 1108 579 
Q 1325 409 1681 409 
Q 2009 409 2207 542 
Q 2406 675 2406 897 
z
" id="Roboto-Regular-73" transform="scale(0.015625)"/>
       <path d="M 3294 1653 
Q 3294 881 2941 409 
Q 2588 -63 1984 -63 
Q 1369 -63 1016 328 
L 1016 -1300 
L 438 -1300 
L 438 3381 
L 966 3381 
L 994 3006 
Q 1347 3444 1975 3444 
Q 2584 3444 2939 2984 
Q 3294 2525 3294 1706 
L 3294 1653 
z
M 2716 1719 
Q 2716 2291 2472 2622 
Q 2228 2953 1803 2953 
Q 1278 2953 1016 2488 
L 1016 872 
Q 1275 409 1809 409 
Q 2225 409 2470 739 
Q 2716 1069 2716 1719 
z
" id="Roboto-Regular-70" transform="scale(0.015625)"/>
       <path d="M 1794 409 
Q 2103 409 2334 596 
Q 2566 784 2591 1066 
L 3138 1066 
Q 3122 775 2937 512 
Q 2753 250 2445 93 
Q 2138 -63 1794 -63 
Q 1103 -63 695 398 
Q 288 859 288 1659 
L 288 1756 
Q 288 2250 469 2634 
Q 650 3019 989 3231 
Q 1328 3444 1791 3444 
Q 2359 3444 2736 3103 
Q 3113 2763 3138 2219 
L 2591 2219 
Q 2566 2547 2342 2758 
Q 2119 2969 1791 2969 
Q 1350 2969 1108 2651 
Q 866 2334 866 1734 
L 866 1625 
Q 866 1041 1106 725 
Q 1347 409 1794 409 
z
" id="Roboto-Regular-63" transform="scale(0.015625)"/>
       <path d="M 1222 4200 
L 1222 3381 
L 1853 3381 
L 1853 2934 
L 1222 2934 
L 1222 838 
Q 1222 634 1306 532 
Q 1391 431 1594 431 
Q 1694 431 1869 469 
L 1869 0 
Q 1641 -63 1425 -63 
Q 1038 -63 841 171 
Q 644 406 644 838 
L 644 2934 
L 28 2934 
L 28 3381 
L 644 3381 
L 644 4200 
L 1222 4200 
z
" id="Roboto-Regular-74" transform="scale(0.015625)"/>
       <path d="M 416 1847 
Q 416 2553 605 3203 
Q 794 3853 1169 4384 
Q 1544 4916 1947 5134 
L 2066 4753 
Q 1609 4403 1317 3684 
Q 1025 2966 997 2075 
L 994 1809 
Q 994 603 1434 -284 
Q 1700 -816 2066 -1116 
L 1947 -1469 
Q 1531 -1238 1153 -694 
Q 416 369 416 1847 
z
" id="Roboto-Regular-28" transform="scale(0.015625)"/>
       <path d="M 278 1028 
L 1309 2078 
L 284 3125 
L 656 3509 
L 1684 2463 
L 2713 3509 
L 3084 3125 
L 2059 2078 
L 3091 1028 
L 2719 644 
L 1684 1697 
L 650 644 
L 278 1028 
z
" id="Roboto-Regular-d7" transform="scale(0.015625)"/>
       <path d="M 1772 1816 
Q 1772 1119 1589 480 
Q 1406 -159 1029 -700 
Q 653 -1241 241 -1469 
L 119 -1116 
Q 600 -747 892 29 
Q 1184 806 1191 1753 
L 1191 1853 
Q 1191 2509 1053 3073 
Q 916 3638 670 4084 
Q 425 4531 119 4781 
L 241 5134 
Q 653 4906 1026 4372 
Q 1400 3838 1586 3194 
Q 1772 2550 1772 1816 
z
" id="Roboto-Regular-29" transform="scale(0.015625)"/>
      </defs>
      <use xlink:href="#Roboto-Regular-4e"/>
      <use x="71.289062" xlink:href="#Roboto-Regular-75"/>
      <use x="126.416016" xlink:href="#Roboto-Regular-6d"/>
      <use x="214.0625" xlink:href="#Roboto-Regular-62"/>
      <use x="270.166016" xlink:href="#Roboto-Regular-65"/>
      <use x="323.144531" xlink:href="#Roboto-Regular-72"/>
      <use x="356.982422" xlink:href="#Roboto-Regular-20"/>
      <use x="381.738281" xlink:href="#Roboto-Regular-6f"/>
      <use x="438.769531" xlink:href="#Roboto-Regular-66"/>
      <use x="473.486328" xlink:href="#Roboto-Regular-20"/>
      <use x="498.242188" xlink:href="#Roboto-Regular-73"/>
      <use x="549.804688" xlink:href="#Roboto-Regular-70"/>
      <use x="605.908203" xlink:href="#Roboto-Regular-65"/>
      <use x="658.886719" xlink:href="#Roboto-Regular-63"/>
      <use x="711.230469" xlink:href="#Roboto-Regular-74"/>
      <use x="743.896484" xlink:href="#Roboto-Regular-72"/>
      <use x="777.734375" xlink:href="#Roboto-Regular-61"/>
      <use x="832.128906" xlink:href="#Roboto-Regular-20"/>
      <use x="856.884766" xlink:href="#Roboto-Regular-6f"/>
      <use x="913.916016" xlink:href="#Roboto-Regular-72"/>
      <use x="947.753906" xlink:href="#Roboto-Regular-20"/>
      <use x="972.509766" xlink:href="#Roboto-Regular-73"/>
      <use x="1024.072266" xlink:href="#Roboto-Regular-74"/>
      <use x="1056.738281" xlink:href="#Roboto-Regular-61"/>
      <use x="1111.132812" xlink:href="#Roboto-Regular-72"/>
      <use x="1144.970703" xlink:href="#Roboto-Regular-73"/>
      <use x="1196.533203" xlink:href="#Roboto-Regular-20"/>
      <use x="1221.289062" xlink:href="#Roboto-Regular-28"/>
      <use x="1255.46875" xlink:href="#Roboto-Regular-d7"/>
      <use x="1308.789062" xlink:href="#Roboto-Regular-31"/>
      <use x="1364.941406" xlink:href="#Roboto-Regular-30"/>
      <use x="1421.09375" xlink:href="#Roboto-Regular-30"/>
      <use x="1477.246094" xlink:href="#Roboto-Regular-30"/>
      <use x="1533.398438" xlink:href="#Roboto-Regular-30"/>
      <use x="1589.550781" xlink:href="#Roboto-Regular-30"/>
      <use x="1645.703125" xlink:href="#Roboto-Regular-29"/>
     </g>
    </g>
   </g>
   <g id="line2d_40">
    <path clip-path="url(#p9f734c50a5)" d="M 43.302816 187.058011 
L 43.39888 186.979003 
L 43.591009 186.656261 
L 43.975266 186.40942 
L 45.512294 186.40942 
L 45.992616 185.781604 
L 46.08868 185.781604 
L 46.280809 185.456572 
L 46.376873 185.456572 
L 46.665066 184.782789 
L 46.76113 184.670083 
L 46.953259 184.220732 
L 49.066673 184.220732 
L 49.258801 183.931524 
L 49.354866 183.931524 
L 49.739123 182.718421 
L 54.734466 182.718421 
L 54.926594 182.193986 
L 55.214787 181.079522 
L 57.616394 181.079522 
L 57.904587 180.085615 
L 58.000651 179.912221 
L 58.19278 179.442749 
L 58.384908 179.090891 
L 60.402258 179.090891 
L 61.170772 175.743899 
L 61.458965 175.043944 
L 68.951979 174.97704 
L 69.144108 174.564657 
L 69.336236 174.158326 
L 74.619772 174.099274 
L 75.100093 172.98023 
L 75.196158 172.862453 
L 75.580415 171.921382 
L 75.772543 171.921382 
L 75.964672 171.803769 
L 77.982022 171.803769 
L 78.462343 170.338918 
L 78.8466 169.283342 
L 83.169493 169.283342 
L 83.361622 169.108148 
L 83.55375 168.992007 
L 83.745879 168.992007 
L 84.514393 166.835708 
L 84.706522 166.405331 
L 85.859293 166.297859 
L 86.24355 165.08721 
L 86.531743 165.08721 
L 86.723871 164.911199 
L 89.125479 164.911199 
L 89.221543 164.794077 
L 89.797929 162.694212 
L 89.990057 162.167814 
L 92.2956 162.167814 
L 92.679857 160.540202 
L 97.290943 160.439274 
L 97.483071 160.211735 
L 97.579135 160.152847 
L 98.34765 157.741363 
L 101.613835 157.741363 
L 101.902028 157.046479 
L 104.687892 157.046479 
L 104.976085 156.501597 
L 108.530464 156.501597 
L 108.722592 155.884086 
L 109.106849 155.825198 
L 109.298978 155.432281 
L 109.875363 154.290826 
L 110.259621 154.290826 
L 110.932071 152.746312 
L 111.124199 152.597291 
L 111.892713 152.597291 
L 112.276971 151.830923 
L 112.469099 151.830923 
L 112.757292 151.176607 
L 117.848699 151.176607 
L 118.32902 149.650086 
L 118.425085 149.650086 
L 118.905406 148.013968 
L 119.866049 148.013968 
L 120.058177 147.510799 
L 120.154242 147.452565 
L 120.634563 145.713555 
L 121.210949 144.325096 
L 122.555849 144.266371 
L 122.940106 143.460907 
L 123.03617 143.402509 
L 123.612556 141.24441 
L 123.900749 141.24441 
L 124.285006 140.154483 
L 124.477134 139.6644 
L 124.765327 139.606002 
L 125.437777 139.571814 
L 125.72597 139.397111 
L 129.376413 139.397111 
L 129.664606 139.163684 
L 131.201634 139.163684 
L 131.489827 138.414655 
L 132.066213 137.194519 
L 134.659948 137.194519 
L 134.852077 136.879138 
L 134.948141 136.879138 
L 135.14027 136.517628 
L 135.332398 136.492274 
L 135.524527 136.202248 
L 136.581234 136.202248 
L 136.965491 135.153542 
L 137.061555 135.153542 
L 137.445812 134.35593 
L 139.367098 134.35593 
L 139.84742 132.941462 
L 140.423805 132.941462 
L 140.615934 132.385293 
L 141.000191 131.351309 
L 142.729348 131.351309 
L 143.113605 130.494973 
L 143.305734 130.017485 
L 143.497862 129.978553 
L 143.786055 128.908419 
L 144.554569 128.908419 
L 144.842762 128.517628 
L 145.323084 127.882778 
L 145.899469 126.404677 
L 145.995534 126.34677 
L 146.667984 124.746476 
L 147.244369 124.004808 
L 147.436498 124.004808 
L 147.724691 123.352127 
L 147.916819 122.731345 
L 148.012884 122.731345 
L 148.205012 122.277576 
L 148.301076 122.277576 
L 148.589269 121.373147 
L 149.261719 121.373147 
L 149.453848 120.910873 
L 149.934169 119.590626 
L 151.759391 119.533046 
L 152.239712 119.360143 
L 153.77674 119.360143 
L 154.257062 118.38014 
L 155.313769 114.044476 
L 156.946862 114.044476 
L 158.099633 108.161844 
L 159.252405 108.161844 
L 159.540597 106.897541 
L 159.924854 105.081977 
L 160.693369 105.081977 
L 160.885497 104.419481 
L 163.19104 104.419481 
L 163.383169 103.629067 
L 163.671361 102.60817 
L 164.439876 102.60817 
L 164.824133 101.2997 
L 165.304454 101.2997 
L 165.592647 100.502089 
L 165.688711 100.502089 
L 165.976904 99.526339 
L 167.89819 99.526339 
L 168.186383 98.884946 
L 168.57064 98.884946 
L 168.858833 97.734821 
L 169.339154 95.816202 
L 169.531283 95.609765 
L 171.164376 95.609765 
L 171.548633 94.924368 
L 173.662047 94.924368 
L 173.95024 94.459149 
L 174.046304 94.459149 
L 174.238433 93.890548 
L 174.430561 93.502048 
L 174.814818 92.970089 
L 177.504618 92.970089 
L 177.696747 92.587313 
L 179.521968 92.587313 
L 179.714097 91.839757 
L 179.810161 91.839757 
L 180.002289 91.358344 
L 180.386547 90.327304 
L 182.307832 90.327304 
L 183.172411 89.387379 
L 194.60406 89.387379 
L 194.796189 88.854765 
L 194.988317 88.597455 
L 196.333217 88.597455 
L 197.29386 87.033803 
L 213.912981 87.033803 
L 214.10511 86.37556 
L 214.681495 84.527444 
L 218.331938 84.527444 
L 219.100452 82.487121 
L 219.292581 82.19775 
L 220.157159 82.19775 
L 220.349288 81.633729 
L 220.541417 81.209405 
L 230.820295 81.209405 
L 231.012423 80.626409 
L 244.749616 80.626409 
L 245.133873 79.977818 
L 245.51813 79.977818 
L 245.806323 79.561345 
L 254.356044 79.460908 
L 254.644237 78.781237 
L 262.713636 78.781237 
L 263.386086 76.148104 
L 263.482151 76.148104 
L 263.674279 75.919257 
L 263.962472 75.87689 
L 264.346729 75.87689 
L 264.730986 74.569075 
L 268.285365 74.569075 
L 268.477493 74.218688 
L 268.86175 74.117596 
L 269.053879 73.853907 
L 269.822393 73.853907 
L 270.014522 73.59856 
L 270.20665 73.59856 
L 270.398779 73.462462 
L 270.590908 73.462462 
L 270.975165 71.908624 
L 272.800386 71.908624 
L 272.89645 71.779724 
L 273.184643 71.146182 
L 273.472836 71.146182 
L 274.337415 68.929358 
L 275.970507 68.929358 
L 276.162636 68.157591 
L 276.450829 68.157591 
L 277.123279 66.592467 
L 282.214686 66.592467 
L 282.791071 66.066396 
L 282.887136 66.066396 
L 283.079264 65.887277 
L 286.441514 65.887277 
L 286.825771 65.181924 
L 287.113964 65.126143 
L 287.306093 65.126143 
L 287.786414 63.96146 
L 288.3628 63.96146 
L 288.650993 63.578849 
L 293.166014 63.578849 
L 293.934528 61.569934 
L 294.510914 60.067132 
L 295.951878 60.067132 
L 296.144007 59.747172 
L 297.969228 59.747172 
L 298.929871 57.52315 
L 299.218064 56.840044 
L 299.890514 56.731427 
L 300.274771 56.517956 
L 300.562964 55.805733 
L 301.043285 55.753224 
L 301.235414 55.489371 
L 303.156699 55.489371 
L 303.348828 55.063902 
L 303.540956 55.063902 
L 303.829149 54.370653 
L 304.021278 54.370653 
L 304.309471 54.199713 
L 304.597663 54.117106 
L 304.789792 53.822827 
L 304.981921 53.822827 
L 305.750435 52.187527 
L 307.383528 52.160372 
L 309.881199 52.160372 
L 310.073328 52.047666 
L 310.937906 51.946575 
L 311.226099 51.467779 
L 311.226099 51.467779 
" style="fill:none;stroke:#8dd3c7;stroke-linecap:square;stroke-width:2;"/>
   </g>
   <g id="line2d_41">
    <path clip-path="url(#p9f734c50a5)" d="M 43.494945 186.897704 
L 45.608359 186.793013 
L 45.704423 186.764878 
L 45.992616 186.448188 
L 46.08868 186.448188 
L 46.280809 186.192187 
L 46.376873 186.192187 
L 46.665066 185.549975 
L 46.76113 185.446266 
L 46.953259 185.025214 
L 49.066673 185.025214 
L 49.258801 184.77003 
L 49.354866 184.77003 
L 49.739123 183.649186 
L 54.734466 183.649186 
L 54.926594 183.178733 
L 55.214787 182.230792 
L 57.616394 182.230792 
L 57.904587 181.343212 
L 58.000651 181.227888 
L 58.19278 180.806836 
L 58.384908 180.499961 
L 60.402258 180.499961 
L 61.170772 177.567315 
L 61.458965 176.937863 
L 68.951979 176.87832 
L 69.144108 176.506668 
L 69.336236 176.153828 
L 74.619772 176.1041 
L 75.100093 175.177751 
L 75.196158 175.076659 
L 75.580415 174.279211 
L 77.982022 174.230138 
L 78.366279 173.201552 
L 78.8466 171.880978 
L 83.169493 171.880978 
L 83.457686 171.60044 
L 83.745879 171.60044 
L 84.802586 169.322437 
L 85.859293 169.227234 
L 86.24355 168.174603 
L 86.531743 168.174603 
L 86.723871 168.032125 
L 89.221543 167.927271 
L 89.701864 166.463565 
L 89.990057 165.52184 
L 92.2956 165.52184 
L 92.679857 164.092322 
L 97.290943 163.998591 
L 97.483071 163.791991 
L 97.579135 163.738173 
L 98.34765 161.564534 
L 101.613835 161.564534 
L 101.902028 160.938026 
L 104.687892 160.938026 
L 104.976085 160.468227 
L 108.530464 160.468227 
L 108.722592 159.920074 
L 109.106849 159.869691 
L 109.298978 159.52045 
L 109.971428 158.53783 
L 110.259621 158.53783 
L 110.836006 157.383616 
L 111.124199 157.15117 
L 111.892713 157.15117 
L 112.276971 156.445653 
L 112.469099 156.445653 
L 112.757292 155.83812 
L 117.848699 155.83812 
L 118.32902 154.42038 
L 118.425085 154.42038 
L 118.905406 152.922977 
L 119.866049 152.922977 
L 120.058177 152.450888 
L 120.154242 152.395107 
L 120.634563 150.830146 
L 120.730627 150.720221 
L 121.01882 149.676586 
L 122.555849 149.624241 
L 122.844042 148.950131 
L 123.03617 148.895332 
L 123.612556 146.936472 
L 123.900749 146.936472 
L 124.285006 145.897582 
L 124.477134 145.443813 
L 124.765327 145.390813 
L 125.533841 145.281052 
L 125.822034 145.227071 
L 129.472477 145.119436 
L 129.664606 145.011474 
L 131.201634 145.011474 
L 131.874084 143.191983 
L 134.659948 143.191983 
L 134.852077 142.901794 
L 134.948141 142.901794 
L 135.14027 142.564821 
L 135.332398 142.544864 
L 135.524527 142.268252 
L 136.581234 142.268252 
L 137.061555 141.309024 
L 137.445812 140.552143 
L 139.367098 140.552143 
L 139.84742 139.2211 
L 140.423805 139.2211 
L 140.615934 138.698138 
L 141.000191 137.731222 
L 142.729348 137.731222 
L 143.113605 136.939335 
L 143.305734 136.502088 
L 143.497862 136.466101 
L 143.786055 135.452401 
L 144.554569 135.452401 
L 144.842762 135.138656 
L 145.130955 134.972951 
L 146.283726 132.365009 
L 146.475855 131.870019 
L 146.764048 131.609437 
L 146.860112 131.609437 
L 147.148305 131.066518 
L 147.436498 131.066518 
L 147.724691 130.489902 
L 147.916819 129.941421 
L 148.012884 129.941421 
L 148.205012 129.574349 
L 148.301076 129.574349 
L 148.589269 128.719976 
L 149.261719 128.719976 
L 149.453848 128.279294 
L 149.934169 127.059484 
L 151.855455 126.950213 
L 152.047583 126.841924 
L 153.77674 126.841924 
L 154.257062 125.903798 
L 155.409833 121.80974 
L 156.946862 121.80974 
L 158.003569 116.678754 
L 158.195697 116.40525 
L 159.252405 116.40525 
L 159.540597 115.218647 
L 159.924854 113.504338 
L 160.693369 113.504338 
L 160.885497 112.903512 
L 163.19104 112.903512 
L 163.383169 112.164298 
L 163.671361 111.194274 
L 164.439876 111.194274 
L 164.824133 109.979862 
L 165.304454 109.979862 
L 165.592647 109.271728 
L 165.688711 109.271728 
L 165.976904 108.534804 
L 167.994254 108.485731 
L 168.378511 108.148758 
L 168.57064 108.148758 
L 168.666704 108.034089 
L 169.531283 105.20875 
L 171.164376 105.20875 
L 171.548633 104.55836 
L 173.662047 104.55836 
L 173.95024 104.169042 
L 174.046304 104.169042 
L 174.238433 103.682067 
L 174.430561 103.316958 
L 174.814818 102.820168 
L 177.504618 102.820168 
L 177.696747 102.462257 
L 179.521968 102.462257 
L 179.714097 101.778824 
L 179.810161 101.778824 
L 180.002289 101.322111 
L 180.386547 100.355031 
L 182.403897 100.264245 
L 182.596025 100.083817 
L 182.692089 100.083817 
L 182.884218 99.720181 
L 183.076346 99.56429 
L 194.60406 99.56429 
L 195.084382 98.895087 
L 196.429282 98.829002 
L 197.005667 97.946165 
L 197.101732 97.946165 
L 197.29386 97.66121 
L 213.912981 97.66121 
L 214.10511 97.055477 
L 214.681495 95.328081 
L 218.428002 95.224209 
L 218.524067 95.162212 
L 218.716195 94.746721 
L 218.812259 94.746721 
L 219.292581 93.702759 
L 220.157159 93.702759 
L 220.349288 93.219056 
L 220.541417 92.847568 
L 230.820295 92.847568 
L 231.012423 92.388238 
L 244.749616 92.388238 
L 245.037808 91.997611 
L 245.229937 91.882942 
L 245.51813 91.882942 
L 245.806323 91.598478 
L 254.356044 91.512272 
L 254.644237 90.964118 
L 262.713636 90.964118 
L 263.193958 89.270911 
L 263.386086 88.816979 
L 263.482151 88.816979 
L 263.674279 88.663869 
L 264.058536 88.631316 
L 264.346729 88.631316 
L 264.730986 87.597169 
L 268.285365 87.597169 
L 268.477493 87.315322 
L 268.86175 87.218974 
L 269.053879 87.052778 
L 269.822393 87.052778 
L 270.014522 86.843887 
L 270.20665 86.843887 
L 270.398779 86.723002 
L 270.590908 86.723002 
L 270.975165 85.480946 
L 272.800386 85.480946 
L 272.992515 85.108477 
L 273.184643 84.836281 
L 273.472836 84.836281 
L 274.145286 83.433917 
L 274.337415 82.991927 
L 275.970507 82.991927 
L 276.162636 82.294589 
L 276.450829 82.294589 
L 277.219343 80.883392 
L 282.31075 80.779519 
L 282.502879 80.589604 
L 282.598943 80.589604 
L 282.791071 80.433876 
L 282.887136 80.433876 
L 283.079264 80.306285 
L 286.441514 80.306285 
L 286.825771 79.771545 
L 287.306093 79.761566 
L 287.882478 78.822459 
L 288.3628 78.822459 
L 288.554928 78.489248 
L 293.166014 78.489248 
L 294.030592 76.624773 
L 294.41485 75.653441 
L 295.951878 75.653441 
L 296.144007 75.42901 
L 297.969228 75.42901 
L 298.353485 74.868915 
L 298.449549 74.822622 
L 299.121999 73.18634 
L 300.178706 73.099971 
L 300.755092 72.569974 
L 303.156699 72.473953 
L 303.348828 72.142706 
L 303.540956 72.142706 
L 303.829149 71.776288 
L 304.117342 71.677977 
L 304.597663 71.610092 
L 304.789792 71.356054 
L 304.981921 71.356054 
L 305.750435 69.981498 
L 307.287463 69.960888 
L 310.457585 69.855052 
L 310.649713 69.763611 
L 310.937906 69.763611 
L 311.226099 69.357281 
L 311.226099 69.357281 
" style="fill:none;stroke:#8dd3c7;stroke-dasharray:3.7,1.6;stroke-dashoffset:0;"/>
   </g>
   <g id="line2d_42">
    <path clip-path="url(#p9f734c50a5)" d="M 43.302816 187.058011 
L 43.39888 187.058011 
L 43.591009 186.887725 
L 45.704423 186.803319 
L 46.280809 186.24764 
L 46.376873 186.24764 
L 46.665066 185.636836 
L 46.76113 185.580728 
L 46.953259 185.244083 
L 49.066673 185.244083 
L 49.258801 184.954875 
L 49.354866 184.954875 
L 49.739123 183.741936 
L 54.734466 183.741936 
L 54.926594 183.217665 
L 55.214787 182.171413 
L 57.616394 182.171413 
L 57.904587 181.177506 
L 58.000651 181.004276 
L 58.19278 180.535131 
L 58.384908 180.211735 
L 60.402258 180.211735 
L 61.170772 176.89206 
L 61.458965 176.19276 
L 68.951979 176.125856 
L 69.144108 175.7138 
L 69.336236 175.307797 
L 74.619772 175.248745 
L 75.100093 174.130027 
L 75.196158 174.01225 
L 75.580415 173.07167 
L 75.772543 173.07167 
L 75.964672 172.954057 
L 77.982022 172.954057 
L 78.462343 171.48937 
L 78.8466 170.434939 
L 83.169493 170.434939 
L 83.361622 170.260236 
L 83.55375 170.144095 
L 83.745879 170.144095 
L 84.514393 168.062224 
L 84.706522 167.632174 
L 85.859293 167.524866 
L 86.24355 166.600481 
L 86.531743 166.600481 
L 86.723871 166.42447 
L 89.125479 166.42447 
L 89.317607 166.015195 
L 89.6058 164.892878 
L 89.701864 164.775756 
L 89.990057 163.92858 
L 92.2956 163.92858 
L 92.679857 162.823603 
L 97.290943 162.722838 
L 97.483071 162.495299 
L 97.579135 162.436575 
L 98.34765 160.027054 
L 101.613835 160.027054 
L 101.902028 159.368158 
L 104.687892 159.368158 
L 104.976085 158.823603 
L 108.530464 158.823603 
L 108.722592 158.206419 
L 109.106849 158.14753 
L 109.298978 157.755268 
L 109.491106 157.655157 
L 109.779299 156.950458 
L 110.259621 156.950458 
L 110.932071 155.411997 
L 111.124199 155.263467 
L 111.892713 155.263467 
L 112.373035 154.53096 
L 112.469099 154.53096 
L 112.757292 153.877461 
L 117.848699 153.877461 
L 118.32902 152.387583 
L 118.425085 152.387583 
L 118.905406 150.786634 
L 119.866049 150.786634 
L 120.058177 150.339736 
L 120.154242 150.281502 
L 120.634563 148.547727 
L 121.114884 147.331352 
L 122.555849 147.272628 
L 122.940106 146.467328 
L 123.03617 146.40893 
L 123.612556 144.286164 
L 123.900749 144.286164 
L 124.285006 143.196563 
L 124.477134 142.706644 
L 124.765327 142.648246 
L 125.437777 142.614058 
L 125.72597 142.456531 
L 129.376413 142.456531 
L 129.664606 142.223268 
L 131.201634 142.223268 
L 131.489827 141.474402 
L 132.066213 140.274059 
L 134.659948 140.274059 
L 134.852077 139.958842 
L 134.948141 139.958842 
L 135.14027 139.597332 
L 135.332398 139.571977 
L 135.524527 139.281952 
L 136.581234 139.281952 
L 137.15762 138.024355 
L 137.541877 137.475384 
L 139.367098 137.475384 
L 139.751355 136.289108 
L 139.943484 136.173621 
L 140.423805 136.173621 
L 140.615934 135.618107 
L 141.000191 134.584941 
L 142.729348 134.584941 
L 143.113605 133.745617 
L 143.305734 133.324728 
L 143.497862 133.300354 
L 143.786055 132.46332 
L 144.554569 132.46332 
L 144.842762 132.072693 
L 145.323084 131.43817 
L 145.803405 130.220978 
L 146.187662 129.664154 
L 146.571919 128.721612 
L 146.667984 128.721612 
L 147.244369 127.979944 
L 147.436498 127.979944 
L 147.724691 127.331026 
L 148.012884 126.811989 
L 148.205012 126.414001 
L 148.301076 126.414001 
L 148.685333 125.622442 
L 149.261719 125.622442 
L 149.549912 124.877012 
L 149.742041 124.299414 
L 149.934169 123.86642 
L 151.759391 123.80884 
L 152.239712 123.636101 
L 153.77674 123.636101 
L 154.257062 122.658879 
L 155.313769 118.429541 
L 156.946862 118.429541 
L 158.099633 112.590094 
L 159.252405 112.590094 
L 159.540597 111.326118 
L 159.924854 109.511535 
L 160.693369 109.511535 
L 160.885497 108.850021 
L 163.19104 108.850021 
L 163.383169 108.059934 
L 163.671361 107.039691 
L 164.439876 107.039691 
L 164.728069 105.795018 
L 165.304454 105.795018 
L 165.592647 104.997897 
L 165.688711 104.997897 
L 165.976904 104.081527 
L 167.89819 104.081527 
L 168.186383 103.718218 
L 168.57064 103.718218 
L 168.858833 102.79694 
L 169.24309 101.462462 
L 169.435218 100.903348 
L 171.164376 100.903348 
L 171.452568 100.275204 
L 173.662047 100.275204 
L 173.854175 100.121931 
L 174.046304 100.09903 
L 174.238433 99.642644 
L 174.430561 99.256597 
L 174.814818 98.764224 
L 177.504618 98.764224 
L 177.696747 98.632543 
L 179.521968 98.632543 
L 179.714097 98.104673 
L 179.810161 98.104673 
L 180.002289 97.750197 
L 180.194418 97.499431 
L 180.482611 97.455101 
L 182.307832 97.455101 
L 182.884218 96.845441 
L 183.556668 96.82663 
L 196.333217 96.732408 
L 196.717475 96.244452 
L 196.813539 96.244452 
L 197.005667 95.872146 
L 197.101732 95.872146 
L 197.29386 95.583756 
L 213.912981 95.583756 
L 214.297238 94.543392 
L 214.681495 93.484054 
L 218.331938 93.484054 
L 219.196517 91.575086 
L 220.157159 91.575086 
L 220.349288 91.013846 
L 220.541417 90.589522 
L 230.820295 90.589522 
L 231.012423 90.095513 
L 244.749616 90.095513 
L 245.133873 89.485363 
L 245.51813 89.485363 
L 245.806323 89.147572 
L 254.356044 89.047134 
L 254.644237 88.421935 
L 262.713636 88.421935 
L 263.386086 85.789293 
L 263.482151 85.789293 
L 263.674279 85.560446 
L 264.346729 85.560446 
L 264.730986 84.433549 
L 268.285365 84.433549 
L 268.477493 84.129783 
L 268.86175 84.028691 
L 269.053879 83.765001 
L 269.822393 83.765001 
L 270.014522 83.509654 
L 270.20665 83.509654 
L 270.398779 83.373557 
L 270.590908 83.373557 
L 270.975165 81.872718 
L 272.800386 81.872718 
L 272.89645 81.744309 
L 273.088579 81.373148 
L 273.472836 81.373148 
L 273.857093 80.515666 
L 273.953157 80.515666 
L 274.24135 79.702841 
L 275.970507 79.702841 
L 276.2587 79.084512 
L 276.450829 79.084512 
L 277.027214 77.941258 
L 282.214686 77.941258 
L 282.502879 77.74758 
L 282.598943 77.74758 
L 282.791071 77.612955 
L 282.887136 77.612955 
L 283.079264 77.499267 
L 286.441514 77.499267 
L 286.825771 76.793914 
L 287.113964 76.738134 
L 287.306093 76.738134 
L 287.498221 76.392982 
L 287.786414 75.704968 
L 288.3628 75.704968 
L 288.650993 75.32252 
L 293.166014 75.32252 
L 293.838464 73.639455 
L 294.41485 71.978636 
L 295.951878 71.978636 
L 296.144007 71.808677 
L 297.969228 71.808677 
L 298.353485 71.136367 
L 298.449549 71.079932 
L 299.218064 69.03045 
L 299.890514 68.921833 
L 300.274771 68.708362 
L 300.466899 68.263264 
L 300.755092 68.206011 
L 303.156699 68.17673 
L 303.348828 67.853498 
L 303.540956 67.853498 
L 303.829149 67.633811 
L 304.021278 67.633811 
L 304.309471 67.462871 
L 304.597663 67.405782 
L 304.789792 67.191493 
L 304.981921 67.191493 
L 305.654371 65.66988 
L 309.881199 65.650742 
L 310.073328 65.538036 
L 310.937906 65.436944 
L 311.226099 64.958148 
L 311.226099 64.958148 
" style="fill:none;stroke:#feffb3;stroke-linecap:square;stroke-width:2;"/>
   </g>
   <g id="line2d_43">
    <path clip-path="url(#p9f734c50a5)" d="M 43.494945 186.973441 
L 45.704423 186.94416 
L 45.992616 186.695684 
L 46.08868 186.695684 
L 46.280809 186.474197 
L 46.376873 186.474197 
L 46.665066 185.892019 
L 46.76113 185.837875 
L 46.953259 185.522985 
L 49.066673 185.522985 
L 49.258801 185.267802 
L 49.354866 185.267802 
L 49.739123 184.146957 
L 54.734466 184.146957 
L 54.926594 183.676668 
L 55.214787 182.788433 
L 57.616394 182.788433 
L 57.904587 181.900853 
L 58.000651 181.785693 
L 58.19278 181.364968 
L 58.384908 181.079031 
L 60.402258 181.079031 
L 61.170772 178.168632 
L 61.458965 177.539507 
L 68.951979 177.479964 
L 69.144108 177.108476 
L 69.336236 176.755635 
L 74.619772 176.705907 
L 75.100093 175.779559 
L 75.196158 175.678467 
L 75.580415 174.881346 
L 77.982022 174.832272 
L 78.366279 173.803687 
L 78.8466 172.48344 
L 83.169493 172.48344 
L 83.457686 172.203229 
L 83.745879 172.203229 
L 84.802586 169.993602 
L 85.859293 169.898563 
L 86.339614 169.093263 
L 86.531743 169.093263 
L 86.723871 168.950785 
L 89.221543 168.845931 
L 89.797929 167.017444 
L 89.990057 166.662968 
L 92.2956 166.662968 
L 92.679857 165.653521 
L 97.290943 165.559954 
L 97.483071 165.353354 
L 97.579135 165.2997 
L 98.34765 163.127533 
L 101.613835 163.127533 
L 101.902028 162.53325 
L 104.687892 162.53325 
L 104.976085 162.063614 
L 108.530464 162.063614 
L 108.722592 161.515788 
L 109.106849 161.465405 
L 109.298978 161.116328 
L 109.491106 161.027013 
L 109.779299 160.413592 
L 110.259621 160.413592 
L 110.836006 159.263303 
L 111.124199 159.031021 
L 111.892713 159.031021 
L 112.373035 158.357075 
L 112.469099 158.357075 
L 112.757292 157.75036 
L 117.848699 157.75036 
L 118.32902 156.363864 
L 118.425085 156.363864 
L 118.905406 154.895578 
L 119.866049 154.895578 
L 120.058177 154.476324 
L 120.154242 154.420544 
L 120.634563 152.860326 
L 120.730627 152.750401 
L 121.114884 151.867074 
L 122.555849 151.814729 
L 122.844042 151.140619 
L 123.03617 151.08582 
L 123.612556 149.159022 
L 123.900749 149.159022 
L 124.285006 148.120294 
L 124.477134 147.66669 
L 124.765327 147.61369 
L 125.533841 147.505073 
L 125.822034 147.451092 
L 129.472477 147.343457 
L 129.664606 147.235659 
L 131.201634 147.235659 
L 131.77802 145.683784 
L 131.970148 145.434816 
L 134.659948 145.434816 
L 134.852077 145.14479 
L 134.948141 145.14479 
L 135.14027 144.807818 
L 135.332398 144.787861 
L 135.524527 144.511249 
L 136.581234 144.511249 
L 137.349748 142.830637 
L 139.367098 142.830637 
L 139.751355 141.715027 
L 139.943484 141.607065 
L 140.423805 141.607065 
L 140.615934 141.084266 
L 141.000191 140.117677 
L 142.729348 140.117677 
L 143.113605 139.331516 
L 143.305734 138.946614 
L 143.497862 138.923386 
L 143.786055 138.132972 
L 144.554569 138.132972 
L 144.842762 137.819227 
L 145.130955 137.653522 
L 146.571919 134.816242 
L 146.667984 134.816242 
L 147.244369 134.149166 
L 147.436498 134.149166 
L 147.724691 133.574513 
L 147.916819 133.12238 
L 148.012884 133.12238 
L 148.205012 132.806182 
L 148.301076 132.806182 
L 148.685333 132.047502 
L 149.261719 132.047502 
L 149.453848 131.60682 
L 149.934169 130.410566 
L 151.855455 130.301295 
L 152.047583 130.193006 
L 153.77674 130.193006 
L 154.257062 129.257497 
L 155.409833 125.264694 
L 156.946862 125.264694 
L 158.003569 120.172477 
L 158.195697 119.898972 
L 159.252405 119.898972 
L 159.540597 118.712533 
L 159.924854 116.998715 
L 160.693369 116.998715 
L 160.885497 116.398216 
L 163.19104 116.398216 
L 163.383169 115.659002 
L 163.671361 114.689305 
L 164.439876 114.689305 
L 164.728069 113.533291 
L 165.304454 113.533291 
L 165.592647 112.825484 
L 165.688711 112.825484 
L 165.976904 112.106554 
L 168.090318 111.996629 
L 168.378511 111.931361 
L 168.666704 111.87051 
L 169.531283 109.430564 
L 171.164376 109.430564 
L 171.452568 108.83121 
L 173.662047 108.83121 
L 173.854175 108.701328 
L 174.142368 108.549527 
L 174.526625 107.792319 
L 174.62269 107.792319 
L 174.814818 107.456982 
L 177.504618 107.456982 
L 177.696747 107.335442 
L 179.521968 107.335442 
L 179.714097 106.84994 
L 179.810161 106.84994 
L 180.002289 106.511985 
L 180.194418 106.274959 
L 180.482611 106.232919 
L 182.403897 106.142133 
L 182.596025 106.004726 
L 182.692089 106.004726 
L 182.884218 105.699815 
L 183.556668 105.682148 
L 196.333217 105.605593 
L 196.813539 105.28825 
L 197.005667 104.951113 
L 197.101732 104.951113 
L 197.29386 104.689387 
L 213.912981 104.689387 
L 214.297238 103.721816 
L 214.681495 102.731345 
L 218.428002 102.627472 
L 218.620131 102.374415 
L 218.908324 102.086843 
L 219.196517 101.401447 
L 220.157159 101.401447 
L 220.349288 100.919706 
L 220.541417 100.548218 
L 230.820295 100.548218 
L 231.012423 100.161026 
L 244.749616 100.161026 
L 245.037808 99.770399 
L 245.229937 99.679449 
L 245.51813 99.679449 
L 245.806323 99.441605 
L 254.356044 99.355399 
L 254.644237 98.855829 
L 262.713636 98.855829 
L 263.193958 97.162621 
L 263.386086 96.70918 
L 263.482151 96.70918 
L 263.674279 96.55607 
L 264.346729 96.55607 
L 264.730986 95.672579 
L 268.285365 95.672579 
L 268.477493 95.415269 
L 268.86175 95.318921 
L 269.053879 95.152725 
L 269.822393 95.152725 
L 270.014522 94.943834 
L 270.20665 94.943834 
L 270.398779 94.822949 
L 270.590908 94.822949 
L 270.975165 93.626204 
L 272.800386 93.626204 
L 273.280707 93.21055 
L 273.472836 93.21055 
L 273.857093 92.531369 
L 273.953157 92.531369 
L 274.24135 91.843519 
L 275.970507 91.843519 
L 276.2587 91.287677 
L 276.450829 91.287677 
L 277.027214 90.249932 
L 282.31075 90.146059 
L 282.791071 89.957943 
L 286.441514 89.886132 
L 286.825771 89.351392 
L 287.402157 89.246701 
L 287.882478 88.497836 
L 288.3628 88.497836 
L 288.554928 88.164789 
L 293.166014 88.164789 
L 293.934528 86.535868 
L 294.41485 85.470804 
L 297.969228 85.372003 
L 298.353485 84.878321 
L 298.449549 84.832028 
L 299.314128 83.24711 
L 300.178706 83.16074 
L 300.659028 82.691105 
L 303.156699 82.685052 
L 303.348828 82.416782 
L 303.637021 82.314545 
L 303.829149 82.214271 
L 304.117342 82.11596 
L 304.981921 81.882206 
L 305.654371 80.604326 
L 309.881199 80.591567 
L 310.073328 80.485731 
L 310.937906 80.39429 
L 311.226099 79.98796 
L 311.226099 79.98796 
" style="fill:none;stroke:#feffb3;stroke-dasharray:3.7,1.6;stroke-dashoffset:0;"/>
   </g>
   <g id="line2d_44">
    <path clip-path="url(#p9f734c50a5)" d="M 39.748438 23.557911 
L 320.44827 23.557911 
" style="fill:none;stroke:#ffffff;stroke-dasharray:5.55,2.4;stroke-dashoffset:0;stroke-width:1.5;"/>
   </g>
   <g id="patch_87">
    <path d="M 39.748438 187.13702 
L 39.748438 7.2 
" style="fill:none;stroke:#ffffff;stroke-linecap:square;stroke-linejoin:miter;stroke-width:0.8;"/>
   </g>
   <g id="patch_88">
    <path d="M 320.44827 187.13702 
L 320.44827 7.2 
" style="fill:none;stroke:#ffffff;stroke-linecap:square;stroke-linejoin:miter;stroke-width:0.8;"/>
   </g>
   <g id="patch_89">
    <path d="M 39.748437 187.13702 
L 320.44827 187.13702 
" style="fill:none;stroke:#ffffff;stroke-linecap:square;stroke-linejoin:miter;stroke-width:0.8;"/>
   </g>
   <g id="patch_90">
    <path d="M 39.748437 7.2 
L 320.44827 7.2 
" style="fill:none;stroke:#ffffff;stroke-linecap:square;stroke-linejoin:miter;stroke-width:0.8;"/>
   </g>
   <g id="legend_1">
    <g id="patch_91">
     <path d="M 178.645145 182.13702 
L 313.44827 182.13702 
Q 315.44827 182.13702 315.44827 180.13702 
L 315.44827 122.708895 
Q 315.44827 120.708895 313.44827 120.708895 
L 178.645145 120.708895 
Q 176.645145 120.708895 176.645145 122.708895 
L 176.645145 180.13702 
Q 176.645145 182.13702 178.645145 182.13702 
z
" style="opacity:0.8;stroke:#cccccc;stroke-linejoin:miter;"/>
    </g>
    <g id="line2d_45">
     <path d="M 180.645145 128.708895 
L 200.645145 128.708895 
" style="fill:none;stroke:#8dd3c7;stroke-linecap:square;stroke-width:2;"/>
    </g>
    <g id="line2d_46"/>
    <g id="text_18">
     <!-- All spectra -->
     <g style="fill:#ffffff;" transform="translate(208.645145 132.208895)scale(0.1 -0.1)">
      <defs>
       <path d="M 3041 1188 
L 1134 1188 
L 706 0 
L 88 0 
L 1825 4550 
L 2350 4550 
L 4091 0 
L 3475 0 
L 3041 1188 
z
M 1316 1681 
L 2863 1681 
L 2088 3809 
L 1316 1681 
z
" id="Roboto-Regular-41" transform="scale(0.015625)"/>
       <path d="M 1066 0 
L 488 0 
L 488 4800 
L 1066 4800 
L 1066 0 
z
" id="Roboto-Regular-6c" transform="scale(0.015625)"/>
      </defs>
      <use xlink:href="#Roboto-Regular-41"/>
      <use x="65.234375" xlink:href="#Roboto-Regular-6c"/>
      <use x="89.501953" xlink:href="#Roboto-Regular-6c"/>
      <use x="113.769531" xlink:href="#Roboto-Regular-20"/>
      <use x="138.525391" xlink:href="#Roboto-Regular-73"/>
      <use x="190.087891" xlink:href="#Roboto-Regular-70"/>
      <use x="246.191406" xlink:href="#Roboto-Regular-65"/>
      <use x="299.169922" xlink:href="#Roboto-Regular-63"/>
      <use x="351.513672" xlink:href="#Roboto-Regular-74"/>
      <use x="384.179688" xlink:href="#Roboto-Regular-72"/>
      <use x="418.017578" xlink:href="#Roboto-Regular-61"/>
     </g>
    </g>
    <g id="line2d_47">
     <path d="M 180.645145 143.34327 
L 200.645145 143.34327 
" style="fill:none;stroke:#8dd3c7;stroke-dasharray:3.7,1.6;stroke-dashoffset:0;"/>
    </g>
    <g id="line2d_48"/>
    <g id="text_19">
     <!-- Unflagged spectra -->
     <g style="fill:#ffffff;" transform="translate(208.645145 146.84327)scale(0.1 -0.1)">
      <defs>
       <path d="M 3731 4550 
L 3731 1456 
Q 3728 813 3326 403 
Q 2925 -6 2238 -56 
L 2078 -63 
Q 1331 -63 887 340 
Q 444 744 438 1450 
L 438 4550 
L 1031 4550 
L 1031 1469 
Q 1031 975 1303 701 
Q 1575 428 2078 428 
Q 2588 428 2858 700 
Q 3128 972 3128 1466 
L 3128 4550 
L 3731 4550 
z
" id="Roboto-Regular-55" transform="scale(0.015625)"/>
       <path d="M 984 3381 
L 1003 2956 
Q 1391 3444 2016 3444 
Q 3088 3444 3097 2234 
L 3097 0 
L 2519 0 
L 2519 2238 
Q 2516 2603 2352 2778 
Q 2188 2953 1841 2953 
Q 1559 2953 1346 2803 
Q 1134 2653 1016 2409 
L 1016 0 
L 438 0 
L 438 3381 
L 984 3381 
z
" id="Roboto-Regular-6e" transform="scale(0.015625)"/>
       <path d="M 300 1719 
Q 300 2509 665 2976 
Q 1031 3444 1634 3444 
Q 2253 3444 2600 3006 
L 2628 3381 
L 3156 3381 
L 3156 81 
Q 3156 -575 2767 -953 
Q 2378 -1331 1722 -1331 
Q 1356 -1331 1006 -1175 
Q 656 -1019 472 -747 
L 772 -400 
Q 1144 -859 1681 -859 
Q 2103 -859 2339 -621 
Q 2575 -384 2575 47 
L 2575 338 
Q 2228 -63 1628 -63 
Q 1034 -63 667 415 
Q 300 894 300 1719 
z
M 881 1653 
Q 881 1081 1115 754 
Q 1350 428 1772 428 
Q 2319 428 2575 925 
L 2575 2469 
Q 2309 2953 1778 2953 
Q 1356 2953 1118 2625 
Q 881 2297 881 1653 
z
" id="Roboto-Regular-67" transform="scale(0.015625)"/>
       <path d="M 297 1719 
Q 297 2497 665 2970 
Q 1034 3444 1631 3444 
Q 2225 3444 2572 3038 
L 2572 4800 
L 3150 4800 
L 3150 0 
L 2619 0 
L 2591 363 
Q 2244 -63 1625 -63 
Q 1038 -63 667 418 
Q 297 900 297 1675 
L 297 1719 
z
M 875 1653 
Q 875 1078 1112 753 
Q 1350 428 1769 428 
Q 2319 428 2572 922 
L 2572 2475 
Q 2313 2953 1775 2953 
Q 1350 2953 1112 2625 
Q 875 2297 875 1653 
z
" id="Roboto-Regular-64" transform="scale(0.015625)"/>
      </defs>
      <use xlink:href="#Roboto-Regular-55"/>
      <use x="64.84375" xlink:href="#Roboto-Regular-6e"/>
      <use x="120.019531" xlink:href="#Roboto-Regular-66"/>
      <use x="154.736328" xlink:href="#Roboto-Regular-6c"/>
      <use x="179.003906" xlink:href="#Roboto-Regular-61"/>
      <use x="233.398438" xlink:href="#Roboto-Regular-67"/>
      <use x="289.501953" xlink:href="#Roboto-Regular-67"/>
      <use x="345.605469" xlink:href="#Roboto-Regular-65"/>
      <use x="398.583984" xlink:href="#Roboto-Regular-64"/>
      <use x="454.980469" xlink:href="#Roboto-Regular-20"/>
      <use x="479.736328" xlink:href="#Roboto-Regular-73"/>
      <use x="531.298828" xlink:href="#Roboto-Regular-70"/>
      <use x="587.402344" xlink:href="#Roboto-Regular-65"/>
      <use x="640.380859" xlink:href="#Roboto-Regular-63"/>
      <use x="692.724609" xlink:href="#Roboto-Regular-74"/>
      <use x="725.390625" xlink:href="#Roboto-Regular-72"/>
      <use x="759.228516" xlink:href="#Roboto-Regular-61"/>
     </g>
    </g>
    <g id="line2d_49">
     <path d="M 180.645145 157.922958 
L 200.645145 157.922958 
" style="fill:none;stroke:#feffb3;stroke-linecap:square;stroke-width:2;"/>
    </g>
    <g id="line2d_50"/>
    <g id="text_20">
     <!-- All unique stars -->
     <g style="fill:#ffffff;" transform="translate(208.645145 161.422958)scale(0.1 -0.1)">
      <defs>
       <path d="M 1066 0 
L 488 0 
L 488 3381 
L 1066 3381 
L 1066 0 
z
M 441 4278 
Q 441 4419 527 4516 
Q 613 4613 781 4613 
Q 950 4613 1037 4516 
Q 1125 4419 1125 4278 
Q 1125 4138 1037 4044 
Q 950 3950 781 3950 
Q 613 3950 527 4044 
Q 441 4138 441 4278 
z
" id="Roboto-Regular-69" transform="scale(0.015625)"/>
       <path d="M 297 1719 
Q 297 2516 662 2980 
Q 1028 3444 1644 3444 
Q 2244 3444 2591 3041 
L 2616 3381 
L 3147 3381 
L 3147 -1300 
L 2569 -1300 
L 2569 313 
Q 2219 -63 1638 -63 
Q 1025 -63 661 414 
Q 297 891 297 1678 
L 297 1719 
z
M 875 1653 
Q 875 1072 1120 740 
Q 1366 409 1781 409 
Q 2297 409 2569 866 
L 2569 2522 
Q 2294 2969 1788 2969 
Q 1369 2969 1122 2636 
Q 875 2303 875 1653 
z
" id="Roboto-Regular-71" transform="scale(0.015625)"/>
      </defs>
      <use xlink:href="#Roboto-Regular-41"/>
      <use x="65.234375" xlink:href="#Roboto-Regular-6c"/>
      <use x="89.501953" xlink:href="#Roboto-Regular-6c"/>
      <use x="113.769531" xlink:href="#Roboto-Regular-20"/>
      <use x="138.525391" xlink:href="#Roboto-Regular-75"/>
      <use x="193.652344" xlink:href="#Roboto-Regular-6e"/>
      <use x="248.828125" xlink:href="#Roboto-Regular-69"/>
      <use x="273.095703" xlink:href="#Roboto-Regular-71"/>
      <use x="329.931641" xlink:href="#Roboto-Regular-75"/>
      <use x="385.058594" xlink:href="#Roboto-Regular-65"/>
      <use x="438.037109" xlink:href="#Roboto-Regular-20"/>
      <use x="462.792969" xlink:href="#Roboto-Regular-73"/>
      <use x="514.355469" xlink:href="#Roboto-Regular-74"/>
      <use x="547.021484" xlink:href="#Roboto-Regular-61"/>
      <use x="601.416016" xlink:href="#Roboto-Regular-72"/>
      <use x="635.253906" xlink:href="#Roboto-Regular-73"/>
     </g>
    </g>
    <g id="line2d_51">
     <path d="M 180.645145 172.557333 
L 200.645145 172.557333 
" style="fill:none;stroke:#feffb3;stroke-dasharray:3.7,1.6;stroke-dashoffset:0;"/>
    </g>
    <g id="line2d_52"/>
    <g id="text_21">
     <!-- Unflagged unique stars -->
     <g style="fill:#ffffff;" transform="translate(208.645145 176.057333)scale(0.1 -0.1)">
      <use xlink:href="#Roboto-Regular-55"/>
      <use x="64.84375" xlink:href="#Roboto-Regular-6e"/>
      <use x="120.019531" xlink:href="#Roboto-Regular-66"/>
      <use x="154.736328" xlink:href="#Roboto-Regular-6c"/>
      <use x="179.003906" xlink:href="#Roboto-Regular-61"/>
      <use x="233.398438" xlink:href="#Roboto-Regular-67"/>
      <use x="289.501953" xlink:href="#Roboto-Regular-67"/>
      <use x="345.605469" xlink:href="#Roboto-Regular-65"/>
      <use x="398.583984" xlink:href="#Roboto-Regular-64"/>
      <use x="454.980469" xlink:href="#Roboto-Regular-20"/>
      <use x="479.736328" xlink:href="#Roboto-Regular-75"/>
      <use x="534.863281" xlink:href="#Roboto-Regular-6e"/>
      <use x="590.039062" xlink:href="#Roboto-Regular-69"/>
      <use x="614.306641" xlink:href="#Roboto-Regular-71"/>
      <use x="671.142578" xlink:href="#Roboto-Regular-75"/>
      <use x="726.269531" xlink:href="#Roboto-Regular-65"/>
      <use x="779.248047" xlink:href="#Roboto-Regular-20"/>
      <use x="804.003906" xlink:href="#Roboto-Regular-73"/>
      <use x="855.566406" xlink:href="#Roboto-Regular-74"/>
      <use x="888.232422" xlink:href="#Roboto-Regular-61"/>
      <use x="942.626953" xlink:href="#Roboto-Regular-72"/>
      <use x="976.464844" xlink:href="#Roboto-Regular-73"/>
     </g>
    </g>
   </g>
  </g>
 </g>
 <defs>
  <clipPath id="p9f734c50a5">
   <rect height="179.93702" width="280.699833" x="39.748438" y="7.2"/>
  </clipPath>
 </defs>
</svg>
